<svg width="14" height="18" viewBox="0 0 14 18" fill="none" xmlns="http://www.w3.org/2000/svg">
<path d="M11.8403 2.81097L11.8403 2.81097L11.8412 2.81195C12.6834 3.72637 12.6862 5.14842 11.8429 6.09149L10.0782 7.83057L9.9706 7.93663L10.0774 8.04347L10.6155 8.58155L10.7216 8.68762L10.8277 8.58155L12.5956 6.81357C13.9641 5.44509 13.9069 3.19699 12.5177 1.83455L12.5177 1.83455L12.5166 1.83348C11.1518 0.522175 8.98461 0.522175 7.61979 1.83348L7.61978 1.83347L7.61842 1.83481L5.85044 3.57716L5.85042 3.57715L5.84864 3.57897C4.48466 4.9697 4.48466 7.18979 5.84864 8.58052L5.95469 8.68865L6.06179 8.58155L6.59988 8.04347L6.70461 7.93874L6.60121 7.83269C5.65894 6.86626 5.65872 5.3198 6.60055 4.3531L8.33892 2.61473C9.37878 1.69898 10.9224 1.79652 11.8403 2.81097Z" fill="#5DCB42" stroke="#5DCB42" stroke-width="0.3"/>
<path d="M3.08159 9.3173L1.34075 11.0581C-0.0750818 12.3955 -0.155876 14.6159 1.18245 16.0345C2.5196 17.4519 4.74119 17.5333 6.16035 16.1944L6.17276 16.1827L6.18223 16.1685C6.19894 16.1435 6.21525 16.1268 6.23715 16.1049C6.23831 16.1038 6.23952 16.1026 6.2408 16.1013C6.25716 16.085 6.2832 16.0591 6.30527 16.0242L8.05881 14.2961L8.05882 14.2961L8.06061 14.2943C9.42403 12.9041 9.42549 10.6832 8.05958 9.3173L7.95352 9.21124L7.84745 9.3173L7.30937 9.85539L7.2033 9.96145L7.30937 10.0675C8.27559 11.0337 8.27571 12.5784 7.30973 13.5447C7.30961 13.5448 7.30949 13.545 7.30937 13.5451L5.54217 15.2867L5.54216 15.2867L5.54139 15.2874C4.57505 16.2538 3.03016 16.2538 2.06382 15.2874C1.0976 14.3212 1.09748 12.7766 2.06346 11.8102C2.06358 11.8101 2.0637 11.81 2.06382 11.8099L3.83102 10.0683L3.93864 9.96223L3.8318 9.85539L3.29372 9.3173L3.18765 9.21124L3.08159 9.3173Z" fill="#5DCB42" stroke="#5DCB42" stroke-width="0.3"/>
<path d="M9.48164 7.21424L9.5877 7.10818L9.48164 7.00211L8.9381 6.45857L8.83203 6.35251L8.72597 6.45857L4.48636 10.6982L4.3803 10.8042L4.48636 10.9103L5.0299 11.4538L5.13597 11.5599L5.24203 11.4538L9.48164 7.21424Z" fill="#5DCB42" stroke="#5DCB42" stroke-width="0.3"/>
</svg>
