<svg width="24" height="24" viewBox="0 0 24 24" fill="none" xmlns="http://www.w3.org/2000/svg">
    <path fill-rule="evenodd" clip-rule="evenodd" d="M6.84501 20.9662C7.46877 21.0809 8.18572 21.1384 9.00978 21.1384H14.9913C15.8154 21.1384 16.5323 21.0809 17.1561 20.9662C16.6105 19.2285 14.6139 17.7854 12.0005 17.7854C9.38719 17.7854 7.39064 19.2285 6.84501 20.9662ZM5.05163 21.5203C5.31853 18.366 8.47566 16.1239 12.0005 16.1239C15.5254 16.1239 18.6826 18.366 18.9495 21.5203C18.9827 21.9132 18.7352 22.2753 18.357 22.3871C17.3792 22.676 16.2574 22.8 14.9913 22.8H9.00978C7.74369 22.8 6.62191 22.676 5.64404 22.3871C5.2659 22.2753 5.01838 21.9132 5.05163 21.5203Z" fill="#787F9D"/>
    <path fill-rule="evenodd" clip-rule="evenodd" d="M3.06352 3.06328C4.41709 1.70971 6.43518 1.19995 9.00943 1.19995H14.991C17.5652 1.19995 19.5833 1.70971 20.9369 3.06328C22.2904 4.41684 22.8002 6.43494 22.8002 9.00918V14.9907C22.8002 16.9421 22.5089 18.5673 21.7823 19.8301C21.036 21.1271 19.8808 21.9557 18.3476 22.3897C18.1089 22.4573 17.8526 22.4147 17.6486 22.2735C17.4446 22.1324 17.3144 21.9075 17.2935 21.6604C17.1217 19.6307 14.9557 17.7854 12.0005 17.7854C9.04543 17.7854 6.87864 19.6307 6.7069 21.6604C6.68599 21.9075 6.55574 22.1324 6.35177 22.2735C6.14781 22.4147 5.89145 22.4573 5.6528 22.3897C4.11955 21.9557 2.96434 21.1271 2.21808 19.8301C1.49149 18.5673 1.2002 16.9421 1.2002 14.9907V9.00918C1.2002 6.43494 1.70996 4.41684 3.06352 3.06328ZM4.23841 4.23816C3.3489 5.12767 2.86173 6.59881 2.86173 9.00918V14.9907C2.86173 16.8077 3.13868 18.0985 3.65825 19.0015C4.02589 19.6405 4.53901 20.127 5.25352 20.4725C6.04758 17.881 8.88014 16.1239 12.0005 16.1239C15.121 16.1239 17.9528 17.881 18.7469 20.4725C19.4614 20.127 19.9745 19.6405 20.3421 19.0015C20.8617 18.0985 21.1387 16.8077 21.1387 14.9907V9.00918C21.1387 6.59881 20.6515 5.12767 19.762 4.23816C18.8725 3.34865 17.4013 2.86149 14.991 2.86149H9.00943C6.59906 2.86149 5.12792 3.34865 4.23841 4.23816ZM12.0002 7.8461C10.4851 7.8461 9.26198 9.06925 9.26198 10.5843C9.26198 12.1024 10.4881 13.3325 12.0002 13.3325C13.5123 13.3325 14.7384 12.1024 14.7384 10.5843C14.7384 9.06925 13.5153 7.8461 12.0002 7.8461ZM7.60044 10.5843C7.60044 8.15161 9.56746 6.18457 12.0002 6.18457C14.4329 6.18457 16.4 8.15161 16.4 10.5843C16.4 13.0141 14.4359 14.994 12.0002 14.994C9.56446 14.994 7.60044 13.0141 7.60044 10.5843Z" fill="#787F9D"/>
    <path fill-rule="evenodd" clip-rule="evenodd" d="M12.0002 7.8461C10.4851 7.8461 9.26198 9.06925 9.26198 10.5843C9.26198 12.1024 10.4881 13.3325 12.0002 13.3325C13.5123 13.3325 14.7384 12.1024 14.7384 10.5843C14.7384 9.06925 13.5153 7.8461 12.0002 7.8461ZM7.60044 10.5843C7.60044 8.15161 9.56746 6.18457 12.0002 6.18457C14.4329 6.18457 16.4 8.15161 16.4 10.5843C16.4 13.0141 14.4359 14.994 12.0002 14.994C9.56446 14.994 7.60044 13.0141 7.60044 10.5843Z" fill="#787F9D"/>
</svg>
