<svg width="24" height="24" viewBox="0 0 24 24" fill="none" xmlns="http://www.w3.org/2000/svg">
    <path fill-rule="evenodd" clip-rule="evenodd" d="M9.95789 2.70526C8.38824 2.70526 7.11579 3.97772 7.11579 5.54737C7.11579 7.11702 8.38824 8.38947 9.95789 8.38947C11.5275 8.38947 12.8 7.11702 12.8 5.54737C12.8 3.97772 11.5275 2.70526 9.95789 2.70526ZM5.41053 5.54737C5.41053 3.03593 7.44645 1 9.95789 1C12.4693 1 14.5053 3.03593 14.5053 5.54737C14.5053 8.05881 12.4693 10.0947 9.95789 10.0947C7.44645 10.0947 5.41053 8.05881 5.41053 5.54737ZM2 18.7632C2 15.2314 4.86302 12.3684 8.39474 12.3684H10.8105C11.2814 12.3684 11.6632 12.7502 11.6632 13.2211C11.6632 13.6919 11.2814 14.0737 10.8105 14.0737H8.39474C5.80481 14.0737 3.70526 16.1732 3.70526 18.7632C3.70526 19.3125 4.15062 19.7579 4.7 19.7579H8.53684C9.00774 19.7579 9.38947 20.1396 9.38947 20.6105C9.38947 21.0814 9.00774 21.4632 8.53684 21.4632H4.7C3.20883 21.4632 2 20.2543 2 18.7632ZM16.7789 13.5053C17.2498 13.5053 17.6316 13.887 17.6316 14.3579V17.2001H20.4737C20.9446 17.2001 21.3263 17.5819 21.3263 18.0528C21.3263 18.5237 20.9446 18.9054 20.4737 18.9054H17.6316V21.7474C17.6316 22.2183 17.2498 22.6 16.7789 22.6C16.3081 22.6 15.9263 22.2183 15.9263 21.7474V18.9054H13.0842C12.6133 18.9054 12.2316 18.5237 12.2316 18.0528C12.2316 17.5819 12.6133 17.2001 13.0842 17.2001H15.9263V14.3579C15.9263 13.887 16.3081 13.5053 16.7789 13.5053Z" fill="#1F243B"/>
</svg>
