<svg width="14" height="18" viewBox="0 0 10 12" fill="none" xmlns="http://www.w3.org/2000/svg">
<path d="M8.36232 1.76768L8.36232 1.76768L8.36322 1.76866C8.92649 2.38021 8.92927 3.33201 8.36492 3.96423L7.15024 5.1613L7.04262 5.26736L7.14947 5.3742L7.52017 5.7449L7.62623 5.85097L7.7323 5.7449L8.95032 4.52688C9.9123 3.5649 9.87101 1.98632 8.89633 1.03038L8.89633 1.03037L8.89522 1.0293C7.93689 0.108552 6.41531 0.108552 5.45698 1.0293L5.45697 1.02929L5.45561 1.03063L4.23759 2.23099L4.23758 2.23098L4.23579 2.2328C3.27831 3.20906 3.27831 4.76761 4.23579 5.74387L4.34185 5.852L4.44895 5.7449L4.81965 5.3742L4.92438 5.26947L4.82098 5.16342C4.18956 4.5158 4.18934 3.47946 4.82033 2.83157L6.01668 1.63522C6.71381 1.02233 7.74736 1.08798 8.36232 1.76768Z" fill="#4D4D4D" stroke="#4D4D4D" stroke-width="0.3"/>
<path d="M5.24256 9.09806L4.02532 10.2977L4.02532 10.2976L4.02454 10.2984C3.37702 10.9459 2.34224 10.9459 1.69472 10.2984C1.04733 9.65103 1.0472 8.61651 1.69436 7.96897C1.69448 7.96885 1.6946 7.96873 1.69472 7.96861L2.91196 6.76901L3.01958 6.66295L2.91274 6.55611L2.54204 6.18541L2.43597 6.07934L2.32991 6.18541L1.13106 7.38426C0.137668 8.32305 0.0807872 9.88194 1.02059 10.8781C1.95921 11.8731 3.51925 11.9305 4.51598 10.9902L4.52839 10.9785L4.53785 10.9643C4.54659 10.9512 4.55493 10.9425 4.56986 10.9276C4.57068 10.9268 4.57159 10.9259 4.57257 10.9249C4.58313 10.9144 4.60257 10.8952 4.62012 10.8687L5.82461 9.68166L5.82463 9.68168L5.82642 9.67986C6.78334 8.70417 6.78481 7.14482 5.82539 6.18541L5.71933 6.07934L5.61326 6.18541L5.24256 6.55611L5.13649 6.66217L5.24256 6.76824C5.88995 7.41563 5.89008 8.45014 5.24293 9.09768C5.24281 9.09781 5.24268 9.09793 5.24256 9.09806Z" fill="#4D4D4D" stroke="#4D4D4D" stroke-width="0.3"/>
<path d="M6.80474 4.80325L6.91081 4.69718L6.80474 4.59112L6.43028 4.21666L6.32422 4.11059L6.21815 4.21666L3.29736 7.13745L3.19129 7.24352L3.29736 7.34958L3.67182 7.72405L3.77788 7.83011L3.88395 7.72405L6.80474 4.80325Z" fill="#4D4D4D" stroke="#4D4D4D" stroke-width="0.3"/>
</svg>
