<svg width="15" height="18" viewBox="0 0 15 18" fill="none" xmlns="http://www.w3.org/2000/svg">
<path d="M12.1645 2.81072L12.1645 2.81073L12.1654 2.81171C13.0076 3.72613 13.0104 5.14817 12.1671 6.09124L10.4024 7.83032L10.2948 7.93638L10.4017 8.04323L10.9397 8.58131L11.0458 8.68737L11.1519 8.58131L12.9199 6.81333C14.2883 5.44485 14.2311 3.19674 12.842 1.83431L12.842 1.8343L12.8408 1.83323C11.476 0.52193 9.30883 0.52193 7.944 1.83323L7.944 1.83322L7.94264 1.83456L6.17466 3.57692L6.17464 3.5769L6.17286 3.57873C4.80888 4.96945 4.80888 7.18955 6.17286 8.58027L6.27891 8.68841L6.38601 8.58131L6.92409 8.04323L7.02883 7.9385L6.92543 7.83245C5.98315 6.86601 5.98293 5.31956 6.92477 4.35285L8.66314 2.61448C9.703 1.69874 11.2466 1.79627 12.1645 2.81072Z" fill="#C562C3" stroke="#C562C3" stroke-width="0.3"/>
<path d="M3.40581 9.31752L1.66497 11.0584C0.249137 12.3957 0.168343 14.6161 1.50667 16.0347C2.84382 17.4521 5.06541 17.5335 6.48457 16.1947L6.49698 16.1829L6.50645 16.1687C6.52316 16.1437 6.53947 16.127 6.56137 16.1051C6.56252 16.104 6.56374 16.1028 6.56502 16.1015C6.58138 16.0852 6.60742 16.0593 6.62949 16.0244L8.38302 14.2963L8.38304 14.2963L8.38483 14.2945C9.74825 12.9043 9.74971 10.6834 8.3838 9.31752L8.27774 9.21145L8.17167 9.31752L7.63359 9.8556L7.52752 9.96166L7.63359 10.0677C8.59981 11.0339 8.59993 12.5786 7.63395 13.5449C7.63383 13.5451 7.63371 13.5452 7.63359 13.5453L5.86638 15.2869L5.86638 15.2869L5.86561 15.2877C4.89927 16.254 3.35438 16.254 2.38804 15.2877C1.42182 14.3214 1.4217 12.7768 2.38768 11.8105C2.3878 11.8103 2.38792 11.8102 2.38804 11.8101L4.15524 10.0685L4.26286 9.96244L4.15602 9.8556L3.61794 9.31752L3.51187 9.21145L3.40581 9.31752Z" fill="#C562C3" stroke="#C562C3" stroke-width="0.3"/>
<path d="M9.80585 7.21381L9.91192 7.10775L9.80585 7.00168L9.26232 6.45814L9.15625 6.35208L9.05018 6.45814L4.81058 10.6977L4.70452 10.8038L4.81058 10.9099L5.35412 11.4534L5.46019 11.5595L5.56625 11.4534L9.80585 7.21381Z" fill="#C562C3" stroke="#C562C3" stroke-width="0.3"/>
</svg>
