<svg width="20" height="20" viewBox="0 0 20 20" fill="none" xmlns="http://www.w3.org/2000/svg">
    <g id="24 / Resend">
        <g id="Vector">
            <path fill-rule="evenodd" clip-rule="evenodd" d="M2.65764 2.90833C1.95282 2.90833 1.27686 3.18832 0.778467 3.68671C0.280078 4.18509 8.60803e-05 4.86105 8.60803e-05 5.56588L8.60803e-05 6.47709C-2.87739e-05 6.48497 -2.8613e-05 6.49285 8.60803e-05 6.50073L8.60803e-05 14.8036C8.60803e-05 15.5084 0.280078 16.1844 0.778467 16.6828C1.27685 17.1812 1.95281 17.4612 2.65764 17.4612H12.4062C12.1477 16.9755 11.9944 16.4254 11.9768 15.8411L2.65764 15.8411C2.38247 15.8411 2.11857 15.7318 1.924 15.5372C1.72943 15.3427 1.62011 15.0788 1.62011 14.8036L1.62011 8.00318L7.6491 12.0225C8.08576 12.3138 8.59915 12.4694 9.12404 12.4694C9.64894 12.4694 10.1621 12.3139 10.5987 12.0227L16.628 8.00318V11.1901C17.2122 11.2078 17.7624 11.3612 18.248 11.6197V6.50068C18.2481 6.49708 18.2481 6.49347 18.2481 6.48986C18.2481 6.48562 18.2481 6.48138 18.248 6.47714V5.56588C18.248 4.86105 17.968 4.18509 17.4696 3.68671C16.9712 3.18832 16.2953 2.90833 15.5904 2.90833L2.65764 2.90833ZM9.70011 10.6747L16.628 6.05615V5.56588C16.628 5.29071 16.5187 5.02681 16.3241 4.83224C16.1295 4.63766 15.8656 4.52835 15.5904 4.52835L2.65764 4.52835C2.38247 4.52835 2.11857 4.63767 1.924 4.83224C1.72943 5.02681 1.62011 5.29071 1.62011 5.56588L1.62011 6.05615L8.54797 10.6747C8.71847 10.7885 8.91908 10.8493 9.12404 10.8493C9.32901 10.8493 9.52962 10.7885 9.70011 10.6747Z" fill="#3AA625"/>
            <path d="M16.2026 11.8919V11.1169C16.2026 10.9221 15.9584 10.8268 15.8183 10.9654L14.5525 12.1733C14.4621 12.2599 14.4621 12.3941 14.5525 12.4807L15.8138 13.6886C15.9584 13.8228 16.2026 13.7276 16.2026 13.5328V12.7578C17.6989 12.7578 18.915 13.9224 18.915 15.3555C18.915 15.6975 18.8472 16.0309 18.7161 16.3296C18.6483 16.4855 18.698 16.663 18.8201 16.7799C19.0506 17.0007 19.4394 16.9228 19.5615 16.6327C19.7287 16.2387 19.8191 15.8058 19.8191 15.3555C19.8191 13.4418 18.2007 11.8919 16.2026 11.8919ZM16.2026 17.9532C14.7062 17.9532 13.4901 16.7886 13.4901 15.3555C13.4901 15.0135 13.5579 14.6801 13.689 14.3813C13.7568 14.2255 13.7071 14.048 13.5851 13.9311C13.3545 13.7103 12.9657 13.7882 12.8437 14.0783C12.6764 14.4723 12.586 14.9052 12.586 15.3555C12.586 17.2691 14.2044 18.8191 16.2026 18.8191L16.2026 19.5941C16.2026 19.7889 16.4467 19.8842 16.5868 19.7456L17.8481 18.5377C17.9385 18.4511 17.9385 18.3169 17.8481 18.2303L16.5868 17.0223C16.4467 16.8881 16.2026 16.9834 16.2026 17.1782V17.9532Z" fill="#3AA625"/>
            <path fill-rule="evenodd" clip-rule="evenodd" d="M14.5525 12.1733L15.8183 10.9654C15.9584 10.8268 16.2026 10.9221 16.2026 11.1169V11.8919C18.2007 11.8919 19.8191 13.4418 19.8191 15.3555C19.8191 15.8058 19.7287 16.2387 19.5615 16.6327C19.4394 16.9228 19.0506 17.0007 18.8201 16.7799C18.698 16.663 18.6483 16.4855 18.7161 16.3296C18.8472 16.0309 18.915 15.6975 18.915 15.3555C18.915 13.9806 17.7957 12.8528 16.3834 12.7635C16.3236 12.7597 16.2633 12.7578 16.2026 12.7578V13.5328C16.2026 13.7276 15.9584 13.8228 15.8138 13.6886L14.5525 12.4807C14.4621 12.3941 14.4621 12.2599 14.5525 12.1733ZM16.3834 12.9495V13.5328C16.3834 13.72 16.2637 13.8533 16.1276 13.9073C15.9926 13.9608 15.8214 13.946 15.6925 13.8264L15.6904 13.8244L14.4291 12.6165C14.2621 12.4565 14.2621 12.1975 14.4291 12.0375L15.6942 10.8303C15.8208 10.7062 15.9924 10.6896 16.1276 10.7427C16.264 10.7963 16.3834 10.93 16.3834 11.1169V11.7103C18.3866 11.8007 20 13.3863 20 15.3555C20 15.8314 19.9044 16.2896 19.7273 16.7069C19.553 17.1201 19.0141 17.2196 18.6967 16.9157C18.5285 16.7546 18.4462 16.4946 18.551 16.2539C18.671 15.9803 18.7341 15.6726 18.7341 15.3555C18.7341 14.0939 17.706 13.0383 16.3834 12.9495ZM13.689 14.3813C13.5579 14.6801 13.4901 15.0135 13.4901 15.3555C13.4901 16.7304 14.6094 17.8582 16.0217 17.9475C16.0815 17.9513 16.1418 17.9532 16.2026 17.9532V17.1782C16.2026 16.9834 16.4467 16.8881 16.5868 17.0223L17.8481 18.2303C17.9385 18.3169 17.9385 18.4511 17.8481 18.5377L16.5868 19.7456C16.4467 19.8842 16.2026 19.7889 16.2026 19.5941L16.2026 18.8191C14.2044 18.8191 12.586 17.2691 12.586 15.3555C12.586 14.9052 12.6764 14.4723 12.8437 14.0783C12.9657 13.7882 13.3545 13.7103 13.5851 13.9311C13.7071 14.048 13.7568 14.2255 13.689 14.3813ZM12.6779 14.0041C12.8522 13.5909 13.391 13.4913 13.7084 13.7953C13.8766 13.9564 13.9589 14.2164 13.8542 14.4571C13.7341 14.7306 13.671 15.0384 13.671 15.3555C13.671 16.6171 14.6991 17.6726 16.0217 17.7615V17.1782C16.0217 16.9912 16.1412 16.8579 16.2765 16.8038C16.4108 16.7502 16.5826 16.7644 16.7102 16.8866L17.9715 18.0945C18.1385 18.2545 18.1385 18.5134 17.9715 18.6735L16.7111 19.8805C16.5845 20.0047 16.4128 20.0214 16.2775 19.9683C16.1411 19.9147 16.0217 19.781 16.0217 19.5941V19.0007C14.0186 18.9102 12.4051 17.3247 12.4051 15.3555C12.4051 14.8796 12.5007 14.4214 12.6779 14.0041Z" fill="#3AA625"/>
        </g>
    </g>
</svg>
