<svg width="16" height="16" viewBox="0 0 16 16" fill="none" xmlns="http://www.w3.org/2000/svg">
    <path fill-rule="evenodd" clip-rule="evenodd" d="M3.33336 1.40039C3.66473 1.40039 3.93336 1.66902 3.93336 2.00039V2.73372H4.66669C4.99806 2.73372 5.26669 3.00235 5.26669 3.33372C5.26669 3.66509 4.99806 3.93372 4.66669 3.93372H3.93336V4.66706C3.93336 4.99843 3.66473 5.26706 3.33336 5.26706C3.00199 5.26706 2.73336 4.99843 2.73336 4.66706V3.93372H2.00002C1.66865 3.93372 1.40002 3.66509 1.40002 3.33372C1.40002 3.00235 1.66865 2.73372 2.00002 2.73372H2.73336V2.00039C2.73336 1.66902 3.00199 1.40039 3.33336 1.40039ZM8.66669 1.40039C8.92494 1.40039 9.15422 1.56564 9.23589 1.81063L10.6694 6.11044L14.2107 7.4386C14.4449 7.52643 14.6 7.75029 14.6 8.00039C14.6 8.25049 14.4449 8.47436 14.2107 8.56218L10.6694 9.89034L9.23589 14.1902C9.15422 14.4351 8.92494 14.6004 8.66669 14.6004C8.40844 14.6004 8.17917 14.4351 8.09749 14.1902L6.66401 9.89034L3.12266 8.56218C2.88849 8.47436 2.73336 8.25049 2.73336 8.00039C2.73336 7.75029 2.88849 7.52643 3.12266 7.4386L6.66401 6.11044L8.09749 1.81063C8.17917 1.56564 8.40844 1.40039 8.66669 1.40039ZM8.66669 3.89751L7.71189 6.76149C7.65464 6.93323 7.52289 7.06994 7.35339 7.13351L5.04198 8.00039L7.35339 8.86727C7.52289 8.93084 7.65464 9.06755 7.71189 9.2393L8.66669 12.1033L9.62149 9.2393C9.67875 9.06755 9.81049 8.93084 9.98 8.86727L12.2914 8.00039L9.98 7.13351C9.81049 7.06994 9.67875 6.93323 9.62149 6.76149L8.66669 3.89751ZM4.00002 10.7337C4.3314 10.7337 4.60002 11.0024 4.60002 11.3337V12.0671H5.33336C5.66473 12.0671 5.93336 12.3357 5.93336 12.6671C5.93336 12.9984 5.66473 13.2671 5.33336 13.2671H4.60002V14.0004C4.60002 14.3318 4.3314 14.6004 4.00002 14.6004C3.66865 14.6004 3.40002 14.3318 3.40002 14.0004V13.2671H2.66669C2.33532 13.2671 2.06669 12.9984 2.06669 12.6671C2.06669 12.3357 2.33532 12.0671 2.66669 12.0671H3.40002V11.3337C3.40002 11.0024 3.66865 10.7337 4.00002 10.7337Z" fill="#575D7A"/>
</svg>
