<svg width="20" height="20" viewBox="0 0 20 20" fill="none" xmlns="http://www.w3.org/2000/svg">
    <path fill-rule="evenodd" clip-rule="evenodd" d="M10 4.03281C9.52262 4.03281 9.06478 4.22246 8.72722 4.56002C8.38965 4.89759 8.20001 5.35542 8.20001 5.83281C8.20001 6.3102 8.38965 6.76804 8.72722 7.1056C9.06478 7.44317 9.52262 7.63281 10 7.63281C10.4774 7.63281 10.9352 7.44317 11.2728 7.1056C11.6104 6.76804 11.8 6.3102 11.8 5.83281C11.8 5.35542 11.6104 4.89759 11.2728 4.56002C10.9352 4.22246 10.4774 4.03281 10 4.03281ZM7.73727 3.57007C8.33738 2.96995 9.15132 2.63281 10 2.63281C10.8487 2.63281 11.6626 2.96995 12.2628 3.57007C12.8629 4.17019 13.2 4.98412 13.2 5.83281C13.2 6.68151 12.8629 7.49544 12.2628 8.09555C11.6626 8.69567 10.8487 9.03281 10 9.03281C9.15132 9.03281 8.33738 8.69567 7.73727 8.09555C7.13715 7.49544 6.80001 6.68151 6.80001 5.83281C6.80001 4.98412 7.13715 4.17019 7.73727 3.57007ZM4.16667 7.36615C3.9103 7.36615 3.66442 7.46799 3.48314 7.64928C3.30185 7.83056 3.20001 8.07644 3.20001 8.33281C3.20001 8.58919 3.30185 8.83506 3.48314 9.01635C3.66442 9.19763 3.9103 9.29948 4.16667 9.29948C4.42305 9.29948 4.66893 9.19763 4.85021 9.01635C5.0315 8.83506 5.13334 8.58919 5.13334 8.33281C5.13334 8.07644 5.0315 7.83056 4.85021 7.64928C4.66893 7.46799 4.42305 7.36615 4.16667 7.36615ZM2.49319 6.65933C2.93702 6.21549 3.539 5.96615 4.16668 5.96615C4.79435 5.96615 5.39633 6.21549 5.84016 6.65933C6.284 7.10316 6.53334 7.70513 6.53334 8.33281C6.53334 8.96049 6.284 9.56246 5.84016 10.0063C5.39633 10.4501 4.79435 10.6995 4.16667 10.6995C3.539 10.6995 2.93702 10.4501 2.49319 10.0063C2.04935 9.56246 1.80001 8.96049 1.80001 8.33281C1.80001 7.70513 2.04935 7.10316 2.49319 6.65933ZM15.8333 7.36615C15.577 7.36615 15.3311 7.46799 15.1498 7.64928C14.9685 7.83056 14.8667 8.07644 14.8667 8.33281C14.8667 8.58919 14.9685 8.83506 15.1498 9.01635C15.3311 9.19763 15.577 9.29948 15.8333 9.29948C16.0897 9.29948 16.3356 9.19763 16.5169 9.01635C16.6982 8.83506 16.8 8.58919 16.8 8.33281C16.8 8.07644 16.6982 7.83056 16.5169 7.64928C16.3356 7.46799 16.0897 7.36615 15.8333 7.36615ZM14.1599 6.65933C14.6037 6.21549 15.2057 5.96615 15.8333 5.96615C16.461 5.96615 17.063 6.21549 17.5068 6.65933C17.9507 7.10316 18.2 7.70513 18.2 8.33281C18.2 8.96049 17.9507 9.56246 17.5068 10.0063C17.063 10.4501 16.461 10.6995 15.8333 10.6995C15.2057 10.6995 14.6037 10.4501 14.1599 10.0063C13.716 9.56246 13.4667 8.96049 13.4667 8.33281C13.4667 7.70513 13.716 7.10316 14.1599 6.65933ZM10 11.5322C9.30691 11.5322 8.6297 11.7399 8.05575 12.1284C7.48179 12.517 7.0374 13.0685 6.77991 13.712C6.62103 14.1086 6.53334 14.5431 6.53334 14.9995V15.9661H13.4667V14.9995C13.4667 14.5431 13.3791 14.1089 13.2202 13.7123C12.9627 13.0688 12.5182 12.517 11.9443 12.1284C11.3703 11.7399 10.6931 11.5322 10 11.5322ZM14.8667 15.9661H17.6333V14.9995C17.6333 14.9995 17.6333 14.9995 17.6333 14.9995C17.6333 14.6255 17.5167 14.2607 17.2998 13.9559C17.0829 13.6511 16.7764 13.4215 16.423 13.299C16.0696 13.1764 15.6867 13.1671 15.3277 13.2721C15.0849 13.3432 14.8612 13.4642 14.6702 13.626C14.7983 14.0624 14.8667 14.5237 14.8667 14.9995V15.9661ZM14.07 12.3293C13.719 11.7945 13.2641 11.3313 12.7291 10.9691C11.9234 10.4237 10.9729 10.1322 10 10.1322C9.02714 10.1322 8.07658 10.4237 7.27094 10.9691C6.73587 11.3313 6.28103 11.7945 5.92998 12.3293C5.66503 12.1544 5.37396 12.0188 5.0656 11.9285C4.42734 11.7417 3.74674 11.7584 3.11841 11.9762C2.49007 12.1941 1.94522 12.6023 1.55959 13.1441C1.17397 13.6859 0.966723 14.3344 0.966675 14.9994V16.6661C0.966675 17.0527 1.28008 17.3661 1.66667 17.3661H18.3333C18.7199 17.3661 19.0333 17.0527 19.0333 16.6661V14.9995C19.0333 14.3344 18.826 13.6859 18.4404 13.1441C18.0548 12.6023 17.5099 12.1941 16.8816 11.9762C16.2533 11.7584 15.5727 11.7417 14.9344 11.9285C14.6261 12.0188 14.335 12.1544 14.07 12.3293ZM5.32983 13.626C5.1388 13.4642 4.91509 13.3432 4.67232 13.2721C4.3133 13.1671 3.93046 13.1764 3.57703 13.299C3.22359 13.4215 2.91711 13.6511 2.70019 13.9559C2.48329 14.2607 2.36671 14.6254 2.36667 14.9995C2.36667 14.9995 2.36667 14.9995 2.36667 14.9995V15.9661H5.13334V14.9995C5.13334 14.5237 5.20168 14.0624 5.32983 13.626Z" fill="#575D7A"/>
</svg>
