<svg width="17" height="16" viewBox="0 0 17 16" fill="none" xmlns="http://www.w3.org/2000/svg">
    <path fill-rule="evenodd" clip-rule="evenodd" d="M9.84238 1.68767C11.0375 0.505151 12.9726 0.505151 14.1677 1.68767C15.3663 2.87368 15.3663 4.79925 14.1677 5.98526L7.64028 12.4439C6.92582 13.1508 5.77007 13.1508 5.05561 12.4439C4.33763 11.7334 4.33763 10.579 5.05561 9.86855L10.7127 4.27111C10.9482 4.03804 11.3281 4.04005 11.5612 4.2756C11.7943 4.51116 11.7923 4.89105 11.5567 5.12412L5.89963 10.7216C5.65629 10.9623 5.65629 11.3501 5.89963 11.5908C6.14651 11.8351 6.54938 11.8351 6.79626 11.5908L13.3237 5.13225C14.0477 4.41587 14.0477 3.25706 13.3237 2.54068C12.5961 1.82081 11.4139 1.82081 10.6864 2.54068L4.37017 8.79032C4.30737 8.85246 4.28292 8.8767 4.26042 8.90005C3.76656 9.41257 3.48447 10.0876 3.46748 10.7931C3.4667 10.8252 3.46666 10.8593 3.46666 10.9473C3.46666 11.1483 3.46684 11.2275 3.46992 11.2914C3.54024 12.7507 4.72182 13.9273 6.21042 13.9975C6.27558 14.0006 6.3562 14.0008 6.55912 14.0008C6.64789 14.0008 6.68263 14.0007 6.71537 14C7.43374 13.983 8.11883 13.7018 8.63716 13.2128C8.66077 13.1905 8.68527 13.1663 8.74807 13.1042L13.3237 8.57683C13.5592 8.34376 13.9391 8.34578 14.1722 8.58133C14.4052 8.81688 14.4032 9.19677 14.1677 9.42984L9.58663 13.9626C9.53105 14.0176 9.49591 14.0524 9.46063 14.0856C8.7255 14.7792 7.7567 15.1758 6.74365 15.1996C6.69508 15.2008 6.64552 15.2008 6.56696 15.2008H6.54036C6.36217 15.2008 6.25105 15.2008 6.15388 15.1962C4.05783 15.0973 2.3719 13.4366 2.27131 11.3491C2.26665 11.2525 2.26666 11.1421 2.26666 10.9663L2.26666 10.9395C2.26666 10.8618 2.26666 10.8125 2.26782 10.7642C2.29209 9.75654 2.69506 8.79513 3.39632 8.06739C3.42997 8.03247 3.46513 7.99768 3.52074 7.94266L9.84238 1.68767Z" fill="#575D7A"/>
</svg>
