<svg width="17" height="16" viewBox="0 0 17 16" fill="none" xmlns="http://www.w3.org/2000/svg">
    <path fill-rule="evenodd" clip-rule="evenodd" d="M8.66664 2.00078C5.35294 2.00078 2.66664 4.68707 2.66664 8.00078C2.66664 11.3145 5.35294 14.0008 8.66664 14.0008C11.9804 14.0008 14.6666 11.3145 14.6666 8.00078C14.6666 4.68707 11.9804 2.00078 8.66664 2.00078ZM1.46664 8.00078C1.46664 4.02433 4.69019 0.800781 8.66664 0.800781C12.6431 0.800781 15.8666 4.02433 15.8666 8.00078C15.8666 11.9772 12.6431 15.2008 8.66664 15.2008C4.69019 15.2008 1.46664 11.9772 1.46664 8.00078ZM8.46664 4.00078C8.79801 4.00078 9.06664 4.26941 9.06664 4.60078V7.60078H10.4666C10.798 7.60078 11.0666 7.86941 11.0666 8.20078C11.0666 8.53215 10.798 8.80078 10.4666 8.80078H8.46664C8.13527 8.80078 7.86664 8.53215 7.86664 8.20078V4.60078C7.86664 4.26941 8.13527 4.00078 8.46664 4.00078Z" fill="#575D7A"/>
</svg>
