<svg width="16" height="16" viewBox="0 0 16 16" fill="none" xmlns="http://www.w3.org/2000/svg">
    <g clip-path="url(#clip0_21365_174608)">
        <path fill-rule="evenodd" clip-rule="evenodd" d="M0.799988 3.00078C0.799988 1.78576 1.78496 0.800781 2.99999 0.800781H9.79999C11.015 0.800781 12 1.78575 12 3.00078V4.00078H13C14.215 4.00078 15.2 4.98575 15.2 6.20078V13.0008C15.2 14.2158 14.215 15.2008 13 15.2008H6.19999C4.98496 15.2008 3.99999 14.2158 3.99999 13.0008V12.0008H2.99999C1.78496 12.0008 0.799988 11.0158 0.799988 9.80078V3.00078ZM3.99999 10.8008V6.20078C3.99999 4.98576 4.98496 4.00078 6.19999 4.00078H10.8V3.00078C10.8 2.4485 10.3523 2.00078 9.79999 2.00078H2.99999C2.4477 2.00078 1.99999 2.4485 1.99999 3.00078V9.80078C1.99999 10.3531 2.4477 10.8008 2.99999 10.8008H3.99999ZM6.19999 5.20078C5.6477 5.20078 5.19999 5.6485 5.19999 6.20078V13.0008C5.19999 13.5531 5.6477 14.0008 6.19999 14.0008H13C13.5523 14.0008 14 13.5531 14 13.0008V6.20078C14 5.6485 13.5523 5.20078 13 5.20078H6.19999Z" fill="#575D7A"/>
    </g>
    <defs>
        <clipPath id="clip0_21365_174608">
            <rect width="16" height="16" fill="white"/>
        </clipPath>
    </defs>
</svg>
