<svg width="17" height="16" viewBox="0 0 17 16" fill="none" xmlns="http://www.w3.org/2000/svg">
    <path fill-rule="evenodd" clip-rule="evenodd" d="M4.4666 2.00078C3.91432 2.00078 3.4666 2.4485 3.4666 3.00078V9.20078H13.2552L10.7893 5.96441C10.6257 5.74961 10.6257 5.45195 10.7893 5.23715L13.2552 2.00078H4.4666ZM3.4666 10.4008V14.6008C3.4666 14.9322 3.19797 15.2008 2.8666 15.2008C2.53523 15.2008 2.2666 14.9322 2.2666 14.6008V3.00078C2.2666 1.78575 3.25158 0.800781 4.4666 0.800781H14.4666C14.6947 0.800781 14.903 0.9301 15.0043 1.13449C15.1055 1.33888 15.0821 1.58298 14.9439 1.76441L12.0209 5.60078L14.9439 9.43715C15.0821 9.61858 15.1055 9.86269 15.0043 10.0671C14.903 10.2715 14.6947 10.4008 14.4666 10.4008H3.4666Z" fill="#575D7A"/>
</svg>
