<svg width="16" height="16" viewBox="0 0 16 16" fill="none" xmlns="http://www.w3.org/2000/svg">
    <g clip-path="url(#clip0_21218_174330)">
        <path fill-rule="evenodd" clip-rule="evenodd" d="M0.800049 3.00078C0.800049 1.78576 1.78502 0.800781 3.00005 0.800781H13C14.2151 0.800781 15.2 1.78575 15.2 3.00078V10.6008C15.2 11.8158 14.2151 12.8008 13 12.8008H10.6C10.2853 12.8008 9.9889 12.949 9.80005 13.2008L8.48005 14.9608C8.36674 15.1119 8.1889 15.2008 8.00005 15.2008C7.81119 15.2008 7.63336 15.1119 7.52005 14.9608L6.20005 13.2008C6.01119 12.949 5.71481 12.8008 5.40005 12.8008H3.00005C1.78502 12.8008 0.800049 11.8158 0.800049 10.6008V3.00078ZM3.00005 2.00078C2.44776 2.00078 2.00005 2.4485 2.00005 3.00078V10.6008C2.00005 11.1531 2.44776 11.6008 3.00005 11.6008H5.40005C6.09251 11.6008 6.74457 11.9268 7.16005 12.4808L8.00005 13.6008L8.84005 12.4808C9.25553 11.9268 9.90758 11.6008 10.6 11.6008H13C13.5523 11.6008 14 11.1531 14 10.6008V3.00078C14 2.4485 13.5523 2.00078 13 2.00078H3.00005Z" fill="#575D7A"/>
    </g>
    <defs>
        <clipPath id="clip0_21218_174330">
            <rect width="16" height="16" fill="white"/>
        </clipPath>
    </defs>
</svg>
