<svg width="17" height="16" viewBox="0 0 17 16" fill="none" xmlns="http://www.w3.org/2000/svg">
    <path fill-rule="evenodd" clip-rule="evenodd" d="M6.99225 0.800782H9.6742C9.88019 0.800767 10.0694 0.800754 10.2275 0.813675C10.398 0.827606 10.5846 0.859496 10.7688 0.953374C11.0322 1.0876 11.2464 1.30177 11.3806 1.5652C11.4745 1.74944 11.5064 1.93598 11.5203 2.10649C11.5276 2.19558 11.5308 2.29453 11.5322 2.40078L11.5976 2.40078C12.0249 2.40077 12.3816 2.40077 12.673 2.42457C12.9769 2.4494 13.2622 2.50309 13.532 2.64057C13.946 2.85149 14.2825 3.18805 14.4934 3.602C14.6309 3.87181 14.6846 4.15714 14.7094 4.46105C14.7332 4.75243 14.7332 5.1091 14.7332 5.53642V12.0651C14.7332 12.4925 14.7332 12.8491 14.7094 13.1405C14.6846 13.4444 14.6309 13.7298 14.4934 13.9996C14.2825 14.4135 13.946 14.7501 13.532 14.961C13.2622 15.0985 12.9769 15.1522 12.673 15.177C12.3816 15.2008 12.0249 15.2008 11.5976 15.2008H5.06887C4.64155 15.2008 4.28488 15.2008 3.99349 15.177C3.68958 15.1522 3.40426 15.0985 3.13445 14.961C2.72049 14.7501 2.38394 14.4135 2.17301 13.9996C2.03554 13.7298 1.98185 13.4444 1.95702 13.1405C1.93321 12.8491 1.93322 12.4925 1.93323 12.0651V5.53644C1.93322 5.10911 1.93321 4.75243 1.95702 4.46105C1.98185 4.15714 2.03554 3.87181 2.17301 3.602C2.38394 3.18805 2.72049 2.85149 3.13445 2.64057C3.40426 2.50309 3.68958 2.4494 3.99349 2.42457C4.28488 2.40077 4.64156 2.40077 5.06888 2.40078L5.13429 2.40078C5.13567 2.29453 5.13884 2.19558 5.14612 2.10649C5.16005 1.93598 5.19194 1.74944 5.28582 1.5652C5.42004 1.30177 5.63421 1.0876 5.89764 0.953374C6.08189 0.859496 6.26842 0.827606 6.43893 0.813675C6.59708 0.800754 6.78626 0.800767 6.99225 0.800782ZM5.13429 3.60078H5.09323C4.63529 3.60078 4.32791 3.60125 4.09121 3.62059C3.86151 3.63936 3.75169 3.67286 3.67924 3.70978C3.49108 3.80565 3.33809 3.95863 3.24222 4.14679C3.20531 4.21924 3.1718 4.32907 3.15303 4.55877C3.13369 4.79547 3.13323 5.10284 3.13323 5.56078V12.0408C3.13323 12.4987 3.13369 12.8061 3.15303 13.0428C3.1718 13.2725 3.20531 13.3823 3.24222 13.4548C3.33809 13.6429 3.49108 13.7959 3.67924 13.8918C3.75169 13.9287 3.86151 13.9622 4.09121 13.981C4.32791 14.0003 4.63529 14.0008 5.09323 14.0008H11.5732C12.0312 14.0008 12.3385 14.0003 12.5752 13.981C12.8049 13.9622 12.9148 13.9287 12.9872 13.8918C13.1754 13.7959 13.3284 13.6429 13.4242 13.4548C13.4611 13.3823 13.4947 13.2725 13.5134 13.0428C13.5328 12.8061 13.5332 12.4987 13.5332 12.0408V5.56078C13.5332 5.10284 13.5328 4.79547 13.5134 4.55877C13.4947 4.32907 13.4611 4.21924 13.4242 4.14679C13.3284 3.95863 13.1754 3.80565 12.9872 3.70978C12.9148 3.67286 12.8049 3.63936 12.5752 3.62059C12.3385 3.60125 12.0312 3.60078 11.5732 3.60078H11.5322C11.5308 3.70704 11.5276 3.80598 11.5203 3.89508C11.5064 4.06559 11.4745 4.25212 11.3806 4.43637C11.2464 4.6998 11.0322 4.91397 10.7688 5.04819C10.5846 5.14207 10.398 5.17396 10.2275 5.18789C10.0694 5.20081 9.88019 5.2008 9.6742 5.20078H6.99226C6.78627 5.2008 6.59708 5.20081 6.43893 5.18789C6.26842 5.17396 6.08189 5.14207 5.89764 5.04819C5.63421 4.91397 5.42004 4.6998 5.28582 4.43637C5.19194 4.25212 5.16005 4.06559 5.14612 3.89508C5.13884 3.80598 5.13567 3.70704 5.13429 3.60078ZM6.43793 2.02456C6.4379 2.02456 6.43828 2.0244 6.43912 2.02413L6.43793 2.02456ZM6.44 2.02384C6.4471 2.02164 6.4736 2.01484 6.53665 2.00969C6.63995 2.00125 6.77931 2.00078 7.01323 2.00078H9.65323C9.88715 2.00078 10.0265 2.00125 10.1298 2.00969C10.1929 2.01484 10.2194 2.02164 10.2265 2.02384C10.2622 2.04266 10.2914 2.07184 10.3102 2.10755C10.3124 2.11465 10.3192 2.14116 10.3243 2.2042C10.3328 2.30751 10.3332 2.44686 10.3332 2.68078V3.32078C10.3332 3.5547 10.3328 3.69406 10.3243 3.79736C10.3192 3.86042 10.3124 3.88692 10.3102 3.89402C10.2914 3.92973 10.2622 3.95891 10.2265 3.97772C10.2194 3.97993 10.1929 3.98673 10.1298 3.99188C10.0265 4.00032 9.88715 4.00078 9.65323 4.00078H7.01323C6.77931 4.00078 6.63995 4.00032 6.53665 3.99188C6.4736 3.98673 6.4471 3.97993 6.44 3.97772C6.40429 3.95891 6.3751 3.92972 6.35629 3.89401C6.35408 3.88691 6.34729 3.86041 6.34213 3.79736C6.33369 3.69406 6.33323 3.5547 6.33323 3.32078V2.68078C6.33323 2.44686 6.33369 2.30751 6.34213 2.2042C6.34729 2.14116 6.35408 2.11466 6.35629 2.10755C6.3751 2.07184 6.40429 2.04266 6.44 2.02384ZM6.35701 2.10548C6.35702 2.1055 6.35688 2.10593 6.35656 2.1067L6.35701 2.10548ZM6.35701 3.89608C6.357 3.89611 6.35685 3.89573 6.35657 3.8949L6.35701 3.89608ZM6.43793 3.977C6.43795 3.97699 6.43837 3.97713 6.43914 3.97745L6.43793 3.977ZM10.2285 3.977C10.2285 3.97701 10.2282 3.97716 10.2273 3.97744L10.2285 3.977ZM10.3094 3.89608C10.3094 3.89606 10.3096 3.89564 10.3099 3.8949L10.3094 3.89608ZM10.3094 2.10548C10.3095 2.10546 10.3096 2.10584 10.3099 2.10667L10.3094 2.10548ZM10.2273 2.02412C10.2282 2.0244 10.2285 2.02456 10.2285 2.02456L10.2273 2.02412Z" fill="#575D7A"/>
</svg>
