<svg width="17" height="16" viewBox="0 0 17 16" fill="none" xmlns="http://www.w3.org/2000/svg">
    <path fill-rule="evenodd" clip-rule="evenodd" d="M4.93328 2.00078C4.38099 2.00078 3.93328 2.4485 3.93328 3.00078V13.0008C3.93328 13.5531 4.38099 14.0008 4.93328 14.0008H11.7333C12.2856 14.0008 12.7333 13.5531 12.7333 13.0008V6.00078H9.33328C9.00191 6.00078 8.73328 5.73215 8.73328 5.40078V2.00078H4.93328ZM9.93328 2.84931L11.8847 4.80078H9.93328V2.84931ZM2.73328 3.00078C2.73328 1.78575 3.71825 0.800781 4.93328 0.800781H9.33328C9.49241 0.800781 9.64502 0.863995 9.75754 0.976517L13.7575 4.97652C13.8701 5.08904 13.9333 5.24165 13.9333 5.40078V13.0008C13.9333 14.2158 12.9483 15.2008 11.7333 15.2008H4.93328C3.71825 15.2008 2.73328 14.2158 2.73328 13.0008V3.00078Z" fill="#575D7A"/>
</svg>
