<svg width="17" height="16" viewBox="0 0 17 16" fill="none" xmlns="http://www.w3.org/2000/svg">
    <path fill-rule="evenodd" clip-rule="evenodd" d="M7.85401 1.1374C8.30283 0.688575 9.03052 0.688575 9.47934 1.1374L11.1301 2.78811C11.5789 3.23694 11.5789 3.96462 11.1301 4.41345L9.47934 6.06416C9.41382 6.12969 9.34235 6.18565 9.26667 6.23204V7.40078H11.4667C12.6817 7.40078 13.6667 8.38587 13.6667 9.60086V9.76952C13.7423 9.81592 13.8138 9.87187 13.8793 9.9374L15.5301 11.5881C15.9789 12.0369 15.9789 12.7646 15.5301 13.2134L13.8793 14.8642C13.4305 15.313 12.7028 15.313 12.254 14.8642L10.6033 13.2134C10.1545 12.7646 10.1545 12.0369 10.6033 11.5881L12.254 9.9374C12.3195 9.87187 12.391 9.81592 12.4667 9.76952V9.60086C12.4667 9.04854 12.0189 8.60078 11.4667 8.60078H5.86667C5.31439 8.60078 4.86667 9.0485 4.86667 9.60078V9.76952C4.94235 9.81592 5.01382 9.87187 5.07934 9.9374L6.73006 11.5881C7.17888 12.0369 7.17888 12.7646 6.73006 13.2134L5.07934 14.8642C4.63052 15.313 3.90283 15.313 3.45401 14.8642L1.80329 13.2134C1.35447 12.7646 1.35447 12.0369 1.80329 11.5881L3.45401 9.9374C3.51953 9.87187 3.591 9.81592 3.66667 9.76952V9.60078C3.66667 8.38575 4.65165 7.40078 5.86667 7.40078H8.06667V6.23204C7.991 6.18565 7.91953 6.12969 7.85401 6.06416L6.20329 4.41345C5.75447 3.96462 5.75447 3.23694 6.20329 2.78811L7.85401 1.1374ZM8.66667 5.17977L10.2457 3.60078L8.66667 2.02179L7.08768 3.60078L8.66667 5.17977ZM4.26667 10.8218L2.68768 12.4008L4.26667 13.9798L5.84567 12.4008L4.26667 10.8218ZM4.23081 14.0156C4.23079 14.0157 4.23084 14.0156 4.23081 14.0156V14.0156ZM4.30245 14.0155C4.30242 14.0155 4.30248 14.0156 4.30245 14.0155V14.0155ZM13.0667 10.8218L11.4877 12.4008L13.0667 13.9798L14.6457 12.4008L13.0667 10.8218Z" fill="#575D7A"/>
</svg>
