<svg width="16" height="16" viewBox="0 0 16 16" fill="none" xmlns="http://www.w3.org/2000/svg">
    <g clip-path="url(#clip0_21365_174611)">
        <path fill-rule="evenodd" clip-rule="evenodd" d="M8.00002 2.00078C6.89545 2.00078 6.00002 2.89621 6.00002 4.00078C6.00002 5.10535 6.89545 6.00078 8.00002 6.00078C9.10459 6.00078 10 5.10535 10 4.00078C10 2.89621 9.10459 2.00078 8.00002 2.00078ZM4.80002 4.00078C4.80002 2.23347 6.23271 0.800781 8.00002 0.800781C9.76734 0.800781 11.2 2.23347 11.2 4.00078C11.2 5.76809 9.76734 7.20078 8.00002 7.20078C6.23271 7.20078 4.80002 5.76809 4.80002 4.00078ZM2.40002 13.3008C2.40002 10.8155 4.41474 8.80078 6.90002 8.80078H8.60002C8.9314 8.80078 9.20002 9.06941 9.20002 9.40078C9.20002 9.73215 8.9314 10.0008 8.60002 10.0008H6.90002C5.07748 10.0008 3.60002 11.4782 3.60002 13.3008C3.60002 13.6874 3.91343 14.0008 4.30002 14.0008H7.00002C7.3314 14.0008 7.60002 14.2694 7.60002 14.6008C7.60002 14.9322 7.3314 15.2008 7.00002 15.2008H4.30002C3.25068 15.2008 2.40002 14.3501 2.40002 13.3008ZM12.8 9.60078C13.1314 9.60078 13.4 9.86941 13.4 10.2008V12.2009H15.4C15.7314 12.2009 16 12.4695 16 12.8009C16 13.1322 15.7314 13.4009 15.4 13.4009H13.4V15.4008C13.4 15.7322 13.1314 16.0008 12.8 16.0008C12.4687 16.0008 12.2 15.7322 12.2 15.4008V13.4009H10.2C9.86865 13.4009 9.60002 13.1322 9.60002 12.8009C9.60002 12.4695 9.86865 12.2009 10.2 12.2009H12.2V10.2008C12.2 9.86941 12.4687 9.60078 12.8 9.60078Z" fill="#575D7A"/>
    </g>
    <defs>
        <clipPath id="clip0_21365_174611">
            <rect width="16" height="16" fill="white"/>
        </clipPath>
    </defs>
</svg>
