<svg width="16" height="14" viewBox="0 0 16 14" fill="none" xmlns="http://www.w3.org/2000/svg">
<path fill-rule="evenodd" clip-rule="evenodd" d="M9.95873 1.70845C9.08892 0.23 6.90386 0.229991 6.03405 1.70845L1.10313 10.0898C0.218822 11.5929 1.36122 13.3996 3.06547 13.3996H12.9273C14.6315 13.3996 15.774 11.5929 14.8896 10.0898L9.95873 1.70845ZM7.4 11.1996C7.4 11.531 7.66863 11.7996 8 11.7996C8.33137 11.7996 8.6 11.531 8.6 11.1996V10.9996C8.6 10.6682 8.33137 10.3996 8 10.3996C7.66863 10.3996 7.4 10.6682 7.4 10.9996V11.1996ZM7.4 8.19961C7.4 8.53098 7.66863 8.79961 8 8.79961C8.33137 8.79961 8.6 8.53098 8.6 8.19961L8.6 4.39961C8.6 4.06824 8.33137 3.79961 8 3.79961C7.66863 3.79961 7.4 4.06824 7.4 4.39961L7.4 8.19961Z" fill="#F04444"/>
</svg>
