<svg width="18" height="16" viewBox="0 0 18 16" fill="none" xmlns="http://www.w3.org/2000/svg">
<path fill-rule="evenodd" clip-rule="evenodd" d="M0 1.25C0 0.835786 0.335786 0.5 0.75 0.5H17.25C17.6642 0.5 18 0.835786 18 1.25C18 1.66421 17.6642 2 17.25 2H0.75C0.335786 2 0 1.66421 0 1.25ZM4 5.75C4 5.33579 4.33579 5 4.75 5H13.25C13.6642 5 14 5.33579 14 5.75C14 6.16421 13.6642 6.5 13.25 6.5H4.75C4.33579 6.5 4 6.16421 4 5.75ZM0 10.25C0 9.83579 0.335786 9.5 0.75 9.5H17.25C17.6642 9.5 18 9.83579 18 10.25C18 10.6642 17.6642 11 17.25 11H0.75C0.335786 11 0 10.6642 0 10.25ZM4 14.75C4 14.3358 4.33579 14 4.75 14H13.25C13.6642 14 14 14.3358 14 14.75C14 15.1642 13.6642 15.5 13.25 15.5H4.75C4.33579 15.5 4 15.1642 4 14.75Z" fill="#575D7A"/>
</svg>
