<svg width="20" height="25" viewBox="0 0 20 25" fill="none" xmlns="http://www.w3.org/2000/svg">
<path d="M19.105 17.2917V17.1317C17.2496 16.1011 16.2432 14.5879 16.2432 12.3982C16.2432 10.628 16.998 9.08201 18.3817 8.08415L18.4446 8.05139C17.5326 6.89225 16.3061 5.73438 14.4181 5.73438C13.0972 5.73438 11.9966 7.05478 10.1726 7.05478C8.72599 7.05478 8.12727 5.79863 6.55487 5.79863C3.28429 5.79863 0.0439453 8.79223 0.0439453 12.6879C0.0439453 14.7492 0.704351 17.9368 2.1824 20.7049C3.25163 22.7334 4.57244 24.0538 6.05171 24.0538C7.12093 24.0538 8.37885 23.0559 9.88956 23.0559C11.2104 23.0559 12.438 23.958 13.6319 23.958C16.4948 23.958 19.1365 20.1593 19.1365 17.6168C19.1365 17.4858 19.105 17.3887 19.105 17.2917Z" fill="#333333"/>
<path d="M10.107 6.63748C12.2455 5.9609 14.2279 4.31921 14.2279 1.45412C14.2279 1.22859 14.1965 0.93881 14.165 0.617527L14.1336 0.489014C11.9637 1.10008 10.0139 2.83879 10.0139 5.57536C10.0139 5.83365 10.0454 6.15493 10.1083 6.50897L10.107 6.63748Z" fill="#333333"/>
</svg>
