<svg width="16" height="9" viewBox="0 0 16 9" fill="none" xmlns="http://www.w3.org/2000/svg">
<path d="M4.66667 3.66659H3.33333V2.33325C3.33333 1.96659 3.03333 1.66659 2.66667 1.66659C2.3 1.66659 2 1.96659 2 2.33325V3.66659H0.666667C0.3 3.66659 0 3.96659 0 4.33325C0 4.69992 0.3 4.99992 0.666667 4.99992H2V6.33325C2 6.69992 2.3 6.99992 2.66667 6.99992C3.03333 6.99992 3.33333 6.69992 3.33333 6.33325V4.99992H4.66667C5.03333 4.99992 5.33333 4.69992 5.33333 4.33325C5.33333 3.96659 5.03333 3.66659 4.66667 3.66659ZM12 4.33325C13.1067 4.33325 13.9933 3.43992 13.9933 2.33325C13.9933 1.22659 13.1067 0.333252 12 0.333252C11.7867 0.333252 11.58 0.366585 11.3933 0.426585C11.7733 0.966585 11.9933 1.61992 11.9933 2.33325C11.9933 3.04659 11.7667 3.69325 11.3933 4.23992C11.58 4.29992 11.7867 4.33325 12 4.33325ZM8.66667 4.33325C9.77333 4.33325 10.66 3.43992 10.66 2.33325C10.66 1.22659 9.77333 0.333252 8.66667 0.333252C7.56 0.333252 6.66667 1.22659 6.66667 2.33325C6.66667 3.43992 7.56 4.33325 8.66667 4.33325ZM8.66667 5.66659C7.33333 5.66659 4.66667 6.33325 4.66667 7.66659V8.33325C4.66667 8.69992 4.96667 8.99992 5.33333 8.99992H12C12.3667 8.99992 12.6667 8.69992 12.6667 8.33325V7.66659C12.6667 6.33325 10 5.66659 8.66667 5.66659ZM13.08 5.77325C13.6333 6.25992 14 6.87992 14 7.66659V8.66659C14 8.77992 13.9867 8.89325 13.9667 8.99992H15.6667C15.8533 8.99992 16 8.85325 16 8.66659V7.66659C16 6.63992 14.42 6.00659 13.08 5.77325Z" fill="#5DCB42"/>
</svg>
