<svg width="25" height="24" viewBox="0 0 25 24" fill="none" xmlns="http://www.w3.org/2000/svg">
    <path d="M19.5347 21V19H15.5347V17H19.5347V15L22.5347 18L19.5347 21ZM10.5347 4C11.5955 4 12.6129 4.42143 13.3631 5.17157C14.1132 5.92172 14.5347 6.93913 14.5347 8C14.5347 9.06087 14.1132 10.0783 13.3631 10.8284C12.6129 11.5786 11.5955 12 10.5347 12C9.4738 12 8.45639 11.5786 7.70624 10.8284C6.9561 10.0783 6.53467 9.06087 6.53467 8C6.53467 6.93913 6.9561 5.92172 7.70624 5.17157C8.45639 4.42143 9.4738 4 10.5347 4ZM10.5347 14C11.6847 14 12.7847 14.12 13.7747 14.34C12.9947 15.35 12.5347 16.62 12.5347 18C12.5347 18.7 12.6547 19.37 12.8747 20H2.53467V18C2.53467 15.79 6.11467 14 10.5347 14Z" fill="white"/>
</svg>
