<svg width="20" height="20" viewBox="0 0 20 20" fill="none" xmlns="http://www.w3.org/2000/svg">
<path fill-rule="evenodd" clip-rule="evenodd" d="M4 2.75C4 1.7835 4.7835 1 5.75 1H9.5C12.1631 1 14.5 3.15392 14.5 5.875C14.5 7.35953 13.8044 8.67524 12.7398 9.56448C14.6037 10.2572 16 12.0217 16 14.125C16 16.8461 13.6631 19 11 19H5.75C4.7835 19 4 18.2165 4 17.25V2.75ZM9.5 9.00391C11.3932 9.00391 12.5182 7.71027 12.5182 5.875C12.5182 4.03973 11.3932 3.00781 9.5 3.00781H6.0325C5.89443 3.00781 5.7825 3.11974 5.7825 3.25781V9.00391H9.5ZM5.82194 11.3316H11.0394C12.9327 11.3316 13.8877 12.2897 13.8877 14.125C13.8877 15.9603 12.8932 16.984 11 16.984H6.0325C5.89443 16.984 5.7825 16.8721 5.7825 16.734L5.82194 11.3316Z" fill="#393F5A"/>
</svg>
