<svg width="25" height="24" viewBox="0 0 25 24" fill="none" xmlns="http://www.w3.org/2000/svg">
    <path d="M12.4415 3C17.9415 3 22.4415 6.58 22.4415 11C22.4415 15.42 17.9415 19 12.4415 19C11.2015 19 10.0115 18.82 8.91153 18.5C5.99153 21 2.44153 21 2.44153 21C4.77153 18.67 5.14153 17.1 5.19153 16.5C3.49153 15.07 2.44153 13.13 2.44153 11C2.44153 6.58 6.94153 3 12.4415 3ZM17.4415 12V10H15.4415V12H17.4415ZM13.4415 12V10H11.4415V12H13.4415ZM9.44153 12V10H7.44153V12H9.44153Z" fill="#2BD3F8"/>
</svg>
