<svg width="22" height="18" viewBox="0 0 12 12" fill="none" xmlns="http://www.w3.org/2000/svg">
<path fill-rule="evenodd" clip-rule="evenodd" d="M1.0634 1.06291C1.36005 0.766265 1.76239 0.599609 2.18192 0.599609H9.81828C10.2378 0.599609 10.6401 0.766265 10.9368 1.06291C11.2334 1.35956 11.4001 1.7619 11.4001 2.18143V7.63597C11.4001 8.0555 11.2334 8.45784 10.9368 8.75449C10.6401 9.05114 10.2378 9.21779 9.81828 9.21779H7.85611L8.07973 10.1123L8.52904 10.5616C8.66944 10.702 8.71144 10.9131 8.63546 11.0966C8.55947 11.28 8.38047 11.3996 8.18192 11.3996H3.81828C3.61973 11.3996 3.44072 11.28 3.36474 11.0966C3.28876 10.9131 3.33076 10.702 3.47115 10.5616L3.92046 10.1123L4.14408 9.21779H2.18192C1.76239 9.21779 1.36005 9.05114 1.0634 8.75449C0.766753 8.45784 0.600098 8.0555 0.600098 7.63597V2.18143C0.600098 1.7619 0.766753 1.35956 1.0634 1.06291ZM1.58192 7.03597V7.63597C1.58192 7.7951 1.64513 7.94772 1.75765 8.06024C1.87017 8.17276 2.02279 8.23597 2.18192 8.23597H9.81828C9.97741 8.23597 10.13 8.17276 10.2425 8.06024C10.3551 7.94771 10.4183 7.7951 10.4183 7.63597V7.03597H1.58192ZM10.4183 6.05415H1.58192V2.18143C1.58192 2.0223 1.64513 1.86969 1.75765 1.75716C1.87017 1.64464 2.02279 1.58143 2.18192 1.58143H9.81828C9.97741 1.58143 10.13 1.64464 10.2425 1.75716C10.3551 1.86969 10.4183 2.0223 10.4183 2.18143V6.05415ZM5.15612 9.21779L4.85612 10.4178H7.14408L6.84408 9.21779H5.15612Z" fill="#787F9D"/>
</svg>
