<svg width="16" height="18" viewBox="0 0 16 18" fill="none" xmlns="http://www.w3.org/2000/svg">
<g clip-path="url(#clip0_7834_133320)">
<path d="M8.0013 9.00002C9.47464 9.00002 10.668 7.80669 10.668 6.33335C10.668 4.86002 9.47464 3.66669 8.0013 3.66669C6.52797 3.66669 5.33464 4.86002 5.33464 6.33335C5.33464 7.80669 6.52797 9.00002 8.0013 9.00002ZM8.0013 10.3334C6.2213 10.3334 2.66797 11.2267 2.66797 13V13.6667C2.66797 14.0334 2.96797 14.3334 3.33464 14.3334H12.668C13.0346 14.3334 13.3346 14.0334 13.3346 13.6667V13C13.3346 11.2267 9.7813 10.3334 8.0013 10.3334Z" fill="#4D4D4D"/>
</g>
<rect x="0.25" y="0.25" width="15.5" height="17.5" rx="1.75" stroke="#4D4D4D" stroke-width="0.5"/>
<defs>
<clipPath id="clip0_7834_133320">
<rect width="16" height="16" fill="white" transform="translate(0 1)"/>
</clipPath>
</defs>
</svg>
