<svg width="12" height="12" viewBox="0 0 12 12" fill="none" xmlns="http://www.w3.org/2000/svg">
<g id="24 / Copy" clip-path="url(#clip0_4410_176880)">
<path id="Icon" fill-rule="evenodd" clip-rule="evenodd" d="M0.600098 2.25C0.600098 1.33873 1.33883 0.6 2.2501 0.6H7.3501C8.26137 0.6 9.0001 1.33873 9.0001 2.25V3H9.7501C10.6614 3 11.4001 3.73873 11.4001 4.65V9.75C11.4001 10.6613 10.6614 11.4 9.7501 11.4H4.6501C3.73883 11.4 3.0001 10.6613 3.0001 9.75V9H2.2501C1.33883 9 0.600098 8.26127 0.600098 7.35V2.25ZM3.0001 8.1V4.65C3.0001 3.73873 3.73883 3 4.6501 3H8.1001V2.25C8.1001 1.83579 7.76431 1.5 7.3501 1.5H2.2501C1.83588 1.5 1.5001 1.83579 1.5001 2.25V7.35C1.5001 7.76421 1.83588 8.1 2.2501 8.1H3.0001ZM4.6501 3.9C4.23588 3.9 3.9001 4.23579 3.9001 4.65V9.75C3.9001 10.1642 4.23588 10.5 4.6501 10.5H9.7501C10.1643 10.5 10.5001 10.1642 10.5001 9.75V4.65C10.5001 4.23579 10.1643 3.9 9.7501 3.9H4.6501Z" fill="#787F9D"/>
</g>
<defs>
<clipPath id="clip0_4410_176880">
<rect width="12" height="12" fill="white"/>
</clipPath>
</defs>
</svg>
