<svg width="20" height="21" viewBox="0 0 20 21" fill="none" xmlns="http://www.w3.org/2000/svg">
<path d="M3.68881 14.3574C3.59067 14.3574 3.50703 14.2862 3.49137 14.1893L1.76735 3.52195C1.73621 3.32924 1.97131 3.21064 2.10779 3.35022L6.56599 7.90974C6.66123 8.00714 6.82384 7.98291 6.88655 7.86198L9.82247 2.19984C9.89709 2.05593 10.1029 2.05593 10.1776 2.19984L13.1135 7.86198C13.1762 7.98291 13.3388 8.00714 13.434 7.90974L17.8923 3.35022C18.0287 3.21064 18.2638 3.32924 18.2327 3.52195L16.5087 14.1893C16.493 14.2862 16.4094 14.3574 16.3112 14.3574H3.68881ZM16.4815 17.4824C16.4815 18.1074 16.1111 18.5241 15.5556 18.5241H4.44446C3.88891 18.5241 3.51854 18.1074 3.51854 17.4824V16.6408C3.51854 16.5303 3.60808 16.4408 3.71854 16.4408H16.2815C16.392 16.4408 16.4815 16.5303 16.4815 16.6408V17.4824Z" fill="#8F95B2"/>
<ellipse cx="10" cy="1.85775" rx="0.833333" ry="0.833333" fill="#8F95B2"/>
<ellipse cx="18.3333" cy="2.69076" rx="0.833333" ry="0.833333" fill="#8F95B2"/>
<ellipse cx="1.66665" cy="2.69076" rx="0.833333" ry="0.833333" fill="#8F95B2"/>
</svg>
