<svg width="20" height="21" viewBox="0 0 20 21" fill="none" xmlns="http://www.w3.org/2000/svg">
<path d="M3.68881 14.9243C3.59067 14.9243 3.50703 14.8531 3.49137 14.7562L1.76735 4.08884C1.73621 3.89613 1.97131 3.77753 2.10779 3.91711L6.56599 8.47664C6.66123 8.57403 6.82384 8.54981 6.88655 8.42888L9.82247 2.76674C9.89709 2.62282 10.1029 2.62282 10.1776 2.76674L13.1135 8.42888C13.1762 8.54981 13.3388 8.57404 13.434 8.47664L17.8923 3.91711C18.0287 3.77753 18.2638 3.89613 18.2327 4.08884L16.5087 14.7562C16.493 14.8531 16.4094 14.9243 16.3112 14.9243H3.68881ZM16.4815 18.0493C16.4815 18.6743 16.1111 19.091 15.5556 19.091H4.44446C3.88891 19.091 3.51854 18.6743 3.51854 18.0493V17.2077C3.51854 17.0972 3.60808 17.0077 3.71854 17.0077H16.2815C16.392 17.0077 16.4815 17.0972 16.4815 17.2077V18.0493Z" fill="#E9B308"/>
</svg>
