<svg width="36" height="26" viewBox="0 0 36 26" fill="none" xmlns="http://www.w3.org/2000/svg">
<path d="M8.4 6.6L19 14L8 14L3.2 14L8.4 6.6Z" fill="#8F95B2"/>
<path d="M26.8 6.6L16.2 14L27.1999 14L32 14L26.8 6.6Z" fill="#8F95B2"/>
<path d="M32.711 23.4004C32.711 24.6004 31.7333 25.4004 30.2666 25.4004H5.73326C4.2666 25.4004 3.28882 24.6004 3.28882 23.4004V22.4004C3.28882 21.8481 3.73653 21.4004 4.28882 21.4004H31.711C32.2633 21.4004 32.711 21.8481 32.711 22.4004V23.4004Z" fill="#8F95B2"/>
<path d="M4.1507 20.0002C3.65541 20.0002 3.23474 19.6376 3.16165 19.1478L1.19995 6.0002L9.99995 12.2002L18 2.2002L25.9999 12.2002L34.7999 6.0002L32.8382 19.1478C32.7652 19.6376 32.3445 20.0002 31.8492 20.0002H4.1507Z" fill="#C1C4D6"/>
<ellipse cx="34.3637" cy="6.34535" rx="1.63636" ry="1.63636" fill="#8F95B2"/>
<ellipse cx="17.9999" cy="2.03675" rx="1.63636" ry="1.63636" fill="#8F95B2"/>
<ellipse cx="1.63636" cy="6.34535" rx="1.63636" ry="1.63636" fill="#8F95B2"/>
</svg>
