<svg width="24" height="24" viewBox="0 0 24 24" fill="none" xmlns="http://www.w3.org/2000/svg">
    <path fill-rule="evenodd" clip-rule="evenodd" d="M7.20002 4.5C7.20002 2.67746 8.67748 1.2 10.5 1.2H13.5C15.3226 1.2 16.8 2.67746 16.8 4.5V4.8H20.7C21.1971 4.8 21.6 5.20294 21.6 5.7C21.6 6.19705 21.1971 6.6 20.7 6.6H20.3514L19.6246 19.683C19.5274 21.4318 18.0811 22.8 16.3297 22.8H7.67039C5.91897 22.8 4.47262 21.4318 4.37547 19.683L3.64864 6.6H3.30002C2.80297 6.6 2.40002 6.19705 2.40002 5.7C2.40002 5.20294 2.80297 4.8 3.30002 4.8H7.20002V4.5ZM5.45141 6.6L6.1727 19.5832C6.21686 20.3781 6.87429 21 7.67039 21H16.3297C17.1258 21 17.7832 20.3781 17.8273 19.5832L18.5486 6.6H5.45141ZM15 4.8H9.00002V4.5C9.00002 3.67157 9.6716 3 10.5 3H13.5C14.3285 3 15 3.67157 15 4.5V4.8ZM9.30002 9.6C9.79708 9.6 10.2 10.0029 10.2 10.5V17.1C10.2 17.5971 9.79708 18 9.30002 18C8.80297 18 8.40002 17.5971 8.40002 17.1V10.5C8.40002 10.0029 8.80297 9.6 9.30002 9.6ZM14.7 9.6C15.1971 9.6 15.6 10.0029 15.6 10.5V17.1C15.6 17.5971 15.1971 18 14.7 18C14.203 18 13.8 17.5971 13.8 17.1V10.5C13.8 10.0029 14.203 9.6 14.7 9.6Z" fill="#5A6384"/>
</svg>
