<svg width="16" height="16" viewBox="0 0 16 16" fill="none" xmlns="http://www.w3.org/2000/svg">
<g id="24 / Dolar">
<path id="Icon" d="M9.38 2.5C9.96103 2.5005 10.5181 2.70268 10.9289 3.06217C11.3398 3.42166 11.5709 3.9091 11.5714 4.4175C11.5714 4.58326 11.6467 4.74223 11.7806 4.85944C11.9146 4.97665 12.0963 5.0425 12.2857 5.0425C12.4752 5.0425 12.6568 4.97665 12.7908 4.85944C12.9247 4.74223 13 4.58326 13 4.4175V4.375C13 4.36312 13 4.3525 13 4.34063C12.9762 3.51421 12.5844 2.72861 11.9082 2.15128C11.232 1.57396 10.3248 1.25055 9.38 1.25H8.71429V0.625C8.71429 0.45924 8.63903 0.300269 8.50508 0.183058C8.37112 0.065848 8.18944 0 8 0C7.81056 0 7.62888 0.065848 7.49492 0.183058C7.36097 0.300269 7.28571 0.45924 7.28571 0.625V1.25H6.62C5.76094 1.2508 4.93021 1.5189 4.27628 2.00636C3.62236 2.49383 3.18786 3.16889 3.05047 3.91089C2.91307 4.65289 3.08172 5.41346 3.52628 6.05666C3.97084 6.69986 4.66233 7.18376 5.47714 7.42188L7.28571 7.95V12.5H6.62C6.03897 12.4995 5.4819 12.2973 5.07105 11.9378C4.6602 11.5783 4.42914 11.0909 4.42857 10.5825C4.42857 10.4167 4.35332 10.2578 4.21936 10.1406C4.08541 10.0233 3.90373 9.9575 3.71429 9.9575C3.52485 9.9575 3.34316 10.0233 3.20921 10.1406C3.07526 10.2578 3 10.4167 3 10.5825V10.625C3 10.6369 3 10.6475 3 10.6594C3.02384 11.4858 3.41562 12.2714 4.09183 12.8487C4.76805 13.426 5.67522 13.7494 6.62 13.75H7.28571V14.375C7.28571 14.5408 7.36097 14.6997 7.49492 14.8169C7.62888 14.9342 7.81056 15 8 15C8.18944 15 8.37112 14.9342 8.50508 14.8169C8.63903 14.6997 8.71429 14.5408 8.71429 14.375V13.75H9.38C10.2391 13.7492 11.0698 13.4811 11.7237 12.9936C12.3776 12.5062 12.8121 11.8311 12.9495 11.0891C13.0869 10.3471 12.9183 9.58654 12.4737 8.94334C12.0292 8.30014 11.3377 7.81624 10.5229 7.57812L8.71429 7.05V2.5H9.38ZM10.0729 8.76312C10.5667 8.90695 10.986 9.1999 11.2555 9.58953C11.5251 9.97915 11.6273 10.44 11.544 10.8896C11.4606 11.3391 11.1971 11.7481 10.8006 12.0431C10.4041 12.3382 9.90051 12.5002 9.38 12.5H8.71429V8.36687L10.0729 8.76312ZM7.28571 6.63312L5.92857 6.23688C5.43481 6.09308 5.01565 5.80023 4.7461 5.41074C4.47654 5.02125 4.37419 4.56053 4.45736 4.11105C4.54053 3.66156 4.80379 3.25264 5.20002 2.95746C5.59626 2.66229 6.09961 2.50013 6.62 2.5H7.28571V6.63312Z" fill="#787F9D"/>
</g>
</svg>
