<svg width="18" height="18" viewBox="0 0 18 18" fill="none" xmlns="http://www.w3.org/2000/svg">
    <path fill-rule="evenodd" clip-rule="evenodd" d="M9 1.5C4.85786 1.5 1.5 4.85786 1.5 9C1.5 13.1421 4.85786 16.5 9 16.5C13.1421 16.5 16.5 13.1421 16.5 9C16.5 4.85786 13.1421 1.5 9 1.5ZM0 9C0 4.02944 4.02944 0 9 0C13.9706 0 18 4.02944 18 9C18 13.9706 13.9706 18 9 18C4.02944 18 0 13.9706 0 9ZM12.7086 5.65654C13.0363 5.90981 13.0967 6.38083 12.8435 6.70859L8.59346 12.2086C8.45746 12.3846 8.25036 12.4911 8.02809 12.4995C7.80582 12.5078 7.59132 12.417 7.44253 12.2517L5.19253 9.75172C4.91544 9.44384 4.94039 8.96962 5.24828 8.69253C5.55616 8.41543 6.03038 8.44039 6.30747 8.74827L7.95615 10.5801L11.6565 5.79141C11.9098 5.46365 12.3808 5.40327 12.7086 5.65654Z" fill="#3AA625"/>
</svg>
