<svg width="25" height="24" viewBox="0 0 25 24" fill="none" xmlns="http://www.w3.org/2000/svg">
<path d="M12.6145 23.9207C19.085 23.9207 24.3304 18.6754 24.3304 12.2049C24.3304 5.73438 19.085 0.489014 12.6145 0.489014C6.14405 0.489014 0.898682 5.73438 0.898682 12.2049C0.898682 18.6754 6.14405 23.9207 12.6145 23.9207Z" fill="#3B5998"/>
<path d="M17.0079 23.9207V15.1338H19.9369L20.6691 11.4726H17.0079V10.0081C17.0079 8.54365 17.7416 7.81141 19.2046 7.81141H20.6691V4.15021C19.9369 4.15021 19.0289 4.15021 17.7401 4.15021C15.0491 4.15021 13.3467 6.25979 13.3467 9.2759V11.4726H10.4177V15.1338H13.3467V23.9207H17.0079Z" fill="white"/>
</svg>
