<svg width="25" height="25" viewBox="0 0 25 25" fill="none" xmlns="http://www.w3.org/2000/svg">
    <path d="M10.1284 2.69246C10.8883 0.413612 14.1117 0.413612 14.8716 2.69246L15.7198 5.23588C16.1963 6.66487 17.5337 7.62868 19.04 7.62868H21.6156C24.0531 7.62868 25.0495 10.7608 23.0601 12.1691L21.1116 13.5485C19.8529 14.4395 19.3257 16.0494 19.8136 17.5123L20.5893 19.8385C21.3536 22.1304 18.7451 24.0657 16.7732 22.6698L14.5223 21.0763C13.3105 20.2185 11.6895 20.2185 10.4777 21.0763L8.22679 22.6698C6.2549 24.0657 3.64642 22.1304 4.4107 19.8385L5.1864 17.5123C5.67425 16.0494 5.14709 14.4395 3.88841 13.5485L1.93994 12.1691C-0.0495152 10.7608 0.94691 7.62868 3.38441 7.62868H5.95998C7.46633 7.62868 8.80371 6.66487 9.28024 5.23588L10.1284 2.69246Z" fill="#D4F8CB" stroke="#5DCB42"/>
</svg>
