<svg width="16" height="18" viewBox="0 0 16 18" fill="none" xmlns="http://www.w3.org/2000/svg">
<path fill-rule="evenodd" clip-rule="evenodd" d="M2.56058 4.17575C2.80661 1.70281 4.92383 0 7.36671 0H8.63379C11.0767 0 13.1939 1.70281 13.4399 4.17575L13.4403 4.17969L13.8636 8.67575C13.8637 8.67642 13.8638 8.67709 13.8638 8.67776C14.0029 10.0707 14.6043 11.477 15.554 12.4859C16.0729 13.0373 16.0774 13.801 15.8761 14.3479C15.6741 14.8963 15.1561 15.5 14.3412 15.5H10.9588C10.7207 16.9189 9.48676 18 8.00026 18C6.51376 18 5.27977 16.9189 5.04174 15.5H1.65931C0.844421 15.5 0.326352 14.8963 0.124405 14.3479C-0.0769476 13.801 -0.0724367 13.0373 0.44654 12.4859C1.39627 11.477 1.99767 10.0707 2.13668 8.67767L2.56058 4.17575ZM14.3412 14C14.345 14 14.346 13.9996 14.3472 13.9991C14.3493 13.9983 14.3575 13.9948 14.3704 13.9838C14.3989 13.9597 14.4392 13.909 14.4685 13.8296C14.4975 13.7508 14.5053 13.6712 14.4973 13.6092C14.4897 13.5498 14.471 13.5239 14.4617 13.5141C13.2658 12.2436 12.5396 10.5187 12.371 8.82425L12.3706 8.82031L11.9473 4.32425C11.9472 4.3236 11.9472 4.32295 11.9471 4.3223C11.7845 2.69827 10.389 1.5 8.63379 1.5H7.36671C5.61144 1.5 4.21596 2.69831 4.0534 4.32238C4.05334 4.323 4.05327 4.32363 4.05321 4.32425L3.62952 8.82425C3.46094 10.5187 2.73472 12.2436 1.53876 13.5141C1.52951 13.5239 1.51079 13.5498 1.50319 13.6092C1.49524 13.6712 1.50301 13.7508 1.53202 13.8296C1.56128 13.909 1.60158 13.9597 1.63007 13.9838C1.64303 13.9948 1.65108 13.9983 1.6532 13.9991C1.65445 13.9996 1.65542 14 1.65931 14H14.3412ZM6.58561 15.5C6.79153 16.0826 7.34715 16.5 8.00026 16.5C8.65337 16.5 9.20899 16.0826 9.4149 15.5H6.58561Z" fill="#8F95B2"/>
</svg>
