<svg width="22" height="17" viewBox="0 0 22 17" fill="none" xmlns="http://www.w3.org/2000/svg">
<path d="M18.0357 1.4375C17.8036 1.4375 17.6085 1.27382 17.5065 1.06541C17.2007 0.44067 16.5367 0 15.7709 0C14.9952 0 14.3587 0.452182 14.0391 1.08983C13.9397 1.28812 13.7498 1.4375 13.528 1.4375H1.39592C1.13128 1.4375 0.916748 1.65203 0.916748 1.91667C0.916748 2.1813 1.13128 2.39583 1.39591 2.39583H13.5062C13.7382 2.39583 13.9334 2.55952 14.0354 2.76792C14.3411 3.39266 15.0052 3.83333 15.7709 3.83333C16.5466 3.83333 17.1831 3.38115 17.5027 2.74351C17.6021 2.54521 17.792 2.39583 18.0138 2.39583H21.5209C21.7855 2.39583 22.0001 2.1813 22.0001 1.91667C22.0001 1.65203 21.7855 1.4375 21.5209 1.4375H18.0357ZM15.7709 2.875C15.2438 2.875 14.8126 2.44375 14.8126 1.91667C14.8126 1.38958 15.2438 0.958333 15.7709 0.958333C16.298 0.958333 16.7292 1.38958 16.7292 1.91667C16.7292 2.44375 16.298 2.875 15.7709 2.875Z" fill="#4D4D4D"/>
<path d="M15.7709 12.7321C14.9952 12.7321 14.3587 13.1843 14.0391 13.822C13.9397 14.0203 13.7498 14.1696 13.528 14.1696H1.39591C1.13128 14.1696 0.916748 14.3842 0.916748 14.6488C0.916748 14.9134 1.13128 15.128 1.39591 15.128H13.5062C13.7382 15.128 13.9334 15.2917 14.0354 15.5001C14.3411 16.1248 15.0052 16.5655 15.7709 16.5655C16.5466 16.5655 17.1831 16.1133 17.5027 15.4756C17.6021 15.2774 17.792 15.128 18.0138 15.128H21.5209C21.7856 15.128 22.0001 14.9134 22.0001 14.6488C22.0001 14.3842 21.7856 14.1696 21.5209 14.1696H18.0138C17.792 14.1696 17.6021 14.0203 17.5027 13.822C17.1831 13.1843 16.5466 12.7321 15.7709 12.7321ZM15.7709 15.6071C15.2438 15.6071 14.8126 15.1759 14.8126 14.6488C14.8126 14.1217 15.2438 13.6905 15.7709 13.6905C16.298 13.6905 16.7292 14.1217 16.7292 14.6488C16.7292 15.1759 16.298 15.6071 15.7709 15.6071Z" fill="#4D4D4D"/>
<path d="M7.14591 6.36607C6.37023 6.36607 5.73369 6.81825 5.41409 7.4559C5.3147 7.65419 5.12485 7.80357 4.90305 7.80357H1.39592C1.13128 7.80357 0.916748 8.0181 0.916748 8.28274C0.916748 8.54737 1.13128 8.7619 1.39591 8.7619H4.88116C5.11318 8.7619 5.30837 8.92559 5.41037 9.13399C5.71613 9.75873 6.38017 10.1994 7.14591 10.1994C7.92159 10.1994 8.55814 9.74722 8.87774 9.10958C8.97713 8.91129 9.16698 8.7619 9.38878 8.7619H21.5209C21.7855 8.7619 22.0001 8.54737 22.0001 8.28274C22.0001 8.0181 21.7855 7.80357 21.5209 7.80357H9.38878C9.16698 7.80357 8.97713 7.65419 8.87774 7.4559C8.55814 6.81825 7.92159 6.36607 7.14591 6.36607ZM7.14591 9.24107C6.61883 9.24107 6.18758 8.80982 6.18758 8.28274C6.18758 7.75565 6.61883 7.3244 7.14591 7.3244C7.673 7.3244 8.10425 7.75565 8.10425 8.28274C8.10425 8.80982 7.673 9.24107 7.14591 9.24107Z" fill="#4D4D4D"/>
</svg>
