<svg width="27" height="27" viewBox="0 0 27 27" fill="none" xmlns="http://www.w3.org/2000/svg">
<path d="M24.2758 11.6463H23.402V11.6013H13.6388V15.9405H19.7695C18.8751 18.4665 16.4717 20.2797 13.6388 20.2797C10.0443 20.2797 7.12998 17.3654 7.12998 13.7709C7.12998 10.1764 10.0443 7.26212 13.6388 7.26212C15.298 7.26212 16.8075 7.88805 17.9568 8.91048L21.0252 5.84211C19.0877 4.03646 16.4962 2.92291 13.6388 2.92291C7.64797 2.92291 2.79077 7.78011 2.79077 13.7709C2.79077 19.7617 7.64797 24.6189 13.6388 24.6189C19.6296 24.6189 24.4868 19.7617 24.4868 13.7709C24.4868 13.0436 24.412 12.3336 24.2758 11.6463Z" fill="#FFC107"/>
<path d="M4.0415 8.72172L7.60562 11.3356C8.57001 8.9479 10.9056 7.26212 13.6387 7.26212C15.2979 7.26212 16.8075 7.88805 17.9568 8.91048L21.0252 5.84211C19.0877 4.03646 16.4961 2.92291 13.6387 2.92291C9.47202 2.92291 5.85855 5.27531 4.0415 8.72172Z" fill="#FF3D00"/>
<path d="M13.6386 24.619C16.4407 24.619 18.9867 23.5466 20.9117 21.8028L17.5542 18.9617C16.4285 19.8179 15.0529 20.2809 13.6386 20.2798C10.8171 20.2798 8.42129 18.4806 7.51874 15.9698L3.9812 18.6954C5.77655 22.2085 9.42257 24.619 13.6386 24.619Z" fill="#4CAF50"/>
<path d="M24.2757 11.6463H23.4019V11.6013H13.6387V15.9405H19.7694C19.3416 17.1427 18.5709 18.1932 17.5526 18.9622L17.5543 18.9612L20.9117 21.8023C20.6742 22.0181 24.4867 19.1949 24.4867 13.7709C24.4867 13.0436 24.4118 12.3336 24.2757 11.6463Z" fill="#1976D2"/>
</svg>
