<svg width="20" height="22" viewBox="0 0 20 22" fill="none" xmlns="http://www.w3.org/2000/svg">
<path d="M15.6228 10.7389V12.2389C18.8128 12.2389 20.7128 15.7889 18.9528 18.4489L17.8628 17.3589C18.6828 15.6989 17.4728 13.7389 15.6228 13.7389V15.2389L13.3728 12.9889L15.6228 10.7389ZM15.6228 21.7389V20.2389C12.4328 20.2389 10.5328 16.6889 12.2928 14.0289L13.3828 15.1189C12.5628 16.7789 13.7728 18.7389 15.6228 18.7389V17.2389L17.8728 19.4889L15.6228 21.7389ZM16.6228 2.73889H15.6228V0.738892H13.6228V2.73889H5.6228V0.738892H3.6228V2.73889H2.6228C2.09237 2.73889 1.58366 2.94961 1.20859 3.32468C0.833516 3.69975 0.622803 4.20846 0.622803 4.73889V18.7389C0.622803 19.2693 0.833516 19.778 1.20859 20.1531C1.58366 20.5282 2.09237 20.7389 2.6228 20.7389H11.6228C10.9828 20.1889 10.4828 19.5089 10.1228 18.7389H2.6228V7.73889H16.6228V10.3289C17.3328 10.4389 18.0128 10.6789 18.6228 11.0489V4.73889C18.6228 4.20846 18.4121 3.69975 18.037 3.32468C17.6619 2.94961 17.1532 2.73889 16.6228 2.73889Z" fill="#C4C4C4"/>
</svg>
