<svg width="45" height="55" viewBox="0 0 45 55" fill="none" xmlns="http://www.w3.org/2000/svg">
<path d="M12.2511 0.0631708C12.4798 0.0173949 12.713 0.000915497 12.9463 -2.09546e-08C19.3458 0.00274653 25.7463 0 32.1459 0.000915518C33.0743 0.00732415 33.988 0.429378 34.595 1.12883C34.8439 1.41081 35.0211 1.74498 35.2103 2.06724C38.2351 7.25823 41.2609 12.4492 44.2867 17.6402C44.4813 17.978 44.6971 18.3085 44.8229 18.6802C45.1324 19.5536 45.0314 20.558 44.5576 21.3545C41.3637 26.8357 38.169 32.316 34.9752 37.7963C34.5344 38.5799 33.7557 39.1604 32.8796 39.3682C32.4591 39.4771 32.0219 39.4616 31.5922 39.4598C25.345 39.4588 19.0988 39.4607 12.8517 39.4598C11.724 39.4543 10.6239 38.8244 10.0582 37.8512C6.85155 32.3535 3.64855 26.8549 0.443708 21.3563C-0.0310493 20.5589 -0.13298 19.5546 0.177403 18.6802C0.302291 18.3076 0.519926 17.9771 0.714604 17.6393C3.81751 12.3146 6.92134 6.98998 10.0243 1.66441C10.4871 0.841361 11.3236 0.244443 12.2511 0.0631708ZM10.5321 1.71843C9.95079 2.65592 9.44481 3.6401 8.83966 4.56203C9.31901 3.99807 10.2538 3.93032 10.7993 4.43477C11.2943 4.84858 11.3787 5.6048 11.0518 6.14771C13.5762 8.41361 15.7847 11.0558 17.4257 14.0276C18.1199 13.5506 18.6626 12.8914 19.1319 12.2011C19.9841 10.9249 20.5791 9.47561 20.8472 7.96592C21.1484 6.29968 20.9905 4.54372 20.3146 2.98459C19.6369 3.16861 18.8564 2.78592 18.6461 2.10752C18.4092 1.45201 18.7884 0.690301 19.4285 0.436702C17.2402 0.463252 15.051 0.436702 12.8618 0.450435C11.9398 0.45959 11.0335 0.943899 10.5321 1.71843ZM20.4882 0.44128C20.918 0.651849 21.2623 1.06017 21.3027 1.54723C21.356 1.92442 21.198 2.2888 20.9712 2.58268C21.3835 3.62911 21.6489 4.73506 21.7178 5.85749C21.8803 8.2891 21.1916 10.739 19.9271 12.8118C19.3954 13.6705 18.7692 14.4881 17.9721 15.118C18.7012 16.7467 19.1851 18.477 19.4817 20.2339C19.6627 21.3535 19.7609 22.4925 19.6884 23.6268C19.6333 24.3427 19.5194 25.0751 19.1833 25.7206C18.7701 26.5125 17.8692 26.9638 16.995 26.9931C15.9867 27.027 15.0207 26.6489 14.1428 26.1893C12.6184 25.3644 11.274 24.2502 10.0096 23.0766C7.91585 21.1054 6.02784 18.9228 4.31339 16.6176C3.99842 16.6615 3.66324 16.6579 3.37582 16.505C2.89279 16.2779 2.59619 15.7515 2.61914 15.2232C2.30325 15.8989 1.87808 16.5178 1.51811 17.1705C1.22517 17.707 0.865204 18.2106 0.630121 18.7773C0.339023 19.5417 0.423505 20.4316 0.844083 21.1329C4.0379 26.6132 7.23264 32.0935 10.4265 37.5738C10.7883 38.2146 11.41 38.7017 12.1207 38.9013C12.5661 39.0359 13.0372 39.013 13.4972 39.0139C16.2282 39.013 18.9583 39.013 21.6893 39.013C20.4441 35.4992 20.2421 31.7126 20.3679 28.0167C20.412 25.9192 20.8518 23.8612 21.2366 21.8067C21.918 17.9039 23.2027 14.1292 24.7711 10.4973C26.1219 7.53197 27.9548 4.80464 30.0109 2.28147C29.6693 1.59758 30.0155 0.719597 30.7226 0.437618C27.3111 0.455928 23.8997 0.44952 20.4882 0.44128ZM31.8815 0.442195C32.1037 0.649102 32.3599 0.842277 32.4857 1.12883C32.7244 1.62138 32.6097 2.25401 32.2139 2.63303C31.8034 3.05508 31.1358 3.12924 30.6124 2.88388C27.323 7.0852 24.9943 11.975 23.4304 17.0543C22.817 19.0464 22.4598 21.1054 22.1971 23.1699C23.0401 23.3192 23.9024 23.202 24.727 23.0042C27.5682 22.2974 30.1615 20.7997 32.3874 18.9256C34.4903 17.1733 36.495 15.2782 38.1662 13.1056C37.7888 12.6369 37.7411 11.9274 38.1203 11.4458C38.5281 10.8773 39.3738 10.7409 39.9615 11.1062C38.2783 8.2772 36.6419 5.41895 34.977 2.5781C34.6804 2.08921 34.438 1.54906 33.9944 1.17003C33.4242 0.652765 32.6436 0.416561 31.8815 0.442195ZM3.95067 12.9976C3.71467 13.3885 3.50621 13.7969 3.2445 14.1731C3.85425 13.7886 4.74315 13.9552 5.13251 14.5714C5.48881 15.0786 5.39422 15.7936 4.98375 16.2413C6.62749 18.4559 8.50632 20.4948 10.5458 22.3524C11.7865 23.4592 13.0904 24.5222 14.5643 25.3086C15.2897 25.6785 16.0758 26.0163 16.9069 25.9897C17.5065 25.9778 18.097 25.6308 18.355 25.0834C18.7242 24.318 18.8013 23.451 18.8224 22.6133C18.8362 20.709 18.4138 18.8249 17.7756 17.0378C16.3191 13.0132 13.6864 9.49209 10.5413 6.61554C10.1354 6.80505 9.64408 6.83801 9.24279 6.61645C8.69181 6.3482 8.43193 5.70002 8.53478 5.11225C7.02419 7.74986 5.47595 10.3673 3.95067 12.9976ZM40.5988 12.2139C40.5859 12.6781 40.3564 13.1377 39.9496 13.3776C39.5722 13.622 39.091 13.6266 38.6759 13.4828C36.6511 16.3081 34.3461 18.9714 31.5885 21.1109C31.6739 21.5037 31.9861 21.7811 32.2772 22.0329C32.9301 22.5648 33.6657 22.9868 34.4169 23.3631C35.8751 24.0818 37.427 24.6137 39.0212 24.9396C39.2893 24.4434 39.8467 24.1102 40.4179 24.188C41.0791 24.2448 41.6172 24.8353 41.6365 25.4926C42.4629 23.9838 43.3684 22.5181 44.2169 21.0203C44.5309 20.4426 44.6209 19.7514 44.4712 19.1124C44.3592 18.5896 44.0433 18.1483 43.7844 17.6906C42.7237 15.8641 41.6512 14.044 40.5988 12.2139ZM22.0493 24.535C21.8721 26.4823 21.8197 28.4415 21.9235 30.3952C22.0869 33.3157 22.536 36.2445 23.5075 39.0121C26.3552 39.0139 29.2028 39.013 32.0504 39.013C33.0247 39.0295 33.9926 38.5186 34.5032 37.6882C36.6566 34.0262 38.7686 30.3384 40.9349 26.6837C40.3793 27.0096 39.608 26.8714 39.2048 26.3706C38.9569 26.0904 38.877 25.7096 38.8972 25.3452C35.8586 24.9561 32.8769 23.8309 30.4673 21.9221C28.0127 23.5975 25.0696 24.7693 22.0493 24.535Z" fill="#68CF4F"/>
<path d="M0.346436 46.731C0.647957 46.731 0.949479 46.731 1.2517 46.731C1.2503 47.873 1.2538 49.0158 1.2496 50.1578C1.50635 49.6702 1.96737 49.2941 2.50955 49.1721C3.28819 48.9949 4.18646 49.1511 4.77062 49.7225C5.14559 50.0846 5.29181 50.619 5.2939 51.1269C5.2988 52.292 5.29461 53.4571 5.296 54.6228C4.99238 54.6228 4.68946 54.6228 4.38654 54.6228C4.38444 53.5289 4.39074 52.435 4.38375 51.3418C4.37465 50.8792 4.25362 50.3595 3.84647 50.0853C3.26091 49.6939 2.4284 49.7944 1.88482 50.2151C1.46577 50.552 1.26289 51.0934 1.2559 51.6201C1.2454 52.6213 1.2552 53.6217 1.2517 54.6228C0.949479 54.6228 0.647957 54.6228 0.346436 54.6228C0.346436 51.992 0.346436 49.3618 0.346436 46.731Z" fill="#68CF4F"/>
<path d="M14.8978 46.731C15.1994 46.731 15.5009 46.731 15.8031 46.731C15.8017 47.8716 15.8052 49.0123 15.801 50.1537C16.1277 49.5962 16.714 49.1979 17.359 49.1225C17.997 49.0576 18.6805 49.1651 19.2108 49.5446C19.7243 49.9053 20.058 50.4837 20.1741 51.0941C20.2853 51.6808 20.2797 52.2941 20.1335 52.8738C19.9845 53.4675 19.6137 54.0096 19.0884 54.3312C18.5763 54.6473 17.9508 54.7282 17.3597 54.6745C16.7098 54.6103 16.0759 54.2608 15.7422 53.6901C15.7303 54.0012 15.7087 54.3117 15.6912 54.6228C15.426 54.6228 15.1623 54.6228 14.8978 54.6228C14.8978 51.992 14.8978 49.3618 14.8978 46.731ZM17.0232 49.9158C16.3824 50.0881 15.9416 50.6964 15.8465 51.3334C15.7555 51.9871 15.7779 52.7155 16.1746 53.2729C16.7888 54.1763 18.3307 54.191 18.9526 53.2889C19.3115 52.7915 19.3829 52.1469 19.3255 51.5518C19.2765 51.0334 19.0597 50.5081 18.642 50.1795C18.1908 49.8272 17.564 49.7706 17.0232 49.9158Z" fill="#68CF4F"/>
<path d="M24.1058 49.2886C25.1076 48.8183 26.4606 49.2607 26.9069 50.2939C27.3603 49.2516 28.7084 48.8665 29.7284 49.2439C30.4804 49.4755 31.0177 50.215 31.0268 50.9971C31.0394 52.2055 31.0282 53.4138 31.0324 54.6228C30.7302 54.6228 30.4286 54.6228 30.1271 54.6228C30.1271 53.621 30.1264 52.6192 30.1271 51.618C30.1292 51.1569 30.1516 50.635 29.8312 50.2618C29.4051 49.7797 28.6475 49.7406 28.0871 49.9918C27.4883 50.2569 27.1294 50.9085 27.1294 51.549C27.1238 52.5731 27.1294 53.598 27.1273 54.6228C26.8244 54.6228 26.5208 54.6228 26.2185 54.6228C26.2171 53.4801 26.2199 52.3366 26.2171 51.1939C26.2171 50.7829 26.0919 50.3316 25.7351 50.0881C25.0614 49.6241 24.0393 49.8397 23.5748 50.5032C23.3195 50.8408 23.2215 51.2713 23.2201 51.6885C23.2159 52.6666 23.2201 53.6447 23.2187 54.6228C22.9165 54.6228 22.615 54.6228 22.3134 54.6228C22.3134 52.8061 22.3134 50.9894 22.3134 49.1728C22.5779 49.1728 22.8423 49.1728 23.1068 49.1728C23.1243 49.5111 23.1467 49.8502 23.1585 50.1885C23.3768 49.8048 23.6937 49.4658 24.1058 49.2886Z" fill="#68CF4F"/>
<path d="M33.7671 49.7204C34.2589 49.2648 34.9494 49.1009 35.6056 49.1037C36.2898 49.0911 36.9991 49.3151 37.4826 49.8132C38.0898 50.4236 38.229 51.3473 38.1003 52.1678C36.6794 52.1692 35.2593 52.1671 33.8391 52.1685C33.8923 52.6875 34.0812 53.2226 34.4988 53.5603C35.0046 53.9887 35.728 54.0194 36.3485 53.8791C36.7459 53.7905 37.1181 53.5415 37.2762 53.1557C37.5294 53.2826 37.7834 53.4075 38.0359 53.5366C37.7393 54.0138 37.2804 54.3947 36.7368 54.5531C36.166 54.717 35.5559 54.7282 34.9739 54.6263C34.3421 54.5133 33.7517 54.1519 33.3991 53.6126C32.9814 52.9889 32.9024 52.2048 32.966 51.475C33.0199 50.8234 33.269 50.1634 33.7671 49.7204ZM34.7689 50.0176C34.2211 50.2709 33.9252 50.8569 33.8496 51.4304C34.9906 51.4318 36.1317 51.4318 37.2727 51.4304C37.2055 50.9085 36.9817 50.3671 36.5171 50.079C35.9973 49.7651 35.3138 49.772 34.7689 50.0176Z" fill="#68CF4F"/>
<path d="M40.6615 49.6862C41.1512 49.2551 41.8221 49.1016 42.4615 49.1037C43.1471 49.0911 43.8579 49.3158 44.342 49.816C44.9464 50.4272 45.085 51.3481 44.9562 52.1678C43.5354 52.1692 42.1152 52.1671 40.6951 52.1685C40.7482 52.6876 40.9371 53.2227 41.3555 53.5603C41.8606 53.988 42.5832 54.0194 43.2031 53.8799C43.6011 53.7913 43.974 53.5422 44.1321 53.1557C44.384 53.2813 44.6337 53.4089 44.8884 53.5289C44.5799 54.0605 44.0475 54.4561 43.4465 54.5929C42.8953 54.7191 42.3139 54.724 41.7598 54.6117C41.1211 54.4826 40.5349 54.0898 40.2011 53.5275C39.8171 52.8948 39.7562 52.1225 39.8297 51.4025C39.894 50.7578 40.1592 50.1125 40.6615 49.6862ZM41.4919 50.0909C41.0204 50.3713 40.7797 50.9064 40.7056 51.4304C41.8466 51.4318 42.9876 51.4318 44.1286 51.4304C44.0601 50.8604 43.7851 50.2639 43.2423 50.0058C42.6931 49.7567 42.0124 49.786 41.4919 50.0909Z" fill="#68CF4F"/>
<path d="M7.56548 49.1728C7.867 49.1728 8.16853 49.1728 8.47005 49.1728C8.47005 50.2444 8.47005 51.3153 8.47005 52.3869C8.47145 52.7406 8.48684 53.1152 8.66523 53.4313C8.82194 53.7117 9.13116 53.8736 9.44037 53.9231C10.0217 54.0187 10.6646 53.8931 11.1054 53.485C11.4699 53.1578 11.6021 52.6499 11.6042 52.1762C11.6077 51.175 11.6042 50.1739 11.6056 49.1728C11.9085 49.1728 12.2114 49.1728 12.5151 49.1728C12.5151 50.9895 12.5151 52.8061 12.5151 54.6228C12.2492 54.6235 11.9834 54.6235 11.7182 54.6201C11.7007 54.3473 11.679 54.0752 11.6665 53.8024C11.3733 54.2489 10.8836 54.5342 10.3617 54.6263C9.61946 54.7617 8.77157 54.7184 8.16573 54.2203C7.72079 53.8708 7.56339 53.2799 7.56618 52.7371C7.56409 51.549 7.56548 50.3609 7.56548 49.1728Z" fill="#68CF4F"/>
</svg>
