<svg width="140" height="44" viewBox="0 0 140 44" fill="none" xmlns="http://www.w3.org/2000/svg">
    <path d="M13.6381 0.0704361C13.8926 0.0193955 14.1522 0.00102081 14.4119 0C21.536 0.00306243 28.6611 2.33378e-08 35.7851 0.00102084C36.8186 0.00816652 37.8358 0.478761 38.5115 1.25866C38.7885 1.57307 38.9858 1.94567 39.1964 2.30499C42.5637 8.09299 45.932 13.881 49.3003 19.669C49.517 20.0457 49.7573 20.4142 49.8973 20.8286C50.2418 21.8025 50.1294 22.9223 49.6019 23.8104C46.0465 29.922 42.4901 36.0326 38.9347 42.1432C38.444 43.017 37.5771 43.6642 36.6019 43.8959C36.1337 44.0174 35.6471 44 35.1687 43.998C28.2143 43.997 21.261 43.999 14.3066 43.998C13.0513 43.9919 11.8266 43.2896 11.1969 42.2044C7.62721 36.0745 4.0616 29.9435 0.49394 23.8125C-0.0345644 22.9233 -0.148034 21.8035 0.197487 20.8286C0.336513 20.4132 0.578787 20.0447 0.795504 19.668C4.24969 13.7309 7.7049 7.7939 11.1591 1.85584C11.6743 0.938126 12.6056 0.272557 13.6381 0.0704361ZM11.7244 1.91606C11.0773 2.96137 10.514 4.05875 9.84039 5.0867C10.374 4.45788 11.4147 4.38234 12.0219 4.94481C12.5729 5.40622 12.6669 6.24941 12.303 6.85475C15.1132 9.38126 17.5717 12.3273 19.3984 15.6409C20.1713 15.109 20.7754 14.374 21.2978 13.6044C22.2464 12.1813 22.9088 10.5654 23.2073 8.88208C23.5426 7.0242 23.3668 5.06629 22.6144 3.32785C21.86 3.53303 20.9911 3.10633 20.757 2.34991C20.4933 1.61901 20.9155 0.769692 21.628 0.486927C19.1919 0.516531 16.7549 0.486927 14.3178 0.502239C13.2915 0.512447 12.2825 1.05246 11.7244 1.91606ZM22.8076 0.492031C23.2861 0.726818 23.6694 1.1821 23.7144 1.72517C23.7737 2.14575 23.5978 2.55203 23.3454 2.87971C23.8043 4.0465 24.0998 5.27964 24.1764 6.53115C24.3574 9.24243 23.5907 11.9741 22.1831 14.2852C21.5912 15.2428 20.894 16.1543 20.0067 16.8567C20.8183 18.6727 21.3571 20.602 21.6873 22.561C21.8886 23.8094 21.998 25.0793 21.9173 26.3441C21.8559 27.1424 21.7292 27.959 21.355 28.6787C20.895 29.5617 19.8922 30.0649 18.919 30.0976C17.7966 30.1354 16.7212 29.7138 15.7439 29.2013C14.047 28.2816 12.5504 27.0393 11.1427 25.7306C8.812 23.5328 6.71025 21.0992 4.80171 18.5288C4.45108 18.5778 4.07795 18.5737 3.75799 18.4032C3.22028 18.15 2.8901 17.5631 2.91565 16.9741C2.564 17.7274 2.0907 18.4175 1.68997 19.1453C1.36388 19.7435 0.963153 20.305 0.701457 20.9368C0.377403 21.7892 0.47145 22.7815 0.939641 23.5634C4.49503 29.674 8.05145 35.7846 11.6068 41.8951C12.0096 42.6097 12.7017 43.1528 13.4929 43.3753C13.9887 43.5254 14.5131 43.4999 15.0252 43.5009C18.0654 43.4999 21.1046 43.4998 24.1448 43.4998C22.7586 39.582 22.5337 35.3599 22.6737 31.2389C22.7228 28.9002 23.2125 26.6054 23.6408 24.3147C24.3993 19.963 25.8294 15.7542 27.5754 11.7046C29.0792 8.39822 31.1196 5.35722 33.4084 2.54386C33.0281 1.78132 33.4135 0.802358 34.2006 0.487948C30.403 0.508364 26.6053 0.501219 22.8076 0.492031ZM35.4907 0.493052C35.7381 0.723755 36.0233 0.939147 36.1634 1.25866C36.4291 1.80786 36.3014 2.51324 35.8608 2.93585C35.4038 3.40645 34.6607 3.48913 34.078 3.21556C30.4163 7.90006 27.8238 13.3522 26.0829 19.0157C25.4001 21.237 25.0024 23.5328 24.7101 25.8347C25.6485 26.0011 26.6084 25.8704 27.5264 25.6499C30.6892 24.8619 33.576 23.1918 36.054 21.1022C38.3949 19.1484 40.6265 17.0353 42.487 14.6129C42.0669 14.0903 42.0137 13.2991 42.4359 12.7622C42.8898 12.1283 43.8313 11.9762 44.4855 12.3835C42.6117 9.22916 40.7901 6.04218 38.9367 2.87461C38.6065 2.32949 38.3367 1.72721 37.8429 1.3046C37.2081 0.727839 36.3392 0.464469 35.4907 0.493052ZM4.39792 14.4925C4.1352 14.9284 3.90315 15.3836 3.61181 15.8032C4.29058 15.3744 5.28012 15.5602 5.71356 16.2472C6.11019 16.8128 6.0049 17.61 5.54795 18.1092C7.37778 20.5785 9.46931 22.8519 11.7397 24.9231C13.1208 26.1573 14.5724 27.3424 16.2131 28.2193C17.0207 28.6317 17.8957 29.0084 18.8209 28.9788C19.4884 28.9655 20.1457 28.5786 20.433 27.9682C20.8439 27.1148 20.9298 26.1481 20.9533 25.214C20.9686 23.0908 20.4984 20.9899 19.7879 18.9973C18.1666 14.5098 15.2358 10.5838 11.7346 7.37639C11.2828 7.58769 10.7359 7.62444 10.2892 7.37741C9.6758 7.07831 9.38651 6.35557 9.501 5.70021C7.81939 8.64117 6.09588 11.5597 4.39792 14.4925ZM45.195 13.6186C45.1806 14.1362 44.9251 14.6486 44.4722 14.9161C44.0521 15.1887 43.5164 15.1938 43.0544 15.0335C40.8003 18.1837 38.2344 21.1533 35.1646 23.5389C35.2597 23.9768 35.6073 24.2861 35.9313 24.5669C36.6581 25.1599 37.477 25.6305 38.3132 26.0501C39.9365 26.8514 41.6641 27.4445 43.4387 27.8079C43.7372 27.2547 44.3577 26.8831 44.9936 26.9698C45.7296 27.0331 46.3286 27.6916 46.3501 28.4245C47.2701 26.7422 48.2781 25.1079 49.2226 23.4378C49.5722 22.7937 49.6724 22.023 49.5058 21.3105C49.3811 20.7276 49.0294 20.2355 48.7411 19.7251C47.5604 17.6886 46.3665 15.6592 45.195 13.6186ZM24.5455 27.3567C24.3482 29.528 24.2899 31.7125 24.4054 33.8909C24.5874 37.1473 25.0873 40.4129 26.1688 43.4988C29.3388 43.5009 32.5088 43.4998 35.6788 43.4998C36.7634 43.5182 37.8409 42.9486 38.4093 42.0227C40.8064 37.9395 43.1576 33.8277 45.5691 29.7526C44.9506 30.116 44.0919 29.9618 43.6432 29.4035C43.3672 29.0911 43.2782 28.6664 43.3007 28.2601C39.9181 27.8263 36.5988 26.5717 33.9165 24.4433C31.184 26.3114 27.9077 27.6181 24.5455 27.3567Z" fill="#5DCB42"/>
    <path d="M57.3136 14.6176C57.872 14.6176 58.4303 14.6176 58.9899 14.6176C58.9873 16.7371 58.9938 18.8579 58.986 20.9774C59.4615 20.0724 60.3152 19.3745 61.3191 19.1479C62.7609 18.8191 64.4243 19.1091 65.506 20.1695C66.2003 20.8415 66.4711 21.8332 66.475 22.7758C66.484 24.938 66.4763 27.1002 66.4788 29.2637C65.9166 29.2637 65.3557 29.2637 64.7948 29.2637C64.7909 27.2336 64.8026 25.2034 64.7896 23.1746C64.7728 22.3162 64.5487 21.3516 63.7947 20.8427C62.7104 20.1164 61.1689 20.3028 60.1623 21.0836C59.3863 21.7089 59.0107 22.7136 58.9977 23.6912C58.9783 25.5491 58.9964 27.4058 58.9899 29.2637C58.4303 29.2637 57.872 29.2637 57.3136 29.2637C57.3136 24.3813 57.3136 19.5001 57.3136 14.6176Z" fill="#5DCB42"/>
    <path d="M84.2587 14.6176C84.8171 14.6176 85.3754 14.6176 85.935 14.6176C85.9324 16.7345 85.9389 18.8514 85.9311 20.9696C86.5361 19.9351 87.6217 19.1958 88.8161 19.056C89.9975 18.9356 91.2632 19.135 92.2451 19.8393C93.1959 20.5087 93.8139 21.582 94.0289 22.7149C94.2349 23.8038 94.2245 24.9419 93.9538 26.0178C93.6778 27.1196 92.9913 28.1257 92.0184 28.7225C91.0701 29.309 89.912 29.4592 88.8174 29.3595C87.6139 29.2404 86.4402 28.5918 85.8223 27.5327C85.8003 28.1101 85.7601 28.6863 85.7278 29.2637C85.2368 29.2637 84.7484 29.2637 84.2587 29.2637C84.2587 24.3813 84.2587 19.5001 84.2587 14.6176ZM88.1943 20.5281C87.0076 20.8479 86.1915 21.9769 86.0153 23.159C85.8469 24.3722 85.8884 25.7239 86.6229 26.7584C87.7603 28.4351 90.6154 28.4623 91.7671 26.7882C92.4316 25.865 92.5638 24.6687 92.4575 23.5643C92.3669 22.6023 91.9653 21.6274 91.1919 21.0175C90.3563 20.3637 89.1956 20.2588 88.1943 20.5281Z" fill="#5DCB42"/>
    <path d="M101.309 19.3642C103.164 18.4915 105.67 19.3124 106.496 21.2299C107.336 19.2955 109.832 18.5808 111.721 19.2813C113.113 19.7111 114.108 21.0836 114.125 22.535C114.148 24.7775 114.128 27.0199 114.135 29.2637C113.576 29.2637 113.017 29.2637 112.459 29.2637C112.459 27.4045 112.458 25.5452 112.459 23.6873C112.463 22.8315 112.504 21.863 111.911 21.1703C111.122 20.2756 109.719 20.2031 108.682 20.6692C107.573 21.1612 106.908 22.3705 106.908 23.5591C106.898 25.4598 106.908 27.3617 106.904 29.2637C106.343 29.2637 105.781 29.2637 105.221 29.2637C105.219 27.1429 105.224 25.0209 105.219 22.9001C105.219 22.1375 104.987 21.2998 104.326 20.8479C103.079 19.9869 101.186 20.387 100.326 21.6183C99.8532 22.2449 99.6718 23.0438 99.6693 23.8181C99.6615 25.6333 99.6692 27.4485 99.6667 29.2637C99.107 29.2637 98.5487 29.2637 97.9904 29.2637C97.9904 25.8922 97.9904 22.5207 97.9904 19.1492C98.48 19.1492 98.9697 19.1492 99.4594 19.1492C99.4918 19.7772 99.5332 20.4064 99.5553 21.0344C99.9594 20.3223 100.546 19.693 101.309 19.3642Z" fill="#5DCB42"/>
    <path d="M119.199 20.1656C120.11 19.3201 121.389 19.0159 122.604 19.021C123.871 18.9977 125.184 19.4134 126.079 20.3378C127.204 21.4707 127.462 23.1849 127.223 24.7075C124.592 24.7101 121.962 24.7062 119.333 24.7088C119.431 25.6721 119.781 26.6652 120.554 27.2918C121.491 28.0868 122.83 28.1438 123.979 27.8835C124.715 27.7191 125.404 27.2569 125.697 26.5409C126.166 26.7765 126.636 27.0083 127.104 27.2478C126.555 28.1334 125.705 28.8403 124.698 29.1342C123.641 29.4385 122.512 29.4592 121.434 29.2702C120.264 29.0604 119.171 28.3898 118.518 27.3889C117.744 26.2314 117.598 24.7762 117.716 23.4219C117.816 22.2126 118.277 20.9878 119.199 20.1656ZM121.054 20.7172C120.04 21.1871 119.492 22.2747 119.352 23.339C121.465 23.3416 123.578 23.3416 125.691 23.339C125.566 22.3705 125.152 21.3658 124.292 20.8311C123.329 20.2485 122.063 20.2614 121.054 20.7172Z" fill="#5DCB42"/>
    <path d="M131.966 20.1022C132.873 19.302 134.115 19.0172 135.299 19.0211C136.568 18.9978 137.885 19.4147 138.781 20.343C139.9 21.4772 140.157 23.1862 139.918 24.7076C137.287 24.7102 134.658 24.7063 132.028 24.7089C132.126 25.6721 132.476 26.6652 133.251 27.2919C134.186 28.0855 135.524 28.1438 136.672 27.8849C137.409 27.7204 138.1 27.2582 138.392 26.5409C138.859 26.774 139.321 27.0109 139.793 27.2336C139.221 28.2202 138.236 28.9543 137.123 29.2081C136.102 29.4424 135.026 29.4515 134 29.243C132.817 29.0035 131.731 28.2746 131.113 27.231C130.402 26.0567 130.289 24.6234 130.425 23.2872C130.545 22.0909 131.036 20.8933 131.966 20.1022ZM133.503 20.8531C132.63 21.3736 132.185 22.3667 132.047 23.339C134.16 23.3416 136.273 23.3416 138.386 23.339C138.259 22.2812 137.75 21.1742 136.745 20.6952C135.728 20.233 134.467 20.2873 133.503 20.8531Z" fill="#5DCB42"/>
    <path d="M70.6813 19.1492C71.2396 19.1492 71.798 19.1492 72.3563 19.1492C72.3563 21.1379 72.3563 23.1254 72.3563 25.1141C72.3589 25.7705 72.3874 26.4658 72.7177 27.0523C73.0079 27.5728 73.5805 27.8732 74.1531 27.9651C75.2296 28.1425 76.4201 27.9094 77.2362 27.152C77.9111 26.5448 78.1559 25.6022 78.1598 24.7231C78.1663 22.8651 78.1598 21.0072 78.1624 19.1492C78.7234 19.1492 79.2843 19.1492 79.8465 19.1492C79.8465 22.5207 79.8465 25.8922 79.8465 29.2637C79.3542 29.265 78.862 29.265 78.371 29.2585C78.3386 28.7523 78.2984 28.2474 78.2751 27.7411C77.7323 28.5697 76.8255 29.0993 75.8591 29.2702C74.4847 29.5214 72.9146 29.4411 71.7928 28.5167C70.9689 27.868 70.6774 26.7714 70.6826 25.764C70.6787 23.5591 70.6813 21.3542 70.6813 19.1492Z" fill="#5DCB42"/>
</svg>
