<svg width="17" height="17" viewBox="0 0 17 17" fill="none" xmlns="http://www.w3.org/2000/svg">
<path d="M8.51514 12.2461C9.61514 12.2461 10.5151 13.1461 10.5151 14.2461C10.5151 15.3461 9.61514 16.2461 8.51514 16.2461C7.41514 16.2461 6.51514 15.3461 6.51514 14.2461C6.51514 13.1461 7.41514 12.2461 8.51514 12.2461ZM8.51514 0.246094C9.61514 0.246094 10.5151 1.14609 10.5151 2.24609C10.5151 3.34609 9.61514 4.24609 8.51514 4.24609C7.41514 4.24609 6.51514 3.34609 6.51514 2.24609C6.51514 1.14609 7.41514 0.246094 8.51514 0.246094ZM2.51514 12.2461C3.61514 12.2461 4.51514 13.1461 4.51514 14.2461C4.51514 15.3461 3.61514 16.2461 2.51514 16.2461C1.41514 16.2461 0.515137 15.3461 0.515137 14.2461C0.515137 13.1461 1.41514 12.2461 2.51514 12.2461ZM2.51514 6.24609C3.61514 6.24609 4.51514 7.14609 4.51514 8.24609C4.51514 9.34609 3.61514 10.2461 2.51514 10.2461C1.41514 10.2461 0.515137 9.34609 0.515137 8.24609C0.515137 7.14609 1.41514 6.24609 2.51514 6.24609ZM2.51514 0.246094C3.61514 0.246094 4.51514 1.14609 4.51514 2.24609C4.51514 3.34609 3.61514 4.24609 2.51514 4.24609C1.41514 4.24609 0.515137 3.34609 0.515137 2.24609C0.515137 1.14609 1.41514 0.246094 2.51514 0.246094ZM14.5151 12.2461C15.6151 12.2461 16.5151 13.1461 16.5151 14.2461C16.5151 15.3461 15.6151 16.2461 14.5151 16.2461C13.4151 16.2461 12.5151 15.3461 12.5151 14.2461C12.5151 13.1461 13.4151 12.2461 14.5151 12.2461ZM14.5151 6.24609C15.6151 6.24609 16.5151 7.14609 16.5151 8.24609C16.5151 9.34609 15.6151 10.2461 14.5151 10.2461C13.4151 10.2461 12.5151 9.34609 12.5151 8.24609C12.5151 7.14609 13.4151 6.24609 14.5151 6.24609ZM14.5151 0.246094C15.6151 0.246094 16.5151 1.14609 16.5151 2.24609C16.5151 3.34609 15.6151 4.24609 14.5151 4.24609C13.4151 4.24609 12.5151 3.34609 12.5151 2.24609C12.5151 1.14609 13.4151 0.246094 14.5151 0.246094Z" fill="white"/>
</svg>
