<svg width="18" height="18" viewBox="0 0 18 18" fill="none" xmlns="http://www.w3.org/2000/svg">
<path d="M9.83329 6.52572H8.16663V4.85905H9.83329V6.52572ZM9.83329 13.1924H8.16663V8.19238H9.83329V13.1924ZM8.99996 0.692383C7.90561 0.692383 6.82198 0.907931 5.81093 1.32672C4.79988 1.74551 3.88122 2.35934 3.1074 3.13316C1.5446 4.69596 0.666626 6.81558 0.666626 9.02572C0.666626 11.2359 1.5446 13.3555 3.1074 14.9183C3.88122 15.6921 4.79988 16.3059 5.81093 16.7247C6.82198 17.1435 7.90561 17.3591 8.99996 17.3591C11.2101 17.3591 13.3297 16.4811 14.8925 14.9183C16.4553 13.3555 17.3333 11.2359 17.3333 9.02572C17.3333 7.93137 17.1177 6.84773 16.699 5.83669C16.2802 4.82564 15.6663 3.90698 14.8925 3.13316C14.1187 2.35934 13.2 1.74551 12.189 1.32672C11.1779 0.907931 10.0943 0.692383 8.99996 0.692383Z" fill="#5DCB42"/>
</svg>
