<svg width="16" height="16" viewBox="0 0 16 16" fill="none" xmlns="http://www.w3.org/2000/svg">
<path id="Icon" fill-rule="evenodd" clip-rule="evenodd" d="M2.02943 7.40005H4.81004C4.86641 5.75544 5.15287 4.25608 5.60308 3.11323C5.70848 2.84568 5.82492 2.59239 5.95258 2.35838C3.82684 3.12992 2.2609 5.0687 2.02943 7.40005ZM7.9998 0.800049C4.02335 0.800049 0.799805 4.0236 0.799805 8.00005C0.799805 11.9765 4.02335 15.2 7.9998 15.2C11.9763 15.2 15.1998 11.9765 15.1998 8.00005C15.1998 4.0236 11.9763 0.800049 7.9998 0.800049ZM7.9998 2.00005C7.86245 2.00005 7.66838 2.06829 7.42683 2.32764C7.18446 2.58787 6.93858 2.99713 6.71957 3.55306C6.33307 4.53418 6.0668 5.87873 6.01079 7.40005H9.98882C9.93281 5.87873 9.66654 4.53418 9.28004 3.55306C9.06103 2.99713 8.81515 2.58787 8.57278 2.32764C8.33123 2.06829 8.13716 2.00005 7.9998 2.00005ZM11.1896 7.40005C11.1332 5.75544 10.8467 4.25608 10.3965 3.11323C10.2911 2.84568 10.1747 2.59239 10.047 2.35838C12.1728 3.12992 13.7387 5.0687 13.9702 7.40005H11.1896ZM9.98882 8.60005H6.01079C6.0668 10.1214 6.33307 11.4659 6.71957 12.447C6.93858 13.003 7.18446 13.4122 7.42683 13.6725C7.66838 13.9318 7.86245 14 7.9998 14C8.13716 14 8.33123 13.9318 8.57278 13.6725C8.81515 13.4122 9.06103 13.003 9.28004 12.447C9.66654 11.4659 9.93281 10.1214 9.98882 8.60005ZM10.047 13.6417C10.1747 13.4077 10.2911 13.1544 10.3965 12.8869C10.8467 11.744 11.1332 10.2447 11.1896 8.60005H13.9702C13.7387 10.9314 12.1728 12.8702 10.047 13.6417ZM5.95258 13.6417C5.82492 13.4077 5.70848 13.1544 5.60308 12.8869C5.15287 11.744 4.86641 10.2447 4.81004 8.60005H2.02943C2.2609 10.9314 3.82684 12.8702 5.95258 13.6417Z" fill="#787F9D"/>
</svg>
