<svg width="20" height="20" viewBox="0 0 20 20" fill="none" xmlns="http://www.w3.org/2000/svg">
<path fill-rule="evenodd" clip-rule="evenodd" d="M11.2366 1.0001H5.75C5.33579 1.0001 5 1.33589 5 1.7501C5 2.16432 5.33579 2.5001 5.75 2.5001H10.3778L8.10508 17.5001H3.75C3.33579 17.5001 3 17.8359 3 18.2501C3 18.6643 3.33579 19.0001 3.75 19.0001H8.73845C8.74679 19.0002 8.75511 19.0002 8.76341 19.0001H14.25C14.6642 19.0001 15 18.6643 15 18.2501C15 17.8359 14.6642 17.5001 14.25 17.5001H9.6222L11.8949 2.5001H16.25C16.6642 2.5001 17 2.16432 17 1.7501C17 1.33589 16.6642 1.0001 16.25 1.0001H11.2615C11.2532 0.999965 11.2449 0.999966 11.2366 1.0001Z" fill="#575D7A"/>
</svg>
