<svg width="382" height="135" viewBox="0 0 382 135" fill="none" xmlns="http://www.w3.org/2000/svg">
<path d="M151.745 33.5297C157.085 30.7022 163.475 30.2264 169.299 31.6355C175.116 33.0291 180.383 36.66 183.69 41.6722C185.935 45.0188 187.173 48.9896 187.423 53.0037C187.9 59.8112 186.536 66.5755 186.714 73.3799C186.73 74.412 186.834 75.4565 187.213 76.4237C188.848 80.8951 191.158 85.076 193.502 89.2044C194.466 90.972 195.855 92.4459 197.068 94.0404C201.395 99.4945 205.768 104.915 209.879 110.536C212.451 114.114 215.019 117.769 216.688 121.879C217.72 124.478 218.345 127.581 216.934 130.164C217.153 130.93 217.313 131.83 218.028 132.315C219.063 133.035 220.365 133.174 221.576 133.381C224.15 133.702 226.746 133.844 229.339 133.918C236.419 134.209 243.505 134.187 250.589 134.265C259.932 134.333 372.656 134.326 382 134.351V135C365.321 134.963 245.258 135.09 228.585 134.58C225.308 134.354 221.951 134.404 218.779 133.449C217.584 133.134 216.759 132.139 216.408 130.983C215.857 131.415 215.207 131.663 214.508 131.641C214.338 132.185 214.2 132.837 213.578 133.025C211.767 133.721 209.676 133.347 207.979 132.506C205.679 131.317 204.219 128.956 201.814 127.933C199.846 127.003 197.434 126.518 196.15 124.589C194.888 122.581 195.71 120.127 195.393 117.933C193.89 117.025 191.869 117.272 190.508 116.042C189.175 114.902 189.273 112.989 188.602 111.503C187.989 110.35 186.089 111.061 185.636 109.76C185.23 107.971 186.326 106.058 185.575 104.331C184.383 102.974 182.067 103.802 180.897 102.424C180.869 100.085 181.648 97.7424 181.229 95.3816C180.232 95.4217 179.212 95.604 178.227 95.3599C177.112 95.0478 176.936 93.6573 176.031 93.1011C174.368 93.2865 172.61 94.0961 170.99 93.2648C169.373 92.4274 168.834 90.5301 168.19 88.9603C167.756 87.9313 167.445 86.6767 166.379 86.1174C165.169 85.5241 163.79 85.4777 162.478 85.3078C159.657 85.0389 156.842 84.4518 154.261 83.2528C150.347 81.4698 147.11 78.4879 144.345 75.234C142.488 73.006 140.751 70.6142 139.661 67.9073C139.257 66.7825 138.829 65.5001 139.307 64.332C139.704 63.2999 140.772 62.7777 141.767 62.4872C145.355 61.52 149.26 62.0515 152.709 60.5096C155.311 59.3569 157.079 56.9374 158.154 54.3726C156.833 54.9782 155.382 55.4634 153.91 55.2131C151.249 54.7712 149.063 52.639 148.154 50.1422C147.504 48.3808 147.76 46.1714 149.235 44.8952C150.732 43.6962 152.5 42.5281 154.504 42.661C156.127 42.6981 157.522 43.6499 158.708 44.6758C157.67 41.9039 156.097 39.0301 156.716 35.9771C156.977 34.5031 158.317 33.5143 159.734 33.3041C162.681 32.7881 165.702 32.9797 168.668 33.23C170.993 33.4648 173.315 33.9005 175.467 34.843C169.853 31.5706 162.933 30.7146 156.66 32.3338C151.902 33.5482 147.726 36.5271 144.616 40.2909C140.504 45.2011 138.352 51.5822 138.069 57.9447C137.97 59.7277 138.299 61.4891 138.684 63.2196C138.949 64.1312 138.038 64.7059 137.403 65.1447C131.235 68.8992 124.219 71.5753 116.933 71.6896C111.886 71.8688 106.903 70.7286 102.142 69.1341C95.0123 66.7145 6.6951 4.18403 0 0.760172V0C5.48481 2.83673 93.8898 64.8601 99.7541 67.2753C105.618 69.6905 109.711 70.9851 115.723 71.0469C123.314 71.1581 130.684 68.4728 137.095 64.5422C137.502 64.227 138.176 63.8407 138.001 63.2289C136.624 57.7254 137.816 51.9005 139.907 46.74C142.257 41.1963 146.436 36.3881 151.745 33.5297ZM159.367 34.0921C158.064 34.3579 157.258 35.6341 157.255 36.9165C157.125 39.7532 158.576 42.2964 159.509 44.8859C160.057 46.6596 161.409 48.2387 161.141 50.1978C161.079 51.7336 159.906 52.7904 159.031 53.9029C157.994 56.8261 156.112 59.6103 153.26 60.9947C149.897 62.6356 146.042 62.2215 142.469 63.0002C141.499 63.2289 140.4 63.5997 139.932 64.5669C139.55 65.6299 139.935 66.7794 140.323 67.7868C141.394 70.3516 143.054 72.6228 144.816 74.7519C147.591 77.9873 150.8 80.9971 154.742 82.7275C157.473 83.9728 160.467 84.4703 163.435 84.7392C164.938 84.9462 166.731 85.0822 167.725 86.3986C168.874 88.1383 169.111 90.3601 170.445 91.9948C171.276 93.0083 172.742 93.1443 173.934 92.8168C174.738 92.6777 175.544 92.2853 176.37 92.4923C177.448 92.9898 177.491 94.7264 178.84 94.8099C179.816 95.0324 181.319 94.164 181.864 95.3445C182.292 97.5014 181.765 99.7046 181.507 101.852C181.448 102.43 182.187 102.439 182.575 102.569C183.816 102.887 185.427 102.832 186.2 104.043C187.053 105.866 185.87 107.89 186.366 109.766C187.207 110.18 188.353 110.001 188.975 110.829C189.895 112.155 189.637 113.987 190.675 115.26C191.58 116.268 193.015 116.438 194.259 116.75C194.958 116.917 195.864 117.105 196.092 117.912C196.406 120.013 195.55 122.383 196.766 124.305C198.127 126.141 200.548 126.493 202.463 127.497C204.487 128.467 205.842 130.343 207.693 131.561C209.229 132.577 211.185 132.923 212.983 132.543C213.393 132.475 213.612 132.095 213.889 131.826C213.621 131.298 213.227 130.859 212.768 130.498C211.185 129.181 210.104 127.401 208.678 125.94C205.358 122.423 202.38 118.598 199.63 114.624C192.883 104.853 186.942 94.5596 180.731 84.4518C179.425 82.4618 178.254 80.3049 176.401 78.766C174.648 79.0194 173.463 80.4254 172.074 81.3771C170.629 82.3752 169.139 83.3981 167.442 83.9079C166.888 84.1057 166.01 83.9388 166.01 83.2127C166.028 82.3752 166.687 81.751 167.248 81.2072C168.775 79.8692 170.595 78.8896 172.496 78.2036C173.53 77.8791 174.654 77.5485 175.738 77.8266C176.903 78.2067 178.184 78.3859 179.148 79.211C181.513 81.0805 183.231 83.6144 184.956 86.0556C193.357 98.62 200.191 112.173 208.752 124.633C210.079 126.768 212.09 128.319 213.673 130.247C214.027 130.702 214.603 131.029 215.195 130.946C215.684 130.797 215.943 130.322 216.266 129.963C215.918 127.429 215.262 124.917 214.03 122.661C211.644 118.202 208.666 114.102 205.873 109.896C202.254 104.544 198.697 99.1422 195.34 93.6171C194.518 92.2822 193.794 90.8762 192.784 89.671C190.357 86.4758 187.863 83.1539 186.831 79.2048C186.403 77.7833 186.351 76.2877 186.012 74.8477C185.11 71.875 184.737 68.7324 185.023 65.6361C185.381 61.7394 186.071 57.8273 185.624 53.9091C185.31 50.5408 184.112 47.3178 182.575 44.3297C181.119 41.6011 179.456 38.8972 177.127 36.8238C174.734 34.707 171.452 34.2003 168.39 33.882C165.397 33.6379 162.321 33.3968 159.367 34.0921ZM177.192 35.9122C179.893 38.3287 181.879 41.4311 183.49 44.6541C185.214 48.0996 186.369 51.8819 186.412 55.76C186.659 61.1801 184.86 66.5878 186.009 71.9832C186.089 68.1143 186.428 64.261 186.708 60.4045C186.927 55.9702 187.071 51.3937 185.618 47.1355C184.127 42.593 181.035 38.6933 177.192 35.9122ZM150.972 44.546C149.62 45.4081 148.706 47.0583 148.955 48.6867C149.266 50.8807 150.994 52.7657 153.094 53.3992C154.988 53.9121 157.064 53.5691 158.727 52.534C159.207 50.6088 159.564 48.5415 158.961 46.5978C158.625 45.4792 157.763 44.5213 156.645 44.1597C154.803 43.5355 152.727 43.7611 150.972 44.546ZM159.857 49.0267C159.629 49.654 159.62 50.4358 159.851 51.0661C160.233 50.6644 160.248 49.4098 159.857 49.0267ZM151.6 53.6186C153.347 54.7743 155.561 54.8515 157.449 54.0018C155.499 54.4498 153.457 54.422 151.6 53.6186ZM168.951 80.7375C167.981 81.4019 166.974 82.1558 166.577 83.3146C167.947 83.2652 169.111 82.4679 170.254 81.7912C171.966 80.7622 173.416 79.3686 175.104 78.3086C172.881 78.5558 170.802 79.5107 168.951 80.7375ZM177.9 79.1646C180.355 82.2887 182.301 85.7682 184.38 89.1426C188.356 95.7338 192.325 102.331 196.523 108.783C199.547 113.406 202.654 117.992 206.248 122.191C198.765 110.637 192.316 98.4439 184.746 86.9455C182.763 84.1243 180.826 81.0959 177.9 79.1646ZM187.478 78.9792C188.097 81.4884 189.397 83.7534 190.838 85.8671C189.664 83.5989 188.5 81.3215 187.478 78.9792ZM197.21 95.3476C201.632 102.597 206.513 109.547 211.191 116.626C213.655 120.384 216.115 124.317 216.808 128.848C217.452 126.536 216.87 124.107 215.992 121.947C214.345 117.995 211.875 114.466 209.393 111.008C205.475 105.678 201.373 100.486 197.21 95.3476Z" fill="black"/>
</svg>
