<svg width="14" height="15" viewBox="0 0 14 15" fill="none" xmlns="http://www.w3.org/2000/svg">
<path d="M7.59443 0.833252V2.16659C10.5211 2.52659 12.5944 5.18659 12.2344 8.11325C11.9278 10.5399 10.0211 12.4533 7.59443 12.7533V14.0866C11.2611 13.6866 13.8944 10.3933 13.4944 6.73325C13.1478 3.62659 10.7011 1.16659 7.59443 0.833252ZM6.2611 0.833252C4.95443 0.953252 3.7211 1.46659 2.70777 2.29992L3.6611 3.32659C4.40777 2.72659 5.30777 2.33992 6.2611 2.20659V0.873252V0.833252ZM1.76777 3.27992C0.927767 4.29325 0.4211 5.52659 0.294434 6.83325H1.62777C1.75443 5.88659 2.12777 4.98659 2.7211 4.23325L1.76777 3.27992ZM0.3011 8.16659C0.434434 9.47325 0.947767 10.7066 1.77443 11.7199L2.7211 10.7666C2.13443 10.0133 1.75443 9.11325 1.63443 8.16659H0.3011ZM3.63443 11.7466L2.70777 12.6599C3.71443 13.4999 4.95443 14.0266 6.2611 14.1666V12.8333C5.31443 12.7133 4.41443 12.3333 3.6611 11.7466H3.63443ZM7.59443 8.16659V4.16659H6.2611V8.16659H7.59443ZM7.59443 10.8333V9.49992H6.2611V10.8333H7.59443Z" fill="#F33A3D"/>
</svg>
