<svg width="16" height="16" viewBox="0 0 16 16" fill="none" xmlns="http://www.w3.org/2000/svg">
<g id="24 / Location2" clip-path="url(#clip0_3865_72243)">
<g id="Vector">
<path fill-rule="evenodd" clip-rule="evenodd" d="M7.83333 3C5.16396 3 3 5.16396 3 7.83333C3 10.5027 5.16396 12.6667 7.83333 12.6667C10.5027 12.6667 12.6667 10.5027 12.6667 7.83333C12.6667 5.16396 10.5027 3 7.83333 3ZM2 7.83333C2 4.61167 4.61167 2 7.83333 2C11.055 2 13.6667 4.61167 13.6667 7.83333C13.6667 11.055 11.055 13.6667 7.83333 13.6667C4.61167 13.6667 2 11.055 2 7.83333Z" fill="#3AA625"/>
<path fill-rule="evenodd" clip-rule="evenodd" d="M7.83333 6.33333C7.00491 6.33333 6.33333 7.00491 6.33333 7.83333C6.33333 8.66176 7.00491 9.33333 7.83333 9.33333C8.66176 9.33333 9.33333 8.66176 9.33333 7.83333C9.33333 7.00491 8.66176 6.33333 7.83333 6.33333ZM5.33333 7.83333C5.33333 6.45262 6.45262 5.33333 7.83333 5.33333C9.21405 5.33333 10.3333 6.45262 10.3333 7.83333C10.3333 9.21405 9.21405 10.3333 7.83333 10.3333C6.45262 10.3333 5.33333 9.21405 5.33333 7.83333Z" fill="#3AA625"/>
<path fill-rule="evenodd" clip-rule="evenodd" d="M7.83333 0.666667C8.10948 0.666667 8.33333 0.890524 8.33333 1.16667V2.5C8.33333 2.77614 8.10948 3 7.83333 3C7.55719 3 7.33333 2.77614 7.33333 2.5V1.16667C7.33333 0.890524 7.55719 0.666667 7.83333 0.666667Z" fill="#3AA625"/>
<path fill-rule="evenodd" clip-rule="evenodd" d="M7.83333 12.6667C8.10948 12.6667 8.33333 12.8905 8.33333 13.1667V14.5C8.33333 14.7761 8.10948 15 7.83333 15C7.55719 15 7.33333 14.7761 7.33333 14.5V13.1667C7.33333 12.8905 7.55719 12.6667 7.83333 12.6667Z" fill="#3AA625"/>
<path fill-rule="evenodd" clip-rule="evenodd" d="M15 7.83333C15 8.10948 14.7761 8.33333 14.5 8.33333H13.1667C12.8905 8.33333 12.6667 8.10948 12.6667 7.83333C12.6667 7.55719 12.8905 7.33333 13.1667 7.33333H14.5C14.7761 7.33333 15 7.55719 15 7.83333Z" fill="#3AA625"/>
<path fill-rule="evenodd" clip-rule="evenodd" d="M3 7.83333C3 8.10948 2.77614 8.33333 2.5 8.33333H1.16667C0.890524 8.33333 0.666667 8.10948 0.666667 7.83333C0.666667 7.55719 0.890524 7.33333 1.16667 7.33333H2.5C2.77614 7.33333 3 7.55719 3 7.83333Z" fill="#3AA625"/>
<path fill-rule="evenodd" clip-rule="evenodd" d="M7.83333 0.833333C7.64924 0.833333 7.5 0.982572 7.5 1.16667V1.84244C7.61034 1.83639 7.72148 1.83333 7.83333 1.83333C7.94519 1.83333 8.05632 1.83639 8.16667 1.84244V1.16667C8.16667 0.982572 8.01743 0.833333 7.83333 0.833333ZM8.5 1.86995V1.16667C8.5 0.798477 8.20152 0.5 7.83333 0.5C7.46514 0.5 7.16667 0.798477 7.16667 1.16667V1.86995C4.38559 2.17739 2.17739 4.38559 1.86995 7.16667H1.16667C0.798477 7.16667 0.5 7.46514 0.5 7.83333C0.5 8.20152 0.798477 8.5 1.16667 8.5H1.86995C2.17739 11.2811 4.38559 13.4893 7.16667 13.7967V14.5C7.16667 14.8682 7.46514 15.1667 7.83333 15.1667C8.20152 15.1667 8.5 14.8682 8.5 14.5V13.7967C11.2811 13.4893 13.4893 11.2811 13.7967 8.5H14.5C14.8682 8.5 15.1667 8.20152 15.1667 7.83333C15.1667 7.46514 14.8682 7.16667 14.5 7.16667H13.7967C13.4893 4.38559 11.2811 2.17739 8.5 1.86995ZM8.16667 2.17631C8.05637 2.16991 7.94523 2.16667 7.83333 2.16667C7.72144 2.16667 7.61029 2.16991 7.5 2.17631V2.5C7.5 2.68409 7.64924 2.83333 7.83333 2.83333C8.01743 2.83333 8.16667 2.68409 8.16667 2.5V2.17631ZM8.39183 2.86418C8.46024 2.75949 8.5 2.63439 8.5 2.5V2.20547C11.0968 2.5098 13.1569 4.56988 13.4612 7.16667H13.1667C13.0323 7.16667 12.9072 7.20643 12.8025 7.27484C12.5452 4.95964 10.707 3.12149 8.39183 2.86418ZM12.5 7.83333C12.5 5.256 10.4107 3.16667 7.83333 3.16667C5.256 3.16667 3.16667 5.256 3.16667 7.83333C3.16667 10.4107 5.256 12.5 7.83333 12.5C10.4107 12.5 12.5 10.4107 12.5 7.83333ZM8.39183 12.8025C10.707 12.5452 12.5452 10.707 12.8025 8.39183C12.9072 8.46023 13.0323 8.5 13.1667 8.5H13.4612C13.1569 11.0968 11.0968 13.1569 8.5 13.4612V13.1667C8.5 13.0323 8.46023 12.9072 8.39183 12.8025ZM7.27484 12.8025C4.95964 12.5452 3.12149 10.707 2.86418 8.39183C2.75949 8.46024 2.63439 8.5 2.5 8.5H2.20547C2.5098 11.0968 4.56988 13.1569 7.16667 13.4612V13.1667C7.16667 13.0323 7.20643 12.9072 7.27484 12.8025ZM7.5 13.4904V13.1667C7.5 12.9826 7.64924 12.8333 7.83333 12.8333C8.01743 12.8333 8.16667 12.9826 8.16667 13.1667V13.4904C8.05637 13.4968 7.94523 13.5 7.83333 13.5C7.72144 13.5 7.61029 13.4968 7.5 13.4904ZM7.5 13.8242V14.5C7.5 14.6841 7.64924 14.8333 7.83333 14.8333C8.01743 14.8333 8.16667 14.6841 8.16667 14.5V13.8242C8.05632 13.8303 7.94519 13.8333 7.83333 13.8333C7.72148 13.8333 7.61034 13.8303 7.5 13.8242ZM2.17631 8.16667H2.5C2.68409 8.16667 2.83333 8.01743 2.83333 7.83333C2.83333 7.64924 2.68409 7.5 2.5 7.5H2.17631C2.16991 7.61029 2.16667 7.72144 2.16667 7.83333C2.16667 7.94523 2.16991 8.05637 2.17631 8.16667ZM1.84244 7.5H1.16667C0.982572 7.5 0.833333 7.64924 0.833333 7.83333C0.833333 8.01743 0.982572 8.16667 1.16667 8.16667H1.84244C1.83639 8.05632 1.83333 7.94519 1.83333 7.83333C1.83333 7.72148 1.83639 7.61034 1.84244 7.5ZM2.20547 7.16667H2.5C2.63439 7.16667 2.75949 7.20643 2.86418 7.27484C3.12149 4.95964 4.95963 3.12149 7.27483 2.86418C7.20643 2.75949 7.16667 2.63439 7.16667 2.5V2.20547C4.56988 2.5098 2.5098 4.56988 2.20547 7.16667ZM13.4904 8.16667H13.1667C12.9826 8.16667 12.8333 8.01743 12.8333 7.83333C12.8333 7.64924 12.9826 7.5 13.1667 7.5H13.4904C13.4968 7.61029 13.5 7.72144 13.5 7.83333C13.5 7.94523 13.4968 8.05637 13.4904 8.16667ZM13.8242 8.16667H14.5C14.6841 8.16667 14.8333 8.01743 14.8333 7.83333C14.8333 7.64924 14.6841 7.5 14.5 7.5H13.8242C13.8303 7.61034 13.8333 7.72148 13.8333 7.83333C13.8333 7.94519 13.8303 8.05632 13.8242 8.16667ZM7.83333 5.5C6.54467 5.5 5.5 6.54467 5.5 7.83333C5.5 9.122 6.54467 10.1667 7.83333 10.1667C9.122 10.1667 10.1667 9.122 10.1667 7.83333C10.1667 6.54467 9.122 5.5 7.83333 5.5ZM5.16667 7.83333C5.16667 6.36057 6.36057 5.16667 7.83333 5.16667C9.30609 5.16667 10.5 6.36057 10.5 7.83333C10.5 9.30609 9.30609 10.5 7.83333 10.5C6.36057 10.5 5.16667 9.30609 5.16667 7.83333ZM6.16667 7.83333C6.16667 6.91286 6.91286 6.16667 7.83333 6.16667C8.75381 6.16667 9.5 6.91286 9.5 7.83333C9.5 8.75381 8.75381 9.5 7.83333 9.5C6.91286 9.5 6.16667 8.75381 6.16667 7.83333ZM7.83333 6.5C7.09695 6.5 6.5 7.09695 6.5 7.83333C6.5 8.56971 7.09695 9.16667 7.83333 9.16667C8.56971 9.16667 9.16667 8.56971 9.16667 7.83333C9.16667 7.09695 8.56971 6.5 7.83333 6.5Z" fill="#3AA625"/>
</g>
</g>
<defs>
<clipPath id="clip0_3865_72243">
<rect width="16" height="16" fill="white"/>
</clipPath>
</defs>
</svg>
