<svg width="140" height="46" viewBox="0 0 140 46" fill="none" xmlns="http://www.w3.org/2000/svg">
<path d="M13.638 0.0733467C13.8926 0.0201969 14.1522 0.00106299 14.4119 0C21.536 0.00318898 28.6611 2.42693e-08 35.7851 0.00106302C36.8186 0.00850398 37.8358 0.498544 38.5115 1.31067C38.7885 1.63807 38.9858 2.02607 39.1964 2.40024C42.5637 8.42742 45.932 14.4546 49.3003 20.4818C49.517 20.874 49.7573 21.2578 49.8973 21.6893C50.2418 22.7034 50.1294 23.8695 49.6019 24.7943C46.0465 31.1585 42.4901 37.5216 38.9347 43.8846C38.444 44.7946 37.5771 45.4685 36.6019 45.7098C36.1337 45.8363 35.6471 45.8182 35.1687 45.8161C28.2143 45.815 21.261 45.8172 14.3066 45.8161C13.0513 45.8097 11.8266 45.0784 11.1969 43.9484C7.62721 37.5651 4.0616 31.1808 0.49394 24.7965C-0.0345644 23.8706 -0.148034 22.7045 0.197487 21.6893C0.336513 21.2567 0.578787 20.8729 0.795504 20.4807C4.24969 14.2983 7.7049 8.11596 11.1591 1.93252C11.6743 0.976892 12.6056 0.283819 13.638 0.0733467ZM11.7244 1.99524C11.0773 3.08375 10.514 4.22646 9.84039 5.2969C10.374 4.64209 11.4147 4.56343 12.0219 5.14914C12.5729 5.62962 12.6669 6.50765 12.303 7.13801C15.1132 9.76892 17.5717 12.8367 19.3984 16.2872C20.1713 15.7334 20.7754 14.968 21.2978 14.1665C22.2464 12.6847 22.9088 11.002 23.2073 9.24911C23.5426 7.31446 23.3668 5.27564 22.6144 3.46536C21.86 3.67902 20.9911 3.23469 20.757 2.44701C20.4933 1.68591 20.9155 0.801498 21.628 0.507048C19.1919 0.537875 16.7549 0.507048 14.3178 0.522993C13.2915 0.533623 12.2825 1.09595 11.7244 1.99524ZM22.8076 0.512363C23.2861 0.756852 23.6694 1.23095 23.7144 1.79646C23.7737 2.23441 23.5978 2.65749 23.3454 2.99871C23.8043 4.21371 24.0998 5.49781 24.1764 6.80104C24.3574 9.62435 23.5907 12.4689 22.183 14.8755C21.5912 15.8726 20.894 16.8219 20.0067 17.5532C20.8183 19.4443 21.3571 21.4533 21.6873 23.4932C21.8886 24.7933 21.998 26.1156 21.9173 27.4327C21.8559 28.264 21.7292 29.1143 21.355 29.8638C20.895 30.7832 19.8922 31.3073 18.919 31.3413C17.7966 31.3806 16.7212 30.9416 15.7439 30.408C14.047 29.4502 12.5504 28.1566 11.1427 26.7938C8.812 24.5052 6.71025 21.971 4.80171 19.2944C4.45108 19.3454 4.07795 19.3412 3.75799 19.1637C3.22028 18.9 2.8901 18.2888 2.91565 17.6755C2.564 18.46 2.0907 19.1785 1.68997 19.9364C1.36388 20.5594 0.963153 21.144 0.701457 21.802C0.377403 22.6896 0.47145 23.7228 0.939641 24.5371C4.49503 30.9002 8.05145 37.2633 11.6068 43.6263C12.0096 44.3704 12.7017 44.9359 13.4929 45.1677C13.9887 45.3239 14.5131 45.2974 15.0252 45.2984C18.0654 45.2974 21.1046 45.2974 24.1447 45.2974C22.7586 41.2176 22.5337 36.821 22.6737 32.5297C22.7228 30.0944 23.2125 27.7048 23.6408 25.3195C24.3993 20.7879 25.8294 16.4052 27.5754 12.1883C29.0792 8.74525 31.1196 5.57859 33.4084 2.64898C33.0281 1.85492 33.4135 0.835513 34.2006 0.508111C30.403 0.529371 26.6053 0.52193 22.8076 0.512363ZM35.4907 0.513426C35.7381 0.753663 36.0233 0.977954 36.1634 1.31067C36.4291 1.88256 36.3014 2.61709 35.8608 3.05717C35.4038 3.54721 34.6606 3.63331 34.078 3.34843C30.4163 8.22651 27.8238 13.904 26.0829 19.8015C25.4001 22.1145 25.0024 24.5052 24.7101 26.9023C25.6485 27.0755 26.6084 26.9395 27.5264 26.7099C30.6892 25.8892 33.576 24.1502 36.054 21.9742C38.3949 19.9396 40.6265 17.7392 42.487 15.2168C42.0669 14.6725 42.0137 13.8487 42.4359 13.2896C42.8898 12.6294 43.8313 12.471 44.4855 12.8952C42.6117 9.61053 40.7901 6.29186 38.9367 2.99339C38.6065 2.42575 38.3367 1.79859 37.8429 1.35851C37.2081 0.757915 36.3392 0.483662 35.4907 0.513426ZM4.39792 15.0913C4.1352 15.5452 3.90315 16.0193 3.61181 16.4562C4.29058 16.0098 5.28012 16.2032 5.71356 16.9186C6.11019 17.5075 6.0049 18.3377 5.54795 18.8575C7.37778 21.4289 9.46931 23.7962 11.7397 25.953C13.1208 27.2382 14.5724 28.4723 16.2131 29.3854C17.0207 29.8149 17.8957 30.2071 18.8209 30.1763C19.4884 30.1625 20.1457 29.7596 20.433 29.1239C20.8439 28.2352 20.9298 27.2286 20.9533 26.256C20.9686 24.0449 20.4984 21.8573 19.7879 19.7823C18.1666 15.1094 15.2358 11.0211 11.7346 7.6812C11.2828 7.90124 10.7359 7.9395 10.2892 7.68226C9.6758 7.3708 9.38651 6.6182 9.501 5.93576C7.81939 8.99824 6.09588 12.0373 4.39792 15.0913ZM45.195 14.1814C45.1806 14.7203 44.9251 15.254 44.4722 15.5325C44.0521 15.8163 43.5164 15.8216 43.0544 15.6547C40.8003 18.9351 38.2344 22.0274 35.1646 24.5116C35.2597 24.9676 35.6073 25.2897 35.9313 25.582C36.6581 26.1996 37.477 26.6897 38.3132 27.1265C39.9365 27.961 41.6641 28.5786 43.4387 28.957C43.7372 28.3809 44.3577 27.9939 44.9936 28.0843C45.7296 28.1502 46.3286 28.8358 46.3501 29.5991C47.2701 27.8473 48.2781 26.1454 49.2226 24.4063C49.5722 23.7356 49.6724 22.933 49.5058 22.1911C49.3811 21.5841 49.0294 21.0717 48.7411 20.5402C47.5604 18.4196 46.3665 16.3063 45.195 14.1814ZM24.5455 28.4872C24.3482 30.7482 24.2899 33.023 24.4054 35.2914C24.5874 38.6824 25.0873 42.0829 26.1688 45.2963C29.3388 45.2984 32.5088 45.2974 35.6788 45.2974C36.7634 45.3165 37.8409 44.7233 38.4092 43.7592C40.8064 39.5072 43.1576 35.2255 45.5691 30.982C44.9506 31.3605 44.0919 31.1999 43.6432 30.6185C43.3672 30.2932 43.2782 29.851 43.3007 29.4279C39.9181 28.9762 36.5988 27.6697 33.9165 25.4534C31.184 27.3987 27.9077 28.7593 24.5455 28.4872Z" fill="#5DCB42"/>
<path d="M57.3136 15.0087C57.872 15.0087 58.4303 15.0087 58.9899 15.0087C58.9873 17.2158 58.9938 19.4242 58.986 21.6312C59.4615 20.6888 60.3152 19.9621 61.3191 19.7262C62.7609 19.3837 64.4243 19.6857 65.506 20.7899C66.2003 21.4897 66.4711 22.5224 66.4749 23.504C66.484 25.7555 66.4762 28.0071 66.4788 30.26C65.9166 30.26 65.3557 30.26 64.7948 30.26C64.7909 28.1459 64.8026 26.0319 64.7896 23.9192C64.7728 23.0253 64.5486 22.0209 63.7947 21.491C62.7104 20.7347 61.1688 20.9288 60.1623 21.7418C59.3863 22.393 59.0107 23.4392 58.9977 24.4572C58.9783 26.3919 58.9964 28.3253 58.9899 30.26C58.4303 30.26 57.872 30.26 57.3136 30.26C57.3136 25.1758 57.3136 20.0929 57.3136 15.0087Z" fill="#5DCB42"/>
<path d="M84.2587 15.0087C84.817 15.0087 85.3754 15.0087 85.935 15.0087C85.9324 17.2131 85.9389 19.4174 85.9311 21.6232C86.5361 20.5459 87.6217 19.7761 88.8161 19.6305C89.9975 19.5051 91.2632 19.7127 92.2451 20.4461C93.1959 21.1432 93.8139 22.2609 94.0289 23.4406C94.2349 24.5745 94.2245 25.7596 93.9538 26.8799C93.6778 28.0273 92.9912 29.0749 92.0184 29.6964C91.0701 30.3072 89.912 30.4636 88.8174 30.3598C87.6139 30.2357 86.4402 29.5602 85.8223 28.4574C85.8003 29.0587 85.7601 29.6587 85.7278 30.26C85.2368 30.26 84.7484 30.26 84.2587 30.26C84.2587 25.1758 84.2587 20.0929 84.2587 15.0087ZM88.1943 21.1634C87.0076 21.4964 86.1915 22.6721 86.0153 23.903C85.8469 25.1663 85.8884 26.5739 86.6229 27.6511C87.7603 29.3971 90.6154 29.4254 91.7671 27.6822C92.4316 26.7209 92.5638 25.4751 92.4575 24.325C92.3669 23.3233 91.9653 22.3081 91.1919 21.673C90.3563 20.9922 89.1956 20.883 88.1943 21.1634Z" fill="#5DCB42"/>
<path d="M101.309 19.9513C103.164 19.0426 105.67 19.8974 106.496 21.8941C107.336 19.8799 109.832 19.1356 111.721 19.865C113.113 20.3127 114.108 21.7418 114.125 23.2532C114.148 25.5883 114.128 27.9235 114.135 30.26C113.576 30.26 113.017 30.26 112.459 30.26C112.459 28.3239 112.458 26.3878 112.459 24.4531C112.463 23.5619 112.504 22.5534 111.911 21.8321C111.122 20.9005 109.719 20.825 108.682 21.3104C107.573 21.8227 106.908 23.0819 106.908 24.3196C106.898 26.2988 106.908 28.2794 106.904 30.26C106.343 30.26 105.781 30.26 105.221 30.26C105.219 28.0516 105.224 25.8418 105.219 23.6334C105.219 22.8393 104.987 21.967 104.326 21.4964C103.079 20.5998 101.186 21.0164 100.326 22.2986C99.8532 22.9512 99.6718 23.783 99.6692 24.5893C99.6615 26.4795 99.6692 28.3697 99.6666 30.26C99.107 30.26 98.5487 30.26 97.9903 30.26C97.9903 26.7492 97.9903 23.2383 97.9903 19.7275C98.48 19.7275 98.9697 19.7275 99.4594 19.7275C99.4918 20.3814 99.5332 21.0367 99.5552 21.6906C99.9594 20.949 100.546 20.2938 101.309 19.9513Z" fill="#5DCB42"/>
<path d="M119.199 20.7859C120.11 19.9055 121.389 19.5887 122.604 19.5941C123.871 19.5698 125.184 20.0026 126.079 20.9652C127.204 22.1449 127.462 23.93 127.223 25.5155C124.592 25.5182 121.962 25.5142 119.333 25.5169C119.431 26.52 119.781 27.5541 120.554 28.2066C121.491 29.0344 122.83 29.0937 123.979 28.8228C124.715 28.6515 125.404 28.1702 125.697 27.4246C126.166 27.67 126.636 27.9113 127.104 28.1608C126.555 29.083 125.705 29.8191 124.698 30.1252C123.641 30.442 122.512 30.4636 121.434 30.2667C120.264 30.0483 119.171 29.3499 118.518 28.3077C117.744 27.1024 117.598 25.587 117.716 24.1767C117.816 22.9175 118.277 21.642 119.199 20.7859ZM121.054 21.3602C120.04 21.8497 119.492 22.9822 119.352 24.0904C121.465 24.0931 123.578 24.0931 125.691 24.0904C125.566 23.0819 125.152 22.0357 124.292 21.4789C123.329 20.8722 122.063 20.8857 121.054 21.3602Z" fill="#5DCB42"/>
<path d="M131.966 20.7199C132.873 19.8866 134.115 19.59 135.299 19.5941C136.568 19.5698 137.885 20.0039 138.781 20.9706C139.9 22.1517 140.157 23.9314 139.918 25.5155C137.287 25.5182 134.658 25.5142 132.028 25.5169C132.126 26.52 132.476 27.5541 133.251 28.2066C134.186 29.0331 135.524 29.0938 136.672 28.8241C137.409 28.6529 138.1 28.1716 138.392 27.4247C138.859 27.6673 139.321 27.9141 139.793 28.146C139.221 29.1733 138.236 29.9378 137.123 30.202C136.102 30.4461 135.026 30.4555 134 30.2384C132.817 29.989 131.731 29.23 131.113 28.1433C130.402 26.9204 130.289 25.4279 130.425 24.0365C130.545 22.7908 131.036 21.5436 131.966 20.7199ZM133.503 21.5018C132.63 22.0438 132.185 23.0779 132.047 24.0905C134.16 24.0932 136.273 24.0932 138.386 24.0905C138.259 22.989 137.75 21.8362 136.745 21.3374C135.728 20.856 134.467 20.9127 133.503 21.5018Z" fill="#5DCB42"/>
<path d="M70.6813 19.7275C71.2396 19.7275 71.7979 19.7275 72.3563 19.7275C72.3563 21.7984 72.3563 23.868 72.3563 25.9389C72.3589 26.6224 72.3874 27.3464 72.7177 27.9572C73.0079 28.4992 73.5805 28.812 74.153 28.9077C75.2296 29.0924 76.4201 28.8497 77.2362 28.061C77.9111 27.4287 78.1559 26.4472 78.1598 25.5317C78.1663 23.597 78.1598 21.6623 78.1624 19.7275C78.7233 19.7275 79.2843 19.7275 79.8465 19.7275C79.8465 23.2383 79.8465 26.7492 79.8465 30.26C79.3542 30.2613 78.8619 30.2613 78.371 30.2546C78.3386 29.7274 78.2984 29.2016 78.2751 28.6745C77.7323 29.5373 76.8255 30.0888 75.8591 30.2667C74.4847 30.5283 72.9146 30.4447 71.7928 29.4821C70.9689 28.8066 70.6774 27.6646 70.6826 26.6157C70.6787 24.3196 70.6813 22.0236 70.6813 19.7275Z" fill="#5DCB42"/>
</svg>
