<svg width="92" height="26" viewBox="0 0 92 26" fill="none" xmlns="http://www.w3.org/2000/svg">
<path d="M4.83008 5.44983C5.38423 5.44983 5.93837 5.44983 6.49378 5.44983C6.49126 7.60958 6.4977 9.77059 6.48999 11.9303C6.96178 11.0081 7.80911 10.2971 8.80549 10.0662C10.2365 9.73105 11.8873 10.0265 12.9609 11.1071C13.65 11.7918 13.9188 12.8024 13.9225 13.7629C13.9315 15.9661 13.9238 18.1694 13.9265 20.374C13.3684 20.374 12.8117 20.374 12.255 20.374C12.2511 18.3052 12.2628 16.2366 12.2499 14.1693C12.2332 13.2945 12.0108 12.3117 11.2625 11.7932C10.1864 11.0529 8.65631 11.2429 7.65741 12.0386C6.88726 12.6757 6.51437 13.6995 6.50149 14.6956C6.48229 16.5889 6.50023 18.4808 6.49378 20.374C5.93837 20.374 5.38423 20.374 4.83008 20.374C4.83008 15.3988 4.83008 10.425 4.83008 5.44983Z" fill="#3AA625"/>
<path d="M31.5723 5.44983C32.1264 5.44983 32.6806 5.44983 33.236 5.44983C33.2333 7.60692 33.2398 9.76402 33.2321 11.9224C33.8326 10.8683 34.9099 10.1149 36.0953 9.97244C37.2678 9.84979 38.5241 10.0529 39.4986 10.7706C40.4423 11.4527 41.0555 12.5465 41.2689 13.7009C41.4734 14.8105 41.463 15.97 41.1944 17.0665C40.9205 18.1892 40.239 19.2143 39.2735 19.8225C38.3324 20.4201 37.183 20.5732 36.0966 20.4716C34.9022 20.3503 33.7373 19.6893 33.1241 18.61C33.1022 19.1984 33.0624 19.7855 33.0302 20.374C32.543 20.374 32.0582 20.374 31.5723 20.374C31.5723 15.3988 31.5723 10.425 31.5723 5.44983ZM35.4782 11.4726C34.3004 11.7985 33.4905 12.9488 33.3157 14.1534C33.1486 15.3896 33.1896 16.767 33.9186 17.8211C35.0475 19.5296 37.8811 19.5573 39.0241 17.8515C39.6838 16.9107 39.8149 15.6918 39.7094 14.5663C39.6195 13.5861 39.2208 12.5926 38.4533 11.9713C37.6241 11.3049 36.4721 11.1981 35.4782 11.4726Z" fill="#3AA625"/>
<path d="M48.4941 10.2874C50.3353 9.39815 52.8218 10.2346 53.6421 12.1886C54.4752 10.2174 56.9527 9.48923 58.8273 10.203C60.2094 10.641 61.1968 12.0394 61.2135 13.5184C61.2367 15.8035 61.2162 18.0886 61.2239 20.375C60.6685 20.375 60.1143 20.375 59.5602 20.375C59.5602 18.4804 59.5589 16.5859 59.5602 14.6927C59.5641 13.8206 59.6051 12.8337 59.0164 12.1278C58.2333 11.2162 56.841 11.1423 55.8111 11.6173C54.7105 12.1186 54.051 13.3508 54.051 14.5621C54.0407 16.4987 54.0509 18.4368 54.0471 20.375C53.4904 20.375 52.9324 20.375 52.377 20.375C52.3744 18.2139 52.3796 16.0516 52.3744 13.8904C52.3744 13.1134 52.1443 12.2598 51.4886 11.7994C50.2504 10.922 48.372 11.3296 47.5183 12.5843C47.0491 13.2229 46.8691 14.037 46.8664 14.8259C46.8587 16.6756 46.8664 18.5252 46.8639 20.375C46.3085 20.375 45.7543 20.375 45.2002 20.375C45.2002 16.9395 45.2002 13.5039 45.2002 10.0684C45.6863 10.0684 46.1722 10.0684 46.6583 10.0684C46.6903 10.7083 46.7315 11.3495 46.7534 11.9894C47.1544 11.2637 47.7369 10.6225 48.4941 10.2874Z" fill="#3AA625"/>
<path d="M66.2501 11.1023C67.154 10.2408 68.423 9.9307 69.6289 9.936C70.8864 9.91226 72.1901 10.3358 73.0785 11.2777C74.1945 12.4321 74.4499 14.179 74.2138 15.7305C71.6025 15.7331 68.9926 15.7291 66.3826 15.7318C66.4803 16.7134 66.8275 17.7253 67.595 18.3638C68.5246 19.1739 69.8539 19.232 70.9944 18.9668C71.7246 18.7992 72.4086 18.3282 72.6992 17.5987C73.1646 17.8387 73.6314 18.0749 74.0955 18.319C73.5503 19.2214 72.707 19.9417 71.708 20.2412C70.6588 20.5513 69.5377 20.5724 68.468 20.3798C67.307 20.1661 66.2218 19.4826 65.5738 18.4628C64.8063 17.2833 64.6611 15.8005 64.778 14.4203C64.8771 13.1881 65.3347 11.9401 66.2501 11.1023ZM68.0913 11.6644C67.0846 12.1432 66.5408 13.2515 66.4018 14.336C68.4988 14.3386 70.5958 14.3386 72.6927 14.336C72.5693 13.3491 72.1579 12.3253 71.3043 11.7805C70.3489 11.1868 69.0929 11.1999 68.0913 11.6644Z" fill="#3AA625"/>
<path d="M78.92 11.0377C79.8206 10.2224 81.0535 9.93208 82.2282 9.936C83.4888 9.91225 84.7949 10.3372 85.6842 11.283C86.7958 12.4388 87.0497 14.1803 86.8135 15.7305C84.2025 15.7331 81.5916 15.7292 78.9819 15.7319C79.0804 16.7133 79.4265 17.7253 80.1958 18.3639C81.1242 19.1726 82.4518 19.232 83.5912 18.9681C84.3225 18.8006 85.0084 18.3296 85.2989 17.5987C85.7613 17.8362 86.221 18.0776 86.6884 18.3045C86.1213 19.3098 85.1436 20.0579 84.0383 20.3165C83.0253 20.5552 81.9579 20.5645 80.9385 20.3521C79.7651 20.108 78.6876 19.3652 78.0749 18.3019C77.3688 17.1052 77.2564 15.6447 77.3916 14.2832C77.5103 13.0642 77.9979 11.8437 78.92 11.0377ZM80.4472 11.8029C79.5806 12.3332 79.1373 13.3451 79.0021 14.336C81.0989 14.3386 83.1958 14.3386 85.2926 14.336C85.1663 13.2581 84.6611 12.1301 83.6632 11.6419C82.6539 11.171 81.4034 11.2263 80.4472 11.8029Z" fill="#3AA625"/>
<path d="M18.0975 10.0682C18.6517 10.0682 19.2058 10.0682 19.7599 10.0682C19.7599 12.0947 19.7599 14.1199 19.7599 16.1464C19.7625 16.8153 19.7908 17.5238 20.1186 18.1214C20.4066 18.6518 20.9749 18.9578 21.5431 19.0516C22.6115 19.2323 23.7931 18.9948 24.6031 18.2229C25.273 17.6042 25.5159 16.6437 25.5198 15.7479C25.5263 13.8547 25.5198 11.9615 25.5223 10.0682C26.0791 10.0682 26.6358 10.0682 27.1938 10.0682C27.1938 13.5038 27.1938 16.9393 27.1938 20.3748C26.7053 20.3761 26.2167 20.3761 25.7294 20.3695C25.6973 19.8537 25.6574 19.3392 25.6343 18.8233C25.0955 19.6676 24.1955 20.2072 23.2364 20.3814C21.8723 20.6373 20.3141 20.5556 19.2006 19.6135C18.383 18.9525 18.0936 17.8351 18.0988 16.8087C18.095 14.5619 18.0975 12.315 18.0975 10.0682Z" fill="#3AA625"/>
</svg>
