<svg width="20" height="19" viewBox="0 0 20 19" fill="none" xmlns="http://www.w3.org/2000/svg">
<path d="M0.5 1C0.5 0.723858 0.723858 0.5 1 0.5H3.78873C4.06487 0.5 4.28873 0.723858 4.28873 1V3.47059C4.28873 3.74673 4.06487 3.97059 3.78873 3.97059H1C0.723858 3.97059 0.5 3.74673 0.5 3.47059V1ZM0.5 8.26471C0.5 7.98856 0.723858 7.76471 1 7.76471H3.78873C4.06487 7.76471 4.28873 7.98856 4.28873 8.26471V10.7353C4.28873 11.0114 4.06487 11.2353 3.78873 11.2353H1C0.723858 11.2353 0.5 11.0114 0.5 10.7353V8.26471ZM0.5 15.5294C0.5 15.2533 0.723858 15.0294 1 15.0294H3.78873C4.06487 15.0294 4.28873 15.2533 4.28873 15.5294V18C4.28873 18.2761 4.06487 18.5 3.78873 18.5H1C0.723858 18.5 0.5 18.2761 0.5 18V15.5294ZM8.10563 1C8.10563 0.723858 8.32949 0.5 8.60563 0.5H11.3944C11.6705 0.5 11.8944 0.723858 11.8944 1V3.47059C11.8944 3.74673 11.6705 3.97059 11.3944 3.97059H8.60564C8.32949 3.97059 8.10563 3.74673 8.10563 3.47059V1ZM8.10563 8.26471C8.10563 7.98856 8.32949 7.76471 8.60563 7.76471H11.3944C11.6705 7.76471 11.8944 7.98856 11.8944 8.26471V10.7353C11.8944 11.0114 11.6705 11.2353 11.3944 11.2353H8.60564C8.32949 11.2353 8.10563 11.0114 8.10563 10.7353V8.26471ZM8.10563 15.5294C8.10563 15.2533 8.32949 15.0294 8.60563 15.0294H11.3944C11.6705 15.0294 11.8944 15.2533 11.8944 15.5294V18C11.8944 18.2761 11.6705 18.5 11.3944 18.5H8.60564C8.32949 18.5 8.10563 18.2761 8.10563 18V15.5294ZM15.7113 1C15.7113 0.723857 15.9351 0.5 16.2113 0.5H19C19.2761 0.5 19.5 0.723858 19.5 1V3.47059C19.5 3.74673 19.2761 3.97059 19 3.97059H16.2113C15.9351 3.97059 15.7113 3.74673 15.7113 3.47059V1ZM15.7113 8.26471C15.7113 7.98856 15.9351 7.76471 16.2113 7.76471H19C19.2761 7.76471 19.5 7.98856 19.5 8.26471V10.7353C19.5 11.0114 19.2761 11.2353 19 11.2353H16.2113C15.9351 11.2353 15.7113 11.0114 15.7113 10.7353V8.26471ZM15.7113 15.5294C15.7113 15.2533 15.9351 15.0294 16.2113 15.0294H19C19.2761 15.0294 19.5 15.2533 19.5 15.5294V18C19.5 18.2761 19.2761 18.5 19 18.5H16.2113C15.9351 18.5 15.7113 18.2761 15.7113 18V15.5294Z" stroke="#4D4D4D"/>
</svg>
