<svg width="22" height="18" viewBox="0 0 22 18" fill="none" xmlns="http://www.w3.org/2000/svg">
<path fill-rule="evenodd" clip-rule="evenodd" d="M1.00576 1.04208C1.58921 0.441954 2.38603 0.0999756 3.2224 0.0999756H18.778C19.6143 0.0999756 20.4112 0.441955 20.9946 1.04208C21.5772 1.64133 21.9002 2.44884 21.9002 3.28569V4.41545C21.9003 4.42365 21.9003 4.43184 21.9002 4.44003V14.7143C21.9002 15.5511 21.5772 16.3586 20.9946 16.9579C20.4112 17.558 19.6143 17.9 18.778 17.9H3.2224C2.38603 17.9 1.58921 17.558 1.00576 16.9579C0.423148 16.3586 0.100183 15.5511 0.100183 14.7143V4.44012C0.100069 4.43187 0.100069 4.42362 0.100183 4.41536V3.28569C0.100183 2.44884 0.423148 1.64133 1.00576 1.04208ZM1.90018 6.13696V14.7143C1.90018 15.0898 2.04547 15.4451 2.29635 15.7031C2.5464 15.9603 2.88004 16.1 3.2224 16.1H18.778C19.1203 16.1 19.454 15.9603 19.704 15.7031C19.9549 15.4451 20.1002 15.0898 20.1002 14.7143V6.13696L12.7428 11.182C12.2291 11.5345 11.6227 11.7243 11.0002 11.7243C10.3777 11.7243 9.77126 11.5345 9.2576 11.182L1.90018 6.13696ZM20.1002 3.95442L11.7245 9.69772L11.7243 9.69791C11.5076 9.84662 11.2557 9.92432 11.0002 9.92432C10.7447 9.92432 10.4928 9.84662 10.2761 9.69791L10.2758 9.69772L1.90018 3.95442V3.28569C1.90018 2.91012 2.04547 2.55487 2.29635 2.29682C2.5464 2.03963 2.88004 1.89998 3.2224 1.89998H18.778C19.1203 1.89998 19.454 2.03963 19.704 2.29682C19.9549 2.55487 20.1002 2.91012 20.1002 3.28569V3.95442Z" fill="#5A6384"/>
</svg>
