<svg width="16" height="16" viewBox="0 0 16 16" fill="none" xmlns="http://www.w3.org/2000/svg">
<g id="24 / Map 2">
<path id="Vector (Stroke)" fill-rule="evenodd" clip-rule="evenodd" d="M10.1488 1.7741C8.80608 1.7741 7.75724 2.79451 7.75724 4.00615C7.75724 4.63755 8.07526 5.57932 8.59228 6.37452C8.84642 6.76541 9.13067 7.09225 9.41554 7.31559C9.70374 7.54155 9.95212 7.63111 10.1488 7.63111C10.3456 7.63111 10.594 7.54155 10.8822 7.31559C11.167 7.09225 11.4513 6.76541 11.7054 6.37452C12.2224 5.57932 12.5405 4.63755 12.5405 4.00615C12.5405 2.79451 11.4916 1.7741 10.1488 1.7741ZM6.6677 3.50844C6.92197 1.88506 8.40141 0.666504 10.1488 0.666504C12.0708 0.666504 13.6686 2.14062 13.6686 4.00615C13.6686 4.01386 13.6685 4.02159 13.6685 4.02934C14.3605 3.9861 15.0665 4.47259 15.0665 5.26646V11.5664C15.0665 12.1069 14.8254 12.6391 14.3634 12.982C13.9739 13.2712 13.3845 13.6804 12.726 14.037C12.0779 14.3881 11.3135 14.7158 10.5836 14.796C9.25665 14.9418 8.31798 14.24 7.57382 13.6837C7.55745 13.6714 7.54118 13.6593 7.525 13.6472C6.7235 13.0485 6.12071 12.6246 5.27487 12.7176C4.48655 12.8042 3.49601 13.3337 2.69734 13.8606C1.893 14.3913 0.666504 13.879 0.666504 12.8326V6.53273C0.666504 5.99221 0.907613 5.46001 1.36958 5.11706C1.75913 4.82787 2.34854 4.41873 3.00696 4.06209C3.65512 3.71102 4.41948 3.38331 5.14938 3.3031C5.72561 3.23977 6.22558 3.33528 6.6677 3.50844ZM6.71295 4.76814C6.40474 4.58462 6.10304 4.45679 5.77618 4.41041V11.6095C6.78123 11.6989 7.53798 12.2647 8.15919 12.7292C8.17556 12.7414 8.19183 12.7536 8.20801 12.7657C8.84242 13.2395 9.35233 13.6039 9.95683 13.6891V8.7287C9.4907 8.68017 9.0678 8.46037 8.7116 8.1811C8.30373 7.86132 7.94143 7.43196 7.64139 6.97048C7.20655 6.30168 6.86388 5.50415 6.71295 4.76814ZM11.0849 8.50278V13.5527C11.4359 13.4386 11.8094 13.2685 12.1811 13.0672C12.7753 12.7453 13.3175 12.3699 13.683 12.0986C13.8406 11.9816 13.9384 11.7884 13.9384 11.5664V5.26646C13.9384 5.23153 13.9211 5.18715 13.8526 5.15386C13.7811 5.11916 13.7113 5.12712 13.6649 5.15777C13.5943 5.20436 13.5214 5.25156 13.4465 5.29901C13.2663 5.87477 12.9881 6.4601 12.6563 6.97048C12.3563 7.43196 11.994 7.86132 11.5861 8.1811C11.431 8.30267 11.2633 8.41297 11.0849 8.50278ZM4.64807 11.7074V4.54638C4.29712 4.66051 3.9236 4.83056 3.55189 5.0319C2.95768 5.35375 2.41547 5.7292 2.04997 6.00054C1.89244 6.11748 1.79461 6.31072 1.79461 6.53273V12.8326C1.79461 12.8676 1.81191 12.912 1.88045 12.9452C1.95191 12.9799 2.02167 12.972 2.06813 12.9413C2.75182 12.4902 3.711 11.9379 4.64807 11.7074ZM10.1488 3.51526C9.97066 3.51526 9.82621 3.65708 9.82621 3.83203C9.82621 4.00698 9.97066 4.14881 10.1488 4.14881C10.327 4.14881 10.4715 4.00698 10.4715 3.83203C10.4715 3.65708 10.327 3.51526 10.1488 3.51526ZM8.6981 3.83203C8.6981 3.04537 9.34762 2.40766 10.1488 2.40766C10.9501 2.40766 11.5996 3.04537 11.5996 3.83203C11.5996 4.61869 10.9501 5.25641 10.1488 5.25641C9.34762 5.25641 8.6981 4.61869 8.6981 3.83203Z" fill="#787F9D"/>
</g>
</svg>
