<svg width="432" height="240" viewBox="0 0 432 240" fill="none" xmlns="http://www.w3.org/2000/svg">
<g clip-path="url(#clip0_5406_271678)">
<path d="M381.063 175.278H364.419C361.736 174.303 359.39 172.576 357.661 170.303C355.932 168.031 354.894 165.309 354.67 162.463C354.445 159.616 355.045 156.766 356.396 154.251C357.748 151.736 359.794 149.662 362.292 148.278H406.668C410.381 148.278 413.942 146.803 416.567 144.178C419.193 141.552 420.668 137.991 420.668 134.278C420.668 130.565 419.193 127.004 416.567 124.379C413.942 121.753 410.381 120.278 406.668 120.278H362.764C366.209 119.921 369.398 118.299 371.717 115.727C374.035 113.155 375.318 109.816 375.319 106.353V104.353C375.319 100.64 373.844 97.0789 371.218 94.4534C368.593 91.8279 365.032 90.3529 361.319 90.3529H242.859C245.736 88.6782 247.981 86.1019 249.246 83.0228C250.512 79.9437 250.727 76.5335 249.858 73.3199C248.99 70.1062 247.087 67.2684 244.443 65.2455C241.799 63.2226 238.562 62.1274 235.233 62.1295H125.212C121.883 62.1274 118.647 63.2226 116.003 65.2455C113.359 67.2684 111.456 70.1062 110.588 73.3199C109.719 76.5335 109.934 79.9437 111.199 83.0228C112.465 86.1019 114.709 88.6782 117.586 90.3529H44.5952C40.8822 90.3529 37.3212 91.8279 34.6957 94.4534C32.0702 97.0789 30.5952 100.64 30.5952 104.353V106.353C30.5952 110.066 32.0702 113.627 34.6957 116.252C37.3212 118.878 40.8822 120.353 44.5952 120.353H97.7026C100.64 121.335 103.204 123.199 105.043 125.691C106.883 128.183 107.909 131.182 107.982 134.278C107.937 136.986 107.151 139.63 105.708 141.922C104.266 144.214 102.223 146.066 99.8011 147.278H13.9995C10.2865 147.278 6.72552 148.753 4.10001 151.379C1.4745 154.004 -0.000488281 157.565 -0.000488281 161.278C-0.000488281 164.991 1.4745 168.552 4.10001 171.178C6.72552 173.803 10.2865 175.278 13.9995 175.278H92.0208C88.3077 175.278 84.7468 176.753 82.1213 179.379C79.4957 182.004 78.0208 185.565 78.0208 189.278C78.0208 192.991 79.4957 196.552 82.1213 199.178C84.7468 201.803 88.3077 203.278 92.0208 203.278H381.063C384.776 203.278 388.337 201.803 390.963 199.178C393.588 196.552 395.063 192.991 395.063 189.278C395.063 185.565 393.588 182.004 390.963 179.379C388.337 176.753 384.776 175.278 381.063 175.278Z" fill="#EFF6FF" stroke="#EFF6FF" stroke-linejoin="round"/>
<path d="M416.981 203.614C424.596 203.614 430.77 197.44 430.77 189.825C430.77 182.21 424.596 176.037 416.981 176.037C409.366 176.037 403.193 182.21 403.193 189.825C403.193 197.44 409.366 203.614 416.981 203.614Z" fill="#EFF6FF" stroke="#EFF6FF" stroke-linejoin="round"/>
<path d="M307.322 123.363L324.854 140.895" stroke="#61A5FA" stroke-width="2.5" stroke-linecap="round" stroke-linejoin="round"/>
<path d="M324.854 123.363L307.322 140.895" stroke="#61A5FA" stroke-width="2.5" stroke-linecap="round" stroke-linejoin="round"/>
<path d="M160.254 50C163.568 50 166.254 47.3137 166.254 44C166.254 40.6863 163.568 38 160.254 38C156.94 38 154.254 40.6863 154.254 44C154.254 47.3137 156.94 50 160.254 50Z" stroke="#61A5FA" stroke-width="2" stroke-miterlimit="10"/>
<path d="M114.894 89.9735L128.894 103.974" stroke="#61A5FA" stroke-width="2.5" stroke-linecap="round" stroke-linejoin="round"/>
<path d="M128.894 89.9735L114.894 103.974" stroke="#61A5FA" stroke-width="2.5" stroke-linecap="round" stroke-linejoin="round"/>
<path d="M340.255 113.791C342.794 113.791 344.851 111.734 344.851 109.196C344.851 106.658 342.794 104.6 340.255 104.6C337.717 104.6 335.66 106.658 335.66 109.196C335.66 111.734 337.717 113.791 340.255 113.791Z" fill="#61A5FA"/>
<path d="M102.554 77.2852C105.092 77.2852 107.149 75.2276 107.149 72.6895C107.149 70.1513 105.092 68.0938 102.554 68.0938C100.016 68.0938 97.958 70.1513 97.958 72.6895C97.958 75.2276 100.016 77.2852 102.554 77.2852Z" fill="#61A5FA"/>
<path d="M147.385 76.7805H283.385" stroke="#3B82F6" stroke-width="2" stroke-linecap="round" stroke-linejoin="round"/>
<path d="M147.385 132.872H283.385" stroke="#3B82F6" stroke-width="2" stroke-linecap="round" stroke-linejoin="round"/>
<path d="M147.385 184.872H283.385" stroke="#3B82F6" stroke-width="2" stroke-linecap="round" stroke-linejoin="round"/>
<path d="M215.384 165.808C233.575 165.808 248.321 151.062 248.321 132.871C248.321 114.681 233.575 99.9353 215.384 99.9353C197.194 99.9353 182.448 114.681 182.448 132.871C182.448 151.062 197.194 165.808 215.384 165.808Z" fill="#FCFCFD" stroke="#3B82F6" stroke-width="2.5" stroke-miterlimit="10"/>
<path d="M236.757 132.606C229.767 132.605 223.055 129.863 218.064 124.968C213.072 120.074 210.199 113.417 210.061 106.428C205.108 107.435 200.541 109.827 196.893 113.326C193.245 116.825 190.665 121.288 189.452 126.195C188.239 131.102 188.443 136.253 190.041 141.049C191.64 145.844 194.566 150.088 198.48 153.287C202.394 156.486 207.136 158.508 212.154 159.119C217.172 159.73 222.26 158.905 226.827 156.739C231.395 154.573 235.254 151.156 237.956 146.884C240.659 142.612 242.094 137.661 242.094 132.606C242.094 132.427 242.084 132.251 242.08 132.074C240.328 132.428 238.545 132.606 236.757 132.606Z" fill="#EFF6FF"/>
<path d="M208.892 126.467C208.89 127.991 208.282 129.451 207.204 130.528C206.125 131.604 204.663 132.209 203.14 132.209C201.616 132.209 200.154 131.604 199.075 130.528C197.997 129.451 197.39 127.991 197.387 126.467" stroke="#3B82F6" stroke-width="2.5" stroke-linecap="round" stroke-linejoin="round"/>
<path d="M230.283 126.467C230.283 127.993 229.677 129.456 228.598 130.535C227.519 131.614 226.056 132.22 224.53 132.22C223.004 132.22 221.541 131.614 220.462 130.535C219.383 129.456 218.777 127.993 218.777 126.467" stroke="#3B82F6" stroke-width="2.5" stroke-linecap="round" stroke-linejoin="round"/>
<path d="M205.494 140.185H217.411" stroke="#3B82F6" stroke-width="2.5" stroke-linecap="round" stroke-linejoin="round"/>
<path d="M275.947 92.4283C284.589 92.4283 291.594 85.4226 291.594 76.7806C291.594 68.1386 284.589 61.1328 275.947 61.1328C267.305 61.1328 260.299 68.1386 260.299 76.7806C260.299 85.4226 267.305 92.4283 275.947 92.4283Z" fill="#FCFCFD" stroke="#3B82F6" stroke-width="2.5" stroke-miterlimit="10"/>
<path d="M163.033 200.519C171.675 200.519 178.68 193.514 178.68 184.872C178.68 176.23 171.675 169.224 163.033 169.224C154.391 169.224 147.385 176.23 147.385 184.872C147.385 193.514 154.391 200.519 163.033 200.519Z" fill="#FCFCFD" stroke="#3B82F6" stroke-width="2.5" stroke-miterlimit="10"/>
</g>
<defs>
<clipPath id="clip0_5406_271678">
<rect width="432" height="240" fill="white"/>
</clipPath>
</defs>
</svg>
