<svg width="20" height="20" viewBox="0 0 20 20" fill="none" xmlns="http://www.w3.org/2000/svg">
<path fill-rule="evenodd" clip-rule="evenodd" d="M4.56058 5.17575C4.80661 2.70281 6.92383 1 9.36671 1H10.6338C13.0767 1 15.1939 2.70281 15.4399 5.17575L15.4403 5.17969L15.8636 9.67575C15.8637 9.67642 15.8638 9.67709 15.8638 9.67776C16.0029 11.0707 16.6043 12.477 17.554 13.4859C18.0729 14.0373 18.0774 14.801 17.8761 15.3479C17.6741 15.8963 17.1561 16.5 16.3412 16.5H12.9588C12.7207 17.9189 11.4868 19 10.0003 19C8.51376 19 7.27977 17.9189 7.04174 16.5H3.65931C2.84442 16.5 2.32635 15.8963 2.12441 15.3479C1.92305 14.801 1.92756 14.0373 2.44654 13.4859C3.39627 12.477 3.99767 11.0707 4.13668 9.67767L4.56058 5.17575ZM16.3412 15C16.345 15 16.346 14.9996 16.3472 14.9991C16.3493 14.9983 16.3575 14.9948 16.3704 14.9838C16.3989 14.9597 16.4392 14.909 16.4685 14.8296C16.4975 14.7508 16.5053 14.6712 16.4973 14.6092C16.4897 14.5498 16.471 14.5239 16.4617 14.5141C15.2658 13.2436 14.5396 11.5187 14.371 9.82425L14.3706 9.82031L13.9473 5.32425C13.9472 5.3236 13.9472 5.32295 13.9471 5.3223C13.7845 3.69827 12.389 2.5 10.6338 2.5H9.36671C7.61144 2.5 6.21596 3.69831 6.0534 5.32238C6.05334 5.323 6.05327 5.32363 6.05321 5.32425L5.62952 9.82425C5.46094 11.5187 4.73472 13.2436 3.53876 14.5141C3.52951 14.5239 3.51079 14.5498 3.50319 14.6092C3.49524 14.6712 3.50301 14.7508 3.53202 14.8296C3.56128 14.909 3.60158 14.9597 3.63007 14.9838C3.64303 14.9948 3.65108 14.9983 3.6532 14.9991C3.65445 14.9996 3.65542 15 3.65931 15H16.3412ZM8.58561 16.5C8.79153 17.0826 9.34715 17.5 10.0003 17.5C10.6534 17.5 11.209 17.0826 11.4149 16.5H8.58561Z" fill="#232944"/>
</svg>
