<svg width="20" height="20" viewBox="0 0 20 20" fill="none" xmlns="http://www.w3.org/2000/svg">
<path fill-rule="evenodd" clip-rule="evenodd" d="M3.026 5.596C3.086 5.656 3.156 5.686 3.236 5.686C3.324 5.686 3.398 5.656 3.458 5.596C3.518 5.536 3.548 5.464 3.548 5.38V1.312C3.548 1.22 3.52 1.146 3.464 1.09C3.412 1.03 3.34 1 3.248 1C3.232 1 3.214 1.002 3.194 1.006C3.174 1.01 3.154 1.016 3.134 1.024L2.198 1.36C2.13 1.384 2.08 1.422 2.048 1.474C2.016 1.526 2 1.584 2 1.648C2 1.736 2.028 1.808 2.084 1.864C2.144 1.92 2.218 1.948 2.306 1.948C2.366 1.948 2.43 1.934 2.498 1.906L2.936 1.72V5.38C2.936 5.464 2.966 5.536 3.026 5.596ZM2.084 12.2502C2.144 12.3102 2.218 12.3402 2.306 12.3402H4.526C4.614 12.3402 4.688 12.3102 4.748 12.2502C4.808 12.1902 4.838 12.1182 4.838 12.0342C4.838 11.9542 4.808 11.8842 4.748 11.8242C4.688 11.7602 4.614 11.7282 4.526 11.7282H2.846L4.22 10.1682C4.304 10.0722 4.386 9.96417 4.466 9.84418C4.55 9.72417 4.618 9.59818 4.67 9.46618C4.726 9.33418 4.754 9.20417 4.754 9.07617C4.754 8.78417 4.698 8.53218 4.586 8.32017C4.478 8.10817 4.324 7.94417 4.124 7.82817C3.924 7.71217 3.688 7.65417 3.416 7.65417C3.148 7.65417 2.906 7.71617 2.69 7.84017C2.478 7.96417 2.31 8.13417 2.186 8.35017C2.062 8.56217 2 8.80417 2 9.07617C2 9.15617 2.03 9.22618 2.09 9.28617C2.15 9.34617 2.222 9.37617 2.306 9.37617C2.394 9.37617 2.466 9.34617 2.522 9.28617C2.582 9.22618 2.612 9.15617 2.612 9.07617C2.612 8.92017 2.646 8.77817 2.714 8.65017C2.786 8.51817 2.882 8.41418 3.002 8.33817C3.126 8.25817 3.264 8.21817 3.416 8.21817C3.572 8.21817 3.706 8.25417 3.818 8.32617C3.93 8.39417 4.016 8.49217 4.076 8.62017C4.136 8.74817 4.166 8.90017 4.166 9.07617C4.166 9.18818 4.132 9.30618 4.064 9.43017C4 9.55417 3.908 9.68617 3.788 9.82617L2.084 11.8182C2.028 11.8742 2 11.9462 2 12.0342C2 12.1182 2.028 12.1902 2.084 12.2502ZM3.542 19.0003C3.242 19.0003 2.976 18.9384 2.744 18.8144C2.512 18.6863 2.33 18.5143 2.198 18.2983C2.066 18.0784 2 17.8323 2 17.5603C2 17.4683 2.026 17.3944 2.078 17.3384C2.134 17.2783 2.2 17.2484 2.276 17.2484C2.356 17.2484 2.422 17.2783 2.474 17.3384C2.526 17.3944 2.552 17.4683 2.552 17.5603C2.552 17.7243 2.594 17.8763 2.678 18.0163C2.762 18.1523 2.876 18.2624 3.02 18.3463C3.164 18.4263 3.326 18.4664 3.506 18.4664C3.77 18.4664 3.982 18.3944 4.142 18.2503C4.306 18.1024 4.388 17.8963 4.388 17.6323C4.388 17.4643 4.352 17.3144 4.28 17.1824C4.208 17.0463 4.11 16.9383 3.986 16.8583C3.862 16.7783 3.722 16.7383 3.566 16.7383C3.478 16.7383 3.404 16.7083 3.344 16.6483C3.288 16.5883 3.26 16.5143 3.26 16.4263C3.26 16.3383 3.288 16.2663 3.344 16.2104C3.404 16.1503 3.478 16.1203 3.566 16.1203C3.678 16.1203 3.786 16.0924 3.89 16.0363C3.994 15.9763 4.08 15.8983 4.148 15.8024C4.216 15.7023 4.25 15.5903 4.25 15.4663C4.25 15.2903 4.186 15.1423 4.058 15.0223C3.93 14.9023 3.766 14.8424 3.566 14.8424C3.414 14.8424 3.274 14.8723 3.146 14.9323C3.022 14.9923 2.922 15.0723 2.846 15.1723C2.774 15.2723 2.738 15.3843 2.738 15.5083C2.738 15.6003 2.712 15.6783 2.66 15.7423C2.608 15.8023 2.542 15.8323 2.462 15.8323C2.386 15.8323 2.32 15.8043 2.264 15.7484C2.212 15.6883 2.186 15.6143 2.186 15.5264C2.186 15.2943 2.246 15.0863 2.366 14.9023C2.486 14.7183 2.65 14.5743 2.858 14.4703C3.066 14.3623 3.298 14.3083 3.554 14.3083C3.79 14.3083 4.002 14.3603 4.19 14.4643C4.382 14.5643 4.532 14.7023 4.64 14.8783C4.752 15.0503 4.808 15.2463 4.808 15.4663C4.808 15.6223 4.772 15.7603 4.7 15.8804C4.632 16.0003 4.544 16.1043 4.436 16.1923C4.328 16.2764 4.214 16.3463 4.094 16.4023C4.306 16.4743 4.478 16.5723 4.61 16.6964C4.742 16.8163 4.838 16.9563 4.898 17.1164C4.962 17.2764 4.994 17.4503 4.994 17.6383C4.994 17.8983 4.928 18.1323 4.796 18.3403C4.664 18.5443 4.488 18.7064 4.268 18.8263C4.048 18.9424 3.806 19.0003 3.542 19.0003ZM7.75 2.59302C7.33579 2.59302 7 2.9288 7 3.34302C7 3.75723 7.33579 4.09302 7.75 4.09302H18.25C18.6642 4.09302 19 3.75723 19 3.34302C19 2.9288 18.6642 2.59302 18.25 2.59302H7.75ZM7 9.99719C7 9.58298 7.33579 9.24719 7.75 9.24719H18.25C18.6642 9.24719 19 9.58298 19 9.99719C19 10.4114 18.6642 10.7472 18.25 10.7472H7.75C7.33579 10.7472 7 10.4114 7 9.99719ZM7.75 15.9044C7.33579 15.9044 7 16.2401 7 16.6544C7 17.0686 7.33579 17.4044 7.75 17.4044H18.25C18.6642 17.4044 19 17.0686 19 16.6544C19 16.2401 18.6642 15.9044 18.25 15.9044H7.75Z" fill="#575D7A"/>
</svg>
