<svg width="16" height="16" viewBox="0 0 16 16" fill="none" xmlns="http://www.w3.org/2000/svg">
<g id="24 / Open eye">
<path id="Icon" fill-rule="evenodd" clip-rule="evenodd" d="M4.35738 5.4058C3.31135 6.28382 2.4875 7.33056 2.02366 7.98242C1.94811 8.08859 1.91265 8.13926 1.8889 8.17952C1.87407 8.20467 1.87126 8.21352 1.8697 8.21955C1.86951 8.22061 1.86894 8.22395 1.86832 8.2297C1.86726 8.23956 1.8665 8.25228 1.8665 8.2665C1.8665 8.28072 1.86726 8.29345 1.86832 8.30331C1.86894 8.30905 1.86951 8.3124 1.8697 8.31346C1.87126 8.31949 1.87407 8.32833 1.8889 8.35349C1.91265 8.39375 1.94811 8.44442 2.02366 8.55059C2.4875 9.20245 3.31135 10.2492 4.35738 11.1272C5.41267 12.013 6.62164 12.6665 7.8665 12.6665C9.11137 12.6665 10.3203 12.013 11.3756 11.1272C12.4217 10.2492 13.2455 9.20245 13.7093 8.55059C13.7849 8.44442 13.8204 8.39375 13.8441 8.35348C13.8589 8.32833 13.8618 8.31949 13.8633 8.31346C13.8635 8.31239 13.8641 8.30905 13.8647 8.30331C13.8657 8.29345 13.8665 8.28072 13.8665 8.2665C13.8665 8.25228 13.8657 8.23956 13.8647 8.2297C13.8641 8.22396 13.8635 8.22061 13.8633 8.21955C13.8618 8.21352 13.8589 8.20468 13.8441 8.17952C13.8204 8.13926 13.7849 8.08859 13.7093 7.98242C13.2455 7.33056 12.4217 6.28382 11.3756 5.4058C10.3203 4.51999 9.11137 3.8665 7.8665 3.8665C6.62164 3.8665 5.41267 4.51999 4.35738 5.4058ZM3.58587 4.48668C4.73197 3.52465 6.21041 2.6665 7.8665 2.6665C9.5226 2.6665 11.001 3.52465 12.1471 4.48668C13.3025 5.45648 14.194 6.59377 14.6871 7.28669C14.6952 7.29807 14.7034 7.30952 14.7116 7.32106C14.8301 7.48678 14.9623 7.67166 15.027 7.92644C15.0797 8.13423 15.0797 8.39878 15.027 8.60657C14.9623 8.86135 14.8301 9.04623 14.7116 9.21195C14.7034 9.22349 14.6952 9.23494 14.6871 9.24631C14.194 9.93924 13.3025 11.0765 12.1471 12.0463C11.001 13.0084 9.5226 13.8665 7.8665 13.8665C6.21041 13.8665 4.73197 13.0084 3.58587 12.0463C2.43051 11.0765 1.53899 9.93924 1.04592 9.24631C1.03783 9.23494 1.02964 9.22349 1.02139 9.21195C0.90289 9.04623 0.770691 8.86135 0.706045 8.60657C0.653323 8.39878 0.653323 8.13423 0.706045 7.92644C0.770691 7.67166 0.90289 7.48678 1.02139 7.32106C1.02964 7.30952 1.03783 7.29807 1.04592 7.28669C1.53899 6.59377 2.43051 5.45648 3.58587 4.48668ZM7.8665 7.0665C7.20376 7.0665 6.6665 7.60376 6.6665 8.2665C6.6665 8.92925 7.20376 9.4665 7.8665 9.4665C8.52925 9.4665 9.0665 8.92925 9.0665 8.2665C9.0665 7.60376 8.52925 7.0665 7.8665 7.0665ZM5.4665 8.2665C5.4665 6.94102 6.54102 5.8665 7.8665 5.8665C9.19199 5.8665 10.2665 6.94102 10.2665 8.2665C10.2665 9.59199 9.19199 10.6665 7.8665 10.6665C6.54102 10.6665 5.4665 9.59199 5.4665 8.2665Z" fill="#787F9D"/>
</g>
</svg>
