<svg width="10" height="10" viewBox="0 0 10 10" fill="none" xmlns="http://www.w3.org/2000/svg">
<circle cx="5" cy="5" r="5" fill="white"/>
<path d="M2.83694 6.5C2.7388 6.5 2.65516 6.42879 2.6395 6.33191L2.10066 2.99786C2.06952 2.80515 2.30463 2.68655 2.4411 2.82613L3.64005 4.05232C3.73528 4.14972 3.89789 4.12549 3.9606 4.00456L4.82245 2.34242C4.89707 2.1985 5.10293 2.1985 5.17755 2.34242L6.0394 4.00456C6.10211 4.12549 6.26472 4.14972 6.35995 4.05232L7.5589 2.82613C7.69537 2.68655 7.93048 2.80515 7.89934 2.99786L7.3605 6.33191C7.34484 6.42879 7.2612 6.5 7.16306 6.5H2.83694ZM7.33333 7.625C7.33333 7.85 7.2 8 7 8H3C2.8 8 2.66667 7.85 2.66667 7.625V7.45C2.66667 7.33954 2.75621 7.25 2.86667 7.25H7.13333C7.24379 7.25 7.33333 7.33954 7.33333 7.45V7.625Z" fill="#F7A90D"/>
</svg>
