<svg width="17" height="17" viewBox="0 0 17 17" fill="none" xmlns="http://www.w3.org/2000/svg">
<g clip-path="url(#clip0_9917_13259)">
<path d="M8.49998 15.1666C4.82665 15.1666 1.83331 12.1733 1.83331 8.49998C1.83331 4.82665 4.82665 1.83331 8.49998 1.83331C12.1733 1.83331 15.1666 4.52665 15.1666 7.83331C15.1666 10.04 13.3733 11.8333 11.1666 11.8333H9.98665C9.79998 11.8333 9.65331 11.98 9.65331 12.1666C9.65331 12.2466 9.68665 12.32 9.73998 12.3866C10.0133 12.7 10.1666 13.0933 10.1666 13.5C10.1666 14.42 9.41998 15.1666 8.49998 15.1666ZM8.49998 3.16665C5.55998 3.16665 3.16665 5.55998 3.16665 8.49998C3.16665 11.44 5.55998 13.8333 8.49998 13.8333C8.68665 13.8333 8.83331 13.6866 8.83331 13.5C8.83331 13.3933 8.77998 13.3133 8.73998 13.2666C8.46665 12.96 8.31998 12.5666 8.31998 12.1666C8.31998 11.2466 9.06665 10.5 9.98665 10.5H11.1666C12.64 10.5 13.8333 9.30665 13.8333 7.83331C13.8333 5.25998 11.44 3.16665 8.49998 3.16665Z" fill="#C4C4C4"/>
<path d="M4.83331 9.16669C5.3856 9.16669 5.83331 8.71897 5.83331 8.16669C5.83331 7.6144 5.3856 7.16669 4.83331 7.16669C4.28103 7.16669 3.83331 7.6144 3.83331 8.16669C3.83331 8.71897 4.28103 9.16669 4.83331 9.16669Z" fill="#C4C4C4"/>
<path d="M6.83331 6.5C7.3856 6.5 7.83331 6.05228 7.83331 5.5C7.83331 4.94772 7.3856 4.5 6.83331 4.5C6.28103 4.5 5.83331 4.94772 5.83331 5.5C5.83331 6.05228 6.28103 6.5 6.83331 6.5Z" fill="#C4C4C4"/>
<path d="M10.1667 6.5C10.719 6.5 11.1667 6.05228 11.1667 5.5C11.1667 4.94772 10.719 4.5 10.1667 4.5C9.6144 4.5 9.16669 4.94772 9.16669 5.5C9.16669 6.05228 9.6144 6.5 10.1667 6.5Z" fill="#C4C4C4"/>
<path d="M12.1667 9.16669C12.719 9.16669 13.1667 8.71897 13.1667 8.16669C13.1667 7.6144 12.719 7.16669 12.1667 7.16669C11.6144 7.16669 11.1667 7.6144 11.1667 8.16669C11.1667 8.71897 11.6144 9.16669 12.1667 9.16669Z" fill="#C4C4C4"/>
</g>
<defs>
<clipPath id="clip0_9917_13259">
<rect width="16" height="16" fill="white" transform="translate(0.5 0.5)"/>
</clipPath>
</defs>
</svg>
