<svg width="16" height="16" viewBox="0 0 16 16" fill="none" xmlns="http://www.w3.org/2000/svg">
<path d="M8.28572 12.2449C6.86787 12.2449 5.71429 11.2259 5.71429 9.97365C5.71429 9.80942 5.85625 9.67613 6.03117 9.67613C6.20608 9.67613 6.34804 9.80942 6.34804 9.97365C6.34804 10.8979 7.21722 11.6499 8.28572 11.6499C9.35406 11.6499 10.2232 10.8979 10.2232 9.97365C10.2232 9.04941 9.35422 8.29744 8.28572 8.29744C6.86787 8.29744 5.71429 7.27859 5.71429 6.02619C5.71429 4.77394 6.86787 3.7551 8.28572 3.7551C9.04796 3.7551 9.76584 4.05083 10.2557 4.56657C10.3722 4.6893 10.3608 4.87733 10.2302 4.98667C10.0997 5.09601 9.89908 5.08515 9.78295 4.96272C9.41316 4.57342 8.8675 4.35013 8.28588 4.35013C7.21738 4.35013 6.3482 5.10196 6.3482 6.02619C6.3482 6.95043 7.21738 7.7024 8.28588 7.7024C9.70357 7.7024 10.8572 8.7214 10.8572 9.97365C10.8572 11.2259 9.70341 12.2449 8.28572 12.2449Z" fill="#5DCB42"/>
<path d="M8.28568 13.3061C8.08291 13.3061 7.91833 13.1733 7.91833 13.0097V2.99035C7.91833 2.8267 8.08291 2.69388 8.28568 2.69388C8.48846 2.69388 8.65303 2.8267 8.65303 2.99035V13.0097C8.65303 13.1733 8.48864 13.3061 8.28568 13.3061Z" fill="#5DCB42"/>
<rect x="1.07141" y="1.07143" width="14.4286" height="13.8571" rx="4.5" stroke="#5DCB42"/>
</svg>
