<svg width="22" height="22" viewBox="0 0 22 22" fill="none" xmlns="http://www.w3.org/2000/svg">
<path fill-rule="evenodd" clip-rule="evenodd" d="M7.4736 0.8208C7.39405 0.581947 7.24139 0.374164 7.03723 0.22686C6.83307 0.0795555 6.58775 0.000191152 6.336 0H2.4C1.76348 0 1.15303 0.252856 0.702944 0.702944C0.252856 1.15303 0 1.76348 0 2.4V3.6C0 13.5408 8.0592 21.6 18 21.6H19.2C19.8365 21.6 20.447 21.3471 20.8971 20.8971C21.3471 20.447 21.6 19.8365 21.6 19.2V15.2652C21.6001 15.0132 21.5208 14.7677 21.3735 14.5633C21.2262 14.3589 21.0182 14.206 20.7792 14.1264L15.3876 12.3288C15.1136 12.2377 14.8159 12.2485 14.5492 12.3591C14.2825 12.4698 14.0647 12.6729 13.9356 12.9312L12.5796 15.6396C12.2579 15.4942 11.9432 15.3366 11.6361 15.1672C11.4178 15.0468 11.2032 14.9205 10.9928 14.7884C9.3021 13.7276 7.87244 12.2979 6.81161 10.6072C6.67954 10.3968 6.5532 10.1822 6.43277 9.96389C6.2634 9.65679 6.10575 9.3421 5.9604 9.0204L8.6688 7.6644C8.9271 7.53535 9.13021 7.31748 9.24086 7.05077C9.35151 6.78407 9.36228 6.48641 9.2712 6.2124L7.4736 0.8208ZM7.39875 6.28727L5.90266 1.8H2.4C2.24087 1.8 2.08826 1.86321 1.97574 1.97574C1.86321 2.08826 1.8 2.24087 1.8 2.4V3.6C1.8 12.5467 9.05331 19.8 18 19.8H19.2C19.3591 19.8 19.5117 19.7368 19.6243 19.6243C19.7368 19.5117 19.8 19.3591 19.8 19.2V15.6973L15.3127 14.2012L14.1891 16.4454C13.7566 17.3094 12.719 17.6778 11.8385 17.2799C8.50106 15.772 5.82799 13.0989 4.32007 9.76155C3.92221 8.88101 4.29055 7.84344 5.15456 7.41086L7.39875 6.28727ZM20.2099 15.834C20.2098 15.834 20.2097 15.8339 20.2097 15.8339L20.2099 15.834Z" fill="#5A6384"/>
</svg>
