<svg width="16" height="16" viewBox="0 0 16 16" fill="none" xmlns="http://www.w3.org/2000/svg">
<g id="24 / QR" clip-path="url(#clip0_1286_9621)">
<path id="Vector (Stroke)" fill-rule="evenodd" clip-rule="evenodd" d="M1.25 1.25025C1.53809 0.961991 1.92883 0.800049 2.33626 0.800049H3.95333C4.36076 0.800049 4.75151 0.961991 5.0396 1.25025C5.3277 1.53851 5.48955 1.92947 5.48955 2.33713V3.95511C5.48955 4.36276 5.3277 4.75373 5.0396 5.04198C4.75151 5.33024 4.36076 5.49218 3.95333 5.49218H2.33626C1.92883 5.49218 1.53809 5.33024 1.25 5.04198C0.9619 4.75373 0.800049 4.36276 0.800049 3.95511V2.33713C0.800049 1.92947 0.9619 1.53851 1.25 1.25025ZM2.33626 2.25623C2.31482 2.25623 2.29426 2.26475 2.27909 2.27992C2.26393 2.2951 2.25541 2.31567 2.25541 2.33713V3.95511C2.25541 3.97656 2.26393 3.99714 2.27909 4.01231C2.29426 4.02748 2.31482 4.036 2.33626 4.036H3.95333C3.97478 4.036 3.99534 4.02748 4.01051 4.01231C4.02567 3.99714 4.03419 3.97656 4.03419 3.95511V2.33713C4.03419 2.31567 4.02567 2.2951 4.01051 2.27992C3.99534 2.26475 3.97478 2.25623 3.95333 2.25623H2.33626ZM7.99601 0.800049C8.39789 0.800049 8.72369 1.12603 8.72369 1.52814V2.33713C8.72369 2.73924 8.39789 3.06522 7.99601 3.06522C7.59412 3.06522 7.26833 2.73924 7.26833 2.33713V1.52814C7.26833 1.12603 7.59412 0.800049 7.99601 0.800049ZM10.9524 1.25025C11.2405 0.961991 11.6312 0.800049 12.0387 0.800049H13.6557C14.0632 0.800049 14.4539 0.961991 14.742 1.25025C15.0301 1.53851 15.192 1.92947 15.192 2.33713V3.95511C15.192 4.36276 15.0301 4.75372 14.742 5.04198C14.4539 5.33024 14.0632 5.49218 13.6557 5.49218H12.0387C11.6312 5.49218 11.2405 5.33024 10.9524 5.04198C10.6643 4.75372 10.5025 4.36276 10.5025 3.95511V2.33713C10.5025 1.92947 10.6643 1.53851 10.9524 1.25025ZM12.0387 2.25623C12.0172 2.25623 11.9967 2.26475 11.9815 2.27992C11.9663 2.29509 11.9578 2.31567 11.9578 2.33713V3.95511C11.9578 3.97656 11.9663 3.99714 11.9815 4.01231C11.9967 4.02748 12.0172 4.036 12.0387 4.036H13.6557C13.6772 4.036 13.6978 4.02748 13.7129 4.01231C13.7281 3.99714 13.7366 3.97656 13.7366 3.95511V2.33713C13.7366 2.31567 13.7281 2.29509 13.7129 2.27992C13.6978 2.26475 13.6772 2.25623 13.6557 2.25623H12.0387ZM7.99601 4.84499C8.39789 4.84499 8.72369 5.17097 8.72369 5.57308V7.27196H11.2382C11.6401 7.27196 11.9659 7.59794 11.9659 8.00005C11.9659 8.40216 11.6401 8.72814 11.2382 8.72814H7.99601C7.59412 8.72814 7.26833 8.40216 7.26833 8.00005V5.57308C7.26833 5.17097 7.59412 4.84499 7.99601 4.84499ZM0.800049 8.00005C0.800049 7.59794 1.12584 7.27196 1.52773 7.27196H4.76187C5.16376 7.27196 5.48955 7.59794 5.48955 8.00005C5.48955 8.40216 5.16376 8.72814 4.76187 8.72814H1.52773C1.12584 8.72814 0.800049 8.40216 0.800049 8.00005ZM13.7366 8.00005C13.7366 7.59794 14.0624 7.27196 14.4643 7.27196H14.4724C14.8743 7.27196 15.2 7.59794 15.2 8.00005C15.2 8.40216 14.8743 8.72814 14.4724 8.72814H14.4643C14.0624 8.72814 13.7366 8.40216 13.7366 8.00005ZM1.25 10.9581C1.53809 10.6699 1.92884 10.5079 2.33626 10.5079H3.95333C4.36076 10.5079 4.7515 10.6699 5.0396 10.9581C5.3277 11.2464 5.48955 11.6373 5.48955 12.045V13.663C5.48955 14.0706 5.3277 14.4616 5.0396 14.7499C4.7515 15.0381 4.36076 15.2 3.95333 15.2H2.33626C1.92884 15.2 1.53809 15.0381 1.25 14.7499C0.9619 14.4616 0.800049 14.0706 0.800049 13.663V12.045C0.800049 11.6373 0.9619 11.2464 1.25 10.9581ZM2.33626 11.9641C2.31482 11.9641 2.29425 11.9726 2.27909 11.9878C2.26393 12.003 2.25541 12.0235 2.25541 12.045V13.663C2.25541 13.6844 2.26393 13.705 2.27909 13.7202C2.29425 13.7353 2.31482 13.7439 2.33626 13.7439H3.95333C3.97478 13.7439 3.99534 13.7353 4.01051 13.7202C4.02567 13.705 4.03419 13.6844 4.03419 13.663V12.045C4.03419 12.0235 4.02567 12.003 4.01051 11.9878C3.99534 11.9726 3.97478 11.9641 3.95333 11.9641H2.33626ZM7.26833 11.236C7.26833 10.8339 7.59412 10.5079 7.99601 10.5079H9.61308C10.015 10.5079 10.3408 10.8339 10.3408 11.236C10.3408 11.6381 10.015 11.9641 9.61308 11.9641H8.72369V14.472C8.72369 14.8741 8.39789 15.2 7.99601 15.2C7.59412 15.2 7.26833 14.8741 7.26833 14.472V11.236ZM12.1195 11.236C12.1195 10.8339 12.4453 10.5079 12.8472 10.5079H14.4643C14.8662 10.5079 15.192 10.8339 15.192 11.236C15.192 11.6381 14.8662 11.9641 14.4643 11.9641H12.8472C12.4453 11.9641 12.1195 11.6381 12.1195 11.236ZM10.5025 14.472C10.5025 14.0698 10.8283 13.7439 11.2301 13.7439H14.4643C14.8662 13.7439 15.192 14.0698 15.192 14.472C15.192 14.8741 14.8662 15.2 14.4643 15.2H11.2301C10.8283 15.2 10.5025 14.8741 10.5025 14.472Z" fill="#3AA625"/>
</g>
<defs>
<clipPath id="clip0_1286_9621">
<rect width="16" height="16" fill="white"/>
</clipPath>
</defs>
</svg>
