<svg width="16" height="16" viewBox="0 0 16 16" fill="none" xmlns="http://www.w3.org/2000/svg">
<g id="24 / Reminder">
<path id="Icon" fill-rule="evenodd" clip-rule="evenodd" d="M3.69089 0.842484C3.9252 1.0768 3.9252 1.4567 3.69089 1.69101L1.69089 3.69101C1.45658 3.92533 1.07668 3.92533 0.842362 3.69101C0.608047 3.4567 0.608047 3.0768 0.842362 2.84249L2.84236 0.842484C3.07668 0.60817 3.45657 0.608169 3.69089 0.842484ZM12.0424 0.842484C12.2767 0.608169 12.6566 0.60817 12.8909 0.842484L14.8909 2.84249C15.1252 3.0768 15.1252 3.4567 14.8909 3.69101C14.6566 3.92533 14.2767 3.92533 14.0424 3.69101L12.0424 1.69101C11.808 1.4567 11.808 1.0768 12.0424 0.842484ZM7.86663 2.66675C4.99474 2.66675 2.66663 4.99487 2.66663 7.86675C2.66663 10.7386 4.99474 13.0667 7.86663 13.0667C10.7385 13.0667 13.0666 10.7386 13.0666 7.86675C13.0666 4.99487 10.7385 2.66675 7.86663 2.66675ZM1.46663 7.86675C1.46663 4.33213 4.332 1.46675 7.86663 1.46675C11.4012 1.46675 14.2666 4.33213 14.2666 7.86675C14.2666 9.44539 13.6951 10.8905 12.7476 12.0065L14.1659 14.1339C14.3497 14.4096 14.2752 14.7822 13.9994 14.966C13.7237 15.1498 13.3512 15.0753 13.1674 14.7996L11.873 12.8579C10.7763 13.7393 9.38307 14.2667 7.86663 14.2667C6.35018 14.2667 4.95692 13.7393 3.86027 12.8579L2.56586 14.7996C2.38204 15.0753 2.00952 15.1498 1.73381 14.966C1.45809 14.7822 1.38358 14.4096 1.5674 14.1339L2.98566 12.0065C2.03819 10.8905 1.46663 9.44539 1.46663 7.86675ZM7.66663 3.86675C7.998 3.86675 8.26663 4.13538 8.26663 4.46675V7.46675H9.66663C9.998 7.46675 10.2666 7.73538 10.2666 8.06675C10.2666 8.39812 9.998 8.66675 9.66663 8.66675H7.66663C7.33525 8.66675 7.06663 8.39812 7.06663 8.06675V4.46675C7.06663 4.13538 7.33525 3.86675 7.66663 3.86675Z" fill="#787F9D"/>
</g>
</svg>
