<svg width="18" height="6" viewBox="0 0 18 6" fill="none" xmlns="http://www.w3.org/2000/svg">
<path fill-rule="evenodd" clip-rule="evenodd" d="M17.2501 0C17.6643 0 18.0001 0.335786 18.0001 0.75V5.25C18.0001 5.66421 17.6643 6 17.2501 6H12.7501C12.3359 6 12.0001 5.66421 12.0001 5.25C12.0001 4.83579 12.3359 4.5 12.7501 4.5H15.7066C14.0325 2.77062 11.5453 1.87501 9.00009 1.87501C5.9395 1.875 2.96268 3.17004 1.38284 5.65266C1.16046 6.00211 0.696895 6.10513 0.347439 5.88275C-0.00201768 5.66037 -0.105033 5.1968 0.117348 4.84734C2.03751 1.82994 5.56069 0.375 9.0001 0.375005C11.7279 0.375009 14.5084 1.29019 16.5001 3.17417V0.75C16.5001 0.335786 16.8359 0 17.2501 0Z" fill="#C1C4D6"/>
</svg>
