<svg width="16" height="16" viewBox="0 0 16 16" fill="none" xmlns="http://www.w3.org/2000/svg">
<g id="24 / Repeat">
<g id="Icon">
<path fill-rule="evenodd" clip-rule="evenodd" d="M1.39996 2.94183C1.39996 2.61046 1.66859 2.34183 1.99996 2.34183H11.9648C13.4914 2.34183 14.7248 3.57526 14.7248 5.10183V7.49224C14.7248 7.82361 14.4562 8.09224 14.1248 8.09224C13.7934 8.09224 13.5248 7.82361 13.5248 7.49224V5.10183C13.5248 4.238 12.8286 3.54183 11.9648 3.54183H1.99996C1.66859 3.54183 1.39996 3.2732 1.39996 2.94183Z" fill="#787F9D"/>
<path fill-rule="evenodd" clip-rule="evenodd" d="M4.69943 0.242388C4.93375 0.476704 4.93374 0.856603 4.69943 1.09092L2.84849 2.94183L4.69943 4.79279C4.93375 5.02711 4.93374 5.40701 4.69943 5.64132C4.46511 5.87563 4.08521 5.87563 3.8509 5.64132L1.5757 3.36609C1.46318 3.25357 1.39996 3.10096 1.39996 2.94183C1.39996 2.7827 1.46318 2.63009 1.5757 2.51756L3.8509 0.242384C4.08522 0.00807083 4.46512 0.00807266 4.69943 0.242388Z" fill="#787F9D"/>
<path fill-rule="evenodd" clip-rule="evenodd" d="M1.99996 7.64106C2.33133 7.64106 2.59996 7.90969 2.59996 8.24106V10.6315C2.59996 11.4953 3.29613 12.1915 4.15996 12.1915H14.1248C14.4562 12.1915 14.7248 12.4601 14.7248 12.7915C14.7248 13.1228 14.4562 13.3915 14.1248 13.3915H4.15996C2.63339 13.3915 1.39996 12.158 1.39996 10.6315V8.24106C1.39996 7.90969 1.66859 7.64106 1.99996 7.64106Z" fill="#787F9D"/>
<path fill-rule="evenodd" clip-rule="evenodd" d="M11.4251 10.092C11.6594 9.85767 12.0393 9.85767 12.2736 10.092L14.5488 12.3672C14.6613 12.4797 14.7248 12.6323 14.7248 12.7915C14.7248 12.9506 14.6613 13.1032 14.5488 13.2157L12.2736 15.4909C12.0393 15.7252 11.6594 15.7252 11.4251 15.4909C11.1908 15.2566 11.1908 14.8767 11.4251 14.6424L13.276 12.7915L11.4251 10.9405C11.1908 10.7062 11.1908 10.3263 11.4251 10.092Z" fill="#787F9D"/>
</g>
</g>
</svg>
