<svg width="16" height="18" viewBox="0 0 16 18" fill="none" xmlns="http://www.w3.org/2000/svg">
<path d="M15.967 3.51138C15.959 3.37576 15.9083 3.24693 15.8232 3.14553C15.738 3.04412 15.6233 2.976 15.4974 2.95206C12.408 2.36314 11.1183 1.93739 8.23536 0.553889C8.1614 0.518371 8.08117 0.5 8 0.5C7.91883 0.5 7.8386 0.518371 7.76464 0.553889C4.88168 1.93739 3.592 2.36314 0.50261 2.95206C0.376702 2.976 0.261992 3.04412 0.176841 3.14553C0.0916913 3.24693 0.0410247 3.37576 0.0329515 3.51138C-0.104553 5.83025 0.188671 7.99088 0.90548 9.93333C1.49247 11.5177 2.36118 12.9672 3.46414 14.2026C5.37384 16.3553 7.40141 17.2903 7.78821 17.4557C7.92566 17.5148 8.07934 17.5148 8.21679 17.4557C8.60359 17.2903 10.6312 16.3553 12.5409 14.2026C13.642 12.9668 14.509 11.5173 15.0945 9.93333C15.8113 7.99088 16.1046 5.83025 15.967 3.51138ZM11.2883 6.36149L7.33105 11.2185C7.28017 11.2812 7.21777 11.3321 7.14769 11.3682C7.07762 11.4043 7.00134 11.4248 6.92354 11.4284H6.89996C6.7504 11.4284 6.60679 11.3662 6.49995 11.255L4.74275 9.42599C4.68914 9.37018 4.6464 9.3037 4.61698 9.23034C4.58755 9.15698 4.57201 9.07818 4.57125 8.99844C4.56971 8.8374 4.62845 8.68231 4.73454 8.56728C4.84063 8.45225 4.98538 8.3867 5.13695 8.38507C5.28853 8.38343 5.43451 8.44583 5.54278 8.55855L6.86425 9.9356L10.4251 5.56691C10.5243 5.44513 10.6649 5.3702 10.8161 5.35861C10.9672 5.34701 11.1166 5.39968 11.2312 5.50505C11.3458 5.61042 11.4163 5.75985 11.4272 5.92046C11.4382 6.08107 11.3886 6.23972 11.2894 6.36149H11.2883Z" fill="#5DCB42"/>
</svg>
