<svg width="14" height="16" viewBox="0 0 14 16" fill="none" xmlns="http://www.w3.org/2000/svg">
<path id="Icon" fill-rule="evenodd" clip-rule="evenodd" d="M5.63827 1.80335C4.59184 1.80335 3.74353 2.65165 3.74353 3.69808C3.74353 4.74452 4.59184 5.59282 5.63827 5.59282C6.68471 5.59282 7.53301 4.74452 7.53301 3.69808C7.53301 2.65165 6.68471 1.80335 5.63827 1.80335ZM2.60669 3.69808C2.60669 2.02379 3.96398 0.666504 5.63827 0.666504C7.31257 0.666504 8.66985 2.02379 8.66985 3.69808C8.66985 5.37238 7.31257 6.72966 5.63827 6.72966C3.96398 6.72966 2.60669 5.37238 2.60669 3.69808ZM0.333008 12.5086C0.333008 10.1541 2.24169 8.24545 4.59617 8.24545H6.20669C6.52062 8.24545 6.77511 8.49994 6.77511 8.81387C6.77511 9.1278 6.52062 9.38229 6.20669 9.38229H4.59617C2.86955 9.38229 1.46985 10.782 1.46985 12.5086C1.46985 12.8749 1.76676 13.1718 2.13301 13.1718H4.6909C5.00483 13.1718 5.25932 13.4263 5.25932 13.7402C5.25932 14.0541 5.00483 14.3086 4.6909 14.3086H2.13301C1.1389 14.3086 0.333008 13.5027 0.333008 12.5086ZM10.1856 9.00335C10.4996 9.00335 10.7541 9.25784 10.7541 9.57177V11.4666H12.6488C12.9627 11.4666 13.2172 11.7211 13.2172 12.035C13.2172 12.3489 12.9627 12.6034 12.6488 12.6034H10.7541V14.4981C10.7541 14.812 10.4996 15.0665 10.1856 15.0665C9.87171 15.0665 9.61722 14.812 9.61722 14.4981V12.6034H7.72248C7.40855 12.6034 7.15406 12.3489 7.15406 12.035C7.15406 11.7211 7.40855 11.4666 7.72248 11.4666H9.61722V9.57177C9.61722 9.25784 9.87171 9.00335 10.1856 9.00335Z" fill="#787F9D"/>
</svg>
