<svg width="25" height="24" viewBox="0 0 25 24" fill="none" xmlns="http://www.w3.org/2000/svg">
    <path d="M18.9396 20.5L15.9396 17.5L18.9396 14.5V16.5H22.9396V18.5H18.9396V20.5ZM10.9396 3.5C12.0005 3.5 13.0179 3.92143 13.7681 4.67157C14.5182 5.42172 14.9396 6.43913 14.9396 7.5C14.9396 8.56087 14.5182 9.57828 13.7681 10.3284C13.0179 11.0786 12.0005 11.5 10.9396 11.5C9.87877 11.5 8.86135 11.0786 8.11121 10.3284C7.36106 9.57828 6.93964 8.56087 6.93964 7.5C6.93964 6.43913 7.36106 5.42172 8.11121 4.67157C8.86135 3.92143 9.87877 3.5 10.9396 3.5ZM10.9396 13.5C12.0896 13.5 13.1896 13.62 14.1796 13.84C13.3996 14.85 12.9396 16.12 12.9396 17.5C12.9396 18.2 13.0596 18.87 13.2796 19.5H2.93964V17.5C2.93964 15.29 6.51964 13.5 10.9396 13.5Z" fill="white"/>
</svg>
