<svg width="14" height="19" viewBox="0 0 14 19" fill="none" xmlns="http://www.w3.org/2000/svg">
<path fill-rule="evenodd" clip-rule="evenodd" d="M1.75 0C2.16421 0 2.5 0.335786 2.5 0.75V10C2.5 12.4853 4.51472 14.5 7 14.5C9.48528 14.5 11.5 12.4853 11.5 10V0.75C11.5 0.335786 11.8358 0 12.25 0C12.6642 0 13 0.335786 13 0.75V10C13 13.3137 10.3137 16 7 16C3.68629 16 1 13.3137 1 10V0.75C1 0.335786 1.33579 0 1.75 0ZM0 18.25C0 17.8358 0.335786 17.5 0.75 17.5H13.25C13.6642 17.5 14 17.8358 14 18.25C14 18.6642 13.6642 19 13.25 19H0.75C0.335786 19 0 18.6642 0 18.25Z" fill="#575D7A"/>
</svg>
