<svg viewBox="0 0 190 185" fill="none" xmlns="http://www.w3.org/2000/svg">
<path d="M9.59709 184.967C8.18962 184.965 6.81407 184.547 5.64419 183.765C4.47431 182.982 3.56257 181.87 3.02412 180.57C2.48567 179.269 2.34466 177.839 2.61891 176.458C2.89315 175.078 3.57035 173.809 4.56497 172.814L175.467 1.91118C176.817 0.653339 178.603 -0.03144 180.447 0.00110941C182.292 0.0336589 184.052 0.780996 185.357 2.08567C186.662 3.39035 187.409 5.1505 187.442 6.99531C187.474 8.84012 186.789 10.6255 185.532 11.9754L14.6292 182.878C13.9705 183.542 13.1865 184.068 12.3226 184.427C11.4588 184.785 10.5324 184.969 9.59709 184.967Z" fill="#8F95B2"/>
<path opacity="0.4" d="M123.532 140.057C121.446 140.061 119.418 139.37 117.769 138.092C113.111 134.565 107.684 132.193 101.932 131.17C100.68 130.977 99.4802 130.536 98.402 129.872C97.3237 129.208 96.3892 128.335 95.6533 127.304C94.9175 126.274 94.3952 125.106 94.1173 123.871C93.8393 122.635 93.8113 121.357 94.0349 120.111C94.2585 118.864 94.7291 117.675 95.4191 116.613C96.1091 115.551 97.0045 114.638 98.0526 113.928C99.1008 113.217 100.28 112.724 101.522 112.476C102.764 112.228 104.043 112.231 105.283 112.485C114.02 114.036 122.259 117.653 129.314 123.033C130.887 124.242 132.042 125.912 132.617 127.81C133.192 129.708 133.158 131.738 132.52 133.616C131.882 135.494 130.672 137.125 129.06 138.28C127.448 139.435 125.515 140.057 123.532 140.057Z" fill="#8F95B2"/>
<path d="M152.016 113.568C149.734 113.571 147.528 112.748 145.806 111.251C140.811 106.957 135.28 103.328 129.352 100.456C128.23 99.9113 127.226 99.1514 126.398 98.2191C125.569 97.2868 124.932 96.2005 124.524 95.0222C124.115 93.8439 123.943 92.5966 124.016 91.3516C124.089 90.1066 124.407 88.8882 124.951 87.766C125.496 86.6439 126.256 85.6399 127.188 84.8114C128.12 83.983 129.206 83.3462 130.385 82.9376C131.563 82.529 132.81 82.3564 134.055 82.4298C135.3 82.5032 136.519 82.8211 137.641 83.3653C145.064 86.9496 151.984 91.492 158.225 96.8761C159.696 98.1414 160.743 99.8266 161.227 101.705C161.711 103.584 161.607 105.565 160.931 107.383C160.255 109.202 159.038 110.769 157.444 111.874C155.85 112.98 153.956 113.571 152.016 113.568Z" fill="#8F95B2"/>
<path d="M108.341 79.102L95.0485 92.4894H94.9535C76.3417 92.4513 58.3404 99.126 44.2525 111.289C42.3387 112.925 39.8531 113.735 37.3425 113.539C34.8319 113.343 32.5019 112.158 30.8651 110.244C29.2284 108.33 28.4189 105.845 28.6147 103.334C28.8106 100.824 29.9958 98.4936 31.9095 96.8569C49.4681 81.7418 71.8802 73.451 95.0485 73.5002C96.8524 73.5002 98.6564 73.5952 100.365 73.6901C102.053 73.8108 103.68 74.3747 105.08 75.325C106.48 76.2752 107.605 77.578 108.341 79.102Z" fill="#8F95B2"/>
<path opacity="0.4" d="M180.499 87.0777C178.18 87.0787 175.941 86.231 174.204 84.6946C168.79 79.8955 162.952 75.5959 156.763 71.8484C155.696 71.2032 154.766 70.354 154.027 69.3495C153.288 68.3449 152.754 67.2046 152.455 65.9936C152.157 64.7827 152.1 63.5248 152.287 62.2918C152.475 61.0589 152.904 59.8749 153.549 58.8076C154.194 57.7403 155.043 56.8106 156.048 56.0714C157.053 55.3323 158.193 54.7983 159.404 54.4998C161.849 53.8971 164.434 54.2906 166.59 55.5937C173.751 59.9377 180.506 64.9171 186.775 70.4717C188.218 71.7478 189.238 73.4326 189.701 75.3022C190.164 77.1719 190.047 79.138 189.366 80.9397C188.685 82.7414 187.472 84.2934 185.889 85.3897C184.305 86.486 182.425 87.0747 180.499 87.0777Z" fill="#8F95B2"/>
<path opacity="0.4" d="M141.002 46.4408C140.466 45.2549 139.679 44.1994 138.696 43.347C137.712 42.4947 136.555 41.8657 135.305 41.5036C122.279 37.4171 108.7 35.3674 95.0484 35.427C61.1782 35.423 28.4933 47.8953 3.2359 70.462C1.78416 71.7422 0.758351 73.4355 0.295935 75.315C-0.166481 77.1945 -0.0434179 79.1705 0.648639 80.9781C1.3407 82.7857 2.56868 84.3386 4.16806 85.4288C5.76743 86.5189 7.66178 87.0942 9.59727 87.0775C11.9378 87.0975 14.2032 86.2522 15.9586 84.7039C30.9624 71.2442 49.1519 61.8347 68.8064 57.3655C88.461 52.8963 108.931 53.5152 128.279 59.1635L141.002 46.4408Z" fill="#8F95B2"/>
<path d="M95.0484 170.725C101.603 170.725 106.917 165.411 106.917 158.856C106.917 152.302 101.603 146.988 95.0484 146.988C88.4938 146.988 83.1802 152.302 83.1802 158.856C83.1802 165.411 88.4938 170.725 95.0484 170.725Z" fill="#8F95B2"/>
</svg>
