<svg width="36" height="16" viewBox="0 0 36 16" fill="none" xmlns="http://www.w3.org/2000/svg">
<path d="M35.1111 13.4004C35.1111 14.6004 34.1334 15.4004 32.6667 15.4004H3.33336C1.86669 15.4004 0.888916 14.6004 0.888916 13.4004V12.4004C0.888916 11.8481 1.33663 11.4004 1.88892 11.4004H34.1111C34.6634 11.4004 35.1111 11.8481 35.1111 12.4004V13.4004Z" fill="#D8DAE5"/>
<path d="M1.78393 10C1.27438 10 0.846318 9.61687 0.790048 9.11043L0.361456 5.2531C0.196289 3.7666 1.66155 2.63139 3.05966 3.16267L10 5.8L16.8261 0.851104C17.5263 0.343398 18.4737 0.343398 19.1739 0.851103L26 5.8L32.9403 3.16267C34.3385 2.63139 35.8037 3.7666 35.6385 5.2531L35.21 9.11043C35.1537 9.61687 34.7256 10 34.2161 10H1.78393Z" fill="#E6E8F0"/>
</svg>
