<svg width="36" height="22" viewBox="0 0 36 22" fill="none" xmlns="http://www.w3.org/2000/svg">
<path d="M30 2L34 10L28 10L20 10L30 2Z" fill="#E9B308"/>
<path d="M6 2L16 10L8 10L2 10L6 2Z" fill="#E9B308"/>
<path d="M35.1111 19.4004C35.1111 20.6004 34.1334 21.4004 32.6667 21.4004H3.33336C1.86669 21.4004 0.888916 20.6004 0.888916 19.4004V18.4004C0.888916 17.8481 1.33663 17.4004 1.88892 17.4004H34.1111C34.6634 17.4004 35.1111 17.8481 35.1111 18.4004V19.4004Z" fill="#E9B308"/>
<path d="M1.82741 16C1.29973 16 0.862856 15.59 0.82942 15.0634L0 2L10 10L18 0L26 10L36 2L35.1706 15.0634C35.1371 15.59 34.7003 16 34.1726 16H1.82741Z" fill="#FACC16"/>
</svg>
