<svg width="20" height="20" viewBox="0 0 20 20" fill="none" xmlns="http://www.w3.org/2000/svg">
<g id="24/ Image">
<path id="Icon" fill-rule="evenodd" clip-rule="evenodd" d="M1.66652 4.21296C1.66652 2.80669 2.80654 1.66667 4.21282 1.66667H15.7869C17.1932 1.66667 18.3332 2.80669 18.3332 4.21296V12.5444C18.3332 12.5458 18.3332 12.5471 18.3332 12.5485V15.787C18.3332 17.1933 17.1932 18.3333 15.7869 18.3333H4.21282C2.80654 18.3333 1.66652 17.1933 1.66652 15.787V12.3975C1.6665 12.3941 1.6665 12.3906 1.66652 12.3872V4.21296ZM3.05541 12.7192V15.787C3.05541 16.4262 3.5736 16.9444 4.21282 16.9444H15.7869C16.4261 16.9444 16.9443 16.4262 16.9443 15.787V12.8481L14.0944 10.1882L11.5534 11.8823L13.5097 13.9168C13.7755 14.1933 13.7669 14.6329 13.4904 14.8987C13.214 15.1645 12.7744 15.1559 12.5085 14.8795L7.16767 9.32497L3.05541 12.7192ZM10.5753 10.8651L7.72265 7.8983C7.47095 7.63654 7.06008 7.61289 6.78001 7.84406L3.05541 10.9183V4.21296C3.05541 3.57375 3.5736 3.05556 4.21282 3.05556H15.7869C16.4261 3.05556 16.9443 3.57375 16.9443 4.21296V10.9482L14.6403 8.79787C14.4049 8.57813 14.0493 8.54909 13.7813 8.72774L10.5753 10.8651Z" fill="#787F9D"/>
</g>
</svg>
