<svg width="20" height="20" viewBox="0 0 20 20" fill="none" xmlns="http://www.w3.org/2000/svg">
<g id="24 / Open eye">
<path id="Icon" fill-rule="evenodd" clip-rule="evenodd" d="M5.44709 6.75745C4.13956 7.85498 3.10974 9.1634 2.52994 9.97822C2.43551 10.1109 2.39118 10.1743 2.3615 10.2246C2.34295 10.256 2.33944 10.2671 2.33749 10.2746C2.33726 10.276 2.33654 10.2801 2.33577 10.2873C2.33444 10.2996 2.3335 10.3156 2.3335 10.3333C2.3335 10.3511 2.33444 10.367 2.33577 10.3793C2.33654 10.3865 2.33726 10.3907 2.33749 10.392C2.33944 10.3996 2.34295 10.4106 2.3615 10.4421C2.39118 10.4924 2.43551 10.5557 2.52994 10.6884C3.10974 11.5033 4.13956 12.8117 5.44709 13.9092C6.7662 15.0165 8.27741 15.8333 9.8335 15.8333C11.3896 15.8333 12.9008 15.0165 14.2199 13.9092C15.5274 12.8117 16.5573 11.5033 17.1371 10.6884C17.2315 10.5557 17.2758 10.4924 17.3055 10.4421C17.324 10.4106 17.3276 10.3996 17.3295 10.392C17.3297 10.3907 17.3305 10.3865 17.3312 10.3793C17.3326 10.367 17.3335 10.3511 17.3335 10.3333C17.3335 10.3156 17.3326 10.2996 17.3312 10.2873C17.3305 10.2801 17.3297 10.276 17.3295 10.2746C17.3276 10.2671 17.324 10.256 17.3055 10.2246C17.2758 10.1743 17.2315 10.1109 17.1371 9.97822C16.5573 9.1634 15.5274 7.85498 14.2199 6.75745C12.9008 5.65019 11.3896 4.83333 9.8335 4.83333C8.27741 4.83333 6.7662 5.65019 5.44709 6.75745ZM4.48271 5.60855C5.91533 4.40601 7.76338 3.33333 9.8335 3.33333C11.9036 3.33333 13.7517 4.40601 15.1843 5.60854C16.6285 6.8208 17.7429 8.24241 18.3592 9.10857C18.3693 9.12278 18.3796 9.1371 18.3899 9.15153C18.538 9.35868 18.7033 9.58978 18.7841 9.90825C18.85 10.168 18.85 10.4987 18.7841 10.7584C18.7033 11.0769 18.538 11.308 18.3899 11.5151C18.3796 11.5296 18.3693 11.5439 18.3592 11.5581C17.7429 12.4242 16.6285 13.8459 15.1843 15.0581C13.7517 16.2606 11.9036 17.3333 9.8335 17.3333C7.76338 17.3333 5.91533 16.2606 4.48271 15.0581C3.0385 13.8459 1.9241 12.4242 1.30777 11.5581C1.29766 11.5439 1.28742 11.5296 1.27711 11.5151C1.12898 11.308 0.96373 11.0769 0.882923 10.7584C0.817021 10.4987 0.817021 10.168 0.882923 9.90825C0.96373 9.58977 1.12898 9.35868 1.27711 9.15152C1.28742 9.13709 1.29766 9.12278 1.30777 9.10857C1.9241 8.24241 3.0385 6.8208 4.48271 5.60855ZM9.8335 8.83333C9.00507 8.83333 8.3335 9.5049 8.3335 10.3333C8.3335 11.1618 9.00507 11.8333 9.8335 11.8333C10.6619 11.8333 11.3335 11.1618 11.3335 10.3333C11.3335 9.5049 10.6619 8.83333 9.8335 8.83333ZM6.8335 10.3333C6.8335 8.67647 8.17664 7.33333 9.8335 7.33333C11.4904 7.33333 12.8335 8.67647 12.8335 10.3333C12.8335 11.9902 11.4904 13.3333 9.8335 13.3333C8.17664 13.3333 6.8335 11.9902 6.8335 10.3333Z" fill="#5A6384"/>
</g>
</svg>
