<svg width="20" height="20" viewBox="0 0 20 20" fill="none" xmlns="http://www.w3.org/2000/svg">
<g id="24 / Family">
<path id="Vector (Stroke)" fill-rule="evenodd" clip-rule="evenodd" d="M10.0002 3.78571C9.49132 3.78571 9.00331 3.9889 8.6435 4.35058C8.2837 4.71226 8.08156 5.2028 8.08156 5.71429C8.08156 6.22578 8.2837 6.71631 8.6435 7.07799C9.00331 7.43967 9.49132 7.64286 10.0002 7.64286C10.509 7.64286 10.997 7.43967 11.3568 7.07799C11.7166 6.71631 11.9188 6.22577 11.9188 5.71429C11.9188 5.2028 11.7166 4.71226 11.3568 4.35058C10.997 3.9889 10.509 3.78571 10.0002 3.78571ZM7.73906 3.44144C8.33874 2.83865 9.15209 2.5 10.0002 2.5C10.8482 2.5 11.6616 2.83865 12.2613 3.44144C12.8609 4.04424 13.1978 4.8618 13.1978 5.71429C13.1978 6.56677 12.8609 7.38433 12.2613 7.98713C11.6616 8.58993 10.8482 8.92857 10.0002 8.92857C9.15209 8.92857 8.33874 8.58993 7.73906 7.98713C7.13938 7.38433 6.80249 6.56677 6.80249 5.71429C6.80249 4.8618 7.13938 4.04424 7.73906 3.44144ZM4.03117 7.21429C3.74848 7.21429 3.47736 7.32717 3.27747 7.5281C3.07758 7.72903 2.96528 8.00155 2.96528 8.28571C2.96528 8.56987 3.07758 8.8424 3.27747 9.04333C3.47736 9.24426 3.74848 9.35714 4.03117 9.35714C4.31386 9.35714 4.58498 9.24426 4.78487 9.04333C4.98476 8.8424 5.09706 8.56987 5.09706 8.28571C5.09706 8.00155 4.98476 7.72903 4.78487 7.5281C4.58498 7.32717 4.31386 7.21429 4.03117 7.21429ZM2.37303 6.61896C2.8128 6.17691 3.40925 5.92857 4.03117 5.92857C4.65309 5.92857 5.24954 6.17691 5.68931 6.61896C6.12907 7.06101 6.37613 7.66056 6.37613 8.28571C6.37613 8.91087 6.12907 9.51042 5.68931 9.95247C5.24954 10.3945 4.65309 10.6429 4.03117 10.6429C3.40925 10.6429 2.8128 10.3945 2.37303 9.95247C1.93327 9.51042 1.68621 8.91087 1.68621 8.28571C1.68621 7.66056 1.93327 7.06101 2.37303 6.61896ZM15.9692 7.21429C15.6865 7.21429 15.4153 7.32717 15.2155 7.5281C15.0156 7.72903 14.9033 8.00155 14.9033 8.28571C14.9033 8.56987 15.0156 8.8424 15.2155 9.04333C15.4153 9.24426 15.6865 9.35714 15.9692 9.35714C16.2518 9.35714 16.523 9.24426 16.7229 9.04333C16.9227 8.8424 17.035 8.56987 17.035 8.28571C17.035 8.00155 16.9227 7.72903 16.7229 7.5281C16.523 7.32717 16.2518 7.21429 15.9692 7.21429ZM14.311 6.61896C14.7508 6.17691 15.3472 5.92857 15.9692 5.92857C16.5911 5.92857 17.1875 6.17691 17.6273 6.61896C18.0671 7.06101 18.3141 7.66056 18.3141 8.28571C18.3141 8.91087 18.0671 9.51042 17.6273 9.95247C17.1875 10.3945 16.5911 10.6429 15.9692 10.6429C15.3472 10.6429 14.7508 10.3945 14.311 9.95247C13.8713 9.51042 13.6242 8.91087 13.6242 8.28571C13.6242 7.66056 13.8713 7.06101 14.311 6.61896ZM10.0002 11.4994C9.27561 11.4994 8.56767 11.7176 7.96766 12.1259C7.36766 12.5342 6.9031 13.1138 6.63392 13.79C6.46775 14.2068 6.37613 14.6634 6.37613 15.1429V16.2143H13.6242V15.1429C13.6242 14.6634 13.5327 14.2071 13.3665 13.7903C13.0973 13.1141 12.6327 12.5342 12.0327 12.1259C11.4327 11.7176 10.7247 11.4994 10.0002 11.4994ZM14.9033 16.2143H17.8878V15.1429C17.8878 15.1429 17.8878 15.1429 17.8878 15.1429C17.8877 14.7421 17.7635 14.3513 17.5323 14.0247C17.3011 13.6982 16.9744 13.4522 16.5977 13.3209C16.2209 13.1896 15.8129 13.1795 15.4302 13.2921C15.1551 13.3731 14.903 13.5145 14.6912 13.7045C14.8294 14.1604 14.9033 14.6436 14.9033 15.1429V16.2143ZM14.1429 12.5045C13.7838 11.935 13.3105 11.4428 12.7497 11.0612C11.938 10.5089 10.9803 10.2137 10.0002 10.2137C9.02 10.2137 8.06232 10.5089 7.25065 11.0612C6.68986 11.4428 6.21653 11.935 5.85741 12.5045C5.57575 12.3076 5.2627 12.1562 4.92944 12.0582C4.29165 11.8705 3.61154 11.8873 2.98367 12.1061C2.35579 12.3249 1.81133 12.735 1.42598 13.2792C1.04064 13.8234 0.833545 14.4748 0.833496 15.1428V16.8571C0.833496 17.2122 1.11983 17.5 1.47303 17.5H18.5273C18.8805 17.5 19.1668 17.2122 19.1668 16.8571V15.1429C19.1668 14.4749 18.9597 13.8234 18.5743 13.2792C18.189 12.735 17.6445 12.3249 17.0167 12.1061C16.3888 11.8873 15.7087 11.8705 15.0709 12.0582C14.7376 12.1562 14.4246 12.3076 14.1429 12.5045ZM5.30909 13.7045C5.09736 13.5145 4.84522 13.3731 4.57013 13.2921C4.18746 13.1795 3.7794 13.1896 3.40267 13.3209C3.02594 13.4522 2.69927 13.6982 2.46806 14.0247C2.23686 14.3513 2.1126 14.7421 2.11257 15.1429C2.11257 15.1429 2.11257 15.1428 2.11257 15.1429V16.2143H5.09706V15.1429C5.09706 14.6436 5.17093 14.1604 5.30909 13.7045Z" fill="#5A6384"/>
</g>
</svg>
