<svg width="14" height="14" viewBox="0 0 14 14" fill="none" xmlns="http://www.w3.org/2000/svg">
<path d="M6.74986 0.333298C3.08319 0.333298 0.0831909 3.3333 0.0831909 6.99997C0.0831909 10.6666 3.08319 13.6666 6.74986 13.6666C10.4165 13.6666 13.4165 10.6666 13.4165 6.99997C13.4165 3.3333 10.4165 0.333298 6.74986 0.333298ZM6.74986 12.3333C3.80986 12.3333 1.41652 9.93997 1.41652 6.99997C1.41652 4.05996 3.80986 1.66663 6.74986 1.66663C9.68986 1.66663 12.0832 4.05996 12.0832 6.99997C12.0832 9.93997 9.68986 12.3333 6.74986 12.3333ZM9.80986 4.0533L5.41652 8.44663L3.68986 6.72663L2.74986 7.66663L5.41652 10.3333L10.7499 4.99996L9.80986 4.0533Z" fill="#5DCB42"/>
</svg>
