<svg width="16" height="16" viewBox="0 0 16 16" fill="none" xmlns="http://www.w3.org/2000/svg">
<g id="24 / Backlog">
<path id="Icon" fill-rule="evenodd" clip-rule="evenodd" d="M3.9357 2H12.0644C12.4917 1.99999 12.8484 1.99998 13.1398 2.02379C13.4437 2.04862 13.729 2.10231 13.9988 2.23979C14.4128 2.45071 14.7493 2.78726 14.9603 3.20122C15.0977 3.47103 15.1514 3.75636 15.1763 4.06026C15.2001 4.35165 15.2001 4.70832 15.2 5.13564V5.46436C15.2001 5.89168 15.2001 6.24835 15.1763 6.53974C15.1514 6.84364 15.0977 7.12897 14.9603 7.39878C14.845 7.6249 14.6923 7.82793 14.51 8C14.6923 8.17207 14.845 8.3751 14.9603 8.60122C15.0977 8.87103 15.1514 9.15636 15.1763 9.46026C15.2001 9.75165 15.2001 10.1083 15.2 10.5356V10.8644C15.2001 11.2917 15.2001 11.6484 15.1763 11.9397C15.1514 12.2436 15.0977 12.529 14.9603 12.7988C14.7493 13.2127 14.4128 13.5493 13.9988 13.7602C13.729 13.8977 13.4437 13.9514 13.1398 13.9762C12.8484 14 12.4917 14 12.0644 14H3.93569C3.50837 14 3.1517 14 2.86031 13.9762C2.55641 13.9514 2.27108 13.8977 2.00127 13.7602C1.58731 13.5493 1.25076 13.2127 1.03984 12.7988C0.90236 12.529 0.848671 12.2436 0.823841 11.9397C0.800034 11.6483 0.800041 11.2917 0.800049 10.8643V10.5357C0.800041 10.1083 0.800034 9.75165 0.823841 9.46026C0.848671 9.15636 0.90236 8.87103 1.03984 8.60122C1.15505 8.3751 1.30775 8.17207 1.49008 8C1.30775 7.82793 1.15505 7.6249 1.03984 7.39878C0.90236 7.12897 0.848671 6.84364 0.823841 6.53974C0.800034 6.24835 0.800041 5.89167 0.800049 5.46435V5.13565C0.800041 4.70833 0.800034 4.35165 0.823841 4.06026C0.848671 3.75636 0.90236 3.47103 1.03984 3.20122C1.25076 2.78726 1.58731 2.45071 2.00127 2.23979C2.27108 2.10231 2.55641 2.04862 2.86031 2.02379C3.1517 1.99998 3.50838 1.99999 3.9357 2ZM3.96005 8.6C3.50211 8.6 3.19473 8.60047 2.95803 8.61981C2.72833 8.63857 2.61851 8.67208 2.54606 8.70899C2.3579 8.80487 2.20492 8.95785 2.10904 9.14601C2.07213 9.21846 2.03862 9.32828 2.01986 9.55798C2.00052 9.79469 2.00005 10.1021 2.00005 10.56V10.84C2.00005 11.2979 2.00052 11.6053 2.01986 11.842C2.03862 12.0717 2.07213 12.1815 2.10904 12.254C2.20492 12.4422 2.3579 12.5951 2.54606 12.691C2.61851 12.7279 2.72833 12.7614 2.95803 12.7802C3.19473 12.7995 3.50211 12.8 3.96005 12.8H12.04C12.498 12.8 12.8054 12.7995 13.0421 12.7802C13.2718 12.7614 13.3816 12.7279 13.454 12.691C13.6422 12.5951 13.7952 12.4422 13.8911 12.254C13.928 12.1815 13.9615 12.0717 13.9802 11.842C13.9996 11.6053 14 11.2979 14 10.84V10.56C14 10.1021 13.9996 9.79469 13.9802 9.55798C13.9615 9.32828 13.928 9.21846 13.8911 9.14601C13.7952 8.95785 13.6422 8.80487 13.454 8.70899C13.3816 8.67208 13.2718 8.63857 13.0421 8.61981C12.8054 8.60047 12.498 8.6 12.04 8.6H3.96005ZM12.04 7.4C12.498 7.4 12.8054 7.39953 13.0421 7.38019C13.2718 7.36143 13.3816 7.32792 13.454 7.29101C13.6422 7.19513 13.7952 7.04215 13.8911 6.85399C13.928 6.78154 13.9615 6.67172 13.9802 6.44202C13.9996 6.20532 14 5.89794 14 5.44V5.16C14 4.70206 13.9996 4.39469 13.9802 4.15798C13.9615 3.92828 13.928 3.81846 13.8911 3.74601C13.7952 3.55785 13.6422 3.40487 13.454 3.30899C13.3816 3.27208 13.2718 3.23857 13.0421 3.21981C12.8054 3.20047 12.498 3.2 12.04 3.2H3.96005C3.50211 3.2 3.19473 3.20047 2.95803 3.21981C2.72833 3.23857 2.61851 3.27208 2.54606 3.30899C2.3579 3.40487 2.20492 3.55785 2.10904 3.74601C2.07213 3.81846 2.03862 3.92828 2.01986 4.15798C2.00052 4.39469 2.00005 4.70206 2.00005 5.16V5.44C2.00005 5.89794 2.00052 6.20532 2.01986 6.44202C2.03862 6.67172 2.07213 6.78154 2.10904 6.85399C2.20492 7.04215 2.3579 7.19513 2.54606 7.29101C2.61851 7.32792 2.72833 7.36143 2.95803 7.38019C3.19473 7.39953 3.50211 7.4 3.96005 7.4H12.04ZM3.20005 5.39784C3.20027 5.06647 3.46908 4.79802 3.80045 4.79824L5.80045 4.79959C6.13182 4.79981 6.40027 5.06862 6.40005 5.39999C6.39983 5.73136 6.13102 5.99981 5.79965 5.99959L3.79965 5.99824C3.46828 5.99802 3.19983 5.72921 3.20005 5.39784ZM3.20005 10.5996C3.20027 10.2682 3.46908 9.99978 3.80045 10L5.80045 10.0013C6.13182 10.0016 6.40027 10.2704 6.40005 10.6017C6.39983 10.9331 6.13102 11.2016 5.79965 11.2013L3.79965 11.2C3.46828 11.1998 3.19983 10.931 3.20005 10.5996Z" fill="#FA7317"/>
</g>
</svg>
