<svg width="16" height="16" viewBox="0 0 16 16" fill="none" xmlns="http://www.w3.org/2000/svg">
<g id="24 / Done status" clip-path="url(#clip0_10773_25972)">
<path id="Vector (Stroke)" fill-rule="evenodd" clip-rule="evenodd" d="M2.06731 2.61461C2.01057 2.92889 1.98904 3.3772 1.98904 4.0365V11.9631C1.98904 12.6224 2.01057 13.0707 2.06731 13.385C2.12333 13.6953 2.19977 13.7917 2.24363 13.8307C2.29333 13.8749 2.40447 13.9372 2.71703 13.9735C3.03104 14.0099 3.44505 14.0108 4.03675 14.0108H11.9634C12.555 14.0108 12.9691 14.0099 13.2831 13.9735C13.5956 13.9372 13.7068 13.8749 13.7565 13.8307C13.8003 13.7917 13.8768 13.6953 13.9328 13.385C13.9895 13.0707 14.0111 12.6224 14.0111 11.9631V6.01815C14.0111 5.68982 14.2772 5.42366 14.6056 5.42366C14.9339 5.42366 15.2 5.68982 15.2 6.01815V11.9631C15.2 12.6249 15.1803 13.1674 15.1029 13.5963C15.0247 14.0291 14.8741 14.4281 14.5464 14.7194C14.2245 15.0055 13.8196 15.1082 13.42 15.1546C13.0295 15.1998 12.5466 15.1998 11.9958 15.1998H4.00427C3.4535 15.1998 2.97057 15.1998 2.58009 15.1546C2.18049 15.1082 1.77558 15.0055 1.45371 14.7194C1.12602 14.4281 0.975394 14.0291 0.897238 13.5963C0.819808 13.1674 0.800049 12.6249 0.800049 11.9631V4.0365C0.800049 3.3747 0.819808 2.83219 0.897238 2.40335C0.975394 1.97049 1.12602 1.57153 1.45371 1.28025C1.77558 0.994141 2.18049 0.891376 2.58009 0.845046C2.97057 0.799773 3.45351 0.799788 4.00428 0.799805L11.3028 0.799806C11.6311 0.799806 11.8973 1.06597 11.8973 1.3943C11.8973 1.72263 11.6311 1.9888 11.3028 1.9888H4.03675C3.44505 1.9888 3.03104 1.98972 2.71703 2.02613C2.40447 2.06236 2.29333 2.12474 2.24363 2.16891C2.19977 2.2079 2.12333 2.30436 2.06731 2.61461ZM14.3427 2.27352C14.5867 2.49316 14.6065 2.86905 14.3869 3.1131L9.27581 8.79207C8.8374 9.27919 8.37387 9.62452 7.8082 9.57624C7.54649 9.5539 7.32877 9.44987 7.16035 9.35021C7.0352 9.27616 6.90087 9.18112 6.78171 9.09681C6.74868 9.07344 6.71682 9.0509 6.68665 9.02986C6.67594 9.0224 6.66549 9.01458 6.6553 9.00643L4.32592 7.14293C4.06954 6.93782 4.02797 6.56371 4.23307 6.30733C4.43818 6.05094 4.81229 6.00938 5.06868 6.21448L7.38291 8.06587C7.42536 8.09554 7.46369 8.12262 7.49892 8.14752C7.60707 8.22392 7.68609 8.27975 7.76585 8.32695C7.86629 8.38638 7.90384 8.39109 7.90932 8.39156C7.90937 8.39156 7.90925 8.39155 7.90932 8.39156C7.91024 8.39165 7.9127 8.39191 7.91979 8.39012C7.92886 8.38783 7.95175 8.38059 7.99065 8.3579C8.07402 8.30927 8.20359 8.20607 8.39204 7.99668L13.5031 2.31771C13.7228 2.07366 14.0987 2.05388 14.3427 2.27352Z" fill="#59B446"/>
</g>
<defs>
<clipPath id="clip0_10773_25972">
<rect width="16" height="16" fill="white"/>
</clipPath>
</defs>
</svg>
