<svg width="14" height="14" viewBox="0 0 14 14" fill="none" xmlns="http://www.w3.org/2000/svg">
<path d="M12.3533 7C12.3533 4.06 9.94001 1.64666 7.00001 1.64666C4.06001 1.64666 1.64668 4.06 1.64668 7C1.64668 9.93999 4.06001 12.3533 7.00001 12.3533C9.94001 12.3533 12.3533 9.93999 12.3533 7ZM13.6667 7C13.6667 10.6933 10.6933 13.6667 7.00001 13.6667C3.30668 13.6667 0.333344 10.6933 0.333344 7C0.333344 3.30666 3.30668 0.333328 7.00001 0.333328C10.6933 0.333328 13.6667 3.30666 13.6667 7ZM8.02668 7.66666V9.66666L10.6667 7L8.02668 4.33333V6.33333H3.33334V7.66666" fill="#5DCB42"/>
</svg>
