<svg width="20" height="20" viewBox="0 0 20 20" fill="none" xmlns="http://www.w3.org/2000/svg">
<g id="24 / In progress">
<g id="Icon">
<path fill-rule="evenodd" clip-rule="evenodd" d="M9.83325 17.1668C13.8833 17.1668 17.1666 13.8836 17.1666 9.8335C17.1666 5.78341 13.8833 2.50016 9.83325 2.50016C5.78316 2.50016 2.49992 5.78341 2.49992 9.8335C2.49992 13.8836 5.78316 17.1668 9.83325 17.1668ZM9.83325 18.8335C14.8038 18.8335 18.8333 14.8041 18.8333 9.8335C18.8333 4.86293 14.8038 0.833496 9.83325 0.833496C4.86269 0.833496 0.833252 4.86293 0.833252 9.8335C0.833252 14.8041 4.86269 18.8335 9.83325 18.8335Z" fill="#E9B308"/>
<path d="M11.2499 10.2085C11.2499 10.7838 10.7835 11.2502 10.2083 11.2502C9.63296 11.2502 9.16658 10.7838 9.16658 10.2085C9.16658 9.6332 9.63296 9.16683 10.2083 9.16683C10.7835 9.16683 11.2499 9.6332 11.2499 10.2085Z" fill="#E9B308"/>
<path d="M7.08325 10.2085C7.08325 10.7838 6.61688 11.2502 6.04158 11.2502C5.46629 11.2502 4.99992 10.7838 4.99992 10.2085C4.99992 9.6332 5.46629 9.16683 6.04158 9.16683C6.61688 9.16683 7.08325 9.6332 7.08325 10.2085Z" fill="#E9B308"/>
<path d="M15.4166 10.2085C15.4166 10.7838 14.9502 11.2502 14.3749 11.2502C13.7996 11.2502 13.3333 10.7838 13.3333 10.2085C13.3333 9.6332 13.7996 9.16683 14.3749 9.16683C14.9502 9.16683 15.4166 9.6332 15.4166 10.2085Z" fill="#E9B308"/>
</g>
</g>
</svg>
