<svg width="16" height="16" viewBox="0 0 16 16" fill="none" xmlns="http://www.w3.org/2000/svg">
<g id="24 / In progress status">
<path id="Vector (Stroke)" fill-rule="evenodd" clip-rule="evenodd" d="M2.69129 7.23456C2.26983 7.23456 1.92816 7.57622 1.92816 7.99769C1.92816 8.41916 2.26983 8.76082 2.69129 8.76082C3.11276 8.76082 3.45443 8.41916 3.45443 7.99769C3.45443 7.57622 3.11276 7.23456 2.69129 7.23456ZM0.800049 7.99769C0.800049 6.95318 1.64679 6.10645 2.69129 6.10645C3.7358 6.10645 4.58254 6.95318 4.58254 7.99769C4.58254 9.04219 3.7358 9.88893 2.69129 9.88893C1.64679 9.88893 0.800049 9.04219 0.800049 7.99769ZM8.00005 7.23456C7.57858 7.23456 7.23692 7.57622 7.23692 7.99769C7.23692 8.41916 7.57858 8.76082 8.00005 8.76082C8.42152 8.76082 8.76318 8.41916 8.76318 7.99769C8.76318 7.57622 8.42152 7.23456 8.00005 7.23456ZM6.1088 7.99769C6.1088 6.95318 6.95554 6.10645 8.00005 6.10645C9.04455 6.10645 9.89129 6.95318 9.89129 7.99769C9.89129 9.04219 9.04455 9.88893 8.00005 9.88893C6.95554 9.88893 6.1088 9.04219 6.1088 7.99769ZM13.3088 7.23456C12.8873 7.23456 12.5457 7.57622 12.5457 7.99769C12.5457 8.41916 12.8873 8.76082 13.3088 8.76082C13.7303 8.76082 14.0719 8.41916 14.0719 7.99769C14.0719 7.57622 13.7303 7.23456 13.3088 7.23456ZM11.4176 7.99769C11.4176 6.95318 12.2643 6.10645 13.3088 6.10645C14.3533 6.10645 15.2 6.95318 15.2 7.99769C15.2 9.04219 14.3533 9.88893 13.3088 9.88893C12.2643 9.88893 11.4176 9.04219 11.4176 7.99769Z" fill="#E9B308"/>
</g>
</svg>
