<svg width="14" height="14" viewBox="0 0 14 14" fill="none" xmlns="http://www.w3.org/2000/svg">
<path d="M7.66667 0.333328V1.66666C10.5933 2.02666 12.6667 4.68666 12.3067 7.61333C12 10.04 10.0933 11.9533 7.66667 12.2533V13.5867C11.3333 13.1867 13.9667 9.89333 13.5667 6.23333C13.22 3.12666 10.7733 0.666662 7.66667 0.333328ZM6.33334 0.333328C5.02667 0.453328 3.79334 0.966661 2.78 1.79999L3.73334 2.82666C4.48 2.22666 5.38 1.83999 6.33334 1.70666V0.373328V0.333328ZM1.84 2.77999C1 3.79333 0.493335 5.02666 0.366669 6.33333H1.7C1.82667 5.38666 2.2 4.48666 2.79334 3.73333L1.84 2.77999ZM0.373335 7.66666C0.506669 8.97333 1.02 10.2067 1.84667 11.22L2.79334 10.2667C2.20667 9.51333 1.82667 8.61333 1.70667 7.66666H0.373335ZM3.70667 11.2467L2.78 12.16C3.78667 13 5.02667 13.5267 6.33334 13.6667V12.3333C5.38667 12.2133 4.48667 11.8333 3.73334 11.2467H3.70667ZM7.66667 7.66666V3.66666H6.33334V7.66666H7.66667ZM7.66667 10.3333V9H6.33334V10.3333H7.66667Z" fill="#F33A3D"/>
</svg>
