<svg width="14" height="14" viewBox="0 0 14 14" fill="none" xmlns="http://www.w3.org/2000/svg">
<path d="M6.33333 11H7.66667V9.66666H6.33333V11ZM7 0.333328C6.12452 0.333328 5.25761 0.505767 4.44878 0.840798C3.63994 1.17583 2.90501 1.66689 2.28595 2.28595C1.03571 3.53619 0.333332 5.23188 0.333332 7C0.333332 8.76811 1.03571 10.4638 2.28595 11.714C2.90501 12.3331 3.63994 12.8242 4.44878 13.1592C5.25761 13.4942 6.12452 13.6667 7 13.6667C8.76811 13.6667 10.4638 12.9643 11.714 11.714C12.9643 10.4638 13.6667 8.76811 13.6667 7C13.6667 6.12452 13.4942 5.25761 13.1592 4.44877C12.8242 3.63993 12.3331 2.90501 11.714 2.28595C11.095 1.66689 10.3601 1.17583 9.55122 0.840798C8.74238 0.505767 7.87548 0.333328 7 0.333328ZM7 12.3333C4.06 12.3333 1.66667 9.93999 1.66667 7C1.66667 4.06 4.06 1.66666 7 1.66666C9.94 1.66666 12.3333 4.06 12.3333 7C12.3333 9.93999 9.94 12.3333 7 12.3333ZM7 2.99999C6.29276 2.99999 5.61448 3.28095 5.11438 3.78104C4.61428 4.28114 4.33333 4.95942 4.33333 5.66666H5.66667C5.66667 5.31304 5.80714 4.9739 6.05719 4.72385C6.30724 4.4738 6.64638 4.33333 7 4.33333C7.35362 4.33333 7.69276 4.4738 7.94281 4.72385C8.19286 4.9739 8.33333 5.31304 8.33333 5.66666C8.33333 7 6.33333 6.83333 6.33333 9H7.66667C7.66667 7.5 9.66667 7.33333 9.66667 5.66666C9.66667 4.95942 9.38571 4.28114 8.88562 3.78104C8.38552 3.28095 7.70724 2.99999 7 2.99999Z" fill="#F7A90D"/>
</svg>
