<svg width="14" height="14" viewBox="0 0 14 14" fill="none" xmlns="http://www.w3.org/2000/svg">
<path d="M6.99998 1.64666C9.93998 1.64666 12.3533 4.06 12.3533 7C12.3533 9.93999 9.93998 12.3533 6.99998 12.3533C4.05998 12.3533 1.64665 9.93999 1.64665 7C1.64665 4.06 4.05998 1.64666 6.99998 1.64666ZM6.99998 0.333328C3.30665 0.333328 0.333313 3.30666 0.333313 7C0.333313 10.6933 3.30665 13.6667 6.99998 13.6667C10.6933 13.6667 13.6666 10.6933 13.6666 7C13.6666 3.30666 10.6933 0.333328 6.99998 0.333328ZM5.74665 6.68666L4.33331 8.09333V4.33333H8.09331L6.68665 5.74666L9.99998 9.06666L9.06665 10" fill="#F33A3D"/>
</svg>
