<svg width="15" height="14" viewBox="0 0 15 14" fill="none" xmlns="http://www.w3.org/2000/svg">
<path d="M7.66667 0.353333V1.7C10.5933 2.06 12.6667 4.72 12.3067 7.64667C12 10.0733 10.0933 12 7.66667 12.2867V13.62C11.3333 13.2533 14 10 13.6333 6.33333C13.3333 3.16667 10.82 0.666666 7.66667 0.353333ZM6.33334 0.373332C5.03334 0.499999 3.79334 0.999999 2.78 1.84L3.73334 2.82667C4.48 2.22667 5.38 1.84 6.33334 1.70667V0.373332ZM1.84 2.78C1 3.79333 0.500002 5.02667 0.366669 6.33333H1.7C1.82667 5.38667 2.2 4.48667 2.79334 3.73333L1.84 2.78ZM0.373335 7.66667C0.506669 8.97333 1.02 10.2067 1.84667 11.22L2.79334 10.2667C2.20667 9.51333 1.82667 8.61333 1.70667 7.66667H0.373335ZM3.73334 11.2467L2.78 12.16C3.78667 13 5.02667 13.5267 6.33334 13.6667V12.3333C5.38667 12.2133 4.48667 11.8333 3.73334 11.2467ZM12.3333 1.66667H28.3333H12.3333ZM7.66667 11H6.33334V9.66667H7.66667V11ZM7.66667 9H6.33334C6.33334 6.83333 8.33334 7 8.33334 5.66667C8.33334 4.93333 7.73334 4.33333 7 4.33333C6.26667 4.33333 5.66667 4.93333 5.66667 5.66667H4.33334C4.33334 4.19333 5.52667 3 7 3C8.47334 3 9.66667 4.19333 9.66667 5.66667C9.66667 7.33333 7.66667 7.5 7.66667 9Z" fill="#4D4D4D"/>
</svg>
