<svg width="14" height="14" viewBox="0 0 14 14" fill="none" xmlns="http://www.w3.org/2000/svg">
<path fill-rule="evenodd" clip-rule="evenodd" d="M7.00039 1.60002C5.56822 1.60002 4.19471 2.16895 3.18201 3.18165C2.16932 4.19434 1.60039 5.56786 1.60039 7.00002C1.60039 7.70916 1.74007 8.41136 2.01144 9.06651C2.28282 9.72167 2.68058 10.317 3.18201 10.8184C3.68345 11.3198 4.27874 11.7176 4.9339 11.989C5.58906 12.2604 6.29125 12.4 7.00039 12.4C7.70953 12.4 8.41172 12.2604 9.06688 11.989C9.72204 11.7176 10.3173 11.3198 10.8188 10.8184C11.3202 10.317 11.718 9.72167 11.9893 9.06651C12.2607 8.41136 12.4004 7.70916 12.4004 7.00002C12.4004 5.56786 11.8315 4.19434 10.8188 3.18165C9.80607 2.16895 8.43256 1.60002 7.00039 1.60002ZM2.33349 2.33312C3.57123 1.09538 5.24996 0.400024 7.00039 0.400024C8.75082 0.400024 10.4296 1.09538 11.6673 2.33312C12.905 3.57086 13.6004 5.2496 13.6004 7.00002C13.6004 7.86675 13.4297 8.72499 13.098 9.52574C12.7663 10.3265 12.2802 11.0541 11.6673 11.6669C11.0544 12.2798 10.3269 12.7659 9.5261 13.0976C8.72535 13.4293 7.86711 13.6 7.00039 13.6C6.13367 13.6 5.27543 13.4293 4.47468 13.0976C3.67393 12.7659 2.94635 12.2798 2.33349 11.6669C1.72062 11.0541 1.23447 10.3265 0.902786 9.52574C0.571105 8.72499 0.400391 7.86675 0.400391 7.00002C0.400391 5.2496 1.09575 3.57086 2.33349 2.33312ZM7.00039 3.06669C7.33176 3.06669 7.60039 3.33532 7.60039 3.66669V3.78399C8.23683 3.89305 8.81209 4.17569 9.1862 4.60675C9.4034 4.85701 9.37659 5.23596 9.12633 5.45316C8.87607 5.67036 8.49712 5.64356 8.27992 5.3933C8.15003 5.24364 7.9146 5.09712 7.60039 5.01105V6.45043C8.02764 6.5235 8.42203 6.67428 8.74743 6.89119C9.21672 7.20401 9.60039 7.70206 9.60039 8.33336C9.60039 8.96466 9.21672 9.4627 8.74743 9.77552C8.42203 9.99244 8.02764 10.1432 7.60039 10.2163V10.3334C7.60039 10.6647 7.33176 10.9334 7.00039 10.9334C6.66902 10.9334 6.40039 10.6647 6.40039 10.3334V10.2161C5.76395 10.107 5.18869 9.82435 4.81459 9.3933C4.59739 9.14304 4.62419 8.76409 4.87445 8.54689C5.12471 8.32969 5.50366 8.35649 5.72086 8.60675C5.85075 8.75641 6.08618 8.90293 6.40039 8.989V7.54962C5.97314 7.47654 5.57875 7.32577 5.25335 7.10886C4.78406 6.79604 4.40039 6.29799 4.40039 5.66669C4.40039 5.03539 4.78406 4.53735 5.25335 4.22453C5.57875 4.00761 5.97314 3.85684 6.40039 3.78376V3.66669C6.40039 3.33532 6.66902 3.06669 7.00039 3.06669ZM6.40039 5.01122C6.21094 5.06301 6.04772 5.13717 5.91893 5.22302C5.66438 5.3927 5.60039 5.56132 5.60039 5.66669C5.60039 5.77206 5.66438 5.94068 5.91893 6.11036C6.04772 6.19621 6.21094 6.27037 6.40039 6.32216V5.01122ZM7.60039 7.67789V8.98883C7.78984 8.93704 7.95306 8.86288 8.08185 8.77703C8.3364 8.60735 8.40039 8.43873 8.40039 8.33336C8.40039 8.22799 8.3364 8.05937 8.08185 7.88969C7.95306 7.80384 7.78984 7.72968 7.60039 7.67789Z" fill="#C562C3"/>
</svg>
