<svg width="14" height="14" viewBox="0 0 14 14" fill="none" xmlns="http://www.w3.org/2000/svg">
<path d="M7 12.3333C8.41448 12.3333 9.77104 11.7714 10.7712 10.7712C11.7714 9.77104 12.3333 8.41448 12.3333 7C12.3333 5.58551 11.7714 4.22895 10.7712 3.22876C9.77104 2.22856 8.41448 1.66666 7 1.66666C5.58551 1.66666 4.22895 2.22856 3.22876 3.22876C2.22856 4.22895 1.66666 5.58551 1.66666 7C1.66666 8.41448 2.22856 9.77104 3.22876 10.7712C4.22895 11.7714 5.58551 12.3333 7 12.3333ZM7 0.333328C7.87547 0.333328 8.74238 0.505767 9.55122 0.840798C10.3601 1.17583 11.095 1.66689 11.714 2.28595C12.3331 2.90501 12.8242 3.63993 13.1592 4.44877C13.4942 5.25761 13.6667 6.12452 13.6667 7C13.6667 8.76811 12.9643 10.4638 11.714 11.714C10.4638 12.9643 8.76811 13.6667 7 13.6667C3.31333 13.6667 0.333328 10.6667 0.333328 7C0.333328 5.23188 1.03571 3.53619 2.28595 2.28595C3.53619 1.03571 5.23188 0.333328 7 0.333328ZM7.33333 3.66666V7.16666L10.3333 8.94666L9.83333 9.76666L6.33333 7.66666V3.66666H7.33333Z" fill="#C562C3"/>
</svg>
