<svg width="12" height="12" viewBox="0 0 12 12" fill="none" xmlns="http://www.w3.org/2000/svg">
<path d="M12 4.74667H7.48001L9.30668 2.86667C7.48668 1.06667 4.54001 1 2.72001 2.8C0.900013 4.60667 0.900013 7.52 2.72001 9.33333C4.54001 11.1333 7.48668 11.1333 9.30668 9.33333C10.2133 8.43333 10.6667 7.38667 10.6667 6.06667H12C12 7.38667 11.4133 9.1 10.24 10.26C7.90001 12.58 4.10001 12.58 1.76001 10.26C-0.57332 7.94667 -0.59332 4.18667 1.74668 1.87333C4.08668 -0.44 7.84001 -0.44 10.18 1.87333L12 0V4.74667ZM6.33335 3.33333V6.16667L8.66668 7.55333L8.18668 8.36L5.33335 6.66667V3.33333H6.33335Z" fill="#6E82AB"/>
</svg>
