<svg width="16" height="16" viewBox="0 0 16 16" fill="none" xmlns="http://www.w3.org/2000/svg">
<g id="24 / To-do status">
<path id="Vector (Stroke)" fill-rule="evenodd" clip-rule="evenodd" d="M5.40555 0.799805C5.72783 0.799805 5.98909 1.06107 5.98909 1.38335V1.77238H10.0091V1.38335C10.0091 1.06107 10.2703 0.799805 10.5926 0.799805C10.9149 0.799805 11.1762 1.06107 11.1762 1.38335V1.77238L11.2729 1.77238C11.8135 1.77236 12.2875 1.77235 12.6708 1.81679C13.0631 1.86227 13.4605 1.96314 13.7765 2.24397C14.0981 2.52989 14.246 2.9215 14.3227 3.34639C14.3987 3.76734 14.4181 4.29986 14.4181 4.94947V6.57043C14.4181 6.89271 14.1568 7.15397 13.8345 7.15397C13.5123 7.15397 13.251 6.89271 13.251 6.57043V4.94947C13.251 4.30231 13.2299 3.86225 13.1742 3.55376C13.1192 3.24922 13.0442 3.15454 13.0011 3.11627C12.9523 3.07291 12.8432 3.01169 12.5364 2.97611C12.2282 2.94038 11.8218 2.93947 11.241 2.93947H11.1762V3.3285C11.1762 3.65079 10.9149 3.91205 10.5926 3.91205C10.2703 3.91205 10.0091 3.65079 10.0091 3.3285V2.93947H5.98909V3.3285C5.98909 3.65079 5.72783 3.91205 5.40555 3.91205C5.08326 3.91205 4.822 3.65079 4.822 3.3285V2.93947H4.75716C4.17636 2.93947 3.76998 2.94038 3.46175 2.97611C3.15495 3.01169 3.04585 3.07291 2.99708 3.11627C2.95402 3.15454 2.87898 3.24922 2.824 3.55376C2.7683 3.86225 2.74717 4.30231 2.74717 4.94947V11.7575C2.74717 12.4047 2.7683 12.8447 2.824 13.1532C2.87898 13.4577 2.95402 13.5524 2.99708 13.5907C3.04585 13.6341 3.15495 13.6953 3.46175 13.7309C3.76998 13.7666 4.17636 13.7675 4.75716 13.7675H6.05393C6.37621 13.7675 6.63748 14.0288 6.63748 14.351C6.63748 14.6733 6.37621 14.9346 6.05393 14.9346H4.72528C4.18466 14.9346 3.71062 14.9346 3.32733 14.8902C2.9351 14.8447 2.53764 14.7438 2.2217 14.463C1.90004 14.1771 1.75219 13.7855 1.67548 13.3606C1.59947 12.9396 1.58008 12.4071 1.58008 11.7575V4.94947C1.58008 4.29986 1.59947 3.76734 1.67548 3.34639C1.75219 2.9215 1.90004 2.52989 2.2217 2.24397C2.53764 1.96314 2.9351 1.86227 3.32733 1.81679C3.71063 1.77235 4.18466 1.77236 4.72529 1.77238L4.822 1.77238V1.38335C4.822 1.06107 5.08326 0.799805 5.40555 0.799805ZM11.5693 8.42081C12.221 7.76911 13.2776 7.76911 13.9293 8.42081C14.581 9.07252 14.581 10.1291 13.9293 10.7808L10.6778 14.0324C10.5294 14.1808 10.3455 14.2889 10.1436 14.3465L7.15032 15.1998L8.00366 12.2065C8.06121 12.0046 8.16932 11.8208 8.31776 11.6723L11.5693 8.42081ZM13.1041 9.24607C12.9081 9.05014 12.5905 9.05014 12.3945 9.24607L9.14302 12.4976C9.13499 12.5056 9.12914 12.5156 9.12603 12.5265L8.84785 13.5023L9.82365 13.2241C9.83456 13.221 9.8445 13.2151 9.85253 13.2071L13.1041 9.95559C13.3 9.75966 13.3 9.442 13.1041 9.24607Z" fill="#3B82F6"/>
</g>
</svg>
