<svg width="14" height="14" viewBox="0 0 14 14" fill="none" xmlns="http://www.w3.org/2000/svg">
<path d="M6.99986 0.333298C3.33319 0.333298 0.333191 3.3333 0.333191 6.99997C0.333191 10.6666 3.33319 13.6666 6.99986 13.6666C10.6665 13.6666 13.6665 10.6666 13.6665 6.99997C13.6665 3.3333 10.6665 0.333298 6.99986 0.333298ZM6.99986 12.3333C4.05986 12.3333 1.66652 9.93997 1.66652 6.99997C1.66652 4.05996 4.05986 1.66663 6.99986 1.66663C9.93986 1.66663 12.3332 4.05996 12.3332 6.99997C12.3332 9.93997 9.93986 12.3333 6.99986 12.3333ZM10.0599 4.0533L5.66652 8.44663L3.93986 6.72663L2.99986 7.66663L5.66652 10.3333L10.9999 4.99996L10.0599 4.0533Z" fill="#5DCB42"/>
</svg>
