<svg width="20" height="20" viewBox="0 0 20 20" fill="none" xmlns="http://www.w3.org/2000/svg">
<g id="24/ Image-add">
<path id="Icon" fill-rule="evenodd" clip-rule="evenodd" d="M15.2191 1.66665C15.5934 1.66665 15.8968 1.97003 15.8968 2.34428V4.60316H18.1555C18.5298 4.60316 18.8332 4.90655 18.8332 5.28079C18.8332 5.65504 18.5298 5.95843 18.1555 5.95843H15.8968V8.21709C15.8968 8.59133 15.5934 8.89472 15.2191 8.89472C14.8449 8.89472 14.5415 8.59133 14.5415 8.21709V5.95843H12.2827C11.9085 5.95843 11.6051 5.65504 11.6051 5.28079C11.6051 4.90655 11.9085 4.60316 12.2827 4.60316H14.5415V2.34428C14.5415 1.97003 14.8449 1.66665 15.2191 1.66665ZM1.6665 5.05481C1.6665 3.68257 2.77892 2.57016 4.15115 2.57016H9.12045C9.4947 2.57016 9.79808 2.87354 9.79808 3.24779C9.79808 3.62203 9.4947 3.92542 9.12045 3.92542H4.15115C3.52741 3.92542 3.02177 4.43106 3.02177 5.05481V11.5978L6.6562 8.59799C6.92948 8.37242 7.33041 8.3955 7.57602 8.65092L10.3596 11.5459L13.488 9.46028C13.7495 9.28596 14.0965 9.31429 14.3262 9.52872L17.7144 12.691C17.8517 12.8192 17.9297 12.9986 17.9297 13.1864V16.3487C17.9297 17.7209 16.8172 18.8333 15.445 18.8333H4.15115C2.77892 18.8333 1.6665 17.7209 1.6665 16.3487V5.05481ZM11.314 12.5384L13.2229 14.5237C13.4823 14.7935 13.4739 15.2225 13.2042 15.4819C12.9344 15.7413 12.5054 15.7328 12.246 15.4631L7.03447 10.0431L3.02177 13.3551V16.3487C3.02177 16.9724 3.52741 17.4781 4.15115 17.4781H15.445C16.0688 17.4781 16.5744 16.9724 16.5744 16.3487V13.4809L13.7936 10.8854L11.314 12.5384Z" fill="#D9DDEC"/>
</g>
</svg>
