<svg width="64" height="64" viewBox="0 0 64 64" fill="none" xmlns="http://www.w3.org/2000/svg">
<g id="24 / Bike">
<path id="Icon" d="M50.6465 33.7698C48.7926 26.8922 46.0165 19.3504 44.6273 15.703C45.807 15.2251 47.0128 14.8136 48.2388 14.4704C48.5733 14.3836 48.9233 14.375 49.2616 14.4453C49.5999 14.5156 49.9173 14.6629 50.1891 14.8756C50.4893 15.1034 50.7324 15.3972 50.8995 15.7342C51.0666 16.0712 51.1531 16.4422 51.1521 16.818H55.9675C55.971 15.707 55.7161 14.6103 55.2228 13.6139C54.7294 12.6175 54.0111 11.7484 53.124 11.0747C52.2689 10.4112 51.271 9.95421 50.2086 9.73952C49.1463 9.52482 48.0484 9.5583 47.0012 9.83734C44.7932 10.4806 42.6316 11.273 40.5317 12.209L38.4298 13.1514L39.2845 15.2857C39.3086 15.3456 40.5028 18.3288 41.9836 22.4582L31.9386 30.2375L23.2564 21.5878H27.0751V16.7917H12.6288V21.5878H16.4475L28.108 33.2039L23.3239 36.9113C21.1722 34.8921 18.3449 33.7399 15.3893 33.6779C12.4337 33.6158 9.56008 34.6482 7.3249 36.5753C5.08972 38.5023 3.65197 41.1869 3.29003 44.1091C2.92809 47.0313 3.66772 49.9834 5.3657 52.3937C7.06368 54.804 9.59921 56.501 12.4814 57.1562C15.3635 57.8113 18.3872 57.3781 20.967 55.9402C23.5468 54.5024 25.4992 52.1623 26.4461 49.373C27.393 46.5838 27.2671 43.5438 26.0927 40.8417L43.6401 27.2471C44.3624 29.4509 45.0847 31.7579 45.7252 34.0072C42.8431 34.7555 40.3417 36.5412 38.7047 39.0194C37.0676 41.4976 36.411 44.4922 36.8618 47.4245C37.3126 50.3568 38.8388 53.0185 41.1453 54.8953C43.4519 56.7721 46.3751 57.7306 49.3499 57.5857C52.3248 57.4407 55.1401 56.2026 57.2517 54.1105C59.3633 52.0184 60.6213 49.221 60.7825 46.2589C60.9438 43.2968 59.9968 40.3803 58.1247 38.0731C56.2526 35.7659 53.5882 34.2343 50.6465 33.7698ZM15.0365 52.7623C13.6079 52.7623 12.2114 52.3404 11.0236 51.5499C9.83575 50.7594 8.90995 49.6358 8.36325 48.3213C7.81655 47.0067 7.67351 45.5602 7.95221 44.1647C8.23092 42.7692 8.91885 41.4873 9.92902 40.4812C10.9392 39.4751 12.2262 38.7899 13.6274 38.5123C15.0285 38.2347 16.4809 38.3772 17.8007 38.9217C19.1206 39.4662 20.2487 40.3883 21.0423 41.5714C21.836 42.7544 22.2597 44.1453 22.2597 45.5682C22.2597 47.4762 21.4987 49.3061 20.1441 50.6552C18.7895 52.0044 16.9522 52.7623 15.0365 52.7623ZM48.7444 52.7623C47.3158 52.7623 45.9193 52.3404 44.7315 51.5499C43.5436 50.7594 42.6178 49.6358 42.0711 48.3213C41.5244 47.0067 41.3814 45.5602 41.6601 44.1647C41.9388 42.7692 42.6267 41.4873 43.6369 40.4812C44.6471 39.4751 45.9341 38.7899 47.3353 38.5123C48.7364 38.2347 50.1887 38.3772 51.5086 38.9217C52.8284 39.4662 53.9565 40.3883 54.7502 41.5714C55.5439 42.7544 55.9675 44.1453 55.9675 45.5682C55.9675 47.4762 55.2065 49.3061 53.8519 50.6552C52.4973 52.0044 50.6601 52.7623 48.7444 52.7623Z" fill="#A3AAC2"/>
</g>
</svg>
