<svg width="64" height="64" viewBox="0 0 64 64" fill="none" xmlns="http://www.w3.org/2000/svg">
<g id="24 / Boat">
<path id="Icon" fill-rule="evenodd" clip-rule="evenodd" d="M28.8685 5.06666C28.61 5.06666 28.3885 5.28815 28.3885 5.54666V8.90666H37.9885V5.54666C37.9885 5.28815 37.7671 5.06666 37.5085 5.06666H28.8685ZM42.7885 8.90666V5.54666C42.7885 2.63718 40.418 0.266663 37.5085 0.266663H28.8685C25.9591 0.266663 23.5885 2.63718 23.5885 5.54666V8.90666H21.6685C15.5911 8.90666 10.6286 13.8691 10.6285 19.9465C10.6285 19.9464 10.6285 19.9466 10.6285 19.9465L10.6279 29.2678L8.04412 30.305C4.44746 31.7519 2.28249 35.8805 3.10934 39.6426L4.29118 45.0041C6.56488 55.2517 14.7156 62.6667 26.3334 62.6667H33.1799C33.1828 62.6667 33.1857 62.6667 33.1885 62.6667C33.1914 62.6667 33.1943 62.6667 33.1972 62.6667H40.0422C51.66 62.6667 59.8107 55.2517 62.0844 45.0041L63.266 39.6441C64.0928 35.882 61.9299 31.7526 58.3332 30.3057L55.7479 29.2679L55.7485 19.9468C55.7485 13.8693 50.786 8.90666 44.7085 8.90666H42.7885ZM40.3885 13.7067C40.3877 13.7067 40.3894 13.7067 40.3885 13.7067H25.9885C25.9877 13.7067 25.9894 13.7067 25.9885 13.7067L21.6685 13.7067C18.242 13.7067 15.4285 16.5201 15.4285 19.9467L15.428 27.3421L28.0133 22.2943C31.3456 20.9753 35.03 20.9753 38.3623 22.2943L38.3724 22.2983L50.948 27.3423L50.9485 19.9467C50.9485 19.9466 50.9485 19.9467 50.9485 19.9467C50.9485 16.5202 48.135 13.7067 44.7085 13.7067L40.3885 13.7067ZM36.5957 26.7574C36.5941 26.7568 36.5925 26.7561 36.5909 26.7555C36.2613 26.6252 35.9267 26.5145 35.5885 26.4234V57.8667H40.0422C49.275 57.8667 55.5817 52.1495 57.398 43.966C57.3981 43.9654 57.3979 43.9665 57.398 43.966L58.5782 38.6123C58.5783 38.6118 58.5781 38.6128 58.5782 38.6123C58.9024 37.1331 57.9558 35.3278 56.5418 34.7589C56.5418 34.7589 56.5419 34.7589 56.5418 34.7589L36.5957 26.7574ZM30.7885 57.8667V26.423C30.4499 26.5142 30.1148 26.6251 29.7847 26.7555C29.7831 26.7561 29.7815 26.7568 29.7799 26.7574L9.83391 34.7588C8.41948 35.3278 7.47242 37.1326 7.79737 38.612C7.7974 38.6121 7.79735 38.6119 7.79737 38.612L8.97722 43.9644C8.97734 43.9649 8.9771 43.9638 8.97722 43.9644C10.7936 52.1479 17.1006 57.8667 26.3334 57.8667H30.7885Z" fill="#A3AAC2"/>
</g>
</svg>
