<svg width="64" height="64" viewBox="0 0 64 64" fill="none" xmlns="http://www.w3.org/2000/svg">
<g id="24 / Car">
<path id="Icon" d="M60.2665 25.1061C60.2665 24.1927 59.8872 23.3166 59.2121 22.6707C58.537 22.0248 57.6213 21.6619 56.6665 21.6619C56.6665 21.6619 55.2649 21.6619 55.1665 21.6803C53.3719 18.4991 51.3158 15.4594 49.0177 12.5899C47.8186 11.0981 46.1569 10.0075 44.2705 9.47408C40.0441 7.5086 22.8889 7.5086 18.6625 9.47408C16.7761 10.0075 15.1144 11.0981 13.9153 12.5899C11.6172 15.4594 9.56111 18.4991 7.7665 21.6803C7.6681 21.6619 6.2665 21.6619 6.2665 21.6619C5.31172 21.6619 4.39605 22.0248 3.72092 22.6707C3.04579 23.3166 2.6665 24.1927 2.6665 25.1061L2.6665 40.0309C2.66697 41.6427 3.11077 43.226 3.95332 44.6218C4.79587 46.0175 6.00751 47.1765 7.4665 47.9824V51.5116C7.4665 53.3385 8.22507 55.0906 9.57534 56.3824C10.9256 57.6742 12.7569 58.4 14.6665 58.4C16.5761 58.4 18.4074 57.6742 19.7577 56.3824C21.1079 55.0906 21.8665 53.3385 21.8665 51.5116V49.2155H41.0665V51.5116C41.0665 53.3385 41.8251 55.0906 43.1753 56.3824C44.5256 57.6742 46.3569 58.4 48.2665 58.4C50.1761 58.4 52.0074 57.6742 53.3577 56.3824C54.7079 55.0906 55.4665 53.3385 55.4665 51.5116V47.9824C56.9255 47.1765 58.1371 46.0175 58.9797 44.6218C59.8222 43.226 60.266 41.6427 60.2665 40.0309V25.1061ZM17.7241 15.3843C18.312 14.6589 19.1242 14.1294 20.0449 13.8712C23.6905 12.1468 39.2449 12.1468 42.8881 13.8712C43.8088 14.1294 44.621 14.6589 45.2089 15.3843C48.8536 19.9565 51.8552 24.9666 54.1369 30.2862C39.1029 28.1875 23.8301 28.1875 8.7961 30.2862C11.0778 24.9666 14.0794 19.9565 17.7241 15.3843ZM17.0665 51.5116C17.0665 52.1206 16.8136 52.7046 16.3636 53.1352C15.9135 53.5658 15.303 53.8077 14.6665 53.8077C14.03 53.8077 13.4195 53.5658 12.9694 53.1352C12.5194 52.7046 12.2665 52.1206 12.2665 51.5116V49.2155H17.0665V51.5116ZM50.6665 51.5116C50.6665 52.1206 50.4136 52.7046 49.9636 53.1352C49.5135 53.5658 48.903 53.8077 48.2665 53.8077C47.63 53.8077 47.0195 53.5658 46.5694 53.1352C46.1194 52.7046 45.8665 52.1206 45.8665 51.5116V49.2155H50.6665V51.5116ZM50.6665 44.6232H12.2665C10.9935 44.6232 9.77257 44.1394 8.87239 43.2782C7.97222 42.4169 7.4665 41.2489 7.4665 40.0309V35.1103C15.4123 33.9482 23.4299 33.2909 31.4665 33.1426C39.5031 33.2909 47.5207 33.9482 55.4665 35.1103V40.0309C55.4665 41.2489 54.9608 42.4169 54.0606 43.2782C53.1604 44.1394 51.9395 44.6232 50.6665 44.6232ZM17.0665 40.0309C17.0665 40.6399 16.8136 41.2239 16.3636 41.6545C15.9135 42.0852 15.303 42.3271 14.6665 42.3271C14.03 42.3271 13.4195 42.0852 12.9694 41.6545C12.5194 41.2239 12.2665 40.6399 12.2665 40.0309C12.2665 39.422 12.5194 38.8379 12.9694 38.4073C13.4195 37.9767 14.03 37.7348 14.6665 37.7348C15.303 37.7348 15.9135 37.9767 16.3636 38.4073C16.8136 38.8379 17.0665 39.422 17.0665 40.0309ZM50.6665 40.0309C50.6665 40.6399 50.4136 41.2239 49.9636 41.6545C49.5135 42.0852 48.903 42.3271 48.2665 42.3271C47.63 42.3271 47.0195 42.0852 46.5694 41.6545C46.1194 41.2239 45.8665 40.6399 45.8665 40.0309C45.8665 39.422 46.1194 38.8379 46.5694 38.4073C47.0195 37.9767 47.63 37.7348 48.2665 37.7348C48.903 37.7348 49.5135 37.9767 49.9636 38.4073C50.4136 38.8379 50.6665 39.422 50.6665 40.0309Z" fill="#A3AAC2"/>
</g>
</svg>
