<svg width="16" height="16" viewBox="0 0 16 16" fill="none" xmlns="http://www.w3.org/2000/svg">
<g id="24 / More-vertical">
<path id="Icon" fill-rule="evenodd" clip-rule="evenodd" d="M7.99981 3.79999C7.33706 3.79999 6.7998 3.26274 6.7998 2.59999C6.7998 1.93725 7.33706 1.39999 7.99981 1.39999C8.66255 1.39999 9.19981 1.93725 9.19981 2.59999C9.19981 3.26274 8.66255 3.79999 7.99981 3.79999ZM7.9998 9.19999C7.33706 9.19999 6.7998 8.66274 6.7998 7.99999C6.7998 7.33725 7.33706 6.79999 7.99981 6.79999C8.66255 6.79999 9.19981 7.33725 9.19981 7.99999C9.19981 8.66274 8.66255 9.19999 7.9998 9.19999ZM6.7998 13.4C6.7998 14.0627 7.33706 14.6 7.9998 14.6C8.66255 14.6 9.1998 14.0627 9.1998 13.4C9.1998 12.7373 8.66255 12.2 7.9998 12.2C7.33706 12.2 6.7998 12.7373 6.7998 13.4Z" fill="#444C6D"/>
</g>
</svg>
