<svg width="20" height="20" viewBox="0 0 20 20" fill="none" xmlns="http://www.w3.org/2000/svg">
<rect width="20" height="20" rx="10" fill="#F7610D"/>
<path fill-rule="evenodd" clip-rule="evenodd" d="M6.95135 5.5H13.0479C13.3684 5.49999 13.6359 5.49999 13.8544 5.51784C14.0823 5.53647 14.2963 5.57673 14.4987 5.67984C14.8092 5.83803 15.0616 6.09045 15.2198 6.40092C15.3229 6.60327 15.3631 6.81727 15.3818 7.0452C15.3996 7.26374 15.3996 7.53124 15.3996 7.85173V8.09827C15.3996 8.41876 15.3996 8.68626 15.3818 8.9048C15.3631 9.13273 15.3229 9.34673 15.2198 9.54908C15.1334 9.71868 15.0188 9.87095 14.8821 10C15.0188 10.1291 15.1334 10.2813 15.2198 10.4509C15.3229 10.6533 15.3631 10.8673 15.3818 11.0952C15.3996 11.3137 15.3996 11.5812 15.3996 11.9017V12.1483C15.3996 12.4688 15.3996 12.7363 15.3818 12.9548C15.3631 13.1827 15.3229 13.3967 15.2198 13.5991C15.0616 13.9096 14.8092 14.162 14.4987 14.3202C14.2963 14.4233 14.0823 14.4635 13.8544 14.4822C13.6359 14.5 13.3684 14.5 13.0479 14.5H6.95134C6.63085 14.5 6.36335 14.5 6.14481 14.4822C5.91688 14.4635 5.70288 14.4233 5.50053 14.3202C5.19006 14.162 4.93764 13.9096 4.77945 13.5991C4.67634 13.3967 4.63608 13.1827 4.61745 12.9548C4.5996 12.7363 4.5996 12.4688 4.59961 12.1483V11.9017C4.5996 11.5812 4.5996 11.3137 4.61745 11.0952C4.63608 10.8673 4.67634 10.6533 4.77945 10.4509C4.86586 10.2813 4.98039 10.1291 5.11714 10C4.98039 9.87095 4.86586 9.71868 4.77945 9.54908C4.67634 9.34673 4.63608 9.13273 4.61745 8.9048C4.5996 8.68626 4.5996 8.41875 4.59961 8.09826V7.85174C4.5996 7.53125 4.5996 7.26374 4.61745 7.0452C4.63608 6.81727 4.67634 6.60327 4.77945 6.40092C4.93764 6.09045 5.19006 5.83803 5.50053 5.67984C5.70288 5.57673 5.91688 5.53647 6.14481 5.51784C6.36335 5.49999 6.63086 5.49999 6.95135 5.5ZM6.96961 10.45C6.62615 10.45 6.39562 10.4504 6.2181 10.4649C6.04582 10.4789 5.96345 10.5041 5.90912 10.5317C5.768 10.6037 5.65326 10.7184 5.58135 10.8595C5.55367 10.9138 5.52854 10.9962 5.51446 11.1685C5.49996 11.346 5.49961 11.5765 5.49961 11.92V12.13C5.49961 12.4735 5.49996 12.704 5.51446 12.8815C5.52854 13.0538 5.55367 13.1362 5.58135 13.1905C5.65326 13.3316 5.768 13.4464 5.90912 13.5183C5.96345 13.5459 6.04582 13.5711 6.2181 13.5851C6.39562 13.5996 6.62615 13.6 6.96961 13.6H13.0296C13.3731 13.6 13.6036 13.5996 13.7811 13.5851C13.9534 13.5711 14.0358 13.5459 14.0901 13.5183C14.2312 13.4464 14.346 13.3316 14.4179 13.1905C14.4455 13.1362 14.4707 13.0538 14.4848 12.8815C14.4993 12.704 14.4996 12.4735 14.4996 12.13V11.92C14.4996 11.5765 14.4993 11.346 14.4848 11.1685C14.4707 10.9962 14.4455 10.9138 14.4179 10.8595C14.346 10.7184 14.2312 10.6037 14.0901 10.5317C14.0358 10.5041 13.9534 10.4789 13.7811 10.4649C13.6036 10.4504 13.3731 10.45 13.0296 10.45H6.96961ZM13.0296 9.55C13.3731 9.55 13.6036 9.54965 13.7811 9.53515C13.9534 9.52107 14.0358 9.49594 14.0901 9.46826C14.2312 9.39635 14.346 9.28161 14.4179 9.14049C14.4455 9.08616 14.4707 9.00379 14.4848 8.83151C14.4993 8.65399 14.4996 8.42346 14.4996 8.08V7.87C14.4996 7.52654 14.4993 7.29601 14.4848 7.11849C14.4707 6.94621 14.4455 6.86384 14.4179 6.80951C14.346 6.66839 14.2312 6.55365 14.0901 6.48175C14.0358 6.45406 13.9534 6.42893 13.7811 6.41485C13.6036 6.40035 13.3731 6.4 13.0296 6.4H6.96961C6.62615 6.4 6.39562 6.40035 6.2181 6.41485C6.04582 6.42893 5.96345 6.45406 5.90912 6.48175C5.768 6.55365 5.65326 6.66839 5.58135 6.80951C5.55367 6.86384 5.52854 6.94621 5.51446 7.11849C5.49996 7.29601 5.49961 7.52654 5.49961 7.87V8.08C5.49961 8.42346 5.49996 8.65399 5.51446 8.83151C5.52854 9.00379 5.55367 9.08616 5.58135 9.14049C5.65326 9.28161 5.768 9.39635 5.90912 9.46826C5.96345 9.49594 6.04582 9.52107 6.2181 9.53515C6.39562 9.54965 6.62615 9.55 6.96961 9.55H13.0296ZM6.39961 8.04838C6.39978 7.79985 6.60138 7.59852 6.84991 7.59868L8.34991 7.59969C8.59844 7.59986 8.79978 7.80146 8.79961 8.04999C8.79944 8.29852 8.59784 8.49986 8.34931 8.49969L6.84931 8.49868C6.60078 8.49851 6.39944 8.29691 6.39961 8.04838ZM6.39961 11.9497C6.39978 11.7012 6.60138 11.4998 6.84991 11.5L8.34991 11.501C8.59844 11.5012 8.79978 11.7028 8.79961 11.9513C8.79944 12.1998 8.59784 12.4012 8.34931 12.401L6.84931 12.4C6.60078 12.3998 6.39944 12.1982 6.39961 11.9497Z" fill="white"/>
</svg>
