<svg width="19" height="16" viewBox="0 0 19 16" fill="none" xmlns="http://www.w3.org/2000/svg">
<path fill-rule="evenodd" clip-rule="evenodd" d="M0.985692 1.66655C2.15358 0.809126 3.71123 0.300049 5.39995 0.300049C6.89614 0.300049 8.28945 0.699666 9.39995 1.38711C10.5105 0.699666 11.9038 0.300049 13.4 0.300049C15.0896 0.300049 16.6464 0.809152 17.8142 1.66655C17.9938 1.79843 18.1 2.00796 18.1 2.23081V15C18.1 15.2639 17.9516 15.5053 17.7162 15.6245C17.4808 15.7437 17.1984 15.7205 16.9857 15.5643C16.0771 14.8973 14.8161 14.4693 13.4 14.4693C11.9847 14.4693 10.7228 14.8973 9.81421 15.5643C9.56769 15.7453 9.23221 15.7453 8.98569 15.5643C8.07714 14.8973 6.81523 14.4693 5.39995 14.4693C3.98467 14.4693 2.72277 14.8973 1.81421 15.5643C1.60152 15.7205 1.3191 15.7437 1.08371 15.6245C0.848317 15.5053 0.699951 15.2639 0.699951 15V2.23081C0.699951 2.00796 0.806058 1.79843 0.985692 1.66655ZM8.69995 2.60057C7.82081 2.04599 6.67237 1.70005 5.39995 1.70005C4.12754 1.70005 2.9791 2.04599 2.09995 2.60057V13.7788C3.07282 13.3248 4.20349 13.0693 5.39995 13.0693C6.59641 13.0693 7.72708 13.3248 8.69995 13.7788V2.60057ZM10.1 13.7788C11.0728 13.3248 12.2035 13.0693 13.4 13.0693C14.597 13.0693 15.7273 13.3248 16.7 13.7787V2.60055C15.8209 2.04597 14.6731 1.70005 13.4 1.70005C12.1275 1.70005 10.9791 2.04599 10.1 2.60057V13.7788Z" fill="white"/>
</svg>
