<svg width="20" height="20" viewBox="0 0 20 20" fill="none" xmlns="http://www.w3.org/2000/svg">
<rect width="20" height="20" rx="10" fill="#FF9FA3"/>
<g clip-path="url(#clip0_8355_18291)">
<path fill-rule="evenodd" clip-rule="evenodd" d="M8.04961 4.59998C8.29814 4.59998 8.49961 4.80145 8.49961 5.04998V5.79998H11.4996V5.04998C11.4996 4.80145 11.7011 4.59998 11.9496 4.59998C12.1981 4.59998 12.3996 4.80145 12.3996 5.04998V5.79998H13.7496C14.6609 5.79998 15.3996 6.53871 15.3996 7.44998V13.75C15.3996 14.6612 14.6609 15.4 13.7496 15.4H6.24961C5.33834 15.4 4.59961 14.6612 4.59961 13.75V7.44998C4.59961 6.53871 5.33834 5.79998 6.24961 5.79998H7.59961V5.04998C7.59961 4.80145 7.80108 4.59998 8.04961 4.59998ZM7.59961 6.69998H6.24961C5.8354 6.69998 5.49961 7.03576 5.49961 7.44998V8.79998H14.4996V7.44998C14.4996 7.03576 14.1638 6.69998 13.7496 6.69998H12.3996V7.14998C12.3996 7.3985 12.1981 7.59998 11.9496 7.59998C11.7011 7.59998 11.4996 7.3985 11.4996 7.14998V6.69998H8.49961V7.14998C8.49961 7.3985 8.29814 7.59998 8.04961 7.59998C7.80108 7.59998 7.59961 7.3985 7.59961 7.14998V6.69998ZM14.4996 9.69998H5.49961V13.75C5.49961 14.1642 5.8354 14.5 6.24961 14.5H13.7496C14.1638 14.5 14.4996 14.1642 14.4996 13.75V9.69998Z" fill="white"/>
</g>
<defs>
<clipPath id="clip0_8355_18291">
<rect width="12" height="12" fill="white" transform="translate(4 4)"/>
</clipPath>
</defs>
</svg>
