<svg width="20" height="20" viewBox="0 0 20 20" fill="none" xmlns="http://www.w3.org/2000/svg">
<rect width="20" height="20" rx="10" fill="#10B982"/>
<path d="M14.8002 8.65101C14.8002 8.49877 14.737 8.35276 14.6245 8.24511C14.5119 8.13746 14.3593 8.07698 14.2002 8.07698C14.2002 8.07698 13.9666 8.07698 13.9502 8.08004C13.6511 7.54984 13.3084 7.04323 12.9254 6.56498C12.7255 6.31635 12.4486 6.13457 12.1342 6.04567C11.4298 5.71809 8.5706 5.71809 7.8662 6.04567C7.5518 6.13457 7.27485 6.31635 7.075 6.56498C6.69197 7.04323 6.3493 7.54984 6.0502 8.08004C6.0338 8.07698 5.8002 8.07698 5.8002 8.07698C5.64107 8.07698 5.48845 8.13746 5.37593 8.24511C5.26341 8.35276 5.2002 8.49877 5.2002 8.65101V11.1385C5.20027 11.4071 5.27424 11.671 5.41466 11.9036C5.55509 12.1362 5.75703 12.3294 6.0002 12.4637V13.0519C6.0002 13.3564 6.12662 13.6484 6.35167 13.8637C6.57671 14.079 6.88194 14.2 7.2002 14.2C7.51846 14.2 7.82368 14.079 8.04872 13.8637C8.27377 13.6484 8.4002 13.3564 8.4002 13.0519V12.6692H11.6002V13.0519C11.6002 13.3564 11.7266 13.6484 11.9517 13.8637C12.1767 14.079 12.4819 14.2 12.8002 14.2C13.1185 14.2 13.4237 14.079 13.6487 13.8637C13.8738 13.6484 14.0002 13.3564 14.0002 13.0519V12.4637C14.2434 12.3294 14.4453 12.1362 14.5857 11.9036C14.7262 11.671 14.8001 11.4071 14.8002 11.1385V8.65101ZM7.7098 7.03071C7.80779 6.90981 7.94314 6.82156 8.0966 6.77852C8.7042 6.49112 11.2966 6.49112 11.9038 6.77852C12.0573 6.82156 12.1926 6.90981 12.2906 7.03071C12.898 7.79274 13.3983 8.62775 13.7786 9.51436C11.2729 9.16458 8.72746 9.16458 6.2218 9.51436C6.60208 8.62775 7.10235 7.79274 7.7098 7.03071ZM7.6002 13.0519C7.6002 13.1534 7.55805 13.2508 7.48304 13.3225C7.40802 13.3943 7.30628 13.4346 7.2002 13.4346C7.09411 13.4346 6.99237 13.3943 6.91735 13.3225C6.84234 13.2508 6.8002 13.1534 6.8002 13.0519V12.6692H7.6002V13.0519ZM13.2002 13.0519C13.2002 13.1534 13.1581 13.2508 13.083 13.3225C13.008 13.3943 12.9063 13.4346 12.8002 13.4346C12.6941 13.4346 12.5924 13.3943 12.5174 13.3225C12.4423 13.2508 12.4002 13.1534 12.4002 13.0519V12.6692H13.2002V13.0519ZM13.2002 11.9039H6.8002C6.58802 11.9039 6.38454 11.8232 6.23451 11.6797C6.08448 11.5362 6.0002 11.3415 6.0002 11.1385V10.3184C7.3245 10.1247 8.66076 10.0151 10.0002 9.99042C11.3396 10.0151 12.6759 10.1247 14.0002 10.3184V11.1385C14.0002 11.3415 13.9159 11.5362 13.7659 11.6797C13.6159 11.8232 13.4124 11.9039 13.2002 11.9039ZM7.6002 11.1385C7.6002 11.24 7.55805 11.3373 7.48304 11.4091C7.40802 11.4809 7.30628 11.5212 7.2002 11.5212C7.09411 11.5212 6.99237 11.4809 6.91735 11.4091C6.84234 11.3373 6.8002 11.24 6.8002 11.1385C6.8002 11.037 6.84234 10.9397 6.91735 10.8679C6.99237 10.7961 7.09411 10.7558 7.2002 10.7558C7.30628 10.7558 7.40802 10.7961 7.48304 10.8679C7.55805 10.9397 7.6002 11.037 7.6002 11.1385ZM13.2002 11.1385C13.2002 11.24 13.1581 11.3373 13.083 11.4091C13.008 11.4809 12.9063 11.5212 12.8002 11.5212C12.6941 11.5212 12.5924 11.4809 12.5174 11.4091C12.4423 11.3373 12.4002 11.24 12.4002 11.1385C12.4002 11.037 12.4423 10.9397 12.5174 10.8679C12.5924 10.7961 12.6941 10.7558 12.8002 10.7558C12.9063 10.7558 13.008 10.7961 13.083 10.8679C13.1581 10.9397 13.2002 11.037 13.2002 11.1385Z" fill="white"/>
</svg>
