<svg width="20" height="20" viewBox="0 0 20 20" fill="none" xmlns="http://www.w3.org/2000/svg">
<rect width="20" height="20" rx="10" fill="#2563EC"/>
<g clip-path="url(#clip0_8355_18309)">
<path fill-rule="evenodd" clip-rule="evenodd" d="M8.19961 5.49998C7.37118 5.49998 6.69961 6.17155 6.69961 6.99998C6.69961 7.8284 7.37118 8.49998 8.19961 8.49998C9.02804 8.49998 9.69961 7.8284 9.69961 6.99998C9.69961 6.17155 9.02804 5.49998 8.19961 5.49998ZM5.79961 6.99998C5.79961 5.67449 6.87413 4.59998 8.19961 4.59998C9.52509 4.59998 10.5996 5.67449 10.5996 6.99998C10.5996 8.32546 9.52509 9.39998 8.19961 9.39998C6.87413 9.39998 5.79961 8.32546 5.79961 6.99998ZM11.3496 5.04998C11.3496 4.80145 11.5511 4.59998 11.7996 4.59998C13.1251 4.59998 14.1996 5.67449 14.1996 6.99998C14.1996 8.32546 13.1251 9.39998 11.7996 9.39998C11.5511 9.39998 11.3496 9.1985 11.3496 8.94998C11.3496 8.70145 11.5511 8.49998 11.7996 8.49998C12.628 8.49998 13.2996 7.8284 13.2996 6.99998C13.2996 6.17155 12.628 5.49998 11.7996 5.49998C11.5511 5.49998 11.3496 5.2985 11.3496 5.04998ZM4.59961 13.975C4.59961 12.111 6.11065 10.6 7.97461 10.6H8.42461C10.2886 10.6 11.7996 12.111 11.7996 13.975C11.7996 14.762 11.1616 15.4 10.3746 15.4H6.02461C5.2376 15.4 4.59961 14.762 4.59961 13.975ZM7.97461 11.5C6.6077 11.5 5.49961 12.6081 5.49961 13.975C5.49961 14.2649 5.73466 14.5 6.02461 14.5H10.3746C10.6646 14.5 10.8996 14.2649 10.8996 13.975C10.8996 12.6081 9.79151 11.5 8.42461 11.5H7.97461ZM11.4996 11.05C11.4996 10.8014 11.7011 10.6 11.9496 10.6H12.0246C13.8886 10.6 15.3996 12.111 15.3996 13.975C15.3996 14.762 14.7616 15.4 13.9746 15.4H12.9996C12.7511 15.4 12.5496 15.1985 12.5496 14.95C12.5496 14.7014 12.7511 14.5 12.9996 14.5H13.9746C14.2646 14.5 14.4996 14.2649 14.4996 13.975C14.4996 12.6081 13.3915 11.5 12.0246 11.5H11.9496C11.7011 11.5 11.4996 11.2985 11.4996 11.05Z" fill="white"/>
</g>
<defs>
<clipPath id="clip0_8355_18309">
<rect width="12" height="12" fill="white" transform="translate(4 4)"/>
</clipPath>
</defs>
</svg>
