<svg width="21" height="20" viewBox="0 0 21 20" fill="none" xmlns="http://www.w3.org/2000/svg">
<path fill-rule="evenodd" clip-rule="evenodd" d="M5.44438 3.9518C5.34997 2.56602 6.16834 1.10764 7.59091 1.00553C9.01348 0.903431 10.0216 2.23072 10.116 3.6165C10.2105 5.00229 9.39208 6.46067 7.96951 6.56277C6.54694 6.66488 5.53879 5.33759 5.44438 3.9518ZM7.67927 2.30253C7.23788 2.33421 6.67516 2.89166 6.74104 3.85874C6.80693 4.82582 7.43976 5.29746 7.88115 5.26578C8.32253 5.2341 8.88526 4.67665 8.81938 3.70957C8.75349 2.74249 8.12066 2.27085 7.67927 2.30253ZM13.6168 1.00602C12.1942 0.903914 11.186 2.2312 11.0916 3.61699C10.9972 5.00277 11.8156 6.46115 13.2382 6.56326C14.6607 6.66536 15.6689 5.33807 15.7633 3.95229C15.8577 2.5665 15.0393 1.10812 13.6168 1.00602ZM12.3883 3.71005C12.4542 2.74297 13.087 2.27133 13.5284 2.30301C13.9698 2.33469 14.5325 2.89214 14.4666 3.85922C14.4008 4.8263 13.7679 5.29794 13.3265 5.26626C12.8851 5.23458 12.3224 4.67713 12.3883 3.71005ZM17.4429 5.50564C16.0204 5.40354 15.0122 6.73082 14.9178 8.11661C14.8234 9.5024 15.6418 10.9608 17.0643 11.0629C18.4869 11.165 19.4951 9.8377 19.5895 8.45191C19.6839 7.06613 18.8655 5.60775 17.4429 5.50564ZM16.2145 8.20968C16.2804 7.2426 16.9132 6.77096 17.3546 6.80264C17.796 6.83432 18.3587 7.39176 18.2928 8.35885C18.2269 9.32593 17.5941 9.79757 17.1527 9.76589C16.7113 9.73421 16.1486 9.17676 16.2145 8.20968ZM1.60746 8.45613C1.51305 7.07034 2.33142 5.61196 3.75399 5.50986C5.17657 5.40775 6.18472 6.73504 6.27913 8.12083C6.37354 9.50661 5.55517 10.965 4.1326 11.0671C2.71002 11.1692 1.70188 9.84191 1.60746 8.45613ZM3.84236 6.80685C3.40097 6.83853 2.83824 7.39598 2.90413 8.36306C2.97001 9.33014 3.60285 9.80178 4.04423 9.7701C4.48562 9.73842 5.04835 9.18097 4.98246 8.21389C4.91658 7.24681 4.28374 6.77517 3.84236 6.80685ZM11.7726 18.5212C12.335 18.8407 12.9696 19.002 13.6123 18.9889C15.3828 18.9889 16.6196 17.4023 16.6196 15.1304C16.6196 11.5529 13.2311 8.18526 10.605 8.18526C7.97881 8.18526 4.59032 11.5537 4.59032 15.1304C4.53167 18.3923 7.1721 19.8246 9.43737 18.5212C9.79734 18.3266 10.1981 18.2249 10.605 18.2249C11.0118 18.2249 11.4126 18.3266 11.7726 18.5212ZM12.4447 17.1407C11.8821 16.8219 11.2475 16.6608 10.605 16.6738C9.9624 16.6608 9.32786 16.8219 8.76523 17.1407C7.07737 18.0806 6.06992 16.8042 6.09398 15.1304C6.09398 12.5221 8.74117 9.72863 10.605 9.72863C12.4687 9.72863 15.1159 12.5221 15.1159 15.1304C15.1423 16.8065 14.1265 18.0806 12.4447 17.1407Z" fill="white"/>
</svg>
