<svg width="20" height="20" viewBox="0 0 20 20" fill="none" xmlns="http://www.w3.org/2000/svg">
<g clip-path="url(#clip0_19356_162905)">
<path fill-rule="evenodd" clip-rule="evenodd" d="M9.54048 0.790478C9.79432 0.536637 10.2059 0.536637 10.4597 0.790478L19.2097 9.54048C19.4636 9.79432 19.4636 10.2059 19.2097 10.4597C18.9559 10.7136 18.5443 10.7136 18.2905 10.4597L17.4557 9.62489V17.7779C17.4557 18.2081 17.2847 18.6207 16.9805 18.925C16.6763 19.2292 16.2637 19.4001 15.8334 19.4001H4.16676C3.73652 19.4001 3.3239 19.2292 3.01968 18.925C2.71545 18.6207 2.54454 18.2081 2.54454 17.7779V9.62489L1.70972 10.4597C1.45588 10.7136 1.04432 10.7136 0.790478 10.4597C0.536637 10.2059 0.536637 9.79432 0.790478 9.54048L9.54048 0.790478ZM3.84454 8.32489V17.7779C3.84454 17.8633 3.87849 17.9453 3.93892 18.0057C3.99935 18.0661 4.08131 18.1001 4.16676 18.1001H7.08343C7.16889 18.1001 7.25085 18.0661 7.31128 18.0057C7.3717 17.9453 7.40565 17.8633 7.40565 17.7779V13.889C7.40565 13.4587 7.57657 13.0461 7.88079 12.7419C8.18502 12.4377 8.59763 12.2668 9.02787 12.2668H10.9723C11.4026 12.2668 11.8152 12.4377 12.1194 12.7419C12.4236 13.0461 12.5945 13.4587 12.5945 13.889V17.7779C12.5945 17.8633 12.6285 17.9453 12.6889 18.0057C12.7493 18.0661 12.8313 18.1001 12.9168 18.1001H15.8334C15.9189 18.1001 16.0008 18.0661 16.0613 18.0057C16.1217 17.9453 16.1557 17.8633 16.1557 17.7779V8.32489L10.0001 2.16934L3.84454 8.32489ZM11.3269 18.1001C11.3055 17.9948 11.2945 17.8869 11.2945 17.7779V13.889C11.2945 13.8035 11.2606 13.7216 11.2002 13.6611C11.1397 13.6007 11.0578 13.5668 10.9723 13.5668H9.02787C8.94242 13.5668 8.86046 13.6007 8.80003 13.6611C8.7396 13.7216 8.70565 13.8035 8.70565 13.889V17.7779C8.70565 17.8869 8.69468 17.9948 8.67334 18.1001H11.3269Z" fill="white"/>
</g>
<defs>
<clipPath id="clip0_19356_162905">
<rect width="20" height="20" fill="white"/>
</clipPath>
</defs>
</svg>
