<svg width="20" height="20" viewBox="0 0 20 20" fill="none" xmlns="http://www.w3.org/2000/svg">
<rect width="20" height="20" rx="10" fill="#C562C3"/>
<path fill-rule="evenodd" clip-rule="evenodd" d="M11.9498 14.35C11.9498 14.9299 11.4797 15.4 10.8998 15.4H9.0998C8.51991 15.4 8.04981 14.9299 8.04981 14.35V10H6.24981C5.66991 10 5.19981 9.52992 5.19981 8.95002L5.19981 5.65003C5.19981 5.07013 5.66991 4.60003 6.24981 4.60003L13.7498 4.60003C14.3297 4.60003 14.7998 5.07013 14.7998 5.65003L14.7998 11.35C14.7998 11.9299 14.3297 12.4 13.7498 12.4H11.9498V14.35ZM11.9498 11.5H13.7498C13.8326 11.5 13.8998 11.4329 13.8998 11.35L13.8998 5.65003C13.8998 5.56718 13.8326 5.50002 13.7498 5.50002H11.9498L11.9498 11.5ZM11.0498 5.50002H8.94981V14.35C8.94981 14.4329 9.01696 14.5 9.0998 14.5H10.8998C10.9826 14.5 11.0498 14.4329 11.0498 14.35L11.0498 5.50002ZM8.04981 5.50002L6.24981 5.50002C6.16696 5.50002 6.0998 5.56718 6.0998 5.65003L6.0998 8.95002C6.0998 9.03287 6.16696 9.10002 6.24981 9.10002H8.04981V5.50002Z" fill="white"/>
</svg>
