<svg width="21" height="20" viewBox="0 0 21 20" fill="none" xmlns="http://www.w3.org/2000/svg">
<path fill-rule="evenodd" clip-rule="evenodd" d="M9.12383 2H12.4763C12.7338 1.99998 12.9702 1.99997 13.1679 2.01612C13.3811 2.03353 13.6142 2.07339 13.8445 2.19074C14.1738 2.35852 14.4415 2.62624 14.6093 2.95552C14.7267 3.18583 14.7665 3.419 14.7839 3.63213C14.8001 3.82981 14.8001 4.06629 14.8001 4.32377L14.8001 5L17.4763 5C17.7338 4.99998 17.9702 4.99997 18.1679 5.01612C18.3811 5.03353 18.6142 5.07339 18.8445 5.19074C19.1738 5.35852 19.4415 5.62624 19.6093 5.95552C19.7267 6.18583 19.7665 6.419 19.7839 6.63213C19.8001 6.82981 19.8001 7.06629 19.8001 7.32377V11.6762C19.8001 11.9337 19.8001 12.1702 19.7839 12.3679C19.7665 12.581 19.7267 12.8142 19.6093 13.0445C19.4415 13.3738 19.1738 13.6415 18.8445 13.8093C18.8297 13.8168 18.8149 13.824 18.8001 13.831V15.6762C18.8001 15.9337 18.8001 16.1702 18.7839 16.3679C18.7665 16.581 18.7267 16.8142 18.6093 17.0445C18.4415 17.3738 18.1738 17.6415 17.8445 17.8093C17.6142 17.9266 17.3811 17.9665 17.1679 17.9839C16.9702 18 16.7338 18 16.4763 18H5.12382C4.86634 18 4.62986 18 4.43218 17.9839C4.21905 17.9665 3.98587 17.9266 3.75557 17.8093C3.42629 17.6415 3.15857 17.3738 2.99079 17.0445C2.87344 16.8142 2.83358 16.581 2.81617 16.3679C2.80001 16.1702 2.80003 15.9337 2.80005 15.6762L2.80005 13.831C2.78522 13.824 2.77039 13.8168 2.75557 13.8093C2.42628 13.6415 2.15857 13.3738 1.99079 13.0445C1.87344 12.8142 1.83358 12.581 1.81617 12.3679C1.80001 12.1702 1.80003 11.9337 1.80005 11.6762V7.32378C1.80003 7.0663 1.80001 6.82982 1.81617 6.63213C1.83358 6.419 1.87344 6.18583 1.99079 5.95552C2.15857 5.62624 2.42628 5.35852 2.75557 5.19074C2.98587 5.07339 3.21905 5.03353 3.43218 5.01612C3.62987 4.99997 3.86635 4.99998 4.12384 5C4.13255 5 4.14129 5 4.15005 5H6.80005L6.80005 4.32379C6.80003 4.0663 6.80001 3.82982 6.81617 3.63213C6.83358 3.419 6.87344 3.18583 6.99079 2.95552C7.15857 2.62624 7.42628 2.35852 7.75557 2.19074C7.98587 2.07339 8.21905 2.03353 8.43218 2.01612C8.62987 1.99997 8.86635 1.99998 9.12383 2ZM4.15005 6.5C3.85765 6.5 3.68345 6.50059 3.55433 6.51114C3.47552 6.51757 3.44239 6.52607 3.43351 6.52883C3.38887 6.55235 3.35239 6.58883 3.32887 6.63347C3.32612 6.64234 3.31762 6.67547 3.31118 6.75428C3.30063 6.88341 3.30005 7.0576 3.30005 7.35V11.65C3.30005 11.9424 3.30063 12.1166 3.31118 12.2457C3.31762 12.3245 3.32612 12.3577 3.32887 12.3665C3.35239 12.4112 3.38887 12.4477 3.43351 12.4712C3.44239 12.4739 3.47552 12.4824 3.55433 12.4889C3.56566 12.4898 3.57734 12.4906 3.58941 12.4914C3.59428 12.4917 3.59915 12.492 3.604 12.4923C3.72795 12.4996 3.89351 12.5 4.15005 12.5H7.80005V11.75C7.80005 11.3358 8.13584 11 8.55005 11C8.96426 11 9.30005 11.3358 9.30005 11.75V12.5H12.3001V11.75C12.3001 11.3358 12.6358 11 13.0501 11C13.4643 11 13.8001 11.3358 13.8001 11.75V12.5H17.4501C17.7066 12.5 17.8721 12.4996 17.9961 12.4923C18.001 12.492 18.0058 12.4917 18.0107 12.4914C18.0228 12.4906 18.0344 12.4898 18.0458 12.4889C18.1246 12.4824 18.1577 12.4739 18.1666 12.4712C18.2112 12.4477 18.2477 12.4112 18.2712 12.3665C18.274 12.3577 18.2825 12.3245 18.2889 12.2457C18.2995 12.1166 18.3001 11.9424 18.3001 11.65V7.35C18.3001 7.0576 18.2995 6.88341 18.2889 6.75428C18.2825 6.67547 18.274 6.64234 18.2712 6.63347C18.2477 6.58883 18.2112 6.55235 18.1666 6.52883C18.1577 6.52607 18.1246 6.51758 18.0458 6.51114C17.9166 6.50059 17.7425 6.5 17.4501 6.5H4.15005ZM13.3001 5H8.30005V4.35C8.30005 4.0576 8.30063 3.88341 8.31118 3.75428C8.31762 3.67547 8.32612 3.64234 8.32887 3.63347C8.35239 3.58883 8.38887 3.55235 8.43351 3.52883C8.44239 3.52607 8.47552 3.51757 8.55433 3.51114C8.68345 3.50059 8.85765 3.5 9.15005 3.5H12.4501C12.7425 3.5 12.9166 3.50059 13.0458 3.51114C13.1246 3.51757 13.1577 3.52607 13.1666 3.52883C13.2112 3.55235 13.2477 3.58882 13.2712 3.63347C13.274 3.64234 13.2825 3.67547 13.2889 3.75428C13.2995 3.88341 13.3001 4.0576 13.3001 4.35V5ZM13.2703 3.63088C13.2703 3.63085 13.2705 3.63132 13.2709 3.63236L13.2703 3.63088ZM13.1692 3.52973C13.1692 3.52974 13.1686 3.52957 13.1677 3.52918L13.1692 3.52973ZM8.43093 3.52973C8.4309 3.52972 8.43137 3.52953 8.43241 3.52918L8.43093 3.52973ZM8.32923 3.63236C8.32957 3.63131 8.32977 3.63085 8.32978 3.63088L8.32923 3.63236ZM18.1692 6.52973C18.1691 6.52974 18.1686 6.52956 18.1677 6.52917L18.1692 6.52973ZM18.2703 6.63088C18.2703 6.63085 18.2705 6.63132 18.2709 6.63236L18.2703 6.63088ZM18.2703 12.3691C18.2703 12.3691 18.2705 12.3686 18.2709 12.3676L18.2703 12.3691ZM18.1692 12.4703C18.1692 12.4703 18.1687 12.4705 18.1677 12.4708L18.1692 12.4703ZM17.3001 14H13.8001V14.25C13.8001 14.6642 13.4643 15 13.0501 15C12.6358 15 12.3001 14.6642 12.3001 14.25V14H9.30005V14.25C9.30005 14.6642 8.96426 15 8.55005 15C8.13584 15 7.80005 14.6642 7.80005 14.25V14H4.30005V15.65C4.30005 15.9424 4.30063 16.1166 4.31118 16.2457C4.31762 16.3245 4.32612 16.3577 4.32888 16.3665C4.3524 16.4112 4.38887 16.4477 4.43351 16.4712C4.44239 16.4739 4.47552 16.4824 4.55433 16.4889C4.68345 16.4994 4.85765 16.5 5.15005 16.5H16.4501C16.7425 16.5 16.9166 16.4994 17.0458 16.4889C17.1246 16.4824 17.1577 16.4739 17.1666 16.4712C17.2112 16.4477 17.2477 16.4112 17.2712 16.3665C17.274 16.3577 17.2825 16.3245 17.2889 16.2457C17.2995 16.1166 17.3001 15.9424 17.3001 15.65V14ZM17.2703 16.3691C17.2703 16.3691 17.2705 16.3686 17.2709 16.3676L17.2703 16.3691ZM17.1692 16.4703C17.1692 16.4703 17.1687 16.4705 17.1677 16.4708L17.1692 16.4703ZM4.43093 16.4703C4.43096 16.4703 4.43148 16.4704 4.43241 16.4708L4.43093 16.4703ZM4.32923 16.3676C4.32961 16.3686 4.32979 16.3691 4.32978 16.3691L4.32923 16.3676ZM3.43093 12.4703C3.43096 12.4703 3.43148 12.4704 3.43241 12.4708L3.43093 12.4703ZM3.32923 12.3676C3.32962 12.3686 3.32979 12.3691 3.32978 12.3691L3.32923 12.3676ZM3.32922 6.63239C3.32957 6.63132 3.32977 6.63085 3.32978 6.63088L3.32922 6.63239ZM3.43244 6.52917C3.43149 6.52956 3.43095 6.52974 3.43093 6.52973L3.43244 6.52917Z" fill="white"/>
</svg>
