<svg width="400" height="138" viewBox="0 0 400 138" fill="none" xmlns="http://www.w3.org/2000/svg">
<g opacity="0.5">
<path d="M225.522 1.69845C227.709 0.25539 230.646 -0.666563 233.129 0.596118C235.049 1.46463 235.959 3.54237 236.454 5.47314C237.303 9.22778 236.561 13.1494 235.109 16.6636C254.276 19.7368 273.491 22.5227 292.678 25.4689C296.512 26.1904 300.473 26.5245 304.152 27.9008C305.55 28.3216 306.072 29.758 306.681 30.9338C307.644 31.6019 308.702 32.25 309.257 33.3323C311.19 36.7328 312.388 40.581 312.515 44.5027C314.08 43.8479 316.121 42.2044 317.727 43.6141C319.312 45.9591 319.071 48.9922 319.346 51.6979C319.5 55.673 319.58 59.6615 319.386 63.6366C319.272 65.9348 317.653 67.7587 315.98 69.1817C312.709 71.9342 309.397 74.6466 306.019 77.2655C307.129 78.7487 308.14 80.4723 307.838 82.4165C307.39 87.6275 305.631 92.6115 304.246 97.6288C300.118 110.743 296.405 124.092 290.457 136.538C290.063 136.358 289.266 135.997 288.865 135.81C293.976 125.468 297.087 114.297 300.7 103.381C302.654 96.8271 304.814 90.3066 306.019 83.5723C306.4 81.9755 305.925 80.3922 305.296 78.9358C300.62 82.804 297.535 88.2154 295.769 93.961C293.642 99.6531 292.732 106.073 288.691 110.843C289.146 112.901 289.293 115.019 289.092 117.117C288.637 123.143 288.758 129.209 288.256 135.229C288.216 137.193 285.961 137.847 284.349 137.928C279.218 138.222 274.093 137.547 268.975 137.206C241.498 134.754 214.061 131.915 186.611 129.222C183.306 129.663 180.021 130.572 176.636 130.185C159.195 129.209 141.813 127.399 124.459 125.501C115.588 124.372 106.636 123.53 97.9456 121.359C95.8716 120.698 93.3026 120.15 92.2187 118.052C91.8775 110.85 92.2923 103.621 92.386 96.4128C92.4997 93.5802 92.2923 89.9859 95.2494 88.4693C97.3435 83.1781 103.599 82.2094 108.583 81.7217C101.257 79.7241 93.8712 77.8869 86.7595 75.2145C84.2105 74.1857 81.1263 72.7226 80.6981 69.6694C80.27 65.8947 80.658 62.0866 80.7316 58.3053C80.939 55.025 80.7584 51.6311 81.9291 48.5045C83.9496 47.6894 86.1239 47.8364 88.2514 47.7295C94.5938 45.5315 100.608 42.4316 106.957 40.2536C109.54 39.3851 113.199 39.2248 114.772 41.8905C115.648 44.6964 115.414 47.7763 116.645 50.5021C122.231 52.3193 128.119 52.847 133.886 53.8358C149.882 56.2209 165.825 58.9467 181.687 62.1C181.279 58.3788 181.239 54.4438 183.146 51.09C166.902 48.9521 150.651 46.9011 134.434 44.5361C129.771 43.8012 125.081 43.1732 120.505 42.0107C119 41.69 117.722 40.8081 116.504 39.9196C116.718 36.4255 120.545 35.2096 123.021 33.526C137.92 25.4088 153.254 18.0866 168.641 10.9381C172.963 8.78016 177.82 7.5776 182.664 8.33922C193.168 9.71547 203.591 11.6329 214.055 13.2764C217.54 9.12088 220.912 4.68479 225.522 1.69845ZM226.826 2.92774C222.504 5.62012 219.307 9.69543 216.102 13.5703C221.856 14.5524 227.616 15.4811 233.389 16.3496C235.042 12.2943 236.092 7.33041 233.711 3.34862C232.145 0.930157 228.894 1.64501 226.826 2.92774ZM169.886 12.2609C159.302 17.0978 148.845 22.2154 138.428 27.3997C132.267 30.6199 125.924 33.5528 120.104 37.3809C119.488 37.9354 118.391 38.3496 118.485 39.3384C123.496 41.5497 129.095 41.8103 134.427 42.7924C151.086 45.2041 167.785 47.3621 184.477 49.52C188.15 45.5649 192.8 42.6988 196.479 38.7638C197.951 37.2606 198.687 35.263 199.316 33.2989C192.204 34.9691 184.959 32.8446 178.182 30.7602C174.529 29.3839 170.394 28.1947 167.845 25.0614C166.34 22.7364 168.942 20.5184 171.097 20.1109C177.58 18.5008 184.437 19.9906 190.559 22.3156C194.519 23.8655 198.386 26.2172 200.427 30.0921C201.644 29.3371 202.815 28.4686 203.665 27.2861C206.796 23.1774 209.78 18.9484 212.871 14.8063C202.541 13.2496 192.271 11.2721 181.901 10.0028C177.747 9.38812 173.619 10.5239 169.886 12.2609ZM214.891 15.1336C211.312 19.5497 208.201 24.3332 204.655 28.7759C206.756 28.8294 208.776 29.4841 210.174 31.1142C218.363 28.4285 227.248 25.2351 232.5 17.9797C226.632 17.0043 220.752 16.1291 214.891 15.1336ZM234.353 18.2603C228.947 26.5379 219.119 29.9852 210.181 32.9849C211.272 34.6551 213.238 35.2363 214.891 36.1783C219.534 38.6302 223.428 42.3781 226.338 46.7207C227.335 48.2439 228.345 49.854 228.659 51.6846C228.385 51.9652 227.843 52.5397 227.569 52.8203C224.552 52.0053 222.371 49.6202 219.996 47.7362C215.915 44.1619 211.586 40.4674 209.412 35.3633C208.214 35.2964 206.495 34.7486 206.067 36.3253C204.983 41.6833 206.374 47.1683 206.789 52.5464C212.355 53.2679 217.915 54.0897 223.461 54.9515C229.155 55.9336 234.962 56.7019 240.367 58.8331C244.121 60.1626 246.268 64.5385 245.472 68.3466C244.716 71.186 241.458 72.0277 238.889 72.2282C230.74 72.7827 222.632 71.353 214.617 70.0903C204.12 68.4401 193.75 66.0284 183.273 64.298C185.333 65.3937 187.709 65.5072 189.956 65.9883C209.097 69.5091 228.245 72.9831 247.365 76.6108C246.663 72.3484 246.549 68.0059 246.703 63.6967C246.73 60.9442 249.406 59.4878 251.567 58.4189C256.344 56.1941 261.288 54.3502 266.085 52.1656C274.996 48.264 283.406 43.3335 291.682 38.2494C296.05 35.6839 300.292 32.8379 305.049 31.014C304.373 30.3459 303.798 29.4975 302.834 29.2503C299.161 28.1212 295.321 27.707 291.554 27.0322C272.487 24.1127 253.387 21.3936 234.353 18.2603ZM168.735 23.4446C169.732 24.6939 170.929 25.7896 172.381 26.4844C176.844 28.7626 181.701 30.1789 186.578 31.2679C190.646 32.1564 194.947 32.7176 199.015 31.4884C196.78 25.9967 190.565 23.9457 185.327 22.4158C179.975 21.2199 173.438 19.7568 168.735 23.4446ZM200.761 32.3903C203.357 32.6776 205.96 32.2767 208.448 31.5485C205.993 30.1722 202.742 30.1722 200.761 32.3903ZM294.585 38.5166C284.764 44.5494 274.809 50.4419 264.158 54.9047C259.976 56.742 255.668 58.3053 251.58 60.3563C250.249 61.1179 248.476 61.9731 248.429 63.7435C248.329 68.0727 248.269 72.4754 249.239 76.7311C253.507 77.8267 257.856 78.6752 261.99 80.2252C266.607 75.5552 272.293 72.1747 277.565 68.3199C288.397 60.8707 299.188 53.3681 310.147 46.1127C306.728 42.5986 306.48 37.3274 305.095 32.8579C301.389 34.3478 297.99 36.4656 294.585 38.5166ZM200.895 34.1139C198.941 41.3961 191.475 44.7164 186.598 49.7872C191.964 50.5221 197.322 51.2837 202.695 51.9318C202.253 46.7341 202.32 41.5029 201.678 36.3186C202.24 36.1315 202.802 35.9512 203.364 35.7708C204.026 41.3961 203.718 47.1483 204.809 52.7067C205.244 46.5336 201.965 39.786 205.364 34.0538C203.879 34.1874 202.38 34.1941 200.895 34.1139ZM306.949 32.8512C307.865 36.7462 308.528 40.8816 310.749 44.2955C310.662 40.2002 309.116 36.2785 306.949 32.8512ZM211.867 36.5725C215.707 42.3247 221.22 46.694 226.699 50.8027C223.568 44.5428 218.283 39.4052 211.867 36.5725ZM105.325 42.6187C100.755 44.5227 96.2262 46.5403 91.5965 48.2974C100.602 49.6135 109.533 51.3973 118.511 52.8537C117.207 52.3059 115.487 52.0988 114.825 50.6758C113.648 48.0368 114.042 45.0037 113.059 42.3314C110.784 40.5342 107.74 41.7635 105.325 42.6187ZM310.22 48.0903C298.285 56.1942 286.329 64.2646 274.534 72.5689C270.781 75.2279 266.928 77.8 263.623 81.0135C265.71 83.6992 265.335 87.2467 265.362 90.4335C265.182 95.5911 264.901 100.782 263.864 105.853C263.442 107.356 263.195 109.127 261.957 110.209C260.144 111.091 259.95 108.278 259.95 107.096C259.97 98.6175 259.602 90.0594 260.987 81.6682C259.481 81.1805 257.976 80.6928 256.478 80.2051C257.32 82.1559 257.622 84.2804 257.441 86.3983C256.986 93.3263 256.578 100.261 255.916 107.176C255.675 108.639 255.661 110.342 254.604 111.492C252.932 112.781 250.67 112.587 248.677 112.768C252.437 112.981 256.243 114.471 259.997 113.516C263.154 111.973 265.442 109.153 268.145 106.975C282.73 93.6069 298.291 81.3876 313.626 68.9078C315.378 67.3445 317.753 65.7344 317.693 63.1022C317.907 58.8197 317.76 54.5306 317.533 50.2549C317.359 48.3709 317.339 46.3733 316.422 44.6764C314.114 45.3311 312.201 46.8142 310.22 48.0903ZM83.1066 49.9609C82.3707 55.8467 82.2704 61.7927 82.2503 67.7186C82.063 69.4222 83.0063 70.872 83.8961 72.2282C83.3207 67.6184 83.5415 62.9618 83.3876 58.3253C83.4679 55.2989 82.8323 51.8783 85.0133 49.393C84.5383 49.54 83.5816 49.8206 83.1066 49.9609ZM85.1538 53.5686C85.107 59.0803 85.1003 64.6053 85.3947 70.1104C85.301 71.4131 86.7662 71.7405 87.7229 72.1079C96.1058 74.4529 104.95 75.0275 113.139 78.0806C114.885 78.6218 116.324 79.9379 116.076 81.8954C139.224 87.7277 162.433 93.3597 185.795 98.2568C184.992 87.5875 183.822 76.9382 182.316 66.3423C154.759 61.2649 127.209 56.1607 99.6048 51.3171C96.2864 50.776 92.9814 50.1547 89.6363 49.8139C87.4887 49.4799 84.9331 51.2503 85.1538 53.5686ZM183.507 62.4875C196.105 64.8458 208.642 67.565 221.334 69.4022C226.887 70.1504 232.493 70.8987 238.106 70.5713C240.033 70.3375 242.455 70.2373 243.632 68.4268C244.683 65.24 242.669 61.3384 239.451 60.3162C234.286 58.4122 228.813 57.5838 223.401 56.6885C217.942 55.8467 212.482 55.005 206.997 54.3235C206.843 57.0025 208.395 60.6302 206.093 62.6612C202.989 61.0444 203.504 56.7219 202.882 53.769C196.975 52.8938 191.047 52.1522 185.133 51.3773C182.751 54.6041 183.025 58.7262 183.507 62.4875ZM205.551 59.3007C205.538 57.3099 205.444 55.3123 204.996 53.3681C204.555 55.3524 205.07 57.37 205.551 59.3007ZM134.066 56.6284L134.548 55.7332C150.317 58.813 166.146 61.5589 181.948 64.4918L182.049 63.9239C170.448 61.6791 158.833 59.4477 147.146 57.6706C142.911 56.9424 138.636 56.4213 134.421 55.5461C134.053 55.7933 134.113 56.2409 134.066 56.6284ZM184.103 66.6497C185.628 77.2321 186.712 87.8747 187.568 98.5307C201.878 100.916 215.814 105.024 230.085 107.59C236.547 108.799 242.997 110.195 249.553 110.797C251.078 110.823 253.701 111.151 253.888 109.06C254.932 101.33 255.213 93.5067 255.742 85.7235C256.163 82.9175 254.765 79.4969 251.607 79.203C229.148 74.827 206.602 70.8519 184.103 66.6497ZM89.7567 74.5798C95.9184 76.4906 102.134 78.2142 108.362 79.8778C110.369 80.3655 112.396 81.254 114.504 80.773C111.239 78.7621 107.412 78.1006 103.739 77.2589C99.0963 76.2901 94.4399 75.3548 89.7567 74.5798ZM97.0089 88.4626C117.796 89.6719 138.482 92.1304 159.201 94.1146C143.794 90.6272 128.473 86.7457 113.139 82.991C107.606 83.7861 100.535 83.2048 97.0089 88.4626ZM262.719 82.4833C261.696 86.1444 261.93 89.9725 261.736 93.7205C261.689 98.2701 261.435 102.826 261.836 107.363C263.081 101.343 263.603 95.1903 263.656 89.0506C263.656 86.8325 263.589 84.5543 262.719 82.4833ZM266.185 111.064C263.93 113.055 261.542 115.527 258.311 115.574C253.28 115.607 248.402 114.117 243.525 113.082C232.694 110.636 221.989 107.63 211.084 105.532C203.297 103.889 195.503 102.252 187.729 100.542C188.23 107.396 188.719 114.264 188.679 121.139C188.712 123.35 188.204 125.515 187.401 127.566C216.142 130.365 244.863 133.418 273.645 135.863C277.9 136.157 282.201 136.638 286.436 135.877C286.925 131.628 286.818 127.345 287.072 123.083C287.166 119.362 287.634 115.64 287.299 111.919C283.566 113.015 279.458 114.358 275.645 112.834C274.253 112.373 273.123 111.184 273.116 109.661C273.825 108.625 275.023 108.064 276.254 107.957C280.094 107.536 284.155 107.73 287.654 109.534C289.654 106.888 290.778 103.735 291.782 100.608C293.822 94.4687 295.428 88.015 299.322 82.7171C287.995 91.8298 276.91 101.243 266.185 111.064ZM96.6008 90.2331C95.6642 96.4329 95.9987 102.746 96.8149 108.939C97.2364 111.512 97.6914 114.738 100.454 115.861C104.924 117.925 109.914 118.433 114.718 119.248C138.214 122.562 161.837 124.8 185.427 127.318C187.394 124.052 186.926 120.11 186.919 116.475C186.685 111.017 186.478 105.552 185.895 100.114C178.202 98.6309 170.495 97.1544 162.694 96.306C145.453 94.3685 128.179 92.7183 110.898 91.155C106.134 90.7542 101.378 90.2665 96.6008 90.2331ZM94.6607 91.155C94.1255 93.981 93.9582 96.8672 93.9582 99.7399C93.9917 105.332 93.7575 110.93 93.7976 116.522C93.5902 118.005 95.216 118.6 96.3132 119.061C101.103 120.658 106.148 121.286 111.119 122.067C128.634 124.459 146.236 126.129 163.844 127.606C169.016 127.993 174.201 128.581 179.393 128.187C166.835 127.365 154.344 125.708 141.834 124.386C129.55 122.876 117.173 121.82 105.057 119.215C101.478 118.386 96.9822 117.11 95.9452 113.062C94.2258 105.92 93.8779 98.4505 94.6607 91.155ZM274.534 110.249C277.9 112.727 282.201 111.692 285.848 110.523C282.208 109.347 278.194 108.966 274.534 110.249Z" fill="#4D4D4D"/>
</g>
</svg>
