<svg width="400" height="107" viewBox="0 0 400 107" fill="none" xmlns="http://www.w3.org/2000/svg">
<g opacity="0.5">
<path d="M94.5757 101.649C94.5757 97.5599 93.9754 93.5584 93.9754 89.4773V78.4617C93.9754 77.7119 93.235 68.1071 100.297 58.5444C101.661 56.1124 103.572 53.5794 105.449 51.4099C106.503 50.1924 105.89 49.8313 107.567 49.9235C108.632 49.9822 109.668 49.9235 110.118 49.1803C110.75 48.1349 111.75 46.6349 112.25 45.6349C115.836 37.0987 114.769 30.753 114.769 28.6685C114.769 26.5324 113.269 24.8588 113.269 22.723C113.269 21.9204 113.048 20.7154 113.469 19.998C114.345 18.5047 115.203 17.3179 115.836 15.7041C116.164 14.8704 117.25 9.63493 122.555 4.75451C123.173 4.18604 124.06 3.66467 124.373 3.48284C125.068 3.07783 126.25 2.63492 126.94 2.35981C127.63 2.0847 130.008 1.53405 130.008 1.53405C133.25 0.634926 136.25 1.13493 136.677 1.17072C138.004 1.28194 139.071 1.33513 140.278 1.46799C141.097 1.5581 142.442 1.90619 143.25 2.13492C144.49 2.48574 146.25 3.63492 146.75 4.13492C147.25 4.63492 148.431 5.70773 149.048 6.81891C150.889 10.1349 151.051 11.7367 151.25 12.6349C151.312 12.9135 151.682 14.4589 151.682 15.4398C151.682 15.6349 151.682 17.818 150.648 17.818C148.89 17.818 149.835 19.6452 150.16 21.0039C150.648 23.0421 150.846 24.8537 150.16 26.6654C149.56 28.2506 148.45 29.6868 147.848 31.0301C147.355 32.1269 147.618 34.9799 147.797 36.1333C148.035 37.6615 148.925 40.708 146.73 40.708C144.739 40.708 143.279 40.1707 143.279 42.4917C143.279 43.4331 142.651 43.969 142.229 44.7212C141.848 45.4005 142.125 46.2138 141.712 46.9508C141.177 47.9048 141.712 48.1522 141.712 49.3111C141.712 50.6699 140.733 51.868 138.958 51.9384C137.183 52.0087 131.732 50.5989 130.25 51.6349C130.039 51.7821 129.75 53.262 129.75 55.6349C129.75 57.493 134.666 57.7788 135.529 59.2753C135.893 59.9071 132.746 60.4786 133.376 60.7905C134.442 61.3187 134.435 62.0304 135.01 62.7063C135.998 63.8691 136.451 66.0693 137.044 67.4626C137.81 69.2658 137.815 71.2775 138.027 73.2594C138.13 74.2215 138.272 74.6744 138.478 75.489C138.786 76.7125 138.957 77.1503 139.378 78.2966C139.987 79.9568 140.275 81.8524 140.812 83.5814C141.358 85.3397 141.93 86.9031 142.159 88.2618C143.073 90.5264 143.53 90.7529 144.796 91.7234C146.062 92.6939 148.502 92.417 149.148 92.417C151.873 92.417 155.268 86.8003 157.384 84.7045C158.93 83.1733 160.475 81.8836 162.319 80.8399C163.235 80.3217 164.25 79.1349 164.75 78.6349C165.25 78.1349 166.75 76.9777 166.367 75.9514C165.25 72.9622 171.25 65.6349 171.75 65.6349C172.75 65.1349 172.75 65.1349 174.25 64.3149C175.952 63.3846 176.777 63.1349 177.75 63.1349C178.75 63.1349 179.592 63.8044 179.592 64.3149C179.592 64.6385 179.592 65.6645 179.592 66.5708C179.592 68.9937 183.25 66.5708 183.643 66.1249C185.094 65.1349 186.677 63.3739 187.268 62.7298C187.908 62.0328 189.167 60.7861 189.969 59.9546M189.969 59.9546C190.625 59.2753 190.625 59.2753 191.22 58.7001C191.674 58.2604 191.997 57.6901 192.911 58.5959C193.14 59.0488 192.459 59.8801 191.54 60.7905C190.877 61.4465 189.655 62.9589 189.254 63.8044C189.097 64.1349 189.633 64.8575 189.25 66C189.15 66.2989 188.75 66.6434 188.25 67C187.25 67.7132 188.25 68.769 188.25 70C188.25 71.2872 187.425 72.1834 186.494 72.9622C186.343 73.0892 185.894 73.3741 185.894 73.7054C185.894 74.1375 186.194 74.4897 186.194 74.9605C186.194 75.9355 185.853 76.2118 185.136 76.7926L185.094 76.8267C184.047 77.6754 183.643 78.0713 182.395 78.9771C181.023 79.9724 179.88 80.7888 178.28 81.6946C176.908 82.471 176.222 82.8269 174.79 83.2181C174.569 83.24 172.154 84.4072 172.106 84.5723C171.58 86.3946 172.464 87.9567 173.223 89.4608C174.023 91.0464 172.98 92.906 171.956 93.9199C168.909 96.938 162.312 102.751 163.078 102.902C171.787 104.609 184.52 108.179 191.958 101.379C193.081 100.352 194.107 99.308 195.294 98.3653C196.076 97.7445 199.9 100.738 200.562 101.168C202.315 102.305 204.31 103.842 206.528 103.657C208.116 103.524 209.705 102.795 211.245 102.437C213.947 101.809 216.089 105.039 218.621 105.76C222.013 106.726 225.265 105.622 228.52 104.73M189.969 59.9546C189.695 59.5023 185.113 52.9301 186.218 49.7037C188.441 47.013 189.965 45.4062 190.288 42.4048C190.488 40.5429 190.881 38.5726 189.399 35.9195C187.917 33.2664 186.114 32.2958 184.501 31.4977C182.887 30.6997 180.21 30.3186 177.542 30.3186C175.609 30.3186 172.698 30.4488 170.911 30.9332C169.535 31.3059 167.33 32.1107 166.285 33.085C165.748 33.5849 165.272 34.0586 164.759 34.9348C164.362 35.6118 164.238 35.9753 163.982 36.7217C163.638 38.2064 164.096 40.1714 164.525 41.6043C165.045 43.3421 166.975 46.2331 168.042 47.2121C168.591 47.7164 169.857 48.6839 171.416 49.7657C173.363 51.1174 177.271 52.0297 179.499 52.7845C181.409 53.4314 183.018 54.7662 184.501 55.7472C185.983 56.7282 188.806 59.5023 189.969 59.9546ZM276.249 104.31C272.114 104.31 275.952 101.362 276.249 95.466C276.249 92.9469 276.53 90.3092 276.53 87.7902C276.53 87.2758 276.249 85 274.75 81.5C274.286 80.874 275.405 82.1727 277.75 81C279.25 80.25 278.75 78 277.25 76C263.005 57.0066 275.178 55.2499 261.25 39C258.25 35.5 254.75 33 247.38 33.7649C243.419 34.1761 240.383 37.3388 238.935 39.6399C235.25 45.5 237.782 50.2571 238.25 51.5C238.66 52.5875 239.378 51.0784 239.789 52C242.021 57 239.911 57.9596 239.789 58.7509C239.646 59.6741 240.03 60.8894 241.517 60.8894C242.25 60.8894 242.873 62.675 242.873 63.113C242.873 63.7589 243.302 64.1265 243.59 64.6426C243.85 65.1086 243.661 65.6666 243.943 66.1722C244.308 66.8267 243.943 66.9964 243.943 67.7915C243.943 68.7237 244.25 69.5 245.823 69.5939C247.396 69.6878 250.652 67.7915 251.25 68.2116C252.226 68.8973 253.117 70.0507 253.117 71.6786C253.117 72.9534 248.753 73.6007 248.164 74.6274C247.915 75.0608 250.064 75.4529 249.634 75.6669C248.906 76.0292 248.75 76.5 248.518 76.9812C248.25 77.5 247.654 79.5441 247.25 80.5C246.75 82 245.894 86.0248 245.537 87.6769C245.25 89 244.924 90.1164 244.558 91.3025C244.185 92.5088 244.009 93.5908 243.638 94.5135C243.014 96.0671 242.702 96.2225 241.838 96.8883C240.973 97.5541 239.25 97.5 238.75 97.5C236.75 97.5 234.194 94.4461 232.75 93.0082C231.695 91.9578 230.75 90.5 229.876 89.4217C229.25 88.6494 229.137 88.5542 228.75 88C228.363 87.4458 227.665 86.5744 227.224 86.068C226.131 84.8124 227.25 84 226.689 82.3857C226.365 81.4518 225.888 81.1942 225.25 80.2443C224.75 79.5 220.343 77.3891 219.678 77.3891C219.014 77.3891 218.401 77.6516 218.085 78.0567C217.656 78.606 218.085 79.0107 218.085 79.6324C218.085 81.2947 216.172 80 215.319 79.3265C214.201 78.3068 213.248 77.4392 212.845 76.9973C212.408 76.5191 211.549 75.6639 211.001 75.0934M211.001 75.0934C210.553 74.6274 210.553 74.6274 210.147 74.2327C209.837 73.9311 209.617 73.5398 208.993 74.1613C208.837 74.472 209.302 75.0423 209.929 75.6669C210.381 76.1169 211.216 77.1545 211.49 77.7346C212.088 79 211.334 79.0145 211.334 79.4435C211.334 79.8726 211.646 80.5 211.985 80.7428C212.845 81.3593 212.27 81.7063 212.27 82.5508C212.27 83.4338 212.738 83.4829 213.373 84.0172C213.477 84.1044 213.783 84.2998 213.783 84.5271C213.783 84.8235 213.578 85.0651 213.578 85.3882C213.578 86.057 213.811 86.2466 214.3 86.645L214.329 86.6685C215.044 87.2507 215.319 87.5223 216.172 88.1437C217.108 88.8265 217.888 89.3866 218.981 90.008C219.917 90.5407 220.385 90.7849 221.363 91.0533C221.514 91.0683 223.163 91.869 223.195 91.9823C223.554 93.2325 222.951 94.3042 222.433 95.3361C221.886 96.4238 222.599 97.6996 223.298 98.3952C225.377 100.466 227.842 101.709 229.148 104.31M211.001 75.0934C211.49 74.037 213.94 71.411 213.471 69.7901C212.526 68.4382 211.879 67.631 211.742 66.1231C211.656 65.1877 211.823 63.6242 212.119 62.865C212.416 62.1057 213.515 61.0444 214.201 60.6435C215.306 59.9969 216.024 60.0511 217.157 60.0511C217.979 60.0511 219.215 60.1165 219.975 60.3599C220.56 60.5471 221.496 60.9514 221.941 61.4409C222.168 61.6921 222.371 61.9301 222.589 62.3702C222.757 62.7104 222.81 62.893 222.919 63.268C223.065 64.0139 222.871 65.0011 222.688 65.721C222.467 66.594 221.647 68.0464 221.194 68.5383C220.961 68.7916 220.423 69.2777 219.76 69.8212C218.933 70.5003 217.273 70.9586 216.326 71.3378C215.514 71.6628 214.83 72.3334 214.201 72.8262C213.571 73.3191 211.685 74.6713 211.001 75.0934ZM169.836 37.0987L183.471 37.0986M169.836 42.4048H178.728M219.633 64.8084H215.483M276.545 104.31C287.762 103.705 285.369 87.6921 289.008 93.0082C290.361 95.8318 290.887 98.8691 292.184 101.705C293.072 103.646 294.246 104.945 296.116 102.587C296.827 101.69 299.62 95.9141 301.122 96.1208C302.803 96.3521 303.373 100.331 303.777 101.411C304.334 102.901 307.52 98.7494 307.91 98.2315C309.072 96.6918 312.31 100.16 312.85 100.93C313.85 102.356 314.622 100.73 315.807 100.342C319.782 99.041 321.543 99.7277 325.75 99.7277M74.25 101.902C86.25 104 83.9513 99.7229 84.2857 99.279C85.2796 97.9592 88.0491 100.932 88.5112 101.592C88.9733 102.252 90.3316 101.321 91.0408 101.088C91.75 100.855 93.25 101 94.546 101.561" stroke="#4D4D4D" stroke-linecap="round"/>
</g>
</svg>
