<svg width="253" height="107" viewBox="0 0 253 107" fill="none" xmlns="http://www.w3.org/2000/svg">
<path d="M21.3257 101.649C21.3257 97.5599 20.7254 93.5584 20.7254 89.4773V78.4617C20.7254 77.7119 19.985 68.1071 27.0474 58.5444C28.4114 56.1124 30.3219 53.5794 32.1992 51.4099C33.2526 50.1924 32.6403 49.8313 34.3166 49.9235C35.3825 49.9822 36.4179 49.9235 36.8675 49.1803C37.5 48.1349 38.5 46.6349 39 45.6349C42.5862 37.0987 41.5192 30.753 41.5192 28.6685C41.5192 26.5324 40.0186 24.8588 40.0186 22.723C40.0186 21.9204 39.7977 20.7154 40.2187 19.998C41.0952 18.5047 41.9526 17.3179 42.5862 15.7041C42.9135 14.8704 44 9.63493 49.3052 4.75451C49.9232 4.18604 50.8105 3.66467 51.1225 3.48284C51.8176 3.07783 53 2.63492 53.6901 2.35981C54.3802 2.0847 56.7579 1.53405 56.7579 1.53405C60 0.634926 63 1.13493 63.4269 1.17072C64.7536 1.28194 65.8211 1.33513 67.0282 1.46799C67.8469 1.5581 69.1918 1.90619 70 2.13492C71.2396 2.48574 73 3.63492 73.5 4.13492C74 4.63492 75.181 5.70773 75.7979 6.81891C77.6391 10.1349 77.8012 11.7367 78 12.6349C78.0616 12.9135 78.4322 14.4589 78.4322 15.4398C78.4322 15.6349 78.4322 17.818 77.3985 17.818C75.6396 17.818 76.5848 19.6452 76.9103 21.0039C77.3985 23.0421 77.5961 24.8537 76.9103 26.6654C76.3102 28.2506 75.2003 29.6868 74.5975 31.0301C74.1054 32.1269 74.3683 34.9799 74.5475 36.1333C74.7848 37.6615 75.675 40.708 73.4804 40.708C71.4892 40.708 70.0292 40.1707 70.0292 42.4917C70.0292 43.4331 69.4007 43.969 68.9789 44.7212C68.5979 45.4005 68.8753 46.2138 68.462 46.9508C67.927 47.9048 68.462 48.1522 68.462 49.3111C68.462 50.6699 67.4833 51.868 65.7081 51.9384C63.933 52.0087 58.4817 50.5989 57 51.6349C56.7895 51.7821 56.5 53.262 56.5 55.6349C56.5 57.493 61.4156 57.7788 62.2789 59.2753C62.6434 59.9071 59.496 60.4786 60.1257 60.7905C61.1922 61.3187 61.1851 62.0304 61.7596 62.7063C62.7482 63.8691 63.2014 66.0693 63.7937 67.4626C64.5601 69.2658 64.565 71.2775 64.7774 73.2594C64.8804 74.2215 65.0223 74.6744 65.2275 75.489C65.5358 76.7125 65.707 77.1503 66.1278 78.2966C66.7373 79.9568 67.0246 81.8524 67.5617 83.5814C68.1079 85.3397 68.6801 86.9031 68.9087 88.2618C69.8232 90.5264 70.2804 90.7529 71.5464 91.7234C72.8124 92.6939 75.2516 92.417 75.898 92.417C78.6234 92.417 82.0184 86.8003 84.1342 84.7045C85.68 83.1733 87.2254 81.8836 89.0693 80.8399C89.9848 80.3217 91 79.1349 91.5 78.6349C92 78.1349 93.5 76.9777 93.1166 75.9514C92 72.9622 98 65.6349 98.5 65.6349C99.5 65.1349 99.5 65.1349 101 64.3149C102.702 63.3846 103.527 63.1349 104.5 63.1349C105.5 63.1349 106.342 63.8044 106.342 64.3149C106.342 64.6385 106.342 65.6645 106.342 66.5708C106.342 68.9937 110 66.5708 110.393 66.1249C111.844 65.1349 113.427 63.3739 114.018 62.7298C114.658 62.0328 115.917 60.7861 116.719 59.9546M116.719 59.9546C117.375 59.2753 117.375 59.2753 117.97 58.7001C118.424 58.2604 118.747 57.6901 119.661 58.5959C119.89 59.0488 119.209 59.8801 118.29 60.7905C117.627 61.4465 116.405 62.9589 116.004 63.8044C115.847 64.1349 116.383 64.8575 116 66C115.9 66.2989 115.5 66.6434 115 67C114 67.7132 115 68.769 115 70C115 71.2872 114.175 72.1834 113.244 72.9622C113.093 73.0892 112.644 73.3741 112.644 73.7054C112.644 74.1375 112.944 74.4897 112.944 74.9605C112.944 75.9355 112.603 76.2118 111.886 76.7926L111.844 76.8267C110.797 77.6754 110.393 78.0713 109.145 78.9771C107.773 79.9724 106.63 80.7888 105.03 81.6946C103.658 82.471 102.972 82.8269 101.54 83.2181C101.319 83.24 98.9037 84.4072 98.8561 84.5723C98.3305 86.3946 99.2139 87.9567 99.9731 89.4608C100.773 91.0464 99.7296 92.906 98.706 93.9199C95.6592 96.938 89.0616 102.751 89.8283 102.902C98.5371 104.609 111.27 108.179 118.708 101.379C119.831 100.352 120.857 99.308 122.044 98.3653C122.826 97.7445 126.65 100.738 127.312 101.168C129.065 102.305 131.06 103.842 133.278 103.657C134.866 103.524 136.455 102.795 137.995 102.437C140.697 101.809 142.839 105.039 145.371 105.76C148.763 106.726 152.015 105.622 155.27 104.73M116.719 59.9546C116.445 59.5023 111.863 52.9301 112.968 49.7037C115.191 47.013 116.715 45.4062 117.038 42.4048C117.238 40.5429 117.631 38.5726 116.149 35.9195C114.667 33.2664 112.864 32.2958 111.251 31.4977C109.637 30.6997 106.96 30.3186 104.292 30.3186C102.359 30.3186 99.4483 30.4488 97.6605 30.9332C96.2849 31.3059 94.0801 32.1107 93.0348 33.085C92.4985 33.5849 92.022 34.0586 91.5088 34.9348C91.1122 35.6118 90.9877 35.9753 90.7321 36.7217C90.3884 38.2064 90.8461 40.1714 91.2751 41.6043C91.7954 43.3421 93.7248 46.2331 94.7916 47.2121C95.3411 47.7164 96.6072 48.6839 98.1656 49.7657C100.113 51.1174 104.021 52.0297 106.249 52.7845C108.159 53.4314 109.768 54.7662 111.251 55.7472C112.733 56.7282 115.556 59.5023 116.719 59.9546ZM202.999 104.31C198.864 104.31 202.702 101.362 202.999 95.466C202.999 92.9469 203.28 90.3092 203.28 87.7902C203.28 87.2758 202.999 85 201.5 81.5C201.036 80.874 202.155 82.1727 204.5 81C206 80.25 205.5 78 204 76C189.755 57.0066 201.928 55.2499 188 39C185 35.5 181.5 33 174.13 33.7649C170.169 34.1761 167.133 37.3388 165.685 39.6399C162 45.5 164.532 50.2571 165 51.5C165.41 52.5875 166.128 51.0784 166.539 52C168.771 57 166.661 57.9596 166.539 58.7509C166.396 59.6741 166.78 60.8894 168.267 60.8894C169 60.8894 169.623 62.675 169.623 63.113C169.623 63.7589 170.052 64.1265 170.34 64.6426C170.6 65.1086 170.411 65.6666 170.693 66.1722C171.058 66.8267 170.693 66.9964 170.693 67.7915C170.693 68.7237 171 69.5 172.573 69.5939C174.146 69.6878 177.402 67.7915 178 68.2116C178.976 68.8973 179.867 70.0507 179.867 71.6786C179.867 72.9534 175.503 73.6007 174.914 74.6274C174.665 75.0608 176.814 75.4529 176.384 75.6669C175.656 76.0292 175.5 76.5 175.268 76.9812C175 77.5 174.404 79.5441 174 80.5C173.5 82 172.644 86.0248 172.287 87.6769C172 89 171.674 90.1164 171.308 91.3025C170.935 92.5088 170.759 93.5908 170.388 94.5135C169.764 96.0671 169.452 96.2225 168.588 96.8883C167.723 97.5541 166 97.5 165.5 97.5C163.5 97.5 160.944 94.4461 159.5 93.0082C158.445 91.9578 157.5 90.5 156.626 89.4217C156 88.6494 155.887 88.5542 155.5 88C155.113 87.4458 154.415 86.5744 153.974 86.068C152.881 84.8124 154 84 153.439 82.3857C153.115 81.4518 152.638 81.1942 152 80.2443C151.5 79.5 147.093 77.3891 146.428 77.3891C145.764 77.3891 145.151 77.6516 144.835 78.0567C144.406 78.606 144.835 79.0107 144.835 79.6324C144.835 81.2947 142.922 80 142.069 79.3265C140.951 78.3068 139.998 77.4392 139.595 76.9973C139.158 76.5191 138.299 75.6639 137.751 75.0934M137.751 75.0934C137.303 74.6274 137.303 74.6274 136.897 74.2327C136.587 73.9311 136.367 73.5398 135.743 74.1613C135.587 74.472 136.052 75.0423 136.679 75.6669C137.131 76.1169 137.966 77.1545 138.24 77.7346C138.838 79 138.084 79.0145 138.084 79.4435C138.084 79.8726 138.396 80.5 138.735 80.7428C139.595 81.3593 139.02 81.7063 139.02 82.5508C139.02 83.4338 139.488 83.4829 140.123 84.0172C140.227 84.1044 140.533 84.2998 140.533 84.5271C140.533 84.8235 140.328 85.0651 140.328 85.3882C140.328 86.057 140.561 86.2466 141.05 86.645L141.079 86.6685C141.794 87.2507 142.069 87.5223 142.922 88.1437C143.858 88.8265 144.638 89.3866 145.731 90.008C146.667 90.5407 147.135 90.7849 148.113 91.0533C148.264 91.0683 149.913 91.869 149.945 91.9823C150.304 93.2325 149.701 94.3042 149.183 95.3361C148.636 96.4238 149.349 97.6996 150.048 98.3952C152.127 100.466 154.592 101.709 155.898 104.31M137.751 75.0934C138.24 74.037 140.69 71.411 140.221 69.7901C139.276 68.4382 138.629 67.631 138.492 66.1231C138.406 65.1877 138.573 63.6242 138.869 62.865C139.166 62.1057 140.265 61.0444 140.951 60.6435C142.056 59.9969 142.774 60.0511 143.907 60.0511C144.729 60.0511 145.965 60.1165 146.725 60.3599C147.31 60.5471 148.246 60.9514 148.691 61.4409C148.918 61.6921 149.121 61.9301 149.339 62.3702C149.507 62.7104 149.56 62.893 149.669 63.268C149.815 64.0139 149.621 65.0011 149.438 65.721C149.217 66.594 148.397 68.0464 147.944 68.5383C147.711 68.7916 147.173 69.2777 146.51 69.8212C145.683 70.5003 144.023 70.9586 143.076 71.3378C142.264 71.6628 141.58 72.3334 140.951 72.8262C140.321 73.3191 138.435 74.6713 137.751 75.0934ZM96.5855 37.0987L110.221 37.0986M96.5855 42.4048H105.478M146.383 64.8084H142.233M203.295 104.31C214.512 103.705 212.119 87.6921 215.758 93.0082C217.111 95.8318 217.637 98.8691 218.934 101.705C219.822 103.646 220.996 104.945 222.866 102.587C223.577 101.69 226.37 95.9141 227.872 96.1208C229.553 96.3521 230.123 100.331 230.527 101.411C231.084 102.901 234.27 98.7494 234.66 98.2315C235.822 96.6918 239.06 100.16 239.6 100.93C240.6 102.356 241.372 100.73 242.557 100.342C246.532 99.041 248.293 99.7277 252.5 99.7277M1 101.902C13 104 10.7013 99.7229 11.0357 99.279C12.0296 97.9592 14.7991 100.932 15.2612 101.592C15.7233 102.252 17.0816 101.321 17.7908 101.088C18.5 100.855 20 101 21.296 101.561" stroke="black" stroke-linecap="round"/>
</svg>
