<svg width="550" height="194" viewBox="0 0 550 194" fill="none" xmlns="http://www.w3.org/2000/svg">
<path d="M244.092 163.789C234.334 163.789 229.358 156.204 224.364 151.961C221.712 149.709 219.079 152.255 217.953 154.063C215.101 158.641 213.993 163.567 211.259 168.165C209.387 171.313 206.913 173.419 202.971 169.595C201.472 168.141 195.583 158.775 192.416 159.11C188.873 159.485 187.671 165.937 186.82 167.688C185.646 170.104 178.931 163.373 178.107 162.533C175.657 160.036 168.832 165.66 167.694 166.909C165.585 169.221 163.958 166.585 161.46 165.955C153.081 163.845 149.369 164.959 140.5 164.959M251.396 23.7753C257.049 23.6127 268.458 25.2802 272.485 20.3185C275.708 16.3462 269.182 8.64736 272.48 3.83189C275.167 -0.090923 282.639 1.10576 284.111 1.41116C288.149 1.99044 290.946 7.73048 287.423 14.8766C286.425 16.9009 285.687 19.3708 285.734 21.0186C285.826 24.2098 289.134 23.5201 291.691 23.4465C300.677 23.5759 310.312 22.5232 311.804 23.5635C313.84 23.8264 313.483 38.4806 313.546 40.6661C313.74 47.4213 316.405 55.5783 309.713 52.5867C301.683 48.9966 296.059 48.4636 292.729 53.4225C287.996 82.0424 309.899 59.0355 313.145 70.2035C314.146 73.6484 314.643 78.8445 314.743 82.3153C314.837 85.585 315.134 95.9273 313.894 96.2828C307.729 98.0509 296.048 96.796 290.242 96.963C279.175 96.8254 275.9 97.3755 279.88 108.627C282.391 119.682 269.962 119.754 266.949 117.381C264.35 115.333 263.194 113.28 263.731 110.155C264.094 108.038 268.073 101.995 266.083 99.2881C264.322 96.8931 262.681 97.49 261.285 97.4993C256.293 97.5324 251.194 97.4713 246.14 97.6167C242.606 97.7183 242.853 93.8201 242.787 91.5266C242.732 89.6126 242.931 87.6846 243.292 85.8029C245.304 68.529 247.668 69.2057 249.108 68.4196C252.347 66.6508 261.235 70.5677 264.483 69.0835C267.731 67.5992 266.811 61.0192 262.802 60.3899C259.489 58.7595 250.036 62.5448 247.388 59.4915C244.741 56.4383 245.603 49.8205 245.5 46.2521C245.4 42.7631 245.563 39.3769 245.877 35.4414C246.094 32.7257 245.744 23.9378 251.396 23.7753ZM240.965 159.59C240.965 153.918 242.951 142.527 238.129 138.347C234.269 135 226.423 141.322 221.726 137.877C217.9 135.07 219.304 127.612 219.65 126.146C220.342 122.113 226.133 119.475 233.142 123.213C235.128 124.272 237.564 125.083 239.205 125.083C242.383 125.083 241.791 121.747 241.791 119.181C242.177 110.175 241.405 100.485 242.483 99.0185C242.803 96.9854 256.682 96.9793 258.858 96.9793C265.585 96.9793 268.247 98.7124 265.079 105.335C261.277 113.283 263.351 116.128 268.881 118.217C290.655 119.181 271.846 100.073 280.977 97.7655C284.088 96.9793 297.221 96.2829 301.023 96.9793C304.226 97.566 314.601 95.9348 314.896 99.0185C315.508 105.422 314.896 116.926 314.896 122.752C314.442 133.844 314.896 137.143 326.205 133.477C337.275 131.278 336.991 143.742 334.544 146.694C332.432 149.241 330.356 150.34 327.263 149.712C325.167 149.287 319.268 145.124 316.518 147.041C314.085 148.737 314.631 150.399 314.601 151.8C314.491 156.805 314.284 161.916 314.284 166.987C314.284 170.534 310.413 170.174 308.129 170.174C306.223 170.174 304.31 169.918 302.448 169.503C285.319 166.987 286.06 164.637 285.319 163.171C283.652 159.872 287.803 151.074 286.42 147.774C285.036 144.475 278.463 145.208 277.722 149.209C276.005 152.484 279.501 162.071 276.387 164.637C273.273 167.203 266.714 166.149 263.16 166.149C259.686 166.149 256.321 165.888 252.415 165.459C249.719 165.163 240.965 165.261 240.965 159.59ZM322.302 97.5941C327.957 97.5941 337.376 97.5426 343.277 97.5941C348.489 96.984 353.562 99.6327 350.991 80.8925C351.03 76.3788 354.305 74.2982 355.767 74.6457C362.012 74.6457 360.796 81.649 359.715 86.1536C359.189 88.3485 358.61 93.4359 359.639 94.886C360.668 96.3361 365.121 98.4719 367.889 98.8978C377.44 100.368 379.72 100.912 382.844 100.939C384.871 101.261 384.724 113.384 384.724 115.57C384.724 122.328 382.996 125.003 376.393 121.82C368.469 118.001 365.632 120.084 363.55 125.64C362.589 147.514 381.639 128.619 383.94 137.792C384.724 140.917 385.418 154.112 384.724 157.931C384.139 161.149 385.765 171.572 382.691 171.868C376.307 172.484 364.837 171.868 359.029 171.868C347.97 171.413 344.681 171.868 348.336 183.23C350.528 194.352 338.102 194.066 335.159 191.608C332.62 189.486 331.523 187.401 332.149 184.293C332.574 182.187 336.724 176.261 334.813 173.498C333.122 171.053 331.464 171.603 330.069 171.572C325.078 171.462 322.719 171.301 317.664 171.301C314.127 171.301 313.889 168.606 313.889 166.312C313.889 164.397 313.928 161.798 313.949 159.367C314.052 147.562 315.697 146.598 317.159 145.853C319.841 144.488 331.338 155.7 335.059 145.315C338.779 134.931 330.403 133.295 331.533 133.305C328.268 131.58 319.828 136.308 317.269 133.18C314.711 130.052 315.763 123.462 315.763 119.892C315.763 116.402 316.023 113.022 316.45 109.097C316.745 106.388 316.647 97.5941 322.302 97.5941ZM314.728 91.1221C314.548 84.8702 316.181 72.2566 311.208 67.7881C307.226 64.2106 299.549 71.4056 294.725 67.7431C290.794 64.7596 291.968 56.4986 292.269 54.8722C292.836 50.4072 298.566 47.3317 305.722 51.2499C307.749 52.3599 310.22 53.1837 311.867 53.1363C315.058 53.0446 314.358 49.3839 314.277 46.5553C314.379 36.6176 313.297 25.9579 314.333 24.3104C314.589 22.06 329.148 22.8023 331.333 22.7395C338.087 22.5453 341.946 22.7487 342.202 31.6867C342.353 36.9203 337.682 45.3235 342.711 49.3774C360.101 56.5613 348.869 28.5747 352.631 26.4444C356.973 22.8013 366.955 24.5409 371.766 24.4026C375.034 24.3086 384.874 24.5777 386.897 27.8855C388.684 34.7093 387.598 41.9593 387.783 48.381C387.679 60.6213 388.239 64.245 399.476 59.8767C410.521 57.1334 410.63 70.8807 408.267 74.2049C406.227 77.0736 404.178 78.3458 401.053 77.7428C398.935 77.3342 392.882 72.9158 390.181 75.1086C387.792 77.0484 388.394 78.8649 388.407 80.4091C388.455 85.9303 388.41 91.57 388.57 97.1597C388.683 101.069 384.785 100.784 382.492 100.85C380.578 100.905 378.65 100.679 376.768 100.274C359.491 97.9959 360.161 95.3842 359.37 93.7893C357.592 90.2006 361.481 80.3826 359.987 76.7857C358.493 73.1889 351.918 74.1868 351.301 78.6185C349.681 82.2779 353.494 92.745 350.449 95.6635C347.405 98.582 340.786 97.6087 337.218 97.7113C333.73 97.8116 330.344 97.6212 326.409 97.2615C323.693 97.0133 314.908 97.3739 314.728 91.1221Z" stroke="black" stroke-linecap="round"/>
</svg>
