<svg width="550" height="146" viewBox="0 0 550 146" fill="none" xmlns="http://www.w3.org/2000/svg">
<path d="M191.496 112.118C179.533 112.118 173.433 102.831 167.31 97.638C164.06 94.8806 160.832 97.9976 159.451 100.21C155.955 105.816 154.596 111.845 151.245 117.474C148.95 121.328 145.917 123.907 141.084 119.225C139.247 117.445 132.027 105.979 128.145 106.389C123.801 106.849 122.328 114.747 121.284 116.891C119.845 119.848 111.613 111.608 110.603 110.579C107.6 107.523 99.2332 114.407 97.8371 115.936C95.2524 118.767 93.2582 115.54 90.195 114.77C79.923 112.186 75.3727 113.55 64.5 113.55M291.678 28.8813C298.607 28.6823 312.594 30.7237 317.53 24.6496C321.482 19.7867 313.481 10.3619 317.525 4.46679C320.818 -0.335501 329.979 1.12948 331.783 1.50334C336.734 2.21248 340.162 9.23941 335.843 17.9876C334.62 20.4658 333.715 23.4894 333.773 25.5066C333.885 29.4133 337.941 28.569 341.076 28.4789C352.091 28.6373 363.903 27.3486 365.733 28.6221C368.228 28.944 368.7 49.5823 368.7 49.5823C368.7 49.5823 372.533 68.9253 363.17 64.1521C353.565 59.2558 346.431 59.1047 342.349 65.1753C336.545 100.212 363.397 72.0467 367.376 85.7185C368.604 89.9357 369.213 96.2968 369.335 100.546C369.45 104.548 369.815 117.209 368.295 117.645C360.737 119.809 346.417 118.273 339.3 118.477C325.732 118.309 321.717 118.982 326.597 132.757C329.675 146.289 314.437 146.377 310.745 143.472C307.558 140.965 306.141 138.452 306.799 134.627C307.245 132.035 312.122 124.638 309.682 121.324C307.524 118.392 305.512 119.122 303.801 119.134C297.681 119.174 291.43 119.1 285.234 119.278C280.901 119.402 281.204 114.63 281.123 111.822C281.056 109.479 281.301 107.119 281.742 104.815C284.21 83.6686 287.107 84.4971 288.872 83.5347C292.844 81.3693 303.739 86.1644 307.721 84.3474C311.703 82.5303 310.575 74.4751 305.661 73.7048C301.599 71.7089 290.01 76.3427 286.764 72.6049C283.519 68.8672 284.576 60.7658 284.45 56.3973C284.327 52.1261 284.527 47.9807 284.912 43.163C285.178 39.8384 284.749 29.0803 291.678 28.8813ZM285.617 37.1762C283.506 48.4222 284.419 54.6928 284.266 61.9173C285.167 71.8137 283.365 76.7619 303.624 73.2043C309.154 73.3214 310.318 77.9292 309.87 79.714C309.296 86.8664 300.557 84.6551 295.043 83.2601L294.898 83.2234C292.217 82.5452 289.211 83.1716 287.418 84.4091C285.626 85.6466 282.979 95.4135 282.465 98.8038C281.032 108.25 280.663 111.849 281.747 117.247C281.322 119.724 261.147 113.43 258.467 113.396C250.185 113.293 246.934 111.137 250.935 103.1C255.737 93.4563 253.227 89.9508 246.451 87.3159C219.659 85.8061 242.524 109.42 231.247 112.097C227.405 113.01 211.225 113.658 206.555 112.75C202.62 111.985 189.823 113.817 189.507 110.048C188.85 102.222 189.779 88.1868 189.868 81.075C190.596 67.5407 190.087 63.5061 176.108 67.8089C162.445 70.3233 162.985 55.1121 166.043 51.5464C168.682 48.4692 171.254 47.1585 175.053 47.9727C177.627 48.5244 184.826 53.6966 188.241 51.3983C191.263 49.3651 190.615 47.3276 190.674 45.6189C190.886 39.5095 191.119 36.6242 191.196 30.4338C191.25 26.1039 194.556 25.8527 197.368 25.8877C199.714 25.917 202.898 26.0048 205.876 26.0679C220.342 26.3742 221.499 28.4026 222.388 30.2041C224.021 33.5085 211.094 47.7833 222.775 52.1295C234.455 56.4757 237.08 48.8533 237.547 47.9964C239.71 44.025 234.045 33.6177 237.917 30.5328C241.79 27.448 249.85 28.8362 254.224 28.8906C258.502 28.9439 263.1 28.8906 268.054 28.8906C277.083 28.8906 287.728 25.9303 285.617 37.1762ZM369.317 111.327C369.097 103.673 371.098 88.2319 365.002 82.7616C360.121 78.3821 350.709 87.1901 344.795 82.7066C339.977 79.0542 341.415 68.941 341.784 66.9501C342.479 61.4841 349.504 57.719 358.276 62.5157C360.761 63.8745 363.791 64.883 365.811 64.825C369.722 64.7127 369.471 59.9286 369.471 56.7797C368.029 45.084 367.563 31.5533 368.833 29.5365C369.147 26.7815 386.996 27.6903 389.674 27.6133C397.953 27.3756 402.684 27.6246 402.999 38.5665C403.183 44.9734 397.457 55.2606 403.622 60.2233C424.941 69.0178 411.171 34.7568 415.783 32.1489C421.106 27.6891 433.344 29.8187 439.241 29.6493C443.248 29.5343 455.31 29.8637 457.791 33.9131C459.981 42.2667 458.65 51.1422 458.877 59.0035C458.749 73.988 459.436 78.4242 473.212 73.0765C486.751 69.7182 486.886 86.5475 483.988 90.617C481.488 94.1289 478.976 95.6863 475.145 94.9481C472.548 94.4478 465.127 89.0389 461.816 91.7233C458.888 94.0981 459.625 96.3217 459.642 98.2121C459.701 104.971 459.645 111.875 459.842 118.718C459.98 123.504 455.201 123.155 452.39 123.236C450.044 123.303 447.681 123.026 445.373 122.531C424.193 119.742 425.014 116.545 424.045 114.592C421.865 110.199 426.633 98.1797 424.801 93.7764C422.97 89.3732 414.909 90.5949 414.152 96.0202C412.166 100.5 416.841 113.314 413.108 116.886C409.376 120.459 401.262 119.268 396.888 119.393C392.612 119.516 388.461 119.283 383.637 118.843C380.307 118.539 369.537 118.98 369.317 111.327Z" stroke="black" stroke-linecap="round"/>
</svg>
