<svg width="401" height="300" viewBox="0 0 401 300" fill="none" xmlns="http://www.w3.org/2000/svg">
<path d="M214.15 9.92693C232.164 14.3728 241.992 15.9442 246.579 18.6469C246.918 18.6407 247.171 18.7704 247.348 19.0229C250.798 23.9514 224.865 75.6568 223.796 76.8226C213.82 88.9046 167.475 61.5802 160.727 58.0799C155.05 53.5853 147.375 56.2849 179.364 6.92598C184.095 0.899142 185.306 0.622199 191.767 2.1088C193.526 2.51369 210.568 9.04285 214.15 9.92693Z" fill="#FAFAFA"/>
<path d="M47.0806 231.26C56.6143 231.629 148.209 223.932 168.273 222.928C166.397 220.225 164.421 218.479 162.762 218.99C153.074 219.007 70.8238 225.083 65.8366 224.406C62.7931 224.411 46.6223 223.742 47.0806 231.26Z" fill="#FAFAFA"/>
<path d="M219.516 150.866C217.028 150.607 215.058 149.766 213.221 148.368C207.675 149.95 202.594 154.375 206.918 159.077C208.903 161.236 211.023 163.69 213.303 165.743C215.613 165.41 218.243 165.662 221.349 166.761C225.876 168.364 223.076 170.559 220.488 169.967C217.926 169.381 215.538 167.755 213.303 165.743C209.13 166.344 206.001 168.854 202.994 171.726C201.837 172.83 207.053 179.377 211.759 183.667C213.746 183.709 217.823 184.936 219.287 186.215C223.348 189.764 219.268 187.42 217.664 187.447C216.445 187.468 214.169 185.863 211.759 183.667C211.491 183.661 211.261 183.677 211.08 183.717C207.058 184.615 200.803 188.251 203.742 194.538C204.34 195.816 205.743 197.378 207.496 198.889C207.562 198.828 207.628 198.769 207.694 198.713C210.258 196.534 221.962 202.02 219.991 204.143C218.244 206.023 211.811 202.609 207.496 198.889C204.766 201.411 201.689 208.375 206.181 213.352C208.222 215.615 209.764 217.341 211.455 218.694C213.628 218.151 215.315 219.22 217.703 219.521C218.797 219.658 222.009 222.787 220.418 222.89C219.35 222.959 218.296 222.001 217.206 221.664C214.789 220.918 213.055 219.974 211.455 218.694C209.764 217.341 208.222 215.615 206.181 213.352C201.689 208.375 204.766 201.411 207.496 198.889C205.743 197.378 204.34 195.816 203.742 194.538C200.803 188.251 207.058 184.615 211.08 183.717C211.261 183.677 211.491 183.661 211.759 183.667C207.053 179.377 201.837 172.83 202.994 171.726C206.001 168.854 209.13 166.344 213.303 165.743C211.023 163.69 208.903 161.236 206.918 159.077C202.594 154.375 207.675 149.95 213.221 148.368C215.977 147.582 218.847 147.497 220.736 148.43C222.926 149.511 220.91 151.011 219.516 150.866Z" fill="#FAFAFA"/>
<path d="M246.579 18.6469C241.992 15.9442 232.164 14.3728 214.15 9.92693C210.568 9.04285 193.526 2.51369 191.767 2.1088C185.306 0.622199 184.095 0.899142 179.364 6.92598C147.375 56.2849 155.05 53.5853 160.727 58.0799C167.475 61.5802 213.82 88.9046 223.796 76.8226C224.865 75.6568 250.798 23.9514 247.348 19.0229M246.579 18.6469C246.918 18.6407 247.171 18.7704 247.348 19.0229M246.579 18.6469C246.813 18.743 247.07 18.869 247.348 19.0229M247.348 19.0229C254.924 23.2104 278.447 48.1104 276.145 57.047C272.805 70.0183 252.954 131.756 237.348 110.652C235.637 109.582 227.185 85.246 226.371 83.2911C226.204 81.8441 223.424 87.7632 207.322 86.8827C200.509 86.5101 160.894 67.6667 155.813 62.9662C147.804 55.5572 153.764 75.0855 154.576 81.9747C155.225 87.4861 161.243 103.139 173.364 106.287C179.104 107.778 189.178 111.709 195.677 112.875C202.176 114.04 230.238 117.612 235.472 119.164C240.343 120.609 245.246 131.275 218.972 126.714M189.196 12.1943L182.261 24.2346M182.261 24.2346L175.571 35.8502M182.261 24.2346L182.26 24.2373M182.261 24.2346C183.381 22.303 190.549 23.5302 190.295 28.3676C190.115 31.7801 185.551 40.0241 184.974 41.0256M356.485 225.034C356.499 232.416 335.707 231.553 325.562 231.571C288.028 233.259 258.322 237.323 255.571 237.328C250.807 237.336 251.705 238.933 251.718 246.287L251.768 273.833C251.779 279.867 250.741 289.48 249.581 291.083C248.569 292.481 246.35 292.485 245.32 290.229C244.22 287.817 243.619 283.54 243.537 280.69C243.295 272.249 248.076 238.468 245.221 234.554C243.755 232.544 235.412 213.632 232.195 213.638C228.692 213.644 226.632 222.722 225.12 228.308C224.554 231.856 211.995 290.76 208.164 291.646C198.135 293.965 192.423 275.067 188.666 266.065C182.553 251.418 174.385 222.815 171.342 222.821C170.688 222.822 169.649 222.859 168.273 222.928M168.273 222.928C148.209 223.932 56.6143 231.629 47.0806 231.26C46.6223 223.742 62.7931 224.411 65.8366 224.406C70.8239 225.083 153.074 219.007 162.762 218.99C164.421 218.479 166.397 220.225 168.273 222.928ZM168.273 222.928C172.691 229.292 176.554 240.959 174.418 240.963C161.741 243.506 83.7917 246.588 71.9634 246.609C70.3267 246.612 53.379 245.923 53.2017 250.254C52.9601 256.152 53.935 274.764 53.9456 280.669C53.9581 287.641 52.7832 299.812 51.2591 298.498C49.2642 296.779 49.2517 289.8 49.2463 286.799C49.2305 277.99 49.1524 255.147 47.1122 248.869C45.2023 242.992 39.9698 226.038 37.4429 231.277C34.4107 237.565 18.0743 285.712 16.7523 290.803M356.485 224.515C355.63 219.504 347.343 202.079 338.744 203.86C314.972 208.783 257.744 213.455 233.511 213.499M340.56 203.732C343.003 203.727 351.613 204.405 355.072 207.174C362.679 212.017 381.434 270.256 384.737 282.077M252.896 222.875L284.871 220.919M51.1955 238.061L83.1705 236.104M217.096 126.788C212.548 127.954 208.659 129.119 205.513 132.123C201.496 135.958 203.655 137.524 208.534 143.546C210.161 145.553 211.642 147.166 213.221 148.368M213.221 148.368C215.058 149.766 217.028 150.607 219.516 150.866C220.91 151.011 222.926 149.511 220.736 148.43C218.847 147.497 215.977 147.582 213.221 148.368ZM213.221 148.368C207.675 149.95 202.594 154.375 206.918 159.077C208.903 161.236 211.023 163.69 213.303 165.743M213.303 165.743C215.538 167.755 217.926 169.381 220.488 169.967C223.076 170.559 225.876 168.364 221.349 166.761C218.243 165.662 215.613 165.41 213.303 165.743ZM213.303 165.743C209.13 166.344 206.001 168.854 202.994 171.726C201.837 172.83 207.053 179.377 211.759 183.667M211.759 183.667C214.169 185.863 216.445 187.468 217.664 187.447C219.268 187.42 223.348 189.764 219.287 186.215C217.823 184.936 213.746 183.709 211.759 183.667ZM211.759 183.667C211.491 183.661 211.261 183.677 211.08 183.717C207.058 184.615 200.803 188.251 203.742 194.538C204.34 195.816 205.743 197.378 207.496 198.889M207.496 198.889C211.811 202.609 218.244 206.023 219.991 204.143C221.962 202.02 210.258 196.534 207.694 198.713C207.628 198.769 207.562 198.828 207.496 198.889ZM207.496 198.889C204.766 201.411 201.689 208.375 206.181 213.352C208.222 215.615 209.764 217.341 211.455 218.694M211.455 218.694C213.055 219.974 214.789 220.918 217.206 221.664C218.296 222.001 219.35 222.959 220.418 222.89C222.009 222.787 218.797 219.658 217.703 219.521C215.315 219.22 213.628 218.151 211.455 218.694ZM211.455 218.694C211.182 218.762 210.901 218.855 210.611 218.979C207.197 220.43 205.929 224.278 205.394 228.092C206.465 237.177 213.69 249.591 218.215 256.039" stroke="#4D4D4D" stroke-linecap="round"/>
</svg>
