<svg width="400" height="155" viewBox="0 0 400 155" fill="none" xmlns="http://www.w3.org/2000/svg">
<g opacity="0.5">
<path d="M270.89 143.978C261.52 147.028 255.849 149.14 241.795 143.978C239.354 143.082 233.739 141.19 231.296 140.65M231.296 140.65C227.602 140.65 222.81 138.881 220.098 137.635C208.502 132.31 200.866 119.281 199.757 115.328C198.4 112.305 185.067 77.5818 182.373 47.5508C182.373 40.1313 181.109 28.7815 188.784 24.793C191.944 23.1506 211.714 15.8775 225.275 16.816C241.302 15.6429 267.931 20.3352 270.89 21.7429C279.026 23.6199 279.026 44.3981 279.026 52.4778C279.026 64.4804 276.247 80.8916 273.602 91.8934C264.972 127.79 252.224 136.869 250.425 137.635C241.302 141.52 234.989 140.65 231.296 140.65ZM231.296 140.65C222.998 140.65 215.626 141.009 207.994 138.104C204.972 136.954 203.731 134.73 201.605 132.482C198.904 128.668 197.34 126.675 191.192 128.288M191.192 128.288C190.322 128.516 189.361 128.817 188.291 129.195M191.192 128.288C195.229 126.524 201.048 122.758 200.619 122.159C196.921 116.997 163.141 26.2007 188.784 21.7429C193.469 20.1057 203.824 18.2237 203.824 14.939C203.824 12.8275 198.848 6.60265 195.934 3.91204C193.807 1.94765 189.594 1.51254 186.706 1.61826C182.373 0.141204 170.603 1.35072 156.179 4.81852C136.882 9.45749 128.113 17.3083 123.8 20.7636C119.744 25.2853 117.917 27.817 117.527 31.1591C117.035 35.3759 117.035 35.9618 117.035 38.5327V38.5444C117.035 42.5328 117.529 44.9238 118.268 48.4431C119.994 58.297 123.691 67.024 129.116 76.6433C136.402 89.5648 144.896 105.501 153.525 114.651C169.552 130.605 174.483 129.195 179.415 129.901C181.601 129.901 185.819 130.371 188.291 129.195M191.192 128.288C190.001 128.809 188.965 129.155 188.291 129.195M188.291 129.195C184.985 130.767 183.147 134.116 181.88 135.767C178.675 139.946 176.456 142.102 174.483 143.275M175.135 142.746C173.003 144.199 169.592 146.297 165.664 146.473C163.881 146.553 162.062 146.473 160.278 146.473C153.375 146.473 149.855 139.213 146.323 135.153C144.447 132.997 142.584 135.434 141.788 137.164C139.77 141.546 138.986 146.26 137.052 150.661C135.728 153.674 133.978 155.69 131.19 152.029C130.129 150.638 125.964 141.674 123.724 141.995C121.217 142.354 120.367 148.529 119.765 150.205C118.934 152.517 114.185 146.074 113.602 145.271C111.869 142.881 107.041 148.263 106.236 149.458C104.744 151.671 103.594 149.148 101.826 148.546C95.8992 146.527 93.2737 147.593 87 147.593M313 144.007C311.081 143.523 309.122 143.988 307.196 144.29C303.478 144.874 299.784 145.387 296.047 144.687C293.487 144.207 290.432 143.446 288.815 139.981C287.641 137.464 286.958 141.957 286.563 143.383C286.171 144.802 285.295 150.209 283.762 149.506C281.867 148.637 279.538 145.853 278.361 143.44C277.438 141.545 276.045 141.971 274.595 142.284C273.248 142.575 272.133 143.046 271.148 143.44M262.526 54.2012C262.689 49.1227 257.132 45.827 252.649 45.5816C250.399 45.4586 248.457 45.3536 246.439 45.9967C244.421 46.6399 243.052 49.1201 242.973 50.5607C242.903 51.8397 242.609 55.1112 244.814 54.2521C247.269 53.2958 249.647 52.0275 252.42 52.1793C255.41 52.3429 257.79 52.2272 259.85 54.7076C260.914 55.9891 262.386 56.7587 262.506 54.5673M221.04 53.0622C219.54 48.2073 213.213 46.9 208.894 48.1273C206.727 48.7431 204.857 49.276 203.158 50.5411C201.459 51.8061 200.972 54.5969 201.366 55.9847C201.716 57.2169 202.504 60.4057 204.309 58.8757C206.318 57.1726 208.155 55.1991 210.826 54.44C213.706 53.6215 215.919 52.7375 218.674 54.4122C220.097 55.2775 221.74 55.5259 221.14 53.4149M153.801 46.2678C156.025 50.7635 152.219 56.088 148.163 58.2141C146.128 59.2808 145.839 59.4692 142.885 59.7153C139.93 59.9615 137.821 59.1127 137.16 57.8514C136.573 56.7314 134.965 53.9156 137.36 53.7506C140.026 53.5669 142.749 53.6958 145.257 52.3809C147.962 50.963 150.216 50.0554 151.113 46.9503C151.576 45.346 152.627 44.0285 153.633 45.9472M179.418 44.1791C178.668 44.1791 177.765 44.2971 177.061 44.0421C176.521 43.8467 175.811 43.8249 175.35 43.4764C175.161 43.333 174.824 43.1471 174.594 43.0731C174.318 42.9848 174.158 42.7807 173.991 42.581C173.757 42.3036 173.466 42.1086 173.278 41.815C173.132 41.5868 173.025 41.3374 172.954 41.0768C172.898 40.8696 172.806 40.6045 172.806 40.3919C172.806 40.1582 172.491 39.2051 172.831 39.0653C173.059 38.9716 173.252 38.7961 173.519 38.7914C174.134 38.7804 174.73 38.8827 175.342 38.8827C176.133 38.8827 176.909 39.1566 177.694 39.1566C178.251 39.1566 179.11 39.3117 179.566 38.974M189.906 94.6721C173.904 94.672 166.026 106.735 169.473 110.181C171.196 107.719 178.582 96.9933 190.891 98.6108M251.027 94.1916C250.428 96.9625 248.176 101.554 245.302 103.272C242.429 104.99 237.414 105.891 233.458 105.82C229.281 105.746 222.94 103.903 219.627 100.421C218.047 98.76 216.076 96.4758 215.264 94.1799C215.264 95.6452 215.283 96.2069 215.493 97.4834C215.702 98.76 216.205 100.16 216.637 101.239C217.39 103.121 218.319 104.159 219.787 105.756C221.256 107.354 223.575 108.871 225.047 109.35C227.704 110.214 229.95 110.804 232.71 110.804C236.04 110.804 239.626 110.804 242.803 109.973C247.289 108.52 249.421 105.907 250.653 101.46C251.02 100.134 251.214 98.4912 251.214 97.0988C251.214 96.5059 251.214 95.4375 251.027 94.1916Z" stroke="#4D4D4D" stroke-linecap="round"/>
</g>
</svg>
