<svg width="550" height="215" viewBox="0 0 550 215" fill="none" xmlns="http://www.w3.org/2000/svg">
<path d="M246.161 164.597C237.056 164.597 232.412 157.487 227.752 153.511C225.278 151.4 222.821 153.786 221.77 155.48C219.109 159.772 218.075 164.388 215.524 168.698C213.778 171.649 211.469 173.622 207.791 170.038C206.392 168.675 200.897 159.897 197.942 160.211C194.636 160.563 193.515 166.61 192.72 168.251C191.625 170.515 185.359 164.206 184.59 163.419C182.305 161.079 175.937 166.35 174.874 167.52C172.907 169.687 171.389 167.217 169.057 166.627C161.239 164.649 157.776 165.693 149.5 165.693M313.343 88.6229C314.029 93.7889 333.909 101.71 335.966 106.876M252.976 22.3463C258.25 22.194 268.896 23.7569 272.653 19.1064C275.661 15.3834 269.571 8.16756 272.649 3.65422C275.156 -0.022478 282.128 1.09913 283.501 1.38536C287.269 1.9283 289.879 7.30821 286.591 14.0059C285.66 15.9033 284.972 18.2182 285.016 19.7626C285.101 22.7536 288.188 22.1072 290.574 22.0382C298.958 22.1595 307.949 21.1729 309.341 22.1479C311.241 22.3943 310.908 36.129 310.966 38.1775C311.147 44.5088 313.634 52.1541 307.39 49.3501C299.898 45.9853 294.65 45.4858 291.543 50.1335C287.126 76.9578 307.563 55.3943 310.592 65.8617C311.527 69.0904 311.99 73.9605 312.083 77.2135C312.171 80.2781 312.448 89.9716 311.292 90.3048C305.539 91.9619 294.64 90.7858 289.222 90.9423C278.895 90.8133 275.84 91.3289 279.554 101.875C281.896 112.236 270.299 112.303 267.488 110.079C265.063 108.159 263.984 106.235 264.485 103.307C264.824 101.322 268.536 95.6589 266.679 93.1215C265.037 90.8768 263.506 91.4362 262.203 91.4449C257.545 91.4759 252.787 91.4187 248.072 91.5549C244.773 91.6502 245.004 87.9965 244.943 85.847C244.891 84.0531 245.077 82.246 245.413 80.4823C247.291 64.2922 249.497 64.9265 250.84 64.1897C253.863 62.5318 262.156 66.203 265.187 64.8119C268.218 63.4208 267.359 57.2536 263.618 56.6638C260.527 55.1357 251.706 58.6834 249.236 55.8217C246.766 52.9601 247.57 46.7575 247.474 43.413C247.381 40.1429 247.533 36.9691 247.826 33.2806C248.029 30.7352 247.702 22.4987 252.976 22.3463ZM262.097 211.007C260.4 205.972 258.748 195.263 253.237 193.001C248.824 191.19 243.78 199.161 238.598 197.514C234.377 196.173 233.388 189.13 233.255 187.724C232.661 183.936 236.99 179.853 244.303 181.065C246.375 181.408 248.77 181.396 250.221 180.902C253.029 179.947 251.509 177.163 250.741 174.885C248.389 166.774 244.808 158.403 245.322 156.777C244.997 154.876 257.262 150.699 259.185 150.045C265.13 148.023 268.002 148.761 267.183 155.593C266.2 163.792 268.883 165.694 274.395 165.887C293.928 160.197 271.59 148.888 278.97 144.094C281.484 142.461 292.883 137.895 296.451 137.37C299.458 136.928 308.14 132.362 309.323 135.011C311.779 140.511 314.678 150.909 316.421 156.08C319.337 166.064 320.725 168.857 329.623 162.202C338.75 156.923 342.227 168.073 340.947 171.429C339.842 174.326 338.336 175.926 335.415 176.298C333.435 176.55 326.977 174.628 325.119 177.157C323.476 179.394 324.456 180.705 324.848 181.957C326.248 186.434 327.594 191.034 329.11 195.536C330.171 198.684 326.642 199.528 324.623 200.215C322.939 200.788 321.172 201.136 319.402 201.327C303.51 204.242 303.462 201.933 302.369 200.854C299.909 198.426 300.946 189.368 298.737 186.855C296.527 184.342 290.937 186.968 291.478 190.743C290.94 194.167 296.897 201.627 294.913 204.841C292.928 208.055 286.815 209.091 283.675 210.159C280.604 211.203 277.552 211.983 273.971 212.777C271.5 213.324 263.793 216.043 262.097 211.007ZM315.795 132.034C320.804 130.367 329.315 126.981 334.557 125.287C338.994 123.208 344.215 123.572 336.194 107.02C334.905 102.992 337.935 101 339.332 100.878C344.626 99.5061 345.204 106.376 345.568 110.711L345.578 110.824C345.755 112.933 346.735 117.629 348.072 118.616C349.409 119.603 354.054 120.297 356.623 119.822C364.635 118.34 367.626 118.057 370.401 117.16C372.291 116.849 375.717 127.678 376.358 129.623C378.341 135.636 377.595 138.525 370.813 137.64C362.674 136.578 360.772 139.268 360.557 144.825C366.123 164.57 377.454 142.142 382.183 149.626C383.794 152.175 388.279 163.709 388.785 167.312C389.211 170.348 393.709 179.142 391.072 180.312C385.598 182.741 375.258 185.576 370.114 187.288C360.185 190.143 357.405 191.518 363.976 200.549C369.18 209.798 358.09 213.208 354.762 211.888C351.89 210.749 350.307 209.217 349.95 206.267C349.708 204.268 351.646 197.773 349.142 195.878C346.927 194.201 345.621 195.178 344.375 195.563C339.922 196.936 337.786 197.488 333.308 198.979C330.176 200.021 329.174 197.694 328.501 195.653C327.939 193.949 327.212 191.625 326.518 189.457C323.146 178.923 324.32 177.58 325.396 176.487C327.371 174.481 340.863 180.26 341.093 170.731C341.323 161.201 335.18 161.208 334.447 161.084C331.049 160.512 324.96 167.208 321.777 165.179C318.593 163.15 317.591 156.977 316.544 153.8C315.52 150.695 314.759 147.611 313.986 143.993C313.453 141.496 310.787 133.701 315.795 132.034ZM312.07 85.4678C311.902 79.6082 313.425 67.7859 308.785 63.5978C305.07 60.2448 297.906 66.9883 293.405 63.5557C289.737 60.7593 290.833 53.0166 291.113 51.4923C291.642 47.3074 296.989 44.4248 303.666 48.0973C305.557 49.1376 307.863 49.9097 309.401 49.8653C312.377 49.7793 311.724 46.3483 311.649 43.6971C311.744 34.3829 310.735 24.392 311.701 22.8479C311.94 20.7387 325.525 21.4344 327.564 21.3755C333.865 21.1935 337.466 21.3842 337.706 29.7614C337.846 34.6666 333.488 42.5427 338.18 46.3422C354.407 53.0754 343.926 26.8447 347.436 24.848C351.488 21.4335 360.802 23.064 365.291 22.9343C368.341 22.8462 377.521 23.0984 379.41 26.1987C381.077 32.5944 380.064 39.3895 380.236 45.4083C380.139 56.8806 380.662 60.277 391.147 56.1827C401.453 53.6116 401.555 66.4963 399.35 69.612C397.446 72.3008 395.534 73.4931 392.618 72.928C390.642 72.5449 384.994 68.4038 382.474 70.459C380.244 72.2771 380.806 73.9796 380.818 75.4269C380.864 80.6018 380.821 85.8876 380.971 91.1266C381.076 94.7911 377.438 94.5236 375.299 94.5854C373.514 94.637 371.714 94.4247 369.958 94.046C353.837 91.9104 354.462 89.4625 353.725 87.9676C352.065 84.6041 355.694 75.4021 354.3 72.0309C352.906 68.6597 346.771 69.5951 346.195 73.7487C344.683 77.1785 348.241 86.9889 345.4 89.7243C342.56 92.4597 336.384 91.5475 333.055 91.6436C329.8 91.7376 326.641 91.5591 322.969 91.222C320.434 90.9894 312.237 91.3274 312.07 85.4678Z" stroke="black" stroke-linecap="round"/>
</svg>
