<svg width="400" height="64" viewBox="0 0 400 64" fill="none" xmlns="http://www.w3.org/2000/svg">
<g opacity="0.5">
<path d="M278.375 2.15375C281.724 0.543853 285.503 0.362895 289.151 0.222497C294.545 -0.114458 299.955 0.107059 305.355 0.0477796C310.005 -0.0364592 314.658 0.00410033 319.309 0.0664995C318.994 0.415935 318.677 0.762249 318.394 1.13664C314.048 1.1616 309.703 1.05553 305.358 1.17408C299.55 1.24272 293.733 0.980647 287.934 1.39872C284.943 1.53912 281.836 1.73568 279.106 3.09286C278.26 5.32363 278.166 7.74471 278.039 10.1003C277.7 16.1249 277.914 22.1589 278.12 28.1835C278.247 32.0429 278.512 35.8992 278.854 39.7492C279.085 41.4496 279.085 43.2311 279.751 44.8379C280.728 46.0734 282.415 46.2263 283.869 46.3386C285.848 46.3511 287.815 46.0422 289.783 45.8144C290.598 45.5586 291.37 45.1093 292.257 45.1218C296.87 44.9096 301.458 45.8175 306.046 45.986C307.689 45.1748 309.526 45.4743 311.272 45.6709C313.74 46.064 316.233 45.5087 318.711 45.8207C320.407 45.6584 322.063 46.0391 323.701 46.4447C325.266 46.0671 326.807 45.4931 328.435 45.4463C329.042 45.2216 329.661 45.0188 330.277 44.8098C331.009 44.3168 331.768 43.8457 332.593 43.5181L332.506 43.2498L332.808 43.3497C333.178 42.7849 333.564 42.2296 333.916 41.6493C334.912 39.2001 336.11 36.7853 336.518 34.1458C336.745 32.7886 337.072 31.4345 337.057 30.0493C337.019 22.9857 336.801 15.9221 336.873 8.85854C336.864 7.3516 336.783 5.80098 337.243 4.34396C340.082 3.23637 343.297 4.27532 346.124 3.0991C344.642 2.51567 343.024 2.47199 341.467 2.26295C337.275 1.84175 333.066 1.65768 328.858 1.46736C328.674 1.09297 328.5 0.71857 328.329 0.341055C333.76 0.593772 339.211 0.74977 344.602 1.5204C345.654 1.7388 347.154 1.86047 347.328 3.19582C346.939 3.76989 346.482 4.34084 345.741 4.4282C345.722 4.31276 345.685 4.07876 345.663 3.96021C345.607 4.15988 345.557 4.36268 345.514 4.56236C343.086 5.02411 340.577 4.65908 338.171 5.18947C337.906 6.39065 337.981 7.62927 337.938 8.8523C337.928 13.3388 337.953 17.8253 338.171 22.3087C338.541 18.8268 338.825 15.3356 339.179 11.8537C339.432 11.991 339.933 12.2655 340.185 12.4028C339.758 18.7301 338.918 25.023 338.193 31.3191C338.439 35.9647 337.499 40.5323 336.752 45.0906C335.98 49.315 335.258 53.5582 334.121 57.6983C333.188 60.0196 330.779 61.3955 328.453 61.9883C323.654 63.1895 318.671 63.2831 313.753 63.4266C308.555 63.6325 303.36 63.3642 298.165 63.2831C291.121 63.1364 284.083 62.6497 277.033 62.6809C275.723 62.6559 274.388 62.9773 273.105 62.6123C271.425 62.1536 270.068 60.9587 268.963 59.6577C267.577 57.9635 266.429 56.0916 265.367 54.1821C264.592 55.9792 264.353 58.0384 263.049 59.5828C263.176 59.4611 263.431 59.2146 263.556 59.0898C264.365 59.7793 265.399 60.6623 265.072 61.8666C264.564 63.0335 263.17 63.2144 262.068 63.4016C258.875 63.7729 255.659 63.8322 252.45 63.9133C237.715 64.1535 222.971 63.8759 208.245 63.3111C206.698 63.2581 205.151 63.1863 203.611 63.0303C203.611 62.7589 203.604 62.2192 203.601 61.9508C206.499 62.1973 209.412 62.163 212.313 62.4095C213.082 62.7683 213.923 62.5748 214.729 62.4688C216.201 62.372 217.673 62.5436 219.149 62.5873C217.493 61.5827 215.821 60.2598 215.308 58.2974C215.13 57.3458 215.193 56.3505 215.466 55.4208C215.575 54.9278 215.7 54.4411 215.84 53.9544C213.77 53.8982 211.647 54.1229 209.63 53.5488C209.086 53.424 208.703 52.9997 208.336 52.6128C208.311 48.5943 207.663 44.5602 208.186 40.5511C208.41 39.4466 208.753 38.0582 209.938 37.637C213.328 36.5232 217.107 36.4764 220.204 34.5514C222.386 31.3971 222.629 27.3911 224.309 24.0028C224.764 23.1729 225.791 23.02 226.622 22.8047C229.89 22.1464 233.239 22.0809 236.56 21.9031C240.815 21.822 245.089 21.8032 249.328 22.265C250.648 22.4678 252.273 22.5427 253.054 23.8187C254.76 26.5861 255.021 29.9432 256.481 32.8198C258.296 35.556 261.439 37.1129 264.602 37.662C266.936 38.1362 269.638 38.2454 271.415 40.0519C272.866 41.5089 272.772 43.7397 272.822 45.6459C272.853 48.2542 271.599 51.0248 269.196 52.2228C268.247 52.8031 267.148 53.0246 266.083 53.268C267.462 55.5549 268.826 57.8824 270.64 59.8605C271.281 60.4657 272.053 60.915 272.828 61.33C274.459 62.0663 276.252 61.4423 277.961 61.5421C282.203 61.6139 286.449 61.7262 290.688 61.9477C288.653 61.2863 286.938 59.7575 286.1 57.7763C285.139 55.6142 284.69 53.087 285.528 50.8095C285.96 49.3712 286.966 48.2355 287.959 47.1529C285.59 47.415 283.106 47.7301 280.806 46.9314C279.66 46.4571 278.512 45.5867 278.359 44.2607C277.413 38.9692 277.286 33.5748 276.99 28.2179C276.784 21.666 276.61 15.0984 276.999 8.54966C277.233 6.38753 277.273 4.09436 278.375 2.15375ZM225.33 24.3897C223.814 27.6344 223.422 31.3222 221.598 34.4297C220.907 35.712 219.491 36.3079 218.184 36.7509C215.519 37.5996 212.724 37.9334 210.047 38.7415C209.693 39.4404 209.304 40.1517 209.26 40.9535C208.812 44.7068 209.369 48.4789 209.459 52.2353C211.831 53.4178 214.688 52.2166 217.085 53.321C217.101 53.4989 217.125 53.8514 217.141 54.0261C216.506 55.2055 216.108 56.5408 216.204 57.8887C217.11 60.0414 219.177 61.982 221.645 61.8541C223.743 61.8229 226.196 61.5827 227.655 59.8761C226.261 59.6234 224.77 59.4954 223.593 58.625C222.529 57.9729 221.959 56.8029 221.53 55.6735C221.626 55.2773 221.71 54.881 221.782 54.4817C221.966 54.4879 222.339 54.5035 222.523 54.5129C222.588 56.363 223.926 57.9854 225.732 58.3847C226.438 58.4877 227.403 58.9338 227.988 58.3504C228.262 56.5065 227.995 54.4536 226.803 52.9654C226.003 52.0263 224.702 52.0387 223.581 52.02L223.606 52.2259C223.151 52.6409 222.765 53.1245 222.576 53.7173C222.457 53.6986 222.224 53.6642 222.106 53.6455L222.121 54.0417L221.399 53.9419C221.527 52.956 221.875 52.0138 222.856 51.6269C223.148 51.4397 223.376 51.0872 223.771 51.109C224.913 51.0029 226.186 50.9062 227.114 51.733C228.851 53.1775 229.286 55.661 229.215 57.8107C230.086 57.1898 230.892 56.4784 231.773 55.87C233.109 54.9653 234.721 54.647 236.271 54.3069C239.549 53.6705 242.895 53.4708 246.228 53.424C248.376 53.5644 250.617 53.5363 252.609 54.4754C253.863 50.6098 258.358 48.0951 262.28 49.2682C263.696 49.8017 264.602 51.1059 265.455 52.2915C266.32 52.0855 267.173 51.8359 268.047 51.6675C269.526 50.9093 270.783 49.705 271.35 48.1107C271.207 48.0795 270.92 48.0171 270.78 47.989C270.945 47.9984 271.275 48.0202 271.44 48.0296C271.761 46.22 271.783 44.3574 271.493 42.5416C271.253 41.4902 270.584 40.4949 269.579 40.055C267.858 39.2344 265.937 39.041 264.085 38.7134C260.748 38.0676 257.44 36.3329 255.538 33.4282C254.007 30.6015 253.807 27.2257 252.127 24.4646C251.622 23.5972 250.505 23.5723 249.633 23.4194C244.466 22.8391 239.25 22.9327 234.064 23.123C231.145 23.4163 228.097 23.2852 225.33 24.3897ZM334.37 42.7413C333.101 44.2482 331.578 45.9735 329.415 45.8737L329.493 46.142C329.275 46.1451 328.846 46.1545 328.628 46.1576C327.445 46.7972 326.085 47.0406 324.756 47.0499C324.756 47.1841 324.762 47.4493 324.765 47.5834C325.898 47.6926 326.38 48.8689 326.838 49.7549C326.9 49.9203 327.022 50.2541 327.081 50.4226C328.208 53.5394 327.296 57.1523 325.111 59.5797C323.978 60.8183 322.222 61.6108 320.554 61.0648C317.793 59.4549 315.9 56.3786 315.835 53.165C316.003 52.7002 316.075 52.2103 316.143 51.7205L316.423 51.8047C316.408 51.5614 316.377 51.0684 316.361 50.822L316.794 50.8407C316.753 50.6784 316.679 50.3571 316.638 50.1948L316.974 50.2354C317.239 49.0467 318.409 48.1762 319.555 47.9173L319.52 47.6115C319.676 47.6552 319.993 47.7394 320.152 47.7831L320.165 47.3838C320.383 47.3619 320.815 47.3182 321.033 47.2964C320.694 46.6287 319.953 46.7629 319.365 46.7348C315.381 46.8159 311.396 46.7223 307.422 46.5539C309.719 48.248 311.515 50.6628 312.2 53.4646C312.738 55.3927 312.726 57.5361 311.879 59.3738C311.076 60.9961 309.308 62.0008 307.521 62.0039C305.38 62.0694 303.005 61.4454 301.642 59.6764C300.313 57.9105 300.281 55.5112 300.776 53.4396C301.424 50.9904 302.715 48.638 304.676 47.0062C300.546 46.8066 296.447 46.0796 292.301 46.1545C293.708 46.8378 295.027 47.7894 295.862 49.1403C297.356 51.7267 297.458 54.9559 296.577 57.7639C295.946 59.7325 294.452 61.6326 292.294 61.9321C297.471 62.2254 302.663 62.2784 307.848 62.3876C313.454 62.3596 319.078 62.3096 324.65 61.6014C326.919 61.1864 329.39 60.9618 331.27 59.4798C332.092 58.8652 332.904 58.0977 333.144 57.0556C333.9 54.335 334.402 51.552 334.946 48.7846C335.13 48.3821 334.912 48.0015 334.753 47.6458C335.108 47.546 335.292 47.3089 335.301 46.9407C335.752 43.8832 336.456 40.8599 336.708 37.7774C335.986 39.4528 335.494 41.2718 334.37 42.7413ZM289.954 47.1466C287.47 48.5756 285.817 51.5021 286.269 54.3943C286.592 56.5502 287.523 58.8028 289.372 60.082C290.607 60.9369 292.41 61.1864 293.664 60.2349C295.413 58.7279 296.011 56.3006 296.036 54.0761C296.061 51.4491 294.862 48.5693 292.329 47.4836C291.585 47.2402 290.713 46.7442 289.954 47.1466ZM301.878 53.6518C301.442 55.3241 301.418 57.2335 302.367 58.7435C302.277 58.9557 301.888 59.2365 302.168 59.458C302.361 59.7013 302.638 59.4143 302.856 59.3488C303.979 60.4969 305.654 60.8464 307.204 60.8932C308.704 60.9431 310.316 60.1974 310.93 58.7529C311.926 56.5034 311.368 53.9107 310.391 51.7517C309.482 49.861 308.016 48.0389 305.987 47.3307C303.923 48.8595 302.519 51.1808 301.878 53.6518ZM321.845 47.8143C321.463 47.9204 321.083 48.0078 320.7 48.0826L320.756 48.3478C320.56 48.3447 320.171 48.3353 319.975 48.3291C319.421 49.368 318.241 49.8766 317.513 50.7845L317.251 50.8064C317.298 50.9686 317.388 51.2868 317.432 51.4459L317.033 51.3586C316.489 54.6065 317.983 58.1195 320.784 59.8605C322.029 60.681 323.47 59.6483 324.348 58.7435C326.231 56.8029 326.48 53.9794 326.707 51.4241L326.296 51.4366C326.337 51.2681 326.418 50.9343 326.458 50.7689L326.216 50.7627C325.63 49.6894 324.918 48.6723 324.012 47.8549C323.358 47.4212 322.54 47.6146 321.845 47.8143ZM258.828 50.251C256.537 50.7752 254.48 52.5067 253.708 54.7562C256.718 55.8045 259.724 56.9183 262.513 58.4846C262.937 57.6734 263.313 56.8372 263.665 55.9917C263.839 54.9341 264.216 53.9325 264.543 52.9186C263.886 52.1136 263.319 51.1932 262.423 50.6379C261.371 49.9234 260.014 50.1137 258.828 50.251ZM233.183 56.3505C231.708 57.1804 230.497 58.4222 228.978 59.1959C228.689 59.9229 228.471 60.7278 227.873 61.2707C227.039 62.0413 225.897 62.2847 224.876 62.7059C234.369 62.7995 243.869 63.1052 253.359 62.7714C256.584 62.684 259.833 62.6965 263.014 62.085C263.528 62.0819 263.827 61.6513 264.166 61.3331C263.749 60.8651 263.323 60.4158 262.874 59.9821C261.639 61.1677 260.117 62.4063 258.305 62.2566C257.785 61.9228 258.741 61.5484 258.921 61.252C259.995 60.8152 261.05 60.291 261.838 59.4049C259.242 57.9043 256.397 56.8747 253.558 55.9356C253.972 57.9323 255.189 59.8542 257.091 60.7122C256.817 60.8495 256.546 60.993 256.282 61.1365C256.543 61.2395 256.811 61.3456 257.082 61.4516C257.334 61.4142 257.947 61.0367 257.997 61.4922C257.882 61.6264 257.654 61.8947 257.539 62.0288C257.188 62.2348 256.851 61.8604 256.54 61.7574C254.296 60.55 252.528 58.1882 252.547 55.5643C249.226 54.2945 245.603 54.569 242.123 54.6345C239.119 55.0214 236.022 55.2024 233.183 56.3505Z" fill="#4D4D4D"/>
<path d="M319.788 0.0321822C322.589 0.250579 325.403 0.225619 328.211 0.331698C328.398 0.715453 328.587 1.10233 328.784 1.4892C325.761 1.38936 322.739 1.25521 319.72 1.21153C319.1 0.996249 319.639 0.397217 319.788 0.0321822Z" fill="#4D4D4D"/>
<path d="M372.615 4.47499C374.208 3.54836 376.11 3.82916 377.869 3.7886C379.736 3.74492 381.607 3.87284 383.465 4.08188C384.489 4.23787 385.706 4.60291 386.111 5.67617C386.805 7.47327 387.129 9.43884 386.973 11.3639C386.811 12.5994 385.89 13.5229 384.872 14.1375C385.557 15.1858 386.223 16.3121 386.394 17.5726C386.503 18.4274 386.167 19.2324 385.881 20.0155C386.637 21.9592 386.531 24.1806 385.526 26.0152C385.899 28.0369 386.665 30.1928 385.955 32.2208C385.432 33.7183 383.646 33.7932 382.345 34.0709C381.806 35.6902 381.999 37.4311 381.872 39.1096C381.937 46.0921 382.139 53.0808 382.712 60.0414C382.684 61.0211 383.845 61.3144 384.573 61.6264C387.851 62.528 391.325 62.372 394.686 62.1193C395.623 62.0912 396.616 61.7543 397.5 62.1911C397.279 62.4126 396.84 62.8556 396.619 63.0803C392.255 63.4079 387.708 63.8415 383.472 62.4687C383.699 62.3564 383.929 62.2503 384.169 62.1474L383.496 61.9789C383.512 62.0881 383.543 62.3127 383.559 62.4219C382.581 62.0351 381.567 61.2769 381.592 60.1132C381.05 52.4038 380.655 44.6694 380.841 36.9381C380.863 35.6621 380.907 34.3361 381.508 33.1755C382.572 32.851 383.714 32.7512 384.729 32.2613C385.591 30.6358 384.897 28.767 384.682 27.0635C383.188 28.6047 380.891 29.3223 378.803 28.8231C377.648 28.5423 376.428 27.6032 376.428 26.3178C376.422 24.8764 377.691 23.8718 378.94 23.435C381.003 22.6238 383.272 23.463 384.869 24.8577C385.333 23.5598 385.342 22.1745 385.059 20.836C383.117 21.8188 380.68 22.5489 378.625 21.46C376.994 20.7362 376.101 18.5179 377.119 16.9548C378.186 15.4635 380.374 15.1234 381.962 15.9533C383.328 16.5617 384.262 17.7722 385.277 18.8237C385.604 17.0359 384.402 15.6382 383.618 14.1812C383.643 14.3029 383.689 14.54 383.714 14.6585C382.009 14.8426 379.979 15.738 378.488 14.4713C376.932 13.3169 375.824 10.9801 376.951 9.17676C378.398 7.36095 381.187 7.61055 382.992 8.73373C384.187 9.81948 384.555 11.4169 384.804 12.9488C386.388 11.5916 385.915 9.36396 385.548 7.57311C385.317 6.73696 385.162 5.57633 384.131 5.38602C381.374 4.69963 378.498 4.97106 375.684 4.90554C374.42 4.86498 372.652 5.12706 372.447 6.67144C371.83 10.1751 372.422 13.7475 372.416 17.2762C372.49 20.3805 372.621 23.4786 372.652 26.583C372.746 28.2927 372.848 30.277 374.243 31.4813C374.803 32.0273 375.821 31.993 376.176 32.7574C376.194 32.6513 376.232 32.4392 376.25 32.3331C377.162 32.0772 377.141 32.9571 377.271 33.4812C377.408 34.3579 377.467 35.2471 377.555 36.1332C377.175 36.2642 376.764 36.3173 376.412 36.102C376.39 35.2128 376.235 34.3361 376.135 33.4531C373.866 33.2659 372.132 31.3721 371.802 29.1757C371.236 25.4661 371.619 21.6878 371.311 17.9563C371.264 14.7178 370.978 11.4793 371.121 8.24078C371.189 6.88984 371.379 5.27994 372.615 4.47499ZM377.782 9.96923C377.197 11.6228 378.46 13.5197 380.06 14.0002C381.29 14.047 382.507 13.7537 383.68 13.3918C383.493 11.913 383.285 10.0472 381.753 9.33276C380.508 8.78677 378.597 8.68693 377.782 9.96923ZM380.266 16.5929C379.145 16.5835 377.788 17.2512 377.772 18.5242C377.844 19.8689 379.164 20.7144 380.39 20.861C381.797 20.964 383.257 20.5896 384.427 19.7909C383.468 18.3245 382.071 16.8612 380.266 16.5929ZM377.39 26.3178C377.894 27.3068 378.94 27.9339 380.06 27.8435C381.644 27.9495 383.098 27.1134 384.15 25.9871C382.616 23.7251 378.442 23.5223 377.39 26.3178Z" fill="#4D4D4D"/>
<path d="M339.746 6.57474C341.343 5.80723 343.17 5.84779 344.894 6.04747C345.685 6.16291 346.653 6.3345 346.951 7.20497C348.383 10.4341 348.277 14.047 348.841 17.4727C349.227 19.0858 350.82 19.7472 352.187 20.34C353.507 21.0389 354.991 21.5162 356.106 22.5489C357.189 23.7314 357.332 25.4193 357.631 26.9262C358.113 31.0882 357.911 35.2877 357.668 39.4591C357.351 42.083 357.562 45.0469 355.785 47.2153C354.313 48.716 352.635 49.9983 351.169 51.5084C353.544 54.7469 355.499 58.3286 358.266 61.2551C360.46 61.9883 362.841 61.7481 365.123 61.8167C368.547 61.7886 371.977 61.6856 375.391 61.4111C375.839 61.4111 375.895 60.8838 376.169 60.628C376.384 60.6841 376.583 60.7809 376.776 60.9119L376.758 60.4907C376.717 60.3722 376.636 60.135 376.599 60.0134C377.551 55.6049 377.477 51.0622 377.274 46.5788C377.072 43.3341 376.957 40.0737 376.49 36.857C376.882 36.8165 377.281 36.7166 377.688 36.7416C378.205 43.5868 378.912 50.4725 378.214 57.3302C377.968 58.9058 377.732 60.6124 376.705 61.8947C376.356 62.4344 375.681 62.528 375.099 62.5811C370.215 62.8276 365.319 63.1489 360.435 62.8088C359.312 62.6248 357.92 62.7277 357.148 61.7293C356.295 60.8152 355.561 59.7981 354.839 58.781C353.435 56.9152 352.237 54.906 350.833 53.0403L351.387 53.087C351.091 53.0122 350.802 52.9373 350.515 52.8655C349.765 55.6049 349.108 58.6094 346.998 60.6654C345.974 61.7137 344.521 62.2192 343.073 62.2379C343.07 62.0756 343.058 61.7512 343.051 61.5889C342.995 61.7605 342.886 62.1037 342.834 62.2753C340.941 62.2129 339.108 61.1865 338.093 59.5797C336.546 57.0494 336.033 53.8265 337.01 50.9936C337.863 48.6068 339.712 46.4259 342.22 45.7458C343.674 45.3121 345.24 45.7708 346.485 46.5663C348.156 47.5616 349.301 49.1809 350.547 50.6348C351.378 49.7643 352.221 48.8907 353.167 48.1388C353.012 47.9766 352.865 47.8174 352.722 47.6552C352.844 47.5741 353.09 47.415 353.211 47.337C353.301 47.4431 353.488 47.6521 353.578 47.7582C354.226 47.1685 354.973 46.6287 355.374 45.8207C356.274 44.2513 356.249 42.3856 356.464 40.6415C356.762 36.0958 357.089 31.5094 356.507 26.9699C356.32 25.7812 356.146 24.5332 355.461 23.5067C354.913 22.8079 354.039 22.5146 353.279 22.1184C352.053 21.4819 350.792 20.9234 349.557 20.3181C349.61 20.2402 349.712 20.0842 349.765 20.003C349.099 20.159 348.691 19.535 348.365 19.067C347.446 17.6069 347.549 15.8254 347.325 14.1781C347.12 11.8943 346.734 9.60422 345.878 7.46705C344.222 6.85242 342.357 6.96785 340.67 7.38281C340.58 9.04263 340.381 10.6962 340.253 12.3529C339.889 12.1532 339.528 11.9504 339.173 11.7476C339.416 10.0285 339.36 8.272 339.746 6.57474ZM339.864 48.4508C337.922 50.4663 337.113 53.5394 337.909 56.2413C338.398 58.3348 339.699 60.5937 341.978 61.0367C341.956 61.174 341.912 61.4485 341.89 61.5889C341.912 61.4641 341.959 61.2208 341.981 61.0991C343.288 61.2301 344.601 60.9805 345.75 60.3316C345.728 60.1818 345.685 59.8823 345.663 59.7326L345.834 60.2567C348.265 58.0072 348.825 54.6221 349.759 51.602C349.261 50.7065 348.508 49.9858 347.842 49.2183C346.718 48.0327 345.355 46.7972 343.637 46.7255C342.183 46.5975 340.82 47.4181 339.864 48.4508Z" fill="#4D4D4D"/>
<path d="M103.681 14.724C110.298 14.5525 116.925 14.3653 123.542 14.6523C124.112 14.646 124.635 15.1078 124.716 15.6725C125.301 18.1903 124.909 20.7924 124.959 23.3476C127.103 23.6534 129.254 23.9154 131.396 24.2649C132.177 27.6531 133.658 30.8074 135.028 33.9804L135.317 33.9617C135.305 34.0771 135.28 34.3143 135.268 34.4328C135.675 34.7604 136.064 35.2814 136.65 35.2284C137.957 35.2565 139.286 35.1504 140.565 35.503C140.985 35.5061 141.406 35.5154 141.829 35.5217L141.717 35.8118C143.289 35.7744 144.904 35.9054 146.361 36.5481C147.6 37.8055 147.839 39.6775 148.228 41.3248C148.67 44.1764 149.168 47.1342 148.571 49.9983C148.443 50.9249 147.46 51.1402 146.744 51.474C145.219 52.1292 143.949 53.6393 143.865 55.324C144.745 57.7638 146.604 59.9073 149.081 60.784C153.349 62.4438 157.99 61.9633 162.462 62.0631C161.628 61.7699 160.666 61.6014 160.084 60.8713C159.066 59.8012 158.877 58.2162 159.038 56.806C159.175 56.7967 159.452 56.7717 159.589 56.7592C159.487 56.6937 159.275 56.5689 159.169 56.5065C159.375 55.9792 159.633 55.4769 159.926 54.9933C158.002 55.2086 156.113 55.6766 154.186 55.8638C153.616 54.5004 153.825 52.9872 153.872 51.5551C154.503 44.6507 157.429 37.9708 162.089 32.8448C163.987 30.6889 166.957 30.0555 169.68 29.7092C172.466 29.4534 175.286 29.3566 178.075 29.6125C179.672 30.1304 181.424 29.9869 182.949 30.7481C184.135 31.2598 185.159 32.1084 185.869 33.1911C187.372 35.2908 187.687 37.9864 189.19 40.0831C189.915 41.1251 191.073 41.8458 192.343 41.9706C195.446 42.4417 198.904 42.8505 201.248 45.1717C202.531 46.3167 203.464 47.9703 203.399 49.7331C203.312 52.3663 202.528 54.9153 201.634 57.3739C201.286 58.3535 201.475 59.4143 201.809 60.3721C201.612 60.3971 201.22 60.447 201.024 60.4751C201.261 60.472 201.731 60.4657 201.967 60.4657C201.964 60.5687 201.958 60.7777 201.955 60.8838C202.431 61.3206 202.739 62.163 203.524 62.0195C203.517 62.2909 203.508 62.8338 203.502 63.1021C203.044 63.0366 202.593 62.9711 202.142 62.9087C201.012 61.3674 199.941 59.511 200.448 57.5236C201.317 54.7968 202.384 52.0138 202.241 49.1028C202.036 47.1778 200.483 45.8144 198.985 44.7911C198.954 44.5851 199.038 44.4167 199.234 44.2794H198.761C198.637 44.3168 198.382 44.3917 198.257 44.4323C197.009 44.1452 195.82 43.6211 194.541 43.4588C192.907 43.1 191.058 43.2155 189.673 42.1422C187.687 40.7039 186.974 38.2142 186.09 36.0427C185.402 34.177 184.12 32.4672 182.286 31.6186C182.156 31.0414 181.711 31.1444 181.328 31.3971C181.16 31.316 180.82 31.1569 180.649 31.0789C182.517 32.9602 184.288 35.1878 184.724 37.8804C184.929 38.9068 184.574 39.9021 184.092 40.7913C182.504 42.5915 179.958 42.8068 177.72 42.9285C174.717 42.9971 171.595 43.1125 168.74 42.0205C167.206 41.4465 165.731 39.9645 166.07 38.1924C166.484 35.9304 168.342 34.3174 170.113 33.0382C171.595 31.9025 173.363 31.2754 175.062 30.5641C172.08 30.5547 169.045 30.7045 166.176 31.5905C164.931 31.9649 163.732 32.6014 162.901 33.6247C157.793 39.3062 154.718 46.9563 154.933 54.6376C157.19 54.2601 159.474 53.9887 161.706 53.5051C165.945 51.4709 170.751 51.24 175.367 51.1339C175.043 51.5177 175.006 52.3538 174.34 52.2696C171.517 52.3258 168.703 52.6128 165.93 53.1557C166.817 53.4302 167.816 53.6642 168.386 54.4785C169.108 55.3552 169.285 56.5034 169.531 57.5766C169.326 57.611 168.918 57.6765 168.712 57.7108L168.874 57.3582C168.719 57.6266 168.56 57.8918 168.398 58.157C168.342 57.1118 168.062 56.1103 167.639 55.1618C166.042 53.8358 163.938 54.5753 162.086 54.6221C161.108 55.2804 160.15 56.2382 160.115 57.4924C160.022 58.7747 160.557 60.2692 161.852 60.7372C163.219 61.1365 164.647 60.7996 166.039 60.7278C166.627 60.422 167.265 60.1693 167.769 59.7201C168.14 59.2333 168.277 58.5938 168.725 58.1601C168.747 58.2786 168.79 58.5158 168.812 58.6343C168.961 58.2225 169.459 58.0602 169.4 58.6749C169.226 60.9368 166.677 61.8572 164.713 61.9352C167.162 62.3564 169.674 62.0007 172.152 62.2098C179.305 62.2971 186.46 62.4032 193.616 62.4063C195.247 62.2659 197.14 61.9165 198.142 60.472C198.78 59.3987 199.029 58.1351 199.11 56.9027C199.346 54.9465 198.105 53.0465 196.449 52.1042C196.67 52.0231 196.894 51.9451 197.121 51.8703L196.411 51.7143C196.427 51.7767 196.458 51.9015 196.474 51.967C195.179 51.3804 193.713 51.3648 192.337 51.6207C194.429 52.0013 196.76 52.7532 197.725 54.8498C198.438 56.597 198.478 58.9432 197.127 60.4064C194.6 62.7683 189.946 62.3159 187.92 59.5141C186.604 57.7014 187.148 55.3334 187.905 53.4084C188.094 53.1338 188.284 52.8593 188.484 52.5878C187.288 52.6315 186.093 52.6877 184.901 52.5847C181.57 52.2727 178.221 52.2353 174.878 52.2602C175.059 51.889 175.239 51.5146 175.42 51.1402C179.831 50.9374 184.219 51.6207 188.627 51.4834C189.769 51.5988 190.65 50.7034 191.752 50.5692C193.607 50.3352 195.742 50.0763 197.342 51.2806C198.992 52.5067 200.364 54.4317 200.246 56.5783C200.143 58.2162 199.891 59.9416 198.92 61.3081C198.229 62.3814 196.978 62.9243 195.779 63.1957C193.856 63.7074 191.851 63.4796 189.887 63.5233C178.262 63.3954 166.633 63.2612 155.011 63.0896C151.926 62.9087 148.726 62.294 146.168 60.4533C144.97 59.5453 144.026 58.3254 143.404 56.9558C143.086 58.5002 142.601 60.2037 141.138 61.0429C138.284 62.6029 134.181 62.294 132.108 59.5828C130.751 57.9042 130.938 55.3584 132.364 53.7765L132.236 53.6954C132.36 53.6954 132.609 53.6954 132.734 53.6954L132.697 53.2805L133.064 53.3179L133.073 53.0808C133.481 52.7875 133.898 52.5098 134.324 52.2446L134.281 52.073C134.608 51.9451 134.941 51.8172 135.274 51.6924L135.255 51.4615C136.251 51.1651 137.275 50.9842 138.305 50.8594C138.203 50.0638 138.707 50.797 138.891 51.0622C139.516 51.3305 140.139 51.6175 140.771 51.8765L140.873 51.9451C141.742 52.3507 142.408 53.0465 143.021 53.7672C143.482 52.5941 144.447 51.7798 145.377 50.9873C146.003 50.5817 146.672 50.2479 147.379 50.0108C147.914 47.8705 147.783 45.6023 147.55 43.4308C147.376 41.6337 146.881 39.8834 146.187 38.2204C146.018 37.7025 145.511 37.4311 145.128 37.091C144.742 37.0723 144.359 37.0567 143.977 37.0411L144.002 36.7697C143.569 36.7759 143.136 36.779 142.704 36.779L142.778 36.4889C142.078 36.492 141.378 36.4951 140.69 36.3578C139.105 36.0177 137.471 36.1862 135.865 36.155L135.934 35.7744L135.557 35.8742L135.476 35.6995C135.202 35.4156 134.922 35.1348 134.682 34.8228C134.43 34.4578 134.166 34.099 133.901 33.7433C133.721 33.475 133.546 33.2035 133.381 32.929L132.986 33.0819C133.076 33.032 133.26 32.9352 133.35 32.8853C132.18 30.4361 131.212 27.884 130.493 25.2664C128.323 24.9669 126.157 24.6455 124 24.2867C123.555 21.4663 124.321 18.5834 123.639 15.7724C119.468 15.5165 115.288 15.582 111.111 15.6476C103.609 15.8566 96.0894 16.0032 88.6254 16.8768C88.4885 16.9735 88.2115 17.1701 88.0714 17.2668C87.1999 19.223 86.8606 21.3508 86.5556 23.4568C85.684 29.7778 85.435 36.1675 85.3697 42.5447C85.3479 46.2793 85.435 50.0201 85.8334 53.736C85.9673 54.7687 86.1385 55.8045 86.54 56.7717C88.2332 57.3863 90.0448 57.3926 91.8221 57.4175C93.4219 57.3832 95.0592 57.3926 96.6092 56.9464C97.9601 56.0635 99.2985 55.1244 100.472 54.0074C102.084 52.2852 104.251 51.0934 106.57 50.6566C108.334 50.3945 110.133 51.0559 111.55 52.098C113.243 53.5332 114.435 55.608 114.594 57.8481C114.56 59.3176 114.09 60.8557 112.991 61.8822C112.284 62.6216 111.298 62.9648 110.376 63.3392C110.093 63.0179 109.807 62.6996 109.52 62.3845C110.818 62.0101 112.284 61.4797 112.904 60.1662C114.88 56.2257 110.737 50.9811 106.457 51.8235C106.109 51.8734 105.766 51.9545 105.424 52.0356C106.734 52.1729 108.11 52.2571 109.246 53.0059C109.284 53.165 109.358 53.4895 109.393 53.6486C109.442 53.6174 109.542 53.5519 109.592 53.5207C110.289 53.5332 110.669 54.2757 111.129 54.7094C112.449 56.051 112.723 58.2974 111.671 59.8792C110.793 61.4797 108.929 61.9758 107.385 62.6747C107.93 62.6154 108.474 62.553 109.016 62.4656C109.368 62.7308 109.716 63.0023 110.068 63.2737C108.823 63.7916 107.453 63.6949 106.14 63.7323C94.7261 63.6044 83.3122 63.7604 71.8984 63.6075C71.4004 63.5638 70.8588 63.6606 70.4043 63.4141C70.3452 62.8993 70.6814 62.3939 71.2416 62.4625C81.9396 62.6715 92.65 62.5187 103.354 62.6091C102.215 62.1474 101.02 61.6763 100.223 60.6935C99.2674 59.7762 98.9592 58.4471 98.8503 57.1742C99.0713 57.1305 99.2923 57.0868 99.5133 57.0369C99.2861 56.9464 99.062 56.8528 98.8378 56.7623C97.9601 57.455 96.9921 58.1382 95.8497 58.2599C92.8554 58.6374 89.7646 58.7248 86.8077 58.0353C86.0544 57.9105 85.4973 57.2678 85.2732 56.5658C84.881 55.4364 84.7907 54.2352 84.632 53.0558C84.0001 45.8144 84.2429 38.5324 84.6475 31.2879C85.0179 27.1228 85.2327 22.9015 86.3128 18.8455C86.7019 17.6069 87.122 15.9252 88.669 15.7724C93.646 15.1078 98.6698 14.983 103.681 14.724ZM172.504 32.9228C170.11 34.1614 167.807 35.9772 166.972 38.6385C166.86 38.6697 166.639 38.7352 166.527 38.7696L166.832 39.3904C166.91 39.2095 166.991 39.0285 167.078 38.8475C167.427 40.3139 168.896 40.9816 170.21 41.3373C172.759 41.98 175.411 41.8583 178.016 41.7928C179.588 41.6586 181.315 41.615 182.623 40.6134C183.541 39.9333 183.914 38.651 183.541 37.5746C182.816 34.9445 180.954 32.7855 178.878 31.0976C176.656 31.2411 174.458 31.8526 172.504 32.9228ZM136.142 52.2758C135.747 52.4194 135.358 52.5754 134.969 52.7314C134.611 53.0246 134.24 53.3085 133.783 53.4177C133.705 53.5769 133.549 53.8982 133.472 54.0573C132.952 54.9309 132.261 55.8139 132.311 56.8903C132.332 58.7685 133.973 60.2661 135.719 60.6623C137.372 61.018 139.208 60.862 140.699 60.0227C142.153 58.9026 142.193 56.8903 142.629 55.2585C141.957 54.0792 140.867 53.2617 139.874 52.3819C138.716 51.7891 137.394 52.0574 136.155 52.0918L136.142 52.2758ZM189.402 59.5422C191.422 61.2176 195.141 61.4048 196.732 59.0493C197.367 57.4955 197.208 55.4738 195.957 54.257C194.242 52.903 191.96 52.6284 189.844 52.6097C188.287 54.4817 187.363 57.6734 189.402 59.5422ZM103.799 53.7048C102.445 54.3569 100.668 54.9184 100.239 56.5502C99.5102 58.3161 100.802 60.1631 102.343 60.9587C104.777 62.2067 107.883 61.7543 110.034 60.1194C110.915 59.3269 111.519 58.0322 111.07 56.8559C110.74 55.6142 109.704 54.7593 108.723 54.0168C107.27 53.0496 105.381 53.0746 103.799 53.7048Z" fill="#4D4D4D"/>
<path d="M20.5001 39.1221C24.2259 37.1129 28.4216 35.7931 32.6797 35.8618C34.0617 35.8555 35.3316 36.5731 36.7198 36.5013C39.3468 36.4733 41.9583 36.8664 44.5324 37.3656C45.9798 37.7088 47.5018 37.8835 48.8216 38.6229C49.0301 38.6323 49.4472 38.651 49.6557 38.6572L49.5966 38.8975C49.9608 38.9911 50.3218 39.094 50.6829 39.2063C53.3628 40.1299 55.8622 41.4995 58.5017 42.526C64.0608 44.6195 69.9062 45.7926 75.5587 47.5959C77.3796 48.2043 79.3841 48.7316 80.7318 50.198C82.0983 51.7267 82.0734 54.2539 80.5669 55.6735C79.2876 56.5346 77.6877 56.129 76.259 56.051C73.1682 55.7452 70.0027 54.6345 66.9213 55.5612C65.9533 55.8482 65.4864 56.8279 65.2591 57.7326C65.5268 58.263 65.7976 58.7903 66.0746 59.3145C66.4824 57.8044 67.3352 56.3068 68.8386 55.6766C70.7342 54.9528 72.7698 55.87 74.2421 57.0837C75.0856 57.7389 75.4093 58.9744 74.9331 59.9478C74.2545 61.2863 72.6951 61.8073 71.3411 62.1505C71.5435 61.9072 71.9543 61.4142 72.1598 61.1708C71.6804 61.5733 71.2758 62.1037 70.6751 62.3377C69.6417 62.4251 68.6394 62.1162 67.6932 61.7324C67.6278 61.642 67.4971 61.461 67.4348 61.3736C67.4286 61.5421 67.4162 61.8822 67.4099 62.0538C68.1352 62.4219 68.9538 62.3658 69.735 62.4937C70.205 62.5873 69.7755 63.3111 70.009 63.5514C68.8511 63.5795 67.6527 63.5108 66.6474 62.8681C66.2956 62.1162 66.1369 61.2925 65.7945 60.5406C65.1222 59.7544 64.3129 58.9432 64.2756 57.8356C64.0888 56.1009 65.6015 54.5815 67.2388 54.3101C70.1335 53.8358 73.05 54.4317 75.9135 54.881C77.2239 55.062 78.6246 55.3864 79.8945 54.8248C80.514 53.9669 80.5295 52.7938 81.3543 52.0543C81.1022 52.0418 80.8501 52.0262 80.6011 52.0075C80.0284 51.1651 79.3965 50.2916 78.4316 49.8766C75.0451 48.3509 71.3878 47.5897 67.8364 46.5694C64.4281 45.5773 60.9669 44.738 57.6644 43.4183C53.5994 41.6867 49.6495 39.5371 45.295 38.6167C43.5768 38.3577 41.8743 37.9677 40.1437 37.8117C41.6813 38.5574 43.443 38.8195 44.8717 39.7898C45.2452 39.8834 45.6218 39.9739 45.9984 40.0675C47.6201 40.7975 49.2449 41.5775 50.5646 42.7974C50.6549 43.3746 50.8167 44.1515 50.188 44.4884C48.4947 45.4525 46.4404 45.2403 44.5635 45.2809C42.9232 45.4119 41.2891 45.0781 39.6456 45.2372L39.7359 44.816C37.9399 45.4026 36.0817 44.8597 34.2515 44.8316C32.5738 44.6632 30.7779 44.71 29.2932 43.7802C28.4497 42.7818 27.7773 41.3872 28.322 40.0799C28.8356 38.364 30.588 37.5465 32.1568 37.0411C29.6667 36.9163 27.2202 37.5809 24.8889 38.392C21.9101 39.406 19.1337 41.0284 16.821 43.1687C15.5667 44.5758 14.4337 46.2169 14.1566 48.1263C13.9357 49.8236 13.503 51.6082 14.0664 53.2805C15.8966 54.257 17.9882 53.8265 19.9461 53.6424C21.5024 53.4708 22.8532 54.36 24.2695 54.803C28.017 54.75 31.7646 54.9153 35.5121 54.959C38.4068 55.0089 41.3202 55.4676 44.2025 55.0183C48.5477 54.5971 52.9177 54.5253 57.2785 54.6689C59.3172 54.8529 61.4089 54.8093 63.376 55.4364C63.8242 55.53 64.0733 55.9324 64.3721 56.2382C64.2289 56.4285 63.9425 56.806 63.7993 56.9963C58.62 57.2678 53.4375 56.7967 48.2613 56.6563C45.9331 56.6126 43.5986 56.2476 41.2766 56.4815C39.0916 56.8965 36.779 57.196 34.9021 58.4846C32.412 60.1381 30.0215 62.1786 27.0085 62.7683C26.1152 63.0709 25.1846 63.2269 24.2477 63.3018C17.0078 63.9882 9.72743 63.4453 2.5 62.8775C2.5249 62.5031 2.55291 62.1287 2.58093 61.7574C6.79849 62.0881 11.0254 62.4344 15.2616 62.475C16.0896 62.4875 16.9269 62.6809 17.7455 62.4563C18.147 62.5062 18.5516 62.5561 18.9563 62.6123C18.8567 62.4875 18.7602 62.3658 18.6637 62.2441C17.3284 61.4735 16.379 60.0009 16.4662 58.4315C16.5533 57.3895 17.2973 56.6375 17.9384 55.8919C18.2777 55.9605 18.6108 56.0541 18.9438 56.1446C19.1306 55.8732 19.2146 55.5549 19.3235 55.2523C19.9834 55.1493 20.6433 55.0495 21.2876 54.8748C18.8318 54.5971 16.2919 55.4676 13.8983 54.5222C13.282 54.0137 12.6782 53.3678 12.7093 52.5067C12.6408 50.3134 12.8618 48.0639 13.5902 45.9891C14.8819 42.8848 17.6521 40.7226 20.5001 39.1221ZM29.648 39.8834C28.6924 41.147 29.6231 43.1406 31.1483 43.3715C33.7224 43.7615 36.3401 43.7864 38.9266 44.0922C40.3522 44.3824 41.8089 44.1359 43.2469 44.2388C45.0366 44.3636 46.8295 44.1796 48.5975 43.9144C48.7033 44.0548 48.8091 44.1983 48.9149 44.3418C49.1017 44.0142 49.3102 43.7022 49.5437 43.4089C48.6939 42.6508 47.6575 42.1672 46.7455 41.5058C46.235 41.2874 45.7183 41.0908 45.2016 40.8974C41.9863 39.7555 38.799 38.4513 35.4779 37.6495C33.408 37.7587 31.0175 38.1487 29.648 39.8834ZM18.8691 56.7935C18.0754 57.2366 17.4 58.1195 17.5992 59.0742C17.9945 60.6904 19.5601 61.8323 21.1849 61.9477C22.4859 62.1318 23.7123 61.5671 24.9698 61.3456C25.1752 60.5936 25.5705 59.8605 25.502 59.0586C25.4024 58.4128 25.141 57.8075 24.9262 57.1929C24.727 56.9464 24.5247 56.7062 24.313 56.4691C23.9457 56.2288 23.5629 55.9356 23.0929 55.9917C21.6642 56.026 20.111 55.9636 18.8691 56.7935ZM25.2779 55.8825C25.4553 56.2632 25.6265 56.65 25.7884 57.04L25.9565 57.0213C26.1059 57.5049 26.2708 57.9885 26.4358 58.469C26.9587 59.7887 26.4358 61.4485 25.0912 62.0351C25.4989 62.0382 26.3206 62.0413 26.7284 62.0413L26.5479 61.6825C26.8155 61.7075 27.3478 61.7636 27.6124 61.7886L27.5688 61.4828C27.7524 61.4579 28.1228 61.408 28.3065 61.383C31.3568 59.8511 33.8469 57.3926 37.0466 56.1446C36.1129 56.0572 35.1542 56.2039 34.2329 55.9761C32.7979 55.6017 31.3257 56.0385 29.8752 55.92C28.3438 55.764 26.8093 55.9262 25.2779 55.8825ZM67.1392 60.0882C67.3072 60.1912 67.6434 60.3909 67.8115 60.4938C67.6683 60.5905 67.3788 60.7871 67.2325 60.8838C67.4815 60.7871 67.9795 60.5937 68.2254 60.5001C68.0107 60.8963 68.7546 62.0351 68.7048 61.0148C69.9965 61.436 71.2913 61.0024 72.5582 60.7341C73.2274 60.2941 73.8001 59.7325 74.2576 59.0742C73.5667 57.5673 71.9357 56.6688 70.3358 56.5128C68.462 56.5128 67.2823 58.391 67.1392 60.0882Z" fill="#4D4D4D"/>
</g>
</svg>
