<svg width="400" height="381" viewBox="0 0 400 381" fill="none" xmlns="http://www.w3.org/2000/svg">
<path d="M301.009 288.9V371C301.009 376.109 296.868 380.25 291.759 380.25H142.721C137.613 380.25 133.471 376.109 133.471 371V288.9C133.471 283.791 137.613 279.65 142.721 279.65H242.047C244.144 279.65 246.191 280.434 248.236 281.391C252.905 283.578 260.694 285.007 269.657 280.807C271.166 280.099 272.755 279.65 274.358 279.65H291.759C296.868 279.65 301.009 283.791 301.009 288.9Z" stroke="#C4C4C4" stroke-width="1.5" stroke-linecap="round"/>
<path d="M191.851 327.947V331.626H173.781V327.947H191.851ZM174.695 297.501V331.626H170.172V297.501H174.695ZM189.461 312.173V315.853H173.781V312.173H189.461ZM191.617 297.501V301.204H173.781V297.501H191.617ZM201.133 310.251V331.626H196.797V306.267H201.016L201.133 310.251ZM209.055 306.126L209.031 310.157C208.672 310.079 208.328 310.032 208 310.017C207.687 309.986 207.328 309.97 206.922 309.97C205.922 309.97 205.039 310.126 204.273 310.439C203.508 310.751 202.859 311.189 202.328 311.751C201.797 312.314 201.375 312.986 201.062 313.767C200.766 314.532 200.57 315.376 200.476 316.298L199.258 317.001C199.258 315.47 199.406 314.032 199.703 312.689C200.016 311.345 200.492 310.157 201.133 309.126C201.773 308.079 202.586 307.267 203.57 306.689C204.57 306.095 205.758 305.798 207.133 305.798C207.445 305.798 207.805 305.837 208.211 305.915C208.617 305.978 208.898 306.048 209.055 306.126ZM217.398 310.251V331.626H213.062V306.267H217.281L217.398 310.251ZM225.32 306.126L225.297 310.157C224.937 310.079 224.594 310.032 224.266 310.017C223.953 309.986 223.594 309.97 223.187 309.97C222.187 309.97 221.305 310.126 220.539 310.439C219.773 310.751 219.125 311.189 218.594 311.751C218.062 312.314 217.641 312.986 217.328 313.767C217.031 314.532 216.836 315.376 216.742 316.298L215.523 317.001C215.523 315.47 215.672 314.032 215.969 312.689C216.281 311.345 216.758 310.157 217.398 309.126C218.039 308.079 218.851 307.267 219.836 306.689C220.836 306.095 222.023 305.798 223.398 305.798C223.711 305.798 224.07 305.837 224.476 305.915C224.883 305.978 225.164 306.048 225.32 306.126ZM227.711 319.228V318.689C227.711 316.861 227.976 315.165 228.508 313.603C229.039 312.025 229.805 310.657 230.805 309.501C231.805 308.329 233.016 307.423 234.437 306.782C235.859 306.126 237.453 305.798 239.219 305.798C241 305.798 242.601 306.126 244.023 306.782C245.461 307.423 246.68 308.329 247.68 309.501C248.695 310.657 249.469 312.025 250 313.603C250.531 315.165 250.797 316.861 250.797 318.689V319.228C250.797 321.056 250.531 322.751 250 324.314C249.469 325.876 248.695 327.243 247.68 328.415C246.68 329.572 245.469 330.478 244.047 331.134C242.641 331.775 241.047 332.095 239.266 332.095C237.484 332.095 235.883 331.775 234.461 331.134C233.039 330.478 231.82 329.572 230.805 328.415C229.805 327.243 229.039 325.876 228.508 324.314C227.976 322.751 227.711 321.056 227.711 319.228ZM232.047 318.689V319.228C232.047 320.493 232.195 321.689 232.492 322.814C232.789 323.923 233.234 324.907 233.828 325.767C234.437 326.626 235.195 327.306 236.101 327.806C237.008 328.29 238.062 328.532 239.266 328.532C240.453 328.532 241.492 328.29 242.383 327.806C243.289 327.306 244.039 326.626 244.633 325.767C245.226 324.907 245.672 323.923 245.969 322.814C246.281 321.689 246.437 320.493 246.437 319.228V318.689C246.437 317.439 246.281 316.259 245.969 315.15C245.672 314.025 245.219 313.032 244.609 312.173C244.016 311.298 243.266 310.611 242.359 310.111C241.469 309.611 240.422 309.361 239.219 309.361C238.031 309.361 236.984 309.611 236.078 310.111C235.187 310.611 234.437 311.298 233.828 312.173C233.234 313.032 232.789 314.025 232.492 315.15C232.195 316.259 232.047 317.439 232.047 318.689ZM260.57 310.251V331.626H256.234V306.267H260.453L260.57 310.251ZM268.492 306.126L268.469 310.157C268.109 310.079 267.766 310.032 267.437 310.017C267.125 309.986 266.766 309.97 266.359 309.97C265.359 309.97 264.476 310.126 263.711 310.439C262.945 310.751 262.297 311.189 261.766 311.751C261.234 312.314 260.812 312.986 260.5 313.767C260.203 314.532 260.008 315.376 259.914 316.298L258.695 317.001C258.695 315.47 258.844 314.032 259.141 312.689C259.453 311.345 259.93 310.157 260.57 309.126C261.211 308.079 262.023 307.267 263.008 306.689C264.008 306.095 265.195 305.798 266.57 305.798C266.883 305.798 267.242 305.837 267.648 305.915C268.055 305.978 268.336 306.048 268.492 306.126ZM206.752 365.013V367.685H188.26V365.769L199.721 348.032H202.375L199.527 353.165L191.951 365.013H206.752ZM203.184 348.032V373.626H199.932V348.032H203.184ZM225.771 358.79V362.693C225.771 364.79 225.584 366.56 225.209 368.001C224.834 369.443 224.295 370.603 223.592 371.482C222.889 372.361 222.039 372.999 221.043 373.398C220.059 373.784 218.945 373.978 217.703 373.978C216.719 373.978 215.81 373.855 214.978 373.609C214.146 373.363 213.396 372.97 212.728 372.431C212.072 371.88 211.51 371.165 211.041 370.286C210.572 369.407 210.215 368.341 209.969 367.087C209.723 365.833 209.6 364.368 209.6 362.693V358.79C209.6 356.693 209.787 354.935 210.162 353.517C210.549 352.099 211.094 350.962 211.797 350.107C212.5 349.24 213.344 348.618 214.328 348.243C215.324 347.868 216.437 347.681 217.668 347.681C218.664 347.681 219.578 347.804 220.41 348.05C221.254 348.284 222.004 348.665 222.66 349.193C223.316 349.708 223.873 350.4 224.33 351.267C224.799 352.122 225.156 353.171 225.402 354.413C225.648 355.656 225.771 357.115 225.771 358.79ZM222.502 363.22V358.245C222.502 357.097 222.432 356.089 222.291 355.222C222.162 354.343 221.969 353.593 221.711 352.972C221.453 352.351 221.125 351.847 220.726 351.46C220.34 351.073 219.889 350.792 219.373 350.616C218.869 350.429 218.301 350.335 217.668 350.335C216.894 350.335 216.209 350.482 215.611 350.775C215.014 351.056 214.51 351.507 214.1 352.128C213.701 352.749 213.396 353.564 213.185 354.572C212.975 355.579 212.869 356.804 212.869 358.245V363.22C212.869 364.368 212.934 365.382 213.062 366.261C213.203 367.14 213.408 367.902 213.678 368.546C213.947 369.179 214.275 369.7 214.662 370.111C215.049 370.521 215.494 370.825 215.998 371.025C216.514 371.212 217.082 371.306 217.703 371.306C218.5 371.306 219.197 371.154 219.795 370.849C220.392 370.544 220.891 370.07 221.289 369.425C221.699 368.769 222.004 367.931 222.203 366.911C222.402 365.88 222.502 364.65 222.502 363.22ZM247.252 365.013V367.685H228.76V365.769L240.221 348.032H242.875L240.027 353.165L232.451 365.013H247.252ZM243.684 348.032V373.626H240.432V348.032H243.684Z" fill="#C4C4C4"/>
<path fill-rule="evenodd" clip-rule="evenodd" d="M213.584 172.656C213.885 172.562 214.206 172.73 214.3 173.031C216.091 178.762 217.101 192.769 206.79 203.079C206.567 203.302 206.205 203.302 205.982 203.079C205.759 202.856 205.759 202.494 205.982 202.271C215.882 192.371 214.927 178.87 213.209 173.372C213.115 173.071 213.283 172.75 213.584 172.656Z" fill="#5B5B66"/>
<path fill-rule="evenodd" clip-rule="evenodd" d="M225.974 167.544C226.192 167.316 226.553 167.307 226.782 167.525C234.447 174.838 244.083 186.191 251.806 198.557C259.518 210.905 265.38 224.352 265.38 235.833C265.38 236.149 265.124 236.404 264.808 236.404C264.493 236.404 264.237 236.149 264.237 235.833C264.237 224.683 258.519 211.463 250.837 199.162C243.166 186.879 233.591 175.601 225.993 168.352C225.765 168.134 225.756 167.772 225.974 167.544Z" fill="#5B5B66"/>
<path fill-rule="evenodd" clip-rule="evenodd" d="M270.628 234.235C267.229 234.629 262.014 237.065 253.613 244.678C246.43 251.188 242.974 257.98 242.499 263.622C242.027 269.227 244.486 273.713 249.226 275.826C257.22 278.506 262.956 277.579 267.264 275.023C271.609 272.446 274.585 268.164 276.942 263.974C278.761 260.741 280.712 254.899 281.227 249.287C281.484 246.484 281.379 243.775 280.743 241.496C280.109 239.221 278.959 237.411 277.146 236.323C276.908 236.181 276.668 236.022 276.418 235.858C275.066 234.969 273.453 233.908 270.628 234.235ZM277.086 234.926C277.318 235.08 277.533 235.223 277.734 235.343C279.868 236.624 281.157 238.724 281.844 241.189C282.53 243.648 282.629 246.508 282.365 249.391C281.836 255.152 279.841 261.152 277.938 264.534C275.558 268.766 272.46 273.27 267.847 276.006C263.202 278.762 257.103 279.678 248.837 276.901C248.82 276.895 248.804 276.889 248.787 276.882C243.534 274.553 240.852 269.567 241.36 263.526C241.866 257.511 245.521 250.469 252.846 243.831C261.287 236.181 266.727 233.536 270.497 233.1C273.762 232.722 275.726 234.024 277.086 234.926Z" fill="#5B5B66"/>
<path fill-rule="evenodd" clip-rule="evenodd" d="M199.645 174.927C199.854 174.692 200.216 174.67 200.451 174.88C209.504 182.927 211.921 190.519 212.613 192.693C212.654 192.822 212.689 192.931 212.719 193.021C212.819 193.32 212.657 193.644 212.358 193.744C212.058 193.843 211.735 193.682 211.635 193.382C211.606 193.294 211.571 193.186 211.531 193.059C210.86 190.946 208.52 183.581 199.692 175.734C199.456 175.524 199.435 175.163 199.645 174.927Z" fill="#5B5B66"/>
<path fill-rule="evenodd" clip-rule="evenodd" d="M168.98 170.272C169.145 170.542 169.06 170.893 168.791 171.058C167.269 171.988 165.664 173.623 165.456 175.514C165.257 177.318 166.313 179.68 170.845 182.159C172.871 182.994 178.382 184.176 184.09 182.137C184.167 182.11 184.249 182.099 184.33 182.106C186.625 182.297 189.65 183.752 191.428 187.399C193.198 191.033 193.694 196.764 191.146 205.467C191.058 205.77 190.74 205.944 190.438 205.855C190.135 205.767 189.961 205.449 190.05 205.146C192.555 196.587 191.998 191.178 190.4 187.899C188.842 184.701 186.259 183.456 184.354 183.256C178.341 185.36 172.571 184.116 170.378 183.203C170.36 183.195 170.342 183.187 170.325 183.177C165.616 180.609 164.045 177.889 164.32 175.389C164.585 172.974 166.559 171.083 168.195 170.083C168.464 169.918 168.816 170.003 168.98 170.272Z" fill="#5B5B66"/>
<path fill-rule="evenodd" clip-rule="evenodd" d="M224.562 189.02C224.837 189.174 224.934 189.523 224.78 189.798C219.958 198.37 212.957 202.909 204.339 203.77C203.686 203.836 203.038 203.898 202.399 203.96C197.844 204.401 193.678 204.805 190.516 205.863C188.724 206.462 187.315 207.254 186.353 208.334C185.404 209.4 184.853 210.79 184.853 212.676C184.853 217.334 188.115 220.474 193.011 222.476C197.901 224.476 204.266 225.262 210.071 225.262C213.998 225.262 219.681 224.998 225.22 222.357C230.736 219.727 236.16 214.716 239.532 205.118C239.637 204.82 239.963 204.664 240.26 204.768C240.558 204.873 240.715 205.199 240.61 205.497C237.14 215.372 231.512 220.624 225.712 223.389C219.935 226.143 214.039 226.405 210.071 226.405C204.191 226.405 197.661 225.612 192.578 223.533C187.5 221.456 183.71 218.017 183.71 212.676C183.71 210.544 184.343 208.873 185.5 207.574C186.644 206.289 188.26 205.412 190.153 204.779C193.449 203.676 197.763 203.26 202.292 202.822C202.933 202.76 203.578 202.698 204.225 202.633C212.449 201.811 219.132 197.507 223.784 189.238C223.938 188.963 224.287 188.865 224.562 189.02Z" fill="#5B5B66"/>
<path fill-rule="evenodd" clip-rule="evenodd" d="M190.47 221.212C190.697 221.431 190.702 221.793 190.483 222.02C187.899 224.69 184.394 229.517 182.321 235.277C180.249 241.031 179.622 247.66 182.692 254.005C182.83 254.289 182.711 254.631 182.427 254.768C182.143 254.906 181.801 254.787 181.663 254.503C178.418 247.795 179.107 240.828 181.245 234.89C183.382 228.956 186.983 223.994 189.662 221.225C189.881 220.999 190.243 220.993 190.47 221.212Z" fill="#5B5B66"/>
<path fill-rule="evenodd" clip-rule="evenodd" d="M167.867 228.513C164.115 224.252 159.756 223.311 156.074 224.784C155.271 225.105 154.62 225.812 154.134 226.928C153.647 228.048 153.347 229.534 153.23 231.312C152.994 234.865 153.492 239.455 154.505 244.304C155.517 249.147 157.037 254.218 158.826 258.721C160.619 263.234 162.669 267.141 164.726 269.684C168.369 274.184 173.912 274.677 179.031 273.169C181.585 272.416 183.999 271.172 185.955 269.715C187.918 268.252 189.379 266.605 190.078 265.07C190.148 264.915 190.284 264.8 190.448 264.755C190.611 264.711 190.787 264.741 190.926 264.838C202.039 272.619 214.389 274.074 224.323 273.572C229.288 273.32 233.64 272.581 236.919 271.902C238.29 271.618 239.472 271.345 240.436 271.123C240.625 271.079 240.806 271.037 240.978 270.998C241.501 270.878 241.951 270.777 242.312 270.707C242.66 270.639 242.972 270.589 243.199 270.589C243.514 270.589 243.77 270.845 243.77 271.16C243.77 271.476 243.514 271.731 243.199 271.731C243.097 271.731 242.886 271.759 242.531 271.828C242.19 271.895 241.758 271.992 241.234 272.112C241.063 272.151 240.884 272.192 240.695 272.236C239.731 272.458 238.536 272.734 237.151 273.021C233.837 273.707 229.424 274.458 224.381 274.713C214.459 275.215 202.064 273.798 190.812 266.148C189.937 267.718 188.457 269.276 186.638 270.631C184.577 272.166 182.042 273.473 179.354 274.265C173.99 275.846 167.882 275.399 163.838 270.403C161.675 267.73 159.575 263.701 157.764 259.143C155.95 254.577 154.412 249.444 153.387 244.538C152.363 239.639 151.844 234.935 152.089 231.236C152.212 229.388 152.526 227.759 153.086 226.472C153.648 225.183 154.478 224.192 155.649 223.723C159.861 222.039 164.713 223.203 168.724 227.758C172.717 232.292 175.898 240.192 176.957 252.098C176.985 252.412 176.752 252.69 176.438 252.718C176.124 252.746 175.846 252.514 175.818 252.199C174.772 240.421 171.637 232.794 167.867 228.513Z" fill="#5B5B66"/>
<path fill-rule="evenodd" clip-rule="evenodd" d="M180.474 240.166C180.697 240.389 180.697 240.751 180.474 240.974C178.233 243.214 175.759 243.448 174.695 243.235C174.385 243.173 174.185 242.872 174.247 242.563C174.308 242.253 174.609 242.053 174.919 242.115C175.609 242.253 177.696 242.136 179.666 240.166C179.889 239.943 180.251 239.943 180.474 240.166Z" fill="#5B5B66"/>
<path fill-rule="evenodd" clip-rule="evenodd" d="M181.602 0.0943755C185.233 -0.377915 189.095 0.878072 190.804 4.86755C193.372 10.8586 189.696 15.5696 187.524 17.8148C190.946 25.1408 195.477 34.846 197.925 47.0857C198.52 50.0652 199.818 51.9954 201.371 53.105C202.927 54.2158 204.795 54.5443 206.612 54.2195C210.167 53.5841 213.459 50.4625 213.628 45.9559C211.131 44.7339 209.836 42.2607 209.471 39.6851C209.089 36.9983 209.695 34.0817 211.11 32.1017C212.508 30.1437 215.07 28.3529 217.911 27.7342C220.782 27.1087 223.968 27.6793 226.494 30.5009C230.588 35.0727 231.167 39.4042 229.494 42.6456C227.867 45.8003 224.204 47.7169 220.162 47.7681C217.079 49.7376 215.982 53.0028 216.389 56.6742C216.803 60.4158 218.785 64.5197 221.759 67.871C222.234 68.4067 223.204 69.3262 224.563 70.6146C224.662 70.7087 224.763 70.8047 224.866 70.9027C226.372 72.3307 228.28 74.1491 230.414 76.299C234.679 80.5979 239.849 86.2289 244.509 92.7398C253.808 105.734 261.181 122.381 255.025 138.975C248.898 155.492 235.054 166.118 219.611 171.487C204.176 176.853 187.068 176.995 174.299 172.473C167.916 170.212 163.611 167.368 160.569 163.819C157.53 160.274 155.791 156.07 154.465 151.162C153.603 147.975 152.907 144.45 152.146 140.597C151.74 138.544 151.316 136.398 150.839 134.159C149.461 127.695 147.626 120.39 144.482 112.138C139.461 98.9568 133.162 92.7836 127.359 90.5077C121.651 88.2688 116.304 89.7538 112.887 92.2459C111.513 97.4227 107.744 99.7478 103.827 100.354C99.9125 100.96 95.773 99.8653 93.6116 98.1738C90.6989 95.8943 89.6718 91.9924 90.3757 88.4187C91.0825 84.8295 93.5508 81.4765 97.7369 80.3045C103.143 78.7909 106.749 79.8141 109.118 81.7552C111.131 83.4039 112.176 85.6552 112.716 87.3429C116.2 85.2042 121.485 84.6637 126.795 85.1575C132.481 85.6864 138.358 87.4159 142.395 89.8384C147.642 92.9864 154.105 90.3458 157.608 84.6083C161.077 78.9252 161.533 70.2758 154.574 61.77C148.999 54.9568 141.041 51.402 133.266 49.9031C125.699 48.444 118.368 48.9453 113.703 50.2392C113.47 52.5471 111.397 56.3617 104.934 58.7853C101.377 60.1191 98.0862 59.4189 95.5444 57.9848C93.0388 56.5711 91.207 54.4148 90.5279 52.6974C89.4064 50.5233 89.1564 47.141 90.0076 44.0869C90.8673 41.0027 92.8916 38.122 96.4478 37.1721C102.493 35.5572 106.269 36.698 108.724 39.0195C110.943 41.1186 111.989 44.1108 112.75 46.4689C118.744 44.509 127.058 44.5642 134.788 45.9077C138.785 46.6023 142.649 47.6453 145.985 48.9485C149.09 50.1613 151.769 51.6113 153.67 53.2388C155.376 51.5584 156.62 49.2187 157.472 46.5083C158.384 43.609 158.836 40.3213 158.938 37.048C159.04 33.7763 158.792 30.5361 158.313 27.739C157.863 25.1128 157.217 22.9127 156.488 21.4479C150.999 21.2734 147.018 17.0087 146.139 12.4503C145.688 10.1097 146.045 7.65504 147.464 5.61227C148.884 3.56569 151.324 1.99806 154.914 1.34541C158.509 0.691709 161.348 1.34283 163.397 2.82127C165.439 4.29514 166.631 6.54353 167.03 8.96267C167.797 13.6087 165.655 19.068 160.719 21.2073C162.448 26.2194 162.971 32.4347 162.672 38.5279C162.369 44.7085 161.219 50.8148 159.586 55.4889C161.102 57.3984 163.467 59.1025 166.262 60.4066C169.167 61.7625 172.498 62.6677 175.735 62.9269C178.976 63.1865 182.085 62.7956 184.572 61.6011C187.042 60.415 188.915 58.4321 189.728 55.4417C191.633 48.4346 191.565 41.033 190.237 34.5354C188.935 28.1633 186.432 22.716 183.451 19.3745C178.824 19.8048 175.612 18.0353 173.872 15.3216C172.117 12.5842 171.914 8.96617 173.15 5.90419C174.424 2.74997 178.002 0.562739 181.602 0.0943755ZM181.75 1.22756C178.427 1.65987 175.285 3.66958 174.21 6.33198C173.098 9.08663 173.299 12.3107 174.834 14.7049C176.348 17.0659 179.211 18.7006 183.617 18.2089C183.797 18.1888 183.977 18.2557 184.1 18.3892C187.351 21.9108 190 27.6699 191.356 34.3066C192.715 40.9533 192.789 48.5381 190.831 55.7415C189.923 59.0804 187.808 61.3148 185.067 62.6312C182.343 63.9393 179.017 64.3362 175.644 64.066C172.266 63.7955 168.803 62.8536 165.779 61.4421C162.76 60.0332 160.139 58.1382 158.486 55.9344C158.371 55.7808 158.341 55.5795 158.406 55.3988C160.05 50.8111 161.226 44.6905 161.531 38.472C161.836 32.2487 161.266 25.9807 159.46 21.0796C159.351 20.784 159.502 20.456 159.797 20.3464C164.489 18.605 166.626 13.5325 165.903 9.14867C165.544 6.97232 164.484 5.01508 162.728 3.74797C160.978 2.48545 158.47 1.86025 155.118 2.46971C151.761 3.08022 149.616 4.51598 148.402 6.26396C147.186 8.01575 146.859 10.1468 147.261 12.234C148.071 16.435 151.798 20.3107 156.838 20.3107C157.048 20.3107 157.24 20.4253 157.34 20.6095C158.217 22.2238 158.949 24.6848 159.439 27.5462C159.931 30.4183 160.185 33.7349 160.08 37.0835C159.976 40.4306 159.514 43.8268 158.562 46.8512C157.612 49.8718 156.163 52.5575 154.061 54.4384C153.842 54.6349 153.509 54.6322 153.292 54.4321C151.524 52.7965 148.832 51.2873 145.569 50.0129C142.314 48.7415 138.525 47.7172 134.593 47.0336C126.707 45.663 118.338 45.6782 112.577 47.7358C112.431 47.7879 112.271 47.7786 112.132 47.7101C111.993 47.6417 111.888 47.5199 111.841 47.3726L111.824 47.3218C111.029 44.8462 110.071 41.8668 107.939 39.8497C105.849 37.873 102.519 36.7331 96.7427 38.2761C93.6999 39.0889 91.8985 41.559 91.1084 44.3938C90.3135 47.2456 90.5839 50.3345 91.5555 52.1966C91.5652 52.2151 91.5738 52.2342 91.5814 52.2538C92.1397 53.6895 93.775 55.6744 96.106 56.9895C98.415 58.2923 101.352 58.9078 104.532 57.7153C111.116 55.2465 112.583 51.4271 112.583 49.8021C112.583 49.5491 112.749 49.3262 112.992 49.2543C117.825 47.8222 125.542 47.2499 133.483 48.781C141.429 50.3132 149.664 53.9649 155.458 61.0464C162.71 69.909 162.318 79.0858 158.583 85.2037C154.881 91.2673 147.781 94.4025 141.807 90.8182C137.95 88.5039 132.248 86.8124 126.689 86.2954C121.105 85.776 115.827 86.4563 112.72 88.7125C112.568 88.8234 112.37 88.8518 112.193 88.7884C112.015 88.725 111.88 88.578 111.832 88.3956C111.406 86.7761 110.456 84.328 108.394 82.6392C106.368 80.979 103.166 79.9711 98.045 81.4049C94.3364 82.4433 92.1337 85.4061 91.4969 88.6395C90.857 91.8883 91.8137 95.3157 94.3159 97.2739C96.1895 98.7403 99.9973 99.7902 103.653 99.2246C107.256 98.667 110.633 96.5567 111.83 91.7687C111.862 91.6416 111.937 91.5293 112.041 91.4506C115.718 88.6861 121.556 87.0042 127.777 89.4439C133.992 91.8818 140.466 98.3857 145.55 111.731C148.722 120.057 150.571 127.423 151.957 133.92C152.443 136.204 152.871 138.371 153.278 140.432C154.033 144.255 154.716 147.712 155.568 150.864C156.873 155.693 158.555 159.713 161.437 163.075C164.316 166.435 168.432 169.183 174.681 171.396C187.174 175.82 204.013 175.7 219.236 170.408C234.451 165.118 247.976 154.692 253.954 138.578C259.903 122.54 252.822 106.319 243.579 93.4049C238.968 86.9618 233.844 81.3789 229.602 77.1039C227.482 74.9668 225.584 73.1582 224.08 71.7317C223.966 71.6234 223.854 71.5172 223.744 71.413C222.419 70.1568 221.415 69.2044 220.904 68.6296C217.806 65.1388 215.698 60.8217 215.253 56.8001C214.805 52.7609 216.039 48.9617 219.696 46.7111C219.786 46.6557 219.89 46.6264 219.996 46.6264C223.783 46.6264 227.07 44.8525 228.479 42.1217C229.865 39.4343 229.533 35.608 225.643 31.2632C223.432 28.7945 220.688 28.2988 218.154 28.8507C215.589 29.4094 213.273 31.0396 212.04 32.7659C210.822 34.47 210.255 37.0798 210.602 39.5245C210.948 41.9609 212.18 44.1147 214.429 45.0653C214.64 45.1547 214.778 45.362 214.778 45.5916C214.778 50.8893 210.966 54.6022 206.813 55.3444C204.729 55.7169 202.541 55.3447 200.707 54.0349C198.871 52.7238 197.445 50.5133 196.804 47.3098C194.381 35.1955 189.894 25.5884 186.47 18.2583L186.32 17.9388C186.219 17.721 186.264 17.4629 186.434 17.293C188.532 15.1953 192.124 10.8482 189.754 5.31769C188.306 1.93877 185.043 0.799178 181.75 1.22756Z" fill="#5B5B66"/>
<path fill-rule="evenodd" clip-rule="evenodd" d="M207.584 225.48C207.779 225.56 207.872 225.782 207.793 225.977C206.139 230.045 205.44 234.658 206.356 240.99C206.386 241.198 206.241 241.391 206.033 241.421C205.825 241.451 205.632 241.307 205.602 241.099C204.669 234.647 205.377 229.896 207.087 225.69C207.167 225.495 207.389 225.401 207.584 225.48Z" fill="#5DCB42"/>
<path fill-rule="evenodd" clip-rule="evenodd" d="M203.277 225.455C203.485 225.483 203.632 225.674 203.605 225.883C203.506 226.64 203.338 227.353 203.141 227.934C202.95 228.497 202.712 228.992 202.444 229.26C202.048 229.656 201.571 229.875 201.049 229.871C200.534 229.866 200.026 229.644 199.554 229.259C198.617 228.495 197.739 227.024 197.074 224.894C197.012 224.693 197.124 224.479 197.324 224.417C197.525 224.354 197.739 224.466 197.801 224.667C198.447 226.736 199.267 228.042 200.035 228.668C200.415 228.979 200.762 229.106 201.056 229.109C201.343 229.111 201.631 228.996 201.905 228.722C202.04 228.586 202.233 228.238 202.419 227.689C202.599 227.159 202.756 226.495 202.85 225.784C202.877 225.575 203.068 225.428 203.277 225.455Z" fill="#5DCB42"/>
<path fill-rule="evenodd" clip-rule="evenodd" d="M222.995 223.447C223.135 223.604 223.122 223.845 222.965 223.985C218.185 228.252 214.638 229.585 212.001 229.77C210.684 229.863 209.613 229.667 208.753 229.427C208.368 229.32 208.023 229.203 207.725 229.102C207.693 229.091 207.662 229.08 207.631 229.07C207.304 228.959 207.052 228.878 206.844 228.839C206.638 228.801 206.501 228.602 206.539 228.395C206.578 228.189 206.776 228.052 206.983 228.09C207.254 228.14 207.558 228.241 207.875 228.348C207.906 228.359 207.937 228.369 207.969 228.38C208.268 228.482 208.593 228.592 208.958 228.693C209.758 228.917 210.739 229.095 211.947 229.01C214.36 228.841 217.755 227.615 222.457 223.417C222.614 223.277 222.855 223.29 222.995 223.447Z" fill="#5DCB42"/>
<path fill-rule="evenodd" clip-rule="evenodd" d="M215.476 228.258C215.685 228.229 215.877 228.375 215.906 228.583C216.021 229.406 217.217 231.675 221.368 232.96C221.569 233.022 221.681 233.235 221.619 233.436C221.557 233.637 221.343 233.75 221.142 233.688C216.811 232.346 215.32 229.896 215.152 228.688C215.123 228.48 215.268 228.287 215.476 228.258Z" fill="#5DCB42"/>
<path d="M223.486 233.737C223.356 234.441 222.679 234.906 221.975 234.776C221.271 234.645 220.806 233.969 220.936 233.264C221.067 232.56 221.743 232.095 222.448 232.226C223.152 232.356 223.617 233.033 223.486 233.737Z" fill="#5DCB42"/>
<path fill-rule="evenodd" clip-rule="evenodd" d="M193.151 225.837C193.237 227.34 193.426 229.174 193.832 230.575C194.391 232.507 195.252 234.941 195.977 236.897C196.339 237.874 196.665 238.73 196.902 239.342C197.02 239.647 197.115 239.892 197.181 240.06C197.19 240.083 197.199 240.105 197.207 240.126L216.749 243.975L229.505 228.691L227.233 222.276L227.951 222.022L230.368 228.846L217.044 244.81L196.652 240.793L196.575 240.6L196.929 240.459C196.575 240.6 196.575 240.6 196.575 240.6L196.548 240.532C196.531 240.488 196.505 240.423 196.472 240.338C196.406 240.169 196.31 239.923 196.191 239.616C195.954 239.002 195.626 238.143 195.263 237.162C194.537 235.202 193.667 232.747 193.1 230.787C192.669 229.3 192.477 227.395 192.39 225.88C192.346 225.119 192.329 224.449 192.323 223.969C192.32 223.729 192.319 223.537 192.32 223.404C192.32 223.337 192.32 223.285 192.32 223.25L192.321 223.21L192.321 223.2L192.321 223.196C192.321 223.196 192.321 223.196 192.702 223.202L193.083 223.208L193.083 223.21L193.083 223.22L193.082 223.257C193.082 223.291 193.082 223.341 193.081 223.406C193.081 223.535 193.082 223.724 193.085 223.959C193.091 224.431 193.108 225.089 193.151 225.837Z" fill="#5DCB42"/>
<path d="M198.072 140.255C201.756 141.483 203.861 143.939 200.703 143.939C194.387 145.518 188.566 136.374 191.229 138.149C194.387 140.255 194.914 139.202 198.072 140.255Z" fill="#5B5B66"/>
<path fill-rule="evenodd" clip-rule="evenodd" d="M190.938 137.574C191.092 137.621 191.262 137.713 191.441 137.832C192.977 138.856 193.845 139.097 194.704 139.219C194.898 139.247 195.097 139.269 195.307 139.292C196.05 139.374 196.926 139.471 198.192 139.893C200.064 140.517 201.595 141.47 202.255 142.324C202.569 142.732 202.805 143.292 202.446 143.766C202.284 143.979 202.036 144.114 201.755 144.196C201.481 144.276 201.146 144.316 200.75 144.319C197.409 145.129 194.261 143.126 192.333 141.243C191.359 140.292 190.649 139.327 190.352 138.687C190.278 138.526 190.219 138.365 190.197 138.217C190.178 138.093 190.165 137.848 190.354 137.673C190.552 137.49 190.804 137.534 190.938 137.574ZM192.865 140.698C194.751 142.539 197.653 144.309 200.611 143.569L200.656 143.558H200.703C201.076 143.558 201.35 143.521 201.541 143.465C201.734 143.408 201.811 143.342 201.839 143.306C201.858 143.28 201.929 143.15 201.651 142.79C201.127 142.109 199.763 141.22 197.951 140.616C196.769 140.222 195.987 140.135 195.252 140.053C195.032 140.029 194.817 140.005 194.597 139.974C193.637 139.837 192.686 139.561 191.132 138.541C191.422 139.077 192.024 139.877 192.865 140.698ZM190.948 138.079C190.948 138.079 190.948 138.082 190.948 138.088C190.947 138.081 190.948 138.078 190.948 138.079ZM190.702 138.299C190.697 138.299 190.695 138.298 190.695 138.298C190.694 138.298 190.697 138.298 190.702 138.299Z" fill="#5B5B66"/>
<path d="M174.387 140.254C172.723 141.919 170.966 141.833 169.651 142.886C167.545 144.57 172.809 147.623 175.44 141.833C177.786 136.673 175.44 139.202 174.387 140.254Z" fill="#5B5B66"/>
<path fill-rule="evenodd" clip-rule="evenodd" d="M174.846 140.333C174.78 140.4 174.717 140.464 174.657 140.524C173.77 141.411 172.858 141.829 172.027 142.154C171.894 142.206 171.764 142.256 171.638 142.304C170.965 142.561 170.394 142.779 169.889 143.183C169.678 143.352 169.588 143.513 169.559 143.645C169.529 143.776 169.55 143.916 169.631 144.062C169.799 144.367 170.224 144.677 170.837 144.787C172.01 145 173.833 144.449 175.093 141.676C175.658 140.433 175.935 139.67 176.03 139.236C176.029 139.236 176.028 139.237 176.028 139.237C175.896 139.335 175.745 139.464 175.584 139.612C175.332 139.843 175.075 140.102 174.846 140.333ZM176.295 139.08C176.295 139.08 176.294 139.08 176.293 139.08C176.294 139.08 176.295 139.08 176.295 139.08ZM176.787 139.335C176.684 139.855 176.373 140.701 175.787 141.991C174.416 145.007 172.291 145.825 170.701 145.537C169.932 145.398 169.272 144.99 168.964 144.43C168.806 144.144 168.74 143.815 168.815 143.478C168.891 143.143 169.097 142.841 169.413 142.588C170.02 142.103 170.718 141.838 171.391 141.583C171.511 141.537 171.631 141.491 171.749 141.445C172.542 141.134 173.341 140.762 174.118 139.985C174.174 139.929 174.234 139.869 174.297 139.805C174.527 139.573 174.802 139.295 175.068 139.051C175.238 138.894 175.412 138.745 175.576 138.624C175.73 138.51 175.909 138.396 176.086 138.347C176.176 138.322 176.303 138.303 176.437 138.344C176.587 138.389 176.696 138.494 176.758 138.622C176.814 138.737 176.828 138.86 176.828 138.968C176.829 139.079 176.813 139.203 176.787 139.335Z" fill="#5B5B66"/>
<path fill-rule="evenodd" clip-rule="evenodd" d="M189.561 124.427C189.873 124.379 190.165 124.593 190.213 124.904C190.536 127.007 192.81 132.249 199.377 135.533C199.66 135.674 199.774 136.017 199.633 136.299C199.492 136.582 199.148 136.696 198.866 136.555C191.96 133.102 189.462 127.537 189.083 125.078C189.035 124.766 189.249 124.475 189.561 124.427Z" fill="#5B5B66"/>
<path fill-rule="evenodd" clip-rule="evenodd" d="M172.322 124.948C172.636 124.97 172.873 125.244 172.851 125.558C172.761 126.822 172.465 128.815 171.865 130.716C171.276 132.585 170.351 134.508 168.914 135.467C168.651 135.642 168.296 135.571 168.121 135.308C167.946 135.046 168.017 134.691 168.28 134.516C169.369 133.79 170.198 132.205 170.776 130.372C171.343 128.572 171.626 126.669 171.711 125.477C171.734 125.162 172.007 124.925 172.322 124.948Z" fill="#5B5B66"/>
</svg>
