<svg width="550" height="222" viewBox="0 0 550 222" fill="none" xmlns="http://www.w3.org/2000/svg">
<path d="M251.329 91.2812C251.301 92.3381 251.588 93.4861 251.329 94.803C251.069 96.1243 250.043 96.785 247.887 97.475C245.058 98.3802 228 98.1063 227.025 98.1063C225.374 98.1063 217.125 97.475 210.76 97.475C206.871 98.1063 178.584 100.088 175.402 104.052C173.987 105.043 171.118 113.239 170.351 115.614C169.391 118.587 168.74 122.337 170.351 125.347M323.806 158.205C333.715 158.205 338.768 150.879 343.839 146.783C346.532 144.608 349.206 147.066 350.349 148.812C353.245 153.234 354.371 157.99 357.147 162.431C359.048 165.471 361.56 167.504 365.563 163.811C367.085 162.407 373.065 153.362 376.281 153.686C379.879 154.048 381.099 160.279 381.964 161.97C383.156 164.303 389.975 157.802 390.812 156.991C393.299 154.58 400.23 160.011 401.386 161.217C403.527 163.45 405.179 160.904 407.716 160.297C416.225 158.259 419.994 159.334 429 159.334M316.389 22.994C310.649 22.837 299.064 24.4473 294.975 19.6558C291.701 15.8198 298.329 8.38502 294.979 3.73475C292.251 -0.0534991 284.663 1.10214 283.169 1.39706C279.068 1.95646 276.228 7.49959 279.806 14.4005C280.819 16.3555 281.569 18.7406 281.52 20.3319C281.427 23.4136 278.068 22.7475 275.471 22.6765C266.347 22.8015 256.563 21.7849 255.047 22.7895C252.98 23.0434 253.343 37.1948 253.279 39.3054C253.082 45.8288 250.375 53.706 257.17 50.817C265.325 47.3501 271.036 46.8354 274.417 51.6242C279.224 79.2622 256.982 57.0446 253.686 67.8295C252.669 71.1562 252.165 76.1741 252.063 79.5258C251.968 82.6833 251.666 92.6709 252.925 93.0142C259.185 94.7216 271.047 93.5098 276.943 93.671C288.181 93.5381 291.507 94.0694 287.465 104.935C284.915 115.61 297.537 115.68 300.595 113.388C303.235 111.41 304.409 109.428 303.864 106.411C303.495 104.366 299.455 98.5307 301.476 95.9164C303.263 93.6036 304.929 94.1799 306.347 94.1889C311.416 94.2209 316.595 94.1619 321.726 94.3023C325.316 94.4004 325.065 90.6359 325.131 88.4212C325.187 86.5728 324.985 84.7109 324.619 82.8938C322.575 66.2124 320.175 66.866 318.713 66.1068C315.423 64.3987 306.398 68.1812 303.1 66.7479C299.802 65.3146 300.736 58.9603 304.807 58.3526C308.171 56.7781 317.771 60.4335 320.459 57.485C323.147 54.5365 322.272 48.1457 322.376 44.6997C322.478 41.3304 322.312 38.0604 321.993 34.2599C321.773 31.6373 322.129 23.1509 316.389 22.994ZM326.981 154.149C326.981 148.672 324.965 137.672 329.861 133.635C333.781 130.404 341.749 136.508 346.518 133.181C350.404 130.471 348.978 123.269 348.626 121.853C347.924 117.959 342.043 115.411 334.925 119.021C332.909 120.043 330.435 120.827 328.769 120.827C325.542 120.827 326.143 117.605 326.143 115.127C325.751 106.43 326.534 97.0721 325.44 95.6561C325.115 93.6926 311.022 93.6867 308.812 93.6867C301.981 93.6867 299.278 95.3604 302.495 101.756C306.355 109.431 304.249 112.179 298.634 114.196C276.524 115.127 295.623 96.6748 286.351 94.446C283.192 93.6867 269.856 93.0143 265.995 93.6867C262.742 94.2533 252.207 92.6781 251.908 95.6561C251.286 101.839 251.908 112.949 251.908 118.575C252.368 129.287 251.908 132.473 240.424 128.932C229.182 126.809 229.471 138.845 231.956 141.696C234.101 144.155 236.208 145.217 239.349 144.611C241.478 144.2 247.468 140.18 250.261 142.031C252.732 143.669 252.176 145.274 252.207 146.626C252.319 151.461 252.529 156.396 252.529 161.293C252.529 164.718 256.46 164.37 258.779 164.37C260.715 164.37 262.657 164.124 264.548 163.723C281.942 161.293 281.189 159.024 281.942 157.608C283.635 154.422 279.419 145.925 280.824 142.739C282.229 139.553 288.904 140.261 289.657 144.125C291.4 147.287 287.85 156.546 291.012 159.024C294.174 161.502 300.835 160.483 304.443 160.483C307.971 160.483 311.388 160.231 315.355 159.817C318.092 159.532 326.981 159.626 326.981 154.149ZM122.318 180.181C126.366 184.055 132.974 191.147 137.234 195.155C140.526 199.142 145.772 201.248 129.888 212.713C126.666 215.813 128.633 219.061 129.93 219.826C134.399 223.563 138.321 217.517 140.795 213.704L140.86 213.603C142.064 211.749 145.313 207.889 147.094 207.607C148.874 207.325 153.724 208.859 155.987 210.497C163.04 215.605 165.806 217.265 168.062 219.386C169.744 220.557 178.369 212.204 179.943 210.715C184.809 206.115 185.499 203.11 178.481 200.753C170.059 197.923 169.528 194.561 172.038 189.353C187.102 173.804 187.131 199.719 195.384 195.052C198.195 193.462 208.193 184.956 210.446 181.88C212.345 179.289 221.014 173.308 219.027 171C214.901 166.207 206.248 158.767 202.091 154.787C193.847 147.52 191.82 144.956 202.618 139.727C212.196 133.658 203.096 125.338 199.219 124.995C195.873 124.699 193.587 125.368 191.798 127.912C190.585 129.636 189.288 136.514 185.93 137.085C182.96 137.59 182.169 136.081 181.148 135.146C177.496 131.801 175.692 130.295 172.073 126.83C169.542 124.407 167.431 126.078 165.779 127.64C164.4 128.943 162.557 130.739 160.822 132.408C152.395 140.515 152.877 142.298 153.388 143.807C154.324 146.574 170.627 146.82 165.812 156.438C160.998 166.056 153.824 161.429 154.641 162.198C151.062 161.135 148.425 152.132 144.341 152.509C140.258 152.885 136.265 158.092 133.694 160.522C131.181 162.898 128.933 165.377 126.413 168.341C124.673 170.387 118.271 176.306 122.318 180.181ZM252.078 88.0305C252.261 81.9931 250.603 69.8122 255.653 65.4969C259.696 62.0422 267.492 68.9903 272.391 65.4535C276.382 62.5724 275.19 54.5947 274.885 53.0241C274.309 48.7124 268.49 45.7423 261.224 49.5261C259.166 50.5981 256.656 51.3936 254.983 51.3478C251.743 51.2592 252.454 47.7241 252.536 44.9925C252.433 35.3957 253.531 25.1017 252.48 23.5107C252.219 21.3375 237.435 22.0544 235.216 21.9937C228.359 21.8062 224.44 22.0026 224.179 30.634C224.026 35.688 228.769 43.803 223.663 47.7178C206.004 54.6553 217.41 27.6288 213.589 25.5715C209.18 22.0534 199.043 23.7334 194.159 23.5998C190.839 23.509 180.848 23.7689 178.793 26.9632C176.979 33.5529 178.081 40.5542 177.894 46.7556C177.999 58.576 177.431 62.0754 166.02 57.8569C154.804 55.2078 154.693 68.4834 157.093 71.6936C159.164 74.464 161.245 75.6925 164.418 75.1102C166.569 74.7155 172.716 70.4488 175.459 72.5663C177.885 74.4396 177.274 76.1937 177.26 77.685C177.211 83.0168 177.257 88.4631 177.094 93.8609C176.98 97.6366 180.938 97.361 183.267 97.4247C185.21 97.4778 187.168 97.2592 189.079 96.8689C206.623 94.6685 205.943 92.1464 206.746 90.6061C208.552 87.1406 204.602 77.6594 206.119 74.1859C207.636 70.7125 214.314 71.6762 214.94 75.9559C216.585 79.4897 212.713 89.5977 215.805 92.4161C218.896 95.2345 225.618 94.2946 229.24 94.3937C232.782 94.4905 236.221 94.3066 240.217 93.9593C242.975 93.7196 251.896 94.0678 252.078 88.0305Z" stroke="black" stroke-linecap="round"/>
</svg>
