<svg width="400" height="174" viewBox="0 0 400 174" fill="none" xmlns="http://www.w3.org/2000/svg">
<mask id="path-1-inside-1_14857_134655" fill="white">
<path d="M172.578 9.20753C178.436 3.88426 186.133 0.378694 194.094 0.00175121C201.623 -0.0820138 209.022 2.84558 214.921 7.42334C222.794 13.5089 226.292 23.8664 225.943 33.558C234.304 32.2262 242.802 32.9089 251.226 32.5277C258.238 32.3141 265.469 31.7613 271.855 28.6033C279.019 24.9805 285.338 19.5902 293.207 17.45C296.835 16.3946 300.833 16.4365 304.314 18.007C308.139 19.5902 311.141 22.5806 314.853 24.369C317.893 25.8516 321.357 25.7679 324.658 25.8726C338.926 25.9061 353.19 25.8852 367.458 25.8852C367.466 26.2202 367.487 26.8903 367.5 27.2254C354.63 27.3175 341.76 27.2505 328.89 27.2547C325.22 27.1877 321.517 27.4222 317.88 26.8275C312.006 25.8223 308.101 20.6792 302.563 18.8531C298.347 17.3914 293.745 18.4259 289.777 20.1514C284.045 22.5178 279.103 26.3417 273.678 29.2776C267.572 32.557 260.573 33.6125 253.72 33.8261C248.694 34.1444 243.655 34.0606 238.624 34.1486C234.375 34.2491 230.067 34.0858 225.901 35.0867C225.536 38.8981 224.482 42.6423 222.706 46.0432C221.946 47.4547 221.228 48.8912 220.569 50.3529C222.786 50.2817 224.444 52.0031 226.048 53.2847C227.422 54.5789 229.391 56.0154 228.828 58.1724C231.226 57.8038 233.208 59.8268 233.472 62.0884C233.741 64.1532 233.728 66.2934 234.711 68.1949C234.745 66.3018 234.325 64.3375 235.03 62.5114C235.966 59.9021 237.361 57.2258 239.788 55.7139C242.051 54.3569 245.137 54.7297 246.989 56.6102C248.257 57.9002 248.463 59.7932 248.702 61.4979C249.046 64.6432 249.198 67.8096 249.693 70.9382C250.004 67.7049 249.609 64.3961 250.386 61.2172C250.743 59.6467 252.044 58.097 253.766 58.0928C255.882 57.8792 257.831 59.2404 258.855 61.0078C261.337 65.2882 261.337 70.4565 263.39 74.9003C263.604 71.6125 261.958 68.5886 261.492 65.3971C261.408 64.7479 261.732 64.149 261.887 63.5417C263.344 62.8674 265.154 63.0182 266.321 64.1825C269.172 67.0222 269.596 71.3947 272.317 74.3181C271.927 72.1821 270.486 70.444 269.962 68.354C269.621 67.4452 270.344 66.3939 271.318 66.3939C273.56 66.1636 275.685 67.2693 277.36 68.6682C279.514 70.5152 281.018 72.9569 282.55 75.3065C284.54 78.3556 286.056 81.8234 286.086 85.5217C286.346 93.1946 285.267 100.884 286.023 108.549C286.501 113.386 287.933 118.056 289.235 122.718C293.388 137.46 298.347 151.981 304.179 166.146C304.956 168.449 306.363 170.707 306.052 173.228C304.927 173.781 303.692 174.057 302.437 173.99C293.921 173.915 285.359 174.271 276.89 173.228C274.492 172.989 272.145 171.641 271.288 169.304C267.102 159.281 263.168 149.154 259.221 139.039C257.528 134.746 256.067 130.349 253.963 126.227C252.532 123.371 250.348 121.009 248.274 118.617C245.162 115.166 242.084 111.69 239.116 108.117C236.714 105.102 234.119 102.107 232.792 98.4299C231.516 95.0625 231.717 91.3978 231.028 87.9048C230.176 83.4611 228.345 79.2979 226.712 75.1055C225.713 72.6596 224.323 70.1717 224.6 67.441C224.856 67.2986 225.368 67.0096 225.624 66.863C227.522 68.2284 228.862 70.2052 230.785 71.5413C232.372 72.9318 234.455 73.6647 235.857 75.2772C236.794 76.2154 237.146 77.5514 237.302 78.833C237.932 84.1479 237.088 89.6471 238.54 94.8489C238.843 92.1726 238.729 89.4754 238.759 86.7907C238.696 83.6412 238.935 80.4288 238.083 77.3588C237.646 75.8845 236.869 74.5443 236.067 73.2459C236.559 73.0281 237.062 72.8355 237.579 72.6763C238.771 75.1306 239.926 77.719 240.031 80.4916C240.178 83.9804 240.123 87.4776 240.119 90.9706C240.098 92.7506 240.09 94.5809 239.51 96.2855C239.267 96.9221 238.805 97.1776 238.116 97.0436C237.058 95.9965 236.848 94.4301 236.617 93.0312C235.962 88.0053 236.441 82.8956 235.74 77.8781C234.955 75.34 232.171 74.4019 230.222 72.9318C228.74 71.7214 227.296 70.4398 226.099 68.9446C226.347 71.0722 227.329 72.9988 228.169 74.9422C229.811 79.2602 231.751 83.5239 232.507 88.1142C232.998 90.7821 232.96 93.5254 233.602 96.1724C234.132 98.7021 235.467 100.976 236.962 103.062C241.677 109.445 247.262 115.116 252.347 121.201C255.269 124.69 256.873 129 258.515 133.18C262.907 144.882 267.56 156.483 272.267 168.064C272.775 169.211 273.384 170.455 274.547 171.075C275.693 171.653 276.995 171.787 278.246 171.988C283.625 172.562 289.046 172.503 294.446 172.558C297.906 172.495 301.378 172.704 304.83 172.386C303.86 168.545 302.063 164.981 300.694 161.275C296.927 151.809 293.623 142.168 290.625 132.434C288.727 125.901 286.594 119.417 285.217 112.745C283.47 104.168 284.834 95.4185 284.704 86.7614C284.692 84.1647 284.322 81.5051 283.1 79.1807C281.601 76.3243 279.875 73.5642 277.801 71.0806C276.184 69.1624 273.854 67.6755 271.267 67.7216C271.78 70.1508 273.846 72.1444 273.648 74.7244C273.329 76.0143 271.666 75.8929 270.953 75.0259C268.656 72.1988 267.98 68.4043 265.679 65.5898C265.061 64.8527 263.617 63.948 262.865 64.8904C263.294 68.7184 265.805 72.5255 264.31 76.4081C263.424 76.6635 262.471 76.4918 262.105 75.5704C259.909 70.9382 260.098 65.3929 257.167 61.0665C256.101 59.3786 252.893 58.6499 252.023 60.8822C250.474 64.8778 252.154 69.4472 250.424 73.3925C249.508 73.5726 248.883 73.0156 248.673 72.1779C247.358 67.864 247.95 63.2192 246.72 58.8886C245.733 56.0322 241.644 55.5422 239.615 57.5693C237.755 59.4372 236.466 61.9251 236.025 64.5176C235.983 66.9593 236.508 69.3927 237.142 71.7423C236.613 72.1612 236.05 72.5255 235.467 72.8606C234.048 72.4585 232.922 71.4115 231.7 70.6283C228.984 68.8357 226.267 66.9133 224.23 64.3459C223.176 63.0433 224.109 61.5146 224.81 60.3168C223.659 60.233 222.32 60.4299 221.388 59.5964C219.511 58.2017 219.057 55.7809 218.62 53.6365C212.553 59.3284 204.436 62.6706 196.181 63.4203C189.11 64.0359 181.98 61.812 176.236 57.7284C167.502 51.7225 162.904 40.9922 162.686 30.6137C162.581 27.9835 161.397 25.4873 159.637 23.5523C156.093 19.9169 151.617 17.0479 146.603 15.9674C141.951 15.025 136.992 15.5737 132.717 17.651C126.725 20.6121 122.186 25.8056 116.144 28.6829C108.934 32.1759 100.818 32.9717 92.9193 33.357C84.24 33.7633 75.5523 33.6753 66.8688 33.6962C55.4097 33.7004 43.9549 33.6921 32.5 33.7004C32.5168 33.202 32.5336 32.7036 32.5546 32.2094C47.9145 32.2597 63.2702 32.222 78.6302 32.222C83.6689 32.1759 88.7161 32.2387 93.7465 31.8869C101.305 31.489 109.098 30.6556 115.942 27.1961C122.128 24.1428 126.717 18.606 133.112 15.9213C139.671 13.0775 147.523 13.6094 153.696 17.1903C157.252 19.2593 160.679 21.9021 162.732 25.5333C164.596 28.7248 163.903 32.5487 164.621 36.0333C166.011 43.7145 169.845 51.245 176.219 55.9694C181.548 59.965 188.186 62.4025 194.9 62.0675C203.701 61.6151 212.381 57.942 218.612 51.6973C219.658 48.2462 221.778 45.2642 222.958 41.8633C223.701 39.8949 224.176 37.8259 224.31 35.7275C222.538 37.1557 221.702 39.3253 220.644 41.2686C218.788 44.7072 216.865 48.1667 214.22 51.0733C211.092 54.4197 206.88 56.4803 202.694 58.1891C198.553 59.8309 193.998 60.9073 189.555 59.9273C185.007 58.8635 180.683 56.874 176.853 54.2103C173.087 51.5843 170.475 47.6599 168.547 43.568C164.978 36.0835 163.966 27.2966 166.419 19.318C167.502 15.4648 169.715 11.9927 172.578 9.20753ZM192.268 1.55559C185.306 2.33042 178.776 5.60145 173.544 10.1792C169.988 13.6387 167.708 18.2835 166.964 23.1712C165.411 31.7361 167.787 40.7032 172.616 47.8609C176.278 53.3015 182.488 56.3547 188.589 58.2436C193.691 59.8142 199.028 58.2687 203.743 56.2123C207.636 54.4993 211.545 52.3633 214.174 48.9289C216.924 45.5322 218.851 41.5869 220.871 37.7421C221.694 36.1757 222.92 34.8019 224.549 34.0481C224.995 24.3564 221.472 13.9151 213.397 8.02644C207.355 3.63297 199.826 0.81846 192.268 1.55559ZM220.077 52.6858C220.006 54.7129 220.842 56.6227 221.77 58.3776C223.328 59.1818 225.104 59.0142 226.733 58.5284C226.913 58.2938 227.275 57.829 227.455 57.5944C227.468 57.4059 227.485 57.0206 227.497 56.828C225.788 54.738 223.663 53.0083 221.337 51.6429C220.9 51.9487 220.182 52.0659 220.077 52.6858ZM227.531 59.8854C226.313 60.4927 225.671 61.7868 224.94 62.8674C225.251 63.3323 225.566 63.7972 225.881 64.2663C228.53 66.708 231.39 68.9823 234.543 70.7372C233.754 68.9865 232.607 67.3363 232.385 65.3846C232.095 63.747 232.418 61.8832 231.28 60.5053C230.474 59.2278 228.761 59.6718 227.531 59.8854Z"/>
</mask>
<path d="M172.578 9.20753C178.436 3.88426 186.133 0.378694 194.094 0.00175121C201.623 -0.0820138 209.022 2.84558 214.921 7.42334C222.794 13.5089 226.292 23.8664 225.943 33.558C234.304 32.2262 242.802 32.9089 251.226 32.5277C258.238 32.3141 265.469 31.7613 271.855 28.6033C279.019 24.9805 285.338 19.5902 293.207 17.45C296.835 16.3946 300.833 16.4365 304.314 18.007C308.139 19.5902 311.141 22.5806 314.853 24.369C317.893 25.8516 321.357 25.7679 324.658 25.8726C338.926 25.9061 353.19 25.8852 367.458 25.8852C367.466 26.2202 367.487 26.8903 367.5 27.2254C354.63 27.3175 341.76 27.2505 328.89 27.2547C325.22 27.1877 321.517 27.4222 317.88 26.8275C312.006 25.8223 308.101 20.6792 302.563 18.8531C298.347 17.3914 293.745 18.4259 289.777 20.1514C284.045 22.5178 279.103 26.3417 273.678 29.2776C267.572 32.557 260.573 33.6125 253.72 33.8261C248.694 34.1444 243.655 34.0606 238.624 34.1486C234.375 34.2491 230.067 34.0858 225.901 35.0867C225.536 38.8981 224.482 42.6423 222.706 46.0432C221.946 47.4547 221.228 48.8912 220.569 50.3529C222.786 50.2817 224.444 52.0031 226.048 53.2847C227.422 54.5789 229.391 56.0154 228.828 58.1724C231.226 57.8038 233.208 59.8268 233.472 62.0884C233.741 64.1532 233.728 66.2934 234.711 68.1949C234.745 66.3018 234.325 64.3375 235.03 62.5114C235.966 59.9021 237.361 57.2258 239.788 55.7139C242.051 54.3569 245.137 54.7297 246.989 56.6102C248.257 57.9002 248.463 59.7932 248.702 61.4979C249.046 64.6432 249.198 67.8096 249.693 70.9382C250.004 67.7049 249.609 64.3961 250.386 61.2172C250.743 59.6467 252.044 58.097 253.766 58.0928C255.882 57.8792 257.831 59.2404 258.855 61.0078C261.337 65.2882 261.337 70.4565 263.39 74.9003C263.604 71.6125 261.958 68.5886 261.492 65.3971C261.408 64.7479 261.732 64.149 261.887 63.5417C263.344 62.8674 265.154 63.0182 266.321 64.1825C269.172 67.0222 269.596 71.3947 272.317 74.3181C271.927 72.1821 270.486 70.444 269.962 68.354C269.621 67.4452 270.344 66.3939 271.318 66.3939C273.56 66.1636 275.685 67.2693 277.36 68.6682C279.514 70.5152 281.018 72.9569 282.55 75.3065C284.54 78.3556 286.056 81.8234 286.086 85.5217C286.346 93.1946 285.267 100.884 286.023 108.549C286.501 113.386 287.933 118.056 289.235 122.718C293.388 137.46 298.347 151.981 304.179 166.146C304.956 168.449 306.363 170.707 306.052 173.228C304.927 173.781 303.692 174.057 302.437 173.99C293.921 173.915 285.359 174.271 276.89 173.228C274.492 172.989 272.145 171.641 271.288 169.304C267.102 159.281 263.168 149.154 259.221 139.039C257.528 134.746 256.067 130.349 253.963 126.227C252.532 123.371 250.348 121.009 248.274 118.617C245.162 115.166 242.084 111.69 239.116 108.117C236.714 105.102 234.119 102.107 232.792 98.4299C231.516 95.0625 231.717 91.3978 231.028 87.9048C230.176 83.4611 228.345 79.2979 226.712 75.1055C225.713 72.6596 224.323 70.1717 224.6 67.441C224.856 67.2986 225.368 67.0096 225.624 66.863C227.522 68.2284 228.862 70.2052 230.785 71.5413C232.372 72.9318 234.455 73.6647 235.857 75.2772C236.794 76.2154 237.146 77.5514 237.302 78.833C237.932 84.1479 237.088 89.6471 238.54 94.8489C238.843 92.1726 238.729 89.4754 238.759 86.7907C238.696 83.6412 238.935 80.4288 238.083 77.3588C237.646 75.8845 236.869 74.5443 236.067 73.2459C236.559 73.0281 237.062 72.8355 237.579 72.6763C238.771 75.1306 239.926 77.719 240.031 80.4916C240.178 83.9804 240.123 87.4776 240.119 90.9706C240.098 92.7506 240.09 94.5809 239.51 96.2855C239.267 96.9221 238.805 97.1776 238.116 97.0436C237.058 95.9965 236.848 94.4301 236.617 93.0312C235.962 88.0053 236.441 82.8956 235.74 77.8781C234.955 75.34 232.171 74.4019 230.222 72.9318C228.74 71.7214 227.296 70.4398 226.099 68.9446C226.347 71.0722 227.329 72.9988 228.169 74.9422C229.811 79.2602 231.751 83.5239 232.507 88.1142C232.998 90.7821 232.96 93.5254 233.602 96.1724C234.132 98.7021 235.467 100.976 236.962 103.062C241.677 109.445 247.262 115.116 252.347 121.201C255.269 124.69 256.873 129 258.515 133.18C262.907 144.882 267.56 156.483 272.267 168.064C272.775 169.211 273.384 170.455 274.547 171.075C275.693 171.653 276.995 171.787 278.246 171.988C283.625 172.562 289.046 172.503 294.446 172.558C297.906 172.495 301.378 172.704 304.83 172.386C303.86 168.545 302.063 164.981 300.694 161.275C296.927 151.809 293.623 142.168 290.625 132.434C288.727 125.901 286.594 119.417 285.217 112.745C283.47 104.168 284.834 95.4185 284.704 86.7614C284.692 84.1647 284.322 81.5051 283.1 79.1807C281.601 76.3243 279.875 73.5642 277.801 71.0806C276.184 69.1624 273.854 67.6755 271.267 67.7216C271.78 70.1508 273.846 72.1444 273.648 74.7244C273.329 76.0143 271.666 75.8929 270.953 75.0259C268.656 72.1988 267.98 68.4043 265.679 65.5898C265.061 64.8527 263.617 63.948 262.865 64.8904C263.294 68.7184 265.805 72.5255 264.31 76.4081C263.424 76.6635 262.471 76.4918 262.105 75.5704C259.909 70.9382 260.098 65.3929 257.167 61.0665C256.101 59.3786 252.893 58.6499 252.023 60.8822C250.474 64.8778 252.154 69.4472 250.424 73.3925C249.508 73.5726 248.883 73.0156 248.673 72.1779C247.358 67.864 247.95 63.2192 246.72 58.8886C245.733 56.0322 241.644 55.5422 239.615 57.5693C237.755 59.4372 236.466 61.9251 236.025 64.5176C235.983 66.9593 236.508 69.3927 237.142 71.7423C236.613 72.1612 236.05 72.5255 235.467 72.8606C234.048 72.4585 232.922 71.4115 231.7 70.6283C228.984 68.8357 226.267 66.9133 224.23 64.3459C223.176 63.0433 224.109 61.5146 224.81 60.3168C223.659 60.233 222.32 60.4299 221.388 59.5964C219.511 58.2017 219.057 55.7809 218.62 53.6365C212.553 59.3284 204.436 62.6706 196.181 63.4203C189.11 64.0359 181.98 61.812 176.236 57.7284C167.502 51.7225 162.904 40.9922 162.686 30.6137C162.581 27.9835 161.397 25.4873 159.637 23.5523C156.093 19.9169 151.617 17.0479 146.603 15.9674C141.951 15.025 136.992 15.5737 132.717 17.651C126.725 20.6121 122.186 25.8056 116.144 28.6829C108.934 32.1759 100.818 32.9717 92.9193 33.357C84.24 33.7633 75.5523 33.6753 66.8688 33.6962C55.4097 33.7004 43.9549 33.6921 32.5 33.7004C32.5168 33.202 32.5336 32.7036 32.5546 32.2094C47.9145 32.2597 63.2702 32.222 78.6302 32.222C83.6689 32.1759 88.7161 32.2387 93.7465 31.8869C101.305 31.489 109.098 30.6556 115.942 27.1961C122.128 24.1428 126.717 18.606 133.112 15.9213C139.671 13.0775 147.523 13.6094 153.696 17.1903C157.252 19.2593 160.679 21.9021 162.732 25.5333C164.596 28.7248 163.903 32.5487 164.621 36.0333C166.011 43.7145 169.845 51.245 176.219 55.9694C181.548 59.965 188.186 62.4025 194.9 62.0675C203.701 61.6151 212.381 57.942 218.612 51.6973C219.658 48.2462 221.778 45.2642 222.958 41.8633C223.701 39.8949 224.176 37.8259 224.31 35.7275C222.538 37.1557 221.702 39.3253 220.644 41.2686C218.788 44.7072 216.865 48.1667 214.22 51.0733C211.092 54.4197 206.88 56.4803 202.694 58.1891C198.553 59.8309 193.998 60.9073 189.555 59.9273C185.007 58.8635 180.683 56.874 176.853 54.2103C173.087 51.5843 170.475 47.6599 168.547 43.568C164.978 36.0835 163.966 27.2966 166.419 19.318C167.502 15.4648 169.715 11.9927 172.578 9.20753ZM192.268 1.55559C185.306 2.33042 178.776 5.60145 173.544 10.1792C169.988 13.6387 167.708 18.2835 166.964 23.1712C165.411 31.7361 167.787 40.7032 172.616 47.8609C176.278 53.3015 182.488 56.3547 188.589 58.2436C193.691 59.8142 199.028 58.2687 203.743 56.2123C207.636 54.4993 211.545 52.3633 214.174 48.9289C216.924 45.5322 218.851 41.5869 220.871 37.7421C221.694 36.1757 222.92 34.8019 224.549 34.0481C224.995 24.3564 221.472 13.9151 213.397 8.02644C207.355 3.63297 199.826 0.81846 192.268 1.55559ZM220.077 52.6858C220.006 54.7129 220.842 56.6227 221.77 58.3776C223.328 59.1818 225.104 59.0142 226.733 58.5284C226.913 58.2938 227.275 57.829 227.455 57.5944C227.468 57.4059 227.485 57.0206 227.497 56.828C225.788 54.738 223.663 53.0083 221.337 51.6429C220.9 51.9487 220.182 52.0659 220.077 52.6858ZM227.531 59.8854C226.313 60.4927 225.671 61.7868 224.94 62.8674C225.251 63.3323 225.566 63.7972 225.881 64.2663C228.53 66.708 231.39 68.9823 234.543 70.7372C233.754 68.9865 232.607 67.3363 232.385 65.3846C232.095 63.747 232.418 61.8832 231.28 60.5053C230.474 59.2278 228.761 59.6718 227.531 59.8854Z" fill="#4D4D4D" stroke="#4D4D4D" stroke-width="2" mask="url(#path-1-inside-1_14857_134655)"/>
</svg>
