<svg width="432" height="240" viewBox="0 0 432 240" fill="none" xmlns="http://www.w3.org/2000/svg">
<g clip-path="url(#clip0_87_28211)">
    <path d="M381.064 163.021H364.419C361.736 162.045 359.39 160.318 357.661 158.046C355.933 155.774 354.894 153.052 354.67 150.206C354.446 147.359 355.045 144.508 356.397 141.993C357.748 139.478 359.795 137.405 362.292 136.021H406.668C410.381 136.021 413.942 134.546 416.568 131.921C419.193 129.295 420.668 125.734 420.668 122.021C420.668 118.308 419.193 114.747 416.568 112.122C413.942 109.496 410.381 108.021 406.668 108.021H362.765C366.209 107.663 369.398 106.042 371.717 103.47C374.036 100.898 375.319 97.5584 375.319 94.0957V92.0957C375.319 88.3827 373.844 84.8217 371.219 82.1962C368.593 79.5707 365.032 78.0957 361.319 78.0957H242.86C245.737 76.421 247.982 73.8447 249.247 70.7656C250.512 67.6865 250.727 64.2763 249.859 61.0626C248.99 57.849 247.087 55.0111 244.443 52.9883C241.8 50.9654 238.563 49.8702 235.234 49.8723H125.213C121.884 49.8702 118.647 50.9654 116.003 52.9883C113.36 55.0111 111.456 57.849 110.588 61.0626C109.72 64.2763 109.935 67.6865 111.2 70.7656C112.465 73.8447 114.71 76.421 117.587 78.0957H44.5958C40.8828 78.0957 37.3218 79.5707 34.6963 82.1962C32.0708 84.8217 30.5958 88.3827 30.5958 92.0957V94.0957C30.5958 97.8087 32.0708 101.37 34.6963 103.995C37.3218 106.621 40.8828 108.096 44.5958 108.096H97.703C100.641 109.078 103.204 110.942 105.044 113.434C106.883 115.926 107.91 118.925 107.983 122.021C107.937 124.729 107.151 127.372 105.709 129.664C104.266 131.956 102.223 133.809 99.8015 135.021H14C10.287 135.021 6.72602 136.496 4.10051 139.122C1.475 141.747 0 145.308 0 149.021C0 152.734 1.475 156.295 4.10051 158.921C6.72602 161.546 10.287 163.021 14 163.021H92.0212C88.3082 163.021 84.7473 164.496 82.1217 167.122C79.4962 169.747 78.0212 173.308 78.0212 177.021C78.0212 180.734 79.4962 184.295 82.1217 186.921C84.7473 189.546 88.3082 191.021 92.0212 191.021H381.064C384.777 191.021 388.338 189.546 390.963 186.921C393.589 184.295 395.064 180.734 395.064 177.021C395.064 173.308 393.589 169.747 390.963 167.122C388.338 164.496 384.777 163.021 381.064 163.021Z" fill="#EFF6FF" stroke="#EFF6FF" stroke-linejoin="round"/>
    <path d="M416.982 191.356C424.597 191.356 430.77 185.183 430.77 177.568C430.77 169.953 424.597 163.78 416.982 163.78C409.367 163.78 403.193 169.953 403.193 177.568C403.193 185.183 409.367 191.356 416.982 191.356Z" fill="#EFF6FF" stroke="#EFF6FF" stroke-linejoin="round"/>
    <path d="M129.416 154.906C123.578 136.142 125.45 115.994 134.661 98.4731C143.871 80.952 159.744 67.3423 179.119 60.3531C198.495 53.3639 219.952 53.5079 239.22 60.7563C258.488 68.0047 274.154 81.8259 283.099 99.4689C292.044 117.112 293.612 137.283 287.491 155.966C281.371 174.65 268.01 190.476 250.069 200.294C232.128 210.112 210.922 213.203 190.672 208.951C170.423 204.698 152.615 193.415 140.793 177.346" fill="#FCFCFD"/>
    <path fill-rule="evenodd" clip-rule="evenodd" d="M238.34 63.0962C219.629 56.0572 198.784 55.9172 179.968 62.7048C161.153 69.4915 145.781 82.692 136.874 99.6364C127.969 116.575 126.164 136.038 131.803 154.163C132.213 155.481 131.477 156.883 130.158 157.293C128.84 157.703 127.439 156.967 127.029 155.648C120.992 136.246 122.931 115.413 132.448 97.3099C141.962 79.2119 158.335 65.193 178.271 58.0014C198.206 50.8106 220.276 50.9585 240.101 58.4164C259.928 65.8751 276.089 80.1132 285.329 98.3384C294.572 116.569 296.196 137.426 289.867 156.744C283.54 176.058 269.743 192.377 251.269 202.487C232.798 212.595 210.984 215.77 190.159 211.397C169.332 207.024 150.98 195.411 138.779 178.828C137.961 177.716 138.199 176.151 139.311 175.332C140.423 174.514 141.988 174.752 142.807 175.865C154.25 191.418 171.514 202.373 191.186 206.504C210.86 210.635 231.457 207.629 248.869 198.101C266.277 188.574 279.201 173.241 285.116 155.188C291.028 137.139 289.516 117.655 280.869 100.599C272.219 83.5386 257.049 70.1343 238.34 63.0962Z" fill="#3B82F6"/>
    <path d="M136.522 170.896C134.504 167.487 132.762 163.939 131.312 160.282L136.522 170.896Z" fill="#FCFCFD"/>
    <path fill-rule="evenodd" clip-rule="evenodd" d="M130.39 157.958C131.673 157.449 133.126 158.077 133.635 159.361C135.037 162.895 136.721 166.325 138.673 169.622C139.377 170.81 138.984 172.344 137.796 173.047C136.608 173.751 135.075 173.358 134.371 172.17C132.286 168.649 130.487 164.983 128.988 161.204C128.479 159.92 129.106 158.467 130.39 157.958Z" fill="#3B82F6"/>
    <path d="M270.815 132.339C250.466 132.337 230.929 124.814 216.399 111.386C201.87 97.957 193.507 79.6939 193.105 60.5178C178.686 63.2807 165.394 69.8435 154.774 79.4436C144.154 89.0436 136.643 101.287 133.112 114.751C129.582 128.215 130.177 142.346 134.829 155.504C139.481 168.662 147.999 180.305 159.393 189.081C170.787 197.857 184.589 203.406 199.196 205.083C213.802 206.759 228.614 204.495 241.909 198.553C255.205 192.61 266.438 183.234 274.305 171.513C282.171 159.792 286.348 146.208 286.349 132.339C286.349 131.85 286.32 131.367 286.31 130.88C281.209 131.852 276.018 132.341 270.815 132.339Z" fill="#EFF6FF"/>
    <path fill-rule="evenodd" clip-rule="evenodd" d="M182.252 79.2487C175.161 92.894 170.701 111.918 170.701 133.069C170.701 154.22 175.161 173.244 182.252 186.889C189.406 200.658 198.85 208.312 208.599 208.312C218.348 208.312 227.792 200.658 234.947 186.889C242.038 173.244 246.498 154.22 246.498 133.069C246.498 111.918 242.038 92.894 234.947 79.2487C227.792 65.48 218.348 57.8254 208.599 57.8254C198.85 57.8254 189.406 65.48 182.252 79.2487ZM177.815 76.9432C185.281 62.5744 196.037 52.8254 208.599 52.8254C221.162 52.8254 231.917 62.5744 239.384 76.9432C246.915 91.4356 251.498 111.283 251.498 133.069C251.498 154.855 246.915 174.702 239.384 189.195C231.917 203.564 221.162 213.312 208.599 213.312C196.037 213.312 185.281 203.564 177.815 189.195C170.284 174.702 165.701 154.855 165.701 133.069C165.701 111.283 170.284 91.4356 177.815 76.9432Z" fill="#3B82F6"/>
    <path fill-rule="evenodd" clip-rule="evenodd" d="M206.458 174.057C182.873 174.057 161.773 178.688 147.137 185.958C145.9 186.572 144.4 186.068 143.786 184.831C143.171 183.595 143.676 182.094 144.912 181.48C160.4 173.787 182.303 169.057 206.458 169.057C232.057 169.057 255.146 174.37 270.742 182.908L307.591 194.17C308.912 194.574 309.655 195.971 309.252 197.292C308.848 198.612 307.45 199.355 306.13 198.952L269.034 187.614C268.868 187.563 268.708 187.496 268.556 187.412C253.894 179.317 231.597 174.057 206.458 174.057Z" fill="#3B82F6"/>
    <path fill-rule="evenodd" clip-rule="evenodd" d="M120.042 60.2312C120.96 59.1999 122.54 59.1079 123.572 60.0259L146.971 80.8527C161.612 88.1699 182.782 92.8373 206.459 92.8373C231.862 92.8373 254.36 87.4657 269.011 79.2292C270.215 78.5526 271.739 78.9798 272.416 80.1833C273.092 81.3869 272.665 82.9111 271.461 83.5877C255.858 92.3595 232.451 97.8373 206.459 97.8373C182.053 97.8373 159.943 93.0078 144.428 85.1703C144.234 85.0726 144.054 84.9503 143.893 84.8063L120.248 63.7608C119.216 62.8428 119.124 61.2626 120.042 60.2312Z" fill="#3B82F6"/>
    <path fill-rule="evenodd" clip-rule="evenodd" d="M208.958 55.3254L208.958 210.812H203.958L203.958 55.3254H208.958Z" fill="#3B82F6"/>
    <path fill-rule="evenodd" clip-rule="evenodd" d="M126.117 130.947H291.084V135.947H126.117V130.947Z" fill="#3B82F6"/>
    <path fill-rule="evenodd" clip-rule="evenodd" d="M323.241 183.622C315.434 183.622 309.361 189.552 309.361 196.561C309.361 203.57 315.434 209.5 323.241 209.5C331.049 209.5 337.122 203.57 337.122 196.561C337.122 189.552 331.049 183.622 323.241 183.622ZM304.361 196.561C304.361 186.516 312.955 178.622 323.241 178.622C333.527 178.622 342.122 186.516 342.122 196.561C342.122 206.606 333.527 214.5 323.241 214.5C312.955 214.5 304.361 206.606 304.361 196.561Z" fill="#3B82F6"/>
    <path fill-rule="evenodd" clip-rule="evenodd" d="M107.586 39.6074C99.7789 39.6074 93.7058 45.5378 93.7058 52.5467C93.7058 59.5555 99.7789 65.4859 107.586 65.4859C115.394 65.4859 121.467 59.5555 121.467 52.5467C121.467 45.5378 115.394 39.6074 107.586 39.6074ZM88.7058 52.5467C88.7058 42.5018 97.3004 34.6074 107.586 34.6074C117.872 34.6074 126.467 42.5018 126.467 52.5467C126.467 62.5916 117.872 70.4859 107.586 70.4859C97.3004 70.4859 88.7058 62.5916 88.7058 52.5467Z" fill="#3B82F6"/>
    <path d="M80.3224 37.1075C82.729 37.1075 84.6799 35.2687 84.6799 33.0004C84.6799 30.7321 82.729 28.8933 80.3224 28.8933C77.9159 28.8933 75.965 30.7321 75.965 33.0004C75.965 35.2687 77.9159 37.1075 80.3224 37.1075Z" fill="#61A5FA"/>
    <path d="M345.643 183.44C348.049 183.44 350 181.601 350 179.333C350 177.065 348.049 175.226 345.643 175.226C343.236 175.226 341.285 177.065 341.285 179.333C341.285 181.601 343.236 183.44 345.643 183.44Z" fill="#61A5FA"/>
    <path d="M108.012 167.824C110.418 167.824 112.369 165.985 112.369 163.717C112.369 161.449 110.418 159.61 108.012 159.61C105.605 159.61 103.654 161.449 103.654 163.717C103.654 165.985 105.605 167.824 108.012 167.824Z" fill="#61A5FA"/>
    <path fill-rule="evenodd" clip-rule="evenodd" d="M331.279 162.11C330.112 162.11 329.422 162.967 329.422 163.717C329.422 164.467 330.112 165.324 331.279 165.324C332.447 165.324 333.137 164.467 333.137 163.717C333.137 162.967 332.447 162.11 331.279 162.11ZM324.422 163.717C324.422 159.931 327.634 157.11 331.279 157.11C334.925 157.11 338.137 159.931 338.137 163.717C338.137 167.503 334.925 170.324 331.279 170.324C327.634 170.324 324.422 167.503 324.422 163.717Z" fill="#61A5FA"/>
    <path fill-rule="evenodd" clip-rule="evenodd" d="M282.17 56.1606C281.003 56.1606 280.313 57.0175 280.313 57.7677C280.313 58.5179 281.003 59.3748 282.17 59.3748C283.337 59.3748 284.027 58.5179 284.027 57.7677C284.027 57.0175 283.337 56.1606 282.17 56.1606ZM275.312 57.7677C275.312 53.9814 278.524 51.1606 282.17 51.1606C285.816 51.1606 289.027 53.9814 289.027 57.7677C289.027 61.554 285.816 64.3748 282.17 64.3748C278.524 64.3748 275.312 61.554 275.312 57.7677Z" fill="#61A5FA"/>
    <path fill-rule="evenodd" clip-rule="evenodd" d="M138.269 48.4438C137.102 48.4438 136.412 49.3007 136.412 50.0509C136.412 50.8012 137.102 51.658 138.269 51.658C139.436 51.658 140.127 50.8011 140.127 50.0509C140.127 49.3007 139.436 48.4438 138.269 48.4438ZM131.412 50.0509C131.412 46.2646 134.623 43.4438 138.269 43.4438C141.915 43.4438 145.127 46.2646 145.127 50.0509C145.127 53.8372 141.915 56.658 138.269 56.658C134.623 56.658 131.412 53.8372 131.412 50.0509Z" fill="#61A5FA"/>
</g>
<defs>
    <clipPath id="clip0_87_28211">
        <rect width="432" height="240" fill="white"/>
    </clipPath>
</defs>
</svg>
