<svg width="550" height="222" viewBox="0 0 550 222" fill="none" xmlns="http://www.w3.org/2000/svg">
<path d="M298.671 91.2812C298.699 92.3381 298.412 93.4861 298.671 94.803C298.931 96.1243 299.957 96.785 302.113 97.475C304.942 98.3802 322 98.1063 322.975 98.1063C324.626 98.1063 332.875 97.475 339.24 97.475C343.129 98.1063 371.416 100.088 374.598 104.052C376.013 105.043 378.882 113.239 379.649 115.614C380.609 118.587 381.26 122.337 379.649 125.347M226.194 158.205C216.285 158.205 211.232 150.879 206.161 146.783C203.468 144.608 200.794 147.066 199.651 148.812C196.755 153.234 195.629 157.99 192.853 162.431C190.952 165.471 188.44 167.504 184.437 163.811C182.915 162.407 176.935 153.362 173.719 153.686C170.121 154.048 168.901 160.279 168.036 161.97C166.844 164.303 160.025 157.802 159.188 156.991C156.701 154.58 149.77 160.011 148.614 161.217C146.473 163.45 144.821 160.904 142.284 160.297C133.775 158.259 130.006 159.334 121 159.334M233.611 22.994C239.351 22.837 250.936 24.4473 255.025 19.6558C258.299 15.8198 251.671 8.38502 255.021 3.73475C257.749 -0.0534991 265.337 1.10214 266.831 1.39706C270.932 1.95646 273.772 7.49959 270.194 14.4005C269.181 16.3555 268.431 18.7406 268.48 20.3319C268.573 23.4136 271.932 22.7475 274.529 22.6765C283.653 22.8015 293.437 21.7849 294.953 22.7895C297.02 23.0434 296.657 37.1948 296.721 39.3054C296.918 45.8288 299.625 53.706 292.83 50.817C284.675 47.3501 278.964 46.8354 275.583 51.6242C270.776 79.2622 293.018 57.0446 296.314 67.8295C297.331 71.1562 297.835 76.1741 297.937 79.5258C298.032 82.6833 298.334 92.6709 297.075 93.0142C290.815 94.7216 278.953 93.5098 273.057 93.671C261.819 93.5381 258.493 94.0694 262.535 104.935C265.085 115.61 252.463 115.68 249.405 113.388C246.765 111.41 245.591 109.428 246.136 106.411C246.505 104.366 250.545 98.5307 248.524 95.9164C246.737 93.6036 245.071 94.1799 243.653 94.1889C238.584 94.2209 233.405 94.1619 228.274 94.3023C224.684 94.4004 224.935 90.6359 224.869 88.4212C224.813 86.5728 225.015 84.7109 225.381 82.8938C227.425 66.2124 229.825 66.866 231.287 66.1068C234.577 64.3987 243.602 68.1812 246.9 66.7479C250.198 65.3146 249.264 58.9603 245.193 58.3526C241.829 56.7781 232.229 60.4335 229.541 57.485C226.853 54.5365 227.728 48.1457 227.624 44.6997C227.522 41.3304 227.688 38.0604 228.007 34.2599C228.227 31.6373 227.871 23.1509 233.611 22.994ZM223.019 154.149C223.019 148.672 225.035 137.672 220.139 133.635C216.219 130.404 208.251 136.508 203.482 133.181C199.596 130.471 201.022 123.269 201.374 121.853C202.076 117.959 207.957 115.411 215.075 119.021C217.091 120.043 219.565 120.827 221.231 120.827C224.458 120.827 223.857 117.605 223.857 115.127C224.249 106.43 223.466 97.0721 224.56 95.6561C224.885 93.6926 238.978 93.6867 241.188 93.6867C248.019 93.6867 250.722 95.3604 247.505 101.756C243.645 109.431 245.751 112.179 251.366 114.196C273.476 115.127 254.377 96.6748 263.649 94.446C266.808 93.6867 280.144 93.0143 284.005 93.6867C287.258 94.2533 297.793 92.6781 298.092 95.6561C298.714 101.839 298.092 112.949 298.092 118.575C297.632 129.287 298.092 132.473 309.576 128.932C320.818 126.809 320.529 138.845 318.044 141.696C315.899 144.155 313.792 145.217 310.651 144.611C308.522 144.2 302.532 140.18 299.739 142.031C297.268 143.669 297.824 145.274 297.793 146.626C297.681 151.461 297.471 156.396 297.471 161.293C297.471 164.718 293.54 164.37 291.221 164.37C289.285 164.37 287.343 164.124 285.452 163.723C268.058 161.293 268.811 159.024 268.058 157.608C266.365 154.422 270.581 145.925 269.176 142.739C267.771 139.553 261.096 140.261 260.343 144.125C258.6 147.287 262.15 156.546 258.988 159.024C255.826 161.502 249.165 160.483 245.557 160.483C242.029 160.483 238.612 160.231 234.645 159.817C231.908 159.532 223.019 159.626 223.019 154.149ZM427.682 180.181C423.634 184.055 417.026 191.147 412.766 195.155C409.474 199.142 404.228 201.248 420.112 212.713C423.334 215.813 421.367 219.061 420.07 219.826C415.601 223.563 411.679 217.517 409.205 213.704L409.14 213.603C407.936 211.749 404.687 207.889 402.906 207.607C401.126 207.325 396.276 208.859 394.013 210.497C386.96 215.605 384.194 217.265 381.938 219.386C380.256 220.557 371.631 212.204 370.057 210.715C365.191 206.115 364.501 203.11 371.519 200.753C379.941 197.923 380.472 194.561 377.962 189.353C362.898 173.804 362.869 199.719 354.616 195.052C351.805 193.462 341.807 184.956 339.554 181.88C337.655 179.289 328.986 173.308 330.973 171C335.099 166.207 343.752 158.767 347.909 154.787C356.153 147.52 358.18 144.956 347.382 139.727C337.804 133.658 346.904 125.338 350.781 124.995C354.127 124.699 356.413 125.368 358.202 127.912C359.415 129.636 360.712 136.514 364.07 137.085C367.04 137.59 367.831 136.081 368.852 135.146C372.504 131.801 374.308 130.295 377.927 126.83C380.458 124.407 382.569 126.078 384.221 127.64C385.6 128.943 387.443 130.739 389.178 132.408C397.605 140.515 397.123 142.298 396.612 143.807C395.676 146.574 379.373 146.82 384.188 156.438C389.002 166.056 396.176 161.429 395.359 162.198C398.938 161.135 401.575 152.132 405.659 152.509C409.742 152.885 413.735 158.092 416.306 160.522C418.819 162.898 421.067 165.377 423.587 168.341C425.327 170.387 431.729 176.306 427.682 180.181ZM297.922 88.0305C297.739 81.9931 299.397 69.8122 294.347 65.4969C290.304 62.0422 282.508 68.9903 277.609 65.4535C273.618 62.5724 274.81 54.5947 275.115 53.0241C275.691 48.7124 281.51 45.7423 288.776 49.5261C290.834 50.5981 293.344 51.3936 295.017 51.3478C298.257 51.2592 297.546 47.7241 297.464 44.9925C297.567 35.3957 296.469 25.1017 297.52 23.5107C297.781 21.3375 312.565 22.0544 314.784 21.9937C321.641 21.8062 325.56 22.0026 325.821 30.634C325.974 35.688 321.231 43.803 326.337 47.7178C343.996 54.6553 332.59 27.6288 336.411 25.5715C340.82 22.0534 350.957 23.7334 355.841 23.5998C359.161 23.509 369.152 23.7689 371.207 26.9632C373.021 33.5529 371.919 40.5542 372.106 46.7556C372.001 58.576 372.569 62.0754 383.98 57.8569C395.196 55.2078 395.307 68.4834 392.907 71.6936C390.836 74.464 388.755 75.6925 385.582 75.1102C383.431 74.7155 377.284 70.4488 374.541 72.5663C372.115 74.4396 372.726 76.1937 372.74 77.685C372.789 83.0168 372.743 88.4631 372.906 93.8609C373.02 97.6366 369.062 97.361 366.733 97.4247C364.79 97.4778 362.832 97.2592 360.921 96.8689C343.377 94.6685 344.057 92.1464 343.254 90.6061C341.448 87.1406 345.398 77.6594 343.881 74.1859C342.364 70.7125 335.686 71.6762 335.06 75.9559C333.415 79.4897 337.287 89.5977 334.195 92.4161C331.104 95.2345 324.382 94.2946 320.76 94.3937C317.218 94.4905 313.779 94.3066 309.783 93.9593C307.025 93.7196 298.104 94.0678 297.922 88.0305Z" stroke="black" stroke-linecap="round"/>
</svg>
