<svg width="400" height="138" viewBox="0 0 400 138" fill="none" xmlns="http://www.w3.org/2000/svg">
<g opacity="0.5">
<path d="M131.76 125.484C143.534 116.847 136.421 63.4528 135.338 49.9384C135.101 46.9787 134.671 43.9139 134.671 40.7684C134.671 35.517 137.073 34.0775 138.729 33.3578C140.891 32.4175 143.226 32.06 144.469 31.7317C154.827 30.9586 162.757 31.4385 171.407 30.4788M171.647 30.4788C173.719 30.4788 177.868 29.8924 177.868 29.8924C177.868 29.8924 181.712 29.5192 182.94 29.0393C184.648 28.6354 187.047 28.1889 189.235 27.503M189.235 27.503C192.244 26.5596 194.853 25.1633 194.714 22.8016C194.714 19.4428 194.714 12.9652 193.406 9.3665C192.614 8.02341 190.204 8.40685 188.947 8.40685C186.458 8.40685 184.285 8.41022 183.901 10.3261C183.421 12.7253 183.112 20.7438 183.421 23.5213C183.589 25.0369 187.625 26.7105 189.235 27.503ZM189.235 27.503C189.304 27.537 189.368 27.5692 189.428 27.5999C192.551 28.5595 193.032 28.7194 196.396 29.4125C199.76 30.1056 203.633 30.7187 209.131 30.7187C214.432 30.7187 219.489 31.0653 225.47 30.7187C231.45 30.3722 237.243 29.7591 241.568 29.2792C242.754 29.2792 244.682 28.663 246.542 27.8538M246.542 27.8538C248.452 27.0228 250.29 25.9883 251.18 25.2085C252.274 24.2488 251.9 22.5694 251.9 19.2106C251.9 16.5716 250.79 10.094 250.085 8.65448L250.076 8.63686C249.496 7.45137 249.32 7.09203 247.095 6.9751C245.926 6.91365 242.628 7.22469 241.568 7.69483C238.777 8.93353 238.685 11.0536 238.685 17.2913C238.685 19.4202 239.646 23.2814 239.646 23.2814C240.266 25.4465 243.437 27.0134 246.542 27.8538ZM246.542 27.8538C248.254 28.3171 249.946 28.5595 251.18 28.5595C256.234 28.5595 264.867 29.2792 269.921 29.2792C271.879 29.2792 276.649 29.7591 277.851 28.3196M277.902 28.1807C279.052 26.1604 279.387 7.94992 271.409 4.08842C261.992 -0.469915 159.393 -0.230006 148.492 6.47263C138.83 12.4129 139.866 30.737 139.866 32.709V54.0583C139.866 58.088 141.303 90.6692 141.303 94.699C141.303 101.24 141.783 107.872 141.783 114.505C141.783 117.249 143.294 129.083 146.177 130.762C151.463 135.854 197.857 135.854 208.02 135.854C219.991 135.854 232.163 136.528 244.068 135.311C248.5 135.311 274.221 134.544 278.358 132.768M278.609 132.682C284.611 130.185 286.741 125.652 286.741 114.767C280.826 52.634 283.044 30.4112 277.13 38.2175M247.073 74.1866C247.073 70.2508 244.915 68.2725 243.639 66.8034C241.323 64.1357 238.353 63.6736 235.044 64.3556C227.495 65.9111 223.583 78.6999 229.643 83.9112C233.378 87.1225 239.012 86.5296 242.979 84.2305C247.026 81.8854 248.523 78.8995 248.763 74.1866C249.19 65.7923 239.845 62.1473 232.865 62.1473M277.13 38.156C268.48 50.8714 293.229 127.403 269.716 131.12C257.556 132.323 245.437 132.682 233.032 132.682C220.795 132.682 210.195 133.165 192.571 132.682C135.605 131.12 148.1 127.762 146.246 94.3013C144.474 62.2943 131.04 59.2683 233.159 62.1473M131.52 125.484C129.439 126.971 126.11 129.118 122.277 129.298C120.536 129.379 118.761 129.298 117.019 129.298C110.283 129.298 106.847 121.869 103.399 117.714C101.568 115.508 99.7504 118.002 98.9731 119.772C97.0041 124.256 96.239 129.08 94.3514 133.583C93.0592 136.666 91.351 138.729 88.6294 134.983C87.5945 133.559 83.5288 124.387 81.3424 124.715C78.8964 125.082 78.0666 131.401 77.4788 133.116C76.6681 135.482 72.0322 128.89 71.4634 128.067C69.7724 125.622 65.0605 131.13 64.2742 132.353C62.8186 134.617 61.6955 132.035 59.9705 131.419C54.1857 129.353 51.6231 130.443 45.5 130.443M247.095 74.3828C247.095 90.217 224.437 86.6184 224.437 69.0161C224.437 60.5048 219.463 35.8729 233.158 33.1179C244.907 30.7546 270.743 31.6784 273.526 31.6784C278.331 31.6784 280.494 31.6784 282.176 34.5573C285.418 40.1081 289.492 96.7602 292.508 112.769C293.334 117.153 299.716 129.083 313.652 125.484M354.5 126.043C352.627 125.549 350.715 126.024 348.836 126.332C345.206 126.929 341.601 127.453 337.954 126.738C335.455 126.248 332.473 125.471 330.896 121.933C329.75 119.364 329.083 123.951 328.698 125.406C328.315 126.855 327.46 132.376 325.964 131.658C324.114 130.77 321.841 127.928 320.693 125.464C319.792 123.53 318.432 123.965 317.016 124.285C315.702 124.582 314.614 125.062 313.652 125.464M229.554 73.3149C231.148 72.1617 233.075 69.5962 234.051 67.9373C234.452 67.2551 233.763 77.6313 234.051 79.421M237.143 69.8925C237.391 67.9532 242.21 67.284 242.21 70.9476C242.21 72.2801 240.909 72.9657 239.662 73.3908C239.155 73.5633 237.244 74.039 237.143 74.6402C236.765 74.9936 236.296 77.2826 236.296 78.3884C236.139 80.5673 237.39 78.6135 238.644 78.6605C239.366 78.6876 240.227 79.3939 240.992 79.3939C241.931 79.3939 242.557 79.1005 243.01 78.3884M156.745 44.8736C158.212 47.1167 159.043 48.4876 159.738 49.5343M159.738 49.5343C160.754 51.0624 161.481 51.8993 163.477 53.7503M159.738 49.5343C160.542 47.9794 161.128 46.7873 162.516 44.1538M159.738 49.5343C159.151 50.6709 158.448 52.0013 157.23 54.2302M182.46 45.5933C183.927 47.8365 184.758 49.2074 185.454 50.2541M185.454 50.2541C186.469 51.7821 187.196 52.6191 189.193 54.4701M185.454 50.2541C186.257 48.6991 186.843 47.507 188.231 44.8736M185.454 50.2541C184.866 51.3906 184.163 52.7211 182.945 54.9499M207.449 45.5933C208.916 47.8365 209.747 49.2074 210.443 50.2541M210.443 50.2541C211.458 51.7821 212.185 52.6191 214.182 54.4701M210.443 50.2541C211.246 48.6991 211.832 47.507 213.221 44.8736M210.443 50.2541C209.855 51.3906 209.152 52.7211 207.934 54.9499M232.918 45.5933C234.386 47.8365 235.217 49.2074 235.912 50.2541M235.912 50.2541C236.928 51.7821 237.655 52.6191 239.651 54.4701M235.912 50.2541C236.716 48.6991 237.302 47.507 238.69 44.8736M235.912 50.2541C235.325 51.3906 234.622 52.7211 233.404 54.9499M258.388 45.5933C259.855 47.8365 260.686 49.2074 261.382 50.2541M261.382 50.2541C262.398 51.7821 263.125 52.6191 265.121 54.4701M261.382 50.2541C262.186 48.6991 262.772 47.507 264.16 44.8736M261.382 50.2541C260.795 51.3906 260.091 52.7211 258.874 54.9499M207.929 71.5039C209.396 73.747 210.228 75.1179 210.923 76.1646M210.923 76.1646C211.939 77.6927 212.666 78.5296 214.662 80.3806M210.923 76.1646C211.727 74.6097 212.313 73.4176 213.701 70.7841M210.923 76.1646C210.336 77.3012 209.632 78.6316 208.415 80.8605M182.46 71.9837C183.927 74.2268 184.758 75.5978 185.454 76.6444M185.454 76.6444C186.469 78.1725 187.196 79.0095 189.193 80.8605M185.454 76.6444C186.257 75.0895 186.843 73.8974 188.231 71.2639M185.454 76.6444C184.866 77.781 184.163 79.1114 182.945 81.3403M157.47 71.024C158.938 73.2672 159.769 74.6381 160.464 75.6848M160.464 75.6848C161.48 77.2129 162.207 78.0498 164.203 79.9008M160.464 75.6848C161.268 74.1299 161.854 72.9377 163.242 70.3043M160.464 75.6848C159.877 76.8214 159.174 78.1518 157.956 80.3806M157.49 43.9139C156.289 44.1538 156.529 47.2418 156.529 48.9521V51.831C156.529 52.4776 156.549 53.0306 156.769 53.7503C157.282 55.4297 158.89 54.9499 160.133 54.9499C160.812 54.9499 161.575 54.9499 162.781 54.7926C163.257 54.7926 163.737 53.7503 163.737 53.2705C163.978 52.3109 163.612 48.3531 163.612 45.9994C163.612 44.6802 163.449 43.9139 161.951 43.9139H157.49ZM157.75 70.3043C156.549 70.5442 156.789 73.6322 156.789 75.3425V78.2214C156.789 78.868 156.809 79.421 157.029 80.1407C157.542 81.8201 159.15 81.3403 160.393 81.3403C161.072 81.3403 161.835 81.3403 163.041 81.183C163.517 81.183 163.997 80.1407 163.997 79.6609C164.238 78.7012 163.872 74.7435 163.872 72.3898C163.872 71.0706 163.709 70.3043 162.21 70.3043H157.75ZM157.49 96.2149C156.289 96.4548 156.529 99.5427 156.529 101.253V104.132C156.529 104.779 156.549 105.332 156.769 106.051C157.282 107.731 158.89 107.251 160.133 107.251C160.812 107.251 161.575 107.251 162.781 107.094C163.257 107.094 163.737 106.051 163.737 105.571C163.978 104.612 163.612 100.654 163.612 98.3003C163.612 96.9812 163.449 96.2149 161.951 96.2149H157.49ZM182.739 43.9139C181.538 44.1538 181.778 47.2418 181.778 48.9521V51.831C181.778 52.4776 181.798 53.0306 182.018 53.7503C182.531 55.4297 184.139 54.9499 185.382 54.9499C186.061 54.9499 186.824 54.9499 188.03 54.7926C188.506 54.7926 188.986 53.7503 188.986 53.2705C189.227 52.3109 188.861 48.3531 188.861 45.9994C188.861 44.6802 188.698 43.9139 187.2 43.9139H182.739ZM182.999 70.3043C181.798 70.5442 182.038 73.6322 182.038 75.3425V78.2214C182.038 78.868 182.058 79.421 182.278 80.1407C182.791 81.8201 184.399 81.3403 185.642 81.3403C186.321 81.3403 187.084 81.3403 188.29 81.183C188.766 81.183 189.246 80.1407 189.246 79.6609C189.487 78.7012 189.121 74.7435 189.121 72.3898C189.121 71.0706 188.958 70.3043 187.459 70.3043H182.999ZM182.739 96.2149C181.538 96.4548 181.778 99.5427 181.778 101.253V104.132C181.778 104.779 181.798 105.332 182.018 106.051C182.531 107.731 184.139 107.251 185.382 107.251C186.061 107.251 186.824 107.251 188.03 107.094C188.506 107.094 188.986 106.051 188.986 105.571C189.227 104.612 188.861 100.654 188.861 98.3003C188.861 96.9812 188.698 96.2149 187.2 96.2149H182.739ZM208.209 43.9139C207.007 44.1538 207.248 47.2418 207.248 48.9521V51.831C207.248 52.4776 207.268 53.0306 207.488 53.7503C208.001 55.4297 209.609 54.9499 210.852 54.9499C211.53 54.9499 212.294 54.9499 213.5 54.7926C213.975 54.7926 214.456 53.7503 214.456 53.2705C214.696 52.3109 214.33 48.3531 214.33 45.9994C214.33 44.6802 214.168 43.9139 212.669 43.9139H208.209ZM208.469 70.3043C207.267 70.5442 207.508 73.6322 207.508 75.3425V78.2214C207.508 78.868 207.528 79.421 207.748 80.1407C208.261 81.8201 209.868 81.3403 211.112 81.3403C211.79 81.3403 212.553 81.3403 213.76 81.183C214.235 81.183 214.716 80.1407 214.716 79.6609C214.956 78.7012 214.59 74.7435 214.59 72.3898C214.59 71.0706 214.428 70.3043 212.929 70.3043H208.469ZM208.209 96.2149C207.007 96.4548 207.248 99.5427 207.248 101.253V104.132C207.248 104.779 207.268 105.332 207.488 106.051C208.001 107.731 209.609 107.251 210.852 107.251C211.53 107.251 212.294 107.251 213.5 107.094C213.975 107.094 214.456 106.051 214.456 105.571C214.696 104.612 214.33 100.654 214.33 98.3003C214.33 96.9812 214.168 96.2149 212.669 96.2149H208.209ZM233.678 43.9139C232.477 44.1538 232.717 47.2418 232.717 48.9521V51.831C232.717 52.4776 232.738 53.0306 232.958 53.7503C233.471 55.4297 235.078 54.9499 236.322 54.9499C237 54.9499 237.763 54.9499 238.97 54.7926C239.445 54.7926 239.926 53.7503 239.926 53.2705C240.166 52.3109 239.8 48.3531 239.8 45.9994C239.8 44.6802 239.637 43.9139 238.139 43.9139H233.678ZM233.678 96.2149C232.477 96.4548 232.717 99.5427 232.717 101.253V104.132C232.717 104.779 232.738 105.332 232.958 106.051C233.471 107.731 235.078 107.251 236.322 107.251C237 107.251 237.763 107.251 238.97 107.094C239.445 107.094 239.926 106.051 239.926 105.571C240.166 104.612 239.8 100.654 239.8 98.3003C239.8 96.9812 239.637 96.2149 238.139 96.2149H233.678ZM259.148 43.9139C257.947 44.1538 258.187 47.2418 258.187 48.9521V51.831C258.187 52.4776 258.207 53.0306 258.427 53.7503C258.94 55.4297 260.548 54.9499 261.791 54.9499C262.47 54.9499 263.233 54.9499 264.439 54.7926C264.915 54.7926 265.395 53.7503 265.395 53.2705C265.636 52.3109 265.27 48.3531 265.27 45.9994C265.27 44.6802 265.107 43.9139 263.609 43.9139H259.148ZM259.629 70.3043C258.427 70.5442 258.668 73.6322 258.668 75.3425V78.2214C258.668 78.868 258.688 79.421 258.908 80.1407C259.421 81.8201 261.028 81.3403 262.272 81.3403C262.95 81.3403 263.713 81.3403 264.92 81.183C265.395 81.183 265.876 80.1407 265.876 79.6609C266.116 78.7012 265.75 74.7435 265.75 72.3898C265.75 71.0706 265.588 70.3043 264.089 70.3043H259.629ZM259.148 96.2149C257.947 96.4548 258.187 99.5427 258.187 101.253V104.132C258.187 104.779 258.207 105.332 258.427 106.051C258.94 107.731 260.548 107.251 261.791 107.251C262.47 107.251 263.233 107.251 264.439 107.094C264.915 107.094 265.395 106.051 265.395 105.571C265.636 104.612 265.27 100.654 265.27 98.3003C265.27 96.9812 265.107 96.2149 263.609 96.2149H259.148Z" stroke="#4D4D4D" stroke-linecap="round"/>
</g>
</svg>
