<svg width="168" height="99" viewBox="0 0 168 99" fill="none" xmlns="http://www.w3.org/2000/svg">
    <path d="M89.7039 90.7646C94.154 88.9209 108.957 83.5216 113.464 81.7203M113.238 81.7203C117.38 76.4224 121.897 70.8461 126.111 65.8928C131.691 59.3331 137.224 53.0047 142.906 46.6485C145.37 43.8923 164.313 23.1403 166.188 19.7669C167.999 17.5058 166.641 12.5315 163.498 9.61721C161.277 7.55712 158.721 5.52214 156.232 4.1655C152.498 2.13054 146.778 1 144.716 1C142.655 1 139.26 3.48718 139.034 6.42657C139.024 6.56097 139.033 6.7053 139.059 6.85847M139.059 6.85847C139.61 10.0553 147.843 17.1053 150.122 18.1841C151.868 19.2823 160.079 22.7063 162.342 20.6713C163.096 19.993 164.152 18.1842 164.152 17.2797C164.604 10.7226 148.991 3.93939 146.954 3.71329C144.918 3.48718 144.716 3.26107 141.523 4.84382C140.562 5.45496 139.779 6.1221 139.059 6.85847ZM139.059 6.85847C137.914 8.0292 136.929 9.37491 135.64 10.9487C134.576 12.2482 103.479 50.618 101.923 52.5525C99.6605 55.3662 97.1714 58.8835 94.6822 61.8228C93.7771 64.5361 90.1565 78.5045 88.7988 81.7203C87.8937 84.4336 87.1142 87.172 86.5359 89.634C86.5359 90.1114 84.4994 93.2518 93.0982 89.4079C94.383 88.8336 90.0869 87.8252 90.1565 87.5991M90.1565 87.5991C91.0617 84.6597 95.889 69.341 96.7188 67.4755C101.018 72.676 108.712 79.6853 111.427 77.1981C114.427 75.1632 158.268 24.5152 156.217 24.9345C148.538 22.2541 142.31 16.6014 142.068 16.3491C139.713 13.8881 139.6 13.6506 139.136 14.1142C138.261 15.0012 100.339 61.3706 99.6097 62.2317C99.2079 62.7273 98.6309 63.5074 98.0765 64.0839C97.5694 64.8946 99.0693 66.5709 100.914 68.2073M90.1565 87.5991L87.8937 86.6946M100.914 68.2073C103.186 70.2223 105.98 72.1767 106.195 72.3793C106.484 72.6514 106.675 72.9021 107.128 72.676C107.354 72.5629 107.521 72.2953 107.687 72.1223C108.797 71.2351 142.202 33.3333 143.334 32.2028C144.465 31.0723 148.538 26.0979 147.859 26.0979C146.954 25.8718 145.287 24.9345 144.465 24.289C141.297 21.8019 141.401 20.4452 140.618 21.5758C140.182 22.2059 110.362 56.833 100.914 68.2073ZM100.914 68.2073C99.1602 70.3187 98.1082 71.6289 98.0765 71.7716C101.923 79.6853 113.296 81.7937 113.464 81.9464M151.293 9.65206C151.204 9.62488 151.113 9.59812 151.021 9.57285M151.021 9.57285C150.125 9.32706 149.123 9.22324 148.803 10.2688C148.459 11.3929 148.959 12.3459 149.575 13.3041C150.318 14.4607 151.637 14.8543 152.917 15.1359C153.982 15.3705 155.96 15.0231 155.829 13.5761C155.717 12.3396 154.164 11.3408 153.275 10.7131C152.538 10.1927 151.841 9.84699 151.021 9.57285ZM151.021 9.57285C150.93 9.54251 150.838 9.51306 150.744 9.48433M86.7622 91.4429C63.6811 96.7179 58.7739 83.7394 55.5269 79.8238C53.8029 77.7448 52.0907 80.0949 51.3587 81.7633C49.5044 85.9895 48.7839 90.5354 47.0062 94.7798C45.7893 97.6855 44.1806 99.6294 41.6175 96.0994C40.6429 94.7572 36.8139 86.1126 34.7549 86.422C32.4513 86.7682 31.6699 92.7234 31.1163 94.3399C30.3528 96.5697 25.9869 90.3564 25.4512 89.5812C23.8587 87.2767 19.4212 92.4674 18.6808 93.6201C17.3099 95.7543 16.2523 93.3212 14.6277 92.7404C9.17981 90.7927 6.76649 91.8206 1 91.8206" stroke="black" stroke-linecap="round"/>
</svg>
