<svg width="400" height="141" viewBox="0 0 400 141" fill="none" xmlns="http://www.w3.org/2000/svg">
<g opacity="0.5">
<path d="M192.821 0.698054C196.206 -0.623463 199.933 0.234182 203.387 0.80594C204.865 2.888 204.378 5.558 204.415 7.94752C203.874 19.7711 204.447 31.6054 204.512 43.4289C204.774 65.7706 205.401 88.0962 205.845 110.427C206.284 117.736 206.129 125.072 206.611 132.375C213.706 132.235 220.791 132.763 227.887 132.758C238.961 132.979 250.025 133.416 261.099 133.54C269.448 133.918 277.807 133.95 286.161 133.902C287.131 134.085 288.094 134.322 289.069 134.538L289.647 134.673C286.429 135.347 283.12 135.099 279.853 135.148C257.527 134.948 235.223 134.009 212.903 133.74C210.74 133.643 208.56 133.319 206.418 133.81C206.172 135.924 204.115 137.025 202.193 137.154C201.898 136.971 201.309 136.593 201.015 136.404C200.843 136.119 200.511 135.541 200.345 135.255C200.517 134.635 200.715 134.02 200.892 133.405C202.263 132.769 203.751 132.456 205.251 132.316C205.111 121.776 204.522 111.252 204.442 100.707C203.939 90.4695 204.153 80.2048 203.66 69.9671C203.489 49.8477 202.771 29.7391 203.071 9.61426C203.098 7.05213 203.205 4.47921 202.911 1.92248C199.558 1.34533 196.077 0.789755 192.763 1.89012C192.714 3.40043 192.752 4.91612 192.795 6.43182C194.701 7.13843 196.672 8.21722 197.545 10.1752C198.134 12.171 197.903 14.4526 196.538 16.0816C198.284 17.867 199.66 20.4507 198.916 23.002C198.675 24.124 197.77 24.8899 197.036 25.6936C197.748 27.5276 197.861 29.5071 197.523 31.4382C197.261 32.5331 197.989 33.4717 198.353 34.448C199.323 36.9508 198.958 40.0092 197.036 41.9618C199.73 45.1118 200.078 50.1552 197.025 53.2027C197.384 53.7421 197.743 54.2977 198.107 54.8425C198.428 57.2266 198.112 59.7726 196.345 61.5418C196.715 62.1783 197.106 62.8094 197.507 63.4404C198.118 65.2744 198.005 67.1785 197.561 69.034C196.816 70.1236 195.895 71.0783 194.787 71.7957C194.225 72.033 193.662 72.2757 193.105 72.5293C195.033 74.045 197.057 75.7656 197.818 78.2037C198.364 80.248 200.372 81.7098 200.26 83.9698C200.383 85.8092 198.969 87.0821 197.63 88.0638C198.466 90.038 197.93 92.1416 197.325 94.0997L196.479 93.8138C196.329 93.7544 196.035 93.6466 195.885 93.5872C196.875 92.0176 197.132 90.2106 196.575 88.436C193.518 89.2667 190.31 89.3368 187.252 88.5169C186.786 87.7833 186.508 86.9635 186.331 86.122C187.632 84.5631 189.298 83.0097 191.451 83.0043C193.807 82.8479 195.729 84.5847 196.881 86.4834C197.266 86.4726 197.652 86.4564 198.043 86.4456C199.473 84.6549 199.017 81.6936 197.25 80.399C193.394 80.8899 189.319 81.4508 185.624 79.8327C185.378 79.5252 184.891 78.9103 184.65 78.6028C184.971 77.7776 185.212 76.8013 186.058 76.3536C188.345 74.9511 191.188 75.7386 193.56 76.5208C194.519 77.0278 195.488 77.5294 196.474 77.9933C195.376 75.9814 193.593 74.5304 192.002 72.9446C189.105 73.0039 185.49 73.3653 183.627 70.6036C183.825 70.2584 184.21 69.5572 184.409 69.2066C187.14 68.0253 189.683 69.9348 191.922 71.294C194.267 71.2833 196.72 69.2875 196.688 66.7739C196.902 65.296 196.308 63.9205 195.66 62.6422C195.156 62.6961 194.653 62.7554 194.15 62.8201C191.274 64.0877 188.045 64.0661 184.992 63.6292C185.405 63.2732 185.822 62.9226 186.245 62.5828C188.725 62.8687 191.231 62.572 193.614 61.8546C190.454 61.0186 187.054 60.1394 183.836 61.1804C184.264 61.8007 184.832 62.2376 185.538 62.5019C185.094 62.8201 184.65 63.1384 184.21 63.4566C183.525 62.8957 182.963 62.2214 182.513 61.4663C182.716 61.1265 183.123 60.4414 183.327 60.0962C187.075 58.8178 191.263 59.6647 194.846 61.1265C197.234 59.5352 197.427 56.3528 196.415 53.8878C194.069 54.4865 191.804 55.5976 189.314 55.3711C187.172 55.4898 185.164 54.5404 183.68 53.0301C183.675 52.2966 183.675 51.5576 183.675 50.8294C184.537 50.0958 185.469 49.2705 186.663 49.2328C190.112 48.9199 193.539 50.1552 196.361 52.097C198.744 49.4971 198.123 45.6512 196.308 42.9273C193.004 44.3998 189.148 46.1852 185.565 44.594C184.055 43.9036 183.991 42.2099 184.248 40.7751C187.836 38.2723 192.773 38.72 196.292 41.1365C196.709 40.3544 197.132 39.5776 197.55 38.7955C197.823 36.7404 197.416 34.7069 196.345 32.9431C193.105 35.5969 188.361 35.516 184.628 34.0273C184.65 33.2451 184.682 32.4684 184.725 31.6917C188.146 29.1835 192.784 29.1889 196.479 31.0768C196.618 29.4856 196.468 27.8889 196.008 26.3625C192.8 27.3765 189.271 28.04 186.015 26.8911C185.201 26.6214 184.773 25.8446 184.243 25.2405C186.256 22.8186 189.555 21.7884 192.618 22.166C194.23 22.3062 195.408 23.5252 196.463 24.6418C198.776 22.6784 197.764 19.1885 196.061 17.1712C192.757 18.784 188.703 19.7764 185.33 17.7753C185.378 16.7612 184.933 15.402 185.978 14.7601C188.773 12.9855 192.382 13.6759 195.188 15.0675C195.36 15.1107 195.697 15.197 195.863 15.2455C196.442 13.6651 197.063 11.815 196.152 10.2292C195.429 8.80517 193.834 8.27656 192.527 7.56456C191.001 10.7793 186.486 11.8096 183.616 9.83001C183.632 9.11801 183.605 8.40601 183.712 7.70479C185.667 5.48788 188.993 5.47709 191.659 6.04346C191.493 4.26885 190.669 1.58806 192.821 0.698054ZM184.623 9.17195C185.303 9.34456 185.983 9.51716 186.668 9.69516C188.543 9.50637 190.363 8.81056 191.558 7.27868C189.266 7.04134 185.528 6.30237 184.623 9.17195ZM187.188 15.2833C186.931 15.6501 186.422 16.3783 186.165 16.745C188.773 18.0666 192.414 17.9803 194.717 16.0654C192.356 14.965 189.726 14.8895 187.188 15.2833ZM185.544 25.2998C188.495 26.7185 191.965 26.2276 195.022 25.4347C195.001 25.2135 194.958 24.7766 194.937 24.5555C192.12 22.2738 188.264 23.5037 185.544 25.2998ZM187.252 31.6809C186.701 32.0315 185.04 32.4253 185.988 33.3207C189.025 33.86 192.998 34.4534 195.36 31.956C192.832 30.7693 189.828 30.4888 187.252 31.6809ZM185.287 41.3253C185.185 42.3825 185.41 43.3912 186.524 43.7472C189.56 44.3836 192.634 43.3588 195.312 41.9564C192.323 40.0199 188.516 40.0415 185.287 41.3253ZM186.604 50.441C185.603 50.5489 185.019 51.4227 184.548 52.2264C187.44 55.0259 192.002 54.4434 195.317 52.7658C192.698 51.2286 189.673 50.1929 186.604 50.441ZM184.842 70.226C186.176 71.6662 188.259 71.7957 190.09 71.8011C188.725 70.3986 186.743 69.87 184.842 70.226ZM186.369 77.373C186.294 77.8423 186.224 78.317 186.149 78.7916C189.346 79.8866 192.789 79.7194 196.088 79.2717C193.261 77.4377 189.683 76.0677 186.369 77.373ZM187.9 85.9548C187.9 86.4349 187.9 86.9203 187.9 87.4111C190.546 88.0908 193.271 87.9505 195.911 87.3302C195.049 85.6851 193.512 84.013 191.493 84.2395C190.09 84.2233 189.003 85.2374 187.9 85.9548ZM201.872 134.015C201.85 134.538 201.845 135.061 201.866 135.584C203.419 136.167 204.694 135.018 205.476 133.81C204.271 133.799 203.071 133.896 201.872 134.015Z" fill="#4D4D4D"/>
<path d="M208.298 3.2494C208.544 2.26231 209.214 1.47479 209.861 0.730425C230.811 2.3594 251.862 1.98721 272.848 1.32375C277.513 1.33454 282.193 0.97854 286.847 1.43163C289.042 1.58806 290.895 3.23321 291.431 5.36921C292.432 9.19892 292.293 13.2066 292.363 17.1334C292.545 43.5638 292.277 69.9887 292.555 96.419C292.791 105.222 293.182 114.02 293.792 122.801C293.932 126.318 293.958 130.072 292.239 133.254C301.295 137.677 311.598 137.203 321.382 137.952C318.067 138.546 314.688 138.255 311.352 138.611C306.473 138.303 301.547 137.845 296.839 136.442C294.226 135.752 291.902 133.675 289.069 134.538C288.094 134.322 287.131 134.085 286.161 133.902C287.013 133.837 287.859 133.794 288.716 133.761L288.775 132.947C280.876 130.385 272.49 131.124 264.323 131.167C251.487 131.598 238.635 132.062 225.798 131.496C221.514 131.097 217.064 131.464 212.957 130.007C209.985 128.616 209.497 124.985 209.042 122.089C207.784 111.069 207.489 99.9683 207.007 88.8945C206.681 82.4217 206.691 75.9328 206.541 69.4547C206.215 64.7889 206.365 60.1124 206.279 55.4412C206.22 41.7676 206.268 28.0939 206.916 14.4418C207.318 10.7038 207.248 6.88492 208.298 3.2494ZM209.995 2.20836C208.159 7.11685 208.485 12.4677 207.998 17.6081C207.698 25.7152 207.65 33.8331 207.591 41.9456C207.377 44.9932 207.473 48.0461 207.607 51.0937C207.58 70.0642 208.078 89.0347 209.117 107.973C209.615 113.842 209.578 119.818 211.018 125.563C211.361 127.494 212.93 128.999 214.847 129.295C220.898 130.358 227.073 130.093 233.183 130.455C239.631 130.638 246.078 130.455 252.52 130.25C262.829 130.191 273.186 128.993 283.457 130.374C286.145 130.741 288.662 131.776 291.238 132.564C293.155 128.702 292.432 124.263 292.4 120.115C291.865 112.223 291.415 104.321 291.345 96.4083C291.131 78.9642 291.227 61.5202 291.206 44.0762C291.104 32.7435 291.458 21.4 290.874 10.0781C290.804 7.75334 290.44 5.35304 289.074 3.41661C285.449 2.00879 281.492 2.56976 277.706 2.45649C269.416 2.79631 261.11 2.87182 252.815 3.00127C243.733 3.58921 234.645 2.95272 225.563 2.83945C220.363 2.81788 215.195 2.19757 209.995 2.20836Z" fill="#4D4D4D"/>
<path d="M74.9712 70.2854C76.8509 69.7298 77.7719 71.5314 78.3021 73.0039C80.4923 74.0342 83.775 73.8669 84.7497 76.5262C85.5529 77.8477 86.79 78.8132 87.7914 79.9729C99.2032 92.9507 110.358 106.155 121.732 119.171C123.805 121.614 125.893 124.041 127.96 126.485C128.683 127.499 129.663 128.502 129.722 129.818C128.715 132.019 126.895 133.923 126.889 136.496C128.239 136.701 129.604 136.771 130.97 136.836C132.196 137.958 133.513 138.988 134.997 139.754C135.34 138.788 136.234 137.92 136.1 136.841C135.152 135.444 133.883 134.285 132.539 133.287C131.564 133.896 131.2 135.131 130.531 136.032C130.033 136.048 129.047 136.075 128.549 136.092C127.607 133.659 129.909 131.749 132.132 131.571C130.616 126.577 125.497 123.869 123.542 119.111C122.958 117.752 123.028 116.231 123.671 114.915C124.244 114.953 124.817 114.99 125.395 115.034C130.065 119.91 133.203 126.005 136.593 131.793C137.374 132.914 138.831 133.087 140.041 133.454C144.775 134.49 149.638 135.277 154.495 134.926C157.312 134.705 160.161 133.713 162.169 131.647C165.751 128.195 166.249 122.763 169.511 119.095C171.192 117.207 174.057 117.79 175.921 119.074C179.969 121.754 182.7 125.908 185.565 129.748C187.616 127.245 190.942 126.113 194.096 126.318C195.676 124.726 196.757 122.488 195.836 120.255C194.374 121.296 192.945 122.466 191.22 123.033C188.869 123.48 186.122 123.669 184.264 121.862C184.189 120.557 184.06 119.052 185.308 118.232C188.302 115.977 192.34 117.294 195.499 118.502C195.831 118 196.158 117.499 196.495 117.002C196.998 115.762 197.759 114.041 196.543 112.973C195.413 111.592 193.582 112.455 192.27 113C189.282 114.095 186.015 115.805 182.823 114.473C182.218 113.286 181.972 111.776 183.161 110.864C186.765 108.955 191.001 109.828 194.792 110.6C195.67 110.33 196.388 109.731 197.148 109.23C197.748 107.536 197.807 105.589 196.575 104.154C192.763 106.937 187.391 106.851 183.359 104.575C182.989 103.469 182.331 102.137 183.343 101.171C185.747 98.7384 189.63 99.2778 192.634 100.071C194.15 100.508 196.5 101.236 196.061 103.28C196.918 103.178 197.4 101.7 197.234 100.853C197.384 98.8895 196.581 97.0879 195.686 95.405C191.89 96.7858 187.45 97.541 183.696 95.6315C183.552 95.1515 183.407 94.6714 183.257 94.1967C184.81 91.5699 188.205 90.9927 190.958 91.6346C192.736 91.9043 194.246 92.9292 195.885 93.5872C196.035 93.6466 196.329 93.7544 196.479 93.8138C196.768 94.9627 197.288 96.0361 197.914 97.0393C198.568 99.143 198.75 101.398 197.679 103.404C198.792 105.044 198.862 107.024 198.696 108.944C197.995 109.818 197.207 110.627 196.442 111.447C197.17 112.035 198.219 112.531 198.284 113.61C198.787 115.805 197.459 117.709 196.436 119.505C197.882 121.032 197.657 123.162 196.747 124.904C196.276 125.487 195.81 126.07 195.344 126.652C196.907 127.542 197.78 129.144 197.63 130.967C196.923 132.305 195.965 133.475 194.76 134.382C192.318 135.401 189.491 135.104 187.45 133.368C182.995 129.538 180.58 123.745 175.68 120.374C174.389 119.37 172.659 118.901 171.074 119.403C169.907 120.093 169.307 121.393 168.67 122.537C167.069 125.87 165.864 129.506 163.331 132.283C160.916 134.819 157.419 136.081 153.97 136.199C148.759 136.474 143.544 135.66 138.515 134.328C137.01 133.95 135.623 133.028 134.986 131.566C133.685 128.896 132.084 126.393 130.493 123.89C128.64 121.048 126.803 118.146 124.383 115.756C123.885 119.354 126.782 121.922 128.854 124.403C130.804 126.695 133.364 129.063 133.353 132.316C135.045 133.761 136.85 135.234 137.701 137.365C137.53 137.667 137.187 138.271 137.016 138.573C136.55 139.382 136.079 140.191 135.602 141C135.104 140.962 134.601 140.924 134.103 140.898C132.903 139.981 131.698 139.074 130.52 138.136C128.994 137.947 127.066 138.211 125.947 136.922C125.684 136.005 125.861 135.034 125.904 134.101C126.595 132.424 128.019 131.016 128.426 129.29C125.641 125.109 121.984 121.598 118.792 117.741C108.109 105.346 97.4627 92.9076 86.6882 80.5932C85.8046 79.5737 84.8621 78.6136 83.9196 77.6535C82.704 78.2145 81.4831 79.8434 80.0532 79.1638C78.9983 77.1896 81.8847 76.4884 83.186 75.8411C81.6651 75.4042 80.1443 74.9673 78.6288 74.5196C79.0411 76.7149 79.3142 78.948 79.9675 81.0894C80.6958 83.2902 82.5434 84.8005 84 86.5104C92.2147 96.0846 100.033 105.988 107.943 115.821C109.774 117.989 111.306 120.552 113.898 121.905C114.872 120.136 116.356 117.461 118.776 118.664H118.792C118.926 119.052 119.183 119.823 119.312 120.206C118.487 121.965 116.779 122.882 114.953 123.243C116.538 127.601 121.518 129.7 122.884 134.177C123.05 136.113 120.677 136.599 119.247 136.933C111.632 138.271 103.862 138.26 96.1614 138.389C89.0231 138.788 81.8633 138.61 74.7195 138.735C61.9797 138.767 49.2398 138.826 36.5 138.772C36.5536 138.503 36.6607 137.969 36.7142 137.699C38.1333 137.445 39.5846 137.564 41.0144 137.548C53.872 137.575 66.735 137.526 79.5927 137.489C89.0231 137.089 98.4802 137.424 107.905 136.766C112.553 136.491 117.395 136.593 121.78 134.808C120.484 130.93 116.779 128.637 114.492 125.422C114.058 124.743 114.026 123.907 113.882 123.141C112.618 122.596 111.295 122.035 110.449 120.891C104.869 114.084 99.4816 107.121 93.8748 100.33C91.3151 97.1688 88.75 94.008 86.1152 90.9118C83.7965 88.0369 81.0868 85.4855 79.025 82.411C78.1414 79.6169 77.8898 76.6772 77.0651 73.8723C76.3528 73.3815 75.6727 72.8529 75.0194 72.2865C75.0087 71.7849 74.9819 70.787 74.9712 70.2854ZM184.505 94.8602C187.841 95.8473 191.472 95.734 194.685 94.3478C193.009 93.5009 191.236 92.708 189.319 92.7565C187.547 92.6702 185.212 92.9076 184.505 94.8602ZM184.232 101.657C184.205 102.282 184.189 102.913 184.173 103.544C187.616 105.573 192.066 105.324 195.553 103.517C195.387 103.205 195.065 102.579 194.899 102.266C191.574 100.815 187.627 99.9089 184.232 101.657ZM183.691 111.851C183.659 112.396 183.632 112.941 183.605 113.491C186.802 114.257 189.839 112.525 192.757 111.463C189.769 110.999 186.561 110.654 183.691 111.851ZM185.308 120.088C185.094 121.992 187.407 122.197 188.784 122.11C191.033 122.191 192.934 120.848 194.637 119.543C191.767 118.453 187.472 117.04 185.308 120.088ZM115.413 121.42C115.75 121.458 116.425 121.533 116.768 121.571C117.266 120.951 117.759 120.33 118.235 119.694C116.88 119.435 116.115 120.454 115.413 121.42ZM186.203 130.951C188.923 130.886 191.017 129.009 193.1 127.477C190.454 127.607 187.782 128.75 186.203 130.951ZM194.219 127.839C192.361 129.764 190.139 131.399 187.531 132.089C187.718 132.154 188.093 132.294 188.28 132.364C190.16 134.161 193.218 134.274 195.124 132.451C196.334 131.55 196.281 129.932 196.077 128.594C195.456 128.33 194.84 128.082 194.219 127.839ZM129.642 133.702C129.551 133.918 129.363 134.36 129.272 134.581C130.022 136.334 131.43 132.78 129.642 133.702Z" fill="#4D4D4D"/>
<path d="M115.413 121.42C116.115 120.454 116.88 119.435 118.235 119.694C117.759 120.33 117.266 120.951 116.768 121.571C116.425 121.533 115.75 121.458 115.413 121.42Z" fill="#4D4D4D"/>
<path d="M129.272 134.581C130.022 136.334 131.43 132.78 129.642 133.702C129.551 133.918 129.363 134.36 129.272 134.581Z" fill="#4D4D4D"/>
<path d="M321.382 137.952C335.418 138.422 349.464 138.713 363.5 139.188C363.484 139.479 363.457 140.056 363.446 140.347C346.074 139.916 328.697 139.619 311.352 138.611C314.688 138.255 318.067 138.546 321.382 137.952Z" fill="#4D4D4D"/>
<path fill-rule="evenodd" clip-rule="evenodd" d="M240.76 50.5135L240.583 50.5059C234.412 50.2396 228.211 50.3496 222.015 50.5148L222.004 50.5151C221.591 50.5172 221.17 50.5257 220.745 50.5345C219.788 50.5542 218.807 50.5743 217.843 50.5209C217.45 50.5049 217.076 50.404 216.765 50.2347C216.46 50.0681 216.182 49.8154 216.046 49.4773C215.753 48.774 215.739 48.032 215.727 47.4069C215.725 47.2968 215.723 47.1903 215.719 47.0883L215.719 47.0798C215.68 44.8107 215.668 42.5591 215.656 40.3112C215.642 37.5902 215.628 34.8744 215.565 32.1388C215.485 30.4905 215.36 28.8457 215.171 27.206L215.169 27.1944L215.169 27.1828C215.135 26.6959 215.106 26.0808 215.351 25.4826C213.449 25.0105 211.386 24.9563 209.283 24.901C208.684 24.8853 208.082 24.8695 207.48 24.8439L207.441 23.848C207.956 23.7857 208.471 23.768 208.967 23.7561C209.046 23.7542 209.124 23.7525 209.201 23.7508C209.62 23.7414 210.023 23.7325 210.425 23.7025L210.452 23.7004L210.479 23.7014C211.921 23.75 213.407 23.8276 214.836 24.0895C215.11 24.1344 215.406 24.2171 215.662 24.2889C215.784 24.3231 215.897 24.3547 215.995 24.3786C216.337 24.4625 216.635 24.4994 216.949 24.4362L217.032 24.4196L217.115 24.4308C217.207 24.4433 217.297 24.4559 217.386 24.4682C217.582 24.4956 217.771 24.522 217.964 24.5441L217.955 24.8597C219.607 25.1011 221.323 25.0685 223.072 25.0352C223.496 25.0271 223.923 25.019 224.351 25.0148C224.465 25.0116 224.578 25.0084 224.692 25.0052C228.366 24.9024 232.058 24.799 235.749 24.8791L235.756 24.8792L235.764 24.8797C236.136 24.8993 236.495 24.906 236.864 24.9129C237.125 24.9177 237.392 24.9227 237.671 24.9325C238.32 24.9551 238.988 25.0037 239.639 25.1467L239.656 25.1504L239.672 25.1551C240.236 25.3198 240.594 25.6362 240.821 26.0106C241.016 26.3336 241.106 26.6905 241.169 26.942C241.173 26.9614 241.178 26.9801 241.183 26.9981L241.187 27.0137L241.19 27.0295C241.517 28.7969 241.643 30.5789 241.765 32.3266C241.789 32.6646 241.813 33.0012 241.838 33.3363C241.91 34.1754 241.935 35.0265 241.961 35.8611C241.972 36.2457 241.984 36.6269 242 37.0017C242.069 37.6102 242.075 38.2415 242.081 38.8404C242.083 39.1246 242.086 39.4016 242.095 39.6653L242.095 39.6763C242.13 42.257 242.132 44.8523 241.956 47.449L241.955 47.4721L241.951 47.495C241.918 47.6991 241.9 47.8772 241.881 48.0695C241.866 48.2138 241.851 48.3661 241.828 48.5432C241.779 48.9145 241.702 49.3171 241.524 49.7212C241.45 49.9054 241.329 50.0452 241.224 50.1453C241.116 50.2486 240.995 50.339 240.903 50.4076L240.76 50.5135ZM216.655 25.8607C216.572 26.0473 216.537 26.2489 216.53 26.4759C216.524 26.6474 216.533 26.826 216.547 27.0239C216.549 27.0564 216.552 27.0897 216.554 27.1237C216.565 27.2807 216.577 27.4512 216.581 27.6191C216.748 29.1024 216.892 30.6019 216.922 32.1093C216.984 34.4987 216.997 36.8907 217.01 39.2768C217.015 40.1792 217.02 41.0809 217.027 41.9812C217.042 42.7011 217.042 43.4104 217.042 44.1135C217.042 45.5393 217.042 46.9402 217.165 48.3552L217.166 48.3636L217.166 48.372C217.184 48.7009 217.255 48.972 217.456 49.1949C217.9 49.2878 218.373 49.3176 218.874 49.3227C219.145 49.3255 219.418 49.321 219.698 49.3165L219.712 49.3163C219.99 49.3117 220.276 49.3072 220.56 49.3106C222.593 49.2443 224.63 49.2123 226.661 49.1803C227.074 49.1738 227.487 49.1673 227.9 49.1605C229.792 49.0704 231.694 49.0941 233.578 49.1176C234.377 49.1276 235.173 49.1375 235.964 49.1387C236.72 49.1358 237.473 49.16 238.216 49.1838C238.237 49.1845 238.258 49.1852 238.28 49.1858C238.944 49.2071 239.6 49.2275 240.255 49.2288C240.39 48.9187 240.459 48.5892 240.501 48.2302C240.527 48.0209 240.542 47.8101 240.558 47.5861C240.56 47.5631 240.562 47.5399 240.563 47.5165C240.581 47.2783 240.601 47.0262 240.636 46.7727C240.71 45.3253 240.716 43.875 240.724 42.4121C240.724 42.3507 240.724 42.2892 240.724 42.2278L240.725 42.2032L240.727 42.1787C240.782 41.652 240.753 41.1154 240.71 40.5428L240.709 40.5251L240.708 40.5074C240.693 36.9484 240.524 33.3906 240.196 29.8401C240.157 29.557 240.128 29.2745 240.1 29.0007L240.095 28.9474C240.068 28.686 240.043 28.433 240.01 28.1813C239.94 27.6452 239.84 27.14 239.646 26.6553L239.636 26.6313L239.629 26.6065C239.622 26.5827 239.586 26.5113 239.455 26.4313C239.329 26.354 239.146 26.291 238.929 26.2709L238.922 26.2703C237.73 26.1445 236.54 26.1323 235.323 26.1199C234.738 26.114 234.147 26.108 233.547 26.0893C231.655 26.0673 229.762 26.1139 227.861 26.1649L227.852 26.1651C226.944 26.1743 226.023 26.2034 225.097 26.2327C222.968 26.3001 220.805 26.3686 218.671 26.1993C218.057 26.1498 217.458 26.0261 216.896 25.9101C216.815 25.8934 216.734 25.8768 216.655 25.8607Z" fill="#4D4D4D"/>
<path fill-rule="evenodd" clip-rule="evenodd" d="M273.76 75.5135L273.583 75.5059C267.412 75.2396 261.211 75.3496 255.015 75.5148L255.004 75.5151C254.591 75.5172 254.17 75.5257 253.745 75.5345C252.788 75.5542 251.807 75.5743 250.843 75.5209C250.45 75.5049 250.076 75.404 249.765 75.2347C249.46 75.0681 249.182 74.8154 249.046 74.4773C248.753 73.774 248.739 73.032 248.727 72.4069C248.725 72.2968 248.723 72.1903 248.719 72.0883L248.719 72.0798C248.68 69.8107 248.668 67.5592 248.656 65.3112C248.642 62.5902 248.628 59.8744 248.565 57.1388C248.485 55.4905 248.36 53.8457 248.171 52.206L248.169 52.1944L248.169 52.1828C248.135 51.6959 248.106 51.0808 248.351 50.4826C246.449 50.0105 244.386 49.9563 242.283 49.901C241.684 49.8853 241.082 49.8695 240.48 49.8439L240.441 48.848C240.956 48.7857 241.471 48.768 241.967 48.7561C242.046 48.7542 242.124 48.7525 242.201 48.7508C242.62 48.7414 243.023 48.7325 243.425 48.7025L243.452 48.7004L243.479 48.7014C244.921 48.75 246.407 48.8276 247.836 49.0895C248.11 49.1344 248.406 49.2171 248.662 49.2889C248.784 49.3231 248.897 49.3547 248.995 49.3786C249.337 49.4625 249.635 49.4994 249.949 49.4362L250.032 49.4196L250.115 49.4308C250.207 49.4433 250.297 49.4559 250.386 49.4682C250.582 49.4956 250.771 49.522 250.964 49.5441L250.955 49.8597C252.607 50.1011 254.323 50.0685 256.072 50.0352C256.496 50.0271 256.923 50.019 257.351 50.0148C257.465 50.0116 257.578 50.0084 257.692 50.0052C261.366 49.9024 265.058 49.799 268.749 49.8791L268.756 49.8792L268.764 49.8797C269.136 49.8993 269.495 49.906 269.864 49.9129C270.125 49.9177 270.392 49.9227 270.671 49.9325C271.32 49.9551 271.988 50.0037 272.639 50.1467L272.656 50.1504L272.672 50.1551C273.236 50.3198 273.594 50.6362 273.821 51.0106C274.016 51.3336 274.106 51.6905 274.169 51.942C274.173 51.9614 274.178 51.9801 274.183 51.9981L274.187 52.0137L274.19 52.0295C274.517 53.7969 274.643 55.5789 274.765 57.3266C274.789 57.6646 274.813 58.0012 274.838 58.3363C274.91 59.1754 274.935 60.0265 274.961 60.8611C274.972 61.2457 274.984 61.6269 275 62.0017C275.069 62.6102 275.075 63.2415 275.081 63.8404C275.083 64.1246 275.086 64.4016 275.095 64.6653L275.095 64.6763C275.13 67.257 275.132 69.8523 274.956 72.449L274.955 72.4721L274.951 72.495C274.918 72.6991 274.9 72.8772 274.881 73.0695C274.866 73.2138 274.851 73.3661 274.828 73.5432C274.779 73.9145 274.702 74.3171 274.524 74.7212C274.45 74.9053 274.329 75.0452 274.224 75.1453C274.116 75.2486 273.995 75.339 273.903 75.4076L273.76 75.5135ZM249.655 50.8607C249.572 51.0473 249.537 51.2489 249.53 51.4759C249.524 51.6474 249.533 51.826 249.547 52.0239C249.549 52.0564 249.552 52.0897 249.554 52.1237C249.565 52.2807 249.577 52.4512 249.581 52.6191C249.748 54.1024 249.892 55.6019 249.922 57.1093C249.984 59.4987 249.997 61.8907 250.01 64.2768C250.015 65.1792 250.02 66.0808 250.027 66.9812C250.042 67.7011 250.042 68.4104 250.042 69.1135C250.042 70.5393 250.042 71.9402 250.165 73.3552L250.166 73.3636L250.166 73.372C250.184 73.7009 250.255 73.9719 250.456 74.1949C250.9 74.2878 251.373 74.3176 251.874 74.3227C252.145 74.3255 252.418 74.321 252.698 74.3165L252.712 74.3163C252.99 74.3117 253.276 74.3072 253.56 74.3106C255.593 74.2443 257.63 74.2123 259.661 74.1803C260.074 74.1738 260.487 74.1673 260.9 74.1605C262.792 74.0704 264.694 74.0941 266.578 74.1176C267.377 74.1276 268.173 74.1375 268.964 74.1387C269.72 74.1358 270.473 74.16 271.216 74.1838C271.237 74.1845 271.258 74.1852 271.28 74.1859C271.944 74.2071 272.6 74.2275 273.255 74.2288C273.39 73.9187 273.459 73.5892 273.501 73.2302C273.527 73.0209 273.542 72.8101 273.558 72.5861C273.56 72.5631 273.562 72.5398 273.563 72.5165C273.581 72.2783 273.601 72.0261 273.636 71.7727C273.71 70.3253 273.716 68.875 273.724 67.4121C273.724 67.3507 273.724 67.2892 273.724 67.2278L273.725 67.2032L273.727 67.1787C273.782 66.652 273.753 66.1154 273.71 65.5428L273.709 65.5251L273.708 65.5074C273.693 61.9484 273.524 58.3906 273.196 54.8401C273.157 54.557 273.128 54.2745 273.1 54.0007L273.095 53.9474C273.068 53.686 273.043 53.433 273.01 53.1813C272.94 52.6452 272.84 52.14 272.646 51.6553L272.636 51.6313L272.629 51.6065C272.622 51.5827 272.586 51.5113 272.455 51.4313C272.329 51.354 272.146 51.291 271.929 51.2709L271.922 51.2703C270.73 51.1445 269.54 51.1323 268.323 51.1199C267.738 51.114 267.147 51.108 266.547 51.0893C264.655 51.0673 262.762 51.1139 260.861 51.1649L260.852 51.1651C259.944 51.1743 259.023 51.2034 258.097 51.2327C255.968 51.3001 253.805 51.3686 251.671 51.1993C251.057 51.1498 250.458 51.0261 249.896 50.9101C249.815 50.8934 249.734 50.8768 249.655 50.8607Z" fill="#4D4D4D"/>
<path fill-rule="evenodd" clip-rule="evenodd" d="M256.998 34.0847L257.008 33.9074C257.357 27.7412 257.33 21.5386 257.248 15.3409L257.248 15.3301C257.251 14.9174 257.248 14.4965 257.245 14.0711C257.238 13.1138 257.231 12.1333 257.298 11.1698C257.319 10.7769 257.425 10.4041 257.598 10.0959C257.769 9.79266 258.025 9.51851 258.365 9.38644C259.072 9.10336 259.815 9.09898 260.44 9.09529C260.55 9.09464 260.656 9.09401 260.758 9.09189L260.767 9.09171C263.036 9.08292 265.288 9.10145 267.536 9.11989C270.257 9.1422 272.972 9.16447 275.709 9.13831C277.358 9.08048 279.004 8.97719 280.646 8.80987L280.658 8.80869L280.669 8.80805C281.157 8.78122 281.772 8.76052 282.367 9.01271C282.865 7.11758 282.946 5.0558 283.03 2.95337C283.054 2.35492 283.078 1.75318 283.111 1.15105L284.108 1.1256C284.163 1.64136 284.174 2.15652 284.179 2.65296C284.18 2.73153 284.18 2.8095 284.181 2.88695C284.185 3.30564 284.188 3.70922 284.213 4.1115L284.215 4.13854L284.213 4.16559C284.145 5.60666 284.048 7.09117 283.767 8.51707C283.718 8.79057 283.632 9.08506 283.556 9.34042C283.521 9.46185 283.488 9.57444 283.462 9.67171C283.374 10.0129 283.333 10.3107 283.392 10.6255L283.407 10.7079L283.395 10.7909C283.381 10.8834 283.368 10.9732 283.354 11.0614C283.324 11.2576 283.295 11.446 283.271 11.6389L282.955 11.6254C282.692 13.2743 282.701 14.9898 282.711 16.7395C282.713 17.164 282.716 17.5906 282.714 18.0187C282.716 18.1324 282.718 18.2461 282.719 18.3598C282.773 22.0344 282.827 25.7278 282.697 29.417L282.697 29.4248L282.697 29.4326C282.672 29.804 282.66 30.1629 282.649 30.5315C282.64 30.7931 282.632 31.0597 282.618 31.339C282.587 31.9874 282.529 32.6542 282.378 33.3039L282.374 33.3204L282.369 33.3366C282.197 33.8983 281.875 34.2518 281.498 34.4735C281.172 34.6649 280.814 34.7493 280.562 34.8089C280.543 34.8134 280.524 34.8179 280.506 34.8222L280.49 34.8259L280.474 34.8287C278.703 35.1329 276.919 35.2342 275.17 35.3336C274.832 35.3528 274.495 35.3719 274.159 35.3925C273.319 35.4529 272.468 35.4673 271.633 35.4813C271.248 35.4878 270.867 35.4942 270.492 35.5051C269.883 35.5663 269.251 35.5638 268.652 35.5614C268.368 35.5603 268.091 35.5592 267.827 35.5649L267.816 35.5652C265.236 35.5647 262.64 35.5326 260.046 35.3217L260.023 35.3199L260 35.3159C259.797 35.2801 259.619 35.2598 259.427 35.2379C259.283 35.2215 259.131 35.2041 258.954 35.1787C258.583 35.1253 258.182 35.0428 257.78 34.8596C257.597 34.7832 257.459 34.6594 257.36 34.5535C257.258 34.4444 257.17 34.3218 257.102 34.2286L256.998 34.0847ZM281.972 10.312C281.786 10.2262 281.585 10.1892 281.358 10.1784C281.187 10.1702 281.008 10.1773 280.81 10.1883C280.777 10.1901 280.744 10.1921 280.71 10.1941C280.553 10.2032 280.382 10.2131 280.214 10.2148C278.729 10.362 277.228 10.4852 275.72 10.4956C273.33 10.525 270.938 10.5061 268.552 10.4873C267.65 10.4802 266.748 10.473 265.848 10.4685C265.127 10.4736 264.418 10.4641 263.715 10.4546C262.29 10.4353 260.889 10.4164 259.472 10.5209L259.464 10.5215L259.455 10.5218C259.126 10.535 258.854 10.602 258.629 10.8001C258.53 11.2432 258.494 11.7154 258.482 12.2165C258.476 12.4872 258.476 12.7603 258.477 13.0405L258.477 13.0541C258.478 13.333 258.479 13.6188 258.471 13.9029C258.511 15.9368 258.515 17.974 258.52 20.005C258.521 20.4182 258.522 20.8311 258.523 21.2437C258.588 23.1367 258.539 25.0385 258.49 26.9222C258.469 27.7212 258.449 28.5169 258.437 29.3074C258.43 30.0638 258.396 30.8165 258.362 31.5587C258.361 31.5799 258.36 31.6012 258.359 31.6224C258.329 32.2862 258.3 32.9419 258.289 33.5971C258.598 33.7358 258.926 33.809 259.285 33.8567C259.494 33.8846 259.704 33.9028 259.928 33.9222C259.951 33.9242 259.974 33.9262 259.997 33.9282C260.235 33.949 260.487 33.9721 260.74 34.0105C262.187 34.1036 263.637 34.1301 265.099 34.1567C265.161 34.1578 265.222 34.1589 265.284 34.16L265.308 34.1605L265.333 34.1634C265.859 34.2249 266.395 34.2036 266.969 34.1681L266.986 34.167L267.004 34.1672C270.563 34.1996 274.123 34.0781 277.677 33.7978C277.961 33.7623 278.244 33.737 278.518 33.713L278.571 33.7084C278.833 33.6855 279.086 33.6633 279.338 33.6339C279.875 33.5711 280.382 33.4776 280.869 33.2902L280.893 33.2809L280.918 33.2742C280.942 33.2677 281.014 33.2327 281.096 33.1028C281.175 32.9773 281.24 32.7957 281.263 32.5783L281.264 32.5717C281.406 31.3817 281.434 30.1914 281.462 28.9745C281.476 28.39 281.49 27.7994 281.517 27.1997C281.564 25.3083 281.543 23.4144 281.517 21.5127L281.517 21.5043C281.52 20.5956 281.503 19.675 281.487 18.748C281.448 16.6186 281.408 14.4553 281.606 12.3233C281.664 11.7104 281.795 11.1123 281.919 10.5519C281.937 10.4711 281.954 10.3911 281.972 10.312Z" fill="#4D4D4D"/>
<path fill-rule="evenodd" clip-rule="evenodd" d="M260.886 102.508L261.063 102.52C267.225 102.937 273.427 102.978 279.625 102.964L279.636 102.964C280.049 102.972 280.47 102.974 280.895 102.975C281.853 102.979 282.833 102.983 283.796 103.06C284.188 103.085 284.56 103.195 284.866 103.372C285.168 103.546 285.439 103.805 285.567 104.147C285.843 104.857 285.839 105.599 285.836 106.224C285.835 106.334 285.835 106.441 285.836 106.543L285.836 106.552C285.819 108.821 285.776 111.072 285.733 113.32C285.681 116.04 285.629 118.755 285.625 121.492C285.664 123.142 285.75 124.789 285.899 126.433L285.9 126.444L285.9 126.456C285.922 126.944 285.936 127.559 285.677 128.151C287.567 128.67 289.627 128.774 291.729 128.881C292.327 128.911 292.928 128.941 293.53 128.982L293.545 129.978C293.028 130.028 292.513 130.033 292.017 130.033C291.938 130.033 291.86 130.033 291.783 130.033C291.364 130.032 290.96 130.031 290.558 130.051L290.531 130.052L290.504 130.051C289.063 129.967 287.58 129.853 286.157 129.557C285.884 129.505 285.591 129.415 285.336 129.337C285.215 129.3 285.103 129.265 285.006 129.239C284.666 129.147 284.369 129.103 284.053 129.158L283.971 129.173L283.888 129.16C283.795 129.145 283.706 129.13 283.618 129.116C283.422 129.084 283.234 129.053 283.041 129.026L283.058 128.71C281.412 128.429 279.697 128.42 277.947 128.41C277.523 128.408 277.096 128.406 276.668 128.399C276.554 128.4 276.441 128.4 276.327 128.401C272.652 128.414 268.958 128.427 265.27 128.257L265.263 128.257L265.255 128.256C264.884 128.228 264.525 128.212 264.157 128.196C263.895 128.185 263.629 128.174 263.349 128.157C262.701 128.118 262.035 128.054 261.387 127.895L261.371 127.891L261.355 127.886C260.795 127.707 260.445 127.382 260.227 127.002C260.04 126.675 259.959 126.316 259.902 126.063C259.898 126.043 259.894 126.024 259.89 126.006L259.886 125.991L259.884 125.975C259.599 124.2 259.517 122.415 259.437 120.665C259.421 120.327 259.406 119.99 259.389 119.654C259.338 118.813 259.333 117.962 259.328 117.127C259.326 116.742 259.324 116.361 259.317 115.986C259.262 115.376 259.272 114.744 259.281 114.146C259.285 113.861 259.289 113.584 259.286 113.321L259.286 113.31C259.315 110.729 259.376 108.134 259.615 105.543L259.617 105.52L259.621 105.497C259.659 105.294 259.682 105.116 259.706 104.924C259.724 104.78 259.743 104.628 259.77 104.452C259.828 104.082 259.915 103.681 260.102 103.282C260.181 103.099 260.306 102.963 260.413 102.865C260.523 102.764 260.647 102.677 260.741 102.611L260.886 102.508ZM284.382 127.742C284.47 127.557 284.509 127.356 284.523 127.13C284.533 126.958 284.528 126.779 284.519 126.581C284.517 126.549 284.516 126.515 284.514 126.481C284.507 126.324 284.499 126.153 284.499 125.985C284.368 124.498 284.261 122.996 284.267 121.488C284.264 119.098 284.309 116.706 284.355 114.321C284.372 113.418 284.389 112.517 284.403 111.617C284.406 110.897 284.423 110.188 284.44 109.485C284.475 108.059 284.51 106.659 284.421 105.241L284.42 105.233L284.42 105.224C284.41 104.895 284.346 104.622 284.151 104.395C283.709 104.291 283.237 104.25 282.736 104.232C282.466 104.223 282.192 104.221 281.912 104.218L281.899 104.218C281.62 104.216 281.334 104.214 281.05 104.203C279.016 104.22 276.979 104.202 274.948 104.185C274.534 104.181 274.122 104.178 273.709 104.174C271.815 104.218 269.914 104.148 268.031 104.079C267.233 104.049 266.437 104.02 265.647 104C264.89 103.984 264.138 103.941 263.396 103.9C263.375 103.898 263.354 103.897 263.333 103.896C262.669 103.858 262.014 103.822 261.359 103.805C261.217 104.112 261.14 104.439 261.088 104.797C261.058 105.006 261.038 105.216 261.016 105.44C261.014 105.463 261.011 105.486 261.009 105.509C260.986 105.747 260.96 105.998 260.919 106.251C260.81 107.696 260.767 109.146 260.725 110.608C260.723 110.67 260.721 110.731 260.719 110.792L260.718 110.817L260.715 110.841C260.648 111.367 260.663 111.904 260.693 112.477L260.693 112.495L260.693 112.513C260.622 116.071 260.704 119.632 260.945 123.189C260.977 123.473 261 123.756 261.021 124.031L261.025 124.084C261.045 124.346 261.064 124.6 261.091 124.852C261.148 125.39 261.236 125.897 261.418 126.386L261.427 126.411L261.433 126.436C261.439 126.46 261.473 126.532 261.603 126.615C261.727 126.695 261.908 126.763 262.125 126.788L262.132 126.789C263.32 126.944 264.51 126.985 265.727 127.027C266.311 127.047 266.901 127.068 267.501 127.101C269.391 127.169 271.285 127.169 273.187 127.164L273.196 127.164C274.104 127.177 275.025 127.17 275.952 127.164C278.082 127.148 280.245 127.133 282.375 127.354C282.987 127.418 283.584 127.557 284.143 127.686C284.224 127.705 284.303 127.723 284.382 127.742Z" fill="#4D4D4D"/>
</g>
</svg>
