<svg width="550" height="187" viewBox="0 0 550 187" fill="none" xmlns="http://www.w3.org/2000/svg">
<path d="M241.565 177.474C231.009 177.474 225.625 169.251 220.223 164.652C217.354 162.21 214.506 164.97 213.288 166.93C210.202 171.894 209.004 177.233 206.046 182.218C204.021 185.631 201.345 187.914 197.08 183.768C195.459 182.191 189.088 172.038 185.662 172.402C181.829 172.808 180.529 179.803 179.608 181.701C178.338 184.32 171.074 177.023 170.182 176.112C167.533 173.405 160.15 179.502 158.918 180.856C156.637 183.362 154.877 180.505 152.174 179.823C143.11 177.535 139.094 178.742 129.5 178.742M249.466 25.6899C255.581 25.5136 267.923 27.3213 272.279 21.9425C275.766 17.6363 268.706 9.29024 272.274 4.06996C275.18 -0.182632 283.264 1.11466 284.856 1.44572C289.225 2.0737 292.25 8.29628 288.439 16.0431C287.359 18.2377 286.561 20.9152 286.612 22.7015C286.711 26.1609 290.29 25.4132 293.056 25.3335C302.777 25.4738 313.2 24.3326 314.814 25.4604C317.016 25.7453 316.63 41.6314 316.698 44.0007C316.908 51.3237 319.791 60.1665 312.552 56.9233C303.865 53.0315 297.782 52.4537 294.179 57.8294C289.058 88.8552 312.753 63.9143 316.264 76.0211C317.347 79.7556 317.885 85.3885 317.993 89.1511C318.095 92.6957 318.416 103.907 317.075 104.293C310.406 106.21 297.769 104.849 291.489 105.03C279.516 104.881 275.973 105.477 280.279 117.675C282.995 129.659 269.549 129.737 266.291 127.164C263.479 124.944 262.229 122.718 262.809 119.332C263.202 117.036 267.506 110.486 265.353 107.551C263.449 104.954 261.674 105.601 260.164 105.612C254.763 105.647 249.247 105.581 243.78 105.739C239.956 105.849 240.224 101.623 240.152 99.1368C240.093 97.0619 240.309 94.9718 240.698 92.9319C242.876 74.2058 245.432 74.9395 246.99 74.0873C250.495 72.1697 260.109 76.4159 263.623 74.8069C267.137 73.1979 266.141 66.0647 261.805 65.3825C258.221 63.6151 247.994 67.7185 245.13 64.4086C242.267 61.0987 243.199 53.9246 243.088 50.0562C242.979 46.2739 243.156 42.603 243.496 38.3368C243.73 35.3927 243.352 25.8661 249.466 25.6899ZM238.182 172.921C238.182 166.773 240.33 154.425 235.114 149.893C230.938 146.265 222.45 153.118 217.369 149.383C213.23 146.34 214.749 138.256 215.123 136.666C215.872 132.295 222.136 129.435 229.719 133.487C231.867 134.635 234.503 135.514 236.278 135.514C239.715 135.514 239.075 131.897 239.075 129.116C239.493 119.353 238.658 108.848 239.824 107.259C240.17 105.054 255.184 105.048 257.538 105.048C264.815 105.048 267.695 106.927 264.268 114.106C260.155 122.722 262.398 125.807 268.38 128.071C291.935 129.116 271.588 108.402 281.466 105.9C284.831 105.048 299.038 104.293 303.151 105.048C306.617 105.684 317.839 103.915 318.159 107.259C318.821 114.2 318.159 126.671 318.159 132.987C317.668 145.012 318.159 148.588 330.392 144.613C342.368 142.23 342.061 155.742 339.414 158.941C337.129 161.703 334.883 162.895 331.537 162.214C329.27 161.753 322.889 157.24 319.913 159.318C317.281 161.157 317.873 162.959 317.839 164.477C317.721 169.903 317.497 175.444 317.497 180.941C317.497 184.786 313.309 184.395 310.838 184.395C308.777 184.395 306.708 184.118 304.693 183.668C286.163 180.941 286.965 178.394 286.163 176.804C284.36 173.227 288.851 163.69 287.354 160.113C285.857 156.536 278.746 157.331 277.944 161.669C276.087 165.219 279.869 175.612 276.5 178.394C273.132 181.175 266.036 180.032 262.192 180.032C258.433 180.032 254.794 179.749 250.568 179.284C247.651 178.964 238.182 179.07 238.182 172.921ZM317.977 98.6982C317.783 91.9208 319.549 78.2468 314.169 73.4026C309.862 69.5244 301.557 77.3242 296.338 73.3539C292.086 70.1196 293.356 61.1641 293.681 59.401C294.294 54.5607 300.494 51.2266 308.234 55.4742C310.427 56.6775 313.101 57.5706 314.883 57.5192C318.334 57.4197 317.577 53.4513 317.489 50.3849C317.599 39.6118 316.429 28.0559 317.55 26.27C317.827 23.8304 333.577 24.6351 335.941 24.567C343.246 24.3565 347.421 24.577 347.699 34.2664C347.861 39.9399 342.809 49.0496 348.249 53.4442C367.061 61.2321 354.91 30.8928 358.98 28.5834C363.677 24.634 374.476 26.5199 379.679 26.3699C383.216 26.268 393.86 26.5597 396.049 30.1456C397.981 37.5431 396.807 45.4026 397.007 52.3641C396.894 65.6334 397.5 69.5617 409.656 64.8261C421.604 61.8523 421.723 76.7552 419.166 80.3589C416.96 83.4688 414.743 84.8479 411.362 84.1942C409.071 83.7512 402.522 78.9614 399.601 81.3385C397.016 83.4415 397.667 85.4106 397.682 87.0846C397.734 93.07 397.685 99.1838 397.859 105.243C397.98 109.482 393.763 109.172 391.283 109.244C389.213 109.304 387.127 109.058 385.091 108.62C366.401 106.15 367.125 103.319 366.27 101.59C364.347 97.6993 368.554 87.0559 366.938 83.1567C365.322 79.2575 358.208 80.3393 357.541 85.1436C355.788 89.1106 359.913 100.458 356.62 103.621C353.326 106.785 346.166 105.73 342.307 105.841C338.533 105.95 334.87 105.744 330.613 105.354C327.675 105.085 318.171 105.476 317.977 98.6982Z" stroke="black" stroke-linecap="round"/>
</svg>
