<svg width="216" height="120" viewBox="0 0 216 120" fill="none" xmlns="http://www.w3.org/2000/svg">
<path fill-rule="evenodd" clip-rule="evenodd" d="M191.413 26C195.603 26 199 29.4026 199 33.6C199 37.7974 195.603 41.2 191.413 41.2H148.06C152.25 41.2 155.647 44.6026 155.647 48.8C155.647 52.9974 152.25 56.4 148.06 56.4H171.904C176.094 56.4 179.491 59.8026 179.491 64C179.491 68.1974 176.094 71.6 171.904 71.6H160.877C155.595 71.6 151.311 75.0026 151.311 79.2C151.311 81.9979 153.479 84.5319 157.814 86.8C162.004 86.8 165.401 90.2026 165.401 94.4C165.401 98.5974 162.004 102 157.814 102H67.8563C63.6662 102 60.2695 98.5974 60.2695 94.4C60.2695 90.2026 63.6662 86.8 67.8563 86.8H25.5868C21.3967 86.8 18 83.3974 18 79.2C18 75.0026 21.3967 71.6 25.5868 71.6H68.9401C73.1302 71.6 76.5269 68.1974 76.5269 64C76.5269 59.8026 73.1302 56.4 68.9401 56.4H41.8443C37.6542 56.4 34.2575 52.9974 34.2575 48.8C34.2575 44.6026 37.6542 41.2 41.8443 41.2H85.1976C81.0075 41.2 77.6108 37.7974 77.6108 33.6C77.6108 29.4026 81.0075 26 85.1976 26H191.413ZM191.413 56.4C195.603 56.4 199 59.8026 199 64C199 68.1974 195.603 71.6 191.413 71.6C187.223 71.6 183.826 68.1974 183.826 64C183.826 59.8026 187.223 56.4 191.413 56.4Z" fill="#FEF2F2"/>
<path fill-rule="evenodd" clip-rule="evenodd" d="M141.711 90.2222C143.102 88.5192 144.352 86.7382 145.461 84.8952C147.901 80.8402 149.66 76.4842 150.734 71.9932C151.821 67.4522 152.209 62.7722 151.894 58.1258C151.62 54.0718 150.811 50.0437 149.465 46.156C148.131 42.299 146.268 38.5802 143.875 35.1112C142.45 33.0441 140.836 31.0658 139.034 29.1998C136.388 26.4602 133.486 24.1181 130.402 22.1749C127.089 20.087 123.566 18.4596 119.926 17.2946C115.368 15.8355 110.628 15.1016 105.886 15.0962C102.197 15.0921 98.507 15.529 94.902 16.4087C90.845 17.399 86.895 18.9505 83.177 21.0654C79.9076 22.9246 76.817 25.2192 73.988 27.9509C70.4328 31.3837 67.553 35.2534 65.3512 39.3947C63.1956 43.4493 61.6899 47.7644 60.8366 52.1849C59.9574 56.7391 59.7706 61.4052 60.2789 66.0142C60.9378 71.9872 62.7643 77.8642 65.7644 83.2752C67.684 86.7372 70.0842 90.0082 72.9663 92.9922C77.5416 97.7302 82.883 101.279 88.604 103.631C95.562 106.493 103.081 107.585 110.465 106.896C116.662 106.317 122.765 104.483 128.361 101.386" fill="#FCFCFD"/>
<path d="M141.711 90.2222C143.102 88.5192 144.352 86.7382 145.461 84.8952C147.901 80.8402 149.66 76.4842 150.734 71.9932C151.821 67.4522 152.209 62.7722 151.894 58.1258C151.62 54.0718 150.811 50.0437 149.465 46.156C148.131 42.299 146.268 38.5802 143.875 35.1112C142.45 33.0441 140.836 31.0658 139.034 29.1998C136.388 26.4602 133.486 24.1181 130.402 22.1749C127.089 20.087 123.566 18.4596 119.926 17.2946C115.368 15.8355 110.628 15.1016 105.886 15.0962C102.197 15.0921 98.507 15.529 94.902 16.4087C90.845 17.399 86.895 18.9505 83.177 21.0654C79.9076 22.9246 76.817 25.2192 73.988 27.9509C70.4328 31.3837 67.553 35.2534 65.3512 39.3947C63.1956 43.4493 61.6899 47.7644 60.8366 52.1849C59.9574 56.7391 59.7706 61.4052 60.2789 66.0142C60.9378 71.9872 62.7643 77.8642 65.7644 83.2752C67.684 86.7372 70.0842 90.0082 72.9663 92.9922C77.5416 97.7302 82.883 101.279 88.604 103.631C95.562 106.493 103.081 107.585 110.465 106.896C116.662 106.317 122.765 104.483 128.361 101.386" stroke="#DC2625" stroke-width="2.5" stroke-linecap="round" stroke-linejoin="round"/>
<path fill-rule="evenodd" clip-rule="evenodd" d="M131.701 99.4742C134.607 97.6042 137.191 95.2712 138.872 93.3872L131.701 99.4742Z" fill="#FCFCFD"/>
<path fill-rule="evenodd" clip-rule="evenodd" d="M139.705 92.4545C140.22 92.9141 140.265 93.7043 139.805 94.2194C138.055 96.1812 135.386 98.5898 132.378 100.525C131.797 100.899 131.024 100.731 130.65 100.151C130.277 99.5701 130.444 98.7966 131.025 98.4231C133.829 96.6186 136.328 94.3612 137.94 92.555C138.399 92.0399 139.189 91.9949 139.705 92.4545Z" fill="#DC2625"/>
<path d="M148 63.7132C147.714 63.7182 147.427 63.7212 147.14 63.7212C121.886 63.7212 101.209 44.0324 99.476 19.0962C79.3752 22.2668 64 39.7488 64 60.8392C64 84.1772 82.825 103.096 106.048 103.096C128.309 103.096 146.53 85.7112 148 63.7132Z" fill="#FEF2F2"/>
<path fill-rule="evenodd" clip-rule="evenodd" d="M91.8239 23.5093C89.8739 24.2409 87.9689 25.13 86.1279 26.1768C83.2689 27.8034 80.5647 29.8111 78.0898 32.2011C77.0753 33.1808 76.1236 34.2012 75.2349 35.2572M72.485 38.934C71.7784 40.0019 71.128 41.0966 70.5341 42.2138C70.0955 43.039 69.6876 43.8765 69.3105 44.7247" fill="#FCFCFD"/>
<path d="M92.2633 24.6796C92.9093 24.4372 93.2373 23.7166 92.9943 23.0702C92.7523 22.4239 92.0313 22.0965 91.3853 22.339L92.2633 24.6796ZM74.2789 34.4524C73.8344 34.9806 73.9023 35.7691 74.4305 36.2136C74.9587 36.6581 75.7472 36.5903 76.1917 36.0621L74.2789 34.4524ZM73.5278 39.6239C73.9088 39.0481 73.751 38.2726 73.1752 37.8916C72.5995 37.5106 71.824 37.6685 71.443 38.2442L73.5278 39.6239ZM68.1687 44.2168C67.8882 44.8477 68.1722 45.5864 68.803 45.8669C69.4338 46.1473 70.1726 45.8633 70.4531 45.2325L68.1687 44.2168ZM91.3853 22.339C89.3733 23.0935 87.4093 24.0105 85.5103 25.0902L86.7463 27.2633C88.5293 26.2494 90.3743 25.3883 92.2633 24.6796L91.3853 22.339ZM85.5103 25.0902C82.5603 26.7682 79.7727 28.8386 77.2219 31.3019L78.9585 33.1003C81.3573 30.7836 83.9773 28.8387 86.7463 27.2633L85.5103 25.0902ZM77.2219 31.3019C76.1763 32.3116 75.1953 33.3635 74.2789 34.4524L76.1917 36.0621C77.0528 35.0389 77.975 34.05 78.9585 33.1003L77.2219 31.3019ZM71.443 38.2442C70.7141 39.3456 70.0434 40.4747 69.4308 41.6271L71.6383 42.8006C72.2135 41.7184 72.8434 40.6582 73.5278 39.6239L71.443 38.2442ZM69.4308 41.6271C68.9783 42.4782 68.5576 43.3421 68.1687 44.2168L70.4531 45.2325C70.8183 44.411 71.2134 43.5998 71.6383 42.8006L69.4308 41.6271Z" fill="#F87070"/>
<path d="M109.25 66.3462V44.3462C109.25 42.5513 107.795 41.0962 106 41.0962C104.205 41.0962 102.75 42.5513 102.75 44.3462V66.3462C102.75 68.1412 104.205 69.5962 106 69.5962C107.795 69.5962 109.25 68.1412 109.25 66.3462Z" fill="#FEF2F2" stroke="#DC2625" stroke-width="2.5" stroke-linecap="round"/>
<path d="M106 81.0962C107.795 81.0962 109.25 79.6412 109.25 77.8462C109.25 76.0512 107.795 74.5962 106 74.5962C104.205 74.5962 102.75 76.0512 102.75 77.8462C102.75 79.6412 104.205 81.0962 106 81.0962Z" fill="#FEF2F2" stroke="#DC2625" stroke-width="2.5" stroke-linecap="round"/>
<path d="M142.852 18C144.508 18 145.852 16.6569 145.852 15C145.852 13.3432 144.508 12 142.852 12C141.195 12 139.852 13.3432 139.852 15C139.852 16.6569 141.195 18 142.852 18Z" stroke="#F87070" stroke-width="2"/>
<path d="M171.66 20.2693C173.317 20.2693 174.66 18.9261 174.66 17.2693C174.66 15.6124 173.317 14.2693 171.66 14.2693C170.004 14.2693 168.66 15.6124 168.66 17.2693C168.66 18.9261 170.004 20.2693 171.66 20.2693Z" fill="#F87070"/>
<path d="M156.205 26.148L164.563 34.5062M164.69 26.148L156.332 34.5062" stroke="#F87070" stroke-width="2.5" stroke-linecap="round" stroke-linejoin="round"/>
<path d="M54.915 99.4612L60.9149 105.461M60.9149 99.4612L54.915 105.461" stroke="#F87070" stroke-width="2.5" stroke-linecap="round" stroke-linejoin="round"/>
<path d="M44.5107 92.8655C46.1676 92.8655 47.5107 91.5223 47.5107 89.8655C47.5107 88.2086 46.1676 86.8655 44.5107 86.8655C42.8539 86.8655 41.5107 88.2086 41.5107 89.8655C41.5107 91.5223 42.8539 92.8655 44.5107 92.8655Z" fill="#F87070"/>
</svg>
