<svg width="216" height="120" viewBox="0 0 216 120" fill="none" xmlns="http://www.w3.org/2000/svg">
<path fill-rule="evenodd" clip-rule="evenodd" d="M54.432 87.9104H133.056C133.501 87.9104 133.935 87.8619 134.352 87.7711C134.769 87.8619 135.203 87.9104 135.648 87.9104H180.576C183.916 87.9104 186.624 85.1994 186.624 81.8554C186.624 78.5113 183.916 75.8004 180.576 75.8004H175.392C172.052 75.8004 169.344 73.0894 169.344 69.7454C169.344 66.4013 172.052 63.6904 175.392 63.6904H191.808C195.148 63.6904 197.856 60.9794 197.856 57.6354C197.856 54.2913 195.148 51.5804 191.808 51.5804H172.8C176.14 51.5804 178.848 48.8694 178.848 45.5254C178.848 42.1813 176.14 39.4704 172.8 39.4704H117.504C120.844 39.4704 123.552 36.7594 123.552 33.4154C123.552 30.0713 120.844 27.3604 117.504 27.3604H68.256C64.9158 27.3604 62.208 30.0713 62.208 33.4154C62.208 36.7594 64.9158 39.4704 68.256 39.4704H33.696C30.3558 39.4704 27.648 42.1813 27.648 45.5254C27.648 48.8694 30.3558 51.5804 33.696 51.5804H55.296C58.6362 51.5804 61.344 54.2913 61.344 57.6354C61.344 60.9794 58.6362 63.6904 55.296 63.6904H20.736C17.3958 63.6904 14.688 66.4013 14.688 69.7454C14.688 73.0894 17.3958 75.8004 20.736 75.8004H54.432C51.0918 75.8004 48.384 78.5113 48.384 81.8554C48.384 85.1994 51.0918 87.9104 54.432 87.9104ZM195.264 87.9104C198.604 87.9104 201.312 85.1994 201.312 81.8554C201.312 78.5113 198.604 75.8004 195.264 75.8004C191.924 75.8004 189.216 78.5113 189.216 81.8554C189.216 85.1994 191.924 87.9104 195.264 87.9104Z" fill="#EFF8EE"/>
<path d="M149.04 10.9248V16.1148Z" fill="#95CF8A"/>
<path d="M149.04 10.9248V16.1148" stroke="#95CF8A" stroke-width="2.5" stroke-linecap="round" stroke-linejoin="round"/>
<path d="M149.04 23.0352V28.2252Z" fill="#95CF8A"/>
<path d="M149.04 23.0352V28.2252" stroke="#95CF8A" stroke-width="2.5" stroke-linecap="round" stroke-linejoin="round"/>
<path d="M140.4 19.5752H145.584Z" fill="#95CF8A"/>
<path d="M140.4 19.5752H145.584" stroke="#95CF8A" stroke-width="2.5" stroke-linecap="round" stroke-linejoin="round"/>
<path d="M152.496 19.5752H157.68Z" fill="#95CF8A"/>
<path d="M152.496 19.5752H157.68" stroke="#95CF8A" stroke-width="2.5" stroke-linecap="round" stroke-linejoin="round"/>
<path d="M77.3281 100.02V103.48Z" fill="#95CF8A"/>
<path d="M77.3281 100.02V103.48" stroke="#95CF8A" stroke-width="2.5" stroke-linecap="round" stroke-linejoin="round"/>
<path d="M77.3281 110.4V113.86Z" fill="#95CF8A"/>
<path d="M77.3281 110.4V113.86" stroke="#95CF8A" stroke-width="2.5" stroke-linecap="round" stroke-linejoin="round"/>
<path d="M70.416 106.94H73.872Z" fill="#95CF8A"/>
<path d="M70.416 106.94H73.872" stroke="#95CF8A" stroke-width="2.5" stroke-linecap="round" stroke-linejoin="round"/>
<path d="M80.7842 106.94H84.2402Z" fill="#95CF8A"/>
<path d="M80.7842 106.94H84.2402" stroke="#95CF8A" stroke-width="2.5" stroke-linecap="round" stroke-linejoin="round"/>
<path fill-rule="evenodd" clip-rule="evenodd" d="M142.935 88.4928C144.296 86.8269 145.519 85.0846 146.604 83.2816C148.991 79.3148 150.711 75.0535 151.762 70.6601C152.825 66.2178 153.205 61.6396 152.897 57.0942C152.629 53.1283 151.837 49.1878 150.521 45.3846C149.216 41.6115 147.393 37.9735 145.052 34.5799C143.658 32.5578 142.079 30.6225 140.316 28.797C137.728 26.117 134.889 23.8258 131.872 21.9248C128.631 19.8823 125.185 18.2903 121.624 17.1506C117.165 15.7233 112.528 15.0053 107.889 15C104.28 14.996 100.67 15.4234 97.1438 16.284C93.175 17.2528 89.3108 18.7705 85.6737 20.8395C82.4753 22.6582 79.4519 24.903 76.6844 27.5753C73.2065 30.9334 70.3893 34.719 68.2354 38.7703C66.1266 42.7367 64.6537 46.958 63.8189 51.2824C62.9588 55.7376 62.7761 60.3023 63.2733 64.8111C63.9179 70.6543 65.7047 76.4035 68.6396 81.6969C70.5175 85.0836 72.8655 88.2835 75.6849 91.2026C80.1608 95.8376 85.3861 99.3095 90.9827 101.61C97.7894 104.41 105.145 105.478 112.368 104.804C118.431 104.238 124.401 102.444 129.875 99.4141" fill="#FCFCFD"/>
<path d="M143.712 89.126C145.103 87.423 146.353 85.642 147.462 83.799C149.902 79.744 151.661 75.388 152.735 70.897C153.822 66.356 154.21 61.676 153.895 57.0296C153.621 52.9756 152.812 48.9475 151.466 45.0598C150.132 41.2028 148.269 37.484 145.876 34.015C144.451 31.9479 142.837 29.9696 141.035 28.1036C138.389 25.364 135.487 23.0219 132.403 21.0787C129.09 18.9908 125.567 17.3634 121.927 16.1984C117.369 14.7393 112.629 14.0054 107.887 14C104.198 13.9959 100.508 14.4328 96.9025 15.3125C92.8455 16.3028 88.8955 17.8543 85.1775 19.9692C81.9081 21.8284 78.8175 24.123 75.9885 26.8547C72.4333 30.2875 69.5535 34.1572 67.3517 38.2985C65.1961 42.3531 63.6904 46.6682 62.8371 51.0887C61.9579 55.6429 61.7711 60.309 62.2794 64.918C62.9383 70.891 64.7648 76.768 67.7649 82.179C69.6845 85.641 72.0847 88.912 74.9668 91.896C79.5421 96.634 84.8835 100.183 90.6045 102.535C97.5625 105.397 105.082 106.489 112.466 105.8C118.663 105.221 124.766 103.387 130.362 100.29" stroke="#59B446" stroke-width="2.5" stroke-linecap="round" stroke-linejoin="round"/>
<path fill-rule="evenodd" clip-rule="evenodd" d="M130.206 93.4274C132.716 91.8098 134.949 89.7918 136.401 88.1621L130.206 93.4274Z" fill="#FCFCFD"/>
<path d="M135 97.2653C137.511 95.6477 139.744 93.6297 141.196 92" stroke="#59B446" stroke-width="2.5" stroke-linecap="round"/>
<path d="M149 62.5547C148.721 62.5596 148.441 62.5625 148.161 62.5625C123.508 62.5625 103.324 43.3425 101.632 19C82.0096 22.0951 67.0005 39.1609 67.0005 59.7491C67.0005 82.5314 85.3773 101 108.047 101C129.778 101 147.565 84.0289 149 62.5547Z" fill="#EFF8EE"/>
<path fill-rule="evenodd" clip-rule="evenodd" d="M94.1958 58.8228C93.1391 57.8456 91.5001 57.9206 90.5342 58.9906C89.5691 60.0597 89.6425 61.7188 90.7 62.6962L102.899 73.9741C104.378 75.3417 106.674 75.237 108.025 73.7397C108.082 73.6757 108.082 73.6757 108.136 73.6108L125.545 52.4206C126.46 51.3065 126.31 49.6526 125.209 48.7263C124.108 47.8001 122.474 47.9523 121.559 49.0663L105.192 68.9882L94.1958 58.8228Z" fill="#FCFCFD" stroke="#59B446" stroke-width="2.5" stroke-linecap="round"/>
<path fill-rule="evenodd" clip-rule="evenodd" d="M90.4521 23C88.7673 23.6328 87.1213 24.4019 85.5307 25.3074C83.0605 26.7144 80.7241 28.4511 78.5858 30.5184C77.7093 31.3658 76.887 32.2485 76.1192 33.1619M73.7433 36.3424C73.1328 37.2661 72.5708 38.213 72.0577 39.1794C71.6787 39.8932 71.3263 40.6176 71.0005 41.3513" fill="#FCFCFD"/>
<path d="M91.9117 25.0938C92.4698 24.8841 92.7532 24.2608 92.5432 23.7017C92.3342 23.1426 91.7112 22.8594 91.1531 23.0692L91.9117 25.0938ZM76.3731 33.5473C75.9891 34.0042 76.0477 34.6862 76.5041 35.0707C76.9605 35.4552 77.6417 35.3966 78.0258 34.9397L76.3731 33.5473ZM75.7242 38.0206C76.0534 37.5226 75.917 36.8518 75.4195 36.5222C74.9221 36.1926 74.2521 36.3292 73.9229 36.8272L75.7242 38.0206ZM71.0939 41.9935C70.8516 42.5392 71.0969 43.1782 71.642 43.4208C72.187 43.6634 72.8253 43.4177 73.0676 42.8721L71.0939 41.9935ZM91.1531 23.0692C89.4147 23.7218 87.7178 24.515 86.0771 25.449L87.145 27.3287C88.6855 26.4517 90.2796 25.7068 91.9117 25.0938L91.1531 23.0692ZM86.0771 25.449C83.5283 26.9005 81.1198 28.6914 78.9159 30.8221L80.4163 32.3777C82.4889 30.3738 84.7526 28.6914 87.145 27.3287L86.0771 25.449ZM78.9159 30.8221C78.0125 31.6955 77.1649 32.6054 76.3731 33.5473L78.0258 34.9397C78.7698 34.0546 79.5666 33.1992 80.4163 32.3777L78.9159 30.8221ZM73.9229 36.8272C73.2931 37.7799 72.7137 38.7566 72.1844 39.7534L74.0917 40.7685C74.5886 39.8324 75.1329 38.9153 75.7242 38.0206L73.9229 36.8272ZM72.1844 39.7534C71.7934 40.4896 71.4299 41.2369 71.0939 41.9935L73.0676 42.8721C73.3832 42.1615 73.7245 41.4598 74.0917 40.7685L72.1844 39.7534Z" fill="#95CF8A"/>
</svg>
