<svg width="24" height="24" viewBox="0 0 24 24" fill="none" xmlns="http://www.w3.org/2000/svg">
<g id="24 / Info">
<path id="Icon" fill-rule="evenodd" clip-rule="evenodd" d="M12 2.99995C7.02939 2.99995 2.99995 7.02939 2.99995 12C2.99995 16.9705 7.02939 21 12 21C16.9705 21 21 16.9705 21 12C21 7.02939 16.9705 2.99995 12 2.99995ZM1.19995 12C1.19995 6.03528 6.03528 1.19995 12 1.19995C17.9646 1.19995 22.8 6.03528 22.8 12C22.8 17.9646 17.9646 22.8 12 22.8C6.03528 22.8 1.19995 17.9646 1.19995 12ZM12 5.99995C12.497 5.99995 12.9 6.40289 12.9 6.89995V8.69995C12.9 9.19701 12.497 9.59995 12 9.59995C11.5029 9.59995 11.1 9.19701 11.1 8.69995V6.89995C11.1 6.40289 11.5029 5.99995 12 5.99995ZM12 12C12.497 12 12.9 12.4029 12.9 12.9V17.1C12.9 17.597 12.497 18 12 18C11.5029 18 11.1 17.597 11.1 17.1V12.9C11.1 12.4029 11.5029 12 12 12Z" fill="#2563EC"/>
</g>
</svg>
