<svg width="216" height="120" viewBox="0 0 216 120" fill="none" xmlns="http://www.w3.org/2000/svg">
<path fill-rule="evenodd" clip-rule="evenodd" d="M185 23C188.866 23 192 26.134 192 30C192 33.866 188.866 37 185 37H145C148.866 37 152 40.134 152 44C152 47.866 148.866 51 145 51H167C170.866 51 174 54.134 174 58C174 61.866 170.866 65 167 65H156.826C151.952 65 148 68.134 148 72C148 74.577 150 76.911 154 79C157.866 79 161 82.134 161 86C161 89.866 157.866 93 154 93H71C67.134 93 64 89.866 64 86C64 82.134 67.134 79 71 79H32C28.134 79 25 75.866 25 72C25 68.134 28.134 65 32 65H72C75.866 65 79 61.866 79 58C79 54.134 75.866 51 72 51H47C43.134 51 40 47.866 40 44C40 40.134 43.134 37 47 37H87C83.134 37 80 33.866 80 30C80 26.134 83.134 23 87 23H185ZM185 51C188.866 51 192 54.134 192 58C192 61.866 188.866 65 185 65C181.134 65 178 61.866 178 58C178 54.134 181.134 51 185 51Z" fill="#FFF6ED"/>
<path fill-rule="evenodd" clip-rule="evenodd" d="M70.264 96.131H65.7441C63.5349 96.131 61.7441 94.34 61.7441 92.131C61.7441 91.378 61.9566 90.641 62.3571 90.003L101.613 27.5222C102.788 25.6516 105.257 25.0879 107.128 26.2632C107.637 26.5829 108.067 27.0133 108.387 27.5222L147.642 90.003C148.818 91.874 148.254 94.343 146.383 95.518C145.746 95.919 145.008 96.131 144.255 96.131H83.9132H70.264Z" fill="#FCFCFD"/>
<path d="M79.6377 96.131H74.0462M70.264 96.131H65.7441C63.5349 96.131 61.7441 94.34 61.7441 92.131C61.7441 91.378 61.9566 90.641 62.3571 90.003L101.613 27.5222C102.788 25.6516 105.257 25.0879 107.128 26.2632C107.637 26.5829 108.067 27.0133 108.387 27.5222L147.642 90.003C148.818 91.874 148.254 94.343 146.383 95.518C145.746 95.919 145.008 96.131 144.255 96.131H83.9132H70.264Z" stroke="#FA7317" stroke-width="2.5" stroke-linecap="round" stroke-linejoin="round"/>
<path fill-rule="evenodd" clip-rule="evenodd" d="M136.064 78.862L143.638 91.105C143.928 91.575 143.783 92.191 143.313 92.482C143.155 92.579 142.973 92.631 142.787 92.631H67.2129C66.6607 92.631 66.2129 92.184 66.2129 91.631C66.2129 91.445 66.2647 91.263 66.3625 91.105L88.7163 54.9622C99.8023 69.36 116.875 78.654 136.064 78.862Z" fill="#FFF6ED"/>
<path d="M108.25 70.75V48.75C108.25 46.9551 106.795 45.5 105 45.5C103.205 45.5 101.75 46.9551 101.75 48.75V70.75C101.75 72.545 103.205 74 105 74C106.795 74 108.25 72.545 108.25 70.75Z" fill="#FFF6ED" stroke="#FA7317" stroke-width="2.5" stroke-linecap="round"/>
<path d="M105 85.5C106.795 85.5 108.25 84.045 108.25 82.25C108.25 80.455 106.795 79 105 79C103.205 79 101.75 80.455 101.75 82.25C101.75 84.045 103.205 85.5 105 85.5Z" fill="#FFF6ED" stroke="#FA7317" stroke-width="2.5" stroke-linecap="round"/>
<path d="M135.852 38.9038C137.508 38.9038 138.852 37.5607 138.852 35.9038C138.852 34.247 137.508 32.9038 135.852 32.9038C134.195 32.9038 132.852 34.247 132.852 35.9038C132.852 37.5607 134.195 38.9038 135.852 38.9038Z" stroke="#FDBA74" stroke-width="2"/>
<path d="M160.66 50.1731C162.317 50.1731 163.66 48.8299 163.66 47.1731C163.66 45.5162 162.317 44.1731 160.66 44.1731C159.004 44.1731 157.66 45.5162 157.66 47.1731C157.66 48.8299 159.004 50.1731 160.66 50.1731Z" fill="#FDBA74"/>
<path d="M139.205 52.0518L147.563 60.41M147.69 52.0518L139.332 60.41" stroke="#FDBA74" stroke-width="2.5" stroke-linecap="round" stroke-linejoin="round"/>
<path d="M57.915 58.365L63.9149 64.365M63.9149 58.365L57.915 64.365" stroke="#FDBA74" stroke-width="2.5" stroke-linecap="round" stroke-linejoin="round"/>
<path d="M71.5107 51.7693C73.1676 51.7693 74.5107 50.4261 74.5107 48.7693C74.5107 47.1124 73.1676 45.7693 71.5107 45.7693C69.8539 45.7693 68.5107 47.1124 68.5107 48.7693C68.5107 50.4261 69.8539 51.7693 71.5107 51.7693Z" fill="#FDBA74"/>
</svg>
