<svg width="24" height="24" viewBox="0 0 24 24" fill="none" xmlns="http://www.w3.org/2000/svg">
<g id="Color /  Crown Platinum small">
<circle id="Ellipse 59" cx="12" cy="12" r="11.5" fill="white" stroke="#F6F8FD"/>
<path id="Vector" d="M7.5036 15C7.40546 15 7.32183 14.9288 7.30617 14.8319L6.10066 7.37286C6.06952 7.18015 6.30463 7.06155 6.4411 7.20113L9.47338 10.3023C9.56861 10.3997 9.73123 10.3755 9.79393 10.2546L11.8224 6.34242C11.8971 6.1985 12.1029 6.1985 12.1776 6.34242L14.2061 10.2546C14.2688 10.3755 14.4314 10.3997 14.5266 10.3023L17.5589 7.20113C17.6954 7.06155 17.9305 7.18015 17.8993 7.37286L16.6938 14.8319C16.6782 14.9288 16.5945 15 16.4964 15H7.5036ZM16.6667 17.25C16.6667 17.7 16.4 18 16 18H8C7.6 18 7.33333 17.7 7.33333 17.25V16.7C7.33333 16.5895 7.42288 16.5 7.53333 16.5H16.4667C16.5771 16.5 16.6667 16.5895 16.6667 16.7V17.25Z" fill="#787F9D"/>
</g>
</svg>
