<svg width="20" height="18" viewBox="0 0 20 18" fill="none" xmlns="http://www.w3.org/2000/svg">
<path fill-rule="evenodd" clip-rule="evenodd" d="M0.950195 3.48367C0.950195 2.08434 2.08458 0.949951 3.48391 0.949951H16.779C18.1783 0.949951 19.3127 2.08434 19.3127 3.48367C19.3127 4.66244 18.5077 5.6532 17.4175 5.93624V14.6697C17.4175 16.1332 16.2311 17.3197 14.7675 17.3197H5.49668C4.03312 17.3197 2.84668 16.1332 2.84668 14.6697V5.93658C1.7558 5.65399 0.950195 4.66291 0.950195 3.48367ZM4.14668 6.01739H16.1175V14.6697C16.1175 15.4153 15.5131 16.0197 14.7675 16.0197H5.49668C4.75109 16.0197 4.14668 15.4153 4.14668 14.6697V6.01739ZM18.0127 3.48367C18.0127 4.16503 17.4603 4.71739 16.779 4.71739H16.7675H3.49668H3.48391C2.80255 4.71739 2.2502 4.16503 2.2502 3.48367C2.2502 2.80231 2.80255 2.24995 3.48391 2.24995H16.779C17.4603 2.24995 18.0127 2.80231 18.0127 3.48367ZM8.23594 8.48482C7.87695 8.48482 7.58594 8.77584 7.58594 9.13482C7.58594 9.49381 7.87695 9.78482 8.23594 9.78482H12.0276C12.3866 9.78482 12.6776 9.49381 12.6776 9.13482C12.6776 8.77584 12.3866 8.48482 12.0276 8.48482H8.23594Z" fill="#8F95B2"/>
</svg>
