<svg width="18" height="16" viewBox="0 0 18 16" fill="none" xmlns="http://www.w3.org/2000/svg">
<path fill-rule="evenodd" clip-rule="evenodd" d="M3.91957 0.5H14.0804C14.6146 0.49999 15.0604 0.499981 15.4247 0.52974C15.8046 0.560778 16.1612 0.627889 16.4985 0.799733C17.0159 1.06338 17.4366 1.48408 17.7003 2.00153C17.8721 2.33879 17.9392 2.69545 17.9703 3.07533C18 3.43956 18 3.8854 18 4.41955V4.83045C18 5.3646 18 5.81044 17.9703 6.17467C17.9392 6.55456 17.8721 6.91121 17.7003 7.24847C17.5562 7.53113 17.3654 7.78491 17.1375 8C17.3654 8.21509 17.5562 8.46887 17.7003 8.75153C17.8721 9.08879 17.9392 9.44545 17.9703 9.82533C18 10.1896 18 10.6354 18 11.1695V11.5805C18 12.1146 18 12.5604 17.9703 12.9247C17.9392 13.3046 17.8721 13.6612 17.7003 13.9985C17.4366 14.5159 17.0159 14.9366 16.4985 15.2003C16.1612 15.3721 15.8046 15.4392 15.4247 15.4703C15.0604 15.5 14.6146 15.5 14.0805 15.5H3.91955C3.3854 15.5 2.93956 15.5 2.57533 15.4703C2.19545 15.4392 1.83879 15.3721 1.50153 15.2003C0.984081 14.9366 0.563385 14.5159 0.299733 13.9985C0.127889 13.6612 0.0607778 13.3046 0.02974 12.9247C-1.90884e-05 12.5604 -1.02672e-05 12.1146 4.02008e-07 11.5804V11.1696C-1.02672e-05 10.6354 -1.90884e-05 10.1896 0.02974 9.82533C0.0607778 9.44545 0.127889 9.08879 0.299733 8.75153C0.443752 8.46887 0.634631 8.21509 0.862543 8C0.634631 7.78491 0.443752 7.53113 0.299733 7.24847C0.127889 6.91121 0.0607778 6.55456 0.02974 6.17467C-1.90884e-05 5.81044 -1.02672e-05 5.36459 4.02008e-07 4.83044V4.41957C-1.02672e-05 3.88541 -1.90884e-05 3.43956 0.02974 3.07533C0.0607778 2.69545 0.127889 2.33879 0.299733 2.00153C0.563385 1.48408 0.984081 1.06338 1.50153 0.799733C1.83879 0.627889 2.19545 0.560778 2.57533 0.52974C2.93956 0.499981 3.38541 0.49999 3.91957 0.5ZM3.95 8.75C3.37757 8.75 2.99336 8.75058 2.69748 8.77476C2.41036 8.79822 2.27307 8.8401 2.18251 8.88624C1.94731 9.00608 1.75608 9.19731 1.63624 9.43251C1.5901 9.52307 1.54822 9.66036 1.52476 9.94748C1.50058 10.2434 1.5 10.6276 1.5 11.2V11.55C1.5 12.1224 1.50058 12.5066 1.52476 12.8025C1.54822 13.0896 1.5901 13.2269 1.63624 13.3175C1.75608 13.5527 1.94731 13.7439 2.18251 13.8638C2.27307 13.9099 2.41036 13.9518 2.69748 13.9752C2.99336 13.9994 3.37757 14 3.95 14H14.05C14.6224 14 15.0066 13.9994 15.3025 13.9752C15.5896 13.9518 15.7269 13.9099 15.8175 13.8638C16.0527 13.7439 16.2439 13.5527 16.3638 13.3175C16.4099 13.2269 16.4518 13.0896 16.4752 12.8025C16.4994 12.5066 16.5 12.1224 16.5 11.55V11.2C16.5 10.6276 16.4994 10.2434 16.4752 9.94748C16.4518 9.66036 16.4099 9.52307 16.3638 9.43251C16.2439 9.19731 16.0527 9.00608 15.8175 8.88624C15.7269 8.8401 15.5896 8.79822 15.3025 8.77476C15.0066 8.75058 14.6224 8.75 14.05 8.75H3.95ZM14.05 7.25C14.6224 7.25 15.0066 7.24942 15.3025 7.22524C15.5896 7.20178 15.7269 7.1599 15.8175 7.11376C16.0527 6.99392 16.2439 6.80269 16.3638 6.56749C16.4099 6.47693 16.4518 6.33965 16.4752 6.05252C16.4994 5.75664 16.5 5.37243 16.5 4.8V4.45C16.5 3.87757 16.4994 3.49336 16.4752 3.19748C16.4518 2.91036 16.4099 2.77307 16.3638 2.68251C16.2439 2.44731 16.0527 2.25608 15.8175 2.13624C15.7269 2.0901 15.5896 2.04822 15.3025 2.02476C15.0066 2.00058 14.6224 2 14.05 2H3.95C3.37757 2 2.99336 2.00058 2.69748 2.02476C2.41036 2.04822 2.27307 2.0901 2.18251 2.13624C1.94731 2.25608 1.75608 2.44731 1.63624 2.68251C1.5901 2.77307 1.54822 2.91036 1.52476 3.19748C1.50058 3.49336 1.5 3.87757 1.5 4.45V4.8C1.5 5.37243 1.50058 5.75664 1.52476 6.05252C1.54822 6.33965 1.5901 6.47693 1.63624 6.56749C1.75608 6.80269 1.94731 6.99392 2.18251 7.11376C2.27307 7.1599 2.41036 7.20178 2.69748 7.22524C2.99336 7.24942 3.37757 7.25 3.95 7.25H14.05ZM3 4.7473C3.00028 4.33309 3.33629 3.99753 3.7505 3.9978L6.2505 3.99948C6.66472 3.99976 7.00028 4.33577 7 4.74999C6.99972 5.1642 6.66371 5.49976 6.2495 5.49948L3.7495 5.4978C3.33528 5.49753 2.99972 5.16151 3 4.7473ZM3 11.2495C3.00028 10.8353 3.33629 10.4997 3.7505 10.5L6.2505 10.5017C6.66472 10.502 7.00028 10.838 7 11.2522C6.99972 11.6664 6.66371 12.002 6.2495 12.0017L3.7495 12C3.33528 11.9997 2.99972 11.6637 3 11.2495Z" fill="#8F95B2"/>
</svg>
