<svg width="20" height="20" viewBox="0 0 20 20" fill="none" xmlns="http://www.w3.org/2000/svg">
<path fill-rule="evenodd" clip-rule="evenodd" d="M1.21948 3.90241C1.21948 2.42067 2.42067 1.21948 3.90241 1.21948H16.0975C17.5793 1.21948 18.7805 2.42067 18.7805 3.90241V16.0975C18.7805 17.5793 17.5793 18.7805 16.0975 18.7805H3.90241C2.42067 18.7805 1.21948 17.5793 1.21948 16.0975V3.90241ZM3.90241 2.6829C3.22889 2.6829 2.6829 3.22889 2.6829 3.90241V16.0975C2.6829 16.771 3.22889 17.317 3.90241 17.317H16.0975C16.771 17.317 17.317 16.771 17.317 16.0975V3.90241C17.317 3.22889 16.771 2.6829 16.0975 2.6829H3.90241ZM9.99997 5.12192C10.4041 5.12192 10.7317 5.44952 10.7317 5.85363V14.1463C10.7317 14.5504 10.4041 14.878 9.99997 14.878C9.59586 14.878 9.26826 14.5504 9.26826 14.1463V5.85363C9.26826 5.44952 9.59586 5.12192 9.99997 5.12192ZM6.82924 8.04875C7.23335 8.04875 7.56095 8.37635 7.56095 8.78046V14.1463C7.56095 14.5504 7.23335 14.878 6.82924 14.878C6.42513 14.878 6.09753 14.5504 6.09753 14.1463V8.78046C6.09753 8.37635 6.42513 8.04875 6.82924 8.04875ZM13.1707 9.99997C13.5748 9.99997 13.9024 10.3276 13.9024 10.7317V14.1463C13.9024 14.5504 13.5748 14.878 13.1707 14.878C12.7666 14.878 12.439 14.5504 12.439 14.1463V10.7317C12.439 10.3276 12.7666 9.99997 13.1707 9.99997Z" fill="white"/>
</svg>
