<svg width="29" height="28" viewBox="0 0 29 28" fill="none" xmlns="http://www.w3.org/2000/svg">
<path d="M25.7327 0H7.934C6.408 0 5.16667 1.28414 5.16667 2.86276V6.75862H3.26733C1.74133 6.75862 0.5 8.04276 0.5 9.6209V19.8269C0.5 21.4055 1.74133 22.6897 3.26733 22.6897H6.1V27.5172C6.1 27.7166 6.21853 27.8957 6.39867 27.9677C6.45327 27.9894 6.5102 28 6.56667 28C6.69547 28 6.82193 27.9445 6.912 27.8421L11.4396 22.6897H21.066C22.592 22.6897 23.8333 21.4055 23.8333 19.8269V15.931H25.7327C27.2587 15.931 28.5 14.6469 28.5 13.0683V2.86276C28.5 1.28414 27.2587 0 25.7327 0ZM22.9 19.8269C22.9 20.873 22.0773 21.7241 21.066 21.7241H11.2333C11.1017 21.7241 10.9762 21.7816 10.888 21.882L7.03333 26.2688V22.2069C7.03333 21.9404 6.82473 21.7241 6.56667 21.7241H3.26733C2.25607 21.7241 1.43333 20.873 1.43333 19.8269V9.6209C1.43333 8.57524 2.25607 7.72414 3.26733 7.72414H21.066C21.4454 7.72414 21.7977 7.84386 22.0908 8.04855C22.5785 8.38986 22.9 8.96724 22.9 9.62138V19.8269ZM27.5667 13.0683C27.5667 14.1144 26.7439 14.9655 25.7327 14.9655H23.8333V9.62138C23.8333 8.33917 23.0139 7.25103 21.8883 6.888C21.8015 6.86 21.7133 6.83634 21.6232 6.81752C21.4431 6.7789 21.2569 6.75862 21.066 6.75862H6.1V2.86276C6.1 1.81662 6.92273 0.965517 7.934 0.965517H25.7327C26.7439 0.965517 27.5667 1.81662 27.5667 2.86276V13.0683Z" fill="#4D4D4D"/>
<path d="M6.1 12.559H12.6333C12.8914 12.559 13.1 12.3427 13.1 12.0762C13.1 11.8097 12.8914 11.5934 12.6333 11.5934H6.1C5.84193 11.5934 5.63333 11.8097 5.63333 12.0762C5.63333 12.3427 5.84193 12.559 6.1 12.559Z" fill="#4D4D4D"/>
<path d="M18.7 14.49H6.1C5.84193 14.49 5.63333 14.7063 5.63333 14.9728C5.63333 15.2392 5.84193 15.4555 6.1 15.4555H18.7C18.9581 15.4555 19.1667 15.2392 19.1667 14.9728C19.1667 14.7063 18.9581 14.49 18.7 14.49Z" fill="#4D4D4D"/>
<path d="M18.7 17.3866H6.1C5.84193 17.3866 5.63333 17.6028 5.63333 17.8693C5.63333 18.1358 5.84193 18.3521 6.1 18.3521H18.7C18.9581 18.3521 19.1667 18.1358 19.1667 17.8693C19.1667 17.6028 18.9581 17.3866 18.7 17.3866Z" fill="#4D4D4D"/>
</svg>
