<svg width="18" height="19" viewBox="0 0 18 19" fill="none" xmlns="http://www.w3.org/2000/svg">
<path fill-rule="evenodd" clip-rule="evenodd" d="M9 2C4.85786 2 1.5 5.35786 1.5 9.5C1.5 13.6421 4.85786 17 9 17C13.1421 17 16.5 13.6421 16.5 9.5C16.5 5.35786 13.1421 2 9 2ZM0 9.5C0 4.52944 4.02944 0.5 9 0.5C13.9706 0.5 18 4.52944 18 9.5C18 14.4706 13.9706 18.5 9 18.5C4.02944 18.5 0 14.4706 0 9.5ZM5 7.75C5 7.33579 5.33579 7 5.75 7H6.75C7.16421 7 7.5 7.33579 7.5 7.75C7.5 8.16421 7.16421 8.5 6.75 8.5H5.75C5.33579 8.5 5 8.16421 5 7.75ZM10.5 7.75C10.5 7.33579 10.8358 7 11.25 7H12.25C12.6642 7 13 7.33579 13 7.75C13 8.16421 12.6642 8.5 12.25 8.5H11.25C10.8358 8.5 10.5 8.16421 10.5 7.75ZM5.91459 11.5792C6.28507 11.3939 6.73558 11.5441 6.92082 11.9146C7.25581 12.5846 8.06287 13 9 13C9.93713 13 10.7442 12.5846 11.0792 11.9146C11.2644 11.5441 11.7149 11.3939 12.0854 11.5792C12.4559 11.7644 12.6061 12.2149 12.4208 12.5854C11.7558 13.9154 10.3129 14.5 9 14.5C7.68713 14.5 6.24419 13.9154 5.57918 12.5854C5.39394 12.2149 5.54411 11.7644 5.91459 11.5792Z" fill="#8F95B2"/>
</svg>
