<svg width="16" height="14" viewBox="0 0 16 14" fill="none" xmlns="http://www.w3.org/2000/svg">
<path d="M16 4.75171C16 4.49797 15.8946 4.25462 15.7071 4.07521C15.5196 3.89579 15.2652 3.79499 15 3.79499C15 3.79499 14.6107 3.79499 14.5833 3.80009C14.0848 2.91642 13.5137 2.07206 12.8753 1.27499C12.5422 0.860599 12.0807 0.557642 11.5567 0.409476C10.3827 -0.136492 5.61733 -0.136492 4.44333 0.409476C3.91934 0.557642 3.45776 0.860599 3.12467 1.27499C2.4863 2.07206 1.91517 2.91642 1.41667 3.80009C1.38933 3.79499 1 3.79499 1 3.79499C0.734784 3.79499 0.48043 3.89579 0.292893 4.07521C0.105357 4.25462 0 4.49797 0 4.75171L0 8.89749C0.000128892 9.34521 0.123407 9.78502 0.357449 10.1727C0.591492 10.5604 0.928057 10.8824 1.33333 11.1062V12.0866C1.33333 12.594 1.54405 13.0807 1.91912 13.4396C2.29419 13.7984 2.8029 14 3.33333 14C3.86377 14 4.37247 13.7984 4.74755 13.4396C5.12262 13.0807 5.33333 12.594 5.33333 12.0866V11.4487H10.6667V12.0866C10.6667 12.594 10.8774 13.0807 11.2525 13.4396C11.6275 13.7984 12.1362 14 12.6667 14C13.1971 14 13.7058 13.7984 14.0809 13.4396C14.456 13.0807 14.6667 12.594 14.6667 12.0866V11.1062C15.0719 10.8824 15.4085 10.5604 15.6426 10.1727C15.8766 9.78502 15.9999 9.34521 16 8.89749V4.75171ZM4.18267 2.05121C4.34598 1.8497 4.57158 1.70262 4.82733 1.63089C5.84 1.15189 10.1607 1.15189 11.1727 1.63089C11.4284 1.70262 11.654 1.8497 11.8173 2.05121C12.8297 3.32125 13.6635 4.71294 14.2973 6.19061C10.1212 5.60765 5.87878 5.60765 1.70267 6.19061C2.33647 4.71294 3.17026 3.32125 4.18267 2.05121ZM4 12.0866C4 12.2557 3.92976 12.418 3.80474 12.5376C3.67971 12.6572 3.51014 12.7244 3.33333 12.7244C3.15652 12.7244 2.98695 12.6572 2.86193 12.5376C2.7369 12.418 2.66667 12.2557 2.66667 12.0866V11.4487H4V12.0866ZM13.3333 12.0866C13.3333 12.2557 13.2631 12.418 13.1381 12.5376C13.013 12.6572 12.8435 12.7244 12.6667 12.7244C12.4899 12.7244 12.3203 12.6572 12.1953 12.5376C12.0702 12.418 12 12.2557 12 12.0866V11.4487H13.3333V12.0866ZM13.3333 10.1731H2.66667C2.31304 10.1731 1.97391 10.0387 1.72386 9.7995C1.47381 9.56027 1.33333 9.23581 1.33333 8.89749V7.53066C3.54051 7.20785 5.7676 7.02525 8 6.98405C10.2324 7.02525 12.4595 7.20785 14.6667 7.53066V8.89749C14.6667 9.23581 14.5262 9.56027 14.2761 9.7995C14.0261 10.0387 13.687 10.1731 13.3333 10.1731ZM4 8.89749C4 9.06665 3.92976 9.22888 3.80474 9.3485C3.67971 9.46811 3.51014 9.53531 3.33333 9.53531C3.15652 9.53531 2.98695 9.46811 2.86193 9.3485C2.7369 9.22888 2.66667 9.06665 2.66667 8.89749C2.66667 8.72834 2.7369 8.56611 2.86193 8.44649C2.98695 8.32688 3.15652 8.25968 3.33333 8.25968C3.51014 8.25968 3.67971 8.32688 3.80474 8.44649C3.92976 8.56611 4 8.72834 4 8.89749ZM13.3333 8.89749C13.3333 9.06665 13.2631 9.22888 13.1381 9.3485C13.013 9.46811 12.8435 9.53531 12.6667 9.53531C12.4899 9.53531 12.3203 9.46811 12.1953 9.3485C12.0702 9.22888 12 9.06665 12 8.89749C12 8.72834 12.0702 8.56611 12.1953 8.44649C12.3203 8.32688 12.4899 8.25968 12.6667 8.25968C12.8435 8.25968 13.013 8.32688 13.1381 8.44649C13.2631 8.56611 13.3333 8.72834 13.3333 8.89749Z" fill="#8F95B2"/>
</svg>
