<svg width="16" height="18" viewBox="0 0 16 18" fill="none" xmlns="http://www.w3.org/2000/svg">
<path fill-rule="evenodd" clip-rule="evenodd" d="M6.32378 1.24403e-06H9.67622C9.9337 -1.72334e-05 10.1702 -3.41609e-05 10.3679 0.0161174C10.581 0.0335311 10.8142 0.0733937 11.0445 0.190741C11.3738 0.35852 11.6415 0.626236 11.8093 0.955519C11.9266 1.18583 11.9665 1.419 11.9839 1.63213C11.993 1.7435 11.997 1.86719 11.9987 2L12.0804 2C12.6146 1.99999 13.0604 1.99998 13.4247 2.02974C13.8046 2.06078 14.1612 2.12789 14.4985 2.29973C15.0159 2.56339 15.4366 2.98408 15.7003 3.50153C15.8721 3.83879 15.9392 4.19545 15.9703 4.57533C16 4.93956 16 5.3854 16 5.91955V14.0805C16 14.6146 16 15.0604 15.9703 15.4247C15.9392 15.8046 15.8721 16.1612 15.7003 16.4985C15.4366 17.0159 15.0159 17.4366 14.4985 17.7003C14.1612 17.8721 13.8046 17.9392 13.4247 17.9703C13.0604 18 12.6146 18 12.0805 18H3.91955C3.3854 18 2.93956 18 2.57533 17.9703C2.19545 17.9392 1.83879 17.8721 1.50153 17.7003C0.984081 17.4366 0.563385 17.0159 0.299733 16.4985C0.127889 16.1612 0.0607778 15.8046 0.02974 15.4247C-1.90884e-05 15.0604 -1.02672e-05 14.6146 4.02008e-07 14.0804V5.91957C-1.02672e-05 5.38541 -1.90884e-05 4.93957 0.02974 4.57533C0.0607778 4.19545 0.127889 3.83879 0.299733 3.50153C0.563385 2.98408 0.984081 2.56339 1.50153 2.29973C1.83879 2.12789 2.19545 2.06078 2.57533 2.02974C2.93956 1.99998 3.38541 1.99999 3.91957 2L4.00132 2C4.00305 1.86719 4.00702 1.7435 4.01612 1.63213C4.03353 1.419 4.07339 1.18583 4.19074 0.955519C4.35852 0.626235 4.62623 0.358519 4.95552 0.190741C5.18582 0.0733939 5.419 0.0335311 5.63213 0.0161174C5.82981 -3.41609e-05 6.0663 -1.72334e-05 6.32378 1.24403e-06ZM4.00132 3.5H3.95C3.37757 3.5 2.99336 3.50059 2.69748 3.52476C2.41036 3.54822 2.27307 3.5901 2.18251 3.63624C1.94731 3.75609 1.75608 3.94731 1.63624 4.18251C1.5901 4.27308 1.54822 4.41036 1.52476 4.69748C1.50058 4.99336 1.5 5.37757 1.5 5.95V14.05C1.5 14.6224 1.50058 15.0066 1.52476 15.3025C1.54822 15.5896 1.5901 15.7269 1.63624 15.8175C1.75608 16.0527 1.94731 16.2439 2.18251 16.3638C2.27307 16.4099 2.41036 16.4518 2.69748 16.4752C2.99336 16.4994 3.37757 16.5 3.95 16.5H12.05C12.6224 16.5 13.0066 16.4994 13.3025 16.4752C13.5896 16.4518 13.7269 16.4099 13.8175 16.3638C14.0527 16.2439 14.2439 16.0527 14.3638 15.8175C14.4099 15.7269 14.4518 15.5896 14.4752 15.3025C14.4994 15.0066 14.5 14.6224 14.5 14.05V5.95C14.5 5.37757 14.4994 4.99336 14.4752 4.69748C14.4518 4.41036 14.4099 4.27308 14.3638 4.18251C14.2439 3.94731 14.0527 3.75609 13.8175 3.63624C13.7269 3.5901 13.5896 3.54822 13.3025 3.52476C13.0066 3.50059 12.6224 3.5 12.05 3.5H11.9987C11.997 3.63282 11.993 3.7565 11.9839 3.86787C11.9665 4.08101 11.9266 4.31418 11.8093 4.54449C11.6415 4.87377 11.3738 5.14148 11.0445 5.30926C10.8142 5.42661 10.581 5.46647 10.3679 5.48389C10.1702 5.50004 9.9337 5.50002 9.67621 5.5H6.32379C6.0663 5.50002 5.82982 5.50004 5.63213 5.48389C5.419 5.46647 5.18582 5.42661 4.95552 5.30926C4.62623 5.14149 4.35852 4.87377 4.19074 4.54449C4.07339 4.31418 4.03353 4.08101 4.01612 3.86787C4.00702 3.7565 4.00305 3.63282 4.00132 3.5ZM5.63088 1.52973C5.63085 1.52972 5.63132 1.52953 5.63236 1.52918L5.63088 1.52973ZM5.63346 1.52883C5.64234 1.52607 5.67547 1.51757 5.75428 1.51114C5.8834 1.50059 6.0576 1.5 6.35 1.5H9.65C9.9424 1.5 10.1166 1.50059 10.2457 1.51114C10.3245 1.51757 10.3577 1.52607 10.3665 1.52883C10.4112 1.55235 10.4477 1.58882 10.4712 1.63346C10.4739 1.64234 10.4824 1.67547 10.4889 1.75428C10.4994 1.88341 10.5 2.0576 10.5 2.35V3.15C10.5 3.4424 10.4994 3.6166 10.4889 3.74573C10.4824 3.82454 10.4739 3.85767 10.4712 3.86654C10.4477 3.91118 10.4112 3.94766 10.3665 3.97118C10.3577 3.97393 10.3245 3.98243 10.2457 3.98887C10.1166 3.99942 9.9424 4 9.65 4H6.35C6.0576 4 5.8834 3.99942 5.75428 3.98887C5.67547 3.98243 5.64234 3.97393 5.63346 3.97118C5.58882 3.94766 5.55234 3.91118 5.52882 3.86654C5.52607 3.85766 5.51757 3.82454 5.51113 3.74573C5.50058 3.6166 5.5 3.4424 5.5 3.15V2.35C5.5 2.0576 5.50058 1.88341 5.51113 1.75428C5.51757 1.67547 5.52607 1.64235 5.52882 1.63347C5.55234 1.58883 5.58882 1.55235 5.63346 1.52883ZM5.52973 1.63088C5.52974 1.6309 5.52956 1.63144 5.52917 1.63239L5.52973 1.63088ZM5.52973 3.86913C5.52972 3.86916 5.52953 3.86869 5.52918 3.86764L5.52973 3.86913ZM5.63088 3.97028C5.6309 3.97026 5.63143 3.97044 5.63239 3.97084L5.63088 3.97028ZM10.3691 3.97028C10.3692 3.97029 10.3687 3.97048 10.3676 3.97083L10.3691 3.97028ZM10.4703 3.86913C10.4703 3.8691 10.4704 3.86858 10.4708 3.86765L10.4703 3.86913ZM10.4703 1.63088C10.4703 1.63085 10.4705 1.63132 10.4708 1.63236L10.4703 1.63088ZM10.3676 1.52918C10.3687 1.52952 10.3692 1.52972 10.3691 1.52973L10.3676 1.52918Z" fill="#8F95B2"/>
</svg>
