<svg width="29" height="26" viewBox="0 0 29 26" fill="none" xmlns="http://www.w3.org/2000/svg">
<path d="M16.6563 0.995706C18.9364 0.257252 21.7648 1.35433 22.6932 3.56793C23.3664 4.86287 23.075 6.39631 23.7192 7.69656C24.1119 8.63111 24.7127 9.45613 25.2646 10.3041C25.6465 10.8765 25.8492 11.6591 25.4492 12.2739C25.1072 12.9134 24.3634 13.1926 23.6722 13.2933C22.8796 13.3957 22.0779 13.3533 21.2817 13.4028C21.7051 13.9575 22.4181 14.1201 23.0497 14.3462C25.4836 15.0617 27.6914 16.7735 28.75 19.049C27.9791 19.9447 27.1611 20.8191 26.1586 21.4746C25.0602 22.2148 23.7916 22.6847 22.4869 22.9409C22.4706 23.5062 22.8759 24.2817 22.4018 24.7216C20.4565 25.1633 18.4514 25.3329 16.4644 25.5078C11.3287 25.8947 6.1387 25.7057 1.05727 24.8665C0.746013 24.7958 0.239314 24.7782 0.250172 24.3506C0.289983 22.6918 0.782207 20.9693 1.92951 19.7062C2.95919 18.519 4.4467 17.8371 5.94507 17.3919C6.83541 17.1286 7.66603 16.7046 8.42064 16.1764C7.67508 15.4521 7.04351 14.6112 6.60377 13.6766C6.34861 13.03 5.66277 12.6573 5.47456 11.9736C5.07102 11.1397 5.01492 9.96669 5.92516 9.42787C5.96316 8.51981 6.0066 7.58173 6.37395 6.73374C6.86436 5.69673 7.73117 4.82578 8.80428 4.36115C10.2266 3.70573 11.8861 3.70396 13.3863 4.08909C13.8785 2.61571 15.1018 1.38437 16.6563 0.995706ZM16.6924 1.95499C15.5198 2.32775 14.6114 3.30647 14.2911 4.46008C14.9896 4.84167 15.6248 5.34693 16.0699 6.00235C16.8101 6.98637 16.8987 8.24422 16.9512 9.42257C17.894 10.0268 17.7818 11.251 17.3276 12.1184C17.1539 12.6785 16.5821 12.9753 16.3595 13.5053C15.8944 14.5016 15.2447 15.4115 14.4485 16.1817C15.4709 16.9237 16.6798 17.3318 17.8796 17.7116C19.9208 18.4041 21.6617 19.9977 22.2534 22.0575C23.3863 21.7979 24.5191 21.4463 25.4854 20.7944C26.3179 20.2909 26.9838 19.5825 27.6534 18.8953C26.8644 17.6993 25.8057 16.6675 24.5372 15.9609C23.6125 15.4238 22.543 15.2154 21.573 14.7808C21.1007 14.5599 20.5723 14.2561 20.4601 13.7137C20.3986 13.3392 20.2429 12.7898 20.6772 12.5707C21.8752 12.2633 23.2198 12.7014 24.349 12.1078C24.8267 11.8517 24.7923 11.2369 24.4956 10.8588C23.5871 9.48793 22.5936 8.08169 22.3638 6.42458C22.2516 5.50417 22.1901 4.54311 21.7196 3.71456C20.8329 1.98502 18.4948 1.26954 16.6924 1.95499ZM10.3316 4.84874C8.9382 5.06604 7.65517 5.99529 7.16657 7.30436C6.86798 8.17178 6.88065 9.10104 6.85531 10.0056C6.61463 10.1822 6.27805 10.2812 6.14956 10.5656C6.09346 11.0655 6.28709 11.5567 6.53863 11.9842C6.76664 12.281 7.13038 12.4771 7.2462 12.8516C7.76375 14.0706 8.5817 15.1783 9.66385 15.9803C10.5216 16.6145 11.7449 16.7806 12.7058 16.2647C14.0974 15.5369 15.0258 14.1854 15.641 12.8021C15.784 12.3711 16.2835 12.1997 16.4518 11.7846C16.6327 11.3641 16.8372 10.8747 16.6526 10.4225C16.412 10.1946 15.9143 10.0992 15.9957 9.68756C15.9668 8.58695 15.9686 7.3768 15.2393 6.46521C14.1771 4.95474 12.0869 4.51308 10.3316 4.84874ZM3.23063 19.738C2.14486 20.6107 1.51329 21.9233 1.30156 23.2642C1.32509 23.4815 1.03555 23.992 1.44633 23.9849C8.12205 25.0679 14.9805 25.0202 21.6581 23.9638C21.5332 22.6988 21.1658 21.4057 20.3189 20.411C19.3978 19.3051 18.0189 18.6815 16.649 18.2769C15.5886 17.9554 14.5842 17.4572 13.7156 16.7806C12.3692 17.7081 10.5017 17.7205 9.16258 16.7718C7.45792 18.2699 4.9534 18.2805 3.23063 19.738Z" fill="#4D4D4D"/>
</svg>
