<svg width="18" height="18" viewBox="0 0 18 18" fill="none" xmlns="http://www.w3.org/2000/svg">
<path fill-rule="evenodd" clip-rule="evenodd" d="M9.00031 2.07954L6.33661 7.21668C6.24061 7.40181 6.06162 7.52964 5.85536 7.56037C5.64909 7.59111 5.44061 7.521 5.29481 7.3719L1.6741 3.66889L3.06384 11.5175H14.9368L16.3265 3.66889L12.7058 7.3719C12.56 7.521 12.3515 7.59111 12.1453 7.56037C11.939 7.52964 11.76 7.40181 11.664 7.21668L9.00031 2.07954ZM8.24572 0.710684C8.56287 0.0990441 9.43775 0.0990419 9.7549 0.710683L12.4045 5.82058L16.416 1.71789C17.0006 1.11999 18.0065 1.63694 17.8607 2.46034L16.1218 12.2808C16.0669 12.5912 15.7971 12.8175 15.4818 12.8175H2.51883C2.20356 12.8175 1.93375 12.5912 1.87878 12.2808L0.139881 2.46034C-0.00591975 1.63693 1.00001 1.11999 1.58462 1.71789L5.59614 5.82058L8.24572 0.710684ZM1.86883 14.5008C1.86883 14.1418 2.15984 13.8508 2.51883 13.8508H15.4818C15.8408 13.8508 16.1318 14.1418 16.1318 14.5008V16.2925C16.1318 16.7313 16.0007 17.1558 15.713 17.4795C15.4191 17.8102 15.0061 17.9841 14.5559 17.9841H3.44475C2.99453 17.9841 2.58155 17.8102 2.28764 17.4795C1.9999 17.1558 1.86883 16.7313 1.86883 16.2925V14.5008ZM3.16883 15.1508V16.2925C3.16883 16.4786 3.22295 16.575 3.25927 16.6158C3.28944 16.6498 3.33942 16.6841 3.44475 16.6841H14.5559C14.6612 16.6841 14.7112 16.6498 14.7413 16.6158C14.7777 16.575 14.8318 16.4786 14.8318 16.2925V15.1508H3.16883Z" fill="#8F95B2"/>
</svg>
