<svg width="23" height="30" viewBox="0 0 23 30" fill="none" xmlns="http://www.w3.org/2000/svg">
<path d="M3.21463 1.6711C3.27556 1.09652 3.77101 0.602594 4.36107 0.518851C4.92707 0.42115 5.53476 0.71115 5.79932 1.20508C6.03422 1.60519 5.95165 2.08051 5.96528 2.52016C6.58098 2.52094 7.19669 2.52094 7.8124 2.52016C7.82763 2.09679 7.74746 1.64396 7.9535 1.25005C8.19642 0.753022 8.78086 0.440535 9.34606 0.509546C9.90405 0.563048 10.4019 0.977888 10.5318 1.50671C10.6087 1.83858 10.5687 2.18209 10.5767 2.51938C11.1924 2.52016 11.8089 2.52404 12.4246 2.51783C12.4358 2.06888 12.3541 1.5796 12.6066 1.17484C12.8936 0.671604 13.5398 0.397113 14.117 0.535909C14.6622 0.65222 15.1095 1.11746 15.1728 1.65714C15.2017 1.94404 15.1849 2.23249 15.1881 2.52016C15.8038 2.52094 16.4195 2.52094 17.0352 2.52016C17.0384 2.00995 16.9614 1.4315 17.3318 1.01201C17.8241 0.361444 18.9248 0.33508 19.4547 0.955401C19.8612 1.37102 19.8131 1.97738 19.7907 2.50543C20.444 2.51086 21.1159 2.63647 21.6586 3.00634C22.4964 3.53594 23.0151 4.492 22.9991 5.45893C23.0007 12.4903 22.9999 19.5208 22.9991 26.5522C23.0087 27.3167 22.6976 28.0789 22.1412 28.624C21.5688 29.1978 20.7447 29.515 19.9221 29.4995C14.283 29.4987 8.64297 29.501 3.00378 29.4979C2.16761 29.5002 1.34185 29.1443 0.782262 28.5449C0.271577 28.0084 -0.00901916 27.2803 0.000601278 26.5522C-0.000200426 19.5224 -0.000200426 12.4926 0.000601278 5.46358C-0.0114243 4.64321 0.350946 3.82593 0.98349 3.2785C1.57675 2.74348 2.39689 2.48449 3.201 2.51628C3.20341 2.23481 3.18898 1.95257 3.21463 1.6711ZM4.4725 1.61062C4.29453 1.6866 4.3274 1.89906 4.32098 2.05104C4.33301 2.77217 4.30976 3.49329 4.33221 4.21364C4.34022 4.49123 4.81483 4.49666 4.83247 4.22061C4.85572 3.44521 4.83968 2.66749 4.84129 1.89131C4.87416 1.69823 4.66171 1.51447 4.4725 1.61062ZM9.11276 1.60131C8.91073 1.65559 8.93559 1.88976 8.93238 2.04717C8.94521 2.77139 8.91795 3.49639 8.94521 4.21984C8.95643 4.48735 9.41501 4.49666 9.44307 4.22992C9.46872 3.45142 9.45028 2.66981 9.45189 1.89053C9.48155 1.71142 9.29876 1.52765 9.11276 1.60131ZM13.6937 1.61062C13.5181 1.68816 13.5494 1.89751 13.5446 2.04949C13.555 2.76984 13.5326 3.49096 13.5542 4.21131C13.5614 4.4889 14.0376 4.49976 14.0553 4.22139C14.0785 3.44521 14.0625 2.66749 14.0641 1.89053C14.097 1.69668 13.8837 1.51524 13.6937 1.61062ZM18.3348 1.59976C18.1327 1.65791 18.1576 1.89053 18.1552 2.05027C18.1688 2.77527 18.1399 3.50182 18.1688 4.22604C18.1905 4.49123 18.6474 4.49356 18.6667 4.22449C18.6907 3.44831 18.6731 2.67059 18.6747 1.89441C18.7068 1.71297 18.524 1.5292 18.3348 1.59976ZM2.12111 3.81896C1.50219 4.12757 1.10294 4.79053 1.12299 5.46358C1.12379 12.5174 1.11978 19.5704 1.12459 26.6243C1.11417 27.5873 2.01368 28.4387 3.00859 28.4123C8.67263 28.4147 14.3375 28.4154 20.0015 28.4123C20.9924 28.4341 21.8831 27.5858 21.8743 26.6281C21.8823 19.6255 21.8735 12.6229 21.8791 5.62099C21.8943 5.20227 21.8142 4.7696 21.5648 4.42067C21.1904 3.85462 20.4833 3.55299 19.7987 3.60417C19.7931 3.98644 19.8476 4.39353 19.6672 4.74944C19.4339 5.24182 18.8695 5.56283 18.3115 5.51243C17.711 5.47909 17.1739 5.0185 17.0633 4.44781C17.0176 4.16944 17.0376 3.88642 17.0352 3.60572C16.4195 3.6065 15.8038 3.60572 15.1881 3.6065C15.1857 3.89107 15.2073 4.17874 15.156 4.46099C15.0406 5.02548 14.5074 5.47754 13.9134 5.51243C13.3971 5.55896 12.8712 5.29067 12.6138 4.85644C12.3701 4.48347 12.4278 4.02676 12.4246 3.60727C11.8089 3.60572 11.1924 3.60572 10.5759 3.60727C10.5719 4.00505 10.6272 4.4323 10.4203 4.79519C10.1774 5.26198 9.63066 5.55973 9.09112 5.51243C8.4706 5.47909 7.91422 4.98749 7.83164 4.39043C7.79877 4.12989 7.8132 3.86781 7.8132 3.6065C7.19669 3.6065 6.58098 3.60572 5.96528 3.6065C5.96287 3.88719 5.98291 4.17021 5.93641 4.44781C5.82979 4.99524 5.33273 5.4411 4.76032 5.50545C4.18309 5.58687 3.5778 5.26741 3.33489 4.75409C3.14969 4.39663 3.20982 3.98644 3.201 3.60184C2.83062 3.59642 2.4482 3.63829 2.12111 3.81896Z" fill="#4D4D4D"/>
<path d="M4.24081 8.52099C4.43322 8.4481 4.64647 8.47524 4.8485 8.46904C9.39096 8.47369 13.9326 8.46749 18.4751 8.47214C18.7973 8.44345 19.1052 8.71174 19.086 9.0281C19.0876 9.33283 18.7893 9.58174 18.4799 9.55537C13.8276 9.55692 9.1753 9.55615 4.52301 9.55537C4.29773 9.56855 4.06684 9.45457 3.97064 9.25297C3.83034 8.99088 3.96022 8.63652 4.24081 8.52099Z" fill="#4D4D4D"/>
<path d="M4.30174 13.1625C4.40276 13.1408 4.50618 13.1307 4.6104 13.1323C9.23382 13.1362 13.8572 13.13 18.4799 13.1354C18.8591 13.0982 19.1886 13.4843 19.0619 13.8364C18.9914 14.0744 18.7396 14.2341 18.4871 14.2179C13.8324 14.2194 9.1777 14.2186 4.52381 14.2186C4.27368 14.2357 4.02115 14.0868 3.94418 13.8534C3.83916 13.5782 4.01072 13.244 4.30174 13.1625Z" fill="#4D4D4D"/>
<path d="M4.38432 17.8087C9.02939 17.7793 13.6769 17.8041 18.3219 17.7963C18.5929 17.7715 18.8815 17.9219 18.9537 18.1864C19.0707 18.5206 18.7709 18.9028 18.4053 18.8796C13.7795 18.8842 9.15285 18.8811 4.52702 18.8811C4.23119 18.909 3.94338 18.6865 3.91773 18.3996C3.87844 18.1243 4.0965 17.8398 4.38432 17.8087Z" fill="#4D4D4D"/>
<path d="M4.31377 22.4852C4.43883 22.4565 4.56791 22.4588 4.69538 22.4573C9.26348 22.4635 13.8316 22.4534 18.3997 22.4619C18.6995 22.448 18.9761 22.6953 18.9769 22.9876C18.9938 23.2869 18.7148 23.5607 18.4037 23.5421C13.7779 23.5467 9.15125 23.5436 4.52461 23.5444C4.2841 23.5607 4.03878 23.4273 3.9538 23.204C3.82633 22.9225 4.00591 22.5619 4.31377 22.4852Z" fill="#4D4D4D"/>
</svg>
