<svg width="16" height="18" viewBox="0 0 16 18" fill="none" xmlns="http://www.w3.org/2000/svg">
<path fill-rule="evenodd" clip-rule="evenodd" d="M11.25 16.25C11.25 17.2165 10.4665 18 9.5 18H6.5C5.5335 18 4.75 17.2165 4.75 16.25L4.75 9H1.75C0.783504 9 9.53674e-07 8.2165 9.53674e-07 7.25V1.75C9.53674e-07 0.783503 0.783504 0 1.75 0H14.25C15.2165 0 16 0.783503 16 1.75L16 11.25C16 12.2165 15.2165 13 14.25 13H11.25V16.25ZM11.25 11.5H14.25C14.3881 11.5 14.5 11.3881 14.5 11.25L14.5 1.75C14.5 1.61193 14.3881 1.5 14.25 1.5H11.25L11.25 11.5ZM9.75 1.5H6.25L6.25 16.25C6.25 16.3881 6.36193 16.5 6.5 16.5H9.5C9.63807 16.5 9.75 16.3881 9.75 16.25L9.75 1.5ZM4.75 1.5H1.75C1.61193 1.5 1.5 1.61193 1.5 1.75V7.25C1.5 7.38807 1.61193 7.5 1.75 7.5H4.75V1.5Z" fill="#8F95B2"/>
</svg>
