<svg width="18" height="19" viewBox="0 0 18 19" fill="none" xmlns="http://www.w3.org/2000/svg">
<path fill-rule="evenodd" clip-rule="evenodd" d="M6.25 2.75C6.25 1.50736 7.25736 0.5 8.5 0.5H9.5C10.7426 0.5 11.75 1.50736 11.75 2.75V2.86087L11.8284 2.78244L12.3588 3.31277L11.8284 2.78244C12.7071 1.90376 14.1317 1.90376 15.0104 2.78244L15.7175 3.48955C16.5962 4.36823 16.5962 5.79285 15.7175 6.67153L15.639 6.75H15.75C16.9926 6.75 18 7.75736 18 9V10C18 11.2426 16.9926 12.25 15.75 12.25H15.6391L15.7175 12.3284C16.5962 13.2071 16.5962 14.6317 15.7175 15.5104L15.0104 16.2175C14.1317 17.0962 12.7071 17.0962 11.8284 16.2175L11.75 16.1391V16.25C11.75 17.4926 10.7426 18.5 9.5 18.5H8.5C7.25736 18.5 6.25 17.4926 6.25 16.25V16.139L6.17157 16.2175C5.29289 17.0962 3.86827 17.0962 2.98959 16.2175L2.28248 15.5104C1.40381 14.6317 1.4038 13.2071 2.28248 12.3284L2.36087 12.25H2.25C1.00736 12.25 -5.96046e-08 11.2426 0 10L5.96046e-08 9C5.96046e-08 7.75736 1.00736 6.75 2.25 6.75H2.3609L2.28249 6.67159C1.40381 5.79291 1.40381 4.36829 2.28249 3.48961L2.9896 2.7825C3.86828 1.90382 5.2929 1.90382 6.17158 2.7825L6.25 2.86092V2.75ZM8.5 2C8.08579 2 7.75 2.33579 7.75 2.75V3.46448C7.75 4.57811 6.40358 5.13582 5.61612 4.34836L5.11092 3.84316C4.81802 3.55027 4.34315 3.55027 4.05026 3.84316L3.34315 4.55027C3.05026 4.84316 3.05026 5.31804 3.34315 5.61093L3.84834 6.11612C4.63579 6.90357 4.07809 8.25 2.96445 8.25L2.25 8.25C1.83579 8.25 1.5 8.58578 1.5 9V10C1.5 10.4142 1.83579 10.75 2.25 10.75H2.96442C4.07805 10.75 4.63577 12.0964 3.84831 12.8839L3.34314 13.389C3.05025 13.6819 3.05025 14.1568 3.34314 14.4497L4.05025 15.1568C4.34314 15.4497 4.81802 15.4497 5.11091 15.1568L5.61612 14.6516C6.40357 13.8642 7.75 14.4219 7.75 15.5355V16.25C7.75 16.6642 8.08579 17 8.5 17H9.5C9.91421 17 10.25 16.6642 10.25 16.25V15.5355C10.25 14.4219 11.5964 13.8642 12.3839 14.6517L12.8891 15.1569C13.182 15.4498 13.6569 15.4498 13.9498 15.1569L14.6569 14.4498C14.9498 14.1569 14.9498 13.682 14.6569 13.3891L14.1516 12.8839C13.3642 12.0964 13.9219 10.75 15.0355 10.75H15.75C16.1642 10.75 16.5 10.4142 16.5 10V9C16.5 8.58579 16.1642 8.25 15.75 8.25L15.0355 8.25C13.9219 8.25 13.3642 6.90357 14.1516 6.11612L14.6569 5.61087C14.9497 5.31798 14.9497 4.8431 14.6569 4.55021L13.9497 3.8431C13.6569 3.55021 13.182 3.55021 12.8891 3.8431L12.3839 4.34831C11.5964 5.13576 10.25 4.57806 10.25 3.46442V2.75C10.25 2.33579 9.91421 2 9.5 2H8.5ZM9 7.5C7.89543 7.5 7 8.39543 7 9.5C7 10.6046 7.89543 11.5 9 11.5C10.1046 11.5 11 10.6046 11 9.5C11 8.39543 10.1046 7.5 9 7.5ZM5.5 9.5C5.5 7.567 7.067 6 9 6C10.933 6 12.5 7.567 12.5 9.5C12.5 11.433 10.933 13 9 13C7.067 13 5.5 11.433 5.5 9.5Z" fill="#8F95B2"/>
</svg>
