<svg width="17" height="18" viewBox="0 0 17 18" fill="none" xmlns="http://www.w3.org/2000/svg">
<path fill-rule="evenodd" clip-rule="evenodd" d="M2.75 1.5C2.05964 1.5 1.5 2.05964 1.5 2.75V15.25C1.5 15.9404 2.05964 16.5 2.75 16.5H6.25C6.66421 16.5 7 16.8358 7 17.25C7 17.6642 6.66421 18 6.25 18H2.75C1.23122 18 0 16.7688 0 15.25V2.75C0 1.23122 1.23122 0 2.75 0H8.25C8.44891 0 8.63968 0.0790176 8.78033 0.21967L13.7803 5.21967C13.921 5.36032 14 5.55109 14 5.75V8.25C14 8.66421 13.6642 9 13.25 9C12.8358 9 12.5 8.66421 12.5 8.25V6.5H8.25C7.83579 6.5 7.5 6.16421 7.5 5.75V1.5H2.75ZM9 2.56066L11.4393 5H9V2.56066ZM16.765 12.2047C17.0661 12.4891 17.0797 12.9638 16.7953 13.265L12.5453 17.765C12.4014 17.9173 12.2005 18.0025 11.991 17.9999C11.7815 17.9974 11.5827 17.9074 11.4425 17.7517L9.19253 15.2517C8.91543 14.9438 8.94039 14.4696 9.24828 14.1925C9.55616 13.9154 10.0304 13.9404 10.3075 14.2483L12.0133 16.1436L15.7047 12.235C15.9892 11.9339 16.4638 11.9203 16.765 12.2047Z" fill="#8F95B2"/>
</svg>
