<svg width="18" height="15" viewBox="0 0 18 15" fill="none" xmlns="http://www.w3.org/2000/svg">
<path d="M15.5625 3H3.89583C3.26948 3 2.67667 2.721 2.26615 2.25075C2.66719 1.79025 3.24979 1.5 3.89583 1.5H17.0208C17.4241 1.5 17.75 1.164 17.75 0.75C17.75 0.336 17.4241 0 17.0208 0H3.89583C1.8826 0 0.25 1.67925 0.25 3.75V11.25C0.25 13.3208 1.8826 15 3.89583 15H15.5625C16.7707 15 17.75 13.9928 17.75 12.75V5.25C17.75 4.00725 16.7707 3 15.5625 3ZM16.2917 12.75C16.2917 13.1632 15.965 13.5 15.5625 13.5H3.89583C2.68979 13.5 1.70833 12.4905 1.70833 11.25V3.7485C2.33104 4.22775 3.09667 4.5 3.89583 4.5H15.5625C15.965 4.5 16.2917 4.83675 16.2917 5.25V12.75ZM14.8333 9C14.8333 9.414 14.5067 9.75 14.1042 9.75C13.7017 9.75 13.375 9.414 13.375 9C13.375 8.586 13.7017 8.25 14.1042 8.25C14.5067 8.25 14.8333 8.586 14.8333 9Z" fill="#8F95B2"/>
</svg>
