<svg width="36" height="36" viewBox="0 0 36 36" fill="none" xmlns="http://www.w3.org/2000/svg">
    <path fill-rule="evenodd" clip-rule="evenodd" d="M4.312 4.31151C6.36349 2.26003 9.41017 1.5 13.2524 1.5H22.1486C25.9908 1.5 29.0375 2.26003 31.089 4.31151C33.1405 6.363 33.9005 9.40968 33.9005 13.2519V22.1481C33.9005 25.9903 33.1405 29.037 31.089 31.0885C29.0375 33.14 25.9908 33.9 22.1486 33.9H13.2524C9.41017 33.9 6.36349 33.14 4.312 31.0885C2.26052 29.037 1.50049 25.9903 1.50049 22.1481V13.2519C1.50049 9.40968 2.26052 6.363 4.312 4.31151ZM6.25355 6.25306C4.96893 7.53768 4.24625 9.68049 4.24625 13.2519V22.1481C4.24625 25.7195 4.96893 27.8623 6.25355 29.1469C7.53817 30.4316 9.68098 31.1542 13.2524 31.1542H22.1486C25.72 31.1542 27.8628 30.4316 29.1474 29.1469C30.432 27.8623 31.1547 25.7195 31.1547 22.1481V13.2519C31.1547 9.68049 30.432 7.53768 29.1474 6.25306C27.8628 4.96845 25.72 4.24576 22.1486 4.24576H13.2524C9.68098 4.24576 7.53817 4.96845 6.25355 6.25306ZM14.7864 9.87911C15.3225 10.4152 15.3225 11.2845 14.7864 11.8207L11.4503 15.1568C10.9141 15.6929 10.0449 15.6929 9.50873 15.1568L8.3967 14.0447C7.86056 13.5086 7.86056 12.6393 8.3967 12.1032C8.93284 11.567 9.8021 11.567 10.3382 12.1032L10.4795 12.2444L12.8448 9.87911C13.381 9.34296 14.2502 9.34296 14.7864 9.87911ZM16.8764 13.0739C16.8764 12.3157 17.491 11.7011 18.2493 11.7011H26.0335C26.7917 11.7011 27.4064 12.3157 27.4064 13.0739C27.4064 13.8322 26.7917 14.4468 26.0335 14.4468H18.2493C17.491 14.4468 16.8764 13.8322 16.8764 13.0739ZM14.7864 20.2581C15.3225 20.7942 15.3225 21.6635 14.7864 22.1996L11.4503 25.5357C10.9141 26.0719 10.0449 26.0719 9.50874 25.5357L8.3967 24.4237C7.86056 23.8876 7.86056 23.0183 8.3967 22.4822C8.93284 21.946 9.8021 21.946 10.3382 22.4822L10.4795 22.6234L12.8448 20.2581C13.381 19.7219 14.2502 19.7219 14.7864 20.2581ZM16.8764 23.4529C16.8764 22.6947 17.491 22.08 18.2493 22.08H26.0335C26.7917 22.08 27.4064 22.6947 27.4064 23.4529C27.4064 24.2112 26.7917 24.8258 26.0335 24.8258H18.2493C17.491 24.8258 16.8764 24.2112 16.8764 23.4529Z" fill="#575D7A"/>
</svg>
