<svg width="24" height="24" viewBox="0 0 24 24" fill="none" xmlns="http://www.w3.org/2000/svg">
    <path fill-rule="evenodd" clip-rule="evenodd" d="M6.33897 2.49177C5.95901 1.86517 5.12333 1.66037 4.49172 2.04336C3.86534 2.42319 3.66046 3.25841 4.04288 3.88992C4.04274 3.88969 4.04302 3.89015 4.04288 3.88992L5.29571 5.94585L7.59178 4.54767L6.33897 2.49177ZM3.84373 6.83002L2.58967 4.77207C1.72289 3.34264 2.17586 1.45954 3.61027 0.589735C5.03936 -0.276843 6.92195 0.175695 7.79201 1.60935C7.79221 1.60967 7.7924 1.60999 7.7926 1.61032L9.04376 3.66349L9.30483 3.50451C9.49738 3.38726 9.72861 3.3513 9.94767 3.40455C10.1667 3.45779 10.3557 3.59587 10.4729 3.78841L12.5644 7.22307C14.4137 6.99587 16.2654 7.79244 17.3953 9.31783L20.4337 13.4202C21.7008 15.1428 21.2589 17.5013 19.4116 18.6191C19.4112 18.6193 19.4108 18.6196 19.4104 18.6198L18.7743 19.0066C18.7509 19.0245 18.7263 19.0413 18.7005 19.057C18.6745 19.0728 18.648 19.0871 18.621 19.0998L15.9864 20.7019C15.9573 20.7254 15.9263 20.7473 15.8935 20.7672C15.8604 20.7874 15.8265 20.805 15.7919 20.8202L13.1983 22.3973C13.1641 22.4265 13.1272 22.4533 13.0876 22.4774C13.0477 22.5017 13.0066 22.5224 12.9647 22.5394L12.3679 22.9022C12.3671 22.9027 12.3663 22.9033 12.3654 22.9038C10.5317 24.0336 8.21927 23.35 7.27717 21.4234C7.27712 21.4233 7.27722 21.4235 7.27717 21.4234L5.03131 16.844C5.03109 16.8436 5.03088 16.8432 5.03067 16.8427C4.17214 15.1052 4.34635 13.0353 5.46585 11.4814L3.4029 8.09366C3.15874 7.69271 3.28585 7.16974 3.6868 6.92559L3.84373 6.83002ZM10.8596 7.69195L9.46302 5.39858L9.39513 5.43992C9.34317 5.49516 9.28361 5.54366 9.21768 5.58377L5.46838 7.86406C5.41453 7.89681 5.35849 7.92287 5.30122 7.94247L6.69351 10.2289L10.8596 7.69195ZM7.89029 11.5148C6.26417 12.5048 5.76729 14.497 6.5552 16.0905L6.55642 16.093L8.80428 20.6764C9.30832 21.7074 10.4999 22.0548 11.4716 21.4577L10.1107 19.2225C9.86653 18.8215 9.99367 18.2986 10.3946 18.0544C10.7956 17.8103 11.3186 17.9375 11.5627 18.3384L12.9241 20.5744L14.2792 19.7504L12.9166 17.5123C12.6724 17.1113 12.7996 16.5884 13.2005 16.3442C13.6015 16.1001 14.1245 16.2272 14.3686 16.6282L15.7318 18.8671L17.0878 18.0426L15.7236 15.802C15.4795 15.4011 15.6066 14.8781 16.0076 14.634C16.4085 14.3898 16.9315 14.517 17.1756 14.9179L18.5403 17.1593C19.5122 16.5647 19.746 15.3552 19.0648 14.4282C19.0646 14.428 19.065 14.4285 19.0648 14.4282L16.0293 10.3297C16.0292 10.3297 16.0293 10.3297 16.0293 10.3297C14.9631 8.89043 12.9792 8.42096 11.3549 9.40966L7.89029 11.5148C7.8904 11.5147 7.89018 11.5148 7.89029 11.5148Z" fill="#5A6384"/>
</svg>
