<svg width="24" height="24" viewBox="0 0 24 24" fill="none" xmlns="http://www.w3.org/2000/svg">
    <path fill-rule="evenodd" clip-rule="evenodd" d="M8.7002 3.9C8.7002 2.40883 9.90903 1.2 11.4002 1.2H12.6002C14.0914 1.2 15.3002 2.40883 15.3002 3.9V4.03304L15.3943 3.93893L16.0307 4.57533L15.3943 3.93893C16.4487 2.88451 18.1583 2.88451 19.2127 3.93893L20.0612 4.78746C21.1156 5.84187 21.1156 7.55142 20.0612 8.60583L19.967 8.7H20.1002C21.5914 8.7 22.8002 9.90883 22.8002 11.4V12.6C22.8002 14.0912 21.5914 15.3 20.1002 15.3H19.9671L20.0612 15.3941C21.1156 16.4485 21.1156 18.1581 20.0612 19.2125L19.2127 20.061C18.1583 21.1154 16.4487 21.1154 15.3943 20.061L15.3002 19.9669V20.1C15.3002 21.5912 14.0914 22.8 12.6002 22.8H11.4002C9.90903 22.8 8.7002 21.5912 8.7002 20.1V19.9669L8.60608 20.061C7.55166 21.1154 5.84212 21.1154 4.7877 20.061L3.93918 19.2124C2.88476 18.158 2.88476 16.4485 3.93918 15.3941L4.03324 15.3H3.9002C2.40903 15.3 1.2002 14.0912 1.2002 12.6L1.2002 11.4C1.2002 9.90883 2.40903 8.7 3.9002 8.7H4.03328L3.93918 8.60591C2.88477 7.55149 2.88477 5.84194 3.93918 4.78753L4.78771 3.939C5.84213 2.88458 7.55167 2.88458 8.60609 3.939L8.7002 4.03311V3.9ZM11.4002 3C10.9031 3 10.5002 3.40294 10.5002 3.9V4.75737C10.5002 6.09372 8.88449 6.76298 7.93954 5.81803L7.3333 5.21179C6.98182 4.86032 6.41198 4.86032 6.0605 5.21179L5.21198 6.06032C4.8605 6.41179 4.8605 6.98164 5.21198 7.33311L5.8182 7.93934C6.76315 8.88428 6.0939 10.5 4.75754 10.5L3.9002 10.5C3.40314 10.5 3.0002 10.9029 3.0002 11.4V12.6C3.0002 13.0971 3.40314 13.5 3.9002 13.5H4.7575C6.09386 13.5 6.76311 15.1157 5.81817 16.0607L5.21197 16.6669C4.8605 17.0183 4.8605 17.5882 5.21197 17.9396L6.0605 18.7882C6.41197 19.1396 6.98182 19.1396 7.33329 18.7882L7.93953 18.1819C8.88448 17.237 10.5002 17.9062 10.5002 19.2426V20.1C10.5002 20.5971 10.9031 21 11.4002 21H12.6002C13.0973 21 13.5002 20.5971 13.5002 20.1V19.2427C13.5002 17.9063 15.1159 17.237 16.0609 18.182L16.6671 18.7882C17.0186 19.1397 17.5884 19.1397 17.9399 18.7882L18.7884 17.9397C19.1399 17.5882 19.1399 17.0184 18.7884 16.6669L18.1822 16.0607C17.2372 15.1157 17.9065 13.5 19.2428 13.5H20.1002C20.5973 13.5 21.0002 13.0971 21.0002 12.6V11.4C21.0002 10.9029 20.5973 10.5 20.1002 10.5H19.2428C17.9064 10.5 17.2372 8.88428 18.1821 7.93934L18.7884 7.33304C19.1399 6.98157 19.1399 6.41172 18.7884 6.06025L17.9399 5.21172C17.5884 4.86025 17.0186 4.86025 16.6671 5.21172L16.0609 5.81796C15.1159 6.76291 13.5002 6.09367 13.5002 4.75731V3.9C13.5002 3.40294 13.0973 3 12.6002 3H11.4002ZM12.0002 9.6C10.6747 9.6 9.6002 10.6745 9.6002 12C9.6002 13.3255 10.6747 14.4 12.0002 14.4C13.3257 14.4 14.4002 13.3255 14.4002 12C14.4002 10.6745 13.3257 9.6 12.0002 9.6ZM7.8002 12C7.8002 9.6804 9.6806 7.8 12.0002 7.8C14.3198 7.8 16.2002 9.6804 16.2002 12C16.2002 14.3196 14.3198 16.2 12.0002 16.2C9.6806 16.2 7.8002 14.3196 7.8002 12Z" fill="#575D7A"/>
</svg>
