<svg width="36" height="36" viewBox="0 0 36 36" fill="none" xmlns="http://www.w3.org/2000/svg">
    <path fill-rule="evenodd" clip-rule="evenodd" d="M14.3828 1.5H20.4172C20.8807 1.49997 21.3063 1.49994 21.6622 1.52901C22.0458 1.56036 22.4655 1.63211 22.8801 1.84333C23.4728 2.14534 23.9547 2.62723 24.2567 3.21993C24.4679 3.63449 24.5397 4.0542 24.571 4.43784C24.5874 4.6383 24.5945 4.86093 24.5976 5.1L24.7448 5.1C25.7063 5.09999 26.5088 5.09997 27.1644 5.15354C27.8482 5.2094 28.4902 5.3302 29.0973 5.63952C30.0287 6.1141 30.7859 6.87135 31.2605 7.80275C31.5698 8.40982 31.6906 9.05181 31.7465 9.7356C31.8 10.3912 31.8 11.1937 31.8 12.1552V26.8448C31.8 27.8063 31.8 28.6088 31.7465 29.2644C31.6906 29.9482 31.5698 30.5902 31.2605 31.1973C30.7859 32.1287 30.0287 32.8859 29.0973 33.3605C28.4902 33.6698 27.8482 33.7906 27.1644 33.8465C26.5088 33.9 25.7063 33.9 24.7448 33.9H10.0552C9.09373 33.9 8.29121 33.9 7.6356 33.8465C6.9518 33.7906 6.30982 33.6698 5.70275 33.3605C4.77135 32.8859 4.01409 32.1287 3.53952 31.1973C3.2302 30.5902 3.1094 29.9482 3.05353 29.2644C2.99997 28.6088 2.99998 27.8063 3 26.8448V12.1552C2.99998 11.1937 2.99997 10.3912 3.05353 9.7356C3.1094 9.05181 3.2302 8.40982 3.53952 7.80275C4.01409 6.87135 4.77135 6.1141 5.70275 5.63952C6.30982 5.3302 6.9518 5.2094 7.6356 5.15354C8.29122 5.09997 9.09374 5.09999 10.0552 5.1L10.2024 5.1C10.2055 4.86093 10.2126 4.6383 10.229 4.43784C10.2604 4.0542 10.3321 3.63449 10.5433 3.21993C10.8453 2.62722 11.3272 2.14534 11.9199 1.84333C12.3345 1.63211 12.7542 1.56036 13.1378 1.52901C13.4937 1.49994 13.9193 1.49997 14.3828 1.5ZM10.2024 7.80001H10.11C9.07963 7.80001 8.38805 7.80105 7.85546 7.84457C7.33864 7.8868 7.09153 7.96218 6.92852 8.04524C6.50516 8.26096 6.16095 8.60516 5.94524 9.02853C5.86218 9.19154 5.78679 9.43864 5.74457 9.95547C5.70105 10.488 5.7 11.1796 5.7 12.21V26.79C5.7 27.8204 5.70105 28.512 5.74457 29.0445C5.78679 29.5614 5.86218 29.8085 5.94524 29.9715C6.16095 30.3948 6.50516 30.7391 6.92852 30.9548C7.09153 31.0378 7.33864 31.1132 7.85546 31.1554C8.38805 31.199 9.07963 31.2 10.11 31.2H24.69C25.7204 31.2 26.412 31.199 26.9445 31.1554C27.4614 31.1132 27.7085 31.0378 27.8715 30.9548C28.2948 30.7391 28.6391 30.3949 28.8548 29.9715C28.9378 29.8085 29.0132 29.5614 29.0554 29.0445C29.099 28.512 29.1 27.8204 29.1 26.79V12.21C29.1 11.1796 29.099 10.488 29.0554 9.95547C29.0132 9.43864 28.9378 9.19154 28.8548 9.02853C28.6391 8.60516 28.2948 8.26096 27.8715 8.04524C27.7085 7.96218 27.4614 7.8868 26.9445 7.84457C26.412 7.80105 25.7204 7.80001 24.69 7.80001H24.5976C24.5945 8.03908 24.5874 8.26171 24.571 8.46217C24.5397 8.84581 24.4679 9.26552 24.2567 9.68008C23.9547 10.2728 23.4728 10.7547 22.8801 11.0567C22.4655 11.2679 22.0458 11.3397 21.6622 11.371C21.3063 11.4001 20.8807 11.4 20.4172 11.4H14.3828C13.9193 11.4 13.4937 11.4001 13.1378 11.371C12.7542 11.3397 12.3345 11.2679 11.9199 11.0567C11.3272 10.7547 10.8453 10.2728 10.5433 9.68008C10.3321 9.26552 10.2604 8.84581 10.229 8.46217C10.2126 8.26171 10.2055 8.03908 10.2024 7.80001ZM13.1356 4.25351L13.1383 4.25253L13.1356 4.25351ZM13.1402 4.25189C13.1562 4.24693 13.2158 4.23164 13.3577 4.22005C13.5901 4.20105 13.9037 4.2 14.43 4.2H20.37C20.8963 4.2 21.2099 4.20105 21.4423 4.22005C21.5842 4.23164 21.6438 4.24693 21.6598 4.25189C21.7401 4.29422 21.8058 4.35988 21.8481 4.44024C21.8531 4.45622 21.8684 4.51584 21.88 4.6577C21.899 4.89013 21.9 5.20368 21.9 5.73V7.17001C21.9 7.69633 21.899 8.00988 21.88 8.24231C21.8684 8.38418 21.8531 8.4438 21.8481 8.45978C21.8058 8.54013 21.7401 8.60579 21.6598 8.64812C21.6438 8.65308 21.5842 8.66838 21.4423 8.67997C21.2099 8.69896 20.8963 8.70001 20.37 8.70001H14.43C13.9037 8.70001 13.5901 8.69896 13.3577 8.67997C13.2158 8.66838 13.1562 8.65308 13.1402 8.64812C13.0599 8.60579 12.9942 8.54012 12.9519 8.45977C12.9469 8.44379 12.9316 8.38416 12.92 8.24231C12.9011 8.00988 12.9 7.69633 12.9 7.17001V5.73C12.9 5.20368 12.9011 4.89013 12.92 4.6577C12.9316 4.51586 12.9469 4.45623 12.9519 4.44024C12.9942 4.35989 13.0599 4.29422 13.1402 4.25189ZM12.9535 4.43558L12.9525 4.43831L12.9535 4.43558ZM12.9535 8.46443L12.9525 8.46176L12.9535 8.46443ZM13.1356 8.6465L13.1383 8.64751L13.1356 8.6465ZM21.6644 8.6465L21.6618 8.64749L21.6644 8.6465ZM21.8465 8.46443L21.8475 8.46176L21.8465 8.46443ZM21.8465 4.43558L21.8475 4.43825L21.8465 4.43558ZM21.6618 4.25252L21.6644 4.25351L21.6618 4.25252Z" fill="#575D7A"/>
    <path fill-rule="evenodd" clip-rule="evenodd" d="M10.3494 17.7C10.3494 16.9544 10.9538 16.35 11.6994 16.35H17.0994C17.845 16.35 18.4494 16.9544 18.4494 17.7C18.4494 18.4456 17.845 19.05 17.0994 19.05H11.6994C10.9538 19.05 10.3494 18.4456 10.3494 17.7Z" fill="#575D7A"/>
    <path fill-rule="evenodd" clip-rule="evenodd" d="M10.3494 23.7C10.3494 22.9544 10.9538 22.35 11.6994 22.35H22.4994C23.245 22.35 23.8494 22.9544 23.8494 23.7C23.8494 24.4456 23.245 25.05 22.4994 25.05H11.6994C10.9538 25.05 10.3494 24.4456 10.3494 23.7Z" fill="#575D7A"/>
</svg>
