<svg width="24" height="24" viewBox="0 0 24 24" fill="none" xmlns="http://www.w3.org/2000/svg">
    <g clip-path="url(#clip0_17_9277)">
        <path fill-rule="evenodd" clip-rule="evenodd" d="M11.8004 0.149994C12.2698 0.149994 12.6504 0.530552 12.6504 0.999994V3.38999H15.2699V2.07999C15.2699 1.61054 15.6505 1.22999 16.1199 1.22999C16.5894 1.22999 16.9699 1.61054 16.9699 2.07999V3.48154C18.4338 3.81371 19.6057 5.01867 19.6057 6.58359V9.14541C21.1301 9.77075 22.2408 11.1654 22.2408 12.88V21.75H22.6004C23.0698 21.75 23.4504 22.1306 23.4504 22.6C23.4504 23.0694 23.0698 23.45 22.6004 23.45H1.00039C0.530949 23.45 0.150391 23.0694 0.150391 22.6C0.150391 22.1306 0.530949 21.75 1.00039 21.75H1.34922V12.88C1.34922 11.1613 2.46531 9.76405 3.99531 9.14092V6.58359C3.99531 5.01954 5.16488 3.81731 6.63086 3.48314V2.07999C6.63086 1.61054 7.01142 1.22999 7.48086 1.22999C7.9503 1.22999 8.33086 1.61054 8.33086 2.07999V3.38999H10.9504V0.999994C10.9504 0.530552 11.3309 0.149994 11.8004 0.149994ZM11.7978 5.08999H7.45891C6.39203 5.08999 5.69531 5.84145 5.69531 6.58359V8.79103C5.72869 8.79034 5.76212 8.78999 5.79562 8.78999H17.7944C17.8316 8.78999 17.8687 8.79042 17.9057 8.79127V6.58359C17.9057 5.8393 17.2066 5.08999 16.1529 5.08999H11.803C11.8021 5.08999 11.8012 5.08999 11.8004 5.08999C11.7995 5.08999 11.7987 5.08999 11.7978 5.08999ZM3.04922 21.75H20.5408V14.8208H20.5267C20.1903 14.8208 19.9187 15.0949 19.9187 15.4288V15.7636C19.9187 17.0471 18.8753 18.0716 17.6107 18.0716C16.3272 18.0716 15.3027 17.0281 15.3027 15.7636V15.4288C15.3027 15.0923 15.0286 14.8208 14.6947 14.8208C14.3583 14.8208 14.0867 15.0949 14.0867 15.4288V15.7636C14.0867 17.0471 13.0433 18.0716 11.7787 18.0716C10.4952 18.0716 9.47074 17.0281 9.47074 15.7636V15.4288C9.47074 15.0923 9.1966 14.8208 8.86273 14.8208C8.52627 14.8208 8.25473 15.0949 8.25473 15.4288V15.7636C8.25473 17.0471 7.21127 18.0716 5.94673 18.0716C4.6632 18.0716 3.63873 17.0281 3.63873 15.7636V15.4072C3.63873 15.0742 3.37798 14.8081 3.04922 14.7993V21.75ZM3.04922 13.0988L3.0702 13.0993C4.33291 13.1198 5.33873 14.1467 5.33873 15.4072V15.7636C5.33873 16.0974 5.61027 16.3716 5.94673 16.3716C6.2806 16.3716 6.55473 16.1 6.55473 15.7636V15.4288C6.55473 14.1642 7.5792 13.1208 8.86273 13.1208C10.1273 13.1208 11.1707 14.1452 11.1707 15.4288V15.7636C11.1707 16.0974 11.4423 16.3716 11.7787 16.3716C12.1126 16.3716 12.3867 16.1 12.3867 15.7636V15.4288C12.3867 14.1642 13.4112 13.1208 14.6947 13.1208C15.9593 13.1208 17.0027 14.1452 17.0027 15.4288V15.7636C17.0027 16.0974 17.2743 16.3716 17.6107 16.3716C17.9446 16.3716 18.2187 16.1 18.2187 15.7636V15.4288C18.2187 14.1642 19.2432 13.1208 20.5267 13.1208H20.5408V12.88C20.5408 11.6383 19.3982 10.49 17.7944 10.49H5.79562C4.19179 10.49 3.04922 11.6383 3.04922 12.88V13.0988Z" fill="#393F5A"/>
    </g>
    <defs>
        <clipPath id="clip0_17_9277">
            <rect width="24" height="24" fill="white"/>
        </clipPath>
    </defs>
</svg>
