<svg width="24" height="24" viewBox="0 0 24 24" fill="none" xmlns="http://www.w3.org/2000/svg">
    <g clip-path="url(#clip0_9776_20439)">
        <path fill-rule="evenodd" clip-rule="evenodd" d="M0.100098 0.999976C0.100098 0.502919 0.503041 0.0999756 1.0001 0.0999756H2.8793C4.18124 0.0999756 5.26847 0.959598 5.63827 2.11957H19.0685C21.3916 2.11957 23.1683 4.01811 23.001 6.33501C23.001 6.3351 23.001 6.33493 23.001 6.33501L22.4178 14.435L22.4174 14.4394C22.2629 16.4482 20.5153 18.0892 18.4853 18.0892H6.98329C4.68815 18.0892 2.87746 16.1294 3.07329 13.841C3.07333 13.8406 3.07336 13.8402 3.0734 13.8397L3.96961 3.08523C4.02276 2.45332 3.51761 1.89998 2.8793 1.89998H1.0001C0.503041 1.89998 0.100098 1.49703 0.100098 0.999976ZM5.70632 3.91957L4.86699 13.9915L4.8668 13.9938C4.76099 15.2256 5.73646 16.2892 6.98329 16.2892H18.4853C19.565 16.2892 20.5384 15.3826 20.6226 14.3035C20.6226 14.3028 20.6227 14.3021 20.6227 14.3014L21.0491 8.37998H8.5601C8.06304 8.37998 7.6601 7.97703 7.6601 7.47998C7.6601 6.98292 8.06304 6.57998 8.5601 6.57998H21.1787L21.2056 6.20575C21.2973 4.93717 20.3525 3.91957 19.0685 3.91957H5.70632ZM7.7501 20.8C7.50157 20.8 7.3001 21.0014 7.3001 21.25C7.3001 21.4985 7.50157 21.7 7.7501 21.7C7.99863 21.7 8.2001 21.4985 8.2001 21.25C8.2001 21.0014 7.99863 20.8 7.7501 20.8ZM5.5001 21.25C5.5001 20.0073 6.50746 19 7.7501 19C8.99274 19 10.0001 20.0073 10.0001 21.25C10.0001 22.4926 8.99274 23.5 7.7501 23.5C6.50746 23.5 5.5001 22.4926 5.5001 21.25ZM16.3901 20.8C16.1416 20.8 15.9401 21.0014 15.9401 21.25C15.9401 21.4985 16.1416 21.7 16.3901 21.7C16.6386 21.7 16.8401 21.4985 16.8401 21.25C16.8401 21.0014 16.6386 20.8 16.3901 20.8ZM14.1401 21.25C14.1401 20.0073 15.1475 19 16.3901 19C17.6327 19 18.6401 20.0073 18.6401 21.25C18.6401 22.4926 17.6327 23.5 16.3901 23.5C15.1475 23.5 14.1401 22.4926 14.1401 21.25Z" fill="#5A6384"/>
    </g>
    <defs>
        <clipPath id="clip0_9776_20439">
            <rect width="24" height="24" fill="white"/>
        </clipPath>
    </defs>
</svg>
