<svg width="24" height="24" viewBox="0 0 24 24" fill="none" xmlns="http://www.w3.org/2000/svg">
    <path fill-rule="evenodd" clip-rule="evenodd" d="M16.3178 5.76398C16.3178 3.44637 14.3266 1.59048 11.9673 1.81936L11.964 1.81968C10.0473 1.99857 8.39375 3.94919 8.39375 5.96926V6.47386H16.3178V5.76398ZM18.1178 6.55023V5.76398C18.1178 2.39896 15.2263 -0.304309 11.7951 0.0276178C8.85064 0.303402 6.59375 3.12785 6.59375 5.96926V6.55011C4.94048 6.73884 3.7391 7.28018 2.96617 8.19911C1.99294 9.35617 1.90713 10.8705 2.06079 12.2592L2.87165 18.7468C2.99177 19.8613 3.2747 21.1034 4.28905 22.0301C5.29769 22.9516 6.84996 23.4001 9.11388 23.4001H15.5966C17.8605 23.4001 19.4128 22.9516 20.4214 22.0301C21.4358 21.1034 21.7187 19.8613 21.8388 18.7468L22.6482 12.2719L22.6497 12.2592C22.8033 10.8705 22.7175 9.35617 21.7443 8.19911C20.9715 7.28038 19.7705 6.73908 18.1178 6.55023ZM3.84919 12.0551L4.65872 18.5313L4.66055 18.547C4.76781 19.5482 4.98838 20.2309 5.50312 20.7012C6.02602 21.1789 7.0344 21.6001 9.11388 21.6001H15.5966C17.676 21.6001 18.6844 21.1789 19.2073 20.7012C19.7221 20.2309 19.9426 19.5482 20.0499 18.547L20.0517 18.5313L20.8613 12.0552C20.9982 10.8108 20.8514 9.93388 20.3668 9.35776C19.89 8.79089 18.8781 8.27386 16.677 8.27386H8.03344C5.83232 8.27386 4.82048 8.79089 4.34368 9.35776C3.8591 9.93386 3.7123 10.8107 3.84919 12.0551ZM7.66733 11.6956C7.66733 11.1986 8.07027 10.7956 8.56733 10.7956H8.57703C9.07409 10.7956 9.47703 11.1986 9.47703 11.6956C9.47703 12.1927 9.07409 12.5956 8.57703 12.5956H8.56733C8.07027 12.5956 7.66733 12.1927 7.66733 11.6956ZM15.2326 11.6956C15.2326 11.1986 15.6355 10.7956 16.1326 10.7956H16.1423C16.6393 10.7956 17.0423 11.1986 17.0423 11.6956C17.0423 12.1927 16.6393 12.5956 16.1423 12.5956H16.1326C15.6355 12.5956 15.2326 12.1927 15.2326 11.6956Z" fill="#575D7A"/>
</svg>
