<svg width="24" height="24" viewBox="0 0 24 24" fill="none" xmlns="http://www.w3.org/2000/svg">
    <path fill-rule="evenodd" clip-rule="evenodd" d="M9.98874 2.4H14.0117C14.3206 2.39997 14.6044 2.39995 14.8416 2.41933C15.0974 2.44023 15.3772 2.48807 15.6536 2.62888C16.0487 2.83022 16.37 3.15148 16.5713 3.54662C16.7121 3.82298 16.76 4.10279 16.7809 4.35855C16.8002 4.59577 16.8002 4.87954 16.8002 5.18852L16.8002 6L20.0117 5.99999C20.3206 5.99997 20.6044 5.99995 20.8416 6.01933C21.0974 6.04023 21.3772 6.08807 21.6536 6.22888C22.0487 6.43022 22.37 6.75148 22.5713 7.14662C22.7121 7.42298 22.76 7.70279 22.7809 7.95855C22.8002 8.19577 22.8002 8.47954 22.8002 8.78852V14.0115C22.8002 14.3205 22.8002 14.6042 22.7809 14.8414C22.76 15.0972 22.7121 15.377 22.5713 15.6534C22.37 16.0485 22.0487 16.3698 21.6536 16.5711C21.6358 16.5802 21.618 16.5888 21.6002 16.5972V18.8115C21.6002 19.1205 21.6002 19.4042 21.5809 19.6414C21.56 19.8972 21.5121 20.177 21.3713 20.4534C21.17 20.8485 20.8487 21.1698 20.4536 21.3711C20.1772 21.5119 19.8974 21.5598 19.6416 21.5807C19.4044 21.6 19.1207 21.6 18.8117 21.6H5.18872C4.87974 21.6 4.59597 21.6 4.35875 21.5807C4.10299 21.5598 3.82319 21.5119 3.54682 21.3711C3.15168 21.1698 2.83042 20.8485 2.62908 20.4534C2.48827 20.177 2.44043 19.8972 2.41954 19.6414C2.40015 19.4042 2.40017 19.1204 2.4002 18.8115L2.4002 16.5972C2.3824 16.5888 2.3646 16.5802 2.34682 16.5711C1.95168 16.3698 1.63042 16.0485 1.42908 15.6534C1.28827 15.377 1.24043 15.0972 1.21954 14.8414C1.20015 14.6042 1.20017 14.3204 1.2002 14.0115V8.78853C1.20017 8.47955 1.20015 8.19577 1.21954 7.95855C1.24043 7.70279 1.28827 7.42298 1.42908 7.14662C1.63042 6.75148 1.95168 6.43022 2.34682 6.22888C2.62319 6.08807 2.90299 6.04023 3.15875 6.01933C3.39598 5.99995 3.67976 5.99997 3.98874 5.99999C3.9992 6 4.00968 6 4.0202 6H7.2002L7.2002 5.18854C7.20017 4.87956 7.20015 4.59577 7.21954 4.35855C7.24043 4.10279 7.28827 3.82298 7.42908 3.54662C7.63042 3.15148 7.95168 2.83022 8.34682 2.62888C8.62319 2.48807 8.90299 2.44023 9.15875 2.41933C9.39597 2.39995 9.67975 2.39997 9.98874 2.4ZM4.0202 7.8C3.66932 7.8 3.46028 7.8007 3.30533 7.81336C3.21076 7.82108 3.17101 7.83128 3.16035 7.83458C3.10679 7.86281 3.06301 7.90658 3.03479 7.96015C3.03148 7.97081 3.02128 8.01056 3.01356 8.10513C3.0009 8.26008 3.0002 8.46911 3.0002 8.82V13.98C3.0002 14.3309 3.0009 14.5399 3.01356 14.6949C3.02128 14.7894 3.03148 14.8292 3.03479 14.8398C3.06301 14.8934 3.10679 14.9372 3.16035 14.9654C3.17101 14.9687 3.21076 14.9789 3.30533 14.9866C3.31893 14.9877 3.33294 14.9888 3.34743 14.9897C3.35328 14.99 3.35912 14.9904 3.36494 14.9908C3.51368 14.9995 3.71234 15 4.0202 15H8.4002V14.1C8.4002 13.6029 8.80314 13.2 9.3002 13.2C9.79725 13.2 10.2002 13.6029 10.2002 14.1V15H13.8002V14.1C13.8002 13.6029 14.2031 13.2 14.7002 13.2C15.1973 13.2 15.6002 13.6029 15.6002 14.1V15H19.9802C20.2881 15 20.4867 14.9995 20.6355 14.9908C20.6413 14.9904 20.6471 14.99 20.653 14.9897C20.6675 14.9888 20.6815 14.9877 20.6951 14.9866C20.7896 14.9789 20.8294 14.9687 20.84 14.9654C20.8936 14.9372 20.9374 14.8934 20.9656 14.8398C20.9689 14.8292 20.9791 14.7894 20.9868 14.6949C20.9995 14.5399 21.0002 14.3309 21.0002 13.98V8.82C21.0002 8.46911 20.9995 8.26008 20.9868 8.10513C20.9791 8.01056 20.9689 7.97081 20.9656 7.96015C20.9374 7.90658 20.8936 7.86281 20.84 7.83459C20.8294 7.83128 20.7896 7.82108 20.6951 7.81336C20.5401 7.8007 20.3311 7.8 19.9802 7.8H4.0202ZM15.0002 6H9.0002V5.22C9.0002 4.86911 9.0009 4.66008 9.01356 4.50513C9.02128 4.41056 9.03148 4.37081 9.03479 4.36015C9.06301 4.30659 9.10679 4.26281 9.16035 4.23459C9.17101 4.23128 9.21076 4.22108 9.30533 4.21336C9.46028 4.2007 9.66932 4.2 10.0202 4.2H13.9802C14.3311 4.2 14.5401 4.2007 14.6951 4.21336C14.7896 4.22108 14.8294 4.23128 14.84 4.23459C14.8936 4.26281 14.9374 4.30658 14.9656 4.36015C14.9689 4.37081 14.9791 4.41056 14.9868 4.50513C14.9995 4.66008 15.0002 4.86911 15.0002 5.22V6ZM14.9645 4.35705C14.9645 4.35701 14.9648 4.35757 14.9652 4.35883L14.9645 4.35705ZM14.8431 4.23567C14.8431 4.23568 14.8425 4.23547 14.8414 4.235L14.8431 4.23567ZM9.15725 4.23567C9.15721 4.23566 9.15778 4.23543 9.15903 4.23501L9.15725 4.23567ZM9.03521 4.35883C9.03563 4.35757 9.03586 4.35701 9.03587 4.35705L9.03521 4.35883ZM20.8431 7.83567C20.8431 7.83568 20.8425 7.83547 20.8413 7.835L20.8431 7.83567ZM20.9645 7.95705C20.9645 7.95701 20.9648 7.95757 20.9652 7.95883L20.9645 7.95705ZM20.9645 14.8429C20.9645 14.8429 20.9647 14.8423 20.9652 14.8411L20.9645 14.8429ZM20.8431 14.9643C20.8432 14.9643 20.8426 14.9646 20.8413 14.965L20.8431 14.9643ZM19.8002 16.8H15.6002V17.1C15.6002 17.5971 15.1973 18 14.7002 18C14.2031 18 13.8002 17.5971 13.8002 17.1V16.8H10.2002V17.1C10.2002 17.5971 9.79725 18 9.3002 18C8.80314 18 8.4002 17.5971 8.4002 17.1V16.8H4.2002V18.78C4.2002 19.1309 4.2009 19.3399 4.21356 19.4949C4.22129 19.5894 4.23148 19.6292 4.23479 19.6398C4.26301 19.6934 4.30679 19.7372 4.36035 19.7654C4.37101 19.7687 4.41076 19.7789 4.50533 19.7866C4.66028 19.7993 4.86932 19.8 5.2202 19.8H18.7802C19.1311 19.8 19.3401 19.7993 19.4951 19.7866C19.5896 19.7789 19.6294 19.7687 19.64 19.7654C19.6936 19.7372 19.7374 19.6934 19.7656 19.6398C19.7689 19.6292 19.7791 19.5894 19.7868 19.4949C19.7995 19.3399 19.8002 19.1309 19.8002 18.78V16.8ZM19.7645 19.6429C19.7645 19.643 19.7647 19.6423 19.7652 19.6411L19.7645 19.6429ZM19.6432 19.7643C19.6432 19.7643 19.6426 19.7646 19.6414 19.765L19.6432 19.7643ZM4.35725 19.7643C4.35729 19.7643 4.35792 19.7645 4.35903 19.765L4.35725 19.7643ZM4.23521 19.6412C4.23567 19.6423 4.23588 19.6429 4.23587 19.6429L4.23521 19.6412ZM3.15725 14.9643C3.15728 14.9643 3.15791 14.9645 3.15903 14.965L3.15725 14.9643ZM3.03521 14.8412C3.03568 14.8423 3.03588 14.8429 3.03587 14.8429L3.03521 14.8412ZM3.0352 7.95886C3.03562 7.95758 3.03586 7.95701 3.03587 7.95705L3.0352 7.95886ZM3.15906 7.835C3.15792 7.83547 3.15728 7.83568 3.15725 7.83567L3.15906 7.835Z" fill="#575D7A"/>
</svg>
