<svg width="20" height="18" viewBox="0 0 20 18" fill="none" xmlns="http://www.w3.org/2000/svg">
    <path
        d="M19.6 6.12014C19.6 5.81565 19.4736 5.52364 19.2486 5.30834C19.0235 5.09303 18.7183 4.97208 18.4 4.97208C18.4 4.97208 17.9328 4.97208 17.9 4.9782C17.3018 3.9178 16.6165 2.90457 15.8504 1.94808C15.4507 1.45081 14.8968 1.08726 14.268 0.909462C12.8592 0.2543 7.14082 0.2543 5.73202 0.909462C5.10323 1.08726 4.54934 1.45081 4.14962 1.94808C3.38358 2.90457 2.69823 3.9178 2.10002 4.9782C2.06722 4.97208 1.60002 4.97208 1.60002 4.97208C1.28176 4.97208 0.97654 5.09303 0.751496 5.30834C0.526453 5.52364 0.400024 5.81565 0.400024 6.12014L0.400024 11.0951C0.400179 11.6323 0.548112 12.1601 0.828963 12.6254C1.10981 13.0906 1.51369 13.4769 2.00002 13.7456V14.922C2.00002 15.5309 2.25288 16.115 2.70297 16.5456C3.15306 16.9762 3.7635 17.2181 4.40002 17.2181C5.03654 17.2181 5.64699 16.9762 6.09708 16.5456C6.54717 16.115 6.80002 15.5309 6.80002 14.922V14.1566H13.2V14.922C13.2 15.5309 13.4529 16.115 13.903 16.5456C14.3531 16.9762 14.9635 17.2181 15.6 17.2181C16.2365 17.2181 16.847 16.9762 17.2971 16.5456C17.7472 16.115 18 15.5309 18 14.922V13.7456C18.4864 13.4769 18.8902 13.0906 19.1711 12.6254C19.4519 12.1601 19.5999 11.6323 19.6 11.0951V6.12014ZM5.41922 2.87954C5.61521 2.63773 5.88592 2.46123 6.19282 2.37516C7.40802 1.80036 12.5928 1.80036 13.8072 2.37516C14.1141 2.46123 14.3848 2.63773 14.5808 2.87954C15.7957 4.4036 16.7963 6.07362 17.5568 7.84683C12.5455 7.14727 7.45456 7.14727 2.44322 7.84683C3.20379 6.07362 4.20433 4.4036 5.41922 2.87954ZM5.20002 14.922C5.20002 15.125 5.11574 15.3196 4.96571 15.4632C4.81568 15.6067 4.6122 15.6873 4.40002 15.6873C4.18785 15.6873 3.98437 15.6067 3.83434 15.4632C3.68431 15.3196 3.60002 15.125 3.60002 14.922V14.1566H5.20002V14.922ZM16.4 14.922C16.4 15.125 16.3157 15.3196 16.1657 15.4632C16.0157 15.6067 15.8122 15.6873 15.6 15.6873C15.3879 15.6873 15.1844 15.6067 15.0343 15.4632C14.8843 15.3196 14.8 15.125 14.8 14.922V14.1566H16.4V14.922ZM16.4 12.6258H3.60002C3.17568 12.6258 2.76871 12.4646 2.46865 12.1775C2.1686 11.8904 2.00002 11.5011 2.00002 11.0951V9.45488C4.64863 9.06751 7.32115 8.84839 10 8.79896C12.6789 8.84839 15.3514 9.06751 18 9.45488V11.0951C18 11.5011 17.8315 11.8904 17.5314 12.1775C17.2313 12.4646 16.8244 12.6258 16.4 12.6258ZM5.20002 11.0951C5.20002 11.2981 5.11574 11.4927 4.96571 11.6363C4.81568 11.7798 4.6122 11.8605 4.40002 11.8605C4.18785 11.8605 3.98437 11.7798 3.83434 11.6363C3.68431 11.4927 3.60002 11.2981 3.60002 11.0951C3.60002 10.8921 3.68431 10.6974 3.83434 10.5539C3.98437 10.4103 4.18785 10.3297 4.40002 10.3297C4.6122 10.3297 4.81568 10.4103 4.96571 10.5539C5.11574 10.6974 5.20002 10.8921 5.20002 11.0951ZM16.4 11.0951C16.4 11.2981 16.3157 11.4927 16.1657 11.6363C16.0157 11.7798 15.8122 11.8605 15.6 11.8605C15.3879 11.8605 15.1844 11.7798 15.0343 11.6363C14.8843 11.4927 14.8 11.2981 14.8 11.0951C14.8 10.8921 14.8843 10.6974 15.0343 10.5539C15.1844 10.4103 15.3879 10.3297 15.6 10.3297C15.8122 10.3297 16.0157 10.4103 16.1657 10.5539C16.3157 10.6974 16.4 10.8921 16.4 11.0951Z"
        fill="#8F95B2" />
</svg>