<svg width="24" height="25" viewBox="0 0 24 25" fill="none" xmlns="http://www.w3.org/2000/svg">
    <path d="M22.8002 12.3683C22.7997 11.7476 22.6158 11.141 22.2716 10.6244C21.9274 10.1079 21.4382 9.70451 20.8654 9.46494C20.4999 7.3791 19.4103 5.48891 17.7883 4.12684C16.1663 2.76477 14.1157 2.01807 11.9974 2.01807C9.87901 2.01807 7.82848 2.76477 6.20647 4.12684C4.58446 5.48891 3.49486 7.3791 3.12933 9.46494C2.47571 9.73982 1.93394 10.2271 1.59164 10.8479C1.24934 11.4686 1.12651 12.1867 1.24302 12.8859C1.35953 13.5852 1.70857 14.2247 2.23369 14.701C2.75881 15.1774 3.42931 15.4628 4.13678 15.511C4.60178 16.4975 5.23241 17.3969 6.00132 18.1705C4.87466 19.4002 4.15964 20.9505 3.95581 22.6056C3.94106 22.7229 3.94957 22.842 3.98087 22.956C4.01216 23.07 4.06562 23.1767 4.13819 23.2701C4.21076 23.3634 4.30102 23.4416 4.40382 23.5001C4.50661 23.5585 4.61993 23.5962 4.73728 23.6109C4.77433 23.6154 4.8116 23.6178 4.84892 23.6181C5.06803 23.6178 5.27952 23.5377 5.44377 23.3927C5.60802 23.2478 5.71374 23.0479 5.74113 22.8306C5.90436 21.5257 6.47633 20.306 7.37519 19.3458C8.71588 20.3351 10.3305 20.8844 11.9965 20.9181C13.6576 20.8841 15.2674 20.3371 16.6052 19.3521C17.5001 20.3106 18.0697 21.5269 18.2329 22.8279C18.2601 23.0454 18.3657 23.2454 18.53 23.3906C18.6943 23.5357 18.9059 23.616 19.1251 23.6163C19.1628 23.6161 19.2003 23.6137 19.2377 23.6091C19.4745 23.5794 19.6899 23.4569 19.8364 23.2686C19.983 23.0803 20.0487 22.8415 20.0191 22.6047C19.8168 20.9538 19.1053 19.4069 17.9835 18.1786C18.7567 17.4027 19.3907 16.4998 19.858 15.5092C20.6554 15.4563 21.403 15.1024 21.9492 14.5192C22.4955 13.9361 22.7997 13.1672 22.8002 12.3683ZM19.4222 13.694C19.2122 13.6555 18.9954 13.6934 18.811 13.8009C18.6265 13.9083 18.4866 14.0782 18.4166 14.2798C17.5919 16.618 14.8144 19.1182 11.9965 19.1182C9.17851 19.1182 6.40105 16.6162 5.57637 14.278C5.50618 14.0765 5.36626 13.9068 5.18185 13.7993C4.99745 13.6919 4.7807 13.6539 4.57073 13.6922C4.49591 13.7068 4.42004 13.7155 4.34385 13.7183C4.00964 13.7143 3.68879 13.5865 3.44334 13.3597C3.1979 13.133 3.0453 12.8233 3.01506 12.4905C2.98482 12.1578 3.07909 11.8257 3.27963 11.5584C3.48018 11.2911 3.77275 11.1076 4.10076 11.0435C4.29218 11.0088 4.46721 10.9131 4.59965 10.7706C4.73208 10.6282 4.8148 10.4467 4.83542 10.2533C4.95566 9.10252 5.35292 7.99795 5.99324 7.03407C6.63355 6.07018 7.49787 5.27565 8.51228 4.71843C8.36487 5.2909 8.35807 5.89052 8.49247 6.46619C8.67551 7.22748 9.10186 7.90836 9.70687 8.40563C10.3119 8.90289 11.0626 9.18941 11.8452 9.22177C12.6277 9.25413 13.3996 9.03056 14.0436 8.58494C14.6876 8.13933 15.1687 7.49597 15.4141 6.75239C15.4541 6.6203 15.4624 6.48065 15.4384 6.34474C15.4144 6.20883 15.3587 6.08048 15.2759 5.97008C15.193 5.85967 15.0854 5.7703 14.9616 5.70921C14.8378 5.64812 14.7013 5.61701 14.5633 5.61841H14.4273C14.2617 5.62383 14.1022 5.68178 13.9717 5.78388C13.8412 5.88597 13.7467 6.02691 13.7017 6.1863C13.597 6.50094 13.4075 6.78057 13.1539 6.99435C12.9003 7.20812 12.5926 7.34772 12.2647 7.39776C11.9368 7.4478 11.6015 7.40632 11.2957 7.2779C10.9898 7.14948 10.7255 6.93912 10.5317 6.67002C10.3379 6.40091 10.2222 6.08353 10.1974 5.75288C10.1726 5.42222 10.2397 5.09115 10.3912 4.79619C10.5428 4.50123 10.7728 4.25383 11.0561 4.0813C11.3393 3.90877 11.6648 3.8178 11.9965 3.81844C13.7753 3.81419 15.4925 4.46994 16.8154 5.65872C18.1383 6.84749 18.9729 8.48471 19.1575 10.2533C19.1782 10.4467 19.2609 10.6282 19.3933 10.7706C19.5257 10.9131 19.7008 11.0088 19.8922 11.0435C20.2202 11.1076 20.5128 11.2911 20.7133 11.5584C20.9139 11.8257 21.0081 12.1578 20.9779 12.4905C20.9477 12.8233 20.7951 13.133 20.5496 13.3597C20.3042 13.5865 19.9833 13.7143 19.6491 13.7183C19.573 13.7161 19.4971 13.708 19.4222 13.694Z" fill="#8F95B2"/>
    <path d="M9.60039 12.8181C10.2631 12.8181 10.8004 12.2808 10.8004 11.6181C10.8004 10.9553 10.2631 10.4181 9.60039 10.4181C8.93765 10.4181 8.40039 10.9553 8.40039 11.6181C8.40039 12.2808 8.93765 12.8181 9.60039 12.8181Z" fill="#8F95B2"/>
    <path d="M14.4002 12.8181C15.0629 12.8181 15.6002 12.2808 15.6002 11.6181C15.6002 10.9553 15.0629 10.4181 14.4002 10.4181C13.7375 10.4181 13.2002 10.9553 13.2002 11.6181C13.2002 12.2808 13.7375 12.8181 14.4002 12.8181Z" fill="#8F95B2"/>
</svg>
