<svg width="20" height="21" viewBox="0 0 20 21" fill="none" xmlns="http://www.w3.org/2000/svg">
    <path
        d="M12.828 13.6461C12.0779 14.396 11.0607 14.8173 10 14.8173C8.93934 14.8173 7.92211 14.396 7.172 13.6461M7 8.81812H7.01M13 8.81812H13.01M19 10.8181C19 12 18.7672 13.1703 18.3149 14.2623C17.8626 15.3542 17.1997 16.3463 16.364 17.1821C15.5282 18.0178 14.5361 18.6807 13.4442 19.133C12.3522 19.5853 11.1819 19.8181 10 19.8181C8.8181 19.8181 7.64778 19.5853 6.55585 19.133C5.46392 18.6807 4.47177 18.0178 3.63604 17.1821C2.80031 16.3463 2.13738 15.3542 1.68508 14.2623C1.23279 13.1703 1 12 1 10.8181C1 8.43117 1.94821 6.14198 3.63604 4.45415C5.32387 2.76633 7.61305 1.81812 10 1.81812C12.3869 1.81812 14.6761 2.76633 16.364 4.45415C18.0518 6.14198 19 8.43117 19 10.8181Z"
        stroke="#8F95B2" stroke-width="2" stroke-linecap="round" stroke-linejoin="round" />
</svg>