<svg width="22" height="22" viewBox="0 0 22 22" fill="none" xmlns="http://www.w3.org/2000/svg">
    <path
        d="M11 0.0180664C8.13656 0.0211734 5.39134 1.16372 3.36662 3.19501C1.3419 5.2263 0.203048 7.98043 0.199951 10.8531C0.739951 25.2095 21.2599 25.2032 21.7999 10.8531C21.7969 7.98043 20.658 5.2263 18.6333 3.19501C16.6086 1.16372 13.8633 0.0211734 11 0.0180664ZM11 19.8823C8.61381 19.8797 6.32614 18.9276 4.63888 17.2348C2.95162 15.5421 2.00257 13.247 1.99995 10.8531C2.44995 -1.10878 19.5499 -1.10607 19.9999 10.8531C19.9973 13.247 19.0483 15.5421 17.361 17.2348C15.6738 18.9276 13.3861 19.8797 11 19.8823ZM16.2577 14.0513C15.7289 14.9866 14.9655 15.7668 14.0431 16.3145C13.1208 16.8623 12.0717 17.1584 11 17.1736C9.9275 17.1585 8.87759 16.8625 7.95436 16.3148C7.03113 15.7671 6.26665 14.9868 5.73675 14.0513C5.64107 13.9014 5.59165 13.7265 5.5947 13.5486C5.59776 13.3707 5.65316 13.1976 5.75393 13.0512C5.85471 12.9048 5.99637 12.7914 6.16112 12.7255C6.32588 12.6596 6.50638 12.644 6.67995 12.6806C8.06387 13.2037 9.52231 13.5012 11 13.5619C12.4752 13.5005 13.9311 13.203 15.3127 12.6806C15.4865 12.6435 15.6672 12.6588 15.8323 12.7245C15.9974 12.7903 16.1394 12.9036 16.2404 13.0501C16.3414 13.1966 16.397 13.3699 16.4001 13.548C16.4032 13.7262 16.3536 13.9013 16.2577 14.0513ZM5.36235 11.5339C5.24658 11.4538 5.16014 11.3379 5.11625 11.2039C5.07237 11.0698 5.07346 10.9251 5.11935 10.7917L5.58645 9.34162L4.35705 8.4387C4.24478 8.35614 4.16138 8.24012 4.11874 8.10718C4.0761 7.97425 4.07641 7.8312 4.11962 7.69845C4.16283 7.5657 4.24673 7.45003 4.35935 7.36796C4.47197 7.28589 4.60755 7.2416 4.74675 7.24143H6.25965L6.71955 5.80308C6.76369 5.67048 6.84827 5.55517 6.96133 5.47346C7.0744 5.39175 7.21021 5.34779 7.34955 5.34779C7.48889 5.34779 7.6247 5.39175 7.73777 5.47346C7.85083 5.55517 7.93541 5.67048 7.97955 5.80308L8.43855 7.24143H9.95145C10.0909 7.24134 10.2268 7.28552 10.3396 7.36764C10.4525 7.44976 10.5366 7.5656 10.5799 7.69859C10.6231 7.83157 10.6233 7.97487 10.5804 8.10798C10.5376 8.24109 10.4538 8.35717 10.3412 8.4396L9.11175 9.34252L9.57885 10.7926C9.62163 10.9261 9.62119 11.0697 9.57758 11.2029C9.53397 11.3361 9.44944 11.452 9.33611 11.534C9.22277 11.616 9.08646 11.6599 8.94672 11.6594C8.80698 11.6589 8.67099 11.614 8.55825 11.5312L7.34955 10.6391L6.13995 11.5303C6.02771 11.6141 5.89167 11.6597 5.75174 11.6603C5.61182 11.661 5.47536 11.6167 5.36235 11.5339ZM17.5583 8.4396L16.3288 9.34252L16.7959 10.7926C16.8387 10.9261 16.8383 11.0697 16.7947 11.2029C16.7511 11.3361 16.6665 11.452 16.5532 11.534C16.4399 11.616 16.3036 11.6599 16.1638 11.6594C16.0241 11.6589 15.8881 11.614 15.7753 11.5312L14.5667 10.6391L13.357 11.5312C13.2444 11.6145 13.1082 11.6594 12.9683 11.6594C12.8283 11.6594 12.6921 11.6145 12.5794 11.5312C12.4637 11.4511 12.3772 11.3352 12.3334 11.2012C12.2895 11.0671 12.2906 10.9224 12.3364 10.789L12.8045 9.33891L11.5742 8.43599C11.463 8.35308 11.3806 8.23723 11.3387 8.1048C11.2968 7.97237 11.2974 7.83007 11.3405 7.69801C11.3836 7.56595 11.4669 7.45082 11.5788 7.36889C11.6907 7.28696 11.8254 7.24237 11.9639 7.24143H13.4777L13.9375 5.80308C13.9812 5.67004 14.0656 5.55422 14.1788 5.47212C14.2919 5.39002 14.4279 5.34582 14.5675 5.34582C14.7072 5.34582 14.8432 5.39002 14.9563 5.47212C15.0695 5.55422 15.1539 5.67004 15.1975 5.80308L15.6557 7.24143H17.1686C17.308 7.24134 17.4439 7.28552 17.5567 7.36764C17.6696 7.44976 17.7537 7.5656 17.797 7.69859C17.8402 7.83157 17.8404 7.97487 17.7975 8.10798C17.7547 8.24109 17.6709 8.35717 17.5583 8.4396Z"
        fill="#8F95B2" />
</svg>