<svg width="22" height="22" viewBox="0 0 22 22" fill="none" xmlns="http://www.w3.org/2000/svg">
    <path
        d="M16.4004 10.8181C16.4004 11.3149 15.9972 11.7181 15.5005 11.7181C15.0037 11.7181 14.6006 11.3149 14.6006 10.8181C14.6006 10.3213 15.0037 9.91807 15.5005 9.91807C15.9972 9.91807 16.4004 10.3213 16.4004 10.8181ZM6.50123 4.51807C6.99798 4.51807 7.40115 4.11577 7.40115 3.61807C7.40115 2.62537 8.20838 1.81807 9.201 1.81807C10.1936 1.81807 11.0008 2.62537 11.0008 3.61807C11.0008 4.11577 11.404 4.51807 11.9008 4.51807C12.3975 4.51807 12.8007 4.11577 12.8007 3.61807C12.8007 1.63267 11.1862 0.0180664 9.201 0.0180664C7.21577 0.0180664 5.6013 1.63267 5.6013 3.61807C5.6013 4.11577 6.00447 4.51807 6.50123 4.51807ZM21.7999 11.7181V13.5181C21.7999 14.5135 21.1268 15.1192 20.3889 15.2767C19.794 16.7653 18.7042 18.0226 17.3003 18.8353V18.9181C17.3003 20.4067 16.089 21.6181 14.6006 21.6181C13.427 21.6181 12.4263 20.8657 12.0547 19.8181H9.94614C9.57447 20.8657 8.57375 21.6181 7.40025 21.6181C5.91178 21.6181 4.70048 20.4067 4.70048 18.9181V18.847C2.32917 17.4799 0.93699 14.9077 1.11607 12.1411C1.17277 11.2609 1.39505 10.4248 1.75052 9.66067C0.835298 9.22777 0.199951 8.29627 0.199951 7.21807C0.199951 5.72947 1.41125 4.51807 2.89973 4.51807C3.39648 4.51807 3.79965 4.92037 3.79965 5.41807C3.79965 5.91577 3.39648 6.31807 2.89973 6.31807C2.40297 6.31807 1.9998 6.72127 1.9998 7.21807C1.9998 7.65997 2.32017 8.02807 2.74044 8.10367C4.10923 6.46297 6.20785 5.41807 8.53866 5.41807H13.365C14.0246 4.08787 15.2566 3.15727 16.899 2.76667C17.4308 2.64157 17.9816 2.76397 18.4117 3.10327C18.8482 3.44887 19.0993 3.96547 19.0993 4.52167V7.86517C19.6464 8.48707 20.0838 9.19806 20.388 9.95947C21.1268 10.117 21.7999 10.7227 21.7999 11.7181ZM20.0001 11.7181H19.7355C19.3378 11.7181 18.9868 11.4562 18.8734 11.0746C18.6268 10.2466 18.1715 9.47616 17.5568 8.84527C17.3921 8.67697 17.3003 8.45107 17.3003 8.21707V4.52167C16.4229 4.73047 15.262 5.26867 14.8129 6.62317C14.686 7.00387 14.3153 7.26577 13.922 7.23877C13.8608 7.23607 8.54045 7.21897 8.54045 7.21897C5.568 7.21897 3.09591 9.43207 2.91322 12.2581C2.76924 14.4802 3.97604 16.5349 5.98827 17.4916C6.30234 17.641 6.50123 17.9578 6.50123 18.3043V18.919C6.50123 19.4158 6.90529 19.819 7.40115 19.819C7.89701 19.819 8.30107 19.4158 8.30107 18.919C8.30107 18.4222 8.70424 18.019 9.201 18.019H12.8007C13.2975 18.019 13.7006 18.4213 13.7006 18.919C13.7006 19.4167 14.1047 19.819 14.6006 19.819C15.0964 19.819 15.5005 19.4158 15.5005 18.919V18.2944C15.5005 17.9479 15.6994 17.632 16.0125 17.4826C17.4002 16.8202 18.4423 15.6097 18.8734 14.1634C18.9868 13.7818 19.3378 13.5199 19.7355 13.5199H20.0001V11.7199V11.7181Z"
        fill="#8F95B2" />
</svg>