<svg width="21" height="22" viewBox="0 0 21 22" fill="none" xmlns="http://www.w3.org/2000/svg">
    <path fill-rule="evenodd" clip-rule="evenodd"
        d="M3.89998 1.81807C3.07155 1.81807 2.39998 2.48964 2.39998 3.31807V18.3181C2.39998 19.1465 3.07155 19.8181 3.89998 19.8181H8.09998C8.59703 19.8181 8.99998 20.221 8.99998 20.7181C8.99998 21.2151 8.59703 21.6181 8.09998 21.6181H3.89998C2.07744 21.6181 0.599976 20.1406 0.599976 18.3181V3.31807C0.599976 1.49553 2.07744 0.0180664 3.89998 0.0180664H10.5C10.7387 0.0180664 10.9676 0.112888 11.1364 0.28167L17.1364 6.28167C17.3052 6.45045 17.4 6.67937 17.4 6.91807V9.91807C17.4 10.4151 16.997 10.8181 16.5 10.8181C16.0029 10.8181 15.6 10.4151 15.6 9.91807V7.81807H10.5C10.0029 7.81807 9.59997 7.41512 9.59997 6.91807V1.81807H3.89998ZM11.4 3.09086L14.3272 6.01807H11.4V3.09086ZM20.7179 14.6638C21.0793 15.005 21.0956 15.5747 20.7543 15.936L15.6543 21.336C15.4817 21.5188 15.2405 21.621 14.9892 21.618C14.7378 21.615 14.4992 21.507 14.331 21.3201L11.631 18.3201C11.2985 17.9507 11.3284 17.3816 11.6979 17.0491C12.0674 16.7166 12.6364 16.7465 12.9689 17.116L15.0159 19.3904L19.4457 14.7001C19.787 14.3387 20.3566 14.3225 20.7179 14.6638Z"
        fill="#8F95B2" />
</svg>