<svg width="22" height="22" viewBox="0 0 22 22" fill="none" xmlns="http://www.w3.org/2000/svg">
    <path
        d="M9.15907 10.8181C8.9196 10.8181 8.68993 10.7232 8.5206 10.5545C8.35127 10.3857 8.25614 10.1568 8.25614 9.91807C8.25614 8.96947 7.64216 8.11807 7.35322 8.11807C7.06429 8.11807 6.4503 8.96947 6.4503 9.91807C6.4503 10.1568 6.35518 10.3857 6.18584 10.5545C6.01651 10.7232 5.78685 10.8181 5.54738 10.8181C5.30791 10.8181 5.07825 10.7232 4.90892 10.5545C4.73959 10.3857 4.64446 10.1568 4.64446 9.91807C4.64446 8.21527 5.75686 6.31807 7.35322 6.31807C8.94959 6.31807 10.062 8.21527 10.062 9.91807C10.062 10.1568 9.96686 10.3857 9.79753 10.5545C9.6282 10.7232 9.39853 10.8181 9.15907 10.8181ZM17.2853 9.91807C17.2853 8.21527 16.1729 6.31807 14.5766 6.31807C12.9802 6.31807 11.8678 8.21527 11.8678 9.91807C11.8678 10.1568 11.963 10.3857 12.1323 10.5545C12.3016 10.7232 12.5313 10.8181 12.7707 10.8181C13.0102 10.8181 13.2399 10.7232 13.4092 10.5545C13.5785 10.3857 13.6737 10.1568 13.6737 9.91807C13.6737 8.96947 14.2877 8.11807 14.5766 8.11807C14.8655 8.11807 15.4795 8.96947 15.4795 9.91807C15.4795 10.1568 15.5746 10.3857 15.744 10.5545C15.9133 10.7232 16.143 10.8181 16.3824 10.8181C16.6219 10.8181 16.8516 10.7232 17.0209 10.5545C17.1902 10.3857 17.2853 10.1568 17.2853 9.91807ZM21.7999 10.8181C21.7968 7.95468 20.6543 5.20946 18.623 3.18473C16.5917 1.16001 13.8376 0.0211634 10.9649 0.0180664C-3.39153 0.558066 -3.38521 21.0781 10.9649 21.6181C13.8376 21.615 16.5917 20.4761 18.623 18.4514C20.6543 16.4267 21.7968 13.6815 21.7999 10.8181ZM19.9941 10.8181C19.9915 13.2042 19.0393 15.4919 17.3466 17.1791C15.6539 18.8664 13.3588 19.8154 10.9649 19.8181C-0.997885 19.3681 -0.993371 2.26807 10.9649 1.81807C13.3588 1.82069 15.6539 2.76974 17.3466 4.457C19.0393 6.14426 19.9915 8.43192 19.9941 10.8181ZM16.0809 14.1895C16.2534 14.0291 16.3562 13.8078 16.3671 13.5729C16.378 13.338 16.2963 13.1081 16.1393 12.9325C15.9824 12.7569 15.7628 12.6495 15.5274 12.6333C15.292 12.6171 15.0596 12.6934 14.88 12.8458C13.8171 13.8327 12.4184 14.3814 10.9658 14.3814C9.5132 14.3814 8.11456 13.8327 7.05165 12.8458C6.873 12.6868 6.63832 12.6051 6.39923 12.6186C6.16013 12.6321 5.93621 12.7397 5.77673 12.9178C5.61724 13.0958 5.53525 13.3298 5.5488 13.5681C5.56234 13.8064 5.67031 14.0296 5.84896 14.1886C7.28256 15.4098 9.0815 16.1234 10.9649 16.2181C12.8482 16.1237 14.6471 15.4103 16.0809 14.1895Z"
        fill="#8F95B2" />
</svg>