<svg width="22" height="20" viewBox="0 0 22 20" fill="none" xmlns="http://www.w3.org/2000/svg">
    <path fill-rule="evenodd" clip-rule="evenodd"
        d="M15.2137 2.04772C14.0406 2.19616 12.7785 2.92574 11.7657 4.56544C11.6017 4.83088 11.312 4.99247 11 4.99247C10.688 4.99247 10.3982 4.83089 10.2343 4.56545C9.22141 2.9258 7.95929 2.1962 6.78624 2.04776C5.59944 1.89757 4.3791 2.32522 3.42154 3.23951C1.52567 5.06651 1.52609 8.14575 3.4228 9.97221L11 17.2687L18.5771 9.97221C20.4738 8.14576 20.4742 5.06653 18.5784 3.23952C17.6208 2.32522 16.4005 1.89754 15.2137 2.04772ZM14.9877 0.261962C16.7687 0.0365904 18.5161 0.690459 19.8231 1.93929L19.8257 1.94171C22.4581 4.4766 22.4581 8.7339 19.8257 11.2688L11.6242 19.1664C11.2757 19.502 10.7242 19.502 10.3757 19.1664L2.17425 11.2688C-0.458147 8.7339 -0.458147 4.4766 2.17425 1.94171L2.17677 1.93929L2.17677 1.93929C3.48379 0.690452 5.23122 0.0366142 7.01223 0.262C8.46412 0.445735 9.85775 1.20268 10.9999 2.5575C12.1421 1.20264 13.5358 0.445687 14.9877 0.261962Z"
        fill="#8F95B2" />
</svg>