<svg width="22" height="20" viewBox="0 0 22 20" fill="none" xmlns="http://www.w3.org/2000/svg">
    <path fill-rule="evenodd" clip-rule="evenodd"
        d="M15.2139 2.04772C14.0409 2.19616 12.7787 2.92574 11.7659 4.56544C11.6019 4.83088 11.3122 4.99247 11.0002 4.99247C10.6882 4.99247 10.3985 4.83089 10.2345 4.56545C9.22166 2.9258 7.95953 2.1962 6.78649 2.04776C5.59969 1.89757 4.37934 2.32522 3.42178 3.23951C1.52591 5.06651 1.52633 8.14575 3.42304 9.97221L11.0002 17.2687L18.5773 9.97221C20.4741 8.14576 20.4745 5.06653 18.5786 3.23952C17.6211 2.32522 16.4007 1.89754 15.2139 2.04772ZM14.9879 0.261962C16.7689 0.0365904 18.5164 0.690459 19.8234 1.93929L19.8259 1.94171C22.4583 4.4766 22.4583 8.7339 19.8259 11.2688L11.6245 19.1664C11.2759 19.502 10.7244 19.502 10.3759 19.1664L2.17449 11.2688C-0.457903 8.7339 -0.457903 4.4766 2.17449 1.94171L2.17701 1.93929L2.17702 1.93929C3.48403 0.690452 5.23147 0.0366142 7.01248 0.262C8.46437 0.445735 9.85799 1.20268 11.0002 2.5575C12.1424 1.20264 13.536 0.445687 14.9879 0.261962Z"
        fill="#8F95B2" />
</svg>