<svg width="24" height="24" viewBox="0 0 24 24" fill="none" xmlns="http://www.w3.org/2000/svg">
    <path fill-rule="evenodd" clip-rule="evenodd" d="M10.9917 0.938706C11.2833 0.647059 11.7562 0.647059 12.0478 0.938706L22.101 10.9919C22.3926 11.2835 22.3926 11.7564 22.101 12.048C21.8093 12.3397 21.3365 12.3397 21.0448 12.048L20.0857 11.0889V20.4561C20.0857 20.9505 19.8893 21.4245 19.5398 21.7741C19.1902 22.1236 18.7162 22.32 18.2219 22.32H4.8176C4.32328 22.32 3.84921 22.1236 3.49967 21.7741C3.15014 21.4245 2.95377 20.9505 2.95377 20.4561V11.0889L1.99461 12.048C1.70296 12.3397 1.23011 12.3397 0.938462 12.048C0.646815 11.7564 0.646815 11.2835 0.938462 10.9919L10.9917 0.938706ZM4.44739 9.59527V20.4561C4.44739 20.5543 4.48639 20.6485 4.55582 20.7179C4.62525 20.7873 4.71941 20.8264 4.8176 20.8264H8.16866C8.26685 20.8264 8.36101 20.7873 8.43044 20.7179C8.49987 20.6485 8.53888 20.5543 8.53888 20.4561V15.9881C8.53888 15.4937 8.73524 15.0197 9.08478 14.6701C9.43431 14.3206 9.90839 14.1242 10.4027 14.1242H12.6367C13.1311 14.1242 13.6051 14.3206 13.9547 14.6701C14.3042 15.0197 14.5006 15.4937 14.5006 15.9881V20.4561C14.5006 20.5543 14.5396 20.6485 14.609 20.7179C14.6784 20.7873 14.7726 20.8264 14.8708 20.8264H18.2219C18.32 20.8264 18.4142 20.7873 18.4836 20.7179C18.5531 20.6485 18.5921 20.5543 18.5921 20.4561V9.59527L11.5197 2.52293L4.44739 9.59527ZM13.0441 20.8264C13.0196 20.7054 13.007 20.5814 13.007 20.4561V15.9881C13.007 15.8899 12.968 15.7957 12.8985 15.7263C12.8291 15.6568 12.7349 15.6178 12.6367 15.6178H10.4027C10.3045 15.6178 10.2104 15.6568 10.1409 15.7263C10.0715 15.7957 10.0325 15.8899 10.0325 15.9881V20.4561C10.0325 20.5814 10.0199 20.7054 9.99536 20.8264H13.0441Z" fill="#5A6384"/>
</svg>
