<svg width="24" height="24" viewBox="0 0 24 24" fill="none" xmlns="http://www.w3.org/2000/svg">
    <path
        d="M1.5 11.8181L3.83333 9.48478M3.83333 9.48478L12 1.31812L16.0833 5.40145L20.1667 9.48478M3.83333 9.48478V21.1514C3.83333 21.4609 3.95625 21.7576 4.17504 21.9764C4.39383 22.1952 4.69058 22.3181 5 22.3181H8.5M20.1667 9.48478L22.5 11.8181M20.1667 9.48478V21.1514C20.1667 21.4609 20.0438 21.7576 19.825 21.9764C19.6062 22.1952 19.3094 22.3181 19 22.3181H15.5M8.5 22.3181C8.80942 22.3181 9.10617 22.1952 9.32496 21.9764C9.54375 21.7576 9.66667 21.4609 9.66667 21.1514V16.4848C9.66667 16.1754 9.78958 15.8786 10.0084 15.6598C10.2272 15.441 10.5239 15.3181 10.8333 15.3181H13.1667C13.4761 15.3181 13.7728 15.441 13.9916 15.6598C14.2104 15.8786 14.3333 16.1754 14.3333 16.4848V21.1514C14.3333 21.4609 14.4562 21.7576 14.675 21.9764C14.8938 22.1952 15.1906 22.3181 15.5 22.3181M8.5 22.3181H15.5"
        stroke="#F9FAFC" stroke-width="1.8" stroke-linecap="round" stroke-linejoin="round" />
</svg>