<svg width="22" height="22" viewBox="0 0 22 22" fill="none" xmlns="http://www.w3.org/2000/svg">
    <path
        d="M11 21.6181C8.86392 21.6181 6.77585 20.9847 4.9998 19.7979C3.22375 18.6112 1.83948 16.9245 1.02206 14.951C0.204631 12.9776 -0.00924532 10.8061 0.407475 8.71109C0.824195 6.6161 1.8528 4.69172 3.3632 3.18132C4.87361 1.67091 6.79798 0.64231 8.89298 0.22559C10.988 -0.19113 13.1595 0.0227459 15.1329 0.840172C17.1064 1.6576 18.7931 3.04186 19.9798 4.81791C21.1665 6.59396 21.7999 8.68203 21.7999 10.8181C21.7969 13.6815 20.658 16.4267 18.6333 18.4514C16.6086 20.4761 13.8633 21.615 11 21.6181ZM11 1.81807C9.21992 1.81807 7.47986 2.34591 5.99982 3.33484C4.51978 4.32378 3.36623 5.72938 2.68504 7.37392C2.00385 9.01845 1.82562 10.8281 2.17289 12.5739C2.52015 14.3197 3.37732 15.9234 4.63599 17.182C5.89467 18.4407 7.49831 19.2979 9.24414 19.6451C10.99 19.9924 12.7996 19.8142 14.4441 19.133C16.0886 18.4518 17.4942 17.2982 18.4832 15.8182C19.4721 14.3382 20 12.5981 20 10.8181C19.9973 8.43192 19.0483 6.14426 17.361 4.457C15.6738 2.76974 13.3861 1.82069 11 1.81807ZM15.5 14.4181C15.5 14.1794 15.4051 13.9505 15.2363 13.7817C15.0676 13.6129 14.8386 13.5181 14.6 13.5181H7.39995C7.16126 13.5181 6.93234 13.6129 6.76356 13.7817C6.59478 13.9505 6.49995 14.1794 6.49995 14.4181C6.49995 14.6568 6.59478 14.8857 6.76356 15.0545C6.93234 15.2232 7.16126 15.3181 7.39995 15.3181H14.6C14.8386 15.3181 15.0676 15.2232 15.2363 15.0545C15.4051 14.8857 15.5 14.6568 15.5 14.4181ZM5.59995 9.01807C5.59995 9.91807 6.40545 9.91807 7.39995 9.91807C8.39445 9.91807 9.19995 9.91807 9.19995 9.01807C9.19995 8.54068 9.01031 8.08284 8.67275 7.74528C8.33518 7.40771 7.87734 7.21807 7.39995 7.21807C6.92256 7.21807 6.46473 7.40771 6.12716 7.74528C5.7896 8.08284 5.59995 8.54068 5.59995 9.01807ZM12.8 9.01807C12.8 9.91807 13.6055 9.91807 14.6 9.91807C15.5945 9.91807 16.4 9.91807 16.4 9.01807C16.4 8.54068 16.2103 8.08284 15.8727 7.74528C15.5352 7.40771 15.0773 7.21807 14.6 7.21807C14.1226 7.21807 13.6647 7.40771 13.3272 7.74528C12.9896 8.08284 12.8 8.54068 12.8 9.01807Z"
        fill="#8F95B2" />
</svg>