<svg width="24" height="24" viewBox="0 0 24 24" fill="none" xmlns="http://www.w3.org/2000/svg">
    <path fill-rule="evenodd" clip-rule="evenodd" d="M5.81309 4.74236C5.6998 3.07942 6.68184 1.32936 8.38892 1.20684C10.096 1.08431 11.3058 2.67705 11.4191 4.34C11.5324 6.00294 10.5503 7.753 8.84325 7.87552C7.13616 7.99805 5.92638 6.4053 5.81309 4.74236ZM8.49496 2.76323C7.9653 2.80124 7.29002 3.47018 7.36909 4.63068C7.44815 5.79118 8.20755 6.35715 8.73721 6.31913C9.26688 6.28111 9.94215 5.61218 9.86308 4.45168C9.78402 3.29118 9.02462 2.72521 8.49496 2.76323Z" fill="#5A6384"/>
    <path fill-rule="evenodd" clip-rule="evenodd" d="M15.62 1.20742C13.9129 1.08489 12.7031 2.67763 12.5898 4.34058C12.4765 6.00352 13.4585 7.75358 15.1656 7.8761C16.8727 7.99863 18.0825 6.40588 18.1958 4.74294C18.3091 3.08 17.327 1.32994 15.62 1.20742ZM14.1458 4.45226C14.2249 3.29176 14.9843 2.72579 15.5139 2.76381C16.0436 2.80182 16.7189 3.47076 16.6398 4.63126C16.5607 5.79176 15.8013 6.35773 15.2717 6.31971C14.742 6.28169 14.0667 5.61276 14.1458 4.45226Z" fill="#5A6384"/>
    <path fill-rule="evenodd" clip-rule="evenodd" d="M20.2114 6.60697C18.5043 6.48444 17.2945 8.07719 17.1812 9.74013C17.0679 11.4031 18.05 13.1531 19.757 13.2757C21.4641 13.3982 22.6739 11.8054 22.7872 10.1425C22.9005 8.47955 21.9185 6.72949 20.2114 6.60697ZM18.7372 9.85181C18.8163 8.69131 19.5757 8.12534 20.1053 8.16336C20.635 8.20138 21.3103 8.87031 21.2312 10.0308C21.1521 11.1913 20.3927 11.7573 19.8631 11.7193C19.3334 11.6812 18.6581 11.0123 18.7372 9.85181Z" fill="#5A6384"/>
    <path fill-rule="evenodd" clip-rule="evenodd" d="M1.20879 10.1475C1.0955 8.4846 2.07754 6.73455 3.78463 6.61202C5.49172 6.4895 6.70149 8.08224 6.81479 9.74519C6.92808 11.4081 5.94604 13.1582 4.23895 13.2807C2.53186 13.4032 1.32208 11.8105 1.20879 10.1475ZM3.89066 8.16842C3.361 8.20643 2.68573 8.87537 2.76479 10.0359C2.84385 11.1964 3.60325 11.7623 4.13292 11.7243C4.66258 11.6863 5.33785 11.0174 5.25879 9.85687C5.17973 8.69637 4.42032 8.1304 3.89066 8.16842Z" fill="#5A6384"/>
    <path fill-rule="evenodd" clip-rule="evenodd" d="M13.4069 22.2257C14.0818 22.6091 14.8434 22.8026 15.6146 22.7868C17.7392 22.7868 19.2234 20.8829 19.2234 18.1567C19.2234 13.8637 15.1572 9.8225 12.0058 9.8225C8.85441 9.8225 4.78821 13.8646 4.78821 18.1567C4.71784 22.071 7.88635 23.7897 10.6047 22.2257C11.0366 21.9921 11.5175 21.87 12.0058 21.87C12.494 21.87 12.9749 21.9921 13.4069 22.2257ZM14.2135 20.569C13.5383 20.1864 12.7768 19.9932 12.0058 20.0088C11.2347 19.9932 10.4733 20.1864 9.79811 20.569C7.77268 21.6969 6.56374 20.1653 6.59261 18.1567C6.59261 15.0268 9.76924 11.6745 12.0058 11.6745C14.2423 11.6745 17.419 15.0268 17.419 18.1567C17.4505 20.168 16.2317 21.6969 14.2135 20.569Z" fill="#5A6384"/>
</svg>
