<svg width="22" height="18" viewBox="0 0 22 18" fill="none" xmlns="http://www.w3.org/2000/svg">
    <path fill-rule="evenodd" clip-rule="evenodd"
        d="M6.90165 2.2728C6.73445 2.22635 6.50234 2.21808 5.67226 2.21808H4.9402C4.25328 2.21808 3.79222 2.21878 3.43717 2.24779C3.09262 2.27594 2.92788 2.32619 2.81921 2.38157C2.53697 2.52538 2.3075 2.75485 2.16369 3.03709C2.10831 3.14576 2.05806 3.3105 2.02991 3.65505C2.0009 4.0101 2.0002 4.47116 2.0002 5.15808V5.27808C2.0002 5.96499 2.0009 6.42605 2.02991 6.7811C2.05806 7.12565 2.10831 7.29039 2.16369 7.39906C2.3075 7.68131 2.53697 7.91078 2.81921 8.05459C2.92788 8.10996 3.09262 8.16022 3.43717 8.18837C3.79222 8.21738 4.25328 8.21808 4.9402 8.21808H5.6002C5.91212 8.21808 6.2018 8.37958 6.36578 8.64492C6.52977 8.91025 6.54468 9.24158 6.40518 9.52057L4.65643 13.0181H5.53906C5.6504 13.0181 5.71388 13.018 5.76199 13.0165C5.79219 13.0156 5.80496 13.0143 5.80813 13.014C5.88576 13.0009 5.95518 12.9579 6.00141 12.8942C5.99828 12.8985 6.0034 12.8927 6.02393 12.8546C6.04677 12.8122 6.07525 12.7555 6.12504 12.6559C6.5776 11.7508 6.78487 11.3352 6.96045 10.9141C7.52702 9.55527 7.86751 8.11293 7.96843 6.64419C7.99971 6.18904 8.0002 5.7246 8.0002 4.71264V4.54601C8.0002 3.71593 7.99192 3.48382 7.94548 3.31662C7.80467 2.8097 7.40857 2.4136 6.90165 2.2728ZM5.79362 0.418021C6.44418 0.417577 6.94697 0.417234 7.3834 0.538461C8.49862 0.848238 9.37003 1.71965 9.67981 2.83487C9.80104 3.2713 9.8007 3.77409 9.80025 4.42465C9.80022 4.46454 9.8002 4.50499 9.8002 4.54601V4.75097C9.8002 5.71493 9.80021 6.24362 9.7642 6.76759C9.64982 8.43216 9.26393 10.0668 8.62181 11.6068C8.41969 12.0916 8.18326 12.5644 7.75217 13.4266L7.73501 13.4609C7.72872 13.4735 7.72241 13.4861 7.71607 13.4989C7.64099 13.6495 7.56141 13.8091 7.45853 13.951C7.13406 14.3984 6.64632 14.6998 6.10107 14.79C5.92816 14.8185 5.74979 14.8183 5.58149 14.8181C5.56727 14.8181 5.55313 14.8181 5.53906 14.8181H3.2002C2.88828 14.8181 2.5986 14.6566 2.43461 14.3912C2.27062 14.1259 2.25572 13.7946 2.39521 13.5156L4.14532 10.0154C3.82686 10.0117 3.54246 10.003 3.29059 9.98239C2.83473 9.94514 2.40674 9.86461 2.00203 9.6584C1.38109 9.34202 0.876257 8.83718 0.559875 8.21625C0.353662 7.81153 0.273129 7.38354 0.235883 6.92768C0.200172 6.4906 0.200183 5.95558 0.200196 5.3146V5.12155C0.200183 4.48057 0.200172 3.94555 0.235883 3.50847C0.273129 3.05261 0.353662 2.62462 0.559875 2.21991C0.876257 1.59897 1.38109 1.09414 2.00203 0.777755C2.40674 0.571542 2.83473 0.491009 3.29059 0.453763C3.72767 0.418052 4.26269 0.418063 4.90367 0.418076L5.67226 0.418076C5.71329 0.418076 5.75373 0.418049 5.79362 0.418021ZM18.9017 4.6728C18.7344 4.62635 18.5023 4.61808 17.6723 4.61808H16.9402C16.2533 4.61808 15.7922 4.61878 15.4372 4.64779C15.0926 4.67594 14.9279 4.7262 14.8192 4.78157C14.537 4.92538 14.3075 5.15485 14.1637 5.43709C14.1083 5.54576 14.0581 5.7105 14.0299 6.05505C14.0009 6.4101 14.0002 6.87116 14.0002 7.55808V7.67808C14.0002 8.36499 14.0009 8.82605 14.0299 9.1811C14.0581 9.52565 14.1083 9.69039 14.1637 9.79906C14.3075 10.0813 14.537 10.3108 14.8192 10.4546C14.9279 10.51 15.0926 10.5602 15.4372 10.5884C15.7922 10.6174 16.2533 10.6181 16.9402 10.6181H17.6002C17.9121 10.6181 18.2018 10.7796 18.3658 11.0449C18.5298 11.3103 18.5447 11.6416 18.4052 11.9206L16.6564 15.4181H17.5391C17.6504 15.4181 17.7139 15.418 17.762 15.4165C17.8052 15.4152 17.8127 15.4132 17.8075 15.4141C17.8854 15.4012 17.9551 15.3581 18.0014 15.2942C17.9983 15.2985 18.0034 15.2927 18.0239 15.2546C18.0468 15.2122 18.0753 15.1555 18.125 15.0559C18.5776 14.1508 18.7849 13.7352 18.9604 13.3141C19.527 11.9553 19.8675 10.5129 19.9684 9.04419C19.9997 8.58904 20.0002 8.12459 20.0002 7.11264V6.94601C20.0002 6.11593 19.9919 5.88382 19.9455 5.71662C19.8047 5.2097 19.4086 4.8136 18.9017 4.6728ZM17.7936 2.81802C18.4442 2.81758 18.947 2.81723 19.3834 2.93846C20.4986 3.24824 21.37 4.11965 21.6798 5.23487C21.801 5.6713 21.8007 6.17409 21.8002 6.82465C21.8002 6.86454 21.8002 6.90499 21.8002 6.94601V7.15088C21.8002 8.1149 21.8002 8.6436 21.7642 9.16759C21.6498 10.8322 21.2639 12.4668 20.6218 14.0068C20.4197 14.4916 20.1833 14.9644 19.7521 15.8266L19.735 15.8609C19.7287 15.8735 19.7224 15.8861 19.7161 15.8989C19.641 16.0495 19.5614 16.2091 19.4585 16.351C19.1341 16.7984 18.6463 17.0998 18.1011 17.19C17.9282 17.2185 17.7498 17.2183 17.5815 17.2181C17.5673 17.2181 17.5531 17.2181 17.5391 17.2181H15.2002C14.8883 17.2181 14.5986 17.0566 14.4346 16.7912C14.2706 16.5259 14.2557 16.1946 14.3952 15.9156L16.1453 12.4154C15.8269 12.4117 15.5425 12.403 15.2906 12.3824C14.8347 12.3451 14.4067 12.2646 14.002 12.0584C13.3811 11.742 12.8763 11.2372 12.5599 10.6162C12.3537 10.2115 12.2731 9.78354 12.2359 9.32768C12.2002 8.89061 12.2002 8.3556 12.2002 7.71462V7.52153C12.2002 6.88056 12.2002 6.34555 12.2359 5.90847C12.2731 5.45261 12.3537 5.02462 12.5599 4.61991C12.8763 3.99897 13.3811 3.49414 14.002 3.17776C14.4067 2.97154 14.8347 2.89101 15.2906 2.85376C15.7277 2.81805 16.2627 2.81806 16.9037 2.81808L17.6723 2.81808C17.7133 2.81808 17.7537 2.81805 17.7936 2.81802Z"
        fill="#8F95B2" />
</svg>