<svg width="24" height="24" viewBox="0 0 24 24" fill="none" xmlns="http://www.w3.org/2000/svg">
    <path fill-rule="evenodd" clip-rule="evenodd" d="M8.83281 3.94394C7.65225 3.75203 6.44839 3.75202 5.26782 3.94393C4.85594 4.01088 4.44216 4.11049 3.52478 4.33271C3.37782 4.36831 3.29244 4.38915 3.22858 4.40729C3.18847 4.41868 3.17171 4.42499 3.1676 4.42665C3.16759 4.42665 3.1676 4.42665 3.1676 4.42665C3.08596 4.46679 3.02722 4.5416 3.00751 4.6298C3.00687 4.63421 3.00469 4.65194 3.00308 4.69332C3.00048 4.75956 3.00032 4.84734 3.00032 4.99845V18.5839C3.00032 18.6902 3.00038 18.7554 3.00146 18.8043C3.00215 18.8356 3.00312 18.8495 3.00337 18.8528C3.02603 19.0102 3.16886 19.1232 3.32887 19.108C3.33212 19.1074 3.34583 19.1051 3.37669 19.0984C3.42454 19.0879 3.48793 19.0726 3.59137 19.0475L3.61002 19.043C4.0096 18.9462 4.23256 18.8922 4.45585 18.8464C6.16764 18.4952 7.933 18.4952 9.6448 18.8464C9.86805 18.8922 10.091 18.9462 10.4904 19.043L11.1003 19.1907V4.45979L10.5758 4.33274C9.65847 4.11051 9.24469 4.0109 8.83281 3.94394ZM12.9003 4.4598V19.1907L13.51 19.043C13.9096 18.9462 14.1326 18.8922 14.3558 18.8464C16.0676 18.4952 17.833 18.4952 19.5448 18.8464C19.7681 18.8922 19.991 18.9462 20.3906 19.043L20.4093 19.0475C20.5127 19.0726 20.5761 19.0879 20.624 19.0984C20.671 19.1087 20.6782 19.1086 20.6692 19.1077C20.8303 19.1244 20.9745 19.011 20.9973 18.8528C20.9975 18.8495 20.9985 18.8356 20.9992 18.8043C21.0003 18.7554 21.0003 18.6902 21.0003 18.5839V4.99852C21.0003 4.84739 21.0002 4.75961 20.9976 4.69336C20.996 4.65197 20.9938 4.63424 20.9931 4.62984C20.9734 4.54164 20.9147 4.46684 20.8331 4.42669C20.8289 4.42504 20.8122 4.41873 20.7721 4.40734C20.7082 4.3892 20.6228 4.36835 20.4758 4.33275C19.5584 4.11052 19.1446 4.01091 18.7327 3.94395C17.5522 3.75206 16.3484 3.75206 15.1679 3.94395C14.756 4.01091 14.3422 4.11052 13.4248 4.33275L12.9003 4.4598ZM4.97902 2.16725C6.35087 1.94425 7.74978 1.94425 9.12163 2.16726C9.60948 2.24657 10.0928 2.36366 10.9589 2.57347L11.7622 2.76807C11.8499 2.78932 11.8984 2.80097 11.9354 2.80886C11.9675 2.81568 11.9738 2.81589 11.9712 2.81563C11.9906 2.81752 12.0101 2.81752 12.0295 2.81563C12.0268 2.81589 12.0332 2.81568 12.0652 2.80886C12.1023 2.80097 12.1507 2.78932 12.2384 2.76807L13.0418 2.57348C13.9079 2.36367 14.3912 2.24658 14.8791 2.16727C16.2509 1.94429 17.6497 1.94429 19.0215 2.16727C19.5094 2.24658 19.9928 2.36367 20.8589 2.57348L20.8996 2.58335C20.9185 2.58792 20.9375 2.59249 20.9566 2.59708C21.178 2.65033 21.4112 2.70642 21.618 2.80688C22.1969 3.08798 22.615 3.61895 22.7521 4.2478C22.8012 4.47254 22.8008 4.71242 22.8004 4.93994C22.8004 4.95956 22.8003 4.9791 22.8003 4.99852V18.5839C22.8003 18.5983 22.8003 18.6128 22.8004 18.6273C22.8005 18.7863 22.8007 18.9488 22.7814 19.0914C22.6293 20.2159 21.6113 21.0152 20.4834 20.8981C20.3403 20.8832 20.1824 20.8448 20.0278 20.8072C20.0136 20.8038 19.9996 20.8003 19.9855 20.7969C19.5624 20.6944 19.3715 20.6483 19.183 20.6097C17.7099 20.3074 16.1907 20.3074 14.7176 20.6097C14.5291 20.6483 14.3383 20.6944 13.9151 20.7969L12.6622 21.1004C12.6515 21.103 12.6406 21.1057 12.6298 21.1083C12.4963 21.1408 12.3534 21.1756 12.2039 21.1901C12.0685 21.2033 11.9322 21.2033 11.7968 21.1901C11.6473 21.1756 11.5044 21.1408 11.3709 21.1083C11.36 21.1057 11.3492 21.103 11.3384 21.1004L10.0855 20.7969C9.66238 20.6944 9.47153 20.6483 9.28303 20.6097C7.80993 20.3074 6.29072 20.3074 4.81761 20.6097C4.62911 20.6483 4.43827 20.6944 4.01513 20.7969C4.00109 20.8003 3.987 20.8038 3.97289 20.8072C3.81825 20.8448 3.66037 20.8832 3.51728 20.8981C2.38939 21.0152 1.3713 20.2159 1.21925 19.0914C1.19996 18.9488 1.20013 18.7863 1.20029 18.6273C1.20031 18.6128 1.20032 18.5983 1.20032 18.5839V4.99845C1.20032 4.97903 1.20029 4.9595 1.20026 4.93987C1.19989 4.71237 1.1995 4.4725 1.24851 4.24778C1.38565 3.61891 1.80379 3.08792 2.38262 2.80682C2.58947 2.70637 2.82265 2.65029 3.04405 2.59704C3.06314 2.59245 3.08213 2.58788 3.10102 2.5833L3.14174 2.57344C4.00783 2.36363 4.49117 2.24655 4.97902 2.16725Z" fill="#5A6384"/>
</svg>
