<svg width="22" height="22" viewBox="0 0 22 22" fill="none" xmlns="http://www.w3.org/2000/svg">
    <path
        d="M15.0499 5.4355C10.8991 5.55198 10.9001 12.5432 15.0499 12.6588C19.2008 12.5423 19.1999 5.55107 15.0499 5.4355ZM15.0499 10.8529C14.0473 10.8936 13.4002 9.27917 13.8331 8.27966C13.9471 8.50476 14.1209 8.69382 14.3353 8.82589C14.5498 8.95795 14.7965 9.02786 15.0481 9.02786C15.2998 9.02786 15.5465 8.95795 15.761 8.82589C15.9754 8.69382 16.1492 8.50476 16.2631 8.27966C16.6996 9.27917 16.0525 10.8936 15.0499 10.8529ZM10.0999 9.04713C9.98475 4.28159 3.91515 4.28249 3.79995 9.04713C3.91515 13.8127 9.98475 13.8118 10.0999 9.04713ZM5.59995 9.04713C5.59929 8.78546 5.64438 8.5257 5.73315 8.27966C5.84706 8.50476 6.02088 8.69382 6.23533 8.82589C6.44979 8.95795 6.69651 9.02786 6.94815 9.02786C7.19979 9.02786 7.44651 8.95795 7.66097 8.82589C7.87542 8.69382 8.04924 8.50476 8.16315 8.27966C8.99475 10.8132 5.83845 12.117 5.59995 9.04713ZM15.4999 15.3675C15.4999 15.6069 15.4051 15.8366 15.2363 16.0059C15.0676 16.1752 14.8386 16.2704 14.5999 16.2704H7.39995C7.16126 16.2704 6.93234 16.1752 6.76355 16.0059C6.59477 15.8366 6.49995 15.6069 6.49995 15.3675C6.49995 15.128 6.59477 14.8983 6.76355 14.729C6.93234 14.5597 7.16126 14.4646 7.39995 14.4646H14.5999C14.8386 14.4646 15.0676 14.5597 15.2363 14.729C15.4051 14.8983 15.4999 15.128 15.4999 15.3675ZM11 0.0180664C8.13656 0.0211734 5.39134 1.1637 3.36662 3.19496C1.3419 5.22622 0.203048 7.98031 0.199951 10.8529C0.739951 25.2091 21.2599 25.2037 21.7999 10.8529C21.7969 7.98031 20.658 5.22622 18.6333 3.19496C16.6086 1.1637 13.8633 0.0211734 11 0.0180664ZM11 19.882C8.61381 19.8794 6.32614 18.9273 4.63888 17.2345C2.95162 15.5418 2.00257 13.2468 1.99995 10.8529C2.44995 -1.10876 19.5499 -1.10515 19.9999 10.8529C19.9973 13.2468 19.0483 15.5418 17.361 17.2345C15.6738 18.9273 13.3861 19.8794 11 19.882Z"
        fill="#8F95B2" />
</svg>