<svg width="22" height="20" viewBox="0 0 22 20" fill="none" xmlns="http://www.w3.org/2000/svg">
    <path fill-rule="evenodd" clip-rule="evenodd"
        d="M8.98849 0.218141H13.0114C13.3204 0.218119 13.6042 0.218099 13.8414 0.237481C14.0972 0.258377 14.377 0.306212 14.6533 0.447029C15.0485 0.648363 15.3697 0.969623 15.5711 1.36476C15.7119 1.64113 15.7597 1.92094 15.7806 2.1767C15.8 2.41391 15.8 2.69769 15.8 3.00666L15.8 3.81814L19.0114 3.81814C19.3204 3.81812 19.6042 3.8181 19.8414 3.83748C20.0972 3.85838 20.377 3.90621 20.6533 4.04703C21.0485 4.24836 21.3697 4.56962 21.5711 4.96476C21.7119 5.24113 21.7597 5.52094 21.7806 5.7767C21.8 6.01392 21.8 6.29769 21.8 6.60666V11.8296C21.8 12.1386 21.8 12.4224 21.7806 12.6596C21.7597 12.9153 21.7119 13.1952 21.5711 13.4715C21.3697 13.8667 21.0485 14.1879 20.6533 14.3893C20.6355 14.3983 20.6178 14.407 20.6 14.4153V16.6296C20.6 16.9386 20.6 17.2224 20.5806 17.4596C20.5597 17.7153 20.5119 17.9952 20.3711 18.2715C20.1697 18.6667 19.8485 18.9879 19.4533 19.1893C19.177 19.3301 18.8972 19.3779 18.6414 19.3988C18.4042 19.4182 18.1204 19.4182 17.8114 19.4181H4.18848C3.8795 19.4182 3.59573 19.4182 3.35851 19.3988C3.10275 19.3779 2.82294 19.3301 2.54657 19.1893C2.15143 18.9879 1.83017 18.6667 1.62884 18.2715C1.48802 17.9952 1.44019 17.7153 1.41929 17.4596C1.39991 17.2224 1.39993 16.9386 1.39995 16.6296L1.39995 14.4153C1.38215 14.407 1.36436 14.3983 1.34657 14.3893C0.951434 14.1879 0.630175 13.8667 0.42884 13.4715C0.288024 13.1952 0.240188 12.9153 0.219292 12.6596C0.19991 12.4224 0.19993 12.1386 0.199953 11.8296V6.60668C0.19993 6.2977 0.19991 6.01392 0.219292 5.7767C0.240188 5.52094 0.288024 5.24113 0.42884 4.96476C0.630174 4.56962 0.951434 4.24836 1.34657 4.04703C1.62294 3.90621 1.90275 3.85838 2.15851 3.83748C2.39573 3.8181 2.67951 3.81812 2.9885 3.81814C2.99895 3.81814 3.00944 3.81814 3.01995 3.81814H6.19995L6.19995 3.00669C6.19993 2.6977 6.19991 2.41392 6.21929 2.1767C6.24019 1.92094 6.28802 1.64113 6.42884 1.36476C6.63017 0.969622 6.95143 0.648363 7.34657 0.447029C7.62294 0.306212 7.90275 0.258377 8.15851 0.237481C8.39573 0.218099 8.67951 0.218119 8.98849 0.218141ZM3.01995 5.61814C2.66907 5.61814 2.46004 5.61884 2.30508 5.6315C2.21052 5.63923 2.17076 5.64942 2.16011 5.65273C2.10654 5.68095 2.06277 5.72473 2.03454 5.7783C2.03124 5.78895 2.02104 5.8287 2.01331 5.92327C2.00065 6.07823 1.99995 6.28726 1.99995 6.63814V11.7981C1.99995 12.149 2.00065 12.3581 2.01331 12.513C2.02104 12.6076 2.03124 12.6473 2.03454 12.658C2.06277 12.7116 2.10654 12.7553 2.16011 12.7836C2.17076 12.7869 2.21052 12.7971 2.30508 12.8048C2.31868 12.8059 2.33269 12.8069 2.34718 12.8078C2.35303 12.8081 2.35887 12.8085 2.36469 12.8089C2.51344 12.8176 2.7121 12.8181 3.01995 12.8181H7.39995V11.9181C7.39995 11.4211 7.8029 11.0181 8.29995 11.0181C8.79701 11.0181 9.19995 11.4211 9.19995 11.9181V12.8181H12.8V11.9181C12.8 11.4211 13.2029 11.0181 13.7 11.0181C14.197 11.0181 14.6 11.4211 14.6 11.9181V12.8181H18.98C19.2878 12.8181 19.4865 12.8176 19.6352 12.8089C19.641 12.8085 19.6469 12.8081 19.6527 12.8078C19.6672 12.8069 19.6812 12.8059 19.6948 12.8048C19.7894 12.7971 19.8291 12.7869 19.8398 12.7836C19.8934 12.7553 19.9371 12.7116 19.9654 12.658C19.9687 12.6473 19.9789 12.6076 19.9866 12.513C19.9993 12.3581 20 12.149 20 11.7981V6.63814C20 6.28726 19.9993 6.07823 19.9866 5.92327C19.9789 5.8287 19.9687 5.78895 19.9654 5.7783C19.9371 5.72473 19.8934 5.68095 19.8398 5.65273C19.8291 5.64943 19.7894 5.63923 19.6948 5.6315C19.5399 5.61884 19.3308 5.61814 18.98 5.61814H3.01995ZM14 3.81814H7.99995V3.03814C7.99995 2.68726 8.00065 2.47823 8.01331 2.32327C8.02104 2.2287 8.03124 2.18895 8.03454 2.1783C8.06277 2.12473 8.10654 2.08095 8.16011 2.05273C8.17076 2.04942 8.21051 2.03923 8.30508 2.0315C8.46004 2.01884 8.66907 2.01814 9.01995 2.01814H12.98C13.3308 2.01814 13.5399 2.01884 13.6948 2.0315C13.7894 2.03923 13.8291 2.04942 13.8398 2.05273C13.8934 2.08095 13.9371 2.12473 13.9654 2.1783C13.9687 2.18895 13.9789 2.2287 13.9866 2.32327C13.9993 2.47823 14 2.68726 14 3.03814V3.81814ZM13.9643 2.17519C13.9643 2.17516 13.9645 2.17572 13.9649 2.17697L13.9643 2.17519ZM13.8429 2.05381C13.8429 2.05383 13.8422 2.05362 13.8411 2.05315L13.8429 2.05381ZM8.157 2.05381C8.15697 2.0538 8.15753 2.05357 8.15879 2.05316L8.157 2.05381ZM8.03497 2.17697C8.03538 2.17572 8.03561 2.17516 8.03563 2.17519L8.03497 2.17697ZM19.8429 5.65382C19.8429 5.65382 19.8422 5.65361 19.8411 5.65314L19.8429 5.65382ZM19.9643 5.77519C19.9643 5.77516 19.9645 5.77572 19.9649 5.77698L19.9643 5.77519ZM19.9643 12.6611C19.9643 12.6611 19.9645 12.6604 19.965 12.6593L19.9643 12.6611ZM19.8429 12.7825C19.843 12.7825 19.8424 12.7827 19.8411 12.7831L19.8429 12.7825ZM18.8 14.6181H14.6V14.9181C14.6 15.4152 14.197 15.8181 13.7 15.8181C13.2029 15.8181 12.8 15.4152 12.8 14.9181V14.6181H9.19995V14.9181C9.19995 15.4152 8.79701 15.8181 8.29995 15.8181C7.8029 15.8181 7.39995 15.4152 7.39995 14.9181V14.6181H3.19995V16.5981C3.19995 16.949 3.20065 17.1581 3.21331 17.313C3.22104 17.4076 3.23124 17.4473 3.23454 17.458C3.26277 17.5116 3.30654 17.5553 3.36011 17.5836C3.37077 17.5869 3.41052 17.5971 3.50508 17.6048C3.66004 17.6174 3.86907 17.6181 4.21995 17.6181H17.78C18.1308 17.6181 18.3399 17.6174 18.4948 17.6048C18.5894 17.5971 18.6291 17.5869 18.6398 17.5836C18.6934 17.5553 18.7371 17.5116 18.7654 17.458C18.7687 17.4473 18.7789 17.4076 18.7866 17.313C18.7993 17.1581 18.8 16.949 18.8 16.5981V14.6181ZM18.7643 17.4611C18.7643 17.4611 18.7645 17.4605 18.7649 17.4593L18.7643 17.4611ZM18.6429 17.5825C18.6429 17.5825 18.6424 17.5827 18.6411 17.5831L18.6429 17.5825ZM3.357 17.5825C3.35704 17.5825 3.35767 17.5827 3.35879 17.5831L3.357 17.5825ZM3.23497 17.4593C3.23543 17.4604 3.23564 17.4611 3.23563 17.4611L3.23497 17.4593ZM2.157 12.7825C2.15704 12.7825 2.15766 12.7827 2.15878 12.7831L2.157 12.7825ZM2.03497 12.6593C2.03543 12.6604 2.03564 12.6611 2.03563 12.6611L2.03497 12.6593ZM2.03495 5.77701C2.03538 5.77573 2.03561 5.77516 2.03563 5.77519L2.03495 5.77701ZM2.15882 5.65314C2.15768 5.65362 2.15704 5.65383 2.157 5.65381L2.15882 5.65314Z"
        fill="#8F95B2" />
</svg>