<?xml version="1.0" encoding="utf-8"?>
<!-- Generator: Adobe Illustrator 21.0.2, SVG Export Plug-In . SVG Version: 6.00 Build 0)  -->
<svg version="1.1" id="Слой_1" xmlns="http://www.w3.org/2000/svg" xmlns:xlink="http://www.w3.org/1999/xlink" x="0px" y="0px"
	 viewBox="0 0 499 449" style="enable-background:new 0 0 499 449;" xml:space="preserve">
<style type="text/css">
	.st0{fill:#68CF4F;}
</style>
<g id="_x23_68cf4fff">
	<path class="st0" d="M138.4,8.7c2.5-0.5,5-0.7,7.6-0.7C215.6,8,285.4,8,355,8c10.1,0.1,20.1,4.7,26.7,12.3
		c2.7,3.1,4.6,6.7,6.7,10.3c32.9,56.7,65.9,113.4,98.8,170.1c2.1,3.7,4.5,7.3,5.8,11.4c3.4,9.5,2.3,20.5-2.9,29.2
		c-34.8,59.9-69.6,119.7-104.4,179.6c-4.8,8.6-13.3,14.9-22.8,17.2c-4.6,1.2-9.3,1-14,1c-68,0-136.1,0-204.1,0
		c-12.3-0.1-24.3-6.9-30.4-17.6c-34.9-60-69.8-120.1-104.7-180.2c-5.2-8.7-6.3-19.7-2.9-29.2c1.4-4.1,3.7-7.7,5.9-11.4
		C46.5,142.5,80.3,84.3,114.1,26.2C119.2,17.2,128.3,10.7,138.4,8.7 M119.7,26.8c-6.3,10.2-11.8,21-18.4,31.1
		c5.2-6.2,15.4-6.9,21.3-1.4c5.4,4.5,6.3,12.8,2.8,18.7c27.5,24.8,51.5,53.6,69.4,86.1c7.6-5.2,13.5-12.4,18.6-20
		c9.3-13.9,15.8-29.8,18.7-46.3c3.3-18.2,1.6-37.4-5.8-54.4c-7.4,2-15.9-2.2-18.2-9.6c-2.6-7.2,1.6-15.5,8.5-18.3
		c-23.8,0.3-47.7,0-71.5,0.1C135,13,125.1,18.3,119.7,26.8 M228.1,12.8c4.7,2.3,8.4,6.8,8.9,12.1c0.6,4.1-1.1,8.1-3.6,11.3
		c4.5,11.4,7.4,23.5,8.1,35.8c1.8,26.6-5.7,53.3-19.5,76c-5.8,9.4-12.6,18.3-21.3,25.2c7.9,17.8,13.2,36.7,16.4,55.9
		c2,12.2,3,24.7,2.3,37.1c-0.6,7.8-1.8,15.8-5.5,22.9c-4.5,8.6-14.3,13.6-23.8,13.9c-11,0.4-21.5-3.8-31.1-8.8
		c-16.6-9-31.2-21.2-45-34c-22.8-21.5-43.4-45.4-62-70.5c-3.4,0.5-7.1,0.4-10.2-1.2c-5.3-2.5-8.5-8.2-8.2-14
		c-3.4,7.4-8.1,14.1-12,21.3c-3.2,5.9-7.1,11.4-9.7,17.6c-3.2,8.4-2.3,18.1,2.3,25.7C49,298.7,83.7,358.5,118.5,418.4
		c3.9,7,10.7,12.3,18.5,14.5c4.9,1.5,10,1.2,15,1.2c29.7,0,59.5,0,89.2,0c-13.6-38.4-15.8-79.7-14.4-120.1
		c0.5-22.9,5.3-45.4,9.5-67.8c7.4-42.6,21.4-83.9,38.5-123.5c14.7-32.4,34.7-62.2,57.1-89.7c-3.7-7.5,0-17.1,7.8-20.1
		C302.4,13,265.2,12.9,228.1,12.8 M352.2,12.8c2.4,2.3,5.2,4.4,6.6,7.5c2.6,5.4,1.4,12.3-3,16.4c-4.5,4.6-11.7,5.4-17.4,2.7
		c-35.8,45.9-61.2,99.3-78.2,154.8c-6.7,21.8-10.6,44.3-13.4,66.8c9.2,1.6,18.6,0.4,27.6-1.8c30.9-7.7,59.2-24.1,83.4-44.6
		c22.9-19.1,44.7-39.8,62.9-63.6c-4.1-5.1-4.6-12.9-0.5-18.1c4.4-6.2,13.6-7.7,20-3.7c-18.3-30.9-36.1-62.1-54.3-93.2
		c-3.2-5.3-5.9-11.2-10.7-15.4C369,15.1,360.5,12.5,352.2,12.8 M48,150c-2.6,4.3-4.8,8.7-7.7,12.8c6.6-4.2,16.3-2.4,20.6,4.3
		c3.9,5.5,2.9,13.4-1.6,18.2c17.9,24.2,38.4,46.5,60.6,66.8c13.5,12.1,27.7,23.7,43.8,32.3c7.9,4,16.5,7.7,25.5,7.4
		c6.5-0.1,13-3.9,15.8-9.9c4-8.4,4.9-17.8,5.1-27c0.2-20.8-4.4-41.4-11.4-60.9c-15.9-44-44.5-82.4-78.8-113.8
		c-4.4,2.1-9.8,2.4-14.1,0c-6-2.9-8.8-10-7.7-16.4C81.5,92.6,64.6,121.2,48,150 M447.1,141.4c-0.1,5.1-2.6,10.1-7.1,12.7
		c-4.1,2.7-9.3,2.7-13.9,1.1c-22,30.9-47.1,60-77.2,83.3c0.9,4.3,4.3,7.3,7.5,10.1c7.1,5.8,15.1,10.4,23.3,14.5
		c15.9,7.9,32.8,13.7,50.1,17.2c2.9-5.4,9-9.1,15.2-8.2c7.2,0.6,13.1,7.1,13.3,14.3c9-16.5,18.9-32.5,28.1-48.9
		c3.4-6.3,4.4-13.9,2.8-20.8c-1.2-5.7-4.7-10.5-7.5-15.5C470.2,181.3,458.5,161.4,447.1,141.4 M245.1,276c-1.9,21.3-2.5,42.7-1.4,64
		c1.8,31.9,6.7,63.9,17.3,94.1c31,0,62,0,93,0c10.6,0.2,21.1-5.4,26.7-14.5c23.5-40,46.5-80.3,70-120.2c-6,3.6-14.5,2-18.8-3.4
		c-2.7-3.1-3.6-7.2-3.4-11.2c-33.1-4.3-65.6-16.5-91.8-37.4C310,265.7,278,278.5,245.1,276z"/>
</g>
</svg>
