<svg width="20" height="20" viewBox="0 0 20 20" fill="none" xmlns="http://www.w3.org/2000/svg">
<g id="24 / Car">
<path id="Icon" d="M18.833 7.84567C18.833 7.56022 18.7145 7.28645 18.5035 7.08461C18.2925 6.88276 18.0064 6.76936 17.708 6.76936C17.708 6.76936 17.27 6.76936 17.2393 6.7751C16.6784 5.78097 16.0359 4.83107 15.3178 3.93436C14.943 3.46817 14.4238 3.12735 13.8343 2.96066C12.5135 2.34645 7.15251 2.34645 5.83176 2.96066C5.24226 3.12735 4.72299 3.46817 4.34826 3.93436C3.63009 4.83107 2.98757 5.78097 2.42676 6.7751C2.39601 6.76936 1.95801 6.76936 1.95801 6.76936C1.65964 6.76936 1.37349 6.88276 1.16251 7.08461C0.951534 7.28645 0.833008 7.56022 0.833008 7.84567L0.833008 12.5097C0.833153 13.0134 0.97184 13.5081 1.23514 13.9443C1.49844 14.3805 1.87707 14.7427 2.33301 14.9945V16.0974C2.33301 16.6683 2.57006 17.2158 2.99202 17.6195C3.41397 18.0232 3.98627 18.25 4.58301 18.25C5.17974 18.25 5.75204 18.0232 6.174 17.6195C6.59595 17.2158 6.83301 16.6683 6.83301 16.0974V15.3798H12.833V16.0974C12.833 16.6683 13.0701 17.2158 13.492 17.6195C13.914 18.0232 14.4863 18.25 15.083 18.25C15.6797 18.25 16.252 18.0232 16.674 17.6195C17.096 17.2158 17.333 16.6683 17.333 16.0974V14.9945C17.7889 14.7427 18.1676 14.3805 18.4309 13.9443C18.6942 13.5081 18.8329 13.0134 18.833 12.5097V7.84567ZM5.53851 4.80761C5.72224 4.58092 5.97603 4.41545 6.26376 4.33475C7.40301 3.79588 12.2638 3.79588 13.4023 4.33475C13.69 4.41545 13.9438 4.58092 14.1275 4.80761C15.2665 6.23641 16.2045 7.80206 16.9175 9.46444C12.2194 8.80861 7.44663 8.80861 2.74851 9.46444C3.46153 7.80206 4.39955 6.23641 5.53851 4.80761ZM5.33301 16.0974C5.33301 16.2877 5.25399 16.4702 5.11334 16.6048C4.97269 16.7393 4.78192 16.8149 4.58301 16.8149C4.3841 16.8149 4.19333 16.7393 4.05268 16.6048C3.91203 16.4702 3.83301 16.2877 3.83301 16.0974V15.3798H5.33301V16.0974ZM15.833 16.0974C15.833 16.2877 15.754 16.4702 15.6133 16.6048C15.4727 16.7393 15.2819 16.8149 15.083 16.8149C14.8841 16.8149 14.6933 16.7393 14.5527 16.6048C14.412 16.4702 14.333 16.2877 14.333 16.0974V15.3798H15.833V16.0974ZM15.833 13.9448H3.83301C3.43518 13.9448 3.05365 13.7936 2.77235 13.5244C2.49104 13.2553 2.33301 12.8903 2.33301 12.5097V10.972C4.81608 10.6088 7.32156 10.4034 9.83301 10.3571C12.3445 10.4034 14.8499 10.6088 17.333 10.972V12.5097C17.333 12.8903 17.175 13.2553 16.8937 13.5244C16.6124 13.7936 16.2308 13.9448 15.833 13.9448ZM5.33301 12.5097C5.33301 12.7 5.25399 12.8825 5.11334 13.0171C4.97269 13.1516 4.78192 13.2272 4.58301 13.2272C4.3841 13.2272 4.19333 13.1516 4.05268 13.0171C3.91203 12.8825 3.83301 12.7 3.83301 12.5097C3.83301 12.3194 3.91203 12.1369 4.05268 12.0023C4.19333 11.8677 4.3841 11.7921 4.58301 11.7921C4.78192 11.7921 4.97269 11.8677 5.11334 12.0023C5.25399 12.1369 5.33301 12.3194 5.33301 12.5097ZM15.833 12.5097C15.833 12.7 15.754 12.8825 15.6133 13.0171C15.4727 13.1516 15.2819 13.2272 15.083 13.2272C14.8841 13.2272 14.6933 13.1516 14.5527 13.0171C14.412 12.8825 14.333 12.7 14.333 12.5097C14.333 12.3194 14.412 12.1369 14.5527 12.0023C14.6933 11.8677 14.8841 11.7921 15.083 11.7921C15.2819 11.7921 15.4727 11.8677 15.6133 12.0023C15.754 12.1369 15.833 12.3194 15.833 12.5097Z" fill="#10B982"/>
</g>
</svg>
