<svg width="20" height="20" viewBox="0 0 20 20" fill="none" xmlns="http://www.w3.org/2000/svg">
<g id="24 / Education">
<path id="Icon" fill-rule="evenodd" clip-rule="evenodd" d="M7.36052 3.28646C6.37671 3.12652 5.3735 3.12652 4.38969 3.28644C4.04646 3.34224 3.70164 3.42525 2.93716 3.61043C2.81469 3.64009 2.74354 3.65746 2.69032 3.67258C2.6569 3.68207 2.64293 3.68733 2.6395 3.68871C2.6395 3.68871 2.6395 3.68871 2.6395 3.68871C2.57147 3.72216 2.52252 3.7845 2.50609 3.858C2.50556 3.86168 2.50375 3.87645 2.5024 3.91093C2.50024 3.96614 2.50011 4.03928 2.50011 4.16521V15.4864C2.50011 15.575 2.50015 15.6293 2.50105 15.6701C2.50163 15.6962 2.50244 15.7077 2.50265 15.7105C2.52153 15.8417 2.64055 15.9359 2.7739 15.9231C2.7766 15.9227 2.78803 15.9208 2.81375 15.9151C2.85362 15.9064 2.90644 15.8937 2.99264 15.8728L3.00819 15.869C3.34117 15.7883 3.52697 15.7433 3.71304 15.7052C5.13954 15.4125 6.61067 15.4125 8.03717 15.7052C8.22321 15.7433 8.40898 15.7883 8.74185 15.869L9.25011 15.9921V3.71633L8.81305 3.61046C8.04857 3.42527 7.70375 3.34225 7.36052 3.28646ZM10.7501 3.71634V15.9921L11.2582 15.869C11.5912 15.7883 11.777 15.7433 11.963 15.7052C13.3895 15.4125 14.8607 15.4125 16.2872 15.7052C16.4732 15.7433 16.659 15.7883 16.992 15.869L17.0076 15.8728C17.0938 15.8937 17.1466 15.9064 17.1865 15.9151C17.2256 15.9237 17.2317 15.9237 17.2242 15.9229C17.3584 15.9369 17.4786 15.8424 17.4976 15.7105C17.4978 15.7077 17.4986 15.6962 17.4992 15.6701C17.5001 15.6293 17.5001 15.575 17.5001 15.4864V4.16527C17.5001 4.03933 17.5 3.96618 17.4978 3.91097C17.4965 3.87648 17.4947 3.86171 17.4941 3.85803C17.4777 3.78454 17.4287 3.7222 17.3607 3.68875C17.3573 3.68737 17.3433 3.68211 17.3099 3.67262C17.2567 3.6575 17.1855 3.64013 17.063 3.61046C16.2985 3.42527 15.9537 3.34226 15.6105 3.28647C14.6267 3.12655 13.6235 3.12655 12.6398 3.28647C12.2965 3.34226 11.9517 3.42527 11.1872 3.61046L10.7501 3.71634ZM4.14902 1.80588C5.29223 1.62004 6.45799 1.62005 7.6012 1.80589C8.00774 1.87198 8.41052 1.96955 9.13225 2.1444L9.80168 2.30656C9.87479 2.32427 9.91513 2.33398 9.94603 2.34056C9.97272 2.34624 9.97804 2.34641 9.97581 2.3462C9.99197 2.34777 10.0082 2.34777 10.0244 2.3462C10.0222 2.34641 10.0275 2.34624 10.0542 2.34056C10.0851 2.33398 10.1254 2.32427 10.1985 2.30656L10.868 2.1444C11.5897 1.96956 11.9925 1.87198 12.3991 1.8059C13.5423 1.62008 14.708 1.62008 15.8511 1.8059C16.2577 1.87198 16.6605 1.96956 17.3822 2.1444L17.4162 2.15263C17.4319 2.15644 17.4478 2.16025 17.4637 2.16407C17.6482 2.20845 17.8425 2.25519 18.0149 2.3389C18.4972 2.57315 18.8457 3.01563 18.96 3.53967C19.0008 3.72695 19.0005 3.92686 19.0002 4.11646C19.0001 4.13281 19.0001 4.14908 19.0001 4.16527V15.4864C19.0001 15.4984 19.0001 15.5105 19.0001 15.5226C19.0003 15.6551 19.0004 15.7905 18.9843 15.9094C18.8576 16.8464 18.0092 17.5125 17.0693 17.4149C16.9501 17.4025 16.8185 17.3705 16.6896 17.3392C16.6779 17.3363 16.6661 17.3334 16.6544 17.3306C16.3018 17.2452 16.1428 17.2068 15.9857 17.1746C14.7581 16.9227 13.4921 16.9227 12.2645 17.1746C12.1074 17.2068 11.9484 17.2452 11.5958 17.3306L10.5517 17.5835C10.5427 17.5857 10.5337 17.5879 10.5246 17.5901C10.4134 17.6172 10.2943 17.6461 10.1697 17.6583C10.0569 17.6693 9.9433 17.6693 9.83048 17.6583C9.70589 17.6461 9.5868 17.6172 9.47557 17.5901C9.46651 17.5879 9.4575 17.5857 9.44854 17.5835L8.40444 17.3306C8.05182 17.2452 7.89278 17.2068 7.7357 17.1746C6.50811 16.9227 5.2421 16.9227 4.01452 17.1746C3.85743 17.2068 3.6984 17.2452 3.34578 17.3306C3.33408 17.3334 3.32234 17.3363 3.31058 17.3392C3.18171 17.3705 3.05015 17.4025 2.93091 17.4149C1.991 17.5125 1.14259 16.8464 1.01588 15.9094C0.999808 15.7905 0.999947 15.6551 1.00008 15.5226C1.00009 15.5105 1.00011 15.4984 1.00011 15.4864V4.16521C1.00011 4.14903 1.00008 4.13275 1.00005 4.1164C0.999745 3.92681 0.999419 3.72692 1.04026 3.53965C1.15455 3.01559 1.50299 2.5731 1.98536 2.33885C2.15773 2.25515 2.35205 2.20841 2.53655 2.16403C2.55245 2.16021 2.56828 2.1564 2.58402 2.15259L2.61796 2.14437C3.3397 1.96953 3.74248 1.87196 4.14902 1.80588Z" fill="#D946EF"/>
</g>
</svg>
