<svg width="20" height="20" viewBox="0 0 20 20" fill="none" xmlns="http://www.w3.org/2000/svg">
<g id="24 / Pet">
<g id="Icon">
<path fill-rule="evenodd" clip-rule="evenodd" d="M4.84428 3.9518C4.74987 2.56602 5.56824 1.10764 6.99081 1.00553C8.41338 0.903431 9.42153 2.23072 9.51594 3.6165C9.61035 5.00229 8.79199 6.46067 7.36941 6.56277C5.94684 6.66488 4.93869 5.33759 4.84428 3.9518ZM7.07917 2.30253C6.63779 2.33421 6.07506 2.89166 6.14095 3.85874C6.20683 4.82582 6.83967 5.29746 7.28105 5.26578C7.72244 5.2341 8.28516 4.67665 8.21928 3.70957C8.15339 2.74249 7.52056 2.27085 7.07917 2.30253Z" fill="#FA7317"/>
<path fill-rule="evenodd" clip-rule="evenodd" d="M13.0167 1.00602C11.5941 0.903914 10.586 2.2312 10.4915 3.61699C10.3971 5.00277 11.2155 6.46115 12.6381 6.56326C14.0606 6.66536 15.0688 5.33807 15.1632 3.95229C15.2576 2.5665 14.4392 1.10812 13.0167 1.00602ZM11.7882 3.71005C11.8541 2.74297 12.4869 2.27133 12.9283 2.30301C13.3697 2.33469 13.9324 2.89214 13.8665 3.85922C13.8007 4.8263 13.1678 5.29794 12.7264 5.26626C12.285 5.23458 11.7223 4.67713 11.7882 3.71005Z" fill="#FA7317"/>
<path fill-rule="evenodd" clip-rule="evenodd" d="M16.8428 5.50564C15.4203 5.40354 14.4121 6.73083 14.3177 8.11661C14.2233 9.5024 15.0417 10.9608 16.4642 11.0629C17.8868 11.165 18.895 9.8377 18.9894 8.45191C19.0838 7.06613 18.2654 5.60775 16.8428 5.50564ZM15.6144 8.20968C15.6803 7.2426 16.3131 6.77096 16.7545 6.80264C17.1959 6.83432 17.7586 7.39177 17.6927 8.35885C17.6268 9.32593 16.994 9.79757 16.5526 9.76589C16.1112 9.73421 15.5485 9.17676 15.6144 8.20968Z" fill="#FA7317"/>
<path fill-rule="evenodd" clip-rule="evenodd" d="M1.00737 8.45613C0.912957 7.07034 1.73132 5.61196 3.1539 5.50986C4.57647 5.40775 5.58462 6.73504 5.67903 8.12083C5.77344 9.50661 4.95507 10.965 3.5325 11.0671C2.10993 11.1692 1.10178 9.84192 1.00737 8.45613ZM3.24226 6.80685C2.80087 6.83853 2.23815 7.39598 2.30403 8.36306C2.36992 9.33014 3.00275 9.80178 3.44414 9.7701C3.88552 9.73842 4.44825 9.18097 4.38236 8.21389C4.31648 7.24681 3.68364 6.77517 3.24226 6.80685Z" fill="#FA7317"/>
<path fill-rule="evenodd" clip-rule="evenodd" d="M11.1725 18.5212C11.7349 18.8407 12.3695 19.002 13.0122 18.9889C14.7827 18.9889 16.0195 17.4023 16.0195 15.1304C16.0195 11.5529 12.631 8.18526 10.0049 8.18526C7.37872 8.18526 3.99022 11.5537 3.99022 15.1304C3.93157 18.3923 6.572 19.8246 8.83727 18.5212C9.19724 18.3266 9.59799 18.2249 10.0049 18.2249C10.4117 18.2249 10.8125 18.3266 11.1725 18.5212ZM11.8446 17.1407C11.282 16.8219 10.6474 16.6608 10.0049 16.6738C9.36231 16.6608 8.72776 16.8219 8.16513 17.1407C6.47727 18.0806 5.46982 16.8042 5.49388 15.1304C5.49388 12.5221 8.14107 9.72863 10.0049 9.72863C11.8686 9.72863 14.5158 12.5221 14.5158 15.1304C14.5422 16.8065 13.5264 18.0806 11.8446 17.1407Z" fill="#FA7317"/>
</g>
</g>
</svg>
