<svg width="20" height="20" viewBox="0 0 20 20" fill="none" xmlns="http://www.w3.org/2000/svg">
<g id="24 / Property">
<path id="Icon" fill-rule="evenodd" clip-rule="evenodd" d="M9.55994 1.18228C9.80298 0.93924 10.197 0.93924 10.4401 1.18228L18.8177 9.55994C19.0608 9.80298 19.0608 10.197 18.8177 10.4401C18.5747 10.6831 18.1806 10.6831 17.9376 10.4401L17.1383 9.64076V17.4468C17.1383 17.8587 16.9747 18.2538 16.6834 18.5451C16.3921 18.8364 15.997 19 15.5851 19H4.41489C4.00296 19 3.6079 18.8364 3.31662 18.5451C3.02534 18.2538 2.8617 17.8587 2.8617 17.4468V9.64076L2.0624 10.4401C1.81936 10.6831 1.42532 10.6831 1.18228 10.4401C0.93924 10.197 0.93924 9.80298 1.18228 9.55994L9.55994 1.18228ZM4.10638 8.39608V17.4468C4.10638 17.5286 4.13889 17.6071 4.19674 17.665C4.2546 17.7228 4.33307 17.7553 4.41489 17.7553H7.20745C7.28927 17.7553 7.36774 17.7228 7.4256 17.665C7.48345 17.6071 7.51596 17.5286 7.51596 17.4468V13.7234C7.51596 13.3115 7.6796 12.9164 7.97088 12.6251C8.26216 12.3339 8.65722 12.1702 9.06915 12.1702H10.9309C11.3428 12.1702 11.7378 12.3339 12.0291 12.6251C12.3204 12.9164 12.484 13.3115 12.484 13.7234V17.4468C12.484 17.5286 12.5165 17.6071 12.5744 17.665C12.6323 17.7228 12.7107 17.7553 12.7926 17.7553H15.5851C15.6669 17.7553 15.7454 17.7228 15.8033 17.665C15.8611 17.6071 15.8936 17.5286 15.8936 17.4468V8.39608L10 2.50246L4.10638 8.39608ZM11.2703 17.7553C11.2499 17.6545 11.2394 17.5512 11.2394 17.4468V13.7234C11.2394 13.6416 11.2069 13.5631 11.149 13.5053C11.0911 13.4474 11.0127 13.4149 10.9309 13.4149H9.06915C8.98733 13.4149 8.90886 13.4474 8.851 13.5053C8.79314 13.5631 8.76064 13.6416 8.76064 13.7234V17.4468C8.76064 17.5512 8.75013 17.6545 8.7297 17.7553H11.2703Z" fill="#F04444"/>
</g>
</svg>
