<svg width="20" height="20" viewBox="0 0 20 20" fill="none" xmlns="http://www.w3.org/2000/svg">
<g id="24 / Tag">
<path id="Icon" fill-rule="evenodd" clip-rule="evenodd" d="M5.83366 3.33317C5.17062 3.33317 4.53473 3.59656 4.06589 4.0654C3.59705 4.53424 3.33366 5.17013 3.33366 5.83317L3.33366 10.0007C3.33355 10.1098 3.35499 10.2179 3.39677 10.3187C3.43855 10.4195 3.49983 10.511 3.57709 10.5881L3.57792 10.5889L9.41116 16.4222C9.41113 16.4221 9.41119 16.4222 9.41116 16.4222C9.56743 16.5783 9.7794 16.6661 10.0003 16.6661C10.2213 16.6661 10.4331 16.5784 10.5894 16.4222M10.5894 16.4222L16.4227 10.589C16.4226 10.589 16.4227 10.589 16.4227 10.589C16.5788 10.4327 16.6666 10.2208 16.6666 9.99984C16.6666 9.77891 16.5789 9.56702 16.4227 9.41076C16.4227 9.41073 16.4228 9.41079 16.4227 9.41076L10.5886 3.57667C10.4268 3.41441 10.2154 3.33317 10.0003 3.33317H5.83366M2.88738 2.88689C3.66878 2.10549 4.72859 1.6665 5.83366 1.6665H10.0003C10.6384 1.6665 11.2803 1.91019 11.7684 2.39943C11.7684 2.39936 11.7685 2.39951 11.7684 2.39943L17.6013 8.23225C18.0699 8.70107 18.3333 9.33693 18.3333 9.99984C18.3333 10.6627 18.07 11.2985 17.6013 11.7673L11.7679 17.6008C11.2991 18.0694 10.6632 18.3328 10.0003 18.3328C9.33742 18.3328 8.70165 18.0695 8.23283 17.6008L2.40023 11.7682C2.40008 11.7681 2.40038 11.7684 2.40023 11.7682C2.16772 11.5363 1.98284 11.2602 1.85709 10.9568C1.73132 10.6533 1.66672 10.328 1.66699 9.99946C1.66699 9.99962 1.66699 9.9993 1.66699 9.99946V5.83317C1.66699 4.7281 2.10598 3.66829 2.88738 2.88689ZM5.00033 5.83317C5.00033 5.37293 5.37342 4.99984 5.83366 4.99984H5.84199C6.30223 4.99984 6.67533 5.37293 6.67533 5.83317C6.67533 6.29341 6.30223 6.6665 5.84199 6.6665H5.83366C5.37342 6.6665 5.00033 6.29341 5.00033 5.83317Z" fill="#787F9D"/>
</g>
</svg>
