<svg width="20" height="20" viewBox="0 0 20 20" fill="none" xmlns="http://www.w3.org/2000/svg">
<g id="24 / Work">
<path id="Icon" fill-rule="evenodd" clip-rule="evenodd" d="M8.15679 1.66651H11.5092C11.7667 1.66649 12.0032 1.66647 12.2009 1.68262C12.414 1.70003 12.6472 1.7399 12.8775 1.85725C13.2068 2.02502 13.4745 2.29274 13.6423 2.62202C13.7596 2.85233 13.7995 3.0855 13.8169 3.29863C13.833 3.49632 13.833 3.73279 13.833 3.99027L13.833 4.66651L16.5092 4.6665C16.7667 4.66649 17.0032 4.66647 17.2009 4.68262C17.414 4.70003 17.6472 4.7399 17.8775 4.85724C18.2068 5.02502 18.4745 5.29274 18.6423 5.62202C18.7596 5.85233 18.7995 6.0855 18.8169 6.29863C18.833 6.49632 18.833 6.73279 18.833 6.99027V11.3427C18.833 11.6002 18.833 11.8367 18.8169 12.0344C18.7995 12.2475 18.7596 12.4807 18.6423 12.711C18.4745 13.0403 18.2068 13.308 17.8775 13.4758C17.8627 13.4833 17.8478 13.4905 17.833 13.4975V15.3427C17.833 15.6002 17.833 15.8367 17.8169 16.0344C17.7995 16.2475 17.7596 16.4807 17.6423 16.711C17.4745 17.0403 17.2068 17.308 16.8775 17.4758C16.6472 17.5931 16.414 17.633 16.2009 17.6504C16.0032 17.6665 15.7667 17.6665 15.5092 17.6665H4.15678C3.8993 17.6665 3.66282 17.6665 3.46514 17.6504C3.25201 17.633 3.01883 17.5931 2.78853 17.4758C2.45924 17.308 2.19153 17.0403 2.02375 16.711C1.9064 16.4807 1.86654 16.2475 1.84913 16.0344C1.83297 15.8367 1.83299 15.6002 1.83301 15.3427L1.83301 13.4975C1.81817 13.4905 1.80334 13.4833 1.78853 13.4758C1.45924 13.308 1.19153 13.0403 1.02375 12.711C0.906402 12.4807 0.866539 12.2475 0.849125 12.0344C0.832974 11.8367 0.832991 11.6002 0.833009 11.3427V6.99029C0.832991 6.7328 0.832974 6.49632 0.849125 6.29863C0.866539 6.0855 0.906402 5.85233 1.02375 5.62202C1.19153 5.29274 1.45924 5.02502 1.78853 4.85724C2.01883 4.7399 2.25201 4.70004 2.46514 4.68262C2.66283 4.66647 2.89931 4.66649 3.1568 4.6665C3.16551 4.66651 3.17425 4.66651 3.18301 4.66651H5.83301L5.83301 3.99029C5.83299 3.73281 5.83297 3.49632 5.84912 3.29863C5.86654 3.0855 5.9064 2.85233 6.02375 2.62202C6.19153 2.29274 6.45924 2.02502 6.78853 1.85724C7.01883 1.7399 7.252 1.70003 7.46514 1.68262C7.66282 1.66647 7.8993 1.66649 8.15679 1.66651ZM3.18301 6.16651C2.89061 6.16651 2.71641 6.16709 2.58729 6.17764C2.50848 6.18408 2.47535 6.19257 2.46647 6.19533C2.42183 6.21885 2.38535 6.25533 2.36183 6.29997C2.35908 6.30885 2.35058 6.34197 2.34414 6.42078C2.33359 6.54991 2.33301 6.7241 2.33301 7.01651V11.3165C2.33301 11.6089 2.33359 11.7831 2.34414 11.9122C2.35058 11.991 2.35908 12.0242 2.36183 12.033C2.38535 12.0777 2.42183 12.1142 2.46647 12.1377C2.47535 12.1404 2.50848 12.1489 2.58729 12.1554C2.59862 12.1563 2.61029 12.1571 2.62237 12.1579C2.62724 12.1582 2.63211 12.1585 2.63696 12.1588C2.76091 12.1661 2.92647 12.1665 3.18301 12.1665H6.83301V11.4165C6.83301 11.0023 7.1688 10.6665 7.58301 10.6665C7.99722 10.6665 8.33301 11.0023 8.33301 11.4165V12.1665H11.333V11.4165C11.333 11.0023 11.6688 10.6665 12.083 10.6665C12.4972 10.6665 12.833 11.0023 12.833 11.4165V12.1665H16.483C16.7396 12.1665 16.9051 12.1661 17.0291 12.1588C17.0339 12.1585 17.0388 12.1582 17.0436 12.1579C17.0557 12.1571 17.0674 12.1563 17.0787 12.1554C17.1575 12.1489 17.1907 12.1404 17.1995 12.1377C17.2442 12.1142 17.2807 12.0777 17.3042 12.033C17.3069 12.0242 17.3154 11.991 17.3219 11.9122C17.3324 11.7831 17.333 11.6089 17.333 11.3165V7.01651C17.333 6.7241 17.3324 6.54991 17.3219 6.42078C17.3154 6.34197 17.3069 6.30885 17.3042 6.29997C17.2807 6.25533 17.2442 6.21885 17.1995 6.19533C17.1907 6.19258 17.1575 6.18408 17.0787 6.17764C16.9496 6.16709 16.7754 6.16651 16.483 6.16651H3.18301ZM12.333 4.66651H7.33301V4.01651C7.33301 3.7241 7.33359 3.54991 7.34414 3.42078C7.35058 3.34197 7.35908 3.30885 7.36183 3.29997C7.38535 3.25533 7.42183 3.21885 7.46647 3.19533C7.47535 3.19257 7.50848 3.18408 7.58729 3.17764C7.71641 3.16709 7.89061 3.16651 8.18301 3.16651H11.483C11.7754 3.16651 11.9496 3.16709 12.0787 3.17764C12.1575 3.18408 12.1907 3.19257 12.1995 3.19533C12.2442 3.21885 12.2807 3.25533 12.3042 3.29997C12.3069 3.30885 12.3154 3.34197 12.3219 3.42078C12.3324 3.54991 12.333 3.7241 12.333 4.01651V4.66651ZM12.3033 3.29738C12.3033 3.29735 12.3035 3.29782 12.3038 3.29886L12.3033 3.29738ZM12.2021 3.19623C12.2021 3.19625 12.2016 3.19607 12.2006 3.19568L12.2021 3.19623ZM7.46388 3.19623C7.46386 3.19622 7.46432 3.19603 7.46537 3.19568L7.46388 3.19623ZM7.36219 3.29887C7.36253 3.29782 7.36273 3.29735 7.36274 3.29738L7.36219 3.29887ZM17.2021 6.19623C17.2021 6.19624 17.2016 6.19606 17.2006 6.19567L17.2021 6.19623ZM17.3033 6.29738C17.3033 6.29735 17.3035 6.29782 17.3038 6.29887L17.3033 6.29738ZM17.3033 12.0356C17.3033 12.0356 17.3034 12.0351 17.3038 12.0341L17.3033 12.0356ZM17.2021 12.1368C17.2022 12.1368 17.2017 12.137 17.2006 12.1373L17.2021 12.1368ZM16.333 13.6665H12.833V13.9165C12.833 14.3307 12.4972 14.6665 12.083 14.6665C11.6688 14.6665 11.333 14.3307 11.333 13.9165V13.6665H8.33301V13.9165C8.33301 14.3307 7.99722 14.6665 7.58301 14.6665C7.1688 14.6665 6.83301 14.3307 6.83301 13.9165V13.6665H3.33301V15.3165C3.33301 15.6089 3.33359 15.7831 3.34414 15.9122C3.35058 15.991 3.35908 16.0242 3.36183 16.033C3.38535 16.0777 3.42183 16.1142 3.46647 16.1377C3.47535 16.1404 3.50848 16.1489 3.58729 16.1554C3.71641 16.1659 3.89061 16.1665 4.18301 16.1665H15.483C15.7754 16.1665 15.9496 16.1659 16.0787 16.1554C16.1575 16.1489 16.1907 16.1404 16.1995 16.1377C16.2442 16.1142 16.2807 16.0777 16.3042 16.033C16.3069 16.0242 16.3154 15.991 16.3219 15.9122C16.3324 15.7831 16.333 15.6089 16.333 15.3165V13.6665ZM16.3033 16.0356C16.3033 16.0356 16.3034 16.0351 16.3038 16.0341L16.3033 16.0356ZM16.2021 16.1368C16.2022 16.1368 16.2017 16.137 16.2007 16.1373L16.2021 16.1368ZM3.46389 16.1368C3.46392 16.1368 3.46444 16.1369 3.46537 16.1373L3.46389 16.1368ZM3.36219 16.0341C3.36257 16.0351 3.36275 16.0356 3.36274 16.0356L3.36219 16.0341ZM2.46388 12.1368C2.46392 12.1368 2.46444 12.1369 2.46537 12.1373L2.46388 12.1368ZM2.36219 12.0341C2.36257 12.0351 2.36275 12.0356 2.36274 12.0356L2.36219 12.0341ZM2.36218 6.2989C2.36253 6.29783 2.36273 6.29735 2.36274 6.29738L2.36218 6.2989ZM2.4654 6.19567C2.46445 6.19607 2.46391 6.19624 2.46388 6.19623L2.4654 6.19567Z" fill="#3B82F6"/>
</g>
</svg>
