<svg width="126" height="200" viewBox="0 0 126 200" fill="none" xmlns="http://www.w3.org/2000/svg">
<path fill-rule="evenodd" clip-rule="evenodd" d="M45.7958 2.85649C47.4243 0.210161 51.0968 -1.02087 54.1593 1.02082C54.9661 1.55868 55.6956 2.22778 56.113 3.18742C56.5129 4.10663 56.6108 5.25596 56.2708 6.74833C62.594 10.5228 65.9056 14.4726 67.7682 17.9372C69.179 20.5615 69.7582 22.9192 70.1829 24.6481C70.3213 25.2116 70.4433 25.7083 70.5724 26.1257C70.9625 27.3873 72.1035 28.156 73.7387 28.4306C75.3739 28.7053 77.449 28.471 79.571 27.7679C83.7412 26.3861 87.9714 23.2384 89.3376 18.8282C87.1733 17.979 86.4506 15.4678 87.19 13.7423C87.5182 12.9766 87.9203 12.1004 88.6839 11.4239C89.4578 10.7385 90.5705 10.2842 92.2708 10.2842C93.7238 10.2842 95.0086 11.3062 95.7512 12.6199C96.4961 13.9379 96.7424 15.6285 96.0316 17.0501C94.9801 19.1532 93.2508 19.7732 92.0282 19.8317C88.8603 27.2568 83.0095 30.8684 76.2573 34.6714C75.8647 34.8926 75.5139 35.3035 75.2302 35.8782C74.9476 36.4507 74.7413 37.1668 74.6272 37.9669C74.3989 39.5683 74.5456 41.4677 75.1462 43.1472C75.7468 44.8269 76.7896 46.2571 78.332 46.9767C79.8687 47.6938 81.962 47.7336 84.727 46.5101C89.1618 44.5478 97.4039 38.8942 100.424 26.9099C99.0713 25.8312 98.5835 23.9304 98.7819 22.1609C98.988 20.3234 99.9471 18.508 101.609 17.7959C103.181 17.1221 104.794 16.881 106.253 17.1899C107.719 17.5003 109.009 18.3622 109.925 19.8509C110.83 21.321 111.091 22.6671 110.852 23.8833C110.614 25.0943 109.888 26.1334 108.901 27.0112C107.184 28.5369 104.929 28.6508 103.603 28.1399C97.2052 40.5841 95.3232 48.3389 95.4225 53.0494C95.5222 57.7729 97.6017 59.373 99.0676 59.6839C102.213 60.3512 105.781 60.0063 108.775 59.4853C110.214 59.2349 111.513 58.9452 112.563 58.711L112.683 58.6843C113.217 58.5653 113.686 58.4614 114.071 58.3874C114.308 58.3416 114.522 58.3054 114.703 58.2847C114.764 56.4921 115.424 55.1833 116.426 54.3165C117.471 53.4126 118.857 53.0149 120.24 53.0149C122.111 53.0149 123.721 54.1243 124.635 55.6447C125.55 57.1668 125.788 59.1349 124.874 60.8796C123.823 62.8854 121.786 63.6863 119.789 63.595C117.855 63.5067 115.902 62.5817 114.834 61.0367C111.35 61.0862 108.549 62.8047 106.281 65.5046C103.974 68.2503 102.234 71.9962 100.916 75.9778C98.4687 83.3746 97.5068 91.5051 97.0523 95.3468C97.0176 95.6402 96.9858 95.9087 96.9566 96.1499C96.0629 103.523 89.1051 111.088 77.8799 112.157C73.2413 112.599 64.6702 111.881 56.3264 109.329C47.9914 106.779 39.8025 102.373 36.0273 95.3779C34.1479 91.8955 33.4081 88.8539 33.4046 85.9793C33.4011 83.1088 34.1321 80.4252 35.163 77.6626C35.6809 76.2744 36.2735 74.8672 36.8896 73.4041C38.7326 69.0274 40.7862 64.1506 41.6836 57.787C42.6444 50.9743 43.0144 44.1508 42.6271 38.7927C42.4334 36.1123 42.0511 33.8121 41.4654 32.0674C40.9185 30.4381 40.2132 29.3497 39.3731 28.8491C38.3307 30.1021 36.8873 30.5102 35.5699 30.4506C34.2032 30.3889 32.9139 29.8209 32.3002 29.105C30.8854 27.4544 31.1353 25.1302 31.8143 23.7548C32.5037 22.3584 33.6952 21.2884 35.0941 20.9315C36.5072 20.5709 38.0858 20.95 39.5009 22.3651C40.2131 23.0772 40.6193 24.0908 40.7368 25.0516C40.8355 25.8593 40.7356 26.6831 40.3882 27.2799C42.0755 28.2018 43.6174 29.7068 44.8832 31.3248C46.2248 33.0398 47.273 34.9035 47.8659 36.3859C49.1944 39.7071 50.8998 41.7884 52.7196 42.9064C54.5337 44.0208 56.4871 44.1944 58.3579 43.6544C62.1186 42.5689 65.5655 38.5851 66.7124 33.5196C67.3635 30.6439 67.2718 25.7696 65.5482 21.1143C63.8497 16.5272 60.5785 12.1807 54.9016 10.1522C54.3771 10.9178 53.2784 11.4346 52.027 11.6166C50.638 11.8187 48.9748 11.6249 47.4609 10.8331C45.9125 10.0233 45.177 8.53456 44.9864 7.01674C44.7966 5.50543 45.1395 3.92296 45.7958 2.85649ZM53.8365 1.50509C51.0788 -0.33333 47.7671 0.763712 46.2915 3.16153C45.7111 4.10464 45.389 5.55164 45.5639 6.94422C45.7379 8.33029 46.3968 9.61982 47.7306 10.3173C49.1267 11.0475 50.6647 11.2266 51.9432 11.0407C53.2426 10.8517 54.1909 10.302 54.5147 9.66701C54.5805 9.53793 54.7312 9.47693 54.8683 9.52393C60.8888 11.5882 64.3298 16.1476 66.094 20.9122C67.8549 25.6682 67.9573 30.6573 67.2801 33.6481C66.0989 38.8649 62.5332 43.0551 58.5193 44.2136C56.5029 44.7956 54.3787 44.6086 52.415 43.4023C50.4571 42.1995 48.6846 39.9997 47.3255 36.602C46.7544 35.1743 45.7349 33.3582 44.4247 31.6834C43.1129 30.0064 41.5265 28.4928 39.8297 27.6444C39.7495 27.6043 39.6923 27.5296 39.6745 27.4417C39.6568 27.3539 39.6805 27.2628 39.7388 27.1947C40.1007 26.7726 40.2658 25.9951 40.1591 25.1222C40.0536 24.2598 39.6899 23.3772 39.0894 22.7767C37.8027 21.49 36.43 21.1913 35.238 21.4954C34.0318 21.8032 32.9642 22.7404 32.3362 24.0124C31.7191 25.2623 31.5315 27.3139 32.7421 28.7262C33.2223 29.2865 34.3396 29.8124 35.5962 29.8692C36.8354 29.9252 38.1523 29.522 39.062 28.3039C39.1448 28.193 39.2944 28.1558 39.4195 28.2149C40.5725 28.76 41.4143 30.0861 42.0172 31.8822C42.6247 33.692 43.0122 36.0464 43.2076 38.7507C43.5987 44.1621 43.2245 51.0289 42.2599 57.8683C41.3509 64.3141 39.2559 69.2883 37.4074 73.6774C36.7969 75.1268 36.2134 76.5124 35.7083 77.8661C34.688 80.6004 33.9833 83.2086 33.9866 85.9786C33.99 88.7446 34.6996 91.6922 36.5395 95.1015C40.203 101.89 48.2041 106.235 56.4966 108.772C64.7803 111.306 73.2743 112.011 77.8247 111.578C88.8149 110.531 95.5223 103.146 96.3788 96.0798C96.408 95.8389 96.4398 95.5702 96.4746 95.276C96.9286 91.4367 97.8965 83.2511 100.364 75.7949C101.692 71.7817 103.461 67.9568 105.835 65.1302C108.215 62.2979 111.216 60.4536 114.989 60.4536C115.088 60.4536 115.181 60.5039 115.234 60.5872C116.158 62.0243 117.976 62.9295 119.815 63.0136C121.646 63.0973 123.438 62.3668 124.358 60.6096C125.163 59.0725 124.964 57.3213 124.136 55.9445C123.307 54.566 121.87 53.5969 120.24 53.5969C118.962 53.5969 117.722 53.9651 116.807 54.7567C115.899 55.5422 115.28 56.7703 115.28 58.5567C115.28 58.7175 115.15 58.8478 114.989 58.8478C114.829 58.8478 114.561 58.8855 114.181 58.9589C113.806 59.031 113.346 59.1329 112.81 59.2524L112.688 59.2796C111.638 59.5136 110.328 59.8058 108.875 60.0587C105.861 60.5831 102.204 60.9441 98.9468 60.2533C97.1388 59.8698 94.9441 57.9671 94.8407 53.0617C94.7376 48.1739 96.6984 40.2436 103.211 27.6302C103.284 27.4887 103.457 27.4322 103.599 27.5034C104.661 28.0344 106.858 28.048 108.514 26.5762C109.441 25.7526 110.075 24.8187 110.281 23.771C110.486 22.7284 110.275 21.5301 109.43 20.156C108.596 18.8005 107.44 18.0361 106.132 17.7593C104.818 17.481 103.329 17.692 101.838 18.3309C100.436 18.9315 99.5525 20.5113 99.3603 22.2257C99.1681 23.9402 99.6807 25.6699 100.922 26.5569C101.019 26.6261 101.064 26.7475 101.036 26.8632C97.9997 39.1962 89.5359 45.0187 84.9625 47.0424C82.094 48.3116 79.8184 48.3126 78.0859 47.5042C76.3591 46.6984 75.2324 45.1167 74.5981 43.3431C73.9638 41.5693 73.8102 39.5741 74.051 37.8847C74.1715 37.0394 74.3921 36.261 74.7083 35.6206C75.0232 34.9825 75.4428 34.4622 75.9717 34.1643C82.7785 30.3306 88.4984 26.7748 91.5647 19.4332C91.6099 19.3249 91.7158 19.2543 91.8332 19.2543C92.8852 19.2543 94.5195 18.7729 95.511 16.7898C96.1129 15.586 95.9216 14.1043 95.2445 12.9063C94.5649 11.7039 93.4432 10.8662 92.2708 10.8662C90.682 10.8662 89.7163 11.287 89.0698 11.8596C88.4133 12.4412 88.0532 13.2059 87.725 13.9716C87.0732 15.4926 87.7797 17.7445 89.7814 18.3676C89.9318 18.4144 90.0177 18.5724 89.9751 18.7241C88.6267 23.5255 84.1109 26.8768 79.754 28.3203C77.5715 29.0435 75.3975 29.2994 73.6422 29.0046C71.887 28.7098 70.4961 27.849 70.0163 26.2976C69.8753 25.8416 69.7465 25.3174 69.6029 24.7335C69.179 23.0092 68.627 20.7639 67.2556 18.2128C65.4297 14.8164 62.1506 10.8983 55.7899 7.13966C55.679 7.07413 55.6244 6.9435 55.6556 6.81854C56.0327 5.31032 55.9333 4.23349 55.5793 3.41957C55.2242 2.60314 54.5957 2.01121 53.8365 1.50509Z" fill="#5B5B66"/>
<path fill-rule="evenodd" clip-rule="evenodd" d="M22.471 97.916C23.1114 97.1201 23.9317 96.6684 24.9152 96.6991C26.7946 96.7578 28.153 97.8517 29.2927 99.4425C30.2842 100.826 31.1408 102.63 32.0491 104.542C32.1792 104.816 32.3104 105.092 32.4432 105.37C34.5792 109.833 37.1639 114.707 42.5169 116.848C44.6649 117.707 46.4396 117.868 47.8975 117.581C49.3539 117.295 50.5186 116.558 51.4406 115.579C53.2947 113.61 54.156 110.673 54.3712 108.556C54.3875 108.396 54.5303 108.28 54.6902 108.296C54.8501 108.312 54.9665 108.455 54.9502 108.615C54.7279 110.801 53.839 113.881 51.8643 115.978C50.8719 117.031 49.6027 117.839 48.0098 118.152C46.4184 118.465 44.5284 118.279 42.3008 117.388C36.7146 115.154 34.0485 110.073 31.9182 105.621C31.7842 105.341 31.6525 105.064 31.5223 104.79C30.61 102.87 29.7783 101.119 28.8196 99.7814C27.7305 98.2614 26.5182 97.3315 24.897 97.2808C24.1303 97.2569 23.4737 97.5983 22.9245 98.2808C22.3684 98.9719 21.9306 100.006 21.6348 101.327C21.044 103.965 21.04 107.659 21.693 111.767C22.9992 119.985 26.9165 129.759 33.851 135.935C33.971 136.042 33.9817 136.226 33.8748 136.346C33.7679 136.466 33.5839 136.476 33.4639 136.37C26.3963 130.075 22.4373 120.158 21.1182 111.858C20.4584 107.707 20.4544 103.935 21.0669 101.2C21.3728 99.8333 21.8375 98.7034 22.471 97.916Z" fill="#5B5B66"/>
<path fill-rule="evenodd" clip-rule="evenodd" d="M38.6318 128.69C38.7655 128.779 38.8016 128.96 38.7125 129.094C34.7142 135.091 29.7351 144.738 27.7833 154.179C25.8298 163.628 26.9243 172.763 34.9088 177.914C35.0438 178.001 35.0827 178.181 34.9955 178.317C34.9084 178.452 34.7283 178.49 34.5932 178.403C26.3002 173.053 25.2433 163.591 27.2133 154.061C29.1851 144.523 34.2044 134.807 38.2282 128.771C38.3174 128.637 38.498 128.601 38.6318 128.69Z" fill="#5B5B66"/>
<path fill-rule="evenodd" clip-rule="evenodd" d="M30.8134 174.367C30.9741 174.367 31.1044 174.497 31.1044 174.658L31.1044 187.566C31.1044 187.711 30.9987 187.833 30.856 187.854C28.9395 188.138 26.019 189.331 23.8868 190.907C22.8205 191.695 21.9788 192.559 21.5488 193.426C21.127 194.277 21.103 195.12 21.6478 195.938C21.7379 196.073 21.9207 196.23 22.2224 196.397C22.5193 196.562 22.9079 196.723 23.3803 196.879C24.3249 197.19 25.5751 197.467 27.0303 197.699C29.939 198.161 33.6337 198.433 37.2675 198.433C40.904 198.433 44.4612 198.16 47.1008 197.539C48.4228 197.227 49.493 196.833 50.2258 196.357C50.9584 195.882 51.3068 195.358 51.3068 194.786C51.3068 193.374 51.2726 192.056 51.2394 190.775C51.1755 188.313 51.1152 185.986 51.3076 183.388C51.3195 183.228 51.4591 183.107 51.6193 183.119C51.7796 183.131 51.8999 183.271 51.8881 183.431C51.6976 186.002 51.7569 188.279 51.8206 190.721C51.8541 192.008 51.8888 193.341 51.8888 194.786C51.8889 195.637 51.3576 196.316 50.5428 196.846C49.7281 197.375 48.5831 197.788 47.2342 198.105C44.5318 198.742 40.9238 199.015 37.2675 199.015C33.6085 199.015 29.8828 198.741 26.939 198.273C25.468 198.04 24.184 197.756 23.1982 197.432C22.7056 197.269 22.28 197.094 21.9402 196.906C21.6052 196.72 21.3288 196.508 21.1636 196.26C20.4832 195.24 20.5304 194.17 21.0274 193.168C21.5163 192.182 22.4412 191.252 23.5409 190.439C25.6523 188.879 28.5087 187.678 30.5224 187.319L30.5224 174.658C30.5224 174.497 30.6526 174.367 30.8134 174.367Z" fill="#5B5B66"/>
<path fill-rule="evenodd" clip-rule="evenodd" d="M61.944 182.464C61.9829 182.62 61.8881 182.778 61.7322 182.817C59.2427 183.439 56.0751 183.566 53.1421 183.476C50.2047 183.386 47.4794 183.079 45.8635 182.822C45.7048 182.797 45.5966 182.647 45.6218 182.489C45.6471 182.33 45.7962 182.222 45.9549 182.247C47.5478 182.5 50.2484 182.805 53.1598 182.894C56.0757 182.984 59.1798 182.855 61.5911 182.252C61.747 182.213 61.905 182.308 61.944 182.464Z" fill="#5B5B66"/>
<path fill-rule="evenodd" clip-rule="evenodd" d="M59.2601 182.681C59.4208 182.684 59.5488 182.816 59.546 182.977C59.4926 186.075 59.5175 190.268 59.5346 193.15C59.5409 194.2 59.5461 195.076 59.5461 195.661C59.5461 195.822 59.4158 195.952 59.2551 195.952C59.0944 195.952 58.9641 195.822 58.9641 195.661C58.9641 195.081 58.9589 194.21 58.9527 193.164C58.9355 190.281 58.9105 186.073 58.9641 182.967C58.9669 182.806 59.0994 182.678 59.2601 182.681Z" fill="#5B5B66"/>
<path fill-rule="evenodd" clip-rule="evenodd" d="M68.0888 111.151C68.243 111.196 68.3312 111.358 68.2859 111.512C67.9338 112.709 67.72 114.69 68.234 116.707C68.7455 118.714 69.9761 120.756 72.5193 122.112C74.132 122.972 76.4279 123.716 78.9633 124.533L79.0473 124.56C81.5469 125.365 84.2584 126.238 86.6972 127.355C89.1608 128.484 91.3779 129.875 92.8252 131.727C94.2836 133.594 94.9459 135.91 94.3267 138.838C93.5053 142.721 91.945 145.131 90.0704 146.764C88.2119 148.383 86.0622 149.219 84.1042 149.98L84.0834 149.988C83.9336 150.046 83.7649 149.972 83.7067 149.822C83.6484 149.673 83.7226 149.504 83.8724 149.446C85.847 148.678 87.9108 147.873 89.6882 146.325C91.4561 144.785 92.9588 142.492 93.7573 138.718C94.3413 135.957 93.7183 133.816 92.3666 132.086C91.004 130.342 88.8864 128.998 86.4548 127.884C84.0475 126.782 81.3635 125.917 78.8533 125.109L78.7849 125.087C76.2678 124.276 73.9144 123.516 72.2454 122.626C69.5378 121.182 68.2159 118.993 67.67 116.851C67.1265 114.718 67.3503 112.63 67.7275 111.348C67.7728 111.193 67.9346 111.105 68.0888 111.151Z" fill="#5B5B66"/>
<path fill-rule="evenodd" clip-rule="evenodd" d="M74.2467 135.885C74.3944 135.948 74.4628 136.119 74.3995 136.267C73.432 138.525 72.2826 143.442 73.1103 147.994C73.5231 150.264 74.4246 152.428 76.0695 154.13C77.7116 155.829 80.1158 157.091 83.5759 157.523C87.8137 158.053 91.2631 155.616 92.8293 152.776C93.6124 151.356 93.9083 149.864 93.6243 148.616C93.3442 147.385 92.4929 146.354 90.8891 145.837C90.7361 145.788 90.6521 145.624 90.7015 145.471C90.7508 145.318 90.9148 145.234 91.0678 145.283C92.855 145.86 93.8634 147.044 94.1918 148.487C94.5162 149.912 94.1694 151.551 93.339 153.057C91.6781 156.069 88.0171 158.665 83.5037 158.101C79.9324 157.654 77.3988 156.343 75.6509 154.534C73.9058 152.728 72.9651 150.448 72.5377 148.098C71.685 143.408 72.8631 138.374 73.8646 136.038C73.9279 135.89 74.099 135.821 74.2467 135.885Z" fill="#5B5B66"/>
<path fill-rule="evenodd" clip-rule="evenodd" d="M81.9195 157.097C82.0724 157.048 82.2365 157.132 82.2861 157.285C83.169 160.007 84.0844 164.394 83.9629 168.726C83.8429 173.007 82.7071 177.308 79.4367 179.849C79.4355 179.858 79.4342 179.867 79.4329 179.877C79.4199 179.971 79.4014 180.109 79.3793 180.281C79.3352 180.624 79.2768 181.105 79.2197 181.652C79.1051 182.749 78.9973 184.102 79.0182 185.154C79.035 185.997 79.1429 187.079 79.2479 187.957C79.3002 188.394 79.3515 188.778 79.3897 189.053C79.4088 189.19 79.4246 189.3 79.4356 189.376C79.4411 189.414 79.4455 189.443 79.4484 189.462L79.4517 189.485L79.4528 189.491L79.1651 189.535L79.4528 189.492C79.4769 189.651 79.3677 189.799 79.2088 189.823C79.0499 189.847 78.9015 189.738 78.8774 189.579L79.1651 189.535C78.8774 189.579 78.8774 189.579 78.8774 189.579L78.8773 189.579L78.8762 189.571L78.8727 189.548C78.8697 189.528 78.8653 189.498 78.8597 189.46C78.8485 189.383 78.8325 189.272 78.8132 189.133C78.7747 188.856 78.7229 188.468 78.67 188.026C78.5646 187.145 78.4537 186.039 78.4363 185.166C78.4147 184.075 78.5258 182.693 78.6408 181.591C78.6985 181.039 78.7575 180.554 78.8021 180.206C78.8244 180.033 78.8431 179.894 78.8562 179.798C78.8628 179.75 78.868 179.713 78.8716 179.688L78.8756 179.659L78.877 179.649C78.8771 179.649 78.8771 179.649 79.1651 179.69L78.877 179.649C78.888 179.573 78.9284 179.504 78.9895 179.458C82.1213 177.088 83.2617 172.971 83.3812 168.71C83.5003 164.459 82.5999 160.139 81.7325 157.464C81.6829 157.311 81.7666 157.147 81.9195 157.097Z" fill="#5B5B66"/>
<path fill-rule="evenodd" clip-rule="evenodd" d="M74.5776 189.608L74.57 189.608C74.4093 189.608 74.279 189.477 74.279 189.317C74.279 189.156 74.4093 189.026 74.57 189.026L74.5791 189.026C75.05 189.026 77.9428 189.026 80.9038 189.738C82.394 190.097 83.9187 190.64 85.1643 191.466C86.413 192.295 87.3949 193.42 87.7612 194.937C87.9855 195.866 87.6047 196.661 86.8585 197.3C86.1234 197.928 85.0101 198.432 83.6737 198.826C80.9942 199.616 77.3057 200 73.6127 200C69.919 200 66.1919 199.616 63.4336 198.855C62.0573 198.475 60.8985 197.995 60.1054 197.404C59.3099 196.812 58.8357 196.068 58.9671 195.181C58.9906 195.022 59.1386 194.913 59.2976 194.936C59.4566 194.96 59.5664 195.108 59.5428 195.267C59.4554 195.856 59.7469 196.412 60.453 196.937C61.1615 197.465 62.2401 197.921 63.5884 198.294C66.2792 199.036 69.9498 199.418 73.6127 199.418C77.2764 199.418 80.9035 199.036 83.5091 198.268C84.8152 197.882 85.8367 197.408 86.4802 196.857C87.1125 196.316 87.3539 195.73 87.1954 195.073C86.8729 193.737 86.0063 192.724 84.8424 191.951C83.6752 191.177 82.223 190.654 80.7677 190.304C77.8741 189.608 75.0362 189.608 74.5776 189.608Z" fill="#5B5B66"/>
<path fill-rule="evenodd" clip-rule="evenodd" d="M26.9719 91.8351C27.0517 91.6956 27.2295 91.6471 27.369 91.7269C29.6466 93.0286 32.1336 95.8025 33.1798 98.2082C33.2439 98.3556 33.1764 98.527 33.029 98.5911C32.8816 98.6552 32.7102 98.5877 32.6461 98.4403C31.6499 96.1497 29.2488 93.4716 27.0802 92.2322C26.9407 92.1524 26.8922 91.9747 26.9719 91.8351ZM8.27849 103.7C8.43921 103.7 8.5695 103.83 8.5695 103.991C8.5695 105.295 8.64566 107.473 8.87435 109.76C9.10353 112.052 9.48383 114.43 10.0846 116.147C10.1377 116.298 10.0578 116.465 9.90611 116.518C9.75441 116.571 9.5884 116.491 9.5353 116.339C8.91093 114.555 8.52549 112.12 8.29522 109.818C8.06446 107.51 7.98748 105.313 7.98748 103.991C7.98748 103.83 8.11777 103.7 8.27849 103.7ZM0.829811 109.826C0.990435 109.821 1.12514 109.946 1.13068 110.107C1.16679 111.154 1.29706 112.826 1.56976 114.427C1.7061 115.228 1.87711 116.006 2.08768 116.677C2.29987 117.354 2.54532 117.899 2.81982 118.252C2.91849 118.379 2.89564 118.562 2.76877 118.66C2.64191 118.759 2.45907 118.736 2.3604 118.609C2.02231 118.175 1.75179 117.551 1.53234 116.852C1.31126 116.147 1.13495 115.341 0.995996 114.525C0.718087 112.893 0.585821 111.195 0.549004 110.127C0.543466 109.966 0.669187 109.832 0.829811 109.826Z" fill="#5B5B66"/>
<path fill-rule="evenodd" clip-rule="evenodd" d="M47.1948 135.571C47.2284 135.469 47.3381 135.414 47.4398 135.447C47.5496 135.484 47.6533 135.566 47.7463 135.658C47.8432 135.755 47.9456 135.88 48.0514 136.028C48.2631 136.325 48.4984 136.725 48.7387 137.196C49.2196 138.14 49.7284 139.383 50.1125 140.68C50.4961 141.976 50.7589 143.337 50.7393 144.512C50.7199 145.681 50.4197 146.716 49.6195 147.289C48.9728 147.751 48.292 147.735 47.6438 147.418C47.0088 147.107 46.3995 146.507 45.8448 145.787C44.7325 144.343 43.7858 142.347 43.2532 140.951C43.215 140.851 43.2652 140.739 43.3653 140.701C43.4654 140.663 43.5775 140.713 43.6157 140.813C44.1416 142.191 45.0722 144.148 46.1521 145.55C46.6935 146.252 47.2589 146.798 47.8144 147.07C48.3566 147.335 48.8818 147.339 49.3938 146.973C50.042 146.509 50.3326 145.633 50.3513 144.506C50.37 143.386 50.1185 142.067 49.7405 140.79C49.363 139.515 48.863 138.294 48.393 137.373C48.1578 136.911 47.9323 136.529 47.7357 136.254C47.6372 136.116 47.5487 136.009 47.4725 135.933C47.3924 135.853 47.341 135.823 47.3183 135.816C47.2166 135.782 47.1613 135.673 47.1948 135.571Z" fill="#5DCB42"/>
<path fill-rule="evenodd" clip-rule="evenodd" d="M53.0222 133.933C53.1256 133.905 53.2323 133.966 53.2606 134.069C53.4966 134.931 53.626 136.295 53.2452 137.6C52.8615 138.915 51.9584 140.169 50.1439 140.773C50.0423 140.807 49.9324 140.752 49.8986 140.65C49.8647 140.548 49.9197 140.439 50.0214 140.405C51.6983 139.847 52.5195 138.702 52.8728 137.491C53.229 136.271 53.1081 134.982 52.8863 134.172C52.858 134.068 52.9189 133.962 53.0222 133.933Z" fill="#5DCB42"/>
<path fill-rule="evenodd" clip-rule="evenodd" d="M58.8197 135.122C58.8858 135.206 58.8709 135.328 58.7866 135.394C58.7777 135.401 58.7568 135.416 58.7248 135.438C57.8609 136.043 48.9355 142.292 51.5955 155.036C51.6174 155.141 51.5501 155.244 51.4453 155.266C51.3404 155.287 51.2376 155.22 51.2157 155.115C49.8113 148.387 51.5811 143.425 53.7381 140.121C54.8155 138.471 55.9884 137.236 56.9076 136.401C57.3673 135.984 57.7638 135.666 58.0536 135.447C58.1986 135.337 58.3167 135.252 58.4025 135.191C58.44 135.164 58.4713 135.142 58.4956 135.125L58.5055 135.119C58.5184 135.11 58.5285 135.102 58.5362 135.097C58.5437 135.092 58.5468 135.089 58.5473 135.089L58.5473 135.089C58.6317 135.023 58.7536 135.038 58.8197 135.122Z" fill="#5DCB42"/>
<path fill-rule="evenodd" clip-rule="evenodd" d="M62.0845 142.556C62.1606 142.631 62.1613 142.754 62.086 142.83C59.0489 145.901 56.632 146.907 54.7885 147.11C53.8684 147.21 53.1007 147.11 52.4829 146.975C52.2063 146.914 51.9589 146.847 51.7446 146.788C51.7204 146.781 51.6967 146.775 51.6733 146.769C51.4387 146.705 51.2558 146.657 51.1094 146.64C51.003 146.627 50.9273 146.53 50.9402 146.424C50.9532 146.317 51.0499 146.241 51.1563 146.254C51.3357 146.276 51.5466 146.332 51.7752 146.394C51.7987 146.401 51.8225 146.407 51.8466 146.414C52.0615 146.472 52.2995 146.537 52.5657 146.595C53.1554 146.724 53.8793 146.819 54.7462 146.724C56.4767 146.534 58.8158 145.585 61.8101 142.557C61.8854 142.481 62.0083 142.48 62.0845 142.556Z" fill="#5DCB42"/>
<path fill-rule="evenodd" clip-rule="evenodd" d="M57.2809 146.128C57.3859 146.106 57.4883 146.174 57.5097 146.279C57.6279 146.86 58.554 148.351 61.4184 149.047C61.5225 149.072 61.5865 149.177 61.5612 149.281C61.5359 149.385 61.431 149.449 61.3269 149.424C58.3685 148.706 57.2871 147.131 57.1295 146.357C57.1081 146.252 57.1759 146.149 57.2809 146.128Z" fill="#5DCB42"/>
<path d="M44.1396 140.527C44.0812 141.007 43.645 141.349 43.1652 141.29C42.6854 141.232 42.3438 140.796 42.4021 140.316C42.4605 139.836 42.8968 139.494 43.3765 139.553C43.8563 139.611 44.198 140.047 44.1396 140.527Z" fill="#5DCB42"/>
<path d="M47.8662 135.25C47.8078 135.73 47.3715 136.072 46.8918 136.013C46.412 135.955 46.0703 135.519 46.1287 135.039C46.1871 134.559 46.6233 134.217 47.1031 134.276C47.5829 134.334 47.9245 134.77 47.8662 135.25Z" fill="#5DCB42"/>
<path d="M53.83 133.331C53.7717 133.811 53.3354 134.152 52.8556 134.094C52.3758 134.036 52.0342 133.599 52.0926 133.12C52.1509 132.64 52.5872 132.298 53.067 132.357C53.5468 132.415 53.8884 132.851 53.83 133.331Z" fill="#5DCB42"/>
<path d="M60.2402 134.992C60.1818 135.472 59.7456 135.814 59.2658 135.755C58.786 135.697 58.4444 135.261 58.5027 134.781C58.5611 134.301 58.9973 133.959 59.4771 134.018C59.9569 134.076 60.2985 134.512 60.2402 134.992Z" fill="#5DCB42"/>
<path d="M63.3037 142.418C63.2453 142.897 62.809 143.239 62.3293 143.181C61.8495 143.122 61.5078 142.686 61.5662 142.206C61.6246 141.726 62.0608 141.385 62.5406 141.443C63.0204 141.501 63.362 141.938 63.3037 142.418Z" fill="#5DCB42"/>
<path d="M62.8935 149.42C62.8351 149.9 62.3989 150.242 61.9191 150.183C61.4393 150.125 61.0977 149.689 61.156 149.209C61.2144 148.729 61.6507 148.387 62.1305 148.446C62.6102 148.504 62.9519 148.94 62.8935 149.42Z" fill="#5DCB42"/>
<path fill-rule="evenodd" clip-rule="evenodd" d="M48.1068 131.525L40.2457 142.231L45.5576 154.706L58.7236 156.458L66.5847 145.752L61.2728 133.277L48.1068 131.525ZM61.5432 132.922L47.9301 131.11L39.8021 142.179L45.2872 155.061L58.9003 156.873L67.0283 145.804L61.5432 132.922Z" fill="#5DCB42"/>
<path d="M71.0685 103.772C66.8388 103.772 66.2553 101.147 63.8486 98.3027C66.2753 99.084 72.298 99.9153 76.9757 96.99C76.1005 98.7403 74.7878 103.772 71.0685 103.772Z" fill="#5B5B66"/>
<path fill-rule="evenodd" clip-rule="evenodd" d="M77.1714 96.7747C77.2679 96.8624 77.2942 97.0035 77.2359 97.1201C77.0925 97.407 76.9385 97.7812 76.7585 98.2186C76.6706 98.4322 76.5765 98.6608 76.4744 98.9017C76.1684 99.6237 75.7995 100.432 75.337 101.189C74.417 102.695 73.0827 104.063 71.0685 104.063C69.9805 104.063 69.111 103.894 68.3811 103.586C67.6501 103.277 67.0739 102.834 66.5654 102.306C66.0604 101.782 65.6179 101.17 65.16 100.526C65.1279 100.481 65.0956 100.435 65.0633 100.39C64.6314 99.7813 64.1774 99.1417 63.6265 98.4907C63.5426 98.3915 63.5345 98.2487 63.6068 98.1408C63.6791 98.0328 63.8142 97.9859 63.9378 98.0257C65.1203 98.4064 67.2001 98.8048 69.5607 98.7454C71.9207 98.6861 74.54 98.1699 76.8214 96.7433C76.9319 96.6741 77.0749 96.687 77.1714 96.7747ZM64.6421 98.8251C64.9666 99.248 65.259 99.6598 65.5358 100.05C65.5689 100.096 65.6018 100.143 65.6344 100.189C66.095 100.837 66.514 101.414 66.9844 101.902C67.4513 102.386 67.9645 102.778 68.6078 103.05C69.252 103.322 70.0416 103.481 71.0685 103.481C72.7736 103.481 73.9553 102.334 74.8403 100.886C75.2803 100.166 75.6361 99.3883 75.9386 98.6746C76.0328 98.4522 76.1228 98.2336 76.2089 98.0244C76.2567 97.9083 76.3033 97.7951 76.3488 97.6858C74.1517 98.8437 71.7426 99.2728 69.5753 99.3272C67.6507 99.3756 65.9034 99.129 64.6421 98.8251Z" fill="#5B5B66"/>
<path fill-rule="evenodd" clip-rule="evenodd" d="M54.6368 93.5468C54.7259 93.4131 54.9066 93.3769 55.0404 93.4661C55.065 93.4825 55.1086 93.5133 55.1701 93.5568C55.953 94.1097 59.6455 96.7177 64.3372 98.0223C69.3863 99.4263 75.541 99.3103 80.4739 93.5195C80.5781 93.3972 80.7618 93.3825 80.8841 93.4867C81.0065 93.5909 81.0212 93.7746 80.9169 93.8969C75.7858 99.9205 69.3604 100.023 64.1813 98.583C59.3807 97.2481 55.6065 94.5783 54.8397 94.0359C54.7811 93.9944 54.7401 93.9654 54.7175 93.9503C54.5838 93.8612 54.5476 93.6805 54.6368 93.5468Z" fill="#5B5B66"/>
<path d="M53.1291 77.5182C53.1291 79.6931 51.366 81.4563 49.191 81.4563C47.0161 81.4563 45.2529 79.6931 45.2529 77.5182C45.2529 75.3432 47.0161 73.5801 49.191 73.5801C51.366 73.5801 53.1291 75.3432 53.1291 77.5182Z" fill="#5B5B66"/>
<path d="M51.1604 76.6073C51.1604 76.9698 50.8665 77.2636 50.504 77.2636C50.1415 77.2636 49.8477 76.9698 49.8477 76.6073C49.8477 76.2448 50.1415 75.9509 50.504 75.9509C50.8665 75.9509 51.1604 76.2448 51.1604 76.6073Z" fill="white"/>
<path d="M82.0081 84.5193C82.0081 86.6942 80.2449 88.4574 78.0699 88.4574C75.895 88.4574 74.1318 86.6942 74.1318 84.5193C74.1318 82.3443 75.895 80.5812 78.0699 80.5812C80.2449 80.5812 82.0081 82.3443 82.0081 84.5193Z" fill="#5B5B66"/>
<path d="M80.4768 83.6084C80.4768 83.9709 80.1829 84.2647 79.8204 84.2647C79.4579 84.2647 79.1641 83.9709 79.1641 83.6084C79.1641 83.2459 79.4579 82.952 79.8204 82.952C80.1829 82.952 80.4768 83.2459 80.4768 83.6084Z" fill="white"/>
<path fill-rule="evenodd" clip-rule="evenodd" d="M78.2476 69.2931C78.3195 69.1493 78.4943 69.0911 78.638 69.1629C78.6364 69.1621 78.6356 69.1617 78.6356 69.1617C78.6357 69.1614 78.6529 69.1678 78.7007 69.1781C78.7522 69.1891 78.821 69.201 78.909 69.2147C78.9895 69.2272 79.0818 69.2406 79.1867 69.2558C79.1957 69.2571 79.2048 69.2584 79.2139 69.2597C79.3295 69.2764 79.4584 69.2952 79.5983 69.3168C80.1582 69.4032 80.8969 69.5354 81.7074 69.773C83.3252 70.2472 85.2518 71.1479 86.6169 72.9679C86.7133 73.0965 86.6873 73.2789 86.5587 73.3753C86.4301 73.4718 86.2477 73.4457 86.1513 73.3171C84.8909 71.6367 83.0982 70.7871 81.5437 70.3315C80.768 70.1041 80.0573 69.9765 79.5095 69.892C79.3725 69.8709 79.2459 69.8524 79.1305 69.8357C79.1211 69.8344 79.1118 69.833 79.1025 69.8317C78.9987 69.8166 78.9033 69.8028 78.8195 69.7898C78.7289 69.7757 78.6468 69.7618 78.5785 69.7471C78.5173 69.734 78.4409 69.7151 78.3777 69.6835C78.234 69.6116 78.1757 69.4368 78.2476 69.2931Z" fill="#5B5B66"/>
<path fill-rule="evenodd" clip-rule="evenodd" d="M58.9988 60.304C55.0712 59.7917 51.9573 61.5183 50.9132 62.4232C50.7918 62.5285 50.608 62.5154 50.5027 62.3939C50.3975 62.2724 50.4106 62.0887 50.5321 61.9834C51.6758 60.9921 54.9505 59.189 59.0741 59.7269C59.2334 59.7477 59.3458 59.8937 59.325 60.0531C59.3042 60.2125 59.1582 60.3248 58.9988 60.304Z" fill="#5B5B66"/>
</svg>
