<svg width="124" height="180" viewBox="0 0 124 180" fill="none" xmlns="http://www.w3.org/2000/svg">
    <path fill-rule="evenodd" clip-rule="evenodd" d="M78.2141 114.371C78.4007 114.312 78.5992 114.416 78.6576 114.603C79.7671 118.153 80.3927 126.832 74.0047 133.22C73.8665 133.358 73.6423 133.358 73.5041 133.22C73.3658 133.082 73.3658 132.858 73.5041 132.719C79.6379 126.585 79.0462 118.22 77.9818 114.814C77.9235 114.628 78.0275 114.429 78.2141 114.371Z" fill="#5B5B66"/>
    <path fill-rule="evenodd" clip-rule="evenodd" d="M85.8899 111.203C86.0248 111.062 86.2489 111.057 86.3904 111.192C91.1395 115.722 97.1096 122.756 101.895 130.418C106.673 138.069 110.305 146.4 110.305 153.514C110.305 153.709 110.146 153.868 109.951 153.868C109.755 153.868 109.597 153.709 109.597 153.514C109.597 146.605 106.054 138.414 101.294 130.793C96.5414 123.183 90.6092 116.195 85.9016 111.704C85.7602 111.569 85.7549 111.345 85.8899 111.203Z" fill="#5B5B66"/>
    <path fill-rule="evenodd" clip-rule="evenodd" d="M113.557 152.523C111.45 152.767 108.219 154.276 103.015 158.993C98.564 163.026 96.4227 167.235 96.1286 170.73C95.8364 174.203 97.3593 176.983 100.297 178.292C105.249 179.952 108.803 179.378 111.472 177.794C114.164 176.197 116.008 173.544 117.469 170.948C118.595 168.945 119.804 165.325 120.123 161.849C120.283 160.112 120.218 158.434 119.824 157.021C119.431 155.612 118.718 154.49 117.595 153.817C117.448 153.728 117.299 153.63 117.144 153.528C116.306 152.977 115.307 152.32 113.557 152.523ZM117.558 152.951C117.702 153.047 117.835 153.135 117.959 153.209C119.282 154.003 120.08 155.304 120.506 156.831C120.931 158.355 120.992 160.127 120.828 161.913C120.501 165.482 119.265 169.2 118.086 171.295C116.611 173.917 114.692 176.708 111.834 178.403C108.955 180.11 105.177 180.678 100.055 178.958C100.045 178.954 100.035 178.95 100.025 178.946C96.7698 177.503 95.1082 174.414 95.4231 170.671C95.7366 166.944 98.0007 162.581 102.539 158.468C107.769 153.728 111.14 152.09 113.475 151.819C115.499 151.585 116.715 152.392 117.558 152.951Z" fill="#5B5B66"/>
    <path fill-rule="evenodd" clip-rule="evenodd" d="M69.5767 115.777C69.7066 115.631 69.9304 115.618 70.0765 115.748C75.6854 120.733 77.1829 125.437 77.6117 126.784C77.6371 126.864 77.6587 126.932 77.6772 126.987C77.7391 127.173 77.6388 127.373 77.4534 127.435C77.2679 127.497 77.0674 127.397 77.0056 127.211C76.9874 127.157 76.9661 127.09 76.9411 127.011C76.5251 125.702 75.0757 121.139 69.6061 116.277C69.46 116.147 69.4468 115.923 69.5767 115.777Z" fill="#5B5B66"/>
    <path fill-rule="evenodd" clip-rule="evenodd" d="M50.5787 112.895C50.6807 113.061 50.6281 113.279 50.4613 113.381C49.5184 113.957 48.5237 114.97 48.3948 116.142C48.2719 117.26 48.9259 118.723 51.7341 120.259C52.9894 120.776 56.404 121.509 59.9403 120.246C59.9879 120.229 60.0385 120.222 60.0888 120.226C61.5109 120.345 63.3853 121.246 64.4864 123.506C65.5835 125.757 65.8905 129.308 64.3122 134.701C64.2573 134.888 64.0607 134.996 63.8731 134.941C63.6854 134.886 63.5778 134.689 63.6327 134.502C65.185 129.198 64.8398 125.847 63.8499 123.816C62.8843 121.834 61.2842 121.063 60.1039 120.939C56.3785 122.242 52.8031 121.472 51.4449 120.906C51.4335 120.901 51.4224 120.896 51.4115 120.89C48.4944 119.299 47.5207 117.614 47.6911 116.065C47.8557 114.568 49.0784 113.397 50.0921 112.777C50.2589 112.675 50.4768 112.728 50.5787 112.895Z" fill="#5B5B66"/>
    <path fill-rule="evenodd" clip-rule="evenodd" d="M85.0151 124.509C85.1855 124.605 85.2459 124.821 85.15 124.991C82.1625 130.303 77.825 133.115 72.4853 133.649C72.0807 133.689 71.6797 133.728 71.2836 133.766C68.4614 134.039 65.8803 134.289 63.921 134.945C62.8111 135.316 61.9376 135.807 61.342 136.476C60.7541 137.136 60.4126 137.998 60.4126 139.166C60.4126 142.052 62.4337 143.997 65.4667 145.238C68.4968 146.477 72.44 146.964 76.0371 146.964C78.47 146.964 81.9912 146.8 85.4229 145.164C88.8404 143.535 92.2008 140.43 94.2902 134.483C94.3551 134.299 94.5571 134.202 94.7416 134.267C94.926 134.331 95.023 134.534 94.9582 134.718C92.8085 140.837 89.321 144.09 85.7276 145.804C82.1483 147.51 78.4955 147.672 76.0371 147.672C72.3937 147.672 68.3477 147.181 65.1987 145.893C62.0525 144.606 59.7046 142.475 59.7046 139.166C59.7046 137.845 60.0968 136.81 60.8132 136.005C61.5221 135.209 62.5236 134.666 63.6963 134.273C65.7384 133.59 68.4113 133.332 71.2176 133.061C71.6144 133.023 72.014 132.984 72.4148 132.944C77.51 132.435 81.6509 129.768 84.533 124.644C84.6288 124.474 84.8447 124.414 85.0151 124.509Z" fill="#5B5B66"/>
    <path fill-rule="evenodd" clip-rule="evenodd" d="M63.8926 144.454C64.0331 144.59 64.0368 144.814 63.9008 144.954C62.2998 146.609 60.1285 149.599 58.8436 153.168C57.5598 156.733 57.1716 160.84 59.0737 164.771C59.1589 164.947 59.0853 165.159 58.9093 165.244C58.7333 165.329 58.5216 165.256 58.4364 165.08C56.4255 160.924 56.8525 156.607 58.1774 152.928C59.5013 149.251 61.7322 146.177 63.3921 144.462C63.528 144.321 63.7521 144.318 63.8926 144.454Z" fill="#5B5B66"/>
    <path fill-rule="evenodd" clip-rule="evenodd" d="M49.8881 148.979C47.5634 146.339 44.8633 145.756 42.5814 146.669C42.0841 146.868 41.681 147.305 41.3798 147.997C41.0777 148.691 40.8923 149.611 40.8193 150.713C40.6736 152.914 40.9819 155.758 41.6096 158.763C42.2366 161.763 43.1781 164.905 44.2868 167.695C45.3977 170.491 46.6676 172.912 47.9425 174.487C50.1991 177.275 53.6336 177.581 56.8054 176.646C58.3878 176.18 59.8835 175.409 61.095 174.506C62.3113 173.6 63.2165 172.58 63.6497 171.628C63.6933 171.533 63.7773 171.461 63.8787 171.434C63.9802 171.406 64.0888 171.425 64.1749 171.485C71.0606 176.305 78.7124 177.207 84.8673 176.896C87.9435 176.74 90.6398 176.282 92.6713 175.861C93.5209 175.686 94.2527 175.517 94.8501 175.379C94.9674 175.352 95.0796 175.326 95.1864 175.301C95.5103 175.227 95.7887 175.165 96.0125 175.121C96.228 175.079 96.4214 175.048 96.562 175.048C96.7575 175.048 96.916 175.206 96.916 175.402C96.916 175.597 96.7575 175.756 96.562 175.756C96.4988 175.756 96.3682 175.773 96.1485 175.816C95.9372 175.857 95.6692 175.917 95.3446 175.991C95.239 176.016 95.1277 176.041 95.0109 176.068C94.4135 176.206 93.673 176.377 92.8148 176.555C90.7619 176.98 88.0274 177.445 84.9031 177.603C78.7558 177.914 71.0761 177.036 64.1043 172.296C63.5622 173.269 62.6453 174.234 61.5181 175.074C60.2416 176.025 58.6707 176.835 57.0055 177.326C53.6821 178.305 49.8975 178.028 47.3922 174.933C46.0521 173.277 44.7509 170.78 43.6289 167.957C42.5048 165.127 41.5517 161.947 40.9166 158.908C40.2823 155.872 39.9612 152.957 40.1129 150.666C40.1887 149.521 40.3837 148.511 40.7306 147.714C41.0785 146.915 41.5928 146.301 42.3184 146.011C44.9279 144.967 47.9344 145.689 50.4195 148.511C52.8934 151.32 54.8644 156.215 55.5201 163.591C55.5374 163.786 55.3935 163.958 55.1988 163.975C55.0041 163.993 54.8322 163.849 54.8148 163.654C54.1662 156.357 52.224 151.631 49.8881 148.979Z" fill="#5B5B66"/>
    <path fill-rule="evenodd" clip-rule="evenodd" d="M57.7008 156.197C57.839 156.336 57.839 156.56 57.7008 156.698C56.3125 158.086 54.7794 158.231 54.1201 158.099C53.9284 158.061 53.804 157.874 53.8424 157.683C53.8807 157.491 54.0672 157.367 54.2589 157.405C54.6866 157.491 55.9796 157.418 57.2001 156.197C57.3384 156.059 57.5625 156.059 57.7008 156.197Z" fill="#5B5B66"/>
    <path fill-rule="evenodd" clip-rule="evenodd" d="M58.3988 7.45593C60.648 7.16331 63.0408 7.94149 64.1001 10.4133C65.691 14.1252 63.4134 17.044 62.0675 18.4351C64.1878 22.9741 66.9949 28.9872 68.5116 36.5706C68.8808 38.4166 69.6845 39.6125 70.6471 40.3C71.6109 40.9883 72.7684 41.1917 73.8943 40.9905C76.0969 40.5968 78.1365 38.6628 78.2412 35.8706C76.6938 35.1135 75.8919 33.5811 75.6653 31.9854C75.4289 30.3207 75.8046 28.5137 76.6809 27.2869C77.5474 26.0738 79.1346 24.9642 80.8945 24.5809C82.6733 24.1934 84.6473 24.5468 86.2126 26.2951C88.7488 29.1276 89.1075 31.8113 88.0714 33.8196C87.0631 35.7742 84.7935 36.9617 82.2892 36.9934C80.379 38.2136 79.6994 40.2367 79.9515 42.5114C80.2084 44.8296 81.436 47.3723 83.2789 49.4487C83.5734 49.7805 84.1742 50.3502 85.016 51.1485C85.0774 51.2068 85.1402 51.2663 85.2042 51.327C86.1369 52.2118 87.3194 53.3384 88.641 54.6704C91.2837 57.334 94.4867 60.8227 97.3739 64.8567C103.136 72.9074 107.704 83.2218 103.89 93.503C100.093 103.737 91.5164 110.32 81.9483 113.647C72.3851 116.971 61.7854 117.059 53.8738 114.257C49.9189 112.857 47.2518 111.094 45.3671 108.896C43.4844 106.699 42.4067 104.095 41.5849 101.054C41.0511 99.0788 40.6198 96.8954 40.1483 94.5081C39.897 93.236 39.6343 91.906 39.3385 90.5188C38.4848 86.5142 37.3479 81.9883 35.4001 76.8752C32.289 68.7086 28.3862 64.8839 24.7911 63.4738C21.2544 62.0866 17.9416 63.0067 15.8248 64.5507C14.9734 67.7582 12.638 69.1987 10.2114 69.5742C7.7858 69.9496 5.22104 69.2716 3.8819 68.2235C2.07727 66.8112 1.44094 64.3937 1.87702 62.1795C2.31498 59.9557 3.84428 57.8783 6.43786 57.1521C9.78705 56.2143 12.0215 56.8483 13.4895 58.051C14.7364 59.0724 15.3842 60.4673 15.7182 61.5129C17.8771 60.1879 21.1517 59.853 24.4415 60.159C27.9643 60.4866 31.6055 61.5582 34.1071 63.0591C37.3578 65.0095 41.362 63.3735 43.5323 59.8186C45.6821 56.2975 45.9644 50.9386 41.6527 45.6686C38.1989 41.4473 33.2677 39.2449 28.4511 38.3162C23.7626 37.4122 19.2204 37.7228 16.3299 38.5244C16.186 39.9544 14.9011 42.3178 10.8968 43.8194C8.69311 44.6458 6.65428 44.2119 5.07945 43.3234C3.52704 42.4475 2.39212 41.1115 1.97134 40.0475C1.27651 38.7004 1.12157 36.6048 1.64897 34.7126C2.18159 32.8017 3.43584 31.0169 5.63918 30.4284C9.38491 29.4278 11.7243 30.1346 13.245 31.573C14.6201 32.8735 15.2678 34.7274 15.7399 36.1885C19.4531 34.9741 24.6047 35.0083 29.3939 35.8408C31.87 36.2711 34.264 36.9173 36.3312 37.7247C38.2551 38.4762 39.9147 39.3745 41.0925 40.3829C42.1494 39.3417 42.9203 37.8922 43.4485 36.2129C44.0134 34.4165 44.2934 32.3795 44.3566 30.3515C44.4197 28.3244 44.2658 26.3169 43.9692 24.5838C43.6906 22.9567 43.29 21.5936 42.8387 20.686C39.4378 20.5779 36.9713 17.9356 36.4268 15.1114C36.1473 13.6612 36.3686 12.1403 37.2473 10.8747C38.1276 9.60667 39.6393 8.63541 41.8633 8.23104C44.0909 7.82603 45.8494 8.22944 47.119 9.14545C48.3846 10.0586 49.1231 11.4517 49.3703 12.9505C49.8452 15.8291 48.5181 19.2115 45.4597 20.537C46.5314 23.6424 46.855 27.4932 46.67 31.2684C46.4823 35.0977 45.7698 38.881 44.7579 41.777C45.6974 42.9601 47.1628 44.0159 48.8942 44.8239C50.6943 45.664 52.758 46.2248 54.7634 46.3854C56.7717 46.5463 58.6976 46.3041 60.2387 45.564C61.769 44.8291 62.9295 43.6005 63.4331 41.7478C64.6133 37.4063 64.5713 32.8205 63.7485 28.7948C62.9417 24.8468 61.3913 21.4717 59.5442 19.4015C56.6774 19.668 54.6871 18.5717 53.6093 16.8903C52.5222 15.1943 52.3962 12.9527 53.1621 11.0555C53.9511 9.10127 56.1683 7.74612 58.3988 7.45593ZM58.4901 8.15803C56.4313 8.42588 54.4846 9.67104 53.8187 11.3206C53.1296 13.0273 53.2545 15.0248 54.2054 16.5082C55.1431 17.9711 56.917 18.9839 59.6469 18.6793C59.7588 18.6668 59.8699 18.7083 59.9463 18.791C61.9603 20.9729 63.6018 24.5411 64.4422 28.653C65.2839 32.7711 65.3296 37.4705 64.1164 41.9335C63.554 44.0022 62.2437 45.3866 60.5452 46.2022C58.8576 47.0126 56.7968 47.2585 54.7069 47.0912C52.6143 46.9236 50.4686 46.34 48.5947 45.4655C46.7243 44.5925 45.1007 43.4184 44.0767 42.053C44.0053 41.9578 43.9865 41.8332 44.0266 41.7212C45.0456 38.8788 45.774 35.0866 45.9628 31.2338C46.1518 27.378 45.7986 23.4944 44.6799 20.4578C44.6124 20.2747 44.7059 20.0715 44.8889 20.0036C47.7959 18.9247 49.1198 15.7818 48.6717 13.0658C48.4493 11.7173 47.7928 10.5047 46.7047 9.71961C45.6206 8.93738 44.0668 8.55003 41.99 8.92763C39.9096 9.30589 38.5807 10.1955 37.8289 11.2785C37.0753 12.3638 36.8727 13.6842 37.122 14.9774C37.6238 17.5802 39.9326 19.9815 43.0555 19.9815C43.1853 19.9815 43.3047 20.0525 43.3666 20.1666C43.9096 21.1668 44.3636 22.6915 44.667 24.4644C44.9716 26.2439 45.1288 28.2988 45.0643 30.3735C44.9997 32.4473 44.7131 34.5515 44.1239 36.4253C43.5353 38.2968 42.6375 39.9608 41.335 41.1262C41.1989 41.2479 40.9926 41.2462 40.8586 41.1222C39.7629 40.1089 38.0952 39.1738 36.0736 38.3842C34.0568 37.5965 31.7093 36.9618 29.2727 36.5383C24.387 35.6891 19.2019 35.6985 15.6323 36.9734C15.5421 37.0056 15.4426 36.9999 15.3566 36.9575C15.2707 36.9151 15.2056 36.8396 15.1762 36.7483L15.1661 36.7169C14.6732 35.1831 14.0799 33.3371 12.7585 32.0874C11.4636 30.8626 9.40076 30.1564 5.8219 31.1124C3.93665 31.616 2.82051 33.1464 2.33098 34.9027C1.83849 36.6697 2.00605 38.5835 2.60799 39.7372C2.61399 39.7487 2.61936 39.7605 2.62406 39.7726C2.96999 40.6621 3.98317 41.892 5.42736 42.7068C6.858 43.5139 8.67792 43.8953 10.6482 43.1565C14.7272 41.6268 15.6359 39.2604 15.6359 38.2536C15.6359 38.0968 15.7391 37.9587 15.8894 37.9142C18.8839 37.0269 23.6651 36.6723 28.5851 37.621C33.5085 38.5703 38.6109 40.8328 42.2006 45.2203C46.6933 50.7113 46.4508 56.3971 44.1366 60.1876C41.843 63.9444 37.444 65.8869 33.7428 63.6662C31.353 62.2323 27.8202 61.1843 24.3759 60.8639C20.916 60.5421 17.6458 60.9637 15.7213 62.3615C15.6268 62.4302 15.5044 62.4478 15.3943 62.4085C15.2843 62.3693 15.2007 62.2782 15.1709 62.1652C14.9069 61.1618 14.3181 59.645 13.0408 58.5986C11.7852 57.57 9.8014 56.9456 6.62877 57.8339C4.33099 58.4773 2.96622 60.313 2.57168 62.3163C2.17526 64.3292 2.768 66.4527 4.31826 67.666C5.47914 68.5745 7.83836 69.225 10.1031 68.8745C12.3356 68.5291 14.4282 67.2216 15.1698 64.2551C15.1895 64.1763 15.2357 64.1067 15.3005 64.058C17.5786 62.3452 21.1957 61.3031 25.0497 62.8147C28.9007 64.3251 32.9119 68.3548 36.0617 76.6232C38.027 81.782 39.1728 86.3459 40.031 90.3712C40.3326 91.7859 40.5977 93.1286 40.8499 94.4054C41.3177 96.7744 41.7406 98.9163 42.2684 100.869C43.077 103.861 44.119 106.352 45.9047 108.435C47.6886 110.516 50.239 112.219 54.1102 113.59C61.851 116.331 72.2841 116.257 81.7158 112.978C91.1424 109.701 99.5221 103.241 103.226 93.2567C106.912 83.3203 102.525 73.2701 96.7981 65.2688C93.941 61.2768 90.7664 57.8178 88.1384 55.1691C86.8247 53.8451 85.6486 52.7245 84.7169 51.8407C84.6462 51.7736 84.5767 51.7077 84.5087 51.6432C83.6878 50.8649 83.0654 50.2748 82.7494 49.9187C80.8298 47.7559 79.5239 45.0811 79.2478 42.5894C78.9704 40.0868 79.735 37.7329 82.0009 36.3385C82.0567 36.3042 82.1209 36.286 82.1864 36.286C84.533 36.286 86.5694 35.1869 87.4422 33.495C88.3012 31.83 88.0955 29.4593 85.6852 26.7673C84.3157 25.2378 82.615 24.9307 81.0452 25.2727C79.4563 25.6188 78.021 26.6288 77.257 27.6984C76.5029 28.7542 76.1511 30.3712 76.3662 31.8858C76.5806 33.3954 77.344 34.7298 78.7373 35.3188C78.8683 35.3742 78.9534 35.5027 78.9534 35.6449C78.9534 38.9272 76.5918 41.2276 74.0189 41.6875C72.7276 41.9183 71.3721 41.6877 70.2357 40.8762C69.0981 40.0638 68.2143 38.6943 67.8174 36.7094C66.3162 29.2037 63.5358 23.2514 61.4144 18.7098L61.3219 18.5119C61.2589 18.377 61.2871 18.217 61.3924 18.1118C62.692 16.8121 64.9179 14.1187 63.4494 10.6922C62.5522 8.59868 60.5302 7.89261 58.4901 8.15803Z" fill="#5B5B66"/>
    <path fill-rule="evenodd" clip-rule="evenodd" d="M74.4958 147.1C74.6165 147.149 74.6746 147.286 74.6255 147.407C73.6007 149.928 73.1676 152.786 73.735 156.709C73.7536 156.838 73.6642 156.958 73.5352 156.976C73.4062 156.995 73.2865 156.905 73.2678 156.776C72.6897 152.779 73.1288 149.835 74.1883 147.229C74.2374 147.109 74.375 147.05 74.4958 147.1Z" fill="#5DCB42"/>
    <path fill-rule="evenodd" clip-rule="evenodd" d="M71.829 147.083C71.9582 147.1 72.0492 147.219 72.0323 147.348C71.9709 147.817 71.867 148.259 71.7446 148.619C71.6262 148.967 71.479 149.275 71.313 149.441C71.0675 149.686 70.7723 149.822 70.4488 149.819C70.1298 149.816 69.8149 149.678 69.5222 149.44C68.9418 148.966 68.3978 148.055 67.986 146.735C67.9472 146.611 68.0166 146.478 68.141 146.44C68.2654 146.401 68.3978 146.47 68.4366 146.595C68.8366 147.877 69.3443 148.686 69.8205 149.074C70.0561 149.266 70.2707 149.345 70.4532 149.347C70.631 149.348 70.809 149.277 70.9792 149.107C71.0629 149.023 71.1822 148.807 71.2977 148.467C71.4092 148.139 71.5065 147.727 71.5643 147.287C71.5812 147.157 71.6997 147.066 71.829 147.083Z" fill="#5DCB42"/>
    <path fill-rule="evenodd" clip-rule="evenodd" d="M84.0447 145.839C84.1315 145.936 84.123 146.085 84.0258 146.172C81.0646 148.816 78.8665 149.642 77.2328 149.757C76.4168 149.814 75.7534 149.693 75.2209 149.544C74.9818 149.477 74.7682 149.405 74.5835 149.342C74.5638 149.336 74.5444 149.329 74.5254 149.323C74.3227 149.254 74.1667 149.204 74.0381 149.18C73.91 149.156 73.8253 149.033 73.8491 148.905C73.8728 148.777 73.996 148.692 74.1241 148.716C74.2918 148.747 74.4803 148.809 74.6766 148.876C74.6958 148.882 74.7151 148.889 74.7346 148.895C74.9201 148.958 75.1218 149.026 75.3476 149.089C75.8434 149.228 76.4513 149.338 77.1997 149.286C78.6948 149.181 80.7979 148.421 83.7115 145.82C83.8087 145.733 83.9579 145.742 84.0447 145.839Z" fill="#5DCB42"/>
    <path fill-rule="evenodd" clip-rule="evenodd" d="M79.388 148.821C79.5171 148.803 79.6363 148.893 79.6543 149.022C79.7254 149.532 80.4666 150.938 83.0381 151.734C83.1626 151.773 83.2323 151.905 83.1937 152.029C83.1552 152.154 83.023 152.223 82.8985 152.185C80.2147 151.354 79.2911 149.836 79.1868 149.088C79.1688 148.958 79.2589 148.839 79.388 148.821Z" fill="#5DCB42"/>
    <path d="M84.3507 152.215C84.2699 152.651 83.8506 152.94 83.4143 152.859C82.978 152.778 82.6898 152.359 82.7706 151.922C82.8515 151.486 83.2707 151.198 83.707 151.279C84.1434 151.36 84.4316 151.779 84.3507 152.215Z" fill="#5DCB42"/>
    <path fill-rule="evenodd" clip-rule="evenodd" d="M65.5542 147.32C65.6076 148.251 65.7249 149.388 65.9761 150.256C66.3225 151.452 66.8564 152.96 67.3053 154.173C67.5295 154.778 67.7319 155.308 67.8782 155.687C67.9514 155.877 68.0105 156.028 68.0514 156.132C68.0571 156.147 68.0625 156.16 68.0675 156.173L80.1749 158.558L88.0787 149.088L86.671 145.114L87.1159 144.956L88.6134 149.184L80.3581 159.075L67.7234 156.586L67.6759 156.467L67.8952 156.38C67.6759 156.467 67.6759 156.467 67.6759 156.467L67.6593 156.425C67.6484 156.397 67.6325 156.357 67.6119 156.304C67.5709 156.2 67.5114 156.047 67.4379 155.857C67.291 155.477 67.0878 154.944 66.8627 154.337C66.4131 153.122 65.8741 151.601 65.5227 150.387C65.2561 149.466 65.1368 148.285 65.083 147.347C65.056 146.875 65.0453 146.46 65.0413 146.163C65.0394 146.014 65.0391 145.895 65.0393 145.812C65.0394 145.771 65.0396 145.739 65.0398 145.717L65.0401 145.692L65.0402 145.686L65.0402 145.684C65.0402 145.684 65.0402 145.684 65.2762 145.687L65.5122 145.691L65.5122 145.693L65.5121 145.698L65.5118 145.722C65.5116 145.743 65.5114 145.774 65.5113 145.814C65.5111 145.894 65.5114 146.011 65.5133 146.157C65.5172 146.449 65.5277 146.857 65.5542 147.32Z" fill="#5DCB42"/>
    <path d="M63.646 102.969C65.9286 103.73 67.233 105.251 65.2764 105.251C61.3633 106.23 57.7564 100.564 59.4068 101.664C61.3633 102.969 61.6894 102.317 63.646 102.969Z" fill="#5B5B66"/>
    <path fill-rule="evenodd" clip-rule="evenodd" d="M59.2263 101.308C59.322 101.337 59.427 101.394 59.5378 101.468C60.4896 102.103 61.0273 102.251 61.5598 102.328C61.6802 102.345 61.8034 102.358 61.9331 102.373C62.3939 102.424 62.9364 102.484 63.7207 102.745C64.8807 103.132 65.8293 103.722 66.2378 104.251C66.4325 104.504 66.5787 104.851 66.3562 105.144C66.256 105.277 66.1025 105.36 65.9281 105.411C65.7588 105.461 65.5507 105.486 65.3055 105.487C63.2355 105.989 61.2854 104.748 60.0905 103.581C59.4871 102.992 59.047 102.394 58.8633 101.997C58.8173 101.898 58.781 101.798 58.767 101.706C58.7554 101.63 58.7472 101.478 58.8646 101.369C58.9874 101.256 59.1435 101.283 59.2263 101.308ZM60.4202 103.243C61.589 104.384 63.3867 105.481 65.2193 105.022L65.2474 105.015H65.2765C65.5079 105.015 65.6772 104.993 65.7955 104.958C65.9153 104.923 65.9632 104.882 65.9801 104.859C65.9919 104.844 66.0362 104.763 65.8641 104.54C65.5389 104.118 64.694 103.567 63.5714 103.193C62.839 102.949 62.3544 102.895 61.8993 102.844C61.7632 102.829 61.6297 102.814 61.4931 102.795C60.8986 102.71 60.3092 102.539 59.3463 101.907C59.5265 102.239 59.8993 102.735 60.4202 103.243ZM59.2324 101.621C59.2326 101.621 59.2328 101.623 59.2326 101.626C59.2322 101.622 59.2323 101.621 59.2324 101.621ZM59.0802 101.758C59.0773 101.757 59.0756 101.757 59.0756 101.757C59.0755 101.757 59.0769 101.757 59.0802 101.758Z" fill="#5B5B66"/>
    <path d="M48.972 102.969C47.9408 104 46.8524 103.947 46.0372 104.599C44.7328 105.643 47.9937 107.534 49.6242 103.947C51.0775 100.75 49.6242 102.317 48.972 102.969Z" fill="#5B5B66"/>
    <path fill-rule="evenodd" clip-rule="evenodd" d="M49.2558 103.018C49.2151 103.059 49.1759 103.098 49.1386 103.135C48.5891 103.685 48.0239 103.944 47.5095 104.146C47.4268 104.178 47.3465 104.209 47.2684 104.239C46.8513 104.398 46.4975 104.533 46.1843 104.783C46.0537 104.888 45.9983 104.988 45.9799 105.069C45.9618 105.15 45.9745 105.237 46.0245 105.328C46.1287 105.517 46.3923 105.708 46.7719 105.777C47.4986 105.909 48.6281 105.567 49.409 103.849C49.7589 103.08 49.9304 102.606 49.9891 102.338C49.9887 102.338 49.9883 102.338 49.988 102.338C49.9062 102.399 49.8126 102.479 49.7128 102.57C49.5572 102.714 49.3976 102.874 49.2558 103.018ZM50.1533 102.241C50.1533 102.241 50.1528 102.241 50.152 102.241C50.1529 102.241 50.1533 102.241 50.1533 102.241ZM50.4583 102.399C50.3945 102.721 50.2022 103.245 49.8387 104.045C48.9892 105.914 47.673 106.42 46.6878 106.242C46.2114 106.155 45.8025 105.903 45.6111 105.556C45.5134 105.378 45.4726 105.174 45.5194 104.966C45.566 104.758 45.694 104.571 45.8895 104.415C46.2654 104.114 46.6983 103.95 47.1148 103.792C47.1896 103.763 47.2639 103.735 47.3372 103.706C47.8285 103.514 48.3231 103.283 48.8048 102.802C48.8392 102.767 48.8764 102.73 48.9157 102.69C49.0583 102.546 49.2287 102.374 49.3934 102.223C49.4989 102.126 49.6066 102.033 49.7078 101.959C49.8034 101.888 49.9145 101.817 50.0238 101.787C50.08 101.771 50.1583 101.759 50.2415 101.785C50.3346 101.813 50.402 101.878 50.4405 101.957C50.475 102.028 50.4839 102.105 50.484 102.171C50.4841 102.241 50.4746 102.317 50.4583 102.399Z" fill="#5B5B66"/>
    <path fill-rule="evenodd" clip-rule="evenodd" d="M58.3749 93.1624C58.5682 93.1326 58.7489 93.2652 58.7787 93.4584C58.979 94.7609 60.388 98.0092 64.4567 100.044C64.6316 100.131 64.7025 100.344 64.615 100.518C64.5276 100.693 64.315 100.764 64.1401 100.677C59.8609 98.5372 58.3133 95.0898 58.0789 93.5661C58.0491 93.3728 58.1817 93.1921 58.3749 93.1624Z" fill="#5B5B66"/>
    <path fill-rule="evenodd" clip-rule="evenodd" d="M47.6927 93.4853C47.8877 93.4992 48.0345 93.6686 48.0205 93.8636C47.9646 94.6466 47.7812 95.8811 47.41 97.059C47.045 98.2171 46.4718 99.4089 45.5812 100.003C45.4185 100.111 45.1987 100.067 45.0903 99.9044C44.9818 99.7417 45.0258 99.5219 45.1884 99.4135C45.8631 98.9637 46.3769 97.9815 46.7347 96.8462C47.0863 95.7305 47.2616 94.5519 47.3143 93.8132C47.3283 93.6182 47.4976 93.4714 47.6927 93.4853Z" fill="#5B5B66"/>
</svg>
