<svg width="166" height="281" viewBox="0 0 166 281" fill="none" xmlns="http://www.w3.org/2000/svg">
<path fill-rule="evenodd" clip-rule="evenodd" d="M71.9839 4.09439C73.2088 2.4229 76.8136 -0.364713 81.4781 1.77739C83.8507 2.86697 84.8065 4.74998 85.0039 6.64378C85.1708 8.24551 84.7974 9.84075 84.3425 10.9798C88.7705 13.424 91.9213 19.5423 94.0788 28.7398C95.587 35.1698 98.3289 39.1146 101.684 40.7424C105.025 42.3627 109.137 41.7646 113.568 38.7225C117.431 36.0696 119.314 31.9573 119.721 28.1856C119.925 26.2991 119.758 24.5158 119.298 23.0609C118.879 21.7355 118.23 20.7194 117.433 20.1177C113.935 22.1788 110.326 21.7032 107.945 19.6283C105.494 17.4923 104.431 13.7381 106.046 9.59492C106.728 7.84495 107.765 6.65125 109.003 5.94083C110.235 5.23347 111.63 5.02595 113.005 5.1779C115.734 5.47968 118.476 7.20941 119.93 9.49853C120.852 10.9505 121.145 12.2658 121.047 13.5528C120.96 14.6973 120.564 15.7855 120.108 16.8701C146.083 47.9184 157.687 69.044 162.314 83.8381C164.636 91.2628 165.202 97.0975 164.942 101.792C164.682 106.487 163.596 110.015 162.651 112.809C160.726 118.504 153.811 128.259 142.623 136.584C140.295 138.316 137.781 139.987 135.085 141.549L139.399 148.017C140.014 147.355 140.603 146.69 141.167 146.028C143.205 143.635 144.907 141.291 146.432 139.191C147.184 138.156 147.893 137.18 148.578 136.287C149.605 134.948 150.579 133.793 151.548 132.948C152.27 132.318 153.011 131.84 153.791 131.595C153.793 131.535 153.804 131.475 153.826 131.416C154.214 130.363 154.921 129.585 155.82 129.193C156.718 128.802 157.765 128.813 158.805 129.252C160.879 130.128 162.916 132.678 164.03 137.21C165.423 142.875 165.239 151.923 163.524 160.876C161.81 169.827 158.542 178.812 153.667 184.295C153.557 184.419 153.405 184.477 153.255 184.468C155.113 192.221 156.047 201.19 155.213 210.102C154.049 222.531 149.439 234.888 139.067 243.656C139.059 243.673 139.049 243.689 139.038 243.705C137.915 245.416 136.403 248.098 135.514 250.583C135.067 251.828 134.792 252.985 134.779 253.925C134.768 254.753 134.957 255.336 135.334 255.707C146.177 255.282 151.864 258.985 154.206 263.428C155.523 265.927 155.748 268.611 155.251 270.803C154.76 272.97 153.529 274.767 151.831 275.291C144.459 277.567 128.331 279.029 110.089 274.025C107.382 273.282 106.543 270.814 106.378 269.773C105.781 266.015 105.767 259.577 106.042 252.533C104.035 252.75 101.696 252.898 99.0182 252.898C98.5772 252.898 98.0234 253.131 97.3552 253.654C96.6957 254.17 95.9798 254.926 95.225 255.868C93.7164 257.75 92.11 260.3 90.5491 262.957C89.6401 264.504 88.7602 266.063 87.926 267.541C87.3213 268.612 86.7406 269.641 86.1903 270.592C85.5414 271.713 84.9396 272.717 84.4057 273.524C83.8801 274.319 83.3924 274.967 82.9697 275.341C82.3359 275.901 81.3859 276.385 80.2424 276.81C79.0892 277.238 77.6973 277.622 76.1465 277.961C73.0444 278.641 69.2687 279.153 65.4175 279.494C57.7346 280.175 49.6527 280.182 45.9583 279.433C43.6439 278.965 41.2018 278.111 39.0797 276.894C36.9631 275.679 35.125 274.079 34.0773 272.096C33.0162 270.088 32.7902 267.729 33.8376 265.098C34.8743 262.493 37.1467 259.646 41.0231 256.572C45.3797 253.117 51.5701 251.946 56.8268 251.843C57.6338 251.827 58.4214 251.836 59.1799 251.866C60.9943 250.868 62.2731 248.7 63.0705 246.315C63.8622 243.947 64.1304 241.51 64.0257 240.127C62.9908 237.59 62.5302 234.838 62.5475 231.959C62.582 226.204 64.5222 219.943 67.5649 213.826C73.6376 201.617 84.1866 189.814 93.2351 183.486C91.6593 181.699 90.4975 179.676 89.8308 177.519C88.4836 173.16 89.1791 168.314 92.4644 163.88C94.8921 160.604 97.9765 157.853 100.434 155.691C100.526 155.61 100.617 155.53 100.707 155.451C101.829 154.465 102.794 153.616 103.504 152.891C103.886 152.501 104.178 152.163 104.374 151.874C104.491 151.701 104.561 151.565 104.6 151.462C102.019 151.726 99.361 151.866 96.6291 151.866C87.9908 151.866 81.8877 150.102 77.5052 146.974C73.1162 143.842 70.5149 139.386 68.8006 134.136C67.0909 128.9 66.2509 122.831 65.4081 116.446C65.3715 116.168 65.3348 115.89 65.298 115.611C64.4877 109.458 63.639 103.016 61.9958 96.647C59.8036 88.1508 55.2406 81.85 50.3008 79.1603C47.838 77.8193 45.296 77.3813 42.8954 77.9827C40.5604 78.5677 38.3026 80.1502 36.3493 82.963C36.8114 84.3287 37.0404 85.5974 36.875 86.8282C36.6967 88.1558 36.0696 89.3696 34.923 90.5731C32.3087 93.3173 28.4888 93.1305 26.3887 91.5874C24.8028 90.4222 23.7926 89.0451 23.4543 87.4028C23.1178 85.7688 23.4667 83.9696 24.4056 81.9985C25.4272 79.8538 27.4857 79.0009 29.4258 78.8998C30.4007 78.849 31.3718 78.9843 32.2177 79.2537C32.8346 79.4501 33.4057 79.7245 33.8666 80.0679C35.8801 77.3662 38.2293 75.2793 41.4654 74.3004C44.8688 73.2709 49.1767 73.4903 54.9864 75.3667C55.6871 75.593 56.5672 75.2556 57.404 74.2571C58.2265 73.2756 58.9092 71.7502 59.1617 69.9332C59.6622 66.3303 58.4642 61.6108 53.3294 57.9148C45.2364 52.0896 37.393 50.0578 30.5685 51.1991C23.817 52.3283 17.9908 56.5746 13.8494 63.4855C14.2644 65.0913 14.2461 66.723 13.6626 68.1918C13.0474 69.7405 11.827 71.0493 9.95185 71.9404C8.0676 72.8359 6.38489 72.8553 4.97383 72.2696C3.57492 71.689 2.50327 70.539 1.7775 69.2059C0.532446 66.9188 0.92269 64.5928 1.96446 62.8076C2.99087 61.0487 4.69512 59.7323 6.23173 59.439C7.62831 59.1725 8.69899 59.1415 9.67533 59.4175C10.4714 59.6426 11.1667 60.0613 11.8995 60.6482C15.0434 54.2556 19.3148 50.3495 23.9924 48.0882C28.8051 45.7617 34.0168 45.1906 38.8196 45.3961C43.6231 45.6016 48.0451 46.5854 51.2888 47.3917C51.8337 47.5271 52.3422 47.6567 52.8127 47.7766C53.7534 48.0163 54.542 48.2173 55.1649 48.3487C55.6346 48.4477 55.972 48.4985 56.1901 48.5025C56.2006 48.5027 56.2105 48.5028 56.2198 48.5028C56.56 47.2862 57.3378 43.0915 56.1175 38.1021C54.8247 32.8161 51.28 26.5944 42.4799 22.0624C42.146 21.8904 41.8762 21.7425 41.6588 21.6212C41.5898 21.5828 41.5277 21.5479 41.4712 21.5161C41.4388 21.498 41.4084 21.4809 41.3795 21.4647C41.3733 21.5034 41.3665 21.5434 41.3593 21.584C41.2888 21.9818 41.1595 22.5248 40.8663 23.2247C39.3723 26.791 35.9775 27.6626 33.0583 26.8605C30.1636 26.0651 27.5121 23.5628 27.5121 20.1379C27.5121 16.9352 28.3989 14.8857 29.8375 13.6568C31.2546 12.4462 33.1062 12.1215 34.8584 12.1215C37.3321 12.1215 39.0375 13.3318 40.139 14.7882C41.1054 16.066 41.6148 17.5397 41.8033 18.5831C56.4331 22.6619 64.5744 32.1306 68.0369 42.6708C69.4526 46.9803 73.4213 48.9308 77.5515 47.8774C81.6811 46.8242 86.029 42.727 87.9244 34.7741C89.2629 29.1577 87.9455 23.0656 86.1378 18.6798C85.2346 16.4886 84.2249 14.7624 83.3992 13.7596C82.9752 13.2446 82.6483 12.9809 82.4509 12.898C82.4427 12.8946 82.4353 12.8917 82.4286 12.8892C81.4629 15.3231 79.2619 16.0898 77.181 15.941C75.1215 15.7938 72.9967 14.7478 71.9789 13.3128C70.3733 11.0488 69.7105 7.19657 71.9839 4.09439ZM82.3758 12.8757C82.3759 12.8757 82.3763 12.8757 82.3773 12.8758C82.3763 12.8758 82.3758 12.8758 82.3758 12.8757ZM105.681 151.344C105.681 151.346 105.681 151.349 105.681 151.351C105.658 151.76 105.462 152.154 105.22 152.509C104.972 152.876 104.629 153.267 104.228 153.676C103.489 154.431 102.493 155.306 101.385 156.281C101.291 156.364 101.196 156.447 101.101 156.531C98.6378 158.698 95.6355 161.381 93.2848 164.553C90.1989 168.718 89.586 173.187 90.82 177.18C92.0591 181.19 95.1813 184.781 99.6742 187.103C108.645 191.738 123.053 191.273 138.292 178.832C151.315 168.199 157.127 156.31 158.772 147.218C159.595 142.663 159.369 138.839 158.51 136.227C157.641 133.585 156.214 132.373 154.699 132.517C153.907 132.593 153.098 133.018 152.212 133.79C151.326 134.563 150.405 135.647 149.388 136.973C148.733 137.827 148.04 138.782 147.296 139.805C145.757 141.923 144.004 144.335 141.942 146.758C135.781 153.994 126.708 161.521 111.352 162.97C111.066 162.997 110.813 162.775 110.788 162.474C110.762 162.173 110.973 161.908 111.259 161.881C124.321 160.648 132.713 154.937 138.652 148.803L134.165 142.073C126.165 146.564 116.622 150.067 105.681 151.344ZM93.965 184.267C93.9353 184.302 93.9007 184.334 93.8614 184.362C84.9455 190.581 74.4882 202.267 68.4865 214.333C65.4863 220.365 63.6207 226.449 63.5876 231.966C63.5718 234.599 63.9731 237.104 64.8711 239.417C64.9585 239.502 65.0189 239.618 65.0348 239.752C65.0387 239.784 65.0423 239.817 65.0457 239.85C66.029 242.193 67.5379 244.332 69.6578 246.199C69.878 246.393 69.9071 246.738 69.7227 246.97C69.5383 247.202 69.2103 247.232 68.99 247.038C67.319 245.567 66.0061 243.933 65.0137 242.172C64.8817 243.536 64.569 245.131 64.0518 246.678C63.3913 248.653 62.3658 250.644 60.8746 251.972C61.9362 252.063 62.9158 252.194 63.7811 252.353C64.7235 252.525 65.5396 252.732 66.1827 252.957C66.8006 253.174 67.3373 253.434 67.6434 253.755C67.8467 253.969 67.8471 254.315 67.6442 254.529C67.4413 254.743 67.112 254.743 66.9087 254.53C66.7882 254.403 66.4585 254.207 65.8538 253.995C65.2743 253.792 64.5116 253.597 63.6026 253.431C62.4074 253.212 60.9753 253.045 59.4014 252.971C59.3609 252.991 59.3201 253.01 59.2791 253.029C59.0914 253.115 58.8818 253.076 58.7353 252.946C58.1224 252.928 57.491 252.924 56.8462 252.937C51.6731 253.038 45.7469 254.196 41.6493 257.446C37.8462 260.462 35.7339 263.166 34.7971 265.52C33.871 267.847 34.0826 269.854 34.9865 271.565C35.9038 273.301 37.5582 274.774 39.5778 275.933C41.5918 277.089 43.9295 277.908 46.155 278.359C49.6985 279.077 57.6575 279.084 65.3302 278.404C69.1568 278.065 72.8876 277.558 75.9345 276.89C77.4583 276.557 78.8016 276.185 79.896 275.778C81.0002 275.368 81.8102 274.937 82.3006 274.503C82.6077 274.232 83.028 273.691 83.5517 272.899C84.0672 272.12 84.6559 271.139 85.3018 270.023C85.8365 269.099 86.414 268.076 87.0188 267.005C87.8615 265.512 88.7573 263.925 89.6643 262.382C91.2295 259.718 92.8691 257.109 94.4298 255.162C95.2098 254.189 95.9844 253.363 96.7341 252.776C97.4752 252.196 98.2495 251.804 99.0182 251.804C101.854 251.804 104.301 251.636 106.369 251.396C106.442 251.36 106.524 251.342 106.611 251.346C106.64 251.347 106.669 251.351 106.697 251.357C108.083 251.188 109.293 250.989 110.328 250.789C111.643 250.536 112.68 250.283 113.449 250.091L113.608 250.052C113.921 249.974 114.191 249.906 114.411 249.857C114.652 249.803 114.886 249.757 115.063 249.757C115.35 249.757 115.583 250.002 115.583 250.304C115.583 250.606 115.35 250.851 115.063 250.851C115.013 250.851 114.885 250.869 114.628 250.927C114.421 250.973 114.163 251.038 113.848 251.116L113.688 251.156C112.914 251.349 111.857 251.607 110.515 251.866C109.527 252.056 108.385 252.246 107.088 252.41C106.805 259.526 106.822 265.93 107.404 269.593C107.537 270.433 108.216 272.38 110.351 272.966C128.428 277.925 144.364 276.456 151.538 274.241C152.741 273.87 153.796 272.507 154.239 270.549C154.677 268.617 154.484 266.213 153.296 263.958C151.22 260.019 145.995 256.385 135.394 256.799C135.283 256.846 135.157 256.853 135.04 256.814C133.718 256.876 132.314 257 130.824 257.193C130.539 257.23 130.279 257.017 130.244 256.717C130.209 256.418 130.412 256.145 130.697 256.108C131.88 255.954 133.013 255.843 134.098 255.772C133.83 255.223 133.73 254.579 133.739 253.91C133.754 252.785 134.076 251.492 134.54 250.197C135.111 248.604 135.918 246.95 136.723 245.503C135.061 246.723 133.269 247.858 131.339 248.897C131.083 249.035 130.77 248.928 130.639 248.66C130.508 248.391 130.609 248.061 130.865 247.923C146.367 239.575 152.782 224.902 154.177 209.995C155.553 195.303 152.042 180.443 147.582 171.355C145.126 174.177 142.258 176.979 138.929 179.696C123.449 192.334 108.619 192.944 99.2155 188.085C97.1998 187.043 95.4322 185.749 93.965 184.267ZM148.324 170.487C150.104 174.032 151.741 178.467 153.002 183.441C157.632 178.165 160.817 169.474 162.505 160.66C164.203 151.789 164.361 142.925 163.023 137.484C161.953 133.13 160.064 130.963 158.418 130.268C157.598 129.922 156.836 129.935 156.219 130.204C155.713 130.425 155.276 130.83 154.973 131.411C157.034 131.421 158.619 133.213 159.493 135.869C160.428 138.712 160.64 142.74 159.794 147.422C158.568 154.195 155.118 162.394 148.324 170.487ZM81.0619 2.7801C76.9888 0.909584 73.8582 3.32883 72.8077 4.76235C70.8803 7.39249 71.421 10.6963 72.8127 12.6586C73.6027 13.7726 75.4084 14.7177 77.2515 14.8494C79.0699 14.9794 80.7399 14.3156 81.4722 12.4589C81.5755 12.1972 81.7576 11.9536 82.0487 11.8414C82.3287 11.7334 82.6091 11.7864 82.8365 11.8819C83.2759 12.0664 83.7383 12.5002 84.1855 13.0433C85.1023 14.1568 86.1626 15.9894 87.0921 18.2446C88.9499 22.7518 90.3483 29.103 88.9333 35.0401C86.9673 43.2896 82.3867 47.7701 77.7966 48.9407C73.207 50.1112 68.6647 47.9317 67.0538 43.0281C63.6798 32.7574 55.7148 23.4882 41.2134 19.5517C41.0069 19.4956 40.8538 19.3126 40.8273 19.09C40.7238 18.2209 40.2787 16.7303 39.325 15.4693C38.3852 14.2267 36.9619 13.2156 34.8584 13.2156C33.1975 13.2156 31.636 13.5299 30.4932 14.5061C29.372 15.464 28.5522 17.1492 28.5522 20.1379C28.5522 22.9045 30.7178 25.0865 33.3212 25.8019C35.9002 26.5105 38.6845 25.7195 39.9144 22.7835C40.1707 22.1716 40.2787 21.711 40.3368 21.3834C40.3574 21.2674 40.3706 21.1762 40.3832 21.0887C40.3898 21.0437 40.3961 20.9996 40.4033 20.9536L40.4049 20.9437C40.4194 20.8497 40.448 20.6652 40.5354 20.5139C40.5933 20.4137 40.6881 20.3051 40.8337 20.2414C40.9719 20.181 41.1022 20.1848 41.1929 20.1994C41.3507 20.2247 41.5101 20.3053 41.6292 20.368C41.7249 20.4184 41.842 20.4841 41.9759 20.5593C42.03 20.5896 42.0868 20.6215 42.146 20.6546C42.3574 20.7725 42.6167 20.9146 42.9373 21.0797C52.0129 25.7537 55.757 32.2362 57.1249 37.8295C58.4847 43.3896 57.4872 48.028 57.1401 49.067C57.046 49.3489 56.8241 49.4792 56.6608 49.5347C56.502 49.5886 56.3282 49.5994 56.1717 49.5965C55.8528 49.5905 55.4366 49.5219 54.9604 49.4214C54.3171 49.2858 53.4948 49.0762 52.5388 48.8326C52.0725 48.7138 51.5743 48.5869 51.0496 48.4565C47.8238 47.6547 43.4795 46.6905 38.7773 46.4893C34.0744 46.2881 29.0411 46.8517 24.4268 49.0823C19.8233 51.3078 15.6061 55.2068 12.5414 61.7378C12.471 61.888 12.3389 61.996 12.1831 62.0308C12.0273 62.0656 11.865 62.0234 11.7425 61.9163C10.8561 61.1409 10.1683 60.6899 9.40532 60.4741C8.64137 60.2581 7.74478 60.2622 6.41742 60.5155C5.2301 60.7421 3.75644 61.8283 2.85094 63.38C1.96081 64.9053 1.66514 66.7977 2.68015 68.6622C3.31966 69.8369 4.22843 70.784 5.35564 71.2519C6.47071 71.7147 7.8598 71.7341 9.52356 70.9434C11.1964 70.1484 12.204 69.0256 12.7028 67.77C13.2041 66.5081 13.2146 65.0531 12.7877 63.5593C12.7447 63.4091 12.7652 63.2467 12.8438 63.1134C17.1297 55.8489 23.25 51.3153 30.4051 50.1186C37.5537 48.923 45.6617 51.07 53.9168 57.0119C59.3751 60.9406 60.7496 66.0696 60.1909 70.0914C59.9137 72.0867 59.1588 73.8177 58.1843 74.9806C57.224 76.1265 55.9476 76.8217 54.6811 76.4126C48.9739 74.5693 44.888 74.4035 41.7529 75.3519C38.6299 76.2965 36.3741 78.3699 34.3661 81.1803C34.2756 81.3069 34.1374 81.3861 33.9872 81.3973C33.837 81.4085 33.6896 81.3507 33.583 81.2389C33.237 80.8757 32.6565 80.5365 31.9164 80.3009C31.1836 80.0676 30.3319 79.948 29.4772 79.9926C27.7581 80.0822 26.1299 80.821 25.3356 82.4886C24.4586 84.3297 24.2022 85.8664 24.4709 87.1711C24.7379 88.4674 25.5437 89.6319 26.9844 90.6905C28.7064 91.9558 31.9601 92.1375 34.1883 89.7987C35.2154 88.7206 35.7055 87.714 35.8451 86.6751C35.9866 85.6219 35.7776 84.4658 35.2795 83.0713C35.2188 82.9015 35.2421 82.7111 35.3417 82.563C37.4484 79.4303 39.966 77.5919 42.6544 76.9184C45.3407 76.2454 48.1376 76.7505 50.779 78.1887C56.0478 81.0575 60.7547 87.6598 62.9996 96.3605C64.6608 102.799 65.5175 109.304 66.3258 115.441C66.3634 115.727 66.4009 116.012 66.4384 116.296C67.2838 122.7 68.113 128.662 69.7844 133.78C71.4512 138.885 73.9428 143.11 78.0892 146.069C82.242 149.033 88.1167 150.772 96.6291 150.772C115.619 150.772 130.961 143.921 142.022 135.691C153.104 127.445 159.842 117.854 161.671 112.443C162.604 109.684 163.652 106.27 163.903 101.728C164.155 97.1863 163.612 91.4892 161.326 84.18C156.75 69.5484 145.198 48.4759 119.107 17.3295C118.972 17.1683 118.939 16.9388 119.023 16.7429C119.536 15.5464 119.93 14.5132 120.01 13.4654C120.088 12.4466 119.869 11.3734 119.065 10.1063C117.788 8.09618 115.328 6.53491 112.896 6.26601C111.689 6.13261 110.514 6.31983 109.501 6.90128C108.493 7.47969 107.609 8.46888 107.008 10.0099C105.551 13.7486 106.537 16.9807 108.608 18.7857C110.685 20.5957 113.941 21.0473 117.182 19.0064C117.346 18.9032 117.55 18.9027 117.715 19.0052C118.908 19.7503 119.773 21.0964 120.285 22.7156C120.799 24.3409 120.973 26.2865 120.755 28.3092C120.317 32.3559 118.296 36.7823 114.136 39.6387C109.522 42.8069 105.023 43.5667 101.249 41.7359C97.4905 39.9127 94.6159 35.5974 93.0689 29.0019C90.8437 19.5154 87.642 13.7673 83.4416 11.7324C83.3136 11.6704 83.2151 11.5564 83.1684 11.4166C83.1218 11.2767 83.1311 11.1229 83.1942 10.9904C83.6754 9.98023 84.1352 8.34935 83.9699 6.76298C83.8088 5.21739 83.0581 3.69684 81.0619 2.7801ZM127.501 100.597C119.314 97.2702 112.868 101.981 110.681 104.736C110.497 104.968 110.169 104.999 109.948 104.806C109.728 104.612 109.698 104.267 109.882 104.035C112.246 101.058 119.133 96.0238 127.876 99.5761C128.144 99.685 128.277 100.002 128.174 100.284C128.07 100.565 127.769 100.706 127.501 100.597ZM138.492 107.794C138.771 107.725 139.051 107.908 139.117 108.202C139.883 111.639 139.819 114.431 139.17 116.682C138.519 118.938 137.291 120.614 135.787 121.828C132.801 124.24 128.75 124.82 125.95 124.637C125.663 124.618 125.445 124.358 125.463 124.056C125.481 123.755 125.728 123.526 126.014 123.545C128.674 123.719 132.44 123.153 135.154 120.961C136.5 119.873 137.592 118.383 138.175 116.364C138.758 114.34 138.84 111.75 138.104 108.452C138.039 108.157 138.212 107.863 138.492 107.794ZM86.226 112.592C86.2439 112.893 86.026 113.153 85.7393 113.172C77.2676 113.728 74.5894 119.386 74.277 122.009C74.2413 122.309 73.9814 122.521 73.6963 122.484C73.4113 122.446 73.2092 122.173 73.2449 121.873C73.6152 118.763 76.6711 112.671 85.6746 112.08C85.9612 112.061 86.2081 112.29 86.226 112.592Z" fill="white" stroke="white" stroke-linecap="round" stroke-linejoin="round"/>
</svg>
