<svg width="131" height="215" viewBox="0 0 131 215" fill="none" xmlns="http://www.w3.org/2000/svg">
<path fill-rule="evenodd" clip-rule="evenodd" d="M75.2164 39.1858C76.7942 41.3888 77.1878 44.5463 75.4136 46.78C73.8222 48.7836 71.9578 49.2117 70.328 49.0255C68.8632 48.8581 67.5974 48.1964 66.8973 47.8C65.4043 48.9025 63.3934 50.5196 61.5994 53.1512C59.7374 55.8826 58.0987 59.7227 57.537 65.2395C57.2669 67.8917 57.7584 69.9198 58.6769 71.4298C59.5961 72.9411 60.9588 73.9592 62.4742 74.5631C63.9919 75.1678 65.656 75.3537 67.1573 75.2021C68.664 75.0499 69.974 74.5616 70.8052 73.8532C71.7313 73.0639 72.7998 71.9416 74.0014 70.6795C74.5921 70.0591 75.2149 69.405 75.8687 68.7399C77.7911 66.7849 79.9607 64.7606 82.2847 63.3506C82.2839 63.2497 82.2824 63.1429 82.2809 63.0308C82.266 61.9092 82.244 60.2607 82.685 58.7187C83.2064 56.8953 84.3846 55.1844 86.958 54.5953C89.015 54.1245 90.6406 54.845 91.7746 55.9079C92.8953 56.9583 93.5541 58.3577 93.7041 59.3147C93.9441 60.8454 93.6675 62.1236 93.0599 63.1461C92.4551 64.1642 91.5349 64.9077 90.5179 65.3988C89.5014 65.8896 88.3763 66.1345 87.3404 66.1481C86.3103 66.1617 85.3349 65.9466 84.6402 65.4801C84.6234 65.4688 84.5318 65.4317 84.315 65.4386C84.1125 65.4451 83.8437 65.4888 83.5192 65.5833C82.8716 65.7721 82.0319 66.155 81.1078 66.7981C79.2625 68.0822 77.0923 70.3959 75.4589 74.2346C73.8447 78.028 74.1727 82.633 75.3411 87.2128C76.5076 91.7859 78.4977 96.2809 80.1481 99.8271C84.3077 108.765 85.215 115.314 83.7586 121.182C83.1679 123.562 82.1246 126.257 79.7866 128.891C77.5055 131.461 74.0088 133.956 68.5421 136.053C69.0683 136.77 69.6293 137.368 70.085 137.779C73.1845 138.979 77.4515 141.22 80.2176 144.086C81.6101 145.529 82.6473 147.156 82.9365 148.913C83.2284 150.685 82.7505 152.54 81.2076 154.405C79.3658 156.631 77.9831 158.097 76.9135 159.01C78.4078 164.109 79.5585 169.832 80.0701 175.184C80.5879 180.6 80.4544 185.67 79.3363 189.33C78.5153 192.018 76.6668 194.132 74.6564 195.733C74.6564 195.743 74.6563 195.754 74.6563 195.765C74.656 195.802 74.6557 195.843 74.6554 195.888C74.6538 196.088 74.6505 196.373 74.644 196.714C74.631 197.395 74.605 198.304 74.5529 199.205C74.501 200.104 74.4225 201.008 74.3024 201.678C74.2431 202.008 74.1695 202.306 74.0729 202.521C74.0718 202.523 74.0707 202.526 74.0696 202.528C78.5957 202.499 82.8073 205.222 84.8352 209.102C85.1983 209.797 85.3606 210.428 85.3224 210.998C85.2836 211.576 85.0409 212.06 84.6533 212.455C83.8991 213.224 82.592 213.663 81.1167 213.925C78.6328 214.367 75.4445 214.341 72.9467 214.32C72.4574 214.316 71.9946 214.313 71.5688 214.313C71.1966 214.313 70.8218 214.314 70.4467 214.316C68.1981 214.324 65.9381 214.333 64.1629 214.03C63.1264 213.853 62.2126 213.564 61.552 213.076C60.8729 212.574 60.4736 211.869 60.4736 210.924C60.4736 209.243 60.4707 207.22 59.9709 205.618C59.7228 204.823 59.3596 204.158 58.837 203.693C58.3209 203.234 57.624 202.947 56.6593 202.947C55.7492 202.947 55.0584 203.384 54.5017 204.107C53.9368 204.841 53.5249 205.855 53.1987 206.953C52.931 207.855 52.7275 208.789 52.5411 209.645C52.5008 209.83 52.4614 210.012 52.4222 210.188C52.3128 210.681 52.2053 211.139 52.0902 211.527C51.9768 211.909 51.848 212.252 51.6856 212.497C51.336 213.026 50.6752 213.327 49.8318 213.514C48.9762 213.704 47.855 213.791 46.4877 213.826C44.9646 213.865 43.1004 213.839 40.9132 213.808C39.1824 213.784 37.2494 213.757 35.1232 213.757C31.2139 213.757 28.7988 212.348 28.2174 210.357C27.633 208.356 28.9831 206.071 31.9343 204.514C34.1029 203.37 36.6109 203.098 38.7733 203.16C39.6647 202.033 39.8778 200.694 39.8138 199.357C39.767 198.377 39.5763 197.439 39.4051 196.596C39.3434 196.292 39.2841 196.001 39.2351 195.724C36.7982 193.022 36.4096 188.982 37.0026 184.988C37.5854 181.061 39.1271 177.097 40.7311 174.295C39.292 173.085 38.4131 171.629 38.023 170.003C37.6145 168.301 37.7468 166.435 38.3016 164.5C39.4094 160.635 42.2179 156.436 45.9323 152.574C49.3292 149.043 51.1245 145.983 52.1278 143.652C52.6296 142.487 52.9348 141.5 53.1431 140.722C53.2332 140.385 53.3051 140.089 53.3677 139.83C53.3777 139.789 53.3874 139.749 53.3969 139.71C53.4173 139.626 53.437 139.546 53.4563 139.469C45.5862 139.886 40.0511 137.854 38.8482 137.25C27.0646 131.878 25.8032 120.772 24.5821 109.457C23.9009 103.145 21.026 98.2005 17.9384 94.6572C14.9536 91.2319 11.7839 89.1322 10.2427 88.3842C8.1179 89.7276 6.21288 90.1546 4.63104 89.938C3.00807 89.7157 1.76016 88.8197 1.00341 87.6151C-0.506348 85.2118 -0.0524443 81.5958 3.14783 79.6618C4.44806 78.876 5.71353 78.6367 6.86032 78.7985C8.00398 78.9599 9.00634 79.5168 9.79109 80.2851C11.2833 81.7462 12.0371 84.0275 11.4366 85.9387C15.3864 88.7459 19.161 88.1153 21.7128 86.1483C24.3414 84.1223 25.6371 80.7226 24.6036 78.1204C22.8825 73.7867 19.4722 68.3704 17.3564 65.5579C15.4821 65.7829 14.0188 65.1508 13.0312 64.0631C12.0199 62.9494 11.5287 61.3829 11.5668 59.8373C11.6049 58.2904 12.1741 56.7296 13.3291 55.6336C14.4919 54.5301 16.214 53.9306 18.4852 54.2515C20.5588 54.5445 21.8756 55.7145 22.5909 57.0757C23.298 58.4214 23.4227 59.9632 23.1172 61.0401C22.8169 62.0989 22.1945 62.8943 21.7299 63.4863C21.4893 63.7929 21.307 64.0253 21.2008 64.224C21.0954 64.4212 21.1122 64.4975 21.132 64.5373C22.0891 66.4654 23.9034 68.6096 25.8205 70.5309C27.7323 72.4471 29.7225 74.118 31.006 75.0989C34.8764 78.0566 38.6154 78.094 41.7179 76.8767C44.8416 75.6511 47.333 73.1459 48.6355 71.0141C50.5049 67.9545 51.0956 65.679 51.7516 63.1522C51.8427 62.8011 51.9351 62.4452 52.0324 62.0816C48.7843 59.4534 46.8926 56.7971 45.7448 54.3007C44.6334 51.8837 44.2262 49.6299 43.9505 47.7327C42.572 47.6812 41.4879 47.2543 40.6896 46.5901C39.8391 45.8824 39.3344 44.9232 39.1347 43.9182C38.7398 41.931 39.5309 39.6755 41.3273 38.7708C43.0511 37.9027 44.4772 37.8825 45.6253 38.3806C46.7594 38.8726 47.565 39.8458 48.1112 40.8545C48.8416 42.2031 48.6018 43.619 48.0638 44.7491C47.5813 45.7626 46.8361 46.5977 46.2408 47.0172C47.0671 53.4807 52.0494 57.2817 54.8538 58.4015C57.5277 53.5707 60.5079 48.701 64.545 45.8912C64.2182 44.9933 63.7775 43.4756 63.9333 41.8838C64.1073 40.1065 65.0246 38.2615 67.568 37.0972C70.7732 35.6298 73.6246 36.9631 75.2164 39.1858ZM54.1443 139.427C54.111 139.547 54.0749 139.693 54.0326 139.866C54.0232 139.905 54.0136 139.945 54.0037 139.986C53.9411 140.244 53.8673 140.549 53.775 140.894C53.5605 141.694 53.2456 142.713 52.7282 143.915C51.6929 146.32 49.8528 149.446 46.4024 153.033C42.7262 156.855 39.9968 160.962 38.9303 164.683C38.398 166.54 38.2841 168.286 38.6591 169.848C39.0328 171.406 39.8969 172.801 41.3576 173.957C42.2839 174.691 43.454 175.331 44.8974 175.853C47.9816 176.968 51.5291 176.805 55.0783 175.844C58.6251 174.884 62.1485 173.133 65.1642 171.107C68.182 169.079 70.6727 166.789 72.1648 164.762C72.9122 163.747 73.3942 162.818 73.5789 162.036C73.7622 161.261 73.6464 160.673 73.2623 160.259C72.8586 159.823 72.2161 159.582 71.3406 159.507C70.4682 159.433 69.4122 159.529 68.239 159.721C67.0681 159.912 65.8007 160.196 64.507 160.488L64.3583 160.521C63.1162 160.802 61.8535 161.087 60.6497 161.297C59.3988 161.516 58.1962 161.657 57.1309 161.626C56.0691 161.596 55.1091 161.394 54.3714 160.894C53.619 160.385 53.1357 159.592 52.9892 158.469C52.8446 157.36 53.0268 155.926 53.5855 154.097C53.6386 153.923 53.8217 153.826 53.9945 153.879C54.1672 153.933 54.2641 154.117 54.211 154.291C53.6652 156.078 53.5109 157.407 53.6381 158.383C53.7634 159.344 54.1602 159.957 54.7365 160.347C55.3276 160.747 56.145 160.938 57.1497 160.967C58.1508 160.996 59.3037 160.864 60.5377 160.648C61.7253 160.44 62.9739 160.158 64.2208 159.877L64.3639 159.844C65.6543 159.553 66.9408 159.265 68.1341 159.07C69.325 158.875 70.4433 158.769 71.3957 158.85C71.7857 158.883 72.156 158.949 72.4959 159.056C72.4952 159.055 72.4945 159.054 72.4938 159.053L72.4714 159.024C72.2051 158.672 71.9495 158.334 71.6319 158.06C71.1191 157.617 69.8753 156.2 68.3827 154.21C66.8831 152.211 65.114 149.608 63.5519 146.776C62.1022 144.148 60.8246 141.311 60.11 138.569C57.8804 139.085 56.1175 139.293 54.1443 139.427ZM59.9532 137.929C57.6875 138.453 55.9149 138.653 53.8773 138.784C45.8668 139.302 40.2476 137.218 39.135 136.658C39.1312 136.656 39.1274 136.654 39.1236 136.652C27.7198 131.457 26.4609 120.767 25.2327 109.386C24.5335 102.907 21.5825 97.8399 18.4303 94.2224C15.2821 90.6096 11.9182 88.425 10.3541 87.7089C10.2528 87.6625 10.1349 87.6712 10.0414 87.732C7.94836 89.092 6.14516 89.4802 4.71921 89.2849C3.29643 89.09 2.21472 88.3105 1.55644 87.2626C0.23615 85.1609 0.610552 81.9638 3.48453 80.227C4.66923 79.5111 5.78515 79.3124 6.76953 79.4513C7.75703 79.5906 8.63562 80.0731 9.33493 80.7578C10.7473 82.1406 11.3747 84.2864 10.7417 85.9441C10.6887 86.0829 10.7345 86.2402 10.8536 86.3282C15.1159 89.4764 19.293 88.8436 22.1106 86.6718C24.8936 84.5266 26.3866 80.835 25.2113 77.8756C23.4297 73.3895 19.8895 67.8014 17.7611 65.0054C17.6888 64.9104 17.5711 64.8623 17.4535 64.8799C15.6932 65.1426 14.383 64.5752 13.5141 63.6183C12.6353 62.6505 12.1864 61.2586 12.221 59.8537C12.2556 58.45 12.7719 57.068 13.7779 56.1133C14.7761 55.1661 16.2906 54.6071 18.3942 54.9043C20.2412 55.1652 21.3863 56.1923 22.0125 57.3841C22.6469 58.5914 22.7434 59.9585 22.4879 60.859C22.2274 61.7777 21.6849 62.4808 21.2165 63.0776L21.1887 63.113C20.9722 63.3887 20.7587 63.6606 20.6245 63.9116C20.4837 64.1751 20.3832 64.5029 20.5466 64.832C21.5527 66.8588 23.4292 69.0642 25.3589 70.9982C27.2938 72.9374 29.3064 74.6274 30.6104 75.624C34.6737 78.7291 38.6549 78.7859 41.9555 77.4908C45.235 76.2041 47.8297 73.5905 49.1928 71.3596C51.1159 68.2121 51.7299 65.845 52.387 63.3113C52.4949 62.8953 52.6039 62.4748 52.7201 62.0457C52.7546 61.9183 52.7103 61.7825 52.6076 61.7005C49.3328 59.0894 47.4613 56.4655 46.3386 54.0238C45.2145 51.5788 44.8337 49.3016 44.5586 47.3617C44.5355 47.1994 44.3975 47.0788 44.2346 47.0788C42.85 47.0788 41.8254 46.6801 41.1064 46.0819C40.3856 45.4822 39.9502 44.664 39.7764 43.7889C39.424 42.0158 40.1515 40.0999 41.6199 39.3604C43.2094 38.56 44.4313 38.5802 45.3665 38.9859C46.3157 39.3977 47.0287 40.2321 47.5367 41.1701C48.1317 42.2687 47.9573 43.4483 47.4737 44.4641C46.986 45.4885 46.2125 46.2819 45.7264 46.5675C45.6143 46.6333 45.5514 46.7597 45.5661 46.8896C46.3727 54.0019 51.9596 58.0721 54.8932 59.1205C55.0438 59.1744 55.211 59.1107 55.2887 58.97C58.0542 53.9563 61.0577 49.0224 65.1238 46.2921C65.2516 46.2063 65.303 46.0426 65.2473 45.8985C64.9299 45.0765 64.4291 43.5374 64.5846 41.9485C64.7373 40.3886 65.5227 38.7576 67.8388 37.6972C70.7078 36.3837 73.2403 37.5532 74.6857 39.5714C76.145 41.6091 76.4417 44.4306 74.9026 46.3682C73.4678 48.1746 71.835 48.5343 70.4018 48.3706C68.9435 48.2039 67.6809 47.4925 67.0374 47.1221C66.9256 47.0578 66.7867 47.0655 66.6826 47.1418C65.1534 48.2619 62.9857 49.9531 61.0599 52.7781C59.1329 55.6049 57.4583 59.5512 56.8859 65.1723C56.6038 67.9428 57.1132 70.1208 58.1188 71.7741C59.1237 73.4262 60.6083 74.5284 62.2335 75.176C63.8565 75.8227 65.6265 76.0192 67.2226 75.8579C68.8134 75.6973 70.2645 75.1775 71.228 74.3564C72.1802 73.5448 73.2892 72.3802 74.5075 71.1007C75.0928 70.4861 75.7033 69.845 76.3337 69.2038C78.2937 67.2104 80.4703 65.1891 82.7788 63.8214C82.8787 63.7622 82.9401 63.6542 82.9401 63.5374C82.9401 63.3732 82.9379 63.1951 82.9355 63.0054C82.9215 61.8774 82.9023 60.3402 83.3139 58.9011C83.7864 57.2484 84.817 55.7614 87.103 55.2381C88.9115 54.8241 90.323 55.4477 91.3288 56.3904C92.3478 57.3456 92.9316 58.6133 93.0577 59.4175C93.2754 60.8067 93.0216 61.927 92.4984 62.8076C91.9725 63.6927 91.1616 64.357 90.235 64.8044C89.3078 65.2521 88.2768 65.4766 87.3319 65.489C86.3811 65.5015 85.551 65.2995 85.0032 64.9317C84.8129 64.8039 84.5507 64.7716 84.2941 64.7798C84.0231 64.7885 83.6988 64.8448 83.3373 64.9502C82.613 65.1612 81.7098 65.5779 80.7358 66.2558C78.7846 67.6136 76.5371 70.0274 74.8574 73.975C73.1583 77.9679 73.5259 82.7461 74.7072 87.3769C75.8902 92.0144 77.9036 96.5574 79.5556 100.107C83.6791 108.967 84.5304 115.355 83.1237 121.022C82.5505 123.331 81.5464 125.919 79.2987 128.452C77.0815 130.95 73.6371 133.414 68.1567 135.495C67.1077 133.877 66.4214 131.903 67.1758 130.13C67.613 129.103 67.7427 127.999 67.6088 127.06C67.4768 126.134 67.0751 125.298 66.376 124.914C65.647 124.514 64.7358 124.674 63.7619 125.439C62.7904 126.201 61.6944 127.604 60.5118 129.846C59.2874 132.167 59.2827 135.001 59.9532 137.929ZM74.0897 160.316C74.3566 160.861 74.377 161.506 74.2155 162.189C74.0019 163.093 73.4638 164.104 72.6904 165.155C71.1409 167.259 68.5874 169.599 65.5274 171.655C62.4653 173.713 58.8773 175.498 55.2482 176.481C51.6213 177.463 47.9282 177.649 44.6763 176.473C43.3265 175.985 42.1897 175.391 41.2525 174.704C39.7012 177.438 38.2137 181.286 37.6498 185.085C37.0618 189.046 37.4891 192.867 39.7805 195.348C41.25 196.939 43.2563 198.167 46.4905 198.64C46.6693 198.666 46.7932 198.834 46.7673 199.014C46.7413 199.194 46.5753 199.319 46.3964 199.293C43.5358 198.874 41.5593 197.879 40.0638 196.547C40.2316 197.375 40.4206 198.345 40.4675 199.325C40.5286 200.603 40.3556 201.96 39.5768 203.164C39.7494 203.188 39.9335 203.214 40.1249 203.241C40.1977 203.248 40.2698 203.255 40.3412 203.262C41.5644 203.385 42.5942 203.588 43.2664 203.742C43.3437 203.76 43.4162 203.777 43.4838 203.793C43.7325 203.845 43.933 203.894 44.062 203.937L44.071 203.94C44.0916 203.947 44.1085 203.953 44.1193 203.957C44.1225 203.958 44.1266 203.959 44.1308 203.961C44.1331 203.962 44.1448 203.966 44.1573 203.972C44.1618 203.974 44.1733 203.98 44.1803 203.983C44.1927 203.991 44.231 204.018 44.2553 204.041C44.3188 204.133 44.3098 204.429 44.174 204.564C44.1152 204.588 44.0308 204.602 44.0086 204.601C43.9817 204.6 43.9599 204.596 43.9599 204.596C43.9538 204.595 43.9488 204.593 43.9463 204.593C43.934 204.59 43.9048 204.582 43.8693 204.572C43.8529 204.568 43.8353 204.563 43.8173 204.558C43.7167 204.531 43.5528 204.487 43.3348 204.435C42.9182 204.349 42.3325 204.247 41.6916 204.145C41.1448 204.057 40.5702 203.971 40.0494 203.896C37.6921 203.683 34.7077 203.795 32.2379 205.098C29.3909 206.6 28.3942 208.626 28.8452 210.171C29.2991 211.725 31.3017 213.097 35.1232 213.097C37.2757 213.097 39.2148 213.125 40.9442 213.149C43.115 213.18 44.9551 213.206 46.4712 213.167C47.8299 213.132 48.8995 213.046 49.6913 212.87C50.4952 212.692 50.9384 212.438 51.141 212.132C51.2466 211.972 51.3533 211.708 51.4631 211.339C51.5711 210.975 51.6744 210.536 51.7835 210.044C51.8216 209.873 51.8603 209.695 51.9001 209.512C52.0865 208.656 52.2963 207.692 52.5717 206.764C52.9053 205.641 53.345 204.534 53.9845 203.703C54.6322 202.862 55.4986 202.288 56.6593 202.288C57.7653 202.288 58.6215 202.622 59.2702 203.199C59.9123 203.771 60.3257 204.557 60.5953 205.421C61.128 207.129 61.128 209.246 61.128 210.898V210.924C61.128 211.648 61.419 212.16 61.9392 212.544C62.4778 212.942 63.2725 213.209 64.2722 213.38C65.9867 213.673 68.1793 213.665 70.4342 213.656C70.8113 213.655 71.1901 213.654 71.5688 213.654C72.0061 213.654 72.4775 213.657 72.9727 213.661C75.4741 213.681 78.5849 213.706 81.0029 213.276C82.4612 213.017 83.5873 212.604 84.1876 211.992C84.4774 211.696 84.6424 211.357 84.6694 210.954C84.697 210.543 84.5831 210.035 84.256 209.409C82.0252 205.14 77.0269 202.377 72.0264 203.404C71.918 203.449 71.806 203.495 71.6909 203.544C70.744 203.943 69.619 204.465 68.704 204.893C68.5929 204.945 68.4849 204.996 68.3807 205.045C68.0567 205.196 67.7693 205.331 67.5411 205.436C67.3904 205.505 67.263 205.563 67.1667 205.604C67.1188 205.625 67.076 205.643 67.0406 205.656C67.0154 205.666 66.9651 205.685 66.917 205.694C66.9045 205.696 66.8706 205.701 66.8282 205.698L66.8275 205.698C66.8072 205.696 66.6477 205.683 66.5632 205.522C66.4758 205.356 66.5622 205.212 66.5718 205.196C66.5942 205.158 66.6192 205.133 66.6283 205.124C66.6638 205.089 66.7103 205.058 66.736 205.042C66.8042 204.997 66.9151 204.931 67.0691 204.842C67.3802 204.663 67.8918 204.378 68.6511 203.961C69.7003 203.384 70.773 202.993 71.8451 202.767C72.1664 202.637 72.4611 202.525 72.7103 202.442C72.8853 202.384 73.0453 202.338 73.1801 202.31C73.2474 202.296 73.3146 202.286 73.3779 202.282C73.4029 202.28 73.4312 202.279 73.4616 202.281C73.4662 202.272 73.4714 202.261 73.4769 202.249C73.5388 202.111 73.6012 201.879 73.6584 201.561C73.7712 200.932 73.848 200.06 73.8996 199.167C73.951 198.277 73.9768 197.378 73.9897 196.701C73.9927 196.544 73.995 196.399 73.9968 196.269C73.681 196.497 73.1965 196.822 72.4587 197.269C72.4022 197.303 72.3457 197.338 72.2893 197.372C72.1021 197.485 71.9161 197.594 71.7321 197.699C70.5421 198.378 69.4334 198.886 68.5869 199.236C68.3484 199.335 68.1306 199.421 67.9374 199.495C67.7186 199.579 67.5305 199.647 67.38 199.7C67.2514 199.745 67.1502 199.779 67.0807 199.802C67.046 199.814 67.0192 199.822 67.0009 199.828L67.0022 199.828C67.0221 199.821 67.0512 199.812 67.089 199.8C67.1645 199.775 67.2746 199.738 67.415 199.688C67.5588 199.637 67.7345 199.573 67.9374 199.495C68.0925 199.436 68.2632 199.37 68.4468 199.295C69.3307 198.938 70.5189 198.404 71.7321 197.699M66.972 199.837C66.972 199.837 66.9719 199.837 66.875 199.523C66.7794 199.207 66.7794 199.207 66.7794 199.207L66.7783 199.208C66.606 199.262 66.5092 199.446 66.5623 199.62C66.6154 199.793 66.7981 199.891 66.9707 199.838L66.875 199.523C66.9707 199.838 66.9707 199.838 66.9707 199.838L66.9715 199.837L66.972 199.837ZM66.802 199.2L66.805 199.199C66.8229 199.194 66.8499 199.185 66.8855 199.173C66.9567 199.15 67.0622 199.114 67.1979 199.066C67.3381 199.016 67.5103 198.954 67.7098 198.877C67.86 198.82 68.0252 198.755 68.203 198.684C69.0679 198.334 70.2264 197.813 71.4052 197.128L71.4058 197.128C71.5864 197.025 71.7689 196.918 71.9526 196.807C72.0087 196.773 72.0649 196.739 72.1211 196.704C72.8807 196.244 73.3586 195.921 73.6539 195.705C73.8432 195.566 73.9557 195.473 74.0182 195.417C74.0494 195.39 74.0677 195.372 74.0766 195.363L74.0815 195.358L74.0797 195.36L74.0786 195.361L74.078 195.362L74.0777 195.362C74.0777 195.362 74.0773 195.363 74.3298 195.572L74.0773 195.363C74.0787 195.361 74.0801 195.359 74.0815 195.358L74.0823 195.357C74.0952 195.342 74.1093 195.328 74.1243 195.316C73.4665 195.831 72.7887 196.293 72.1211 196.704C71.906 196.834 71.6682 196.975 71.4058 197.128C70.2464 197.789 69.1649 198.285 68.3383 198.627C68.1075 198.722 67.8966 198.806 67.7098 198.877C67.4949 198.959 67.3107 199.026 67.1641 199.077C67.0396 199.121 66.9423 199.154 66.8765 199.176L66.86 199.181C66.8351 199.189 66.8157 199.196 66.802 199.2ZM74.3298 195.572L74.0026 195.572V195.577L74.0026 195.593L74.0024 195.653C74.0022 195.706 74.0018 195.783 74.001 195.882C74.0002 195.981 73.999 196.1 73.9972 196.237C74.1829 196.101 74.3681 195.96 74.552 195.816M74.1336 195.309C76.1214 193.75 77.9251 191.708 78.7108 189.136C79.791 185.6 79.9336 180.634 79.4187 175.247C78.92 170.03 77.8079 164.451 76.361 159.455C75.7581 159.907 75.2479 160.173 74.7982 160.28C74.5397 160.342 74.3048 160.351 74.0897 160.316M64.1642 125.959C63.2979 126.639 62.254 127.948 61.0898 130.155C59.9688 132.28 59.9375 134.935 60.5933 137.791C61.2481 140.643 62.5787 143.655 64.124 146.456C65.668 149.256 67.4192 151.832 68.9049 153.813C70.3977 155.803 71.6043 157.168 72.0578 157.559C72.4293 157.88 72.7225 158.268 72.9785 158.606L73.0143 158.654C73.2903 159.019 73.5169 159.307 73.7744 159.488C74.0087 159.652 74.2713 159.729 74.6474 159.639C75.0467 159.544 75.585 159.257 76.3312 158.641C77.374 157.78 78.7727 156.319 80.7049 153.983C82.1439 152.244 82.5473 150.577 82.2909 149.02C82.032 147.448 81.0916 145.938 79.7484 144.546C77.0598 141.76 72.8577 139.551 69.7954 138.373C69.7588 138.359 69.725 138.338 69.6957 138.312C69.1238 137.804 68.3991 137.022 67.7589 136.082C66.5995 134.378 65.6479 132.048 66.5743 129.871C66.9655 128.951 67.0773 127.97 66.961 127.154C66.8428 126.324 66.5024 125.734 66.0626 125.493C65.6527 125.268 65.0281 125.281 64.1642 125.959Z" fill="#5B5B66"/>
<path fill-rule="evenodd" clip-rule="evenodd" d="M87.9619 43.7228C90.1936 43.7228 91.8885 42.0884 91.8885 40.2074C91.8885 38.3264 90.1936 36.692 87.9619 36.692C85.7301 36.692 84.0353 38.3264 84.0353 40.2074C84.0353 42.0884 85.7301 43.7228 87.9619 43.7228ZM87.9619 44.3819C90.4919 44.3819 92.5429 42.5129 92.5429 40.2074C92.5429 37.9018 90.4919 36.0328 87.9619 36.0328C85.4319 36.0328 83.3809 37.9018 83.3809 40.2074C83.3809 42.5129 85.4319 44.3819 87.9619 44.3819Z" fill="#5B5B66"/>
<path fill-rule="evenodd" clip-rule="evenodd" d="M106.94 38.0103C119.722 38.0103 129.845 29.5292 129.845 19.3347C129.845 9.14022 119.722 0.659138 106.94 0.659138C94.1586 0.659138 84.0353 9.14022 84.0353 19.3347C84.0353 29.5292 94.1586 38.0103 106.94 38.0103ZM106.94 38.6694C119.952 38.6694 130.5 30.013 130.5 19.3347C130.5 8.65644 119.952 0 106.94 0C93.9288 0 83.3809 8.65644 83.3809 19.3347C83.3809 30.013 93.9288 38.6694 106.94 38.6694Z" fill="#5B5B66"/>
<path d="M107.363 23.3719H104.827C104.836 22.4931 104.914 21.7744 105.059 21.216C105.214 20.6484 105.463 20.1312 105.809 19.6643C106.154 19.1974 106.613 18.6664 107.186 18.0714C107.604 17.6411 107.986 17.2383 108.331 16.8629C108.686 16.4784 108.972 16.0665 109.19 15.6271C109.408 15.1785 109.517 14.6429 109.517 14.0204C109.517 13.3887 109.404 12.844 109.176 12.3863C108.958 11.9286 108.631 11.5761 108.195 11.3289C107.768 11.0818 107.236 10.9582 106.6 10.9582C106.072 10.9582 105.573 11.0543 105.1 11.2465C104.627 11.4388 104.245 11.7363 103.955 12.1391C103.664 12.5328 103.514 13.05 103.505 13.6908H100.982C101.001 12.6564 101.255 11.7684 101.746 11.0268C102.246 10.2853 102.918 9.71771 103.764 9.32406C104.609 8.93041 105.554 8.73358 106.6 8.73358C107.754 8.73358 108.736 8.94414 109.545 9.36526C110.363 9.78637 110.985 10.3906 111.412 11.1779C111.84 11.956 112.053 12.8807 112.053 13.9518C112.053 14.7757 111.885 15.5355 111.549 16.2313C111.222 16.9179 110.799 17.5633 110.281 18.1675C109.763 18.7717 109.213 19.3484 108.631 19.8977C108.131 20.3646 107.795 20.891 107.622 21.4769C107.449 22.0628 107.363 22.6945 107.363 23.3719ZM104.718 27.725C104.718 27.313 104.845 26.9651 105.1 26.6813C105.354 26.3976 105.723 26.2557 106.204 26.2557C106.695 26.2557 107.068 26.3976 107.322 26.6813C107.577 26.9651 107.704 27.313 107.704 27.725C107.704 28.1186 107.577 28.4574 107.322 28.7412C107.068 29.025 106.695 29.1668 106.204 29.1668C105.723 29.1668 105.354 29.025 105.1 28.7412C104.845 28.4574 104.718 28.1186 104.718 27.725Z" fill="#5B5B66"/>
<path d="M44.7314 108.031C44.7314 109.874 43.2481 111.368 41.4182 111.368C39.5884 111.368 38.105 109.874 38.105 108.031C38.105 106.188 39.5884 104.694 41.4182 104.694C43.2481 104.694 44.7314 106.188 44.7314 108.031Z" fill="#5B5B66"/>
<path d="M40.8661 108.309C40.8661 108.77 40.4952 109.144 40.0378 109.144C39.5803 109.144 39.2095 108.77 39.2095 108.309C39.2095 107.849 39.5803 107.475 40.0378 107.475C40.4952 107.475 40.8661 107.849 40.8661 108.309Z" fill="#FAFAFA"/>
<path d="M69.5806 100.801C69.5806 102.644 68.0972 104.138 66.2673 104.138C64.4375 104.138 62.9541 102.644 62.9541 100.801C62.9541 98.958 64.4375 97.464 66.2673 97.464C68.0972 97.464 69.5806 98.958 69.5806 100.801Z" fill="#5B5B66"/>
<path d="M65.7152 101.079C65.7152 101.54 65.3444 101.913 64.8869 101.913C64.4294 101.913 64.0586 101.54 64.0586 101.079C64.0586 100.618 64.4294 100.245 64.8869 100.245C65.3444 100.245 65.7152 100.618 65.7152 101.079Z" fill="white"/>
<path fill-rule="evenodd" clip-rule="evenodd" d="M55.5942 123.921C55.6961 124.331 55.8914 124.749 56.1081 125.098C56.2039 125.253 56.1573 125.456 56.0041 125.552C55.8508 125.649 55.649 125.602 55.5532 125.448C55.3097 125.055 55.0817 124.574 54.9593 124.081C54.8379 123.592 54.8116 123.054 55.0209 122.58C55.2377 122.09 55.6797 121.728 56.3666 121.554C57.0413 121.382 57.966 121.385 59.2024 121.612C59.3802 121.644 59.4982 121.816 59.4658 121.995C59.4335 122.174 59.2632 122.293 59.0854 122.26C57.8921 122.042 57.0727 122.054 56.5268 122.193C55.9931 122.329 55.738 122.579 55.6188 122.849C55.4922 123.135 55.4912 123.506 55.5942 123.921Z" fill="#5B5B66"/>
<path fill-rule="evenodd" clip-rule="evenodd" d="M65.2527 86.7925C65.3099 86.9652 65.2172 87.1518 65.0458 87.2094C64.9411 87.2445 64.7981 87.3607 64.6276 87.6068C64.4633 87.8438 64.3032 88.1575 64.147 88.5132C63.9916 88.8672 63.8457 89.2496 63.7063 89.6205C63.6899 89.6643 63.6735 89.7079 63.6572 89.7514C63.5369 90.0723 63.4206 90.3827 63.3104 90.6417C62.8732 91.669 62.2051 92.4326 61.4303 92.8228C60.6465 93.2175 59.7681 93.2199 58.9758 92.7411C58.8208 92.6474 58.7706 92.445 58.8636 92.2889C58.9566 92.1329 59.1575 92.0822 59.3125 92.1759C59.9007 92.5313 60.5409 92.5338 61.1376 92.2332C61.7433 91.9282 62.3177 91.3014 62.7088 90.3821C62.813 90.1374 62.9237 89.842 63.045 89.5186C63.0612 89.4753 63.0776 89.4315 63.0943 89.3873C63.2335 89.0166 63.385 88.6188 63.5485 88.2466C63.7111 87.8762 63.8912 87.5178 64.091 87.2295C64.2845 86.9503 64.5294 86.688 64.8388 86.5841C65.0103 86.5265 65.1956 86.6198 65.2527 86.7925Z" fill="#5B5B66"/>
<path fill-rule="evenodd" clip-rule="evenodd" d="M42.0201 93.7347C40.8051 94.7445 39.9636 96.1023 39.5656 97.0378C39.4944 97.2051 39.302 97.2826 39.1359 97.2109C38.9698 97.1392 38.8929 96.9454 38.964 96.7781C39.3943 95.767 40.2923 94.3161 41.6036 93.2263C42.9218 92.1308 44.6785 91.386 46.7906 91.8587C46.967 91.8982 47.0782 92.0743 47.039 92.252C46.9998 92.4296 46.825 92.5417 46.6486 92.5022C44.7847 92.085 43.2283 92.7307 42.0201 93.7347Z" fill="#5B5B66"/>
<path d="M62.2842 190.344L74.4509 161.61L77.9458 185.771L75.3987 192.448L71.5565 195.24L68.759 197.807L62.2842 190.344Z" fill="#FAFAFA"/>
<path d="M74.7608 193.422C75.1636 194.168 74.3747 195.384 72.9987 196.137C71.0526 197.203 69.6181 197.949 69.2153 197.203C68.8124 196.457 70.164 194.189 71.54 193.435C72.916 192.682 74.358 192.676 74.7608 193.422Z" fill="#FAFAFA"/>
<ellipse cx="65.507" cy="197.203" rx="6.10802" ry="6.15195" fill="#FAFAFA"/>
<path fill-rule="evenodd" clip-rule="evenodd" d="M63.1305 176.711C63.0306 176.779 62.895 176.752 62.8277 176.652L62.8256 176.649C62.6527 176.391 62.469 176.116 62.3066 175.701C62.1443 175.285 62.0062 174.737 61.908 173.924C61.8934 173.804 61.9786 173.694 62.0982 173.68C62.2178 173.665 62.3265 173.751 62.3411 173.871C62.4363 174.659 62.5677 175.169 62.7126 175.54C62.8569 175.909 63.0176 176.15 63.1894 176.406C63.2567 176.507 63.2304 176.643 63.1305 176.711Z" fill="#5DCB42"/>
<path fill-rule="evenodd" clip-rule="evenodd" d="M68.3351 169.925C68.4203 170.01 68.4203 170.149 68.3351 170.235C68.3265 170.244 68.3014 170.265 68.2618 170.299C67.4874 170.955 61.171 176.304 63.8881 184.377C63.9268 184.492 63.8656 184.616 63.7515 184.655C63.6374 184.694 63.5136 184.633 63.4749 184.518C61.9955 180.122 63.1052 176.5 64.5987 173.967C65.3447 172.701 66.1868 171.706 66.8513 171.018C67.1837 170.674 67.4721 170.407 67.6823 170.22C67.7875 170.127 67.873 170.054 67.9343 170.002L68.0068 169.941C68.023 169.927 68.0283 169.923 68.0283 169.923C68.0283 169.923 68.0277 169.923 68.0266 169.925C68.1118 169.839 68.2499 169.839 68.3351 169.925Z" fill="#5DCB42"/>
<path fill-rule="evenodd" clip-rule="evenodd" d="M70.2183 174.059C70.3238 174.117 70.3624 174.251 70.3043 174.357C68.7711 177.165 67.3004 178.392 66.0715 178.904C65.0755 179.319 64.2439 179.253 63.7596 179.215C63.6502 179.206 63.5585 179.199 63.4867 179.199C63.3662 179.199 63.2686 179.1 63.2686 178.979C63.2686 178.858 63.3662 178.759 63.4867 178.759C63.5855 178.759 63.6984 178.768 63.8252 178.777C64.3176 178.814 65.0182 178.867 65.9047 178.498C67.0117 178.036 68.4181 176.9 69.922 174.145C69.9801 174.039 70.1127 174 70.2183 174.059Z" fill="#5DCB42"/>
<path fill-rule="evenodd" clip-rule="evenodd" d="M66.8108 177.942C66.9251 177.904 67.0487 177.966 67.0868 178.081C67.197 178.414 67.8897 179.315 69.813 179.543C69.9326 179.557 70.0182 179.667 70.0041 179.787C69.9901 179.908 69.8816 179.994 69.762 179.98C67.7308 179.739 66.8534 178.766 66.6729 178.22C66.6348 178.105 66.6965 177.981 66.8108 177.942Z" fill="#5DCB42"/>
<path d="M71.0005 174.281C71.0005 174.604 70.7401 174.866 70.4189 174.866C70.0978 174.866 69.8374 174.604 69.8374 174.281C69.8374 173.957 70.0978 173.695 70.4189 173.695C70.7401 173.695 71.0005 173.957 71.0005 174.281Z" fill="#5DCB42"/>
<path d="M71.0005 179.843C71.0005 180.166 70.7401 180.428 70.4189 180.428C70.0978 180.428 69.8374 180.166 69.8374 179.843C69.8374 179.519 70.0978 179.257 70.4189 179.257C70.7401 179.257 71.0005 179.519 71.0005 179.843Z" fill="#5DCB42"/>
<path fill-rule="evenodd" clip-rule="evenodd" d="M55.8504 177.956C56.5654 178.731 57.4088 179.72 57.8777 180.537C58.3417 181.346 58.8346 182.427 59.2097 183.3C59.3977 183.738 59.557 184.126 59.6693 184.404C59.7212 184.533 59.7631 184.638 59.7931 184.714L68.671 184.815C68.6791 184.806 68.6879 184.795 68.6974 184.784C68.757 184.715 68.8437 184.614 68.9513 184.488C69.1666 184.235 69.4658 183.881 69.8015 183.474C70.4738 182.658 71.2882 181.636 71.8672 180.8C72.3956 180.036 73.0133 179.015 73.5007 178.182C73.7439 177.766 73.954 177.398 74.1032 177.133C74.1778 177.001 74.2372 176.896 74.2779 176.823L74.2809 176.817L69.6472 168.519L70.0274 168.304L74.781 176.816L74.7217 176.924L74.531 176.817C74.7217 176.924 74.7217 176.924 74.7217 176.924L74.7214 176.924L74.7053 176.953L74.6582 177.038C74.6172 177.111 74.5574 177.218 74.4824 177.351C74.3324 177.616 74.1212 177.986 73.8766 178.405C73.3882 179.24 72.7635 180.273 72.2251 181.051C71.635 181.903 70.8109 182.937 70.1371 183.754C69.7997 184.164 69.4989 184.52 69.2824 184.774C69.1742 184.901 69.087 185.003 69.0268 185.072C68.9967 185.107 68.9734 185.134 68.9576 185.153L68.9337 185.18L68.9334 185.181C68.9334 185.181 68.9333 185.181 68.7693 185.036L68.9334 185.181L68.8671 185.257L59.4943 185.15L59.4408 185.012L59.4379 185.004L59.4292 184.982C59.4214 184.962 59.4099 184.933 59.3949 184.894C59.3648 184.818 59.3208 184.707 59.2651 184.57C59.1538 184.294 58.9957 183.909 58.8093 183.475C58.4354 182.604 57.9507 181.543 57.4999 180.757C57.0578 179.987 56.2446 179.029 55.5307 178.255C55.1758 177.87 54.849 177.534 54.611 177.295C54.492 177.175 54.3953 177.079 54.3284 177.014C54.295 176.981 54.269 176.956 54.2515 176.939L54.2316 176.919L54.2251 176.913C54.2251 176.913 54.2251 176.913 54.3756 176.754C54.526 176.595 54.5261 176.595 54.5261 176.595L54.5333 176.602L54.554 176.622C54.5721 176.64 54.5987 176.665 54.6327 176.699C54.7008 176.766 54.7989 176.862 54.9193 176.984C55.1602 177.226 55.4909 177.566 55.8504 177.956Z" fill="#5DCB42"/>
</svg>
