<svg width="79" height="153" viewBox="0 0 79 153" fill="none" xmlns="http://www.w3.org/2000/svg">
<path fill-rule="evenodd" clip-rule="evenodd" d="M43.5953 104.391C43.6078 104.565 43.6594 104.795 43.7258 105.042C43.8057 105.339 43.9188 105.702 44.0525 106.104C44.3203 106.906 44.6763 107.877 45.031 108.812C45.3859 109.748 45.7407 110.651 46.0067 111.32C46.1397 111.654 46.2506 111.93 46.3282 112.123C46.3493 112.175 46.3679 112.221 46.3838 112.261L41.1995 120.336L33.111 120.336C33.0742 120.289 33.0278 120.23 32.9731 120.16C32.8204 119.964 32.6023 119.682 32.3415 119.338C31.8196 118.649 31.1276 117.715 30.4455 116.726C29.7624 115.736 29.0943 114.7 28.617 113.807C28.378 113.36 28.1915 112.957 28.0743 112.62C27.9528 112.27 27.9229 112.037 27.9451 111.907C28.0115 111.52 28.3058 110.745 28.7509 109.772C29.1896 108.814 29.7572 107.7 30.3442 106.653C30.9323 105.604 31.5344 104.632 32.0415 103.952C32.2967 103.609 32.5171 103.355 32.691 103.203C32.7697 103.134 32.8264 103.097 32.8617 103.079C32.9485 103.111 33.0519 103.135 33.1556 103.155C33.2901 103.181 33.4536 103.205 33.6387 103.228C34.0094 103.274 34.4839 103.317 35.0214 103.36C35.527 103.401 36.0925 103.442 36.685 103.485C36.7232 103.487 36.7616 103.49 36.8 103.493C37.435 103.539 38.0989 103.587 38.7554 103.64C40.0713 103.746 41.3457 103.87 42.2881 104.031C42.7621 104.111 43.1338 104.198 43.3804 104.29C43.4889 104.33 43.557 104.365 43.5953 104.391ZM32.9458 120.677C32.9458 120.677 27.3087 113.6 27.6089 111.85C27.9092 110.099 32.0305 102.333 32.9458 102.746C33.2821 102.897 34.8549 103.011 36.7099 103.144C39.9033 103.375 43.9334 103.665 43.9334 104.315C43.9334 105.343 46.7663 112.296 46.7663 112.296L41.3858 120.677L32.9458 120.677Z" fill="#5DCB42"/>
<path d="M31.3495 112.89C31.3495 113.237 31.0684 113.518 30.7216 113.518C30.3749 113.518 30.0938 113.237 30.0938 112.89C30.0938 112.543 30.3749 112.262 30.7216 112.262C31.0684 112.262 31.3495 112.543 31.3495 112.89Z" fill="#5DCB42"/>
<path fill-rule="evenodd" clip-rule="evenodd" d="M30.7216 113.134C30.8565 113.134 30.9658 113.025 30.9658 112.89C30.9658 112.755 30.8565 112.646 30.7216 112.646C30.5868 112.646 30.4774 112.755 30.4774 112.89C30.4774 113.025 30.5868 113.134 30.7216 113.134ZM30.7216 113.518C31.0684 113.518 31.3495 113.237 31.3495 112.89C31.3495 112.543 31.0684 112.262 30.7216 112.262C30.3749 112.262 30.0938 112.543 30.0938 112.89C30.0938 113.237 30.3749 113.518 30.7216 113.518Z" fill="#5DCB42"/>
<path d="M33.2333 108.495C33.2333 108.842 32.9522 109.123 32.6054 109.123C32.2586 109.123 31.9775 108.842 31.9775 108.495C31.9775 108.148 32.2586 107.867 32.6054 107.867C32.9522 107.867 33.2333 108.148 33.2333 108.495Z" fill="#5DCB42"/>
<path fill-rule="evenodd" clip-rule="evenodd" d="M32.6054 108.739C32.7403 108.739 32.8496 108.63 32.8496 108.495C32.8496 108.36 32.7403 108.251 32.6054 108.251C32.4706 108.251 32.3612 108.36 32.3612 108.495C32.3612 108.63 32.4706 108.739 32.6054 108.739ZM32.6054 109.123C32.9522 109.123 33.2333 108.842 33.2333 108.495C33.2333 108.148 32.9522 107.867 32.6054 107.867C32.2586 107.867 31.9775 108.148 31.9775 108.495C31.9775 108.842 32.2586 109.123 32.6054 109.123Z" fill="#5DCB42"/>
<path d="M37.0004 106.611C37.0004 106.958 36.7193 107.239 36.3725 107.239C36.0257 107.239 35.7446 106.958 35.7446 106.611C35.7446 106.265 36.0257 105.984 36.3725 105.984C36.7193 105.984 37.0004 106.265 37.0004 106.611Z" fill="#5DCB42"/>
<path fill-rule="evenodd" clip-rule="evenodd" d="M36.3725 106.856C36.5073 106.856 36.6167 106.746 36.6167 106.611C36.6167 106.477 36.5073 106.367 36.3725 106.367C36.2376 106.367 36.1283 106.477 36.1283 106.611C36.1283 106.746 36.2376 106.856 36.3725 106.856ZM36.3725 107.239C36.7193 107.239 37.0004 106.958 37.0004 106.611C37.0004 106.265 36.7193 105.984 36.3725 105.984C36.0257 105.984 35.7446 106.265 35.7446 106.611C35.7446 106.958 36.0257 107.239 36.3725 107.239Z" fill="#5DCB42"/>
<path d="M41.3954 106.611C41.3954 106.958 41.1143 107.239 40.7675 107.239C40.4208 107.239 40.1396 106.958 40.1396 106.611C40.1396 106.265 40.4208 105.984 40.7675 105.984C41.1143 105.984 41.3954 106.265 41.3954 106.611Z" fill="#5DCB42"/>
<path fill-rule="evenodd" clip-rule="evenodd" d="M40.7675 106.856C40.9024 106.856 41.0117 106.746 41.0117 106.611C41.0117 106.477 40.9024 106.367 40.7675 106.367C40.6327 106.367 40.5233 106.477 40.5233 106.611C40.5233 106.746 40.6327 106.856 40.7675 106.856ZM40.7675 107.239C41.1143 107.239 41.3954 106.958 41.3954 106.611C41.3954 106.265 41.1143 105.984 40.7675 105.984C40.4208 105.984 40.1396 106.265 40.1396 106.611C40.1396 106.958 40.4208 107.239 40.7675 107.239Z" fill="#5DCB42"/>
<path d="M44.5348 111.007C44.5348 111.353 44.2537 111.634 43.9069 111.634C43.5602 111.634 43.2791 111.353 43.2791 111.007C43.2791 110.66 43.5602 110.379 43.9069 110.379C44.2537 110.379 44.5348 110.66 44.5348 111.007Z" fill="#5DCB42"/>
<path fill-rule="evenodd" clip-rule="evenodd" d="M43.9069 111.251C44.0418 111.251 44.1511 111.141 44.1511 111.007C44.1511 110.872 44.0418 110.762 43.9069 110.762C43.7721 110.762 43.6627 110.872 43.6627 111.007C43.6627 111.141 43.7721 111.251 43.9069 111.251ZM43.9069 111.634C44.2537 111.634 44.5348 111.353 44.5348 111.007C44.5348 110.66 44.2537 110.379 43.9069 110.379C43.5602 110.379 43.2791 110.66 43.2791 111.007C43.2791 111.353 43.5602 111.634 43.9069 111.634Z" fill="#5DCB42"/>
<path fill-rule="evenodd" clip-rule="evenodd" d="M34.871 110.802C35.5053 111.872 36.0668 113.151 36.2278 114.439C36.338 115.321 36.2437 115.956 35.9437 116.328C35.6264 116.722 35.1317 116.767 34.6005 116.598C34.0701 116.428 33.4591 116.035 32.8282 115.475C32.1948 114.914 31.5316 114.176 30.8977 113.304L31.1735 113.104C31.7954 113.959 32.4424 114.677 33.0544 115.22C33.6689 115.765 34.2384 116.124 34.7043 116.273C35.1694 116.421 35.4869 116.351 35.6781 116.114C35.8865 115.855 35.9971 115.343 35.8893 114.481C35.7364 113.257 35.1991 112.024 34.5776 110.976C33.9566 109.928 33.2589 109.076 32.7986 108.616L33.0398 108.375C33.5213 108.856 34.2363 109.731 34.871 110.802Z" fill="#5DCB42"/>
<path fill-rule="evenodd" clip-rule="evenodd" d="M36.5729 109.865C36.7343 108.845 36.6722 107.673 36.5196 106.961L36.8531 106.89C37.0144 107.642 37.0779 108.857 36.9097 109.919C36.8257 110.45 36.6819 110.955 36.4543 111.349C36.2259 111.744 35.9024 112.043 35.4587 112.117L35.4026 111.78C35.7123 111.729 35.9617 111.52 36.1591 111.178C36.3573 110.835 36.4921 110.376 36.5729 109.865Z" fill="#5DCB42"/>
<path fill-rule="evenodd" clip-rule="evenodd" d="M37.4524 112.431C38.1175 110.613 39.3647 108.356 40.3087 106.835L40.5985 107.015C39.6589 108.529 38.426 110.762 37.7727 112.548C37.4433 113.449 37.2735 114.205 37.3381 114.693C37.3697 114.932 37.4537 115.082 37.5761 115.165C37.701 115.25 37.903 115.292 38.2256 115.234C39.5665 114.99 40.7161 114.277 41.6114 113.477C42.507 112.677 43.1384 111.798 43.4432 111.239L43.7426 111.402C43.4196 111.994 42.7639 112.905 41.8387 113.731C40.9132 114.559 39.7082 115.311 38.2866 115.569C37.9185 115.636 37.6123 115.603 37.384 115.447C37.1533 115.29 37.0391 115.033 37 114.738C36.9234 114.159 37.1224 113.333 37.4524 112.431Z" fill="#5DCB42"/>
<path fill-rule="evenodd" clip-rule="evenodd" d="M43.417 73.5689C43.576 73.5689 43.7048 73.6977 43.7048 73.8567C43.7048 76.3548 43.0636 78.2158 42.0238 79.5264C40.9836 80.8375 39.5641 81.5729 38.0545 81.8545C35.0568 82.4135 31.6469 81.1911 30.0038 79.0551C29.9069 78.9291 29.9304 78.7484 30.0564 78.6515C30.1824 78.5546 30.3631 78.5782 30.46 78.7041C31.9562 80.6493 35.1389 81.8127 37.9489 81.2887C39.3432 81.0287 40.6314 80.3554 41.5729 79.1687C42.5147 77.9816 43.1293 76.2559 43.1293 73.8567C43.1293 73.6977 43.2581 73.5689 43.417 73.5689Z" fill="#5B5B66"/>
<path fill-rule="evenodd" clip-rule="evenodd" d="M44.1807 64.0035C42.4723 64.611 41.2522 65.7549 41.1092 65.898C40.9968 66.0103 40.8146 66.0103 40.7022 65.898C40.5898 65.7856 40.5898 65.6034 40.7022 65.491C40.8731 65.3201 42.1645 64.1095 43.9878 63.4612C45.8295 62.8064 48.2255 62.7256 50.5195 64.8557C50.6359 64.9639 50.6427 65.146 50.5345 65.2624C50.4264 65.3789 50.2443 65.3856 50.1278 65.2775C48.0267 63.3265 45.8707 63.4026 44.1807 64.0035Z" fill="#5B5B66"/>
<path d="M23.6393 65.0666C23.6393 66.8004 22.3743 68.2059 20.8139 68.2059C19.2535 68.2059 17.9885 66.8004 17.9885 65.0666C17.9885 63.3328 19.2535 61.9272 20.8139 61.9272C22.3743 61.9272 23.6393 63.3328 23.6393 65.0666Z" fill="#5B5B66"/>
<path fill-rule="evenodd" clip-rule="evenodd" d="M20.8139 67.8222C22.1254 67.8222 23.2556 66.6275 23.2556 65.0666C23.2556 63.5057 22.1254 62.3109 20.8139 62.3109C19.5024 62.3109 18.3722 63.5057 18.3722 65.0666C18.3722 66.6275 19.5024 67.8222 20.8139 67.8222ZM20.8139 68.2059C22.3743 68.2059 23.6393 66.8004 23.6393 65.0666C23.6393 63.3328 22.3743 61.9272 20.8139 61.9272C19.2535 61.9272 17.9885 63.3328 17.9885 65.0666C17.9885 66.8004 19.2535 68.2059 20.8139 68.2059Z" fill="#5B5B66"/>
<path d="M21.98 64.3009C21.98 64.6363 21.7082 64.9081 21.3728 64.9081C21.0375 64.9081 20.7656 64.6363 20.7656 64.3009C20.7656 63.9656 21.0375 63.6937 21.3728 63.6937C21.7082 63.6937 21.98 63.9656 21.98 64.3009Z" fill="white"/>
<path fill-rule="evenodd" clip-rule="evenodd" d="M54.8741 122.304C55.0151 122.313 55.1221 122.434 55.1131 122.575C55.1121 122.591 55.1182 122.647 55.1613 122.763C55.2017 122.873 55.2642 123.009 55.3474 123.177C55.4346 123.352 55.5359 123.544 55.6498 123.76C55.7592 123.968 55.8802 124.198 56.0118 124.456C56.5369 125.487 57.1667 126.857 57.5469 128.474C58.311 131.724 58.0597 135.947 54.027 140.433C53.9325 140.538 53.7708 140.547 53.6657 140.453C53.5607 140.358 53.552 140.196 53.6465 140.091C57.5564 135.742 57.7785 131.694 57.0489 128.591C56.6823 127.032 56.0734 125.705 55.5559 124.688C55.4337 124.448 55.3127 124.218 55.2014 124.007C55.0827 123.781 54.9752 123.577 54.8894 123.404C54.8039 123.233 54.7315 123.076 54.6814 122.941C54.6341 122.813 54.5943 122.672 54.6025 122.543C54.6115 122.402 54.7331 122.295 54.8741 122.304Z" fill="#5B5B66"/>
<path d="M58.5398 119.923C58.5398 119.923 63.2488 121.807 63.5627 121.493C63.8766 121.179 61.9931 116.156 61.9931 116.156L58.5398 119.923Z" fill="#F7A90D"/>
<path fill-rule="evenodd" clip-rule="evenodd" d="M62.0828 116.123L61.993 116.156C62.0828 116.123 62.0828 116.123 62.0828 116.123L62.104 116.179C62.1177 116.216 62.1378 116.27 62.1633 116.339C62.2143 116.478 62.2867 116.675 62.3726 116.913C62.5445 117.39 62.7704 118.028 62.9866 118.677C63.2026 119.325 63.4095 119.985 63.5428 120.503C63.6093 120.762 63.6583 120.988 63.6805 121.161C63.6916 121.248 63.6965 121.325 63.6925 121.388C63.6889 121.444 63.6771 121.514 63.6305 121.561C63.5845 121.607 63.5162 121.619 63.4609 121.623C63.4 121.627 63.3261 121.622 63.2439 121.611C63.0788 121.589 62.8643 121.539 62.6202 121.473C62.131 121.339 61.5103 121.132 60.9014 120.916C60.2921 120.7 59.6928 120.474 59.246 120.302C59.0226 120.216 58.8372 120.144 58.7076 120.093C58.6428 120.068 58.592 120.047 58.5573 120.034L58.5178 120.018L58.5044 120.013C58.5043 120.013 58.5041 120.013 58.5398 119.923L58.5044 120.013L58.3752 119.961L62.0279 115.976L62.0828 116.123ZM58.7046 119.886C58.7264 119.894 58.7509 119.904 58.7778 119.914C58.907 119.965 59.0919 120.038 59.3149 120.123C59.7608 120.295 60.3584 120.52 60.9656 120.736C61.5732 120.951 62.1886 121.156 62.6706 121.288C62.9121 121.354 63.117 121.4 63.2696 121.421C63.3461 121.431 63.4056 121.434 63.4481 121.431C63.474 121.43 63.4875 121.426 63.4934 121.424C63.4954 121.418 63.4992 121.404 63.501 121.375C63.5039 121.33 63.5006 121.267 63.4902 121.186C63.4695 121.024 63.4229 120.807 63.3569 120.551C63.2254 120.039 63.0202 119.384 62.8046 118.737C62.5891 118.091 62.3637 117.454 62.1922 116.979C62.1064 116.741 62.0342 116.544 61.9833 116.406C61.9741 116.381 61.9655 116.358 61.9578 116.337L58.7046 119.886Z" fill="#F7A90D"/>
<path d="M39.7038 130.911C39.3899 130.597 43.7849 121.807 43.7849 121.807L49.1218 123.691H51.6332L54.1447 122.749L57.284 120.865C57.284 120.865 63.2487 122.435 63.2487 122.749C63.2487 123.063 40.0177 131.225 39.7038 130.911Z" fill="#F7A90D"/>
<path fill-rule="evenodd" clip-rule="evenodd" d="M57.2693 120.762L57.3084 120.772L57.284 120.865C57.3084 120.772 57.3083 120.772 57.3084 120.772L57.3755 120.79C57.4193 120.802 57.4834 120.819 57.565 120.841C57.7282 120.884 57.9614 120.947 58.2411 121.023C58.8006 121.175 59.5467 121.381 60.293 121.597C61.0389 121.813 61.7863 122.039 62.3478 122.231C62.6281 122.327 62.8644 122.415 63.0316 122.49C63.1146 122.527 63.1843 122.563 63.2344 122.596C63.2592 122.612 63.2832 122.63 63.3019 122.651C63.3184 122.668 63.3446 122.702 63.3446 122.749C63.3446 122.786 63.3252 122.811 63.3184 122.819C63.3092 122.83 63.2989 122.839 63.2907 122.845C63.2739 122.858 63.2523 122.871 63.2289 122.884C63.1813 122.911 63.113 122.944 63.0272 122.983C62.8549 123.061 62.6036 123.165 62.2853 123.292C61.6483 123.545 60.7387 123.888 59.6471 124.291C57.4636 125.095 54.5494 126.136 51.6256 127.156C48.7018 128.176 45.7678 129.177 43.5449 129.904C42.4336 130.267 41.4992 130.561 40.8324 130.755C40.4993 130.853 40.2314 130.925 40.0412 130.968C39.9465 130.99 39.8684 131.005 39.8101 131.011C39.7814 131.015 39.7539 131.017 39.7301 131.015C39.7182 131.015 39.7042 131.013 39.6901 131.009C39.6771 131.006 39.6551 130.998 39.6359 130.979C39.5988 130.942 39.593 130.891 39.592 130.861C39.5908 130.825 39.5955 130.784 39.6035 130.74C39.6197 130.652 39.6525 130.536 39.698 130.399C39.7894 130.125 39.9365 129.753 40.1207 129.319C40.4894 128.449 41.01 127.319 41.5399 126.2C42.0699 125.081 42.6097 123.972 43.017 123.143C43.2206 122.729 43.3911 122.384 43.5107 122.143C43.5705 122.022 43.6176 121.928 43.6498 121.863L43.6989 121.765C43.6989 121.764 43.6991 121.764 43.7849 121.807L43.6991 121.764L43.737 121.688L49.1382 123.595H51.6158L54.1028 122.662L57.2693 120.762ZM43.8329 121.926L43.8215 121.949C43.7894 122.013 43.7423 122.108 43.6826 122.228C43.5631 122.469 43.3927 122.813 43.1892 123.228C42.7822 124.056 42.2428 125.165 41.7133 126.282C41.1837 127.401 40.6644 128.527 40.2973 129.394C40.1136 129.827 39.9689 130.193 39.88 130.46C39.8354 130.594 39.806 130.699 39.7922 130.774C39.7889 130.793 39.7866 130.808 39.7853 130.821C39.7861 130.821 39.7869 130.821 39.7877 130.821C39.8358 130.815 39.906 130.802 39.9987 130.781C40.1832 130.739 40.4466 130.668 40.7788 130.571C41.4425 130.378 42.3746 130.084 43.4853 129.721C45.7065 128.995 48.6392 127.995 51.5623 126.975C54.4855 125.955 57.3986 124.915 59.5808 124.111C60.672 123.709 61.5798 123.366 62.2145 123.113C62.532 122.987 62.7801 122.884 62.9482 122.808C63.0099 122.78 63.0597 122.757 63.0978 122.737C63.0618 122.716 63.0137 122.692 62.9532 122.665C62.7942 122.594 62.5645 122.508 62.2857 122.413C61.7287 122.222 60.9849 121.997 60.2397 121.781C59.4948 121.566 58.7497 121.36 58.1908 121.208C57.9114 121.132 57.6785 121.07 57.5155 121.026C57.434 121.004 57.37 120.987 57.3264 120.976L57.2986 120.968L54.1865 122.836L51.6506 123.787H49.1053L43.8329 121.926Z" fill="#F7A90D"/>
<path d="M42.5292 121.493C42.5292 121.493 34.053 117.412 34.053 118.04C34.053 118.668 38.448 129.655 38.762 129.969C39.0759 130.283 42.5292 121.493 42.5292 121.493Z" fill="#F7A90D"/>
<path fill-rule="evenodd" clip-rule="evenodd" d="M34.1523 118.071C34.1539 118.081 34.1562 118.094 34.1594 118.109C34.1671 118.145 34.1789 118.191 34.1948 118.248C34.2264 118.361 34.2732 118.509 34.3334 118.689C34.4537 119.049 34.6262 119.53 34.8345 120.091C35.2511 121.214 35.81 122.655 36.3789 124.087C36.9477 125.519 37.5263 126.941 37.9821 128.024C38.2101 128.566 38.4072 129.022 38.5568 129.353C38.6317 129.518 38.6944 129.651 38.7429 129.747C38.7637 129.788 38.7815 129.822 38.7964 129.848C38.8309 129.807 38.8762 129.74 38.9314 129.646C39.0535 129.44 39.2125 129.126 39.3962 128.736C39.7632 127.959 40.2236 126.891 40.6748 125.812C41.1258 124.733 41.5671 123.645 41.8956 122.826C42.0599 122.417 42.196 122.075 42.291 121.835C42.3385 121.715 42.3757 121.621 42.401 121.557L42.4072 121.541L42.3925 121.534C42.3305 121.504 42.2395 121.461 42.1237 121.406C41.892 121.295 41.5611 121.138 41.164 120.952C40.3697 120.579 39.3108 120.089 38.2521 119.619C37.1929 119.148 36.1357 118.698 35.344 118.405C34.9474 118.258 34.6214 118.152 34.3964 118.102C34.2822 118.076 34.2026 118.067 34.1552 118.071C34.1542 118.071 34.1532 118.071 34.1523 118.071ZM42.5291 121.493C42.6184 121.528 42.6184 121.528 42.6184 121.528L42.5795 121.627C42.5541 121.691 42.5168 121.786 42.4693 121.906C42.3742 122.145 42.2381 122.488 42.0737 122.897C41.7449 123.717 41.3033 124.806 40.8518 125.886C40.4004 126.965 39.9386 128.036 39.5698 128.818C39.3856 129.209 39.2234 129.53 39.0965 129.744C39.0337 129.85 38.9765 129.935 38.9272 129.99C38.9036 130.016 38.8747 130.044 38.8413 130.059C38.8237 130.068 38.7994 130.075 38.7711 130.073C38.7405 130.071 38.714 130.057 38.6941 130.037C38.6744 130.017 38.6551 129.987 38.638 129.958C38.6191 129.925 38.5968 129.883 38.5717 129.834C38.5214 129.734 38.4574 129.598 38.3821 129.432C38.2313 129.099 38.0335 128.641 37.8053 128.098C37.3488 127.014 36.7697 125.59 36.2006 124.158C35.6314 122.725 35.0719 121.282 34.6547 120.158C34.4461 119.596 34.2727 119.113 34.1514 118.75C34.0908 118.569 34.0429 118.417 34.01 118.3C33.9936 118.241 33.9807 118.19 33.9717 118.148C33.9632 118.108 33.957 118.07 33.957 118.04C33.957 117.988 33.9818 117.943 34.0241 117.915C34.0602 117.891 34.1033 117.882 34.1411 117.88C34.2179 117.874 34.3204 117.888 34.438 117.914C34.6765 117.967 35.0127 118.077 35.4107 118.225C36.2083 118.52 37.2701 118.972 38.33 119.443C39.3903 119.915 40.4505 120.405 41.2455 120.778C41.643 120.965 41.9742 121.122 42.2062 121.232C42.3221 121.288 42.4132 121.331 42.4754 121.361L42.5703 121.407C42.5704 121.407 42.5707 121.407 42.5291 121.493ZM42.5291 121.493L42.5707 121.407L42.651 121.445L42.6184 121.528L42.5291 121.493Z" fill="#F7A90D"/>
<path d="M34.053 116.784C38.9713 114.901 48.8706 111.133 49.1217 111.133L49.4357 113.645L49.1217 116.156L48.4939 118.982L48.1799 122.121L34.053 116.784Z" fill="#F7A90D"/>
<path fill-rule="evenodd" clip-rule="evenodd" d="M49.0831 111.042C49.0921 111.04 49.107 111.037 49.1218 111.037H49.2064L49.5324 113.645L49.2164 116.173L48.5888 118.997L48.263 122.255L33.7832 116.785L34.0187 116.695C36.4779 115.753 40.1825 114.34 43.3037 113.163C44.8643 112.574 46.2792 112.044 47.3198 111.661C47.8401 111.47 48.2671 111.315 48.5722 111.208C48.7246 111.155 48.8472 111.113 48.9359 111.085C48.9802 111.071 49.0169 111.059 49.0451 111.052C49.0591 111.048 49.072 111.045 49.0831 111.042ZM34.3228 116.784L48.097 121.987L48.399 118.966L49.0271 116.14L49.339 113.645L49.0401 111.253C49.0263 111.257 49.0111 111.262 48.9945 111.267C48.9082 111.295 48.7875 111.336 48.6356 111.389C48.332 111.496 47.9061 111.65 47.3861 111.841C46.3462 112.224 44.9319 112.754 43.3714 113.342C40.3487 114.482 36.7787 115.843 34.3228 116.784Z" fill="#F7A90D"/>
<path fill-rule="evenodd" clip-rule="evenodd" d="M12.8953 89.4644C15.2764 91.3135 18.3938 93.7343 22.7912 95.2459C26.7713 96.6141 29.2765 96.4117 30.8463 95.6662C32.4126 94.9225 33.1102 93.6082 33.4096 92.61C33.4553 92.4578 33.6157 92.3714 33.768 92.4171C33.9202 92.4627 34.0066 92.6231 33.9609 92.7754C33.6325 93.87 32.8546 95.3498 31.0932 96.1861C29.3354 97.0208 26.6607 97.1846 22.6041 95.7902C18.1106 94.2456 14.919 91.7659 12.5394 89.917C12.2307 89.6772 11.9358 89.448 11.6534 89.2328C11.0368 88.7631 10.4858 88.3642 9.98351 88.0639C9.47968 87.7627 9.04216 87.5714 8.65251 87.5017C8.27168 87.4336 7.93584 87.4812 7.61707 87.6642C7.29053 87.8517 6.95883 88.1948 6.61994 88.7596C5.6011 90.4576 6.00969 92.9212 7.21789 95.5087C8.41616 98.0749 10.3568 100.664 12.2274 102.535C13.0068 103.314 13.7752 104.043 14.5169 104.747C18.51 108.536 21.7297 111.591 21.7297 117.807C21.7297 117.966 21.6009 118.095 21.4419 118.095C21.283 118.095 21.1542 117.966 21.1542 117.807C21.1542 111.855 18.1332 108.983 14.1527 105.199C13.4046 104.488 12.6226 103.744 11.8205 102.942C9.91087 101.032 7.92768 98.3891 6.6964 95.7522C5.47506 93.1366 4.94839 90.4268 6.12641 88.4635C6.49387 87.851 6.88814 87.4191 7.33049 87.1651C7.78061 86.9067 8.25659 86.8463 8.75379 86.9352C9.24217 87.0225 9.74891 87.2531 10.2788 87.5699C10.8103 87.8877 11.3826 88.303 12.0022 88.775C12.2882 88.993 12.5855 89.2238 12.8953 89.4644Z" fill="#5B5B66"/>
<path fill-rule="evenodd" clip-rule="evenodd" d="M25.6474 106.246C25.7907 106.315 25.8511 106.487 25.7823 106.63C24.5361 109.227 22.8453 113.79 21.6083 118.591C20.3689 123.401 19.5982 128.401 20.1563 131.889C20.7737 135.748 22.5386 139.188 26.6374 141.333C30.7578 143.489 37.2786 144.36 47.4587 142.951C47.6161 142.929 47.7614 143.039 47.7832 143.196C47.805 143.354 47.6951 143.499 47.5376 143.521C37.3121 144.937 30.6478 144.081 26.3705 141.843C22.0716 139.593 20.2263 135.969 19.588 131.98C19.0099 128.366 19.8088 123.268 21.051 118.447C22.2956 113.617 23.9982 109.017 25.2635 106.381C25.3323 106.238 25.5042 106.178 25.6474 106.246Z" fill="#5B5B66"/>
<path fill-rule="evenodd" clip-rule="evenodd" d="M17.6154 0.838616C16.5352 0.436411 15.2198 0.420597 13.5602 1.32579C10.2858 3.11181 9.94262 7.16852 11.7793 9.69399C12.6691 10.9175 14.1192 11.4231 15.6503 11.5476C17.1784 11.6719 18.7372 11.4112 19.7669 11.1538C19.8083 11.1434 19.8515 11.1424 19.8934 11.1508C23.4523 11.8654 26.8077 14.7626 29.2644 18.4402C31.7247 22.1232 33.3213 26.6439 33.3213 30.6834C33.3213 35.2036 30.1713 39.0463 26.8149 40.1652C24.3812 40.9764 22.5658 40.6178 21.0427 39.5967C19.5656 38.6065 18.3785 37.0004 17.1568 35.3473L17.1132 35.2883C14.6667 31.9783 13.0553 29.6825 11.4187 27.3509C11.1143 26.9172 10.809 26.4823 10.4973 26.0394C10.4364 25.9528 10.4279 25.8398 10.4753 25.7451C10.9055 24.8846 10.9648 23.4669 10.7416 22.0736C10.6313 21.3849 10.4545 20.7186 10.2311 20.152C10.006 19.5806 9.74156 19.1312 9.46725 18.8568C8.90118 18.2908 7.81907 17.8357 6.60386 17.6831C5.3935 17.5312 4.11725 17.6881 3.17082 18.2706C1.22276 19.4693 0.515064 21.21 0.579538 22.8734C0.644658 24.5535 1.49798 26.1553 2.68107 27.0426C5.04953 28.8189 7.47816 27.8022 8.3755 27.204C8.48619 27.1302 8.63303 27.1419 8.73064 27.2323C15.5801 33.5744 17.0299 41.3047 16.077 46.6288C15.9158 48.9348 15.253 51.5069 14.4598 54.2468C14.266 54.9163 14.0644 55.596 13.8599 56.2851C13.223 58.4324 12.5589 60.6711 12.0197 62.9787C10.5965 69.0699 10.0629 75.57 13.223 81.8902C15.3717 86.1875 19.6042 88.742 24.0828 90.2219C28.5577 91.7005 33.2341 92.091 36.1966 92.091C36.3556 92.091 36.4844 92.2198 36.4844 92.3787C36.4844 92.5377 36.3556 92.6665 36.1966 92.6665C33.1944 92.6665 28.4529 92.2721 23.9022 90.7683C19.3552 89.2659 14.9547 86.6404 12.7082 82.1476C9.45918 75.6495 10.0244 68.9888 11.4592 62.8478C12.0026 60.522 12.6736 58.2604 13.3116 56.1098C13.5151 55.4236 13.7153 54.7488 13.907 54.0867C14.7021 51.3399 15.3493 48.8155 15.504 46.5735C15.5047 46.563 15.506 46.5526 15.5078 46.5423C16.4255 41.4439 15.0676 33.9849 8.50055 27.8048C7.38503 28.4666 4.83213 29.3753 2.33574 27.503C1.00738 26.5067 0.0759315 24.7406 0.00442596 22.8957C-0.067725 21.0342 0.736097 19.093 2.86918 17.7804C3.96333 17.1071 5.38461 16.9501 6.67554 17.1121C7.96163 17.2735 9.1846 17.7602 9.87423 18.4499C10.2278 18.8034 10.5278 19.335 10.7666 19.9409C11.0072 20.5515 11.194 21.2587 11.3099 21.9826C11.5277 23.3427 11.5047 24.8224 11.0637 25.8441C11.3427 26.2408 11.6169 26.6315 11.8903 27.021C13.5266 29.3522 15.134 31.6423 17.5761 34.9462L17.5788 34.9499C18.8327 36.6463 19.9695 38.1844 21.3632 39.1187C22.7294 40.0345 24.3576 40.3776 26.6329 39.6191C29.7566 38.5779 32.7458 34.9534 32.7458 30.6834C32.7458 26.7811 31.1973 22.3699 28.7858 18.7599C26.3857 15.1669 23.1681 12.4217 19.8427 11.7279C18.7789 11.9886 17.1853 12.2499 15.6036 12.1213C13.9929 11.9903 12.3444 11.4495 11.3138 10.0325C9.30992 7.27709 9.65247 2.80169 13.2846 0.820525C15.0784 -0.157872 16.5672 -0.165804 17.8163 0.299242C19.0454 0.756857 20.0113 1.66235 20.7882 2.43932C21.7528 3.4039 22.3956 4.39841 22.5748 5.54136C22.7454 6.62905 22.4893 7.80615 21.7733 9.1623C22.8399 10.0199 23.7318 10.6233 24.5676 11.1887C24.6606 11.2516 24.7528 11.314 24.8446 11.3763C25.809 12.0307 26.7139 12.6656 27.7252 13.6171C29.7333 15.5062 32.1418 18.6251 36.3403 25.6131C37.1618 25.7368 38.2694 25.5193 39.4757 24.9975C40.7343 24.4529 42.0641 23.5924 43.2249 22.5132C45.5373 20.3634 47.1135 17.4167 46.2681 14.4199C46.1105 14.2839 45.9439 14.1466 45.7703 14.0036C45.7376 13.9766 45.7046 13.9494 45.6714 13.922C45.4399 13.731 45.1991 13.5302 44.9634 13.3166C44.4925 12.8899 44.032 12.4032 43.6896 11.8155C42.9903 10.6152 42.8212 9.05963 43.8577 6.857C43.8592 6.85395 43.8607 6.85093 43.8622 6.84794C43.8641 6.84417 43.8662 6.84044 43.8683 6.83676C44.3021 6.07762 45.2041 4.86949 46.5288 4.07462C47.8676 3.27131 49.6321 2.89605 51.7369 3.81685C53.2158 4.46388 54.2054 5.31776 54.8211 6.354C55.435 7.38736 55.661 8.57511 55.661 9.86325C55.661 11.1768 55.2352 12.5781 54.3478 13.6563C53.4909 14.6977 52.2116 15.4265 50.5076 15.4842C49.5315 18.8984 47.616 21.7443 46.1142 23.5466C45.3126 24.5085 43.9625 25.7776 42.5419 26.922C41.1902 28.0109 39.7486 29.0079 38.6324 29.5203C38.6186 29.694 38.6032 29.8706 38.5876 30.0493C38.4774 31.3155 38.3576 32.6924 38.6928 33.9633C38.8889 34.7073 39.2405 35.4058 39.8424 36.012C40.4452 36.6191 41.3124 37.1469 42.5594 37.528C46.4991 38.7319 51.5078 37.5307 55.2057 34.8833C57.0443 33.567 58.9924 31.4032 60.3234 28.9499C61.6325 26.5369 62.3234 23.8845 61.7758 21.5035C60.1545 20.6939 59.2215 19.3957 58.9248 17.9458C58.622 16.4663 58.9863 14.8542 59.9087 13.4707C60.8497 12.0591 62.3632 11.3177 63.8587 11.1172C65.3442 10.9179 66.8618 11.2461 67.8293 12.0396C69.0871 12.9835 71.6512 15.0851 70.6574 18.7291C70.2166 20.3454 69.1541 21.2635 68.1248 21.8117C67.612 22.0848 67.1055 22.2674 66.6864 22.4006C66.53 22.4504 66.3834 22.4939 66.2547 22.5322C66.2118 22.5449 66.1709 22.5571 66.1322 22.5687C66.0405 22.5962 65.964 22.6199 65.9016 22.6411C64.4468 27.0967 62.898 31.1978 60.3932 35.2681C59.7286 36.348 59.1262 37.3493 58.7175 38.2445C58.3049 39.1482 58.1149 39.8923 58.2146 40.472C58.3079 41.0145 58.6677 41.4737 59.5332 41.7937C60.4149 42.1195 61.7857 42.2838 63.8143 42.2245C64.8459 42.1944 66.2925 41.9375 67.4476 41.4985C68.0264 41.2785 68.511 41.0206 68.8334 40.7385C69.1557 40.4563 69.2765 40.188 69.2421 39.9302C69.1315 39.1004 69.2187 37.836 69.8633 36.7674C70.521 35.6771 71.7365 34.8295 73.7906 34.8295C75.8652 34.8295 77.2574 35.8874 77.9513 37.2878C78.6377 38.6728 78.6395 40.3878 77.9703 41.7262C77.2915 43.0835 75.9188 43.896 74.4444 44.09C73.021 44.2773 71.4728 43.8935 70.307 42.8383C69.989 42.9388 69.6446 43.0335 69.2901 43.1297C69.2506 43.1404 69.2109 43.1512 69.171 43.162C68.7893 43.2655 68.3957 43.3721 68 43.4928C67.1245 43.7598 66.2614 44.0892 65.5447 44.5785C64.8332 45.0643 64.2703 45.7045 63.9822 46.6C63.6926 47.5 63.6706 48.6885 64.1005 50.2857C65.7922 56.5689 67.2114 62.9373 67.5361 68.7243C67.8606 74.508 67.0945 79.7506 64.3746 83.7504C61.6564 87.7476 57.743 89.7916 54.0151 90.8889C50.9105 91.8026 47.9118 92.0651 45.8291 92.2474C45.5394 92.2727 45.2674 92.2965 45.0153 92.3203C45.2676 93.3644 46.1444 95.0096 48.0925 96.7889C50.2298 98.741 53.6437 100.841 58.8848 102.464C62.2253 103.498 64.0484 105.037 64.802 106.847C65.5532 108.65 65.2076 110.642 64.3938 112.508C63.5785 114.376 62.2757 116.161 61.0405 117.585C59.8051 119.009 58.6232 120.088 58.0346 120.546C56.6194 121.647 54.0631 123.399 51.9215 124.001C50.8592 124.299 49.8055 124.341 49.0603 123.758C48.3086 123.169 47.9871 122.039 48.1535 120.291C48.3112 118.636 48.5082 117.218 48.6799 116.006L48.709 115.801C48.8685 114.677 49.0008 113.744 49.0555 112.961C49.1136 112.127 49.0808 111.496 48.9175 111.006C48.7592 110.532 48.4736 110.175 47.9833 109.895C47.8453 109.816 47.7974 109.64 47.8762 109.502C47.9551 109.364 48.1308 109.316 48.2688 109.395C48.8773 109.743 49.2588 110.21 49.4635 110.824C49.6632 111.424 49.6892 112.146 49.6296 113.001C49.5735 113.806 49.4383 114.758 49.2803 115.872L49.2498 116.087C49.0782 117.298 48.8828 118.705 48.7265 120.346C48.5652 122.04 48.9038 122.904 49.4151 123.305C49.9329 123.71 50.7449 123.734 51.7658 123.447C53.7908 122.877 56.2711 121.188 57.6813 120.092C58.2351 119.661 59.3902 118.609 60.6057 117.207C61.8215 115.806 63.0835 114.072 63.8663 112.278C64.6504 110.48 64.936 108.665 64.2707 107.068C63.6078 105.476 61.9668 104.02 58.7147 103.013C53.4077 101.371 49.915 99.233 47.7044 97.2138C45.5004 95.2008 44.5575 93.2922 44.3879 92.1055C44.3769 92.0279 44.3978 91.9493 44.4461 91.8876C44.4943 91.8259 44.5656 91.7865 44.6434 91.7785C44.9884 91.7431 45.3735 91.7093 45.7929 91.6725C47.8777 91.4897 50.809 91.2325 53.8525 90.3367C57.502 89.2626 61.2799 87.2778 63.8986 83.4267C66.5156 79.5783 67.2829 74.4854 66.9614 68.7565C66.6402 63.0309 65.234 56.7094 63.5448 50.4353C63.0958 48.7675 63.1007 47.4603 63.4343 46.4237C63.7693 45.3827 64.4258 44.6455 65.2202 44.1032C66.0093 43.5644 66.9386 43.2148 67.8321 42.9423C68.237 42.8188 68.6394 42.7098 69.02 42.6066C69.06 42.5958 69.0998 42.585 69.1394 42.5743C69.5573 42.4608 69.9445 42.3539 70.2888 42.2392C70.3908 42.2052 70.5033 42.2309 70.5804 42.3058C71.6186 43.3149 73.047 43.6934 74.3693 43.5194C75.6932 43.3452 76.8784 42.6228 77.4555 41.4688C78.042 40.2957 78.0438 38.7706 77.4356 37.5434C76.8351 36.3315 75.6383 35.405 73.7906 35.405C71.9225 35.405 70.9018 36.1601 70.3561 37.0647C69.7973 37.9912 69.7139 39.1142 69.8126 39.8541C69.8829 40.3811 69.6083 40.825 69.2124 41.1715C68.8166 41.5181 68.2601 41.8054 67.652 42.0365C66.4333 42.4997 64.9229 42.7679 63.8311 42.7998C61.7803 42.8598 60.3204 42.6982 59.3337 42.3335C58.3309 41.9629 57.7845 41.3668 57.6474 40.5696C57.5167 39.8097 57.7719 38.9298 58.1939 38.0055C58.6197 37.0728 59.2411 36.042 59.903 34.9664C62.3965 30.9146 63.9344 26.8243 65.3972 22.3314C65.4228 22.2526 65.4812 22.1887 65.5574 22.156C65.6665 22.1093 65.8115 22.064 65.9667 22.0174C66.0081 22.005 66.0509 21.9923 66.0949 21.9792C66.2225 21.9413 66.3614 21.9 66.512 21.8522C66.9151 21.724 67.3848 21.5537 67.8542 21.3037C68.7893 20.8058 69.715 19.9973 70.1022 18.5776C70.9906 15.32 68.7343 13.4378 67.4788 12.4962C67.4753 12.4936 67.4719 12.4909 67.4686 12.4882C66.6569 11.8197 65.3112 11.5031 63.9352 11.6876C62.5666 11.8712 61.2179 12.5444 60.3875 13.7899C59.5386 15.0634 59.2207 16.5209 59.4887 17.8304C59.7551 19.1326 60.6055 20.3139 62.1471 21.0441C62.225 21.081 62.2822 21.1508 62.3031 21.2344C62.9554 23.8433 62.1978 26.7019 60.8293 29.2243C59.4589 31.7503 57.4538 33.9816 55.5407 35.3512C51.7353 38.0757 46.5428 39.3471 42.3912 38.0784C41.0728 37.6756 40.1167 37.1051 39.4339 36.4175C38.7502 35.7288 38.3541 34.9361 38.1362 34.1101C37.773 32.7327 37.9047 31.2374 38.0158 29.9745C38.0362 29.7431 38.0559 29.5195 38.0717 29.3058C38.0796 29.1986 38.1466 29.1048 38.2453 29.0625C39.3066 28.6077 40.7728 27.608 42.1808 26.4738C43.5856 25.3422 44.9039 24.0998 45.672 23.1781C47.1733 21.3766 49.0833 18.5241 50.0105 15.1244C50.0446 14.9992 50.1584 14.9123 50.2881 14.9123C51.9273 14.9123 53.1176 14.2455 53.9034 13.2906C54.6953 12.3283 55.0854 11.0612 55.0854 9.86325C55.0854 8.63996 54.8706 7.56419 54.3263 6.64797C53.7836 5.73462 52.8975 4.95284 51.5062 4.34414C49.5925 3.50693 48.024 3.84868 46.8249 4.56814C45.6175 5.29265 44.7792 6.40601 44.3736 7.11243C43.4065 9.17343 43.602 10.5219 44.1869 11.5257C44.487 12.0409 44.8993 12.4818 45.3499 12.8901C45.5749 13.094 45.8069 13.2876 46.0377 13.4781C46.0704 13.505 46.103 13.5319 46.1356 13.5588C46.3321 13.7207 46.5275 13.8817 46.7104 14.0417C46.7514 14.0776 46.7814 14.1243 46.7968 14.1765C47.7841 17.5074 46.019 20.7015 43.6168 22.9347C42.4101 24.0565 41.0256 24.954 39.7042 25.5257C38.3914 26.0937 37.1038 26.3558 36.1048 26.156C36.0252 26.1401 35.9561 26.0914 35.9144 26.0219C31.6785 18.962 29.2885 15.878 27.3309 14.0362C26.3539 13.1172 25.4798 12.5029 24.5214 11.8525C24.4299 11.7905 24.3377 11.728 24.2445 11.665C23.3608 11.0672 22.3945 10.4136 21.2244 9.45833C21.1164 9.37022 21.0871 9.21745 21.1548 9.09565C21.9209 7.71673 22.1591 6.60538 22.0062 5.63053C21.8532 4.65441 21.3003 3.76531 20.3813 2.84629C19.6043 2.06937 18.7157 1.24825 17.6154 0.838616Z" fill="#5B5B66"/>
<path fill-rule="evenodd" clip-rule="evenodd" d="M24.5813 140.123C24.7402 140.123 24.869 140.251 24.869 140.41V146.213C25.3482 146.342 25.9727 146.568 26.5285 146.819C26.8534 146.966 27.1631 147.126 27.4114 147.284C27.5355 147.363 27.6491 147.446 27.7432 147.529C27.8342 147.61 27.9229 147.706 27.978 147.816C27.989 147.838 28.0078 147.877 28.0185 147.921C28.0232 147.94 28.0349 147.992 28.0226 148.056C28.0066 148.139 27.9473 148.239 27.8287 148.279C27.7418 148.309 27.6683 148.289 27.6461 148.283C27.6157 148.274 27.5914 148.262 27.5774 148.255C27.5486 148.24 27.521 148.221 27.4999 148.206C27.4615 148.179 27.4121 148.142 27.3586 148.101C27.3512 148.096 27.3437 148.09 27.3362 148.084C27.2715 148.035 27.195 147.977 27.1061 147.913C26.7507 147.657 26.1961 147.301 25.4651 147.038C24.0173 146.519 21.837 146.353 19.0901 148.184C18.3988 148.645 17.9859 149.05 17.7764 149.393C17.5742 149.725 17.568 149.985 17.6636 150.207C17.7678 150.449 18.0153 150.697 18.4269 150.938C18.8338 151.175 19.3705 151.388 20.0033 151.572C22.5421 152.312 26.4302 152.547 28.9558 152.367C31.1324 152.211 32.9086 151.823 34.2104 151.325C35.5301 150.821 36.304 150.226 36.5672 149.7C36.6702 149.494 36.7611 149.121 36.8299 148.624C36.8975 148.137 36.9401 147.561 36.9608 146.969C37.0024 145.782 36.9548 144.562 36.8541 143.907C36.8299 143.75 36.9377 143.603 37.0948 143.579C37.2519 143.555 37.3988 143.663 37.423 143.82C37.5315 144.525 37.5781 145.786 37.536 146.989C37.5149 147.593 37.4711 148.191 37.4 148.703C37.3303 149.207 37.2302 149.661 37.082 149.957C36.7173 150.686 35.7646 151.347 34.4159 151.863C33.0493 152.385 31.2152 152.782 28.9968 152.941C26.4249 153.124 22.4647 152.889 19.8423 152.125C19.1848 151.933 18.5991 151.705 18.1365 151.435C17.6787 151.167 17.3096 150.84 17.1351 150.435C16.952 150.01 17.005 149.553 17.2849 149.094C17.5575 148.647 18.0494 148.186 18.7708 147.705C20.9402 146.259 22.8125 145.976 24.2935 146.167V140.41C24.2935 140.251 24.4223 140.123 24.5813 140.123ZM27.4673 148.082C27.4673 148.082 27.4671 148.082 27.4667 148.081C27.4671 148.082 27.4673 148.082 27.4673 148.082Z" fill="#5B5B66"/>
<path fill-rule="evenodd" clip-rule="evenodd" d="M53.8445 140.123C53.6856 140.123 53.5568 140.251 53.5568 140.41V146.213C53.0776 146.342 52.453 146.568 51.8972 146.819C51.5724 146.966 51.2627 147.126 51.0144 147.284C50.8903 147.363 50.7766 147.446 50.6825 147.529C50.5916 147.61 50.5029 147.706 50.4478 147.816C50.4368 147.838 50.4179 147.877 50.4072 147.921C50.4026 147.94 50.3909 147.992 50.4031 148.056C50.4192 148.139 50.4785 148.239 50.5971 148.279C50.684 148.309 50.7575 148.289 50.7796 148.283C50.8101 148.274 50.8344 148.262 50.8483 148.255C50.8771 148.24 50.9048 148.221 50.9259 148.206C50.9643 148.179 51.0136 148.142 51.0671 148.101C51.0745 148.096 51.082 148.09 51.0896 148.084C51.1543 148.035 51.2308 147.977 51.3197 147.913C51.6751 147.657 52.2297 147.301 52.9607 147.038C54.4085 146.519 56.5888 146.353 59.3357 148.184C60.027 148.645 60.4399 149.05 60.6494 149.393C60.8515 149.725 60.8578 149.985 60.7621 150.207C60.658 150.449 60.4105 150.697 59.9989 150.938C59.592 151.175 59.0553 151.388 58.4225 151.572C55.8837 152.312 51.9955 152.547 49.47 152.367C47.2934 152.211 45.5172 151.823 44.2154 151.325C42.8957 150.821 42.1218 150.226 41.8586 149.7C41.7556 149.494 41.6647 149.121 41.5958 148.624C41.5283 148.137 41.4857 147.561 41.465 146.969C41.4234 145.782 41.4709 144.562 41.5717 143.907C41.5958 143.75 41.4881 143.603 41.331 143.579C41.1739 143.555 41.027 143.663 41.0028 143.82C40.8943 144.525 40.8476 145.786 40.8898 146.989C40.9109 147.593 40.9546 148.191 41.0257 148.703C41.0955 149.207 41.1956 149.661 41.3438 149.957C41.7085 150.686 42.6612 151.347 44.0099 151.863C45.3765 152.385 47.2105 152.782 49.429 152.941C52.0009 153.124 55.961 152.889 58.5835 152.125C59.241 151.933 59.8267 151.705 60.2893 151.435C60.7471 151.167 61.1162 150.84 61.2907 150.435C61.4738 150.01 61.4208 149.553 61.1409 149.094C60.8683 148.647 60.3764 148.186 59.6549 147.705C57.4856 146.259 55.6132 145.976 54.1323 146.167V140.41C54.1323 140.251 54.0035 140.123 53.8445 140.123ZM50.9584 148.082C50.9584 148.082 50.9587 148.082 50.959 148.081C50.9586 148.082 50.9585 148.082 50.9584 148.082Z" fill="#5B5B66"/>
</svg>
