<svg width="93" height="180" viewBox="0 0 93 180" fill="none" xmlns="http://www.w3.org/2000/svg">
    <path fill-rule="evenodd" clip-rule="evenodd" d="M17.3581 17.6876C17.4792 17.8174 17.472 18.0206 17.3421 18.1416C10.954 24.0903 -1.25803 42.9042 1.35797 70.3431C2.99141 87.4761 9.99948 95.958 18.3947 99.4254C26.8217 102.906 36.7396 101.375 44.2462 98.2776C44.3403 98.2388 44.4474 98.2468 44.5347 98.2993C44.622 98.3518 44.6792 98.4425 44.689 98.5438C44.9685 101.448 44.2672 106.271 42.5369 111.111C40.806 115.951 38.0249 120.867 34.0984 123.918C33.9583 124.027 33.7562 124.002 33.6472 123.862C33.5382 123.722 33.5634 123.52 33.7036 123.411C37.4943 120.466 40.2207 115.678 41.9312 110.894C43.5565 106.349 44.2462 101.859 44.082 99.0379C36.5371 102.06 26.6372 103.525 18.1489 100.019C9.47433 96.4362 2.36698 87.7024 0.717771 70.404C-1.91848 42.7526 10.3799 23.7467 16.9036 17.6717C17.0335 17.5507 17.237 17.5579 17.3581 17.6876Z" fill="#5B5B66"/>
    <path fill-rule="evenodd" clip-rule="evenodd" d="M19.1037 122.622C20.3952 119.579 23.3711 117.347 27.4701 117.347C33.8051 117.347 35.9203 124.121 32.3948 127.126C31.6005 127.803 30.5305 128.308 29.4857 128.504C28.45 128.699 27.3698 128.603 26.6212 127.98C26.4848 127.866 26.4663 127.663 26.58 127.527C26.6937 127.391 26.8965 127.373 27.0329 127.486C27.5705 127.934 28.4195 128.051 29.3666 127.873C30.3048 127.696 31.2712 127.24 31.9774 126.638C34.9636 124.092 33.3203 117.99 27.4701 117.99C23.6295 117.99 20.8866 120.067 19.6958 122.873C18.5028 125.684 18.8577 129.252 21.2888 132.241C23.5368 135.005 26.8818 136.83 30.6445 136.949C34.3913 137.068 38.59 135.495 42.5626 131.4C42.8266 130.864 43.1064 130.327 43.3973 129.794C45.2244 126.449 47.5007 123.252 49.0418 121.328C49.1527 121.189 49.3551 121.167 49.4938 121.278C49.6324 121.389 49.6549 121.591 49.544 121.729C48.0213 123.631 45.7675 126.796 43.9618 130.102C43.6676 130.64 43.3857 131.182 43.1211 131.722C43.119 131.726 43.1169 131.731 43.1147 131.735C42.5699 132.847 42.0986 133.952 41.744 135.007C41.2141 136.583 40.9534 138.023 41.0778 139.203C41.0964 139.379 40.9683 139.537 40.7916 139.556C40.615 139.574 40.4568 139.446 40.4382 139.27C40.2999 137.958 40.5918 136.416 41.1343 134.802C41.3321 134.214 41.5643 133.613 41.8237 133.006C38.0992 136.358 34.1949 137.704 30.6242 137.591C26.6607 137.466 23.146 135.543 20.7896 132.646C18.214 129.48 17.8145 125.66 19.1037 122.622Z" fill="#5B5B66"/>
    <path fill-rule="evenodd" clip-rule="evenodd" d="M43.8927 135.165C40.7586 138.138 38.6255 143.664 40.7437 153.268C41.5895 157.102 42.8979 159.566 44.3926 161.037C45.8787 162.499 47.5671 162.999 49.2345 162.879C50.9128 162.757 52.5863 162.004 54.0079 160.929C55.4294 159.854 56.5757 158.475 57.2087 157.135C61.2914 148.489 61.4249 142.597 60.0283 138.731C58.6324 134.866 55.6862 132.963 53.472 132.331C51.2808 131.706 47.0498 132.171 43.8927 135.165ZM43.4499 134.7C46.7761 131.545 51.2441 131.027 53.6486 131.713C56.0302 132.393 59.1568 134.425 60.6332 138.513C62.109 142.598 61.9142 148.675 57.7903 157.409C57.1071 158.856 55.8884 160.313 54.396 161.442C52.9036 162.57 51.1143 163.387 49.281 163.519C47.4367 163.653 45.5646 163.092 43.9413 161.494C42.3267 159.905 40.9769 157.31 40.1157 153.406C37.9665 143.662 40.1008 137.876 43.4499 134.7Z" fill="#5B5B66"/>
    <path fill-rule="evenodd" clip-rule="evenodd" d="M67.7086 96.9469C67.7995 96.7945 67.9969 96.7446 68.1494 96.8354C78.841 103.2 88.0091 115.786 91.4969 129.573C94.9876 143.371 92.7964 158.417 80.6968 169.64C73.7893 176.048 68.4621 179.049 64.5515 179.804C62.5897 180.182 60.9683 179.999 59.6859 179.378C58.4016 178.756 57.4879 177.71 56.9181 176.421C55.7845 173.857 56.0009 170.319 57.33 167.07C58.6621 163.814 61.1346 160.789 64.592 159.273C64.7129 159.22 64.8539 159.246 64.9476 159.339C65.0414 159.432 65.0688 159.573 65.0168 159.694C64.0646 161.913 64.0781 164.662 65.4377 166.641C66.7803 168.595 69.5055 169.894 74.1863 169.088C74.3613 169.058 74.5277 169.175 74.5578 169.35C74.588 169.525 74.4706 169.691 74.2956 169.721C69.4567 170.555 66.4373 169.231 64.9075 167.004C63.5528 165.032 63.4222 162.428 64.1404 160.202C61.2344 161.723 59.1143 164.406 57.9253 167.313C56.6386 170.458 56.4651 173.806 57.5063 176.161C58.0239 177.332 58.8387 178.253 59.9664 178.8C61.0959 179.347 62.57 179.532 64.4294 179.173C68.1612 178.452 73.3796 175.551 80.2592 169.169C92.1476 158.142 94.3209 143.358 90.8734 129.73C87.4231 116.092 78.3507 103.656 67.8202 97.3872C67.6677 97.2964 67.6177 97.0992 67.7086 96.9469Z" fill="#5B5B66"/>
    <path fill-rule="evenodd" clip-rule="evenodd" d="M87.5431 146.179C87.6933 146.273 87.7385 146.472 87.6438 146.622C85.7586 149.613 82.0263 153.738 76.9354 156.425C71.8346 159.116 65.364 160.365 58.0414 157.572C57.8755 157.509 57.7924 157.323 57.8557 157.157C57.9191 156.992 58.1049 156.909 58.2708 156.972C65.3919 159.688 71.6689 158.477 76.635 155.857C81.6108 153.231 85.2645 149.191 87.0996 146.279C87.1942 146.129 87.3928 146.084 87.5431 146.179Z" fill="#5B5B66"/>
    <path fill-rule="evenodd" clip-rule="evenodd" d="M73.047 0.682047C71.6951 0.837873 70.3959 1.45709 69.5847 2.6726C68.9599 3.60877 68.74 4.46338 68.7817 5.21267C68.8234 5.963 69.1291 6.63679 69.6052 7.20756C70.5667 8.36011 72.1976 9.05948 73.5846 9.05948C73.7468 9.05948 73.8836 9.18011 73.9037 9.34085C73.9938 10.0611 73.8569 10.9769 73.5492 12.0098C73.2396 13.0489 72.7491 14.2328 72.1071 15.5C70.8229 18.0347 68.9213 20.9242 66.6095 23.6872C61.9997 29.1966 55.6926 34.2804 49.3266 34.9498C46.7983 35.2157 44.9374 34.9523 43.6049 34.3122C42.2613 33.6668 41.48 32.65 41.1004 31.4744C40.7243 30.3097 40.7459 29.0025 40.9721 27.7575C41.1986 26.5099 41.6345 25.3029 42.1102 24.3246C42.1709 24.1997 42.3051 24.1279 42.4429 24.1467C45.2536 24.5295 48.3121 23.8125 51.0125 22.74C53.709 21.669 56.0149 20.257 57.3067 19.2892C57.3861 19.2297 57.4885 19.2102 57.5842 19.2363C59.3707 19.723 60.7949 19.8739 61.9176 19.6805C63.0239 19.49 63.8482 18.964 64.4539 18.0563C65.0202 17.2079 64.9752 15.7147 64.131 14.5264C63.3093 13.3697 61.718 12.504 59.2002 12.9756C57.1929 13.3516 56.3799 14.2929 56.1105 15.255C55.8304 16.2553 56.112 17.3674 56.4742 18.0908C56.5437 18.2297 56.5038 18.3983 56.3795 18.4915C53.7193 20.4845 49.373 23.1556 42.3689 22.4893C41.6603 22.4218 41.0997 22.2922 40.6759 22.1008C40.25 21.9085 39.9426 21.644 39.7816 21.3004C39.6202 20.9558 39.6292 20.5816 39.7367 20.2169C39.8433 19.8554 40.0513 19.4847 40.3176 19.1194C41.3736 17.6704 43.5362 16.0529 45.1818 15.0119C45.2544 14.9659 45.3424 14.9509 45.4261 14.9702C49.5933 15.9308 52.5243 14.6437 53.9378 12.1726C54.5524 11.0982 54.7582 9.46883 54.007 8.22292C53.2728 7.00525 51.5423 6.0293 48.0154 6.42075C45.1726 6.73629 43.7348 8.21729 43.2831 9.79686C42.823 11.4055 43.3675 13.1477 44.5619 14.0425C44.6526 14.1105 44.7008 14.221 44.6887 14.3336C44.6767 14.4462 44.6062 14.5441 44.5033 14.5914C41.5182 15.9614 38.8216 18.205 36.2943 20.7755C34.4138 22.6882 32.6405 24.7672 30.9149 26.7903C30.3192 27.4887 29.7292 28.1804 29.1424 28.8563C26.8659 31.4788 24.6357 33.866 22.3447 35.4091C20.0446 36.9583 17.6464 37.6804 15.061 36.9056C13.0017 36.2884 11.8551 35.0936 11.4176 33.5421C10.9881 32.019 11.2572 30.2044 11.8949 28.3528C13.1722 24.6444 15.9916 20.6081 18.1912 18.0263C18.2523 17.9546 18.3418 17.9133 18.436 17.9133C23.5 17.9133 25.2415 13.858 24.0572 11.4919C23.6137 10.6058 22.4008 9.91667 20.853 9.8167C19.3244 9.71797 17.5349 10.2044 16.0272 11.585C14.5339 12.9524 14.3043 14.3615 14.6105 15.5035C14.9248 16.6758 15.8109 17.5974 16.5953 17.9402C16.758 18.0113 16.8322 18.2007 16.761 18.3632C16.6898 18.5258 16.5002 18.5999 16.3376 18.5288C15.3712 18.1064 14.3534 17.0277 13.9893 15.6696C13.617 14.2811 13.9346 12.6297 15.5926 11.1114C17.2363 9.60635 19.2004 9.06621 20.8945 9.17563C22.5694 9.28381 24.0483 10.0375 24.6324 11.2046C26.0609 14.0585 23.9169 18.4732 18.586 18.5546C16.424 21.113 13.7246 25.0152 12.503 28.5619C11.8824 30.3638 11.6591 32.0293 12.0366 33.3679C12.4061 34.6782 13.3659 35.7269 15.2458 36.2903C17.5843 36.9911 19.7818 36.3605 21.9852 34.8765C24.1976 33.3863 26.3784 31.0597 28.6566 28.4355C29.2354 27.7687 29.8203 27.0829 30.413 26.3881C32.1426 24.3602 33.9376 22.2557 35.8355 20.3254C38.2618 17.8576 40.8784 15.6503 43.7858 14.221C42.6384 13.0949 42.1905 11.2782 42.6647 9.62038C43.1977 7.7568 44.8785 6.12257 47.9444 5.78227C51.5953 5.37705 53.6397 6.36861 54.5579 7.89147C55.4591 9.3861 55.1946 11.2703 54.4961 12.4913C52.9227 15.242 49.7149 16.576 45.4136 15.626C43.7951 16.6613 41.7945 18.1842 40.8375 19.4975C40.595 19.8303 40.4317 20.1336 40.3536 20.3984C40.2764 20.6601 40.2875 20.8647 40.3641 21.0281C40.441 21.1923 40.6076 21.365 40.9408 21.5155C41.2761 21.6669 41.7598 21.786 42.4299 21.8497C49.0337 22.478 53.1783 20.0534 55.7847 18.1328C55.4356 17.3256 55.1856 16.1735 55.4912 15.0819C55.84 13.836 56.8872 12.7552 59.0817 12.3442C61.8162 11.832 63.6717 12.7698 64.6554 14.1546C65.6166 15.5076 65.7358 17.2936 64.989 18.4127C64.2817 19.4725 63.3005 20.0942 62.0269 20.3136C60.8045 20.5241 59.3243 20.3626 57.5664 19.8967C56.2127 20.8913 53.918 22.2774 51.2501 23.337C48.5734 24.4001 45.4894 25.1472 42.5901 24.8126C42.1749 25.7075 41.8037 26.777 41.6048 27.8722C41.3898 29.0557 41.38 30.2476 41.7124 31.2772C42.0414 32.2959 42.7085 33.1688 43.8836 33.7332C45.0699 34.303 46.798 34.5698 49.2593 34.3109C55.3675 33.6687 61.5344 28.751 66.1161 23.2752C68.4 20.5455 70.2735 17.6965 71.5333 15.2099C72.1633 13.9665 72.6371 12.8191 72.9328 11.8266C73.187 10.9733 73.3038 10.2532 73.2862 9.69275C71.7917 9.60216 70.1328 8.84346 69.1112 7.61882C68.5615 6.9599 68.1901 6.15806 68.1396 5.24831C68.0889 4.33752 68.3613 3.34759 69.0496 2.31625C69.9892 0.908431 71.4802 0.21597 72.9733 0.0438697C74.4605 -0.127549 75.9889 0.211746 77.0456 0.915476C78.0175 1.5627 78.6072 2.35443 78.8916 3.19896C79.1749 4.04048 79.1477 4.91204 78.9243 5.71186C78.5068 7.20682 77.3794 8.52245 76.1726 8.96768C75.4666 13.741 72.9949 19.1196 69.4138 24.079C66.3714 28.2924 62.5166 32.2196 58.2335 35.2298C61.9799 33.9352 66.7078 32.7635 71.0793 32.6206C73.8631 32.5295 76.5283 32.8546 78.7082 33.8527C80.8996 34.856 82.593 36.5372 83.4109 39.1245C83.9886 40.9517 82.8424 42.9572 81.2283 44.0212C80.4097 44.5609 79.4394 44.8838 78.4527 44.8247C77.4584 44.7652 76.4737 44.319 75.6405 43.3678C74.4158 41.9696 74.2328 40.4357 74.5875 39.1367C74.9047 37.975 75.6533 36.9951 76.4654 36.4633C76.1782 35.9295 75.4578 35.5133 74.3107 35.2812C73.0342 35.0228 71.3494 35.0206 69.5241 35.2656C65.8948 35.7526 61.8202 37.2005 59.4181 39.4027C59.0401 40.5285 59.0373 42.661 59.9447 46.1749C60.8675 49.7482 62.718 54.7003 65.995 61.3783C70.1525 69.8506 68.738 77.3426 65.41 83.0774C62.0918 88.7953 56.8678 92.7766 53.3588 94.2788C53.1956 94.3487 53.0066 94.2732 52.9366 94.1101C52.8667 93.9471 52.9423 93.7582 53.1055 93.6884C56.4902 92.2393 61.6065 88.3506 64.8536 82.7553C68.0909 77.1769 69.4667 69.9126 65.4175 61.6611C62.1292 54.9601 60.2594 49.9653 59.322 46.3353C58.3889 42.7219 58.3659 40.4104 58.8388 39.1115C58.8561 39.0638 58.8845 39.021 58.9216 38.9864C61.4514 36.6278 65.7111 35.1291 69.4385 34.6289C71.3062 34.3783 73.0681 34.3742 74.4384 34.6515C75.7805 34.9232 76.8742 35.4942 77.1755 36.5064C77.2191 36.6527 77.1535 36.8095 77.0186 36.8813C76.2824 37.2736 75.5148 38.1816 75.2079 39.3058C74.906 40.4115 75.0513 41.7196 76.1245 42.9448C76.85 43.7731 77.677 44.1347 78.4911 44.1835C79.3127 44.2326 80.1474 43.9641 80.8741 43.4851C82.3508 42.5116 83.2567 40.77 82.7977 39.318C82.0399 36.9209 80.4836 35.3722 78.4403 34.4367C76.3856 33.4959 73.8314 33.1733 71.1003 33.2626C65.6381 33.4413 59.5723 35.2634 55.6537 36.8944C55.4979 36.9593 55.3184 36.8927 55.2427 36.742C55.1669 36.5914 55.2207 36.4078 55.3659 36.3217C60.5749 33.2322 65.3033 28.6736 68.8923 23.7032C72.4832 18.7301 74.9168 13.3682 75.5639 8.68097C75.5814 8.55489 75.6716 8.45097 75.7942 8.41601C76.8109 8.12581 77.909 6.95652 78.3049 5.53922C78.4998 4.84137 78.5176 4.10332 78.282 3.40375C78.0475 2.70719 77.5544 2.02635 76.6889 1.45C75.7761 0.842068 74.4048 0.525541 73.047 0.682047Z" fill="#5B5B66"/>
    <path fill-rule="evenodd" clip-rule="evenodd" d="M80.8761 60.1467C83.6974 62.7057 86.6839 67.4877 88.6628 76.0534C90.355 83.3788 90.3073 90.544 89.0491 96.5851C87.7925 102.619 85.3209 107.564 82.1329 110.413C82.0006 110.531 81.7973 110.52 81.6789 110.388C81.5605 110.256 81.5718 110.052 81.7041 109.934C84.7532 107.209 87.1789 102.411 88.4195 96.4542C89.6585 90.5053 89.7077 83.4339 88.0361 76.1979C86.0758 67.712 83.1372 63.0652 80.4438 60.6223C77.743 58.1728 75.3021 57.9439 74.2897 58.2329C72.8141 58.654 71.868 59.4818 71.3419 60.4969C70.8121 61.519 70.694 62.7594 70.9335 64.0174C71.4147 66.5445 73.3174 69.0414 75.973 69.8217C76.7616 70.0534 77.676 70.0515 78.4607 69.7686C79.2382 69.4883 79.8806 68.9369 80.1729 68.0607C80.2291 67.8924 80.4112 67.8015 80.5797 67.8576C80.7481 67.9137 80.8392 68.0956 80.783 68.2639C80.4189 69.3552 79.6113 70.0367 78.6791 70.3729C77.7541 70.7064 76.6989 70.7046 75.7915 70.438C72.8667 69.5786 70.8202 66.8598 70.3018 64.1375C70.0415 62.7708 70.1609 61.3781 70.7708 60.2015C71.3843 59.0178 72.48 58.0812 74.1131 57.6152C75.3986 57.2483 78.062 57.5944 80.8761 60.1467Z" fill="#5B5B66"/>
    <path fill-rule="evenodd" clip-rule="evenodd" d="M76.4665 70.0368C76.6365 69.9854 76.8159 70.0815 76.8673 70.2513C79.0275 77.3889 77.6801 84.2522 73.8493 88.7421C70.0083 93.2439 63.7115 95.3111 56.0985 92.921C55.9291 92.8678 55.8349 92.6875 55.8882 92.5182C55.9414 92.349 56.1219 92.2549 56.2913 92.3081C63.6839 94.629 69.7031 92.6112 73.3599 88.3253C77.0268 84.0275 78.359 77.4001 76.2517 70.4372C76.2003 70.2674 76.2965 70.0881 76.4665 70.0368Z" fill="#5B5B66"/>
    <path fill-rule="evenodd" clip-rule="evenodd" d="M58.5399 109.941C58.5196 109.824 58.5978 109.713 58.7144 109.693C58.8236 109.674 58.9442 109.697 59.0545 109.73C59.1706 109.766 59.3021 109.821 59.4437 109.891C59.7276 110.032 60.0709 110.242 60.4457 110.504C61.196 111.027 62.089 111.768 62.9089 112.6C63.7273 113.43 64.4825 114.362 64.9472 115.269C65.4084 116.168 65.6082 117.094 65.2221 117.873C64.9091 118.504 64.3679 118.775 63.7322 118.797C63.1129 118.818 62.3984 118.605 61.6825 118.282C60.246 117.633 58.7133 116.496 57.741 115.65C57.6517 115.573 57.6423 115.437 57.72 115.348C57.7977 115.259 57.9331 115.25 58.0224 115.327C58.979 116.16 60.4758 117.267 61.8589 117.892C62.5528 118.205 63.1956 118.387 63.7173 118.369C64.2227 118.352 64.6062 118.15 64.8379 117.683C65.1326 117.089 65.0063 116.323 64.5657 115.464C64.1288 114.611 63.4067 113.715 62.6035 112.9C61.8018 112.087 60.9289 111.363 60.2004 110.855C59.8358 110.6 59.5115 110.403 59.2533 110.275C59.124 110.211 59.0159 110.166 58.9306 110.14C58.8395 110.113 58.7968 110.114 58.7876 110.115C58.671 110.135 58.5601 110.057 58.5399 109.941Z" fill="#5DCB42"/>
    <path fill-rule="evenodd" clip-rule="evenodd" d="M62.3202 106.296C62.4063 106.215 62.5419 106.219 62.6232 106.305C63.1565 106.869 63.8131 107.86 64.0549 109.016C64.2991 110.183 64.1185 111.517 62.9722 112.723C62.8908 112.809 62.7551 112.812 62.6693 112.731C62.5834 112.649 62.5799 112.514 62.6614 112.428C63.6973 111.338 63.855 110.153 63.6353 109.103C63.4134 108.042 62.8042 107.12 62.3117 106.599C62.2304 106.513 62.2342 106.377 62.3202 106.296Z" fill="#5DCB42"/>
    <path fill-rule="evenodd" clip-rule="evenodd" d="M67.26 104.843C67.3682 104.891 67.4171 105.018 67.3693 105.126C67.3653 105.135 67.3552 105.154 67.3399 105.185C66.9279 105.995 62.6931 114.327 69.8597 122.905C69.9356 122.996 69.9234 123.131 69.8326 123.207C69.7418 123.283 69.6066 123.27 69.5308 123.18C65.7271 118.627 65.0577 114.128 65.3586 110.735C65.5089 109.041 65.9007 107.625 66.2619 106.616C66.4426 106.111 66.6158 105.708 66.7475 105.423C66.8134 105.281 66.8688 105.168 66.9096 105.086C66.9273 105.051 66.9423 105.021 66.9539 104.999L66.9586 104.989L66.973 104.961C66.9763 104.954 66.9774 104.952 66.9775 104.952C66.9775 104.952 66.9774 104.952 66.9773 104.952C67.0252 104.844 67.1517 104.795 67.26 104.843Z" fill="#5DCB42"/>
    <path fill-rule="evenodd" clip-rule="evenodd" d="M72.7501 109.165C72.8636 109.199 72.9281 109.318 72.8943 109.431C71.8288 113.001 70.3947 114.754 69.0638 115.662C68.4 116.115 67.7705 116.351 67.2427 116.499C67.0067 116.565 66.7901 116.614 66.6035 116.657C66.5825 116.661 66.5618 116.666 66.5415 116.671C66.3365 116.717 66.1818 116.755 66.0671 116.799C65.9567 116.842 65.8325 116.787 65.7898 116.676C65.7471 116.566 65.802 116.442 65.9125 116.399C66.0615 116.342 66.2479 116.298 66.4462 116.253C66.4666 116.248 66.4874 116.244 66.5083 116.239C66.6955 116.197 66.9016 116.15 67.1264 116.087C67.6235 115.947 68.207 115.727 68.8221 115.308C70.0491 114.471 71.4371 112.814 72.4834 109.309C72.5173 109.195 72.6367 109.131 72.7501 109.165Z" fill="#5DCB42"/>
    <path fill-rule="evenodd" clip-rule="evenodd" d="M70.5038 113.831C70.595 113.755 70.7301 113.768 70.8056 113.859C71.1157 114.234 72.4028 114.992 74.8507 114.364C74.9654 114.335 75.0822 114.404 75.1117 114.518C75.1412 114.633 75.0722 114.75 74.9576 114.779C72.4062 115.434 70.9244 114.675 70.4751 114.132C70.3997 114.041 70.4125 113.906 70.5038 113.831Z" fill="#5DCB42"/>
    <path d="M58.2724 114.935C58.4226 115.323 58.2295 115.759 57.8412 115.909C57.4529 116.059 57.0163 115.866 56.8661 115.478C56.716 115.09 56.909 114.653 57.2974 114.504C57.6857 114.354 58.1223 114.547 58.2724 114.935Z" fill="#5DCB42"/>
    <path d="M58.9675 109.418C59.1177 109.806 58.9246 110.243 58.5363 110.392C58.1479 110.542 57.7114 110.349 57.5612 109.961C57.411 109.573 57.6041 109.137 57.9925 108.987C58.3808 108.837 58.8173 109.03 58.9675 109.418Z" fill="#5DCB42"/>
    <path d="M62.7234 105.546C62.8735 105.934 62.6805 106.37 62.2921 106.52C61.9038 106.67 61.4672 106.477 61.3171 106.089C61.1669 105.701 61.36 105.265 61.7483 105.115C62.1367 104.965 62.5732 105.158 62.7234 105.546Z" fill="#5DCB42"/>
    <path d="M68.27 104.213C68.4202 104.601 68.2271 105.037 67.8388 105.187C67.4504 105.337 67.0139 105.144 66.8637 104.755C66.7135 104.367 66.9066 103.931 67.2949 103.781C67.6833 103.632 68.1198 103.825 68.27 104.213Z" fill="#5DCB42"/>
    <path d="M73.6091 108.612C73.7593 109 73.5662 109.436 73.1779 109.586C72.7895 109.736 72.353 109.542 72.2028 109.154C72.0526 108.766 72.2457 108.33 72.6341 108.18C73.0224 108.031 73.4589 108.224 73.6091 108.612Z" fill="#5DCB42"/>
    <path d="M76.1345 114.096C76.2847 114.484 76.0916 114.92 75.7033 115.07C75.3149 115.22 74.8784 115.027 74.7282 114.639C74.578 114.251 74.7711 113.815 75.1594 113.665C75.5478 113.515 75.9843 113.708 76.1345 114.096Z" fill="#5DCB42"/>
    <path fill-rule="evenodd" clip-rule="evenodd" d="M56.1187 107.54C56.635 110.327 56.4835 112.331 56.2629 115.251C56.2066 115.995 56.1459 116.799 56.0906 117.69C59.1245 119.26 61.8106 121.085 64.2061 124.572C64.3224 124.541 64.4695 124.503 64.6419 124.459C65.095 124.343 65.7238 124.19 66.426 124.036C67.818 123.731 69.542 123.415 70.7538 123.415L75.361 123.417C75.4124 123.288 75.4803 123.118 75.56 122.913C75.7459 122.436 75.9956 121.777 76.2514 121.047C76.7689 119.571 77.291 117.861 77.3864 116.778C77.5066 115.414 77.5067 113.649 77.4757 112.215C77.4602 111.5 77.4372 110.871 77.418 110.421C77.4084 110.196 77.3998 110.016 77.3936 109.892C77.3935 109.891 77.3934 109.89 77.3934 109.889C77.3745 109.873 77.3538 109.856 77.3314 109.838C77.1977 109.728 77.004 109.57 76.7643 109.375C76.2847 108.985 75.6212 108.451 74.8855 107.87C73.4085 106.704 71.659 105.368 70.5187 104.643C68.8468 103.58 67.4805 102.822 66.5343 102.33C66.0613 102.084 65.6933 101.905 65.4446 101.788C65.3802 101.758 65.3238 101.732 65.2756 101.709L56.1187 107.54ZM77.8116 109.678C77.8116 109.678 73.0714 105.759 70.7488 104.282C67.3823 102.142 65.2401 101.224 65.2401 101.224L55.6429 107.335C56.2125 110.212 56.0636 112.187 55.8368 115.193C55.7746 116.018 55.7064 116.921 55.6457 117.942C58.8191 119.561 61.5735 121.396 64.0224 125.065C64.0224 125.065 68.4337 123.843 70.754 123.844L75.6498 123.845C75.6498 123.845 77.6119 119.104 77.8135 116.816C78.0581 114.039 77.8116 109.678 77.8116 109.678Z" fill="#5DCB42"/>
    <path d="M39.4451 63.1592C33.1424 74.7019 19.9681 73.6526 14.1687 71.6851C16.4665 73.6526 28.6124 84.8018 39.4451 85.1297C48.1113 85.392 43.0561 70.592 39.4451 63.1592Z" fill="#5B5B66"/>
    <path fill-rule="evenodd" clip-rule="evenodd" d="M39.4528 62.838C39.5732 62.8408 39.6819 62.9106 39.7344 63.0189C41.546 66.7477 43.729 72.3412 44.3676 76.9863C44.686 79.302 44.6288 81.4362 43.9001 82.989C43.5322 83.7731 42.991 84.4125 42.242 84.844C41.495 85.2744 40.5638 85.4848 39.4354 85.4507C33.9264 85.2839 28.1191 82.3724 23.4296 79.2905C19.2778 76.5619 15.9617 73.6718 14.4574 72.3608C14.2592 72.1881 14.0925 72.0428 13.9595 71.9288C13.8425 71.8287 13.8131 71.6597 13.8894 71.5259C13.9657 71.3922 14.1262 71.3313 14.2721 71.3808C17.1288 72.35 21.8149 73.0951 26.5568 72.1731C31.2871 71.2533 36.0655 68.6778 39.1629 63.0053C39.2205 62.8997 39.3324 62.8351 39.4528 62.838ZM15.5 72.4152C17.1894 73.8761 20.1653 76.3762 23.7831 78.7538C28.4492 81.8203 34.1312 84.6474 39.4549 84.8086C40.493 84.84 41.2997 84.6453 41.9208 84.2875C42.54 83.9308 42.9975 83.3989 43.3179 82.7163C43.9658 81.3355 44.0441 79.3544 43.7305 77.0737C43.1358 72.7482 41.1615 67.54 39.4216 63.8543C36.2119 69.3485 31.4093 71.884 26.6796 72.8037C22.5352 73.6095 18.4415 73.1771 15.5 72.4152Z" fill="#5B5B66"/>
    <path d="M39.445 64.1431C32.3545 74.6364 20.9527 74.1992 16.1382 72.6689C17.123 73.6527 19.2895 75.6202 20.0774 75.6202C28.2183 79.0305 37.6943 72.2317 41.4146 68.406L39.445 64.1431Z" fill="white"/>
    <path fill-rule="evenodd" clip-rule="evenodd" d="M38.1002 55.672C36.2417 55.9649 34.8297 56.9708 34.1068 57.7961C33.9898 57.9296 33.7867 57.9432 33.653 57.8263C33.5194 57.7095 33.5058 57.5066 33.6228 57.3731C34.4318 56.4495 35.9742 55.3567 38 55.0375C40.0398 54.7161 42.5367 55.1841 45.2267 57.3338C45.3653 57.4446 45.3878 57.6467 45.2769 57.7853C45.1659 57.9238 44.9636 57.9462 44.8249 57.8354C42.2626 55.7878 39.945 55.3814 38.1002 55.672Z" fill="#5B5B66"/>
    <path fill-rule="evenodd" clip-rule="evenodd" d="M7.64412 66.6228C10.0886 61.7391 14.1394 61.6087 15.9118 62.1988C16.0802 62.2549 16.1713 62.4368 16.1151 62.6051C16.059 62.7734 15.8769 62.8644 15.7084 62.8083C14.1981 62.3054 10.5019 62.3498 8.21932 66.9101C8.13991 67.0688 7.94676 67.1331 7.78792 67.0538C7.62909 66.9744 7.56471 66.7815 7.64412 66.6228Z" fill="#5B5B66"/>
</svg>
