<svg width="140" height="220" viewBox="0 0 140 220" fill="none" xmlns="http://www.w3.org/2000/svg">
    <path fill-rule="evenodd" clip-rule="evenodd"
        d="M59.1665 2.74476C60.0734 1.60369 61.4183 0.818115 62.8644 0.818115C64.2052 0.818116 65.6069 1.01529 66.714 1.75871C67.8418 2.51607 68.6057 3.79966 68.7429 5.84007C68.8268 7.08703 68.5014 8.22549 67.9595 9.08172C67.5078 9.79533 66.8852 10.3413 66.1974 10.5582C67.0403 13.8114 66.2601 18.7621 64.1826 23.4472C62.0549 28.2454 58.5257 32.8592 53.8311 35.1634C54.2079 39.5054 55.6155 42.9007 57.3994 45.2355C59.2219 47.6208 61.4119 48.8714 63.2845 48.9571C66.9369 49.1242 70.0742 47.3008 72.7068 44.3997C75.341 41.4969 77.4385 37.5463 78.995 33.5516C80.5504 29.5598 81.5564 25.5472 82.0189 22.5389C82.2505 21.0323 82.3435 19.7919 82.3055 18.9378C82.2864 18.5066 82.2347 18.2 82.1655 18.0123C82.136 17.9321 82.1119 17.8932 82.0979 17.8757C81.1913 17.863 80.2682 17.3238 79.5632 16.7136C79.1995 16.3989 78.8777 16.0517 78.6275 15.7166C78.3829 15.389 78.1908 15.052 78.1078 14.7546C77.5823 13.0421 78.2595 10.9795 79.6483 9.61513C81.0586 8.22958 83.228 7.53527 85.6927 8.59753C87.2737 9.27894 88.234 10.249 88.7235 11.3307C89.2107 12.4075 89.2152 13.5585 88.9532 14.5802C88.6919 15.599 88.1602 16.5118 87.5408 17.1258C87.0702 17.5924 86.4844 17.9427 85.9016 17.9394C85.8466 24.7034 84.4479 31.2261 83.3085 36.5401C83.1243 37.3988 82.947 38.226 82.7831 39.0175C82.1806 41.9284 81.7674 44.3288 81.846 46.0686C81.8852 46.9363 82.0459 47.6016 82.3362 48.0753C82.6172 48.534 83.0334 48.8364 83.6516 48.964C84.9827 49.2387 86.6064 49.006 88.3082 48.4457C90.0038 47.8875 91.7429 47.0156 93.2881 46.052C94.8341 45.0879 96.1722 44.0407 97.0695 43.14C97.5197 42.6881 97.8466 42.2853 98.0357 41.9583C98.1302 41.7947 98.1826 41.6633 98.204 41.5637C98.2253 41.4646 98.2114 41.4201 98.2045 41.4055C97.1131 39.1066 97.1936 36.7455 98.3976 35.1473C99.6143 33.5322 101.889 32.8103 104.931 33.6144C106.923 34.1411 107.924 35.5651 108.276 37.1097C108.623 38.6347 108.348 40.2997 107.787 41.413C106.78 43.4081 103.664 44.4317 100.259 43.2508C97.4755 48.1836 94.8894 57.7327 100.435 75.1037C103.74 85.4581 103.754 92.9716 101.95 98.7677C100.145 104.564 96.5376 108.595 92.6993 112.006C89.5858 114.773 82.6736 118.053 73.7007 120.057C64.7142 122.063 53.6158 122.8 42.1058 120.439C35.5926 119.104 31.2798 115.841 28.4939 111.487C25.7162 107.146 24.4703 101.743 24.0331 96.1355C23.5956 90.5253 23.9655 84.6805 24.4422 79.439C24.5733 77.9981 24.7121 76.6052 24.8446 75.2757C25.1957 71.7525 25.5023 68.6754 25.5023 66.3347C25.5023 60.7016 25.3326 55.8826 24.0833 52.3445C23.4618 50.5843 22.5789 49.1604 21.3322 48.1137C20.0872 47.0684 18.4549 46.3789 16.2987 46.1264C15.6936 46.0555 14.9589 45.9837 14.361 45.9653C14.0601 45.956 13.8078 45.9609 13.6285 45.9825C13.5875 45.9875 13.5535 45.993 13.526 45.9984C13.476 46.191 13.3669 46.38 13.2403 46.5502C13.0573 46.7961 12.799 47.0541 12.4839 47.3047C11.8528 47.8065 10.9648 48.3017 9.91362 48.621C7.80128 49.2625 5.01533 49.1951 2.34309 47.0288C-0.164117 44.9964 -0.461216 42.0473 0.523174 39.5534C1.50175 37.0742 3.76929 34.9782 6.48651 34.6109C9.54217 34.1978 11.6479 35.4179 12.972 37.1702C14.1927 38.7858 14.7459 40.8447 14.8148 42.4777C21.8433 42.5262 25.3905 44.0647 28.328 45.3388C28.3966 45.3686 28.465 45.3982 28.5331 45.4277C30.0374 46.0793 31.3639 46.633 32.9443 46.8751C34.5195 47.1164 36.3686 47.0506 38.9018 46.4233C41.3719 45.8117 44.4734 42.6812 44.4734 37.8863C44.4734 30.9165 39.2755 24.3047 33.6914 19.4643C30.9096 17.053 28.0548 15.1014 25.7525 13.787C24.6008 13.1295 23.5931 12.6348 22.8063 12.3218C22.4124 12.1651 22.0807 12.0567 21.8182 11.9954C21.7234 11.9733 21.6426 11.9585 21.5748 11.9493C21.463 12.9679 20.8564 13.7508 20.0119 14.2836C19.0835 14.8692 17.8552 15.165 16.6074 15.182C14.1448 15.2154 11.3637 14.1465 10.6387 11.703C10.0838 9.83284 10.2792 8.08626 11.2442 6.73263C12.2073 5.38171 13.8939 4.48231 16.1996 4.21342C17.6631 4.04274 19.1449 4.83631 20.1708 5.82541C20.6893 6.32523 21.1121 6.89371 21.372 7.45276C21.5734 7.88614 21.6905 8.34451 21.647 8.76961C29.5986 11.613 34.9409 15.5489 39.0995 19.3308C40.704 20.79 42.1353 22.2293 43.4667 23.5681C43.8774 23.9811 44.2786 24.3846 44.6724 24.7761C46.3492 26.443 47.8921 27.8932 49.4953 28.9875C49.6279 29.078 49.9252 29.1871 50.3887 29.2497C50.8404 29.3107 51.4159 29.3229 52.0757 29.2483C53.3942 29.0994 55.0343 28.6059 56.6786 27.4847C59.8974 25.2901 63.1897 20.6478 64.05 11.3138C62.7715 11.6359 61.4794 11.3134 60.4261 10.6023C59.2312 9.79559 58.3203 8.47618 58.0439 6.96924C57.7601 5.42223 58.2579 3.88796 59.1665 2.74476ZM13.4388 46.0236C13.4385 46.0236 13.4403 46.0225 13.445 46.0206C13.4414 46.0227 13.4391 46.0236 13.4388 46.0236ZM82.0844 17.8631C82.0846 17.8626 82.087 17.8638 82.0914 17.8682C82.0865 17.8658 82.0843 17.8636 82.0844 17.8631ZM59.7167 3.17445C58.9139 4.18445 58.4901 5.52112 58.733 6.84504C58.9747 8.16275 59.7751 9.32279 60.8203 10.0284C61.8627 10.7321 63.1252 10.9711 64.314 10.4997C64.4265 10.4551 64.5543 10.4713 64.6519 10.5426C64.7494 10.6139 64.8029 10.7301 64.7932 10.8498C63.9976 20.6719 60.577 25.6694 57.0756 28.0568C55.3302 29.2468 53.5795 29.7772 52.155 29.9382C51.4433 30.0186 50.8091 30.0072 50.2942 29.9377C49.7912 29.8698 49.3649 29.7415 49.0981 29.5594C47.437 28.4255 45.8547 26.9347 44.1765 25.2664C43.7773 24.8696 43.3727 24.4627 42.9599 24.0476C41.6306 22.7109 40.2163 21.2887 38.626 19.8425C34.4673 16.0603 29.1256 12.1342 21.1261 9.32232C20.9463 9.2591 20.8506 9.06479 20.9109 8.88534C21.0022 8.6139 20.9573 8.21985 20.7358 7.74331C20.5185 7.27565 20.1514 6.7752 19.6825 6.32314C18.7338 5.4085 17.4509 4.76659 16.2815 4.90297C14.1112 5.15606 12.633 5.98758 11.8162 7.13333C11.0014 8.27636 10.8018 9.79222 11.3107 11.5071C11.9021 13.5005 14.2552 14.5195 16.5978 14.4877C17.7526 14.472 18.8445 14.197 19.6358 13.6978C20.4181 13.2044 20.8929 12.5051 20.8929 11.605C20.8929 11.4423 21.0069 11.3015 21.1672 11.2662C21.3961 11.2157 21.6826 11.2504 21.9788 11.3196C22.2873 11.3917 22.6543 11.5132 23.0671 11.6774C23.8938 12.0063 24.932 12.5174 26.1021 13.1854C28.4432 14.5219 31.3354 16.4998 34.1525 18.9417C39.7662 23.8078 45.1738 30.5976 45.1738 37.8863C45.1738 42.9661 41.8853 46.4002 39.0716 47.0969C36.4684 47.7415 34.5235 47.8196 32.8374 47.5613C31.1565 47.3038 29.7542 46.7143 28.2526 46.0639C28.1814 46.0331 28.1099 46.002 28.038 45.9709C25.0967 44.6949 21.5833 43.1708 14.472 43.1708C14.2785 43.1708 14.1217 43.0154 14.1217 42.8237C14.1217 41.2635 13.6126 39.1762 12.4114 37.5865C11.2257 36.0172 9.36233 34.9229 6.58115 35.2988C4.16194 35.6258 2.07985 37.5151 1.17544 39.8064C0.276857 42.0829 0.563452 44.6893 2.7865 46.4914C5.2507 48.4889 7.78482 48.5413 9.70845 47.9571C10.6753 47.6635 11.4842 47.2095 12.0456 46.7631C12.3267 46.5395 12.5385 46.3237 12.6766 46.1381C12.8236 45.9405 12.8547 45.8209 12.8547 45.7816C12.8547 45.7277 12.8674 45.6746 12.8917 45.6264C12.9721 45.4669 13.1248 45.3973 13.2115 45.3657C13.3127 45.3289 13.4289 45.3072 13.5438 45.2933C13.7762 45.2652 14.0704 45.2617 14.3828 45.2713C15.0114 45.2906 15.7701 45.3654 16.3808 45.4369C18.6482 45.7024 20.4168 46.4353 21.7849 47.5839C23.1512 48.731 24.0936 50.2721 24.7444 52.1151C26.0396 55.7833 26.2027 60.7228 26.2027 66.3347C26.2027 68.7122 25.8908 71.8427 25.538 75.3821C25.4063 76.7041 25.2688 78.0831 25.1398 79.5013C24.6639 84.7344 24.2986 90.5319 24.7314 96.082C25.1644 101.635 26.3942 106.91 29.0854 111.116C31.7683 115.309 35.9177 118.461 42.2477 119.76C53.6442 122.097 64.6404 121.368 73.5468 119.379C82.4669 117.388 89.2458 114.143 92.2317 111.489C96.029 108.115 99.5302 104.185 101.28 98.563C103.031 92.9405 103.044 85.5774 99.7672 75.3132C94.08 57.4984 96.8418 47.7114 99.798 42.6497C99.8843 42.502 100.066 42.4384 100.227 42.4996C103.558 43.7696 106.351 42.706 107.16 41.1024C107.652 40.1277 107.903 38.626 107.592 37.2627C107.286 35.9189 106.444 34.733 104.75 34.2853C101.891 33.5296 99.9529 34.2432 98.9588 35.5627C97.9519 36.8992 97.8233 38.9719 98.8382 41.1099C98.9304 41.304 98.9308 41.5142 98.889 41.7085C98.8473 41.9024 98.7592 42.1031 98.6434 42.3035C98.4117 42.7042 98.0382 43.1558 97.5679 43.6279C96.6241 44.5753 95.2407 45.6546 93.6611 46.6397C92.0807 47.6252 90.2904 48.5248 88.529 49.1046C86.7738 49.6824 85.0131 49.9542 83.5088 49.6437C82.7093 49.4787 82.1239 49.0662 81.7375 48.4357C81.3604 47.8202 81.1879 47.0219 81.1462 46.0997C81.0631 44.2595 81.4975 41.7744 82.097 38.8779C82.2623 38.0795 82.4406 37.2477 82.6252 36.3862C83.788 30.961 85.2028 24.3598 85.2028 17.5287C85.2028 17.4149 85.2591 17.3082 85.3536 17.2434C85.448 17.1785 85.5685 17.1637 85.676 17.2037C86.0013 17.3246 86.5003 17.1753 87.0456 16.6348C87.5699 16.1151 88.042 15.3152 88.2744 14.4091C88.506 13.5059 88.4941 12.5201 88.0844 11.6149C87.6771 10.7147 86.8602 9.85782 85.4134 9.23425C83.2335 8.29476 81.3657 8.90542 80.1414 10.1083C78.8968 11.331 78.3418 13.1378 78.7791 14.5563C78.7796 14.5582 78.7802 14.56 78.7807 14.5618C78.7812 14.5633 78.7816 14.5649 78.782 14.5664C78.8315 14.7462 78.9677 15.0051 79.1905 15.3035C79.4093 15.5965 79.6964 15.9072 80.0238 16.1906C80.6927 16.7694 81.4675 17.1816 82.1303 17.1816C82.5236 17.1816 82.7262 17.5102 82.8235 17.7741C82.9294 18.0617 82.9851 18.452 83.0053 18.9073C83.0461 19.8261 82.946 21.1169 82.7113 22.6435C82.2412 25.7016 81.222 29.763 79.6484 33.8017C78.0759 37.8376 75.9407 41.8742 73.2275 44.8641C70.5126 47.8558 67.1878 49.8307 63.2522 49.6506C61.1038 49.5523 58.7411 48.1415 56.8411 45.6547C54.9345 43.1595 53.4681 39.5527 53.1134 34.9815C53.1023 34.8383 53.1812 34.7031 53.312 34.6414C57.9104 32.4713 61.4202 27.9513 63.5414 23.1678C65.6673 18.3737 66.3565 13.4121 65.4257 10.4018C65.3954 10.3038 65.4104 10.1975 65.4666 10.1114C65.5228 10.0253 65.6145 9.96832 65.7171 9.9556C66.2799 9.88586 66.8977 9.45289 67.3662 8.71273C67.8291 7.98125 68.1182 6.98825 68.044 5.88626C67.918 4.01176 67.2338 2.9464 66.3211 2.33354C65.3877 1.70673 64.1565 1.51242 62.8644 1.51242C61.6775 1.51242 60.5211 2.16231 59.7167 3.17445Z"
        fill="#5B5B66" />
    <path fill-rule="evenodd" clip-rule="evenodd"
        d="M56.1243 121.445C56.2472 121.297 56.468 121.276 56.6173 121.398C57.076 121.772 57.5103 122.563 57.8642 123.785C58.2232 125.024 58.5151 126.762 58.6466 129.098C58.9096 133.769 58.5329 140.866 56.7398 151.217C54.5042 164.122 54.7266 177.046 60.8264 185.505C66.8915 193.916 78.8829 198.047 100.549 193.101C100.738 193.058 100.926 193.174 100.969 193.361C101.012 193.548 100.895 193.734 100.706 193.777C78.9294 198.749 66.5662 194.659 60.2566 185.909C53.9816 177.207 53.809 164.032 56.0495 151.099C57.8371 140.779 58.2064 133.739 57.9472 129.136C57.8177 126.835 57.5313 125.151 57.191 123.977C56.8456 122.784 56.4592 122.168 56.172 121.934C56.0227 121.812 56.0013 121.593 56.1243 121.445Z"
        fill="#5B5B66" />
    <path fill-rule="evenodd" clip-rule="evenodd"
        d="M65.0337 190.224C65.2251 190.197 65.4025 190.329 65.4299 190.519C65.6948 192.357 66.012 195.45 66.1046 198.374C66.1509 199.836 66.1413 201.263 66.0394 202.474C65.9388 203.669 65.7449 204.706 65.3906 205.35C65.298 205.518 65.0853 205.58 64.9155 205.488C64.7457 205.397 64.6831 205.186 64.7757 205.017C65.0534 204.513 65.2412 203.606 65.3414 202.416C65.4402 201.242 65.4504 199.844 65.4045 198.396C65.3128 195.5 64.9982 192.433 64.7365 190.617C64.7091 190.427 64.8422 190.251 65.0337 190.224Z"
        fill="#5B5B66" />
    <path fill-rule="evenodd" clip-rule="evenodd"
        d="M95.9664 194.405C96.0099 194.591 95.8924 194.778 95.7039 194.821C95.4516 194.879 95.1663 195.15 94.8921 195.788C94.6269 196.405 94.4143 197.268 94.243 198.315C93.9011 200.405 93.7371 203.142 93.6054 205.918C93.5804 206.444 93.5565 206.971 93.5329 207.496C93.4321 209.727 93.3339 211.903 93.1598 213.675C93.0523 214.769 92.9145 215.726 92.7246 216.457C92.6297 216.822 92.5185 217.144 92.3845 217.403C92.2534 217.656 92.0816 217.885 91.8458 218.015C91.5004 218.205 90.9203 218.376 90.1924 218.534C89.4525 218.694 88.5227 218.848 87.4517 218.989C85.309 219.272 82.584 219.509 79.6478 219.657C73.7819 219.951 67.0372 219.887 62.3911 219.097C60.0649 218.702 58.0146 218.095 56.4148 217.314C54.8238 216.538 53.633 215.568 53.0985 214.423C52.5485 213.245 52.7256 211.954 53.7096 210.647C54.6808 209.358 56.4485 208.031 59.1341 206.7C62.8831 204.842 66.2302 204.544 68.8351 205.038C71.424 205.529 73.3078 206.811 74.0759 208.143C74.1719 208.31 74.1135 208.522 73.9456 208.617C73.7777 208.712 73.5637 208.654 73.4678 208.488C72.8317 207.384 71.161 206.186 68.7035 205.72C66.2619 205.257 63.0705 205.525 59.4474 207.321C56.8017 208.632 55.1468 209.899 54.2709 211.063C53.4078 212.209 53.3134 213.23 53.7342 214.132C54.1704 215.066 55.1927 215.944 56.7241 216.691C58.2466 217.434 60.2279 218.025 62.5094 218.413C67.0785 219.189 73.7618 219.256 79.6124 218.963C82.5345 218.817 85.2399 218.581 87.3592 218.301C88.4193 218.161 89.3285 218.011 90.0428 217.856C90.7692 217.698 91.2587 217.544 91.5057 217.408C91.5661 217.374 91.6577 217.286 91.7615 217.085C91.8625 216.89 91.9581 216.623 92.0463 216.284C92.2225 215.606 92.3562 214.691 92.4627 213.608C92.6348 211.855 92.732 209.704 92.8327 207.474C92.8565 206.947 92.8805 206.416 92.9057 205.885C93.0372 203.114 93.2024 200.338 93.5516 198.203C93.7259 197.138 93.9494 196.21 94.2478 195.516C94.5371 194.843 94.943 194.282 95.5464 194.144C95.7349 194.101 95.9229 194.218 95.9664 194.405Z"
        fill="#5B5B66" />
    <path fill-rule="evenodd" clip-rule="evenodd"
        d="M126.121 180.306C126.313 180.281 126.489 180.415 126.514 180.605C127.045 184.607 126.869 188.036 126.38 190.67C125.893 193.286 125.089 195.163 124.322 196.018C120.659 200.104 114.359 199.799 108.709 197.878C105.864 196.911 103.14 195.521 100.92 194.019C98.7074 192.524 96.9621 190.895 96.1115 189.437C96.0147 189.271 96.072 189.058 96.2394 188.962C96.4069 188.866 96.6211 188.923 96.7179 189.089C97.491 190.415 99.1355 191.973 101.314 193.446C103.485 194.913 106.153 196.275 108.936 197.221C114.542 199.128 120.441 199.302 123.799 195.557C124.436 194.846 125.212 193.122 125.691 190.544C126.167 187.984 126.342 184.628 125.82 180.695C125.794 180.505 125.929 180.331 126.121 180.306Z"
        fill="#5B5B66" />
    <path fill-rule="evenodd" clip-rule="evenodd"
        d="M117.656 163.912C119.613 162.713 122.589 162.562 126.611 164.954C131.028 167.581 135.546 172.992 138.037 178.332C139.283 181.003 140.037 183.688 139.999 186.023C139.96 188.369 139.119 190.389 137.151 191.643C134.758 193.168 132.184 192.737 130.155 191.796C129.138 191.325 128.243 190.72 127.552 190.15C126.867 189.585 126.357 189.034 126.13 188.659C126.031 188.494 126.084 188.281 126.25 188.182C126.416 188.084 126.631 188.137 126.731 188.301C126.898 188.579 127.339 189.071 128 189.616C128.653 190.155 129.497 190.725 130.451 191.167C132.364 192.053 134.661 192.405 136.773 191.059C138.492 189.964 139.263 188.193 139.298 186.012C139.334 183.82 138.623 181.243 137.401 178.623C134.955 173.38 130.521 168.09 126.25 165.549C122.372 163.243 119.688 163.483 118.025 164.503C116.326 165.544 115.602 167.44 115.721 168.61C115.74 168.801 115.599 168.971 115.407 168.99C115.214 169.009 115.043 168.87 115.024 168.679C114.878 167.239 115.735 165.09 117.656 163.912Z"
        fill="#5B5B66" />
    <path fill-rule="evenodd" clip-rule="evenodd"
        d="M100.071 147.835C100.178 147.675 100.395 147.63 100.556 147.736C105.23 150.78 109.081 155.749 112.089 160.969C115.099 166.193 117.28 171.698 118.602 175.848C118.66 176.031 118.558 176.226 118.374 176.283C118.189 176.341 117.992 176.24 117.934 176.057C116.623 171.942 114.46 166.485 111.48 161.313C108.498 156.136 104.713 151.274 100.172 148.316C100.01 148.211 99.9653 147.995 100.071 147.835Z"
        fill="#5B5B66" />
    <path fill-rule="evenodd" clip-rule="evenodd"
        d="M121.658 118.385C120.766 118.833 119.923 119.456 119.309 120.081C115.83 123.618 107.066 129.727 92.2418 131.406C84.7999 132.249 80.1666 130.542 77.4159 127.994C74.6737 125.453 73.8571 122.125 73.9481 119.825C73.9557 119.633 74.1185 119.484 74.3118 119.492C74.5051 119.499 74.6556 119.661 74.648 119.852C74.5635 121.989 75.3267 125.108 77.8942 127.487C80.4532 129.858 84.8597 131.544 92.1622 130.716C106.826 129.055 115.441 123.019 118.807 119.596C119.476 118.916 120.381 118.247 121.342 117.765C122.297 117.286 123.345 116.973 124.289 117.052C125.263 117.134 126.106 117.635 126.582 118.716C127.044 119.765 127.148 121.332 126.776 123.55C125.84 129.112 122.444 135.235 118.245 140.414C114.046 145.591 109.001 149.879 104.717 151.737C104.54 151.814 104.333 151.734 104.256 151.558C104.178 151.382 104.259 151.178 104.436 151.101C108.578 149.305 113.538 145.11 117.699 139.979C121.859 134.848 125.177 128.835 126.085 123.435C126.449 121.268 126.322 119.86 125.94 118.994C125.573 118.16 124.963 117.806 124.23 117.744C123.468 117.68 122.557 117.934 121.658 118.385Z"
        fill="#5B5B66" />
    <path fill-rule="evenodd" clip-rule="evenodd"
        d="M21.1921 127.003C25.5325 125.64 31.6508 126.159 38.1822 131.312C48.3756 139.354 55.7458 135.897 57.9773 133.439C58.1067 133.296 58.3282 133.285 58.4719 133.413C58.6157 133.541 58.6273 133.761 58.4979 133.903C55.9902 136.666 48.1947 140.099 37.746 131.855C31.376 126.829 25.4971 126.379 21.4035 127.664C19.3496 128.309 17.7447 129.39 16.7406 130.552C15.7266 131.724 15.3688 132.92 15.6552 133.829C15.9682 134.821 16.4112 135.441 16.912 135.833C17.414 136.226 18.0043 136.414 18.6535 136.491C19.3081 136.568 20.0013 136.53 20.704 136.485C20.7422 136.483 20.7805 136.48 20.8188 136.478C21.4705 136.436 22.1368 136.393 22.7318 136.458C23.0914 136.498 23.5087 136.655 23.9532 136.885C24.4033 137.118 24.9061 137.438 25.4423 137.827C26.5149 138.604 27.7412 139.671 28.9756 140.905C31.4409 143.37 33.9708 146.533 35.3834 149.441C37.7713 154.357 40.5601 157.492 43.7645 159.34C46.9683 161.188 50.6258 161.77 54.793 161.512C54.986 161.5 55.1523 161.646 55.1644 161.837C55.1764 162.028 55.0297 162.193 54.8367 162.205C50.5785 162.469 46.7712 161.877 43.4123 159.94C40.0538 158.004 37.1819 154.744 34.7524 149.742C33.3858 146.929 30.9131 143.828 28.4783 141.394C27.2626 140.179 26.0643 139.138 25.0288 138.387C24.5109 138.012 24.0387 137.712 23.6292 137.501C23.2141 137.286 22.8872 137.174 22.6544 137.148C22.123 137.09 21.5142 137.129 20.8392 137.172C20.8093 137.174 20.7794 137.176 20.7492 137.178C20.0533 137.223 19.2983 137.266 18.5707 137.18C17.8375 137.094 17.1114 136.874 16.4779 136.378C15.8433 135.881 15.3319 135.131 14.9866 134.036C14.5974 132.801 15.1196 131.36 16.2087 130.1C17.3077 128.829 19.029 127.682 21.1921 127.003Z"
        fill="#5B5B66" />
    <path fill-rule="evenodd" clip-rule="evenodd"
        d="M62.5399 155.423C62.5416 155.295 62.6474 155.193 62.7761 155.195C62.915 155.197 63.0634 155.254 63.2034 155.326C63.3492 155.402 63.5121 155.509 63.6866 155.64C64.0362 155.902 64.4505 156.275 64.8959 156.727C65.7875 157.631 66.8193 158.867 67.7276 160.209C68.6348 161.549 69.4271 163.007 69.8289 164.354C70.2282 165.692 70.2579 166.979 69.5473 167.915C68.973 168.672 68.187 168.896 67.3295 168.764C66.4896 168.636 65.5745 168.168 64.6789 167.544C62.8832 166.294 61.0778 164.355 59.9638 162.954C59.8839 162.854 59.9009 162.708 60.0019 162.629C60.1028 162.55 60.2494 162.567 60.3293 162.668C61.4293 164.051 63.2022 165.951 64.9457 167.165C65.8197 167.774 66.6645 168.194 67.3993 168.307C68.1165 168.417 68.7201 168.235 69.1747 167.636C69.7504 166.877 69.7673 165.776 69.3819 164.484C68.999 163.201 68.2349 161.787 67.341 160.467C66.4483 159.148 65.4346 157.934 64.5633 157.05C64.1273 156.608 63.7308 156.253 63.4062 156.009C63.2437 155.887 63.1036 155.796 62.9888 155.737C62.8683 155.674 62.7985 155.659 62.7699 155.658C62.6411 155.656 62.5382 155.551 62.5399 155.423Z"
        fill="#5DCB42" />
    <path fill-rule="evenodd" clip-rule="evenodd"
        d="M68.6423 151.487C68.7504 151.418 68.8946 151.449 68.9643 151.557C69.5454 152.455 70.1856 153.963 70.22 155.585C70.2547 157.219 69.6725 158.968 67.8121 160.301C67.7078 160.375 67.5622 160.352 67.4868 160.248C67.4113 160.144 67.4347 160 67.5389 159.925C69.2583 158.694 69.7862 157.098 69.7542 155.593C69.722 154.076 69.1187 152.65 68.5726 151.806C68.5029 151.699 68.5341 151.556 68.6423 151.487Z"
        fill="#5DCB42" />
    <path fill-rule="evenodd" clip-rule="evenodd"
        d="M75.7113 150.774C75.8173 150.846 75.8443 150.991 75.7715 151.096C75.7595 151.113 75.7247 151.154 75.6704 151.218C75.1678 151.813 72.9954 154.381 71.7482 158.374C70.3704 162.785 70.1288 168.931 74.6126 176.012C74.6812 176.121 74.6486 176.264 74.5399 176.331C74.4311 176.399 74.2873 176.367 74.2187 176.258C69.6545 169.05 69.8898 162.762 71.3034 158.236C72.0091 155.976 73.007 154.16 73.8416 152.889C74.259 152.253 74.6359 151.754 74.9155 151.403C75.0552 151.227 75.1705 151.089 75.2541 150.991C75.2787 150.962 75.2977 150.939 75.3145 150.919C75.3285 150.903 75.3409 150.888 75.3536 150.873C75.3722 150.851 75.3816 150.84 75.3855 150.835C75.3875 150.833 75.388 150.832 75.3876 150.833C75.4603 150.727 75.6053 150.701 75.7113 150.774Z"
        fill="#5DCB42" />
    <path fill-rule="evenodd" clip-rule="evenodd"
        d="M82.1491 158.072C82.2637 158.131 82.3088 158.271 82.2499 158.384C79.8747 162.968 77.4652 164.976 75.423 165.862C74.4037 166.305 73.4866 166.463 72.7288 166.528C72.3897 166.557 72.0814 166.568 71.8144 166.578C71.7843 166.579 71.7547 166.58 71.7256 166.581C71.4333 166.592 71.2064 166.603 71.032 166.634C70.9053 166.657 70.7834 166.574 70.7599 166.448C70.7363 166.322 70.8199 166.201 70.9466 166.178C71.1603 166.139 71.4225 166.128 71.7073 166.118C71.7366 166.116 71.7662 166.115 71.7962 166.114C72.0639 166.105 72.3605 166.094 72.687 166.066C73.4102 166.004 74.2748 165.854 75.2352 165.437C77.1521 164.605 79.493 162.69 81.8348 158.171C81.8937 158.057 82.0344 158.013 82.1491 158.072Z"
        fill="#5DCB42" />
    <path fill-rule="evenodd" clip-rule="evenodd"
        d="M77.9268 163.845C78.0396 163.784 78.1816 163.825 78.244 163.937C78.5896 164.558 80.1906 165.929 83.7281 165.704C83.8567 165.696 83.9679 165.793 83.9765 165.921C83.9851 166.049 83.8878 166.159 83.7593 166.167C80.1057 166.399 78.2965 164.988 77.8357 164.16C77.7733 164.048 77.8141 163.907 77.9268 163.845Z"
        fill="#5DCB42" />
    <path
        d="M60.8184 162.163C60.9247 162.731 60.5478 163.275 59.9765 163.379C59.4053 163.483 58.856 163.107 58.7497 162.539C58.6434 161.972 59.0203 161.427 59.5916 161.323C60.1629 161.219 60.7121 161.595 60.8184 162.163Z"
        fill="#5DCB42" />
    <path
        d="M63.201 154.827C63.3073 155.394 62.9304 155.939 62.3591 156.043C61.7879 156.147 61.2386 155.771 61.1323 155.203C61.026 154.635 61.4029 154.091 61.9742 153.987C62.5454 153.883 63.0947 154.259 63.201 154.827Z"
        fill="#5DCB42" />
    <path
        d="M69.3593 150.515C69.4656 151.083 69.0887 151.627 68.5174 151.731C67.9462 151.835 67.3969 151.459 67.2906 150.891C67.1843 150.324 67.5612 149.779 68.1325 149.675C68.7038 149.571 69.253 149.947 69.3593 150.515Z"
        fill="#5DCB42" />
    <path
        d="M77.3179 150.121C77.4242 150.689 77.0473 151.233 76.4761 151.337C75.9048 151.441 75.3555 151.065 75.2492 150.497C75.1429 149.929 75.5199 149.385 76.0911 149.281C76.6624 149.177 77.2116 149.553 77.3179 150.121Z"
        fill="#5DCB42" />
    <path
        d="M83.5078 157.481C83.6141 158.049 83.2371 158.593 82.6659 158.697C82.0946 158.801 81.5454 158.425 81.4391 157.858C81.3328 157.29 81.7097 156.745 82.2809 156.641C82.8522 156.537 83.4015 156.913 83.5078 157.481Z"
        fill="#5DCB42" />
    <path
        d="M85.5548 165.6C85.6611 166.167 85.2841 166.712 84.7129 166.816C84.1416 166.92 83.5923 166.544 83.486 165.976C83.3798 165.408 83.7567 164.864 84.3279 164.76C84.8992 164.656 85.4485 165.032 85.5548 165.6Z"
        fill="#5DCB42" />
    <path fill-rule="evenodd" clip-rule="evenodd"
        d="M59.8007 148.27C59.8007 148.27 65.2601 148.459 68.75 148.283C72.397 148.099 78.0474 147.308 78.0474 147.308L88.996 160.031L83.6681 175.523L68.7952 178.818C68.7952 178.818 64.8421 175.495 61.1507 171.238C58.9169 168.662 56.4021 163.924 56.4021 163.924L59.8007 148.27ZM60.1754 148.745C60.3162 148.749 60.492 148.754 60.6972 148.76C61.265 148.775 62.0585 148.793 62.9614 148.805C64.7644 148.831 67.0142 148.834 68.7751 148.745C70.6151 148.653 72.9525 148.407 74.8229 148.186C75.7596 148.075 76.582 147.97 77.1702 147.893C77.4625 147.855 77.697 147.823 77.8592 147.801L88.4684 160.13L83.3105 175.127L68.921 178.315C68.8072 178.217 68.6407 178.073 68.4297 177.887C68.0045 177.512 67.3987 176.966 66.6779 176.289C65.2355 174.933 63.3364 173.05 61.5043 170.937C60.415 169.681 59.2447 167.881 58.3392 166.379C57.8885 165.631 57.5069 164.962 57.2381 164.481C57.1037 164.241 56.9976 164.047 56.9253 163.914C56.9142 163.894 56.9039 163.875 56.8944 163.857L60.1754 148.745Z"
        fill="#5DCB42" />
    <path fill-rule="evenodd" clip-rule="evenodd"
        d="M15.3509 118.688C14.5585 120.714 13.2216 122.683 11.3115 124.036C11.1541 124.147 10.9354 124.111 10.8229 123.955C10.7105 123.799 10.747 123.582 10.9044 123.471C12.6803 122.214 13.9434 120.366 14.6979 118.437C15.4534 116.504 15.687 114.521 15.4358 113.011C15.1814 111.483 14.4693 110.578 13.4447 110.482C12.9077 110.432 12.2244 110.591 11.385 111.076C10.5467 111.56 9.57385 112.357 8.46955 113.549C8.3402 113.688 8.12188 113.699 7.97901 113.573C6.8411 112.57 5.6684 112.126 4.73946 112.115C3.81814 112.104 3.16398 112.51 2.91348 113.202C2.65252 113.924 2.78391 115.073 3.73446 116.62C4.67937 118.157 6.40472 120.035 9.21476 122.173C9.3682 122.29 9.39713 122.508 9.27937 122.66C9.16161 122.812 8.94177 122.841 8.78833 122.724C5.93759 120.555 4.1414 118.616 3.13631 116.981C2.13687 115.355 1.88978 113.976 2.25415 112.968C2.62898 111.932 3.60395 111.407 4.74782 111.421C5.80442 111.433 7.02731 111.897 8.18397 112.834C9.22683 111.742 10.1766 110.97 11.0324 110.476C11.9496 109.946 12.7803 109.723 13.5104 109.791C15.02 109.932 15.8547 111.262 16.1269 112.898C16.4023 114.554 16.1422 116.664 15.3509 118.688Z"
        fill="#5B5B66" />
    <path fill-rule="evenodd" clip-rule="evenodd"
        d="M47.4878 93.447C48.3235 93.7593 49.1835 94.3144 49.8198 95.0854C49.9423 95.2337 49.9203 95.4525 49.7706 95.5739C49.6209 95.6953 49.4002 95.6734 49.2778 95.525C48.7293 94.8605 47.9766 94.3717 47.2407 94.0967C46.491 93.8166 45.8239 93.7812 45.4296 93.9325C45.2441 94.0037 45.1358 94.1082 45.0816 94.2363C45.0249 94.3704 45.0053 94.5836 45.107 94.9089C45.3141 95.5716 45.9834 96.5648 47.421 97.925C47.4995 97.9993 47.5388 98.1056 47.5274 98.2126C47.516 98.3196 47.4552 98.4154 47.3627 98.4718C46.579 98.9498 46.0138 99.6875 45.6877 100.456C45.3584 101.231 45.2899 101.996 45.4421 102.517C45.5169 102.773 45.6388 102.951 45.7883 103.059C45.9334 103.164 46.1383 103.226 46.4329 103.19C47.0483 103.115 47.9978 102.616 49.3012 101.324C49.4379 101.188 49.6597 101.188 49.7964 101.324C49.9332 101.459 49.9332 101.679 49.7964 101.815C48.4668 103.133 47.3758 103.775 46.5184 103.879C46.0766 103.933 45.687 103.845 45.3765 103.621C45.0704 103.4 44.8755 103.073 44.7693 102.71C44.5594 101.991 44.6719 101.058 45.0421 100.187C45.364 99.4282 45.8938 98.6833 46.6289 98.1297C45.3678 96.8887 44.6807 95.8912 44.4379 95.1143C44.3051 94.6893 44.2958 94.2989 44.4356 93.9681C44.5778 93.6313 44.8521 93.4096 45.1767 93.285C45.8027 93.0448 46.666 93.1399 47.4878 93.447Z"
        fill="#5B5B66" />
    <path fill-rule="evenodd" clip-rule="evenodd"
        d="M36.4643 84.2148C34.9365 85.0708 33.9686 86.5245 33.5514 87.5998C33.482 87.7787 33.2794 87.868 33.0989 87.7992C32.9183 87.7304 32.8283 87.5295 32.8977 87.3505C33.3581 86.1638 34.4176 84.564 36.1196 83.6104C37.8433 82.6446 40.1812 82.3676 43.1183 83.7695C43.2926 83.8526 43.3659 84.0601 43.282 84.2328C43.198 84.4056 42.9888 84.4782 42.8145 84.395C40.0645 83.0825 37.9703 83.371 36.4643 84.2148Z"
        fill="#5B5B66" />
    <path fill-rule="evenodd" clip-rule="evenodd"
        d="M65.9532 80.1897C64.4254 81.0456 63.4575 82.4994 63.0403 83.5746C62.9709 83.7536 62.7683 83.8429 62.5877 83.774C62.4072 83.7052 62.3172 83.5043 62.3866 83.3254C62.847 82.1387 63.9065 80.5388 65.6085 79.5852C67.3322 78.6195 69.67 78.3425 72.6072 79.7443C72.7815 79.8275 72.8548 80.0349 72.7708 80.2077C72.6869 80.3804 72.4776 80.4531 72.3034 80.3699C69.5534 79.0574 67.4592 79.3459 65.9532 80.1897Z"
        fill="#5B5B66" />
</svg>