<svg width="121" height="246" viewBox="0 0 121 246" fill="none" xmlns="http://www.w3.org/2000/svg">
    <path fill-rule="evenodd" clip-rule="evenodd" d="M49.4184 0.299023C50.7629 -0.205152 52.4564 -0.106744 54.3962 0.863153C55.9557 1.64292 56.8589 2.63988 57.2478 3.73114C57.6354 4.81903 57.4906 5.94085 57.0718 6.93221C56.6537 7.92169 55.9546 8.80371 55.1895 9.44049C54.5629 9.96201 53.8553 10.3487 53.1895 10.465C53.6034 18.3474 52.6989 23.6615 51.3688 27.1129C50.142 30.2963 48.5307 31.944 47.2187 32.4981C48.2578 35.8368 50.5429 38.1802 52.8709 38.4716C54.0571 38.6201 55.3025 38.2467 56.473 37.1337C57.6524 36.0121 58.7579 34.1347 59.6094 31.2867C60.2679 29.0838 60.3601 27.1167 60.455 25.0913C60.4705 24.7606 60.4861 24.4284 60.5042 24.0934C60.6303 21.7598 60.8817 19.3291 62.1338 16.4698C61.4327 15.2268 61.1086 13.3502 61.5857 11.7356C61.8387 10.8792 62.3212 10.0844 63.1044 9.50567C63.8879 8.92677 64.9425 8.58618 66.3014 8.58618C69.195 8.58618 71.9097 11.4019 70.9854 15.0996C70.5097 17.0026 69.0723 17.9206 67.6467 18.2546C66.9364 18.4209 66.2188 18.4464 65.5998 18.3792C65.1837 18.334 64.793 18.2449 64.4723 18.1163C63.2498 20.9584 63.2997 24.3343 63.8986 27.4516C64.5219 30.6951 65.7292 33.6042 66.6357 35.236C67.6785 37.113 69.0328 38.3422 70.6033 39.0098C72.1768 39.6787 73.9996 39.7973 75.9984 39.3957C80.0074 38.59 84.6672 35.7004 89.2419 31.1258C94.97 25.3977 95.4178 19.9277 95.4527 18.4598C93.2765 17.8162 91.8541 16.44 91.1169 14.7863C90.3521 13.0708 90.3333 11.0779 90.9344 9.32681C91.536 7.5744 92.7688 6.03638 94.5375 5.26131C96.3137 4.48297 98.5745 4.49821 101.179 5.7485C103.068 6.6552 104.135 8.01476 104.567 9.53345C104.995 11.0399 104.788 12.665 104.208 14.1074C103.627 15.5494 102.661 16.8402 101.524 17.6818C100.566 18.3915 99.4558 18.8015 98.348 18.6665C98.3499 18.9154 98.319 19.2153 98.2631 19.5524C98.1447 20.2666 97.9049 21.2016 97.5669 22.2834C96.89 24.4501 95.8065 27.2456 94.4648 30.1203C91.3422 36.8109 91.7154 42.225 93.4903 45.9467C95.2767 49.6923 98.4675 51.7161 101.014 51.7161C105.38 51.7161 108.253 51.6059 110.311 49.4663C108.538 46.5164 109.301 43.6238 111.178 41.8974C113.094 40.1351 116.168 39.5953 118.774 41.4351C120.222 42.4571 120.967 44.4542 120.999 46.3732C121.031 48.2922 120.352 50.2908 118.754 51.2743C117.242 52.2048 115.862 52.4142 114.63 52.2799C113.555 52.1627 112.605 51.7843 111.806 51.4346C111.647 51.6646 111.446 51.893 111.222 52.1372C111.133 52.2341 111.039 52.3347 110.941 52.4407C110.667 52.7343 110.354 53.0696 109.996 53.486C109.03 54.6105 107.753 56.3119 106.24 59.1779C103.568 64.2401 103.695 70.0296 104.591 76.4501C104.873 78.4639 105.231 80.5429 105.598 82.6764C106.395 87.3057 107.237 92.1916 107.434 97.2263C107.722 104.576 107.15 110.039 105.245 114.325C103.332 118.629 100.096 121.704 95.1545 124.32C92.0031 125.988 86.775 127.408 80.5926 128.337C74.4001 129.268 67.2146 129.712 60.1276 129.409C53.0431 129.106 46.0395 128.057 40.2193 125.992C34.4056 123.929 29.72 120.832 27.3554 116.399C23.331 108.853 23.4841 101.929 24.3725 95.061C24.5635 93.5849 24.7875 92.1145 25.0117 90.6423C25.8338 85.2455 26.6597 79.8237 25.8761 74.0021C24.325 62.48 15.6906 58.0092 10.9702 57.3993C10.1309 59.2546 8.34928 60.2328 6.44652 60.2639C4.45303 60.2966 2.31932 59.2955 0.921471 57.1988C-0.734534 54.7148 -0.293631 50.9317 3.35311 48.8895C5.2384 47.8338 7.76431 48.2447 9.60167 49.3966C11.3628 50.5007 12.6408 52.3915 12.0437 54.5246C14.2294 55.9143 18.3628 57.6976 22.5922 57.8366C24.7811 57.9086 26.9788 57.5397 28.9454 56.4649C30.9076 55.3924 32.6655 53.6032 33.9586 50.7889C36.3484 45.5875 35.8361 41.0357 33.7465 36.7392C31.6641 32.4574 28.0193 28.437 24.08 24.3043C23.6815 24.3112 23.3018 24.3424 22.9202 24.3737C22.8285 24.3812 22.7366 24.3888 22.6443 24.396C22.1247 24.4366 21.5961 24.4664 21.0583 24.4084C19.9522 24.2892 18.8635 23.805 17.6339 22.4525C15.109 19.6752 15.8125 15.407 18.5252 12.9958C19.5594 12.0766 21.2401 11.392 23.0107 11.5045C24.804 11.6184 26.6639 12.5485 28.0208 14.8101C29.1189 16.6403 29.123 18.3881 28.6155 19.8747C28.1754 21.1641 27.3551 22.2473 26.557 23.0305C28.5044 24.5193 31.0104 26.109 33.5777 27.3499C36.3123 28.6717 39.0728 29.5761 41.2861 29.5761C45.1506 29.5761 47.9299 26.6634 49.4349 22.7062C50.9159 18.8121 51.105 14.0291 49.893 10.4042C46.6506 8.98274 45.7678 5.66027 46.6773 3.15916C47.141 1.88416 48.0766 0.802189 49.4184 0.299023ZM47.3962 3.42056C46.5954 5.62264 47.3934 8.55755 50.3445 9.76477C50.4459 9.80626 50.5246 9.88926 50.5607 9.99271C51.8986 13.8254 51.709 18.8786 50.1499 22.9781C48.593 27.0718 45.6107 30.341 41.2861 30.341C38.8989 30.341 36.0129 29.3765 33.2448 28.0386C30.4674 26.6961 27.7647 24.956 25.7315 23.3585C25.6424 23.2885 25.5889 23.1826 25.5855 23.0694C25.5821 22.9561 25.629 22.8472 25.7137 22.7719C26.5445 22.0335 27.4451 20.9359 27.8917 19.6276C28.333 18.3347 28.337 16.8238 27.3649 15.2036C26.134 13.1522 24.4982 12.3654 22.9622 12.2679C21.4036 12.1689 19.9214 12.7782 19.0334 13.5675C16.5703 15.7568 16.0195 19.5396 18.1998 21.9379C19.3229 23.1732 20.2468 23.5516 21.1403 23.6479C21.6023 23.6978 22.0701 23.6737 22.5847 23.6334C22.6711 23.6267 22.7591 23.6194 22.8484 23.6121C23.2824 23.5764 23.7496 23.5379 24.2424 23.5379C24.347 23.5379 24.447 23.5807 24.5192 23.6564C28.4912 27.8199 32.2718 31.958 34.4344 36.4046C36.6099 40.8779 37.1519 45.671 34.6536 51.1083C33.2983 54.0582 31.4317 55.9777 29.3122 57.1361C27.197 58.2921 24.8558 58.6763 22.5671 58.6011C18.0021 58.451 13.5795 56.4716 11.3789 55.0046C11.2329 54.9072 11.1719 54.723 11.2309 54.5577C11.8646 52.7834 10.8771 51.099 9.19538 50.0447C7.5104 48.9883 5.29196 48.6805 3.72685 49.5569C0.4728 51.3792 0.146805 54.6579 1.55791 56.7745C2.81456 58.6595 4.70626 59.5274 6.434 59.4991C8.16043 59.4708 9.71586 58.5535 10.3714 56.8494C10.4332 56.6886 10.5949 56.589 10.7664 56.6061C15.7006 57.0995 24.996 61.7311 26.6341 73.9001C27.4339 79.8414 26.5858 85.4026 25.7605 90.8138C25.5381 92.2716 25.3175 93.7185 25.1311 95.1591C24.2506 101.966 24.1162 108.7 28.0303 116.039C30.2662 120.231 34.7443 123.237 40.4751 125.271C46.1993 127.302 53.1211 128.344 60.1602 128.645C67.1968 128.945 74.3333 128.504 80.4789 127.581C86.6345 126.656 91.7604 125.251 94.7967 123.644C99.6313 121.084 102.721 118.121 104.546 114.015C106.379 109.891 106.957 104.57 106.67 97.2563C106.474 92.2717 105.648 87.4737 104.854 82.8698C104.485 80.7227 104.122 78.6178 103.834 76.5559C102.933 70.1092 102.772 64.1098 105.564 58.8209C107.103 55.9042 108.413 54.1553 109.416 52.9876C109.785 52.5583 110.114 52.2055 110.39 51.9098C110.486 51.8065 110.576 51.7101 110.659 51.6199C110.988 51.2608 111.194 51.0111 111.31 50.7776C111.402 50.5947 111.621 50.5161 111.808 50.5991C112.675 50.9843 113.63 51.4015 114.713 51.5195C115.781 51.6359 116.989 51.4619 118.353 50.6229C119.63 49.8368 120.264 48.1619 120.234 46.3861C120.204 44.6105 119.511 42.8919 118.333 42.06C116.051 40.4494 113.374 40.916 111.696 42.4603C110.032 43.9912 109.346 46.5884 111.111 49.3025C111.204 49.4466 111.19 49.6356 111.076 49.7643C108.739 52.4069 105.437 52.481 101.014 52.481C98.0969 52.481 94.677 50.2118 92.7999 46.2759C90.9114 42.3161 90.5685 36.6601 93.7717 29.7968C95.1013 26.9479 96.1716 24.1844 96.8368 22.0553C97.1699 20.9893 97.3983 20.0921 97.5085 19.4273C97.5638 19.0937 97.587 18.8319 97.5827 18.6428C97.5805 18.5484 97.5717 18.4827 97.5613 18.4403C97.5571 18.4229 97.5534 18.4126 97.5514 18.4078C97.4488 18.2788 97.4401 18.0978 97.5313 17.9593C97.6252 17.8168 97.802 17.7538 97.9648 17.8046C98.9604 18.1158 100.056 17.8171 101.069 17.0671C102.08 16.3184 102.965 15.1472 103.498 13.8217C104.032 12.4966 104.202 11.0486 103.831 9.74264C103.463 8.44889 102.553 7.25659 100.848 6.43808C98.4034 5.2645 96.3783 5.28981 94.8445 5.96191C93.3033 6.63727 92.202 7.99003 91.6579 9.57516C91.1133 11.1616 91.1371 12.953 91.8156 14.4749C92.4893 15.9863 93.8173 17.2532 95.9337 17.7994C96.1026 17.8429 96.2206 17.9953 96.2206 18.1697C96.2206 19.0884 96.207 25.2425 89.7827 31.6667C85.1561 36.2932 80.3669 39.2979 76.1491 40.1456C74.0344 40.5706 72.0493 40.4556 70.3041 39.7138C68.5559 38.9707 67.0808 37.6121 65.967 35.6074C65.0237 33.9093 63.7869 30.924 63.1475 27.596C62.5091 24.2734 62.4556 20.5546 63.9435 17.4302C63.9912 17.33 64.0801 17.2555 64.1871 17.226C64.2941 17.1964 64.4086 17.2149 64.5009 17.2764C64.716 17.4198 65.1319 17.559 65.6824 17.6188C66.2225 17.6774 66.8527 17.6549 67.4722 17.5098C68.7063 17.2207 69.8565 16.4615 70.2433 14.9141C71.044 11.7109 68.7096 9.35109 66.3014 9.35109C65.0725 9.35109 64.1862 9.65745 63.559 10.1209C62.9315 10.5845 62.5334 11.2274 62.3192 11.9523C61.8851 13.4218 62.223 15.1782 62.8878 16.2418C62.9554 16.3501 62.9646 16.485 62.9122 16.6014C61.6468 19.4136 61.3948 21.788 61.268 24.1347C61.2503 24.4612 61.2351 24.788 61.2199 25.1159C61.1257 27.1402 61.0296 29.2065 60.3422 31.5058C59.4685 34.4283 58.3097 36.4426 57.0001 37.688C55.6815 38.9418 54.2134 39.4105 52.7758 39.2306C49.9351 38.875 47.408 36.0302 46.381 32.3619C46.324 32.1585 46.4427 31.9475 46.6461 31.8905C47.6746 31.6026 49.3487 30.2279 50.6551 26.8379C51.9545 23.4659 52.8637 18.157 52.4056 10.1406C52.3996 10.0355 52.4372 9.93264 52.5094 9.85615C52.5817 9.77965 52.6822 9.7363 52.7875 9.7363C53.3062 9.7363 54.0082 9.42849 54.7002 8.85258C55.3818 8.28531 56.0017 7.49964 56.3672 6.63453C56.7319 5.7713 56.835 4.85163 56.5272 3.9879C56.2206 3.12753 55.4849 2.26271 54.0541 1.54731C52.2559 0.648236 50.7866 0.602883 49.687 1.01523C48.5847 1.42858 47.7951 2.3234 47.3962 3.42056Z" fill="#5B5B66"/>
    <path fill-rule="evenodd" clip-rule="evenodd" d="M31.1818 132.521C32.4606 136.284 32.6757 140.936 32.6757 143.247C32.6757 143.458 32.5044 143.629 32.2932 143.629C32.082 143.629 31.9108 143.458 31.9108 143.247C31.9108 140.956 31.6946 136.407 30.4575 132.767C29.8383 130.944 28.9791 129.399 27.8088 128.463C26.6631 127.547 25.1799 127.185 23.2055 127.797C21.3074 128.387 20.3563 129.423 19.9388 130.702C19.5103 132.014 19.6258 133.633 19.9969 135.402C20.2715 136.711 20.676 138.061 21.0745 139.391C21.2138 139.856 21.3525 140.319 21.4846 140.776C21.9869 142.516 22.3999 144.2 22.3239 145.568C22.3122 145.779 22.1317 145.94 21.9208 145.929C21.7099 145.917 21.5484 145.737 21.5601 145.526C21.6279 144.306 21.2558 142.742 20.7497 140.988C20.6225 140.548 20.487 140.096 20.3496 139.637C19.9484 138.298 19.5301 136.903 19.2483 135.559C18.8701 133.757 18.7189 131.973 19.2117 130.464C19.7155 128.922 20.8738 127.72 22.9788 127.067C25.1737 126.386 26.9253 126.778 28.2864 127.866C29.6231 128.934 30.5431 130.641 31.1818 132.521Z" fill="#5B5B66"/>
    <path fill-rule="evenodd" clip-rule="evenodd" d="M24.837 143.085C28.0597 141.748 32.1522 142.075 36.5425 145.236C38.3213 146.517 39.5485 148.461 40.3638 150.676C41.1796 152.891 41.5921 155.402 41.7264 157.854C41.8607 160.307 41.7171 162.714 41.4121 164.729C41.1133 166.704 40.6531 168.346 40.1212 169.28C39.0553 172.576 36.2772 174.58 33.1729 175.319C30.0622 176.06 26.5679 175.547 24.0221 173.75C20.6803 171.391 19.0431 166.673 18.3637 162.091C17.6818 157.492 17.9447 152.892 18.5217 150.628C19.3537 147.364 21.6322 144.415 24.837 143.085ZM25.1301 143.792C22.1757 145.018 20.0433 147.755 19.2629 150.817C18.717 152.959 18.4493 157.453 19.1204 161.979C19.794 166.521 21.3935 170.958 24.4633 173.125C26.8055 174.778 30.0682 175.272 32.9957 174.575C35.9172 173.879 38.4486 172.014 39.405 169.008C39.4135 168.982 39.4249 168.956 39.4391 168.932C39.9044 168.134 40.3563 166.594 40.6558 164.615C40.9532 162.65 41.094 160.295 40.9626 157.896C40.8312 155.495 40.428 153.064 39.646 150.94C38.8635 148.814 37.7108 147.02 36.0955 145.857C31.8811 142.822 28.0664 142.574 25.1301 143.792Z" fill="#5B5B66"/>
    <path fill-rule="evenodd" clip-rule="evenodd" d="M55.8541 128.887C56.0035 129.037 56.0035 129.279 55.8541 129.428C55.8543 129.428 55.8544 129.428 55.8543 129.428C55.8541 129.428 55.8497 129.433 55.8403 129.444C55.8301 129.456 55.8167 129.472 55.7999 129.493C55.7663 129.535 55.7225 129.593 55.6687 129.665C55.5612 129.809 55.4181 130.007 55.2431 130.255C54.8934 130.751 54.4203 131.441 53.8578 132.286C52.7331 133.975 51.2538 136.279 49.6937 138.879C46.5684 144.088 43.1387 150.453 41.5719 155.438C41.5085 155.64 41.2939 155.752 41.0923 155.688C40.8908 155.625 40.7788 155.41 40.8422 155.209C42.4382 150.131 45.9093 143.7 49.0378 138.486C50.6047 135.874 52.0905 133.56 53.2211 131.862C53.7864 131.013 54.2635 130.317 54.618 129.814C54.7952 129.563 54.9426 129.359 55.0557 129.207C55.1611 129.066 55.2538 128.947 55.3132 128.887C55.4626 128.738 55.7048 128.738 55.8541 128.887Z" fill="#5B5B66"/>
    <path fill-rule="evenodd" clip-rule="evenodd" d="M68.2197 219.18C68.2197 218.969 68.391 218.798 68.6022 218.798C68.9391 218.798 69.1197 219.08 69.2024 219.244C69.3016 219.442 69.3789 219.705 69.4439 220.003C69.5755 220.605 69.6784 221.453 69.7707 222.455C69.8636 223.462 69.9486 224.665 70.0403 225.963C70.1294 227.225 70.2249 228.577 70.3402 229.927C70.5767 232.699 70.9005 235.529 71.4335 237.818C71.7 238.963 72.0156 239.958 72.3909 240.737C72.7695 241.523 73.1887 242.046 73.6382 242.306C74.9298 243.054 77.3439 243.614 80.4088 244C83.4538 244.383 87.0799 244.588 90.7484 244.656C98.0938 244.793 105.558 244.384 108.819 243.791C111.745 243.259 113.811 240.212 113.866 236.678C113.921 233.185 111.988 229.279 106.955 227.182C100.586 224.529 96.3194 225.906 91.9052 227.332C90.6858 227.726 89.4552 228.123 88.1659 228.44C87.9608 228.49 87.7537 228.365 87.7032 228.16C87.6528 227.955 87.7782 227.748 87.9833 227.697C89.1951 227.399 90.3784 227.016 91.5705 226.63C96.0219 225.187 100.598 223.705 107.25 226.476C112.568 228.692 114.691 232.88 114.631 236.69C114.572 240.459 112.355 243.925 108.956 244.544C105.619 245.15 98.0938 245.558 90.7341 245.421C87.0501 245.352 83.3947 245.147 80.3133 244.759C77.2519 244.374 74.695 243.802 73.255 242.968C72.6119 242.596 72.108 241.912 71.7018 241.069C71.2924 240.219 70.9615 239.164 70.6885 237.991C70.1424 235.646 69.8151 232.769 69.5781 229.993C69.4596 228.605 69.3646 227.257 69.2764 226.004C69.1861 224.724 69.103 223.544 69.0091 222.525C68.917 221.525 68.8173 220.718 68.6967 220.166C68.6356 219.887 68.5745 219.698 68.519 219.588C68.5107 219.571 68.5036 219.558 68.4975 219.548C68.3372 219.503 68.2197 219.355 68.2197 219.18ZM68.4752 219.517C68.4752 219.517 68.4774 219.519 68.4816 219.524C68.4772 219.52 68.4751 219.517 68.4752 219.517Z" fill="#5B5B66"/>
    <path fill-rule="evenodd" clip-rule="evenodd" d="M90.275 186.927C90.4863 186.927 90.6575 187.098 90.6575 187.309C90.6575 200.474 95.9753 213.153 101.33 224.628C101.42 224.819 101.337 225.047 101.145 225.136C100.954 225.226 100.726 225.143 100.637 224.951C95.2834 213.479 89.8926 200.661 89.8926 187.309C89.8926 187.098 90.0638 186.927 90.275 186.927Z" fill="#5B5B66"/>
    <path fill-rule="evenodd" clip-rule="evenodd" d="M72.0575 129.36C72.2634 129.407 72.3925 129.612 72.3456 129.818C72.1493 130.682 72.5432 132.451 74.7937 134.68C77.0295 136.895 81.0481 139.506 87.9187 142.026C96.5347 145.185 103.844 148.076 108.636 151.416C111.036 153.088 112.836 154.894 113.846 156.933C114.862 158.984 115.063 161.24 114.319 163.77C113.168 167.685 110.312 171.479 107.013 174.676C103.71 177.879 99.9299 180.517 96.878 182.115C96.6909 182.213 96.4598 182.141 96.3618 181.954C96.2637 181.767 96.336 181.536 96.5231 181.438C99.5094 179.874 103.23 177.279 106.481 174.127C109.737 170.971 112.487 167.288 113.586 163.554C114.279 161.196 114.085 159.139 113.161 157.272C112.23 155.394 110.543 153.677 108.199 152.043C103.502 148.77 96.2913 145.91 87.6554 142.744C80.7243 140.202 76.5961 137.542 74.2554 135.224C71.9294 132.919 71.3169 130.893 71.5998 129.648C71.6466 129.442 71.8515 129.313 72.0575 129.36Z" fill="#5B5B66"/>
    <path fill-rule="evenodd" clip-rule="evenodd" d="M76.1963 163.022C76.232 162.814 76.4298 162.674 76.638 162.71C76.647 162.711 76.6561 162.713 76.6651 162.714C79.7015 163.236 83.534 163.895 86.1226 165.988C87.4367 167.051 88.4317 168.482 88.8484 170.433C89.2632 172.376 89.0991 174.805 88.1523 177.864C87.1736 181.026 87.4888 183.39 88.5433 185.14C89.6044 186.901 91.4532 188.106 93.6667 188.861C98.1073 190.375 103.836 190.014 106.921 188.893C110.08 187.744 112.299 185.925 113.451 183.94C114.599 181.963 114.695 179.82 113.62 177.941C112.772 176.456 111.355 175.735 109.882 175.445C108.404 175.153 106.909 175.305 105.994 175.534C105.789 175.585 105.582 175.461 105.531 175.256C105.479 175.051 105.604 174.843 105.809 174.792C106.811 174.541 108.422 174.377 110.03 174.694C111.643 175.012 113.292 175.825 114.285 177.561C115.511 179.707 115.379 182.142 114.113 184.324C112.851 186.498 110.469 188.416 107.182 189.612C103.941 190.79 98.0328 191.157 93.4199 189.585C91.1067 188.796 89.0748 187.504 87.8881 185.535C86.6948 183.554 86.3952 180.954 87.4216 177.638C88.3439 174.658 88.4793 172.367 88.1003 170.593C87.7233 168.827 86.8314 167.545 85.6416 166.583C83.23 164.633 79.6018 163.995 76.5084 163.464C76.3002 163.428 76.1605 163.23 76.1963 163.022Z" fill="#5B5B66"/>
    <path fill-rule="evenodd" clip-rule="evenodd" d="M50.6854 136.658C50.8308 136.811 50.8246 137.053 50.6715 137.199C41.4291 145.979 34.8912 145.45 32.6463 143.846C32.4744 143.723 32.4346 143.484 32.5574 143.312C32.6801 143.141 32.919 143.101 33.0909 143.224C34.8714 144.495 40.985 145.346 50.1447 136.644C50.2978 136.499 50.5399 136.505 50.6854 136.658Z" fill="#5B5B66"/>
    <path fill-rule="evenodd" clip-rule="evenodd" d="M32.1089 174.795C32.3123 174.851 32.431 175.063 32.3741 175.266C31.0427 180.021 30.1145 186.678 30.2864 193.144C30.4586 199.626 31.7343 205.838 34.7403 209.769C38.8227 215.108 44.4564 216.503 48.9697 216.503C49.181 216.503 49.3522 216.675 49.3522 216.886C49.3522 217.097 49.181 217.268 48.9697 217.268C44.3042 217.268 38.4051 215.822 34.1327 210.234C30.9767 206.107 29.6952 199.692 29.5217 193.165C29.3478 186.622 30.2853 179.889 31.6375 175.06C31.6945 174.856 31.9055 174.738 32.1089 174.795Z" fill="#5B5B66"/>
    <path fill-rule="evenodd" clip-rule="evenodd" d="M35.1464 210.898C35.3555 210.867 35.5496 211.012 35.58 211.221C35.9677 213.887 36.0701 217.385 35.9613 220.357C35.9068 221.844 35.7992 223.209 35.6458 224.279C35.5692 224.814 35.4801 225.282 35.3783 225.659C35.2805 226.02 35.1582 226.348 34.9902 226.558C34.8582 226.723 34.6176 226.75 34.4526 226.618C34.2877 226.486 34.261 226.245 34.3929 226.08C34.4549 226.003 34.5451 225.81 34.6399 225.459C34.7306 225.123 34.8144 224.688 34.8886 224.171C35.0369 223.136 35.143 221.8 35.1969 220.329C35.3047 217.385 35.202 213.937 34.823 211.331C34.7926 211.122 34.9374 210.928 35.1464 210.898Z" fill="#5B5B66"/>
    <path fill-rule="evenodd" clip-rule="evenodd" d="M59.503 218.984C59.5058 218.994 59.5107 219.009 59.5191 219.028C60.1501 220.472 60.6005 222.531 60.8877 224.804C61.1758 227.085 61.303 229.608 61.2749 231.997C61.2469 234.383 61.0638 236.648 60.7267 238.408C60.5583 239.286 60.349 240.053 60.0943 240.651C59.8469 241.232 59.5269 241.725 59.0932 241.956C51.8361 245.814 41.9503 245.54 29.9528 244.264C26.551 243.902 23.9872 243.248 22.1445 242.359C20.2992 241.469 19.1504 240.329 18.6379 238.988C18.1255 237.648 18.2757 236.178 18.8834 234.682C19.4902 233.189 20.5634 231.641 21.9462 230.113C23.9813 227.864 27.6519 226.774 31.4403 226.372C35.2499 225.968 39.2815 226.249 42.1458 226.832C42.3528 226.874 42.4865 227.076 42.4444 227.283C42.4023 227.49 42.2004 227.624 41.9934 227.581C39.2029 227.014 35.2499 226.737 31.521 227.133C27.7708 227.531 24.3489 228.597 22.5134 230.626C21.1647 232.117 20.1533 233.589 19.592 234.97C19.0316 236.35 18.9302 237.611 19.3523 238.715C19.7742 239.819 20.746 240.835 22.4769 241.67C24.2105 242.506 26.6785 243.146 30.0337 243.503C42.0602 244.783 51.713 245.013 58.7341 241.281C58.9255 241.179 59.1585 240.896 59.3906 240.351C59.6155 239.823 59.8123 239.115 59.9754 238.264C60.3012 236.563 60.4824 234.347 60.5101 231.988C60.5378 229.63 60.4121 227.142 60.1289 224.9C59.8448 222.652 59.4054 220.678 58.8182 219.334C58.7499 219.178 58.7119 219.001 58.7484 218.82C58.7862 218.631 58.894 218.487 59.0262 218.385C59.2656 218.2 59.6167 218.126 59.9604 218.093C60.6752 218.024 61.701 218.104 62.7814 218.227C63.3847 218.296 64.0314 218.381 64.6646 218.464C65.1599 218.53 65.6469 218.594 66.0984 218.648C67.1585 218.776 68.0407 218.851 68.5659 218.8C68.7761 218.78 68.963 218.934 68.9832 219.144C69.0034 219.355 68.8493 219.541 68.6391 219.562C68.0169 219.621 67.0506 219.533 66.0072 219.408C65.5309 219.35 65.0407 219.286 64.5475 219.221C63.9277 219.139 63.3031 219.056 62.695 218.987C61.6082 218.864 60.658 218.794 60.0342 218.854C59.7242 218.884 59.5654 218.941 59.503 218.984Z" fill="#5B5B66"/>
    <path fill-rule="evenodd" clip-rule="evenodd" d="M42.0979 100.409C42.1771 100.336 42.283 100.301 42.3899 100.31C46.7108 100.694 53.3085 101.472 59.0608 102.558C61.9357 103.101 64.6111 103.723 66.689 104.415C67.7274 104.761 68.6281 105.128 69.3338 105.517C70.0285 105.9 70.583 106.331 70.8664 106.827C71.2258 107.456 71.2071 108.173 70.9469 108.885C70.6887 109.592 70.184 110.323 69.5153 111.038C68.1758 112.471 66.1107 113.907 63.7611 115.018C61.4099 116.13 58.7461 116.929 56.2002 117.063C53.6543 117.196 51.193 116.664 49.2984 115.073C43.4445 110.156 41.9736 103.464 41.9736 100.691C41.9736 100.584 42.0187 100.481 42.0979 100.409ZM42.7495 101.111C42.8904 103.93 44.4267 109.982 49.7904 114.487C51.49 115.915 53.7371 116.426 56.1601 116.299C58.5831 116.172 61.1488 115.407 63.4341 114.327C65.721 113.245 67.6993 111.86 68.9566 110.516C69.5863 109.843 70.0184 109.197 70.2285 108.622C70.4366 108.053 70.4179 107.584 70.2023 107.207C70.0256 106.897 69.6241 106.551 68.9643 106.187C68.3154 105.829 67.463 105.479 66.4473 105.14C64.4171 104.464 61.7804 103.85 58.9189 103.31C53.3848 102.265 47.0541 101.505 42.7495 101.111Z" fill="#5B5B66"/>
    <path fill-rule="evenodd" clip-rule="evenodd" d="M42.8764 105.408C42.9709 105.219 43.2006 105.142 43.3895 105.237C46.2537 106.669 50.8372 108.731 55.4162 110.262C57.7057 111.028 59.9859 111.658 62.0447 112.011C64.111 112.366 65.9194 112.435 67.282 112.108C67.4874 112.058 67.6939 112.185 67.7432 112.39C67.7924 112.596 67.6659 112.802 67.4605 112.852C65.9478 113.215 64.0182 113.126 61.9153 112.765C59.8049 112.403 57.4846 111.76 55.1736 110.988C50.5514 109.442 45.9339 107.364 43.0474 105.921C42.8585 105.826 42.7819 105.597 42.8764 105.408Z" fill="#5B5B66"/>
    <path fill-rule="evenodd" clip-rule="evenodd" d="M45.3145 100.605C45.5206 100.651 45.6507 100.855 45.6048 101.061C45.3226 102.331 45.0528 104.318 45.0244 106.124C45.0103 107.027 45.0569 107.87 45.1866 108.549C45.3203 109.248 45.5273 109.688 45.7638 109.885C45.9261 110.021 45.948 110.262 45.8128 110.424C45.6776 110.586 45.4364 110.608 45.2741 110.473C44.8206 110.095 44.5747 109.421 44.4353 108.692C44.2919 107.942 44.245 107.042 44.2596 106.112C44.2888 104.252 44.5653 102.213 44.8581 100.895C44.904 100.689 45.1083 100.559 45.3145 100.605Z" fill="#5B5B66"/>
    <path fill-rule="evenodd" clip-rule="evenodd" d="M51.1395 101.493C51.332 101.58 51.4176 101.806 51.3307 101.999C50.6845 103.43 50.1003 106.1 49.7949 108.694C49.6428 109.985 49.5617 111.241 49.5746 112.298C49.5877 113.373 49.6984 114.185 49.8939 114.625C49.9797 114.818 49.8927 115.044 49.6997 115.13C49.5067 115.216 49.2807 115.129 49.1949 114.936C48.9303 114.34 48.823 113.389 48.8097 112.308C48.7963 111.209 48.8805 109.918 49.0352 108.604C49.3431 105.989 49.9379 103.225 50.6335 101.684C50.7205 101.492 50.947 101.406 51.1395 101.493Z" fill="#5B5B66"/>
    <path fill-rule="evenodd" clip-rule="evenodd" d="M57.424 102.339C57.6254 102.403 57.7368 102.618 57.673 102.819C57.0587 104.757 56.4587 107.652 56.0988 110.296C55.919 111.617 55.8002 112.866 55.7687 113.894C55.7366 114.944 55.7984 115.702 55.9413 116.084C56.0155 116.281 55.9153 116.502 55.7175 116.576C55.5197 116.65 55.2993 116.55 55.2251 116.352C55.023 115.813 54.9722 114.914 55.0042 113.871C55.0368 112.807 55.1588 111.53 55.3408 110.193C55.7045 107.522 56.3122 104.58 56.9439 102.588C57.0077 102.387 57.2227 102.275 57.424 102.339Z" fill="#5B5B66"/>
    <path fill-rule="evenodd" clip-rule="evenodd" d="M64.2415 103.76C64.4519 103.778 64.6079 103.963 64.5899 104.174C64.4462 105.85 64.2297 108.306 63.9042 110.488C63.7416 111.578 63.5504 112.61 63.3247 113.447C63.2119 113.865 63.0884 114.242 62.9521 114.557C62.8185 114.866 62.6606 115.144 62.4666 115.338C62.3173 115.487 62.0751 115.487 61.9257 115.338C61.7764 115.189 61.7764 114.947 61.9257 114.797C62.0192 114.704 62.131 114.529 62.25 114.254C62.3665 113.984 62.4789 113.645 62.5862 113.247C62.8007 112.452 62.9869 111.453 63.1477 110.375C63.4692 108.22 63.6839 105.787 63.8278 104.109C63.8458 103.898 64.031 103.742 64.2415 103.76Z" fill="#5B5B66"/>
    <path fill-rule="evenodd" clip-rule="evenodd" d="M86.5417 87.7109C84.8016 87.6398 83.1713 88.1649 82.2133 88.6667C82.0262 88.7647 81.7951 88.6925 81.6971 88.5054C81.5991 88.3182 81.6713 88.0871 81.8584 87.9891C82.9131 87.4366 84.6757 86.8691 86.5729 86.9466C88.4842 87.0246 90.5398 87.7599 92.1158 89.8208C92.2441 89.9886 92.2121 90.2286 92.0443 90.3569C91.8765 90.4852 91.6365 90.4532 91.5082 90.2854C90.0938 88.4359 88.2677 87.7813 86.5417 87.7109Z" fill="#5B5B66"/>
    <path d="M55.5828 86.8897C55.5828 89.1129 53.6518 90.9152 51.2698 90.9152C48.8878 90.9152 46.9568 89.1129 46.9568 86.8897C46.9568 84.6665 48.8878 82.8643 51.2698 82.8643C53.6518 82.8643 55.5828 84.6665 55.5828 86.8897Z" fill="#5B5B66"/>
    <path d="M50.9874 85.4915C50.9874 85.9679 50.6012 86.3541 50.1248 86.3541C49.6484 86.3541 49.2622 85.9679 49.2622 85.4915C49.2622 85.0151 49.6484 84.6289 50.1248 84.6289C50.6012 84.6289 50.9874 85.0151 50.9874 85.4915Z" fill="white"/>
    <path fill-rule="evenodd" clip-rule="evenodd" d="M80.9097 74.1946C80.6089 74.2479 80.3284 74.2976 80.0706 74.3298C79.861 74.356 79.6698 74.2074 79.6436 73.9978C79.6174 73.7882 79.7661 73.597 79.9757 73.5708C80.1846 73.5447 80.4286 73.5009 80.7025 73.4517C81.8347 73.2484 83.4779 72.9534 85.2629 73.4375C87.5216 74.05 89.9677 75.874 92.1562 80.397C92.2482 80.5872 92.1687 80.8159 91.9786 80.9079C91.7884 80.9999 91.5597 80.9203 91.4677 80.7302C89.3433 76.3396 87.0451 74.7133 85.0627 74.1757C83.4635 73.742 82.0418 73.994 80.9097 74.1946Z" fill="#5B5B66"/>
    <path fill-rule="evenodd" clip-rule="evenodd" d="M48.8059 66.4344C47.1789 67.6705 45.7671 69.3071 44.969 70.4339C44.8469 70.6063 44.6082 70.6471 44.4358 70.525C44.2635 70.4029 44.2227 70.1642 44.3448 69.9918C45.176 68.8183 46.6396 67.1196 48.3432 65.8254C50.0278 64.5455 52.0499 63.5842 53.9565 64.0927C54.1606 64.1471 54.2819 64.3567 54.2275 64.5608C54.1731 64.7648 53.9635 64.8862 53.7594 64.8318C52.2156 64.4201 50.4518 65.184 48.8059 66.4344Z" fill="#5B5B66"/>
    <path fill-rule="evenodd" clip-rule="evenodd" d="M47.8578 169.075C47.8854 168.937 48.0197 168.848 48.1578 168.875C48.3068 168.905 48.4551 168.995 48.5911 169.101C48.7328 169.212 48.8864 169.36 49.0478 169.536C49.371 169.889 49.7416 170.374 50.1299 170.951C50.907 172.105 51.7681 173.646 52.4751 175.278C53.1811 176.907 53.7399 178.641 53.9009 180.178C54.0609 181.705 53.8337 183.104 52.8806 183.977C52.1103 184.683 51.2196 184.771 50.3235 184.46C49.4459 184.155 48.5556 183.468 47.7176 182.617C46.0375 180.91 44.4856 178.456 43.5693 176.72C43.5036 176.595 43.5513 176.441 43.6758 176.376C43.8003 176.31 43.9546 176.357 44.0203 176.482C44.925 178.196 46.4498 180.602 48.0811 182.259C48.8988 183.09 49.723 183.711 50.4908 183.978C51.2403 184.238 51.9262 184.16 52.5361 183.601C53.3082 182.894 53.5482 181.705 53.3937 180.231C53.2403 178.766 52.7029 177.086 52.0072 175.48C51.3124 173.877 50.4663 172.363 49.7069 171.235C49.3269 170.671 48.9719 170.208 48.6718 169.88C48.5215 169.716 48.389 169.59 48.2775 169.504C48.1604 169.412 48.0885 169.381 48.0578 169.375C47.9197 169.348 47.8302 169.213 47.8578 169.075Z" fill="#5DCB42"/>
    <path fill-rule="evenodd" clip-rule="evenodd" d="M55.1996 166.013C55.3299 165.96 55.4788 166.022 55.5321 166.153C55.9768 167.24 56.3622 168.999 56.0725 170.762C55.7806 172.538 54.8013 174.317 52.5299 175.393C52.4027 175.453 52.2507 175.399 52.1904 175.272C52.1301 175.145 52.1844 174.993 52.3117 174.932C54.4108 173.938 55.3005 172.315 55.5693 170.679C55.8403 169.03 55.4781 167.367 55.0601 166.346C55.0068 166.215 55.0693 166.067 55.1996 166.013Z" fill="#5DCB42"/>
    <path fill-rule="evenodd" clip-rule="evenodd" d="M62.9517 166.644C63.0513 166.744 63.0513 166.905 62.9517 167.005C62.9412 167.015 62.9163 167.038 62.8781 167.072C61.8471 167.998 51.1945 177.567 56.6872 193.771C56.7324 193.904 56.6609 194.049 56.5276 194.094C56.3942 194.139 56.2495 194.068 56.2042 193.934C53.3043 185.379 54.8256 178.624 57.1155 173.972C58.2592 171.648 59.5934 169.851 60.6601 168.616C61.1936 167.999 61.6606 167.522 62.0038 167.189C62.1755 167.023 62.3161 166.893 62.4184 166.8C62.4631 166.76 62.5005 166.726 62.5294 166.7L62.5413 166.689C62.5567 166.676 62.5687 166.665 62.5779 166.656C62.5869 166.648 62.5905 166.645 62.5911 166.644L62.5912 166.644C62.6907 166.544 62.8522 166.544 62.9517 166.644Z" fill="#5DCB42"/>
    <path fill-rule="evenodd" clip-rule="evenodd" d="M68.3914 175.824C68.5028 175.91 68.5232 176.07 68.4369 176.182C64.9621 180.67 61.9687 182.367 59.5956 182.923C58.4113 183.201 57.3938 183.191 56.5663 183.113C56.1959 183.078 55.8623 183.029 55.5735 182.987C55.5409 182.982 55.5089 182.977 55.4775 182.972C55.1612 182.926 54.915 182.894 54.7213 182.894C54.5805 182.894 54.4663 182.78 54.4663 182.639C54.4663 182.498 54.5805 182.384 54.7213 182.384C54.9588 182.384 55.2428 182.423 55.551 182.468C55.5827 182.472 55.6147 182.477 55.6472 182.482C55.9368 182.524 56.2576 182.571 56.6142 182.605C57.404 182.68 58.3634 182.688 59.4793 182.426C61.7068 181.904 64.6078 180.295 68.0337 175.869C68.1199 175.758 68.2801 175.738 68.3914 175.824Z" fill="#5DCB42"/>
    <path fill-rule="evenodd" clip-rule="evenodd" d="M62.6913 181.247C62.8248 181.202 62.9692 181.274 63.0138 181.408C63.2602 182.147 64.705 183.945 68.5523 184.398C68.6922 184.415 68.7922 184.541 68.7758 184.681C68.7593 184.821 68.6326 184.921 68.4928 184.905C64.5192 184.437 62.8586 182.555 62.53 181.569C62.4855 181.435 62.5577 181.291 62.6913 181.247Z" fill="#5DCB42"/>
    <path d="M44.6577 176.025C44.6577 176.66 44.1428 177.175 43.5076 177.175C42.8724 177.175 42.3574 176.66 42.3574 176.025C42.3574 175.39 42.8724 174.875 43.5076 174.875C44.1428 174.875 44.6577 175.39 44.6577 176.025Z" fill="#5DCB42"/>
    <path d="M48.6826 168.55C48.6826 169.185 48.1677 169.7 47.5325 169.7C46.8973 169.7 46.3823 169.185 46.3823 168.55C46.3823 167.914 46.8973 167.399 47.5325 167.399C48.1677 167.399 48.6826 167.914 48.6826 168.55Z" fill="#5DCB42"/>
    <path d="M56.1587 165.099C56.1587 165.735 55.6437 166.249 55.0085 166.249C54.3733 166.249 53.8584 165.735 53.8584 165.099C53.8584 164.464 54.3733 163.949 55.0085 163.949C55.6437 163.949 56.1587 164.464 56.1587 165.099Z" fill="#5DCB42"/>
    <path d="M64.7846 166.25C64.7846 166.885 64.2697 167.4 63.6345 167.4C62.9993 167.4 62.4844 166.885 62.4844 166.25C62.4844 165.615 62.9993 165.1 63.6345 165.1C64.2697 165.1 64.7846 165.615 64.7846 166.25Z" fill="#5DCB42"/>
    <path d="M69.9602 175.451C69.9602 176.086 69.4452 176.601 68.81 176.601C68.1748 176.601 67.6599 176.086 67.6599 175.451C67.6599 174.816 68.1748 174.301 68.81 174.301C69.4452 174.301 69.9602 174.816 69.9602 175.451Z" fill="#5DCB42"/>
    <path d="M70.5356 184.651C70.5356 185.286 70.0207 185.801 69.3855 185.801C68.7503 185.801 68.2354 185.286 68.2354 184.651C68.2354 184.016 68.7503 183.501 69.3855 183.501C70.0207 183.501 70.5356 184.016 70.5356 184.651Z" fill="#5DCB42"/>
    <path fill-rule="evenodd" clip-rule="evenodd" d="M48.4049 163.651L39.8481 178.866L48.7577 194.298L66.2125 194.495L74.7692 179.28L65.8596 163.848L48.4049 163.651ZM66.1559 163.341L48.1085 163.138L39.2612 178.869L48.4614 194.804L66.5089 195.008L75.3561 179.276L66.1559 163.341Z" fill="#5DCB42"/>
</svg>
