<svg width="20" height="20" viewBox="0 0 20 20" fill="none" xmlns="http://www.w3.org/2000/svg">
    <g id="Socials / facebook">
        <g id="Vector">
            <path d="M19 10C19 5.02947 14.9705 1 10 1C5.02947 1 1 5.0294 1 10C1 14.4921 4.29119 18.2155 8.59375 18.8907V12.6016H6.30859V10H8.59375V8.01719C8.59375 5.76156 9.93742 4.51563 11.9931 4.51563C12.9779 4.51563 14.0078 4.69141 14.0078 4.69141V6.90625H12.873C11.7549 6.90625 11.4062 7.60002 11.4062 8.3118V10H13.9023L13.5033 12.6016H11.4062V18.8907C15.7088 18.2155 19 14.4922 19 10Z" fill="#1877F2"/>
            <path d="M13.5033 12.6016L13.9023 10H11.4062V8.3118C11.4062 7.60002 11.7549 6.90625 12.873 6.90625H14.0078V4.69141C14.0078 4.69141 12.9779 4.51563 11.9931 4.51563C9.93742 4.51563 8.59375 5.76156 8.59375 8.01719V10H6.30859V12.6016H8.59375V18.8907C9.05895 18.9636 9.52912 19.0001 10 19C10.4709 19.0001 10.9411 18.9636 11.4062 18.8907V12.6016H13.5033Z" fill="white"/>
        </g>
    </g>
</svg>
