<svg width="20" height="20" viewBox="0 0 20 20" fill="none" xmlns="http://www.w3.org/2000/svg">
    <path d="M16.3367 16.2433H13.6697V12.0666C13.6697 11.0706 13.6519 9.78845 12.2826 9.78845C10.8935 9.78845 10.6809 10.8737 10.6809 11.9941V16.2431H8.01397V7.65397H10.5743V8.82777H10.6101C10.8663 8.38966 11.2366 8.02924 11.6815 7.78491C12.1263 7.54057 12.6291 7.42148 13.1363 7.44029C15.8395 7.44029 16.3378 9.21836 16.3378 11.5315L16.3367 16.2433ZM5.0046 6.47997C4.14981 6.48011 3.45674 5.78725 3.4566 4.93246C3.45646 4.07767 4.14925 3.3846 5.00403 3.38446C5.85882 3.38425 6.55189 4.07711 6.55203 4.9319C6.55211 5.34238 6.38912 5.73609 6.09892 6.02641C5.80872 6.31672 5.41508 6.47987 5.0046 6.47997ZM6.33814 16.2434H3.66831V7.65397H6.33807V16.2433L6.33814 16.2434ZM17.6663 0.90756H2.32815C1.60323 0.899404 1.00874 1.48011 0.999878 2.20504V17.6072C1.00846 18.3325 1.60288 18.9137 2.32808 18.9062H17.6663C18.3931 18.9152 18.9898 18.3339 18.9999 17.6072V2.20384C18.9895 1.47751 18.3927 0.896873 17.6663 0.906365" fill="#0A66C2"/>
</svg>
