<svg width="20" height="20" viewBox="0 0 20 20" fill="none" xmlns="http://www.w3.org/2000/svg">
    <g id="Socials / twitter">
        <path id="Vector" d="M19 4.42166C18.326 4.72026 17.611 4.91626 16.879 5.00314C17.6415 4.54611 18.227 3.82239 18.5027 2.96007C17.7778 3.39023 16.9847 3.69331 16.1577 3.85621C15.484 3.13853 14.5243 2.69 13.4621 2.69C11.4226 2.69 9.76909 4.34347 9.76909 6.38281C9.76909 6.67229 9.80179 6.9541 9.86472 7.22445C6.79558 7.0704 4.07448 5.60024 2.25304 3.36599C1.93523 3.9114 1.75312 4.54583 1.75312 5.22252C1.75312 6.50375 2.40513 7.63403 3.39597 8.2963C2.80953 8.27793 2.23599 8.11954 1.72323 7.83435C1.72302 7.84981 1.72302 7.86528 1.72302 7.88082C1.72302 9.67006 2.99596 11.1627 4.68529 11.5019C4.14148 11.6498 3.57107 11.6715 3.01762 11.5652C3.48752 13.0323 4.85137 14.1 6.46729 14.1298C5.20342 15.1203 3.61105 15.7107 1.88095 15.7107C1.58282 15.7107 1.28891 15.6932 1 15.6591C2.63427 16.7069 4.57539 17.3182 6.66086 17.3182C13.4535 17.3182 17.1679 11.6911 17.1679 6.81109C17.1679 6.65092 17.1644 6.49166 17.1573 6.33331C17.8802 5.81067 18.5042 5.16333 19 4.42166Z" fill="#55ACEE"/>
    </g>
</svg>
