<svg width="20" height="20" viewBox="0 0 20 20" fill="none" xmlns="http://www.w3.org/2000/svg">
    <g id="24 / Website">
        <path id="Vector (Stroke)" fill-rule="evenodd" clip-rule="evenodd" d="M1.7723 1.77217C2.26671 1.27776 2.93728 1 3.63649 1H16.3638C17.063 1 17.7335 1.27776 18.228 1.77217C18.7224 2.26659 19.0001 2.93716 19.0001 3.63636V12.7273C19.0001 13.4265 18.7224 14.097 18.228 14.5915C17.7335 15.0859 17.063 15.3636 16.3638 15.3636H13.0935L13.4662 16.8544L14.215 17.6033C14.449 17.8373 14.519 18.1892 14.3924 18.4949C14.2657 18.8007 13.9674 19 13.6365 19H6.36376C6.03284 19 5.7345 18.8007 5.60786 18.4949C5.48122 18.1892 5.55122 17.8373 5.78522 17.6033L6.53406 16.8544L6.90676 15.3636H3.63649C2.93728 15.3636 2.26671 15.0859 1.7723 14.5915C1.27788 14.097 1.00012 13.4265 1.00012 12.7273V3.63636C1.00012 2.93716 1.27788 2.26659 1.7723 1.77217ZM2.63649 11.7273V12.7273C2.63649 12.9925 2.74184 13.2468 2.92938 13.4344C3.11692 13.6219 3.37127 13.7273 3.63649 13.7273H16.3638C16.629 13.7273 16.8833 13.6219 17.0709 13.4344C17.2584 13.2468 17.3638 12.9925 17.3638 12.7273V11.7273H2.63649ZM17.3638 10.0909H2.63649V3.63636C2.63649 3.37115 2.74184 3.11679 2.92938 2.92926C3.11692 2.74172 3.37127 2.63636 3.63649 2.63636H16.3638C16.629 2.63636 16.8833 2.74172 17.0709 2.92926C17.2584 3.11679 17.3638 3.37115 17.3638 3.63636V10.0909ZM8.59349 15.3636L8.09349 17.3636H11.9068L11.4068 15.3636H8.59349Z" fill="#5A6384"/>
    </g>
</svg>
