<svg width="320" height="178" viewBox="0 0 320 178" fill="none" xmlns="http://www.w3.org/2000/svg">
<path d="M245.748 78.7026H212.515C215.017 78.7034 217.443 77.8703 219.387 76.3431C221.331 74.8158 222.674 72.6872 223.191 70.314C223.709 67.9408 223.37 65.4672 222.23 63.3078C221.09 61.1484 219.22 59.4345 216.932 58.4532H270.497C273.414 58.4439 276.207 57.3141 278.266 55.3113C280.325 53.3085 281.482 50.596 281.482 47.7683C281.482 44.9405 280.325 42.228 278.266 40.2252C276.207 38.2224 273.414 37.0926 270.497 37.0833H128.127C125.599 37.0827 123.147 37.9254 121.183 39.4699C119.22 41.0144 117.864 43.1668 117.343 45.5658C116.822 47.9648 117.169 50.4645 118.324 52.6454C119.479 54.8262 121.372 56.5555 123.687 57.543H69.7122C68.2782 57.5413 66.8578 57.8138 65.5324 58.3448C64.207 58.8757 63.0026 59.6548 61.988 60.6374C60.9733 61.62 60.1684 62.7868 59.6192 64.0712C59.07 65.3556 58.7874 66.7324 58.7874 68.1228C58.7874 69.5132 59.07 70.89 59.6192 72.1744C60.1684 73.4588 60.9733 74.6256 61.988 75.6082C63.0026 76.5908 64.207 77.3699 65.5324 77.9008C66.8578 78.4318 68.2782 78.7043 69.7122 78.7026H107.99C110.073 79.4499 111.871 80.7957 113.145 82.5601C114.418 84.3245 115.106 86.4236 115.116 88.5771C115.042 91.3488 113.966 94.0072 112.076 96.0878C110.26 97.9949 108.323 97.7468 105.893 97.7465C101.619 97.746 97.3444 97.746 93.0702 97.7465H47.3757C46.0254 97.7269 44.6845 97.9678 43.4311 98.4552C42.1777 98.9426 41.0367 99.6668 40.0747 100.586C39.1126 101.505 38.3486 102.6 37.8271 103.808C37.3057 105.015 37.0371 106.312 37.0371 107.621C37.0371 108.93 37.3057 110.227 37.8271 111.434C38.3486 112.642 39.1126 113.737 40.0747 114.656C41.0367 115.575 42.1777 116.299 43.4311 116.787C44.6845 117.274 46.0254 117.515 47.3757 117.496H100.46C98.0776 118.377 96.0885 120.04 94.8391 122.195C93.5896 124.351 93.1588 126.863 93.6215 129.294C94.0842 131.726 95.4111 133.923 97.3717 135.505C99.3323 137.086 101.802 137.951 104.353 137.95H225.238C227.477 137.951 229.663 137.284 231.497 136.04C233.332 134.795 234.727 133.033 235.493 130.993C236.259 128.953 236.358 126.734 235.778 124.637C235.198 122.54 233.966 120.668 232.25 119.273C229.953 117.407 226.651 117.618 224.276 115.915C222.98 114.928 221.931 113.669 221.209 112.233C220.488 110.796 220.112 109.219 220.109 107.622C220.142 104.835 221.246 102.16 223.205 100.121C225.445 97.9483 228.192 98.4518 231.094 98.4518H245.748C247.099 98.4718 248.44 98.2312 249.693 97.7439C250.947 97.2567 252.089 96.5325 253.051 95.6136C254.013 94.6946 254.778 93.5993 255.299 92.3913C255.821 91.1833 256.09 89.8868 256.09 88.5772C256.09 87.2676 255.821 85.9711 255.299 84.7631C254.778 83.5551 254.013 82.4598 253.051 81.5409C252.089 80.6219 250.947 79.8978 249.693 79.4105C248.44 78.9233 247.099 78.6826 245.748 78.7026Z" fill="#EFF6FF" stroke="#EFF6FF" stroke-linejoin="round"/>
<path d="M272.981 108.452C278.622 108.452 283.195 103.251 283.195 96.8346C283.195 90.4186 278.622 85.2175 272.981 85.2175C267.34 85.2175 262.768 90.4186 262.768 96.8346C262.768 103.251 267.34 108.452 272.981 108.452Z" fill="#EFF6FF" stroke="#EFF6FF" stroke-linejoin="round"/>
<path d="M230.456 144.185V151.605H89.7744V52.9066C89.7744 51.373 90.04 49.8543 90.556 48.4374C91.072 47.0205 91.8283 45.733 92.7818 44.6485C93.7352 43.5641 94.8671 42.7038 96.1128 42.1169C97.3586 41.53 98.6938 41.2279 100.042 41.2279H220.188C221.537 41.2279 222.872 41.53 224.118 42.1169C225.363 42.7038 226.495 43.5641 227.449 44.6485C228.402 45.733 229.159 47.0205 229.675 48.4374C230.191 49.8543 230.456 51.373 230.456 52.9066V132.349" fill="#FCFCFD"/>
<path d="M230.456 144.185V151.605H89.7744V52.9066C89.7744 51.373 90.04 49.8543 90.556 48.4374C91.072 47.0205 91.8283 45.733 92.7818 44.6485C93.7352 43.5641 94.8671 42.7038 96.1128 42.1169C97.3586 41.53 98.6938 41.2279 100.042 41.2279H220.188C221.537 41.2279 222.872 41.53 224.118 42.1169C225.363 42.7038 226.495 43.5641 227.449 44.6485C228.402 45.733 229.159 47.0205 229.675 48.4374C230.191 49.8543 230.456 51.373 230.456 52.9066V132.349" stroke="#3B82F6" stroke-width="2.5" stroke-miterlimit="10" stroke-linecap="round"/>
<path d="M105.44 46.1425H214.791C217.745 46.1425 220.579 47.4775 222.668 49.8538C224.757 52.2301 225.931 55.453 225.931 58.8136V146.691H94.2998V58.8136C94.2998 55.453 95.4735 52.2301 97.5627 49.8538C99.6519 47.4775 102.485 46.1425 105.44 46.1425Z" fill="#EFF6FF"/>
<path d="M100.848 60.5226C100.848 59.2556 101.29 58.0405 102.078 57.1446C102.866 56.2487 103.934 55.7453 105.048 55.7453H215.185C216.299 55.7453 217.367 56.2487 218.155 57.1446C218.943 58.0405 219.385 59.2556 219.385 60.5226V60.6572" fill="#FCFCFD"/>
<path d="M100.848 60.5226C100.848 59.2556 101.29 58.0405 102.078 57.1446C102.866 56.2487 103.934 55.7453 105.048 55.7453H215.185C216.299 55.7453 217.367 56.2487 218.155 57.1446C218.943 58.0405 219.385 59.2556 219.385 60.5226V60.6572" stroke="#3B82F6" stroke-width="2.5" stroke-linecap="round" stroke-linejoin="round"/>
<path d="M219.384 64.8268V143.531H100.848V64.8268" fill="#FCFCFD"/>
<path d="M219.384 64.8268V143.531H100.848V64.8268" stroke="#3B82F6" stroke-width="2.5" stroke-linecap="round" stroke-linejoin="round"/>
<path d="M104.929 62.4866H215.302" stroke="#3B82F6" stroke-width="2.5" stroke-linecap="round" stroke-linejoin="round"/>
<path d="M197.79 100.923H122.441C121.234 100.923 120.256 102.036 120.256 103.409V126.389C120.256 127.762 121.234 128.875 122.441 128.875H197.79C198.997 128.875 199.976 127.762 199.976 126.389V103.409C199.976 102.036 198.997 100.923 197.79 100.923Z" fill="#FCFCFD" stroke="#3B82F6" stroke-width="2.5" stroke-linecap="round" stroke-linejoin="round"/>
<path d="M126.438 99.429L128.179 88.3447C128.595 85.696 129.817 83.2981 131.631 81.5708C133.445 79.8436 135.735 78.8971 138.101 78.8971H182.132C184.498 78.8971 186.788 79.8436 188.602 81.5708C190.415 83.2981 191.637 85.696 192.053 88.3447L193.794 99.429" stroke="#3B82F6" stroke-width="2.5" stroke-linecap="round" stroke-linejoin="round"/>
<path d="M129.966 108.184H136.981" stroke="#3B82F6" stroke-width="2.5" stroke-miterlimit="10" stroke-linecap="round"/>
<path d="M184.284 108.184H191.299" stroke="#3B82F6" stroke-width="2.5" stroke-miterlimit="10" stroke-linecap="round"/>
<path d="M139.011 131.228C139.012 132.056 138.87 132.876 138.592 133.642C138.314 134.407 137.906 135.103 137.392 135.689C136.878 136.275 136.267 136.74 135.594 137.057C134.922 137.374 134.201 137.537 133.473 137.537C132.745 137.537 132.024 137.374 131.351 137.057C130.679 136.74 130.068 136.275 129.553 135.689C129.039 135.103 128.631 134.407 128.354 133.642C128.076 132.876 127.933 132.056 127.935 131.228" fill="#FCFCFD"/>
<path d="M139.011 131.228C139.012 132.056 138.87 132.876 138.592 133.642C138.314 134.407 137.906 135.103 137.392 135.689C136.878 136.275 136.267 136.74 135.594 137.057C134.922 137.374 134.201 137.537 133.473 137.537C132.745 137.537 132.024 137.374 131.351 137.057C130.679 136.74 130.068 136.275 129.553 135.689C129.039 135.103 128.631 134.407 128.354 133.642C128.076 132.876 127.933 132.056 127.935 131.228" stroke="#3B82F6" stroke-width="2.5" stroke-linecap="round" stroke-linejoin="round"/>
<path d="M193.329 131.228C193.33 132.056 193.188 132.876 192.91 133.642C192.633 134.407 192.225 135.103 191.71 135.689C191.196 136.275 190.585 136.74 189.913 137.057C189.24 137.374 188.519 137.537 187.791 137.537C187.063 137.537 186.342 137.374 185.67 137.057C184.997 136.74 184.386 136.275 183.872 135.689C183.357 135.103 182.95 134.407 182.672 133.642C182.394 132.876 182.252 132.056 182.253 131.228" fill="#FCFCFD"/>
<path d="M193.329 131.228C193.33 132.056 193.188 132.876 192.91 133.642C192.633 134.407 192.225 135.103 191.71 135.689C191.196 136.275 190.585 136.74 189.913 137.057C189.24 137.374 188.519 137.537 187.791 137.537C187.063 137.537 186.342 137.374 185.67 137.057C184.997 136.74 184.386 136.275 183.872 135.689C183.357 135.103 182.95 134.407 182.672 133.642C182.394 132.876 182.252 132.056 182.253 131.228" stroke="#3B82F6" stroke-width="2.5" stroke-linecap="round" stroke-linejoin="round"/>
</svg>
