<svg width="248" height="117" viewBox="0 0 248 117" fill="none" xmlns="http://www.w3.org/2000/svg">
<g id="garage">
<g id="Group">
<path id="Vector" d="M209.748 42.7026H176.515C179.017 42.7034 181.443 41.8703 183.387 40.3431C185.331 38.8158 186.674 36.6872 187.191 34.314C187.709 31.9408 187.37 29.4672 186.23 27.3078C185.09 25.1484 183.22 23.4345 180.932 22.4532H234.497C237.414 22.4439 240.207 21.3141 242.266 19.3113C244.325 17.3085 245.482 14.596 245.482 11.7683C245.482 8.94049 244.325 6.22803 242.266 4.22523C240.207 2.22242 237.414 1.0926 234.497 1.08334H92.1274C89.5989 1.08273 87.147 1.92539 85.1833 3.46991C83.2197 5.01443 81.8637 7.16679 81.343 9.56582C80.8223 11.9648 81.1686 14.4645 82.3236 16.6454C83.4787 18.8262 85.3723 20.5555 87.6867 21.543H33.7122C32.2782 21.5413 30.8578 21.8138 29.5324 22.3448C28.207 22.8757 27.0026 23.6548 25.988 24.6374C24.9733 25.62 24.1684 26.7868 23.6192 28.0712C23.07 29.3556 22.7874 30.7324 22.7874 32.1228C22.7874 33.5132 23.07 34.89 23.6192 36.1744C24.1684 37.4588 24.9733 38.6256 25.988 39.6082C27.0026 40.5908 28.207 41.3699 29.5324 41.9008C30.8578 42.4318 32.2782 42.7043 33.7122 42.7026H71.99C74.0731 43.4499 75.8714 44.7957 77.1447 46.5601C78.418 48.3245 79.1057 50.4236 79.116 52.5771C79.0424 55.3488 77.9665 58.0072 76.0762 60.0878C74.26 61.9949 72.3234 61.7468 69.8928 61.7465C65.6186 61.746 61.3444 61.746 57.0702 61.7465H11.3757C10.0254 61.7269 8.68449 61.9678 7.43108 62.4552C6.17767 62.9426 5.03674 63.6668 4.07468 64.5857C3.11261 65.5046 2.34862 66.5998 1.82714 67.8076C1.30566 69.0154 1.03711 70.3117 1.03711 71.621C1.03711 72.9304 1.30566 74.2266 1.82714 75.4344C2.34862 76.6422 3.11261 77.7374 4.07468 78.6563C5.03674 79.5752 6.17767 80.2994 7.43108 80.7868C8.68449 81.2743 10.0254 81.5152 11.3757 81.4956H64.4605C62.0776 82.3767 60.0885 84.0395 58.8391 86.1951C57.5896 88.3507 57.1588 90.8626 57.6215 93.2942C58.0842 95.7258 59.4111 97.9233 61.3717 99.5047C63.3323 101.086 65.8024 101.951 68.3527 101.95H189.238C191.477 101.951 193.663 101.284 195.497 100.04C197.332 98.7951 198.727 97.0331 199.493 94.9931C200.259 92.9531 200.358 90.734 199.778 88.6372C199.198 86.5404 197.966 84.6675 196.25 83.273C193.953 81.4069 190.651 81.6181 188.276 79.9148C186.98 78.928 185.931 77.669 185.209 76.2325C184.488 74.796 184.112 73.2195 184.109 71.6216C184.142 68.8348 185.246 66.16 187.205 64.1208C189.445 61.9483 192.192 62.4518 195.094 62.4518H209.748C211.099 62.4718 212.44 62.2312 213.693 61.7439C214.947 61.2567 216.089 60.5325 217.051 59.6136C218.013 58.6946 218.778 57.5993 219.299 56.3913C219.821 55.1833 220.09 53.8868 220.09 52.5772C220.09 51.2676 219.821 49.9711 219.299 48.7631C218.778 47.5551 218.013 46.4598 217.051 45.5409C216.089 44.6219 214.947 43.8978 213.693 43.4105C212.44 42.9233 211.099 42.6826 209.748 42.7026Z" fill="#EFF6FF" stroke="#EFF6FF" stroke-linejoin="round"/>
<path id="Vector_2" d="M236.981 72.4517C242.622 72.4517 247.195 67.2505 247.195 60.8346C247.195 54.4186 242.622 49.2175 236.981 49.2175C231.34 49.2175 226.768 54.4186 226.768 60.8346C226.768 67.2505 231.34 72.4517 236.981 72.4517Z" fill="#EFF6FF" stroke="#EFF6FF" stroke-linejoin="round"/>
</g>
<g id="Vector_3">
<path d="M194.456 108.185V115.605H53.7744V16.9066C53.7744 15.373 54.04 13.8543 54.556 12.4374C55.072 11.0205 55.8283 9.733 56.7818 8.64854C57.7352 7.56407 58.8671 6.70382 60.1128 6.11691C61.3586 5.53 62.6938 5.22791 64.0421 5.22791H184.188C185.537 5.22791 186.872 5.53 188.118 6.11691C189.363 6.70382 190.495 7.56407 191.449 8.64854C192.402 9.733 193.159 11.0205 193.675 12.4374C194.191 13.8543 194.456 15.373 194.456 16.9066V96.3485" fill="#FCFCFD"/>
<path d="M194.456 108.185V115.605H53.7744V16.9066C53.7744 15.373 54.04 13.8543 54.556 12.4374C55.072 11.0205 55.8283 9.733 56.7818 8.64854C57.7352 7.56407 58.8671 6.70382 60.1128 6.11691C61.3586 5.53 62.6938 5.22791 64.0421 5.22791H184.188C185.537 5.22791 186.872 5.53 188.118 6.11691C189.363 6.70382 190.495 7.56407 191.449 8.64854C192.402 9.733 193.159 11.0205 193.675 12.4374C194.191 13.8543 194.456 15.373 194.456 16.9066V96.3485" stroke="#3B82F6" stroke-width="2.5" stroke-miterlimit="10" stroke-linecap="round"/>
</g>
<path id="Vector_4" d="M69.44 10.1425H178.791C181.745 10.1425 184.579 11.4775 186.668 13.8538C188.757 16.2301 189.931 19.453 189.931 22.8136V110.691H58.2998V22.8136C58.2998 19.453 59.4735 16.2301 61.5627 13.8538C63.6519 11.4775 66.4855 10.1425 69.44 10.1425Z" fill="#EFF6FF"/>
<g id="Vector_5">
<path d="M64.8477 24.5226C64.8477 23.2556 65.2902 22.0405 66.0779 21.1446C66.8655 20.2487 67.9339 19.7453 69.0478 19.7453H179.185C180.299 19.7453 181.367 20.2487 182.155 21.1446C182.943 22.0405 183.385 23.2556 183.385 24.5226V24.6572" fill="#FCFCFD"/>
<path d="M64.8477 24.5226C64.8477 23.2556 65.2902 22.0405 66.0779 21.1446C66.8655 20.2487 67.9339 19.7453 69.0478 19.7453H179.185C180.299 19.7453 181.367 20.2487 182.155 21.1446C182.943 22.0405 183.385 23.2556 183.385 24.5226V24.6572" stroke="#3B82F6" stroke-width="2.5" stroke-linecap="round" stroke-linejoin="round"/>
</g>
<g id="Vector_6">
<path d="M183.384 28.8268V107.531H64.8477V28.8268" fill="#FCFCFD"/>
<path d="M183.384 28.8268V107.531H64.8477V28.8268" stroke="#3B82F6" stroke-width="2.5" stroke-linecap="round" stroke-linejoin="round"/>
</g>
<path id="Vector_7" d="M68.9287 26.4866H179.302" stroke="#3B82F6" stroke-width="2.5" stroke-linecap="round" stroke-linejoin="round"/>
<path id="Vector_8" d="M161.79 64.9233H86.4414C85.2343 64.9233 84.2559 66.0362 84.2559 67.4091V90.3892C84.2559 91.7621 85.2343 92.875 86.4414 92.875H161.79C162.997 92.875 163.976 91.7621 163.976 90.3892V67.4091C163.976 66.0362 162.997 64.9233 161.79 64.9233Z" fill="#FCFCFD" stroke="#3B82F6" stroke-width="2.5" stroke-linecap="round" stroke-linejoin="round"/>
<path id="Vector_9" d="M90.4385 63.429L92.1792 52.3447C92.5952 49.696 93.8171 47.2981 95.6309 45.5708C97.4447 43.8436 99.7349 42.8971 102.101 42.8971H146.132C148.498 42.8971 150.788 43.8436 152.602 45.5708C154.415 47.2981 155.637 49.696 156.053 52.3447L157.794 63.429" stroke="#3B82F6" stroke-width="2.5" stroke-linecap="round" stroke-linejoin="round"/>
<path id="Vector_10" d="M93.9658 72.1842H100.981" stroke="#3B82F6" stroke-width="2.5" stroke-miterlimit="10" stroke-linecap="round"/>
<path id="Vector_11" d="M148.284 72.1842H155.299" stroke="#3B82F6" stroke-width="2.5" stroke-miterlimit="10" stroke-linecap="round"/>
<g id="Vector_12">
<path d="M103.011 95.228C103.012 96.0561 102.87 96.8763 102.592 97.6417C102.314 98.4072 101.906 99.1028 101.392 99.6888C100.878 100.275 100.267 100.74 99.5942 101.057C98.9217 101.374 98.2008 101.537 97.4728 101.537C96.7447 101.537 96.0238 101.374 95.3513 101.057C94.6788 100.74 94.0678 100.275 93.5535 99.6888C93.0391 99.1028 92.6313 98.4072 92.3535 97.6417C92.0758 96.8763 91.9334 96.0561 91.9346 95.228" fill="#FCFCFD"/>
<path d="M103.011 95.228C103.012 96.0561 102.87 96.8763 102.592 97.6417C102.314 98.4072 101.906 99.1028 101.392 99.6888C100.878 100.275 100.267 100.74 99.5942 101.057C98.9217 101.374 98.2008 101.537 97.4728 101.537C96.7447 101.537 96.0238 101.374 95.3513 101.057C94.6788 100.74 94.0678 100.275 93.5535 99.6888C93.0391 99.1028 92.6313 98.4072 92.3535 97.6417C92.0758 96.8763 91.9334 96.0561 91.9346 95.228" stroke="#3B82F6" stroke-width="2.5" stroke-linecap="round" stroke-linejoin="round"/>
</g>
<g id="Vector_13">
<path d="M157.329 95.228C157.33 96.0561 157.188 96.8763 156.91 97.6417C156.633 98.4072 156.225 99.1028 155.71 99.6888C155.196 100.275 154.585 100.74 153.913 101.057C153.24 101.374 152.519 101.537 151.791 101.537C151.063 101.537 150.342 101.374 149.67 101.057C148.997 100.74 148.386 100.275 147.872 99.6888C147.357 99.1028 146.95 98.4072 146.672 97.6417C146.394 96.8763 146.252 96.0561 146.253 95.228" fill="#FCFCFD"/>
<path d="M157.329 95.228C157.33 96.0561 157.188 96.8763 156.91 97.6417C156.633 98.4072 156.225 99.1028 155.71 99.6888C155.196 100.275 154.585 100.74 153.913 101.057C153.24 101.374 152.519 101.537 151.791 101.537C151.063 101.537 150.342 101.374 149.67 101.057C148.997 100.74 148.386 100.275 147.872 99.6888C147.357 99.1028 146.95 98.4072 146.672 97.6417C146.394 96.8763 146.252 96.0561 146.253 95.228" stroke="#3B82F6" stroke-width="2.5" stroke-linecap="round" stroke-linejoin="round"/>
</g>
</g>
</svg>
