<svg width="36" height="36" viewBox="0 0 36 36" fill="none" xmlns="http://www.w3.org/2000/svg">
<rect x="0.5" y="0.5" width="35" height="35" rx="3.5" fill="white"/>
<path fill-rule="evenodd" clip-rule="evenodd" d="M24.25 10.5C23.5596 10.5 23 11.0596 23 11.75C23 12.4404 23.5596 13 24.25 13C24.9404 13 25.5 12.4404 25.5 11.75C25.5 11.0596 24.9404 10.5 24.25 10.5ZM21.6035 11C21.93 9.84575 22.9912 9 24.25 9C25.7688 9 27 10.2312 27 11.75C27 13.2688 25.7688 14.5 24.25 14.5C22.9912 14.5 21.93 13.6543 21.6035 12.5H9.75C9.33579 12.5 9 12.1642 9 11.75C9 11.3358 9.33579 11 9.75 11H21.6035ZM14 16.75C13.3096 16.75 12.75 17.3096 12.75 18C12.75 18.6904 13.3096 19.25 14 19.25C14.6904 19.25 15.25 18.6904 15.25 18C15.25 17.3096 14.6904 16.75 14 16.75ZM11.3535 17.25C11.68 16.0957 12.7412 15.25 14 15.25C15.2588 15.25 16.32 16.0957 16.6465 17.25H26.25C26.6642 17.25 27 17.5858 27 18C27 18.4142 26.6642 18.75 26.25 18.75H16.6465C16.32 19.9043 15.2588 20.75 14 20.75C12.7412 20.75 11.68 19.9043 11.3535 18.75H9.75C9.33579 18.75 9 18.4142 9 18C9 17.5858 9.33579 17.25 9.75 17.25H11.3535ZM19.75 23C19.0596 23 18.5 23.5596 18.5 24.25C18.5 24.9404 19.0596 25.5 19.75 25.5C20.4404 25.5 21 24.9404 21 24.25C21 23.5596 20.4404 23 19.75 23ZM17.1035 23.5C17.43 22.3457 18.4912 21.5 19.75 21.5C21.0088 21.5 22.07 22.3457 22.3965 23.5H26.25C26.6642 23.5 27 23.8358 27 24.25C27 24.6642 26.6642 25 26.25 25H22.3965C22.07 26.1543 21.0088 27 19.75 27C18.4912 27 17.43 26.1543 17.1035 25H9.75C9.33579 25 9 24.6642 9 24.25C9 23.8358 9.33579 23.5 9.75 23.5H17.1035Z" fill="#359721"/>
<rect x="0.5" y="0.5" width="35" height="35" rx="3.5" stroke="#B7DEAE"/>
</svg>
