<svg width="22" height="17" viewBox="0 0 22 17" fill="none" xmlns="http://www.w3.org/2000/svg">
<path d="M0.178816 0.0171861C0.33265 -0.0127804 0.490797 0.00633625 0.646069 0.0027196C6.68538 0.00168628 12.7247 0.00375299 18.764 0.00116967C18.8987 0.00995296 19.0621 -0.0318967 19.1685 0.0828027C19.2427 0.153069 19.248 0.265701 19.248 0.364901C19.2461 1.78004 19.2485 3.19519 19.2466 4.61033C19.2667 4.78754 19.1225 4.94874 18.9571 4.93014C12.8062 4.93376 6.65471 4.92911 0.503257 4.93221C0.363321 4.92239 0.195109 4.96631 0.0829687 4.85213C-0.0219836 4.75034 0.00533274 4.58553 0.000540396 4.45016C0.00389503 3.07067 -0.000418028 1.69118 0.00245738 0.311684C-0.00664807 0.185102 0.0637994 0.0549026 0.178816 0.0171861ZM0.521468 0.563817C0.521468 1.83274 0.521468 3.10115 0.521468 4.37008C1.98457 4.37008 3.44719 4.37008 4.91029 4.37008C4.91077 3.10115 4.91077 1.83274 4.91029 0.563817C3.44719 0.563817 1.98457 0.563817 0.521468 0.563817ZM5.43026 0.563817C5.42978 1.83274 5.42978 3.10115 5.43026 4.36956C9.8627 4.37008 14.2951 4.37008 18.7276 4.36956C18.7276 3.10115 18.7276 1.83274 18.7276 0.563817C14.2951 0.563817 9.8627 0.563817 5.43026 0.563817Z" fill="white"/>
<path d="M3.62403 1.50673C3.69352 1.43698 3.76157 1.34605 3.86317 1.33623C4.00981 1.31091 4.15119 1.45041 4.15023 1.60799C4.1579 1.73406 4.06445 1.82241 3.99064 1.90508C3.49224 2.43466 3.00246 2.97354 2.50406 3.5026C2.41013 3.61575 2.23713 3.62298 2.13745 3.515C1.88249 3.27165 1.6285 3.02675 1.37642 2.77979C1.24942 2.67439 1.25038 2.44706 1.38026 2.34476C1.47898 2.25693 1.63185 2.26932 1.72147 2.36594C1.91939 2.54987 2.11061 2.74259 2.30709 2.92859C2.74559 2.45429 3.18745 1.98309 3.62403 1.50673Z" fill="white"/>
<path d="M2.87163 6.07869C2.99575 6.00584 3.14527 6.04097 3.2809 6.0327C9.41701 6.03477 15.5526 6.03271 21.6888 6.03374C21.8613 6.00791 22.0204 6.16859 21.9979 6.35717C21.9983 7.78833 21.9993 9.22001 21.9974 10.6506C22.0089 10.7917 21.9164 10.9415 21.7808 10.9555C21.6384 10.9715 21.4951 10.9606 21.3528 10.9622C15.3135 10.9632 9.2742 10.9612 3.23489 10.9637C3.09927 10.955 2.93585 10.9968 2.82898 10.8821C2.75374 10.8103 2.75086 10.6961 2.75039 10.5969C2.75278 9.18332 2.75039 7.76973 2.75134 6.35614C2.74655 6.2497 2.78202 6.135 2.87163 6.07869ZM3.27083 6.59535C3.27035 7.86376 3.27035 9.13217 3.27083 10.4006C4.73394 10.4011 6.19704 10.4011 7.66014 10.4011C7.66014 9.13217 7.66014 7.86376 7.66014 6.59535C6.19704 6.59484 4.73394 6.59484 3.27083 6.59535ZM8.18107 6.59484C8.18107 7.86376 8.18107 9.13217 8.18107 10.4011C12.6135 10.4011 17.0459 10.4011 21.4784 10.4011C21.4784 9.13217 21.4784 7.86376 21.4784 6.59484C17.0459 6.59484 12.6135 6.59484 8.18107 6.59484Z" fill="white"/>
<path d="M6.45774 7.45508C6.56988 7.31868 6.7956 7.35175 6.8694 7.51553C6.93602 7.63643 6.89145 7.78936 6.79848 7.87823C6.28522 8.42692 5.77579 8.98079 5.26253 9.52949C5.17435 9.63592 5.01045 9.66537 4.9079 9.56617C4.67355 9.35434 4.45358 9.12442 4.22116 8.91052C4.13154 8.82321 4.01413 8.72607 4.0309 8.57882C4.03521 8.37319 4.28298 8.24041 4.43394 8.37009C4.64959 8.55764 4.84703 8.76896 5.05742 8.96322C5.52371 8.46051 5.98905 7.95573 6.45774 7.45508Z" fill="white"/>
<path d="M0.193672 12.0808C0.344151 12.0555 0.497027 12.071 0.648465 12.0684C6.65518 12.0679 12.6614 12.0684 18.6681 12.0679C18.7999 12.0699 18.9336 12.056 19.064 12.0823C19.1948 12.118 19.2595 12.2688 19.2475 12.4052C19.2461 13.8359 19.249 15.267 19.2461 16.6977C19.2595 16.8687 19.1129 17.0144 18.9571 16.9968C12.7419 16.9979 6.52627 16.9968 0.311084 16.9973C0.147186 17.0216 -0.0152743 16.8759 0.00293659 16.692C6.11889e-05 15.2629 0.00245733 13.8333 0.00149886 12.4042C-0.0114405 12.2647 0.0599654 12.1123 0.193672 12.0808ZM0.521468 12.6295C0.521468 13.8984 0.521468 15.1668 0.521468 16.4352C1.98457 16.4357 3.44719 16.4357 4.91029 16.4357C4.91029 15.1668 4.91077 13.8984 4.91029 12.6295C3.44719 12.63 1.98457 12.6295 0.521468 12.6295ZM5.43026 12.63C5.42978 13.8984 5.43026 15.1668 5.43026 16.4357C9.8627 16.4357 14.2951 16.4357 18.7276 16.4357C18.7276 15.1668 18.7281 13.8984 18.7276 12.63C14.2951 12.6295 9.8627 12.6295 5.43026 12.63Z" fill="white"/>
<path d="M3.71221 13.484C3.81956 13.3585 4.0285 13.3812 4.10853 13.529C4.18569 13.6483 4.14879 13.8126 4.05151 13.9046C3.54016 14.4554 3.03026 15.0072 2.51796 15.5574C2.42019 15.6824 2.23329 15.6959 2.12786 15.5739C1.87339 15.3275 1.61556 15.0852 1.36444 14.8346C1.25182 14.7318 1.25518 14.5261 1.36684 14.4244C1.45645 14.3319 1.60885 14.3277 1.70182 14.4171C1.90885 14.6036 2.1039 14.8057 2.30757 14.9963C2.77531 14.492 3.2416 13.9857 3.71221 13.484Z" fill="white"/>
</svg>
