<svg width="24" height="24" viewBox="0 0 24 24" fill="none" xmlns="http://www.w3.org/2000/svg">
<path d="M22.0601 7.59829L8.06042 21.5897C8.26041 21.3997 8.26041 21.0797 8.06042 20.8897L7.71042 20.5396L21.0001 7.23825L20.6501 6.88822C20.7401 6.97823 20.8701 7.03823 21.0001 7.03823C21.1301 7.03823 21.2601 6.97823 21.3501 6.88822L21.7101 6.53818L22.0601 6.88822C22.25 7.07824 22.25 7.39827 22.0601 7.59829Z" fill="#4D4D4D"/>
<path d="M23.12 5.11803L21.7101 6.53818L21.0001 5.82811L22.41 4.40796C22.79 4.03792 23 3.52787 23 2.99781C23 2.46776 22.79 1.9577 22.41 1.58767C21.6401 0.807584 20.3601 0.807584 19.5901 1.58767L18.1702 2.99781L17.4702 2.29774L18.8801 0.877591C20.0501 -0.29253 21.9501 -0.29253 23.12 0.877591C23.69 1.44765 24 2.19773 24 2.99781C24 3.7979 23.69 4.54797 23.12 5.11803Z" fill="#4D4D4D"/>
<path d="M21.0001 5.82811L21.7101 6.53818L21.3501 6.88822C21.2601 6.97823 21.1301 7.03823 21.0001 7.03823C20.8701 7.03823 20.7401 6.97823 20.6501 6.88822L17.1102 3.34785C16.9202 3.15783 16.9202 2.8378 17.1102 2.64778L17.4702 2.29774L18.1702 2.99781L21.0001 5.82811Z" fill="#4D4D4D"/>
<path d="M15.6902 3.34785L15.3402 2.99781L16.4002 1.9377C16.5902 1.74768 16.9202 1.74768 17.1102 1.9377L17.4702 2.29774L17.1102 2.64778C16.9202 2.8378 16.9202 3.15783 17.1102 3.34785L16.7602 2.99781L15.7002 4.06792L15.6902 4.05792C15.8902 3.8679 15.8902 3.54787 15.6902 3.34785Z" fill="#4D4D4D"/>
<path d="M15.3402 2.99781L15.6902 3.34785C15.8902 3.54787 15.8902 3.8679 15.6902 4.05792C15.5002 4.25794 15.1802 4.25794 14.9902 4.05792L14.6402 3.70789L15.3402 2.99781Z" fill="#4D4D4D"/>
<path d="M7.90042 21.6998C7.96042 21.6798 8.02042 21.6398 8.06042 21.5897C8.02042 21.6398 7.96042 21.6698 7.90042 21.6998Z" fill="#4D4D4D"/>
<path d="M7.71042 21.7398C7.58043 21.7398 7.45043 21.6898 7.36043 21.5898L6.78045 21.0097L7.45043 20.7997L7.71042 20.5396L8.06042 20.8897C8.26041 21.0797 8.26041 21.3997 8.06042 21.5897C8.02042 21.6398 7.96042 21.6798 7.90042 21.6998C7.84042 21.7298 7.78042 21.7398 7.71042 21.7398Z" fill="#4D4D4D"/>
<path d="M12.1603 3.34785L7.21044 8.29836C7.11044 8.39838 6.99044 8.44838 6.86045 8.44838C6.73045 8.44838 6.60045 8.39838 6.50045 8.29836C6.31046 8.10835 6.31046 7.78831 6.50045 7.59829L11.4503 2.64778C12.4003 1.69768 14.0503 1.69768 14.9902 2.64778L15.3402 2.99781L14.6402 3.70789L14.2803 3.34785C13.7203 2.78779 12.7303 2.78779 12.1603 3.34785Z" fill="#4D4D4D"/>
<path d="M3.47053 16.2892L7.71042 20.5396L7.45043 20.7997L6.78045 21.0097L2.99055 17.2193L3.20054 16.5592L3.47053 16.2892Z" fill="#4D4D4D"/>
<path d="M3.20054 16.5592L2.99055 17.2193L2.41056 16.6392C2.26057 16.4992 2.22057 16.2792 2.30056 16.0992C2.32056 16.0392 2.36056 15.9892 2.41056 15.9392C2.60056 15.7391 2.92055 15.7391 3.12054 15.9392L3.47053 16.2892L3.20054 16.5592Z" fill="#4D4D4D"/>
<path d="M15.7002 4.06792L3.47053 16.2892L3.12054 15.9392C2.92055 15.7391 2.60056 15.7391 2.41056 15.9392L14.6402 3.70789L14.9902 4.05792C15.1802 4.25794 15.5002 4.25794 15.6902 4.05792L15.7002 4.06792Z" fill="#4D4D4D"/>
<path d="M2.30056 16.0992C2.32056 16.0392 2.36056 15.9892 2.41056 15.9392C2.36056 15.9792 2.33056 16.0392 2.30056 16.0992Z" fill="#4D4D4D"/>
<path d="M7.86042 21.7198L0.650607 23.98C0.600608 23.99 0.55061 24 0.500611 24C0.370614 24 0.240618 23.95 0.15062 23.85C0.0106235 23.72 -0.0293754 23.53 0.0206233 23.3499L2.28056 16.1392C2.29056 16.1292 2.29056 16.1092 2.30056 16.0992C2.22057 16.2792 2.26057 16.4992 2.41056 16.6392L2.99055 17.2193L1.26059 22.7399L6.78045 21.0097L7.36043 21.5898C7.45043 21.6898 7.58043 21.7398 7.71042 21.7398C7.78042 21.7398 7.84042 21.7298 7.90042 21.6998C7.89042 21.7098 7.87042 21.7098 7.86042 21.7198Z" fill="#4D4D4D"/>
</svg>
