<svg width="21" height="24" viewBox="0 0 21 24" fill="none" xmlns="http://www.w3.org/2000/svg">
<path id="Ellipse 356" d="M9 0.6C9 0.268629 9.26881 -0.00156486 9.59977 0.0149961C11.3657 0.103364 13.093 0.581104 14.6568 1.41694C16.3972 2.3472 17.8813 3.69232 18.9776 5.33316C20.074 6.97399 20.7488 8.85988 20.9422 10.8238C21.1356 12.7877 20.8417 14.769 20.0866 16.5922C19.3314 18.4154 18.1382 20.0242 16.6127 21.2761C15.0873 22.528 13.2766 23.3844 11.3411 23.7694C9.40559 24.1544 7.40502 24.0561 5.51659 23.4833C3.81982 22.9686 2.26064 22.085 0.949426 20.8988C0.703694 20.6765 0.704671 20.2953 0.938985 20.061V20.061C1.1733 19.8267 1.55213 19.8281 1.79909 20.049C2.96987 21.0965 4.35704 21.8775 5.86493 22.335C7.56452 22.8505 9.36503 22.939 11.107 22.5925C12.8489 22.246 14.4785 21.4752 15.8514 20.3485C17.2244 19.2218 18.2982 17.7739 18.9779 16.133C19.6576 14.4921 19.9221 12.7089 19.748 10.9414C19.5739 9.1739 18.9666 7.47659 17.9799 5.99984C16.9931 4.52309 15.6574 3.31248 14.0911 2.47525C12.7014 1.73245 11.1682 1.30389 9.59971 1.21666C9.26885 1.19826 9 0.931371 9 0.6V0.6Z" fill="#78C269"/>
</svg>
