<svg width="16" height="16" viewBox="0 0 16 16" fill="none" xmlns="http://www.w3.org/2000/svg">
<g id="24 / File">
<rect width="16" height="16" fill="#D9DDEC"/>
<path id="Icon" fill-rule="evenodd" clip-rule="evenodd" d="M4.60039 1.9998C4.04811 1.9998 3.60039 2.44752 3.60039 2.9998V12.9998C3.60039 13.5521 4.04811 13.9998 4.60039 13.9998H11.4004C11.9527 13.9998 12.4004 13.5521 12.4004 12.9998V5.9998H9.00039C8.66902 5.9998 8.40039 5.73118 8.40039 5.3998V1.9998H4.60039ZM9.60039 2.84833L11.5519 4.7998H9.60039V2.84833ZM2.40039 2.9998C2.40039 1.78478 3.38536 0.799805 4.60039 0.799805H9.00039C9.15952 0.799805 9.31213 0.863019 9.42465 0.975541L13.4247 4.97554C13.5372 5.08806 13.6004 5.24067 13.6004 5.3998V12.9998C13.6004 14.2148 12.6154 15.1998 11.4004 15.1998H4.60039C3.38536 15.1998 2.40039 14.2148 2.40039 12.9998V2.9998Z" fill="#A3AAC2"/>
</g>
</svg>
