<svg width="20" height="20" viewBox="0 0 20 20" fill="none" xmlns="http://www.w3.org/2000/svg">
<g id="24/ Image">
<path id="Icon" fill-rule="evenodd" clip-rule="evenodd" d="M1.66701 4.21329C1.66701 2.80701 2.80703 1.66699 4.2133 1.66699H15.7874C17.1936 1.66699 18.3337 2.80701 18.3337 4.21329V12.5447C18.3337 12.5461 18.3337 12.5474 18.3337 12.5488V15.7873C18.3337 17.1936 17.1936 18.3336 15.7874 18.3336H4.2133C2.80703 18.3336 1.66701 17.1936 1.66701 15.7873V12.3979C1.66699 12.3944 1.66699 12.391 1.66701 12.3875V4.21329ZM3.0559 12.7195V15.7873C3.0559 16.4266 3.57409 16.9448 4.2133 16.9448H15.7874C16.4266 16.9448 16.9448 16.4266 16.9448 15.7873V12.8484L14.0949 10.1885L11.5539 11.8826L13.5102 13.9171C13.776 14.1936 13.7674 14.6332 13.4909 14.899C13.2145 15.1649 12.7748 15.1562 12.509 14.8798L7.16816 9.32529L3.0559 12.7195ZM10.5758 10.8654L7.72314 7.89862C7.47144 7.63686 7.06057 7.61321 6.7805 7.84438L3.0559 10.9187V4.21329C3.0559 3.57407 3.57409 3.05588 4.2133 3.05588H15.7874C16.4266 3.05588 16.9448 3.57407 16.9448 4.21329V10.9485L14.6408 8.79819C14.4054 8.57845 14.0498 8.54941 13.7818 8.72806L10.5758 10.8654Z" fill="#787F9D"/>
</g>
</svg>
