<svg width="16" height="16" viewBox="0 0 16 16" fill="none" xmlns="http://www.w3.org/2000/svg">
<g id="24/ Image">
<rect width="16" height="16" fill="#D9DDEC"/>
<path id="Icon" fill-rule="evenodd" clip-rule="evenodd" d="M1.33302 3.37053C1.33302 2.24551 2.24503 1.3335 3.37006 1.3335H12.6293C13.7543 1.3335 14.6663 2.24551 14.6663 3.37053V10.0357C14.6663 10.0368 14.6663 10.0378 14.6663 10.0389V12.6298C14.6663 13.7548 13.7543 14.6668 12.6293 14.6668H3.37006C2.24503 14.6668 1.33302 13.7548 1.33302 12.6298V9.91819C1.333 9.91542 1.333 9.91266 1.33302 9.9099V3.37053ZM2.44413 10.1755V12.6298C2.44413 13.1412 2.85868 13.5557 3.37006 13.5557H12.6293C13.1407 13.5557 13.5552 13.1412 13.5552 12.6298V10.2786L11.2754 8.15073L9.24251 9.50596L10.8075 11.1336C11.0202 11.3548 11.0133 11.7065 10.7921 11.9191C10.571 12.1318 10.2193 12.1249 10.0066 11.9037L5.73394 7.46014L2.44413 10.1755ZM8.46005 8.69221L6.17792 6.3188C5.97657 6.10939 5.64787 6.09047 5.42382 6.2754L2.44413 8.73482V3.37053C2.44413 2.85916 2.85868 2.44461 3.37006 2.44461H12.6293C13.1407 2.44461 13.5552 2.85916 13.5552 3.37053V8.75874L11.7121 7.03846C11.5237 6.86266 11.2392 6.83943 11.0248 6.98235L8.46005 8.69221Z" fill="#A3AAC2"/>
</g>
</svg>
