<svg width="16" height="16" viewBox="0 0 16 16" fill="none" xmlns="http://www.w3.org/2000/svg">
<g id="24 / Insurance">
<path id="Icon" fill-rule="evenodd" clip-rule="evenodd" d="M7.82152 1.19166C8.04279 0.9895 8.38173 0.9895 8.603 1.19166C9.45069 1.96612 10.1936 2.5194 10.9815 2.86965C11.7593 3.2154 12.6111 3.37644 13.6931 3.31794C13.9695 3.30299 14.2178 3.48566 14.2859 3.75396C14.4807 4.52201 14.5847 5.32637 14.5847 6.15548C14.5847 10.514 12.5019 14.3356 8.3591 15.4211C8.26283 15.4463 8.16169 15.4463 8.06542 15.4211C3.92263 14.3356 1.83985 10.5133 1.83985 6.15548H2.41916L1.83985 6.15595C1.83985 6.15579 1.83985 6.15564 1.83985 6.15548C1.83924 5.3454 1.93963 4.53845 2.13865 3.75395C2.20671 3.48566 2.45506 3.303 2.73145 3.31794C3.81337 3.37644 4.66523 3.2154 5.44301 2.86965C6.23089 2.5194 6.97382 1.96612 7.82152 1.19166ZM3.16046 4.48832C3.05236 5.03661 2.99802 5.59493 2.99847 6.15502L2.99847 6.15548C2.99847 10.1164 4.83343 13.299 8.21226 14.2602C11.5911 13.299 13.4261 10.1171 13.4261 6.15548C13.4261 5.58414 13.3702 5.02692 13.264 4.48832C12.2336 4.48778 11.3445 4.29895 10.5109 3.92837C9.69844 3.56722 8.96093 3.04308 8.21226 2.395C7.46359 3.04308 6.72608 3.56722 5.91365 3.92837C5.08 4.29896 4.19094 4.48778 3.16046 4.48832ZM10.8251 6.4912C11.0533 6.71539 11.0567 7.08217 10.8325 7.31044L7.88994 10.3066C7.78101 10.4175 7.63208 10.48 7.47663 10.48C7.32117 10.48 7.17224 10.4175 7.06331 10.3066L5.59205 8.8085C5.36786 8.58023 5.37117 8.21345 5.59944 7.98927C5.82771 7.76508 6.19449 7.76839 6.41868 7.99666L7.47663 9.07388L10.0058 6.4986C10.23 6.27033 10.5968 6.26702 10.8251 6.4912Z" fill="#A3AAC2"/>
</g>
</svg>
