<svg width="20" height="20" viewBox="0 0 20 20" fill="none" xmlns="http://www.w3.org/2000/svg">
<g id="24 / Journal">
<path id="Icon" fill-rule="evenodd" clip-rule="evenodd" d="M8.32427 1H11.6767C11.9342 0.999983 12.1707 0.999966 12.3684 1.01612C12.5815 1.03353 12.8147 1.07339 13.045 1.19074C13.3743 1.35852 13.642 1.62624 13.8098 1.95552C13.9271 2.18583 13.967 2.419 13.9844 2.63213C13.9935 2.7435 13.9974 2.86719 13.9992 3L14.0809 3C14.6151 2.99999 15.0609 2.99998 15.4252 3.02974C15.805 3.06078 16.1617 3.12789 16.499 3.29973C17.0164 3.56339 17.4371 3.98408 17.7008 4.50153C17.8726 4.83879 17.9397 5.19545 17.9707 5.57533C18.0005 5.93956 18.0005 6.3854 18.0005 6.91955V15.0805C18.0005 15.6146 18.0005 16.0604 17.9707 16.4247C17.9397 16.8046 17.8726 17.1612 17.7008 17.4985C17.4371 18.0159 17.0164 18.4366 16.499 18.7003C16.1617 18.8721 15.805 18.9392 15.4252 18.9703C15.0609 19 14.6151 19 14.0809 19H5.92004C5.38589 19 4.94005 19 4.57582 18.9703C4.19593 18.9392 3.83928 18.8721 3.50202 18.7003C2.98457 18.4366 2.56387 18.0159 2.30022 17.4985C2.12838 17.1612 2.06127 16.8046 2.03023 16.4247C2.00047 16.0604 2.00048 15.6146 2.00049 15.0804V6.91957C2.00048 6.38541 2.00047 5.93957 2.03023 5.57533C2.06127 5.19545 2.12838 4.83879 2.30022 4.50153C2.56387 3.98408 2.98457 3.56339 3.50202 3.29973C3.83928 3.12789 4.19593 3.06078 4.57582 3.02974C4.94005 2.99998 5.3859 2.99999 5.92005 3L6.00181 3C6.00354 2.86719 6.0075 2.7435 6.0166 2.63213C6.03402 2.419 6.07388 2.18583 6.19123 1.95552C6.35901 1.62624 6.62672 1.35852 6.95601 1.19074C7.18631 1.07339 7.41948 1.03353 7.63262 1.01612C7.8303 0.999966 8.06678 0.999983 8.32427 1ZM6.00181 4.5H5.95049C5.37806 4.5 4.99385 4.50059 4.69797 4.52476C4.41084 4.54822 4.27356 4.5901 4.183 4.63624C3.9478 4.75609 3.75657 4.94731 3.63673 5.18251C3.59059 5.27308 3.54871 5.41036 3.52525 5.69748C3.50107 5.99336 3.50049 6.37757 3.50049 6.95V15.05C3.50049 15.6224 3.50107 16.0066 3.52525 16.3025C3.54871 16.5896 3.59059 16.7269 3.63673 16.8175C3.75657 17.0527 3.9478 17.2439 4.183 17.3638C4.27356 17.4099 4.41084 17.4518 4.69797 17.4752C4.99385 17.4994 5.37806 17.5 5.95049 17.5H14.0505C14.6229 17.5 15.0071 17.4994 15.303 17.4752C15.5901 17.4518 15.7274 17.4099 15.818 17.3638C16.0532 17.2439 16.2444 17.0527 16.3642 16.8175C16.4104 16.7269 16.4523 16.5896 16.4757 16.3025C16.4999 16.0066 16.5005 15.6224 16.5005 15.05V6.95C16.5005 6.37757 16.4999 5.99336 16.4757 5.69748C16.4523 5.41036 16.4104 5.27308 16.3642 5.18251C16.2444 4.94731 16.0532 4.75609 15.818 4.63624C15.7274 4.5901 15.5901 4.54822 15.303 4.52476C15.0071 4.50059 14.6229 4.5 14.0505 4.5H13.9992C13.9974 4.63282 13.9935 4.7565 13.9844 4.86787C13.967 5.08101 13.9271 5.31418 13.8098 5.54449C13.642 5.87377 13.3743 6.14148 13.045 6.30926C12.8147 6.42661 12.5815 6.46647 12.3684 6.48389C12.1707 6.50004 11.9342 6.50002 11.6767 6.5H8.32428C8.06679 6.50002 7.8303 6.50004 7.63262 6.48389C7.41948 6.46647 7.18631 6.42661 6.95601 6.30926C6.62672 6.14149 6.35901 5.87377 6.19123 5.54449C6.07388 5.31418 6.03402 5.08101 6.0166 4.86787C6.0075 4.7565 6.00354 4.63282 6.00181 4.5ZM7.63136 2.52973C7.63134 2.52972 7.6318 2.52953 7.63285 2.52918ZM7.63395 2.52883C7.64283 2.52607 7.67596 2.51757 7.75477 2.51114C7.88389 2.50059 8.05809 2.5 8.35049 2.5H11.6505C11.9429 2.5 12.1171 2.50059 12.2462 2.51114C12.325 2.51757 12.3581 2.52607 12.367 2.52883C12.4117 2.55235 12.4481 2.58882 12.4717 2.63346C12.4744 2.64234 12.4829 2.67547 12.4894 2.75428C12.4999 2.88341 12.5005 3.0576 12.5005 3.35V4.15C12.5005 4.4424 12.4999 4.6166 12.4894 4.74573C12.4829 4.82454 12.4744 4.85767 12.4717 4.86654C12.4481 4.91118 12.4117 4.94766 12.367 4.97118C12.3581 4.97393 12.325 4.98243 12.2462 4.98887C12.1171 4.99942 11.9429 5 11.6505 5H8.35049C8.05809 5 7.88389 4.99942 7.75477 4.98887C7.67596 4.98243 7.64283 4.97393 7.63395 4.97118C7.58931 4.94766 7.55283 4.91118 7.52931 4.86654C7.52656 4.85766 7.51806 4.82454 7.51162 4.74573C7.50107 4.6166 7.50049 4.4424 7.50049 4.15V3.35C7.50049 3.0576 7.50107 2.88341 7.51162 2.75428C7.51806 2.67547 7.52656 2.64235 7.52931 2.63347C7.55283 2.58883 7.58931 2.55235 7.63395 2.52883ZM7.53022 2.63088C7.53023 2.6309 7.53005 2.63144 7.52965 2.63239ZM7.53022 4.86913C7.53021 4.86916 7.53001 4.86869 7.52967 4.86764ZM7.63136 4.97028C7.63139 4.97026 7.63192 4.97044 7.63288 4.97084ZM12.3696 4.97028C12.3696 4.97029 12.3692 4.97048 12.3681 4.97083ZM12.4708 4.86913C12.4708 4.8691 12.4709 4.86858 12.4713 4.86765ZM12.4708 2.63088C12.4708 2.63085 12.471 2.63132 12.4713 2.63236ZM12.3681 2.52918C12.3692 2.52952 12.3696 2.52972 12.3696 2.52973Z" fill="#787F9D"/>
</g>
</svg>
