<svg width="16" height="16" viewBox="0 0 16 16" fill="none" xmlns="http://www.w3.org/2000/svg">
<g id="24 / Journal">
<path id="Icon" fill-rule="evenodd" clip-rule="evenodd" d="M6.65961 0.799806H9.34156C9.54755 0.799791 9.73673 0.799777 9.89488 0.812699C10.0654 0.82663 10.2519 0.85852 10.4362 0.952398C10.6996 1.08662 10.9138 1.30079 11.048 1.56422C11.1419 1.74847 11.1738 1.935 11.1877 2.10551C11.195 2.19461 11.1981 2.29355 11.1995 2.39981L11.2649 2.39981C11.6923 2.3998 12.0489 2.39979 12.3403 2.4236C12.6442 2.44843 12.9296 2.50212 13.1994 2.63959C13.6133 2.85051 13.9499 3.18707 14.1608 3.60103C14.2983 3.87084 14.352 4.15616 14.3768 4.46007C14.4006 4.75145 14.4006 5.10813 14.4006 5.53544V12.0642C14.4006 12.4915 14.4006 12.8482 14.3768 13.1395C14.352 13.4435 14.2983 13.7288 14.1608 13.9986C13.9499 14.4125 13.6133 14.7491 13.1994 14.96C12.9296 15.0975 12.6442 15.1512 12.3403 15.176C12.0489 15.1998 11.6923 15.1998 11.2649 15.1998H4.73622C4.30891 15.1998 3.95223 15.1998 3.66085 15.176C3.35694 15.1512 3.07162 15.0975 2.80181 14.96C2.38785 14.7491 2.05129 14.4125 1.84037 13.9986C1.7029 13.7288 1.64921 13.4435 1.62438 13.1395C1.60057 12.8482 1.60058 12.4915 1.60059 12.0642V5.53546C1.60058 5.10814 1.60057 4.75146 1.62438 4.46007C1.64921 4.15616 1.7029 3.87084 1.84037 3.60103C2.05129 3.18707 2.38785 2.85051 2.80181 2.63959C3.07162 2.50212 3.35694 2.44843 3.66085 2.4236C3.95224 2.39979 4.30892 2.3998 4.73624 2.39981L4.80164 2.39981C4.80303 2.29355 4.8062 2.19461 4.81348 2.10551C4.82741 1.935 4.8593 1.74847 4.95318 1.56422C5.0874 1.30079 5.30157 1.08662 5.565 0.952398C5.74925 0.85852 5.93578 0.82663 6.10629 0.812699C6.26444 0.799777 6.45362 0.799791 6.65961 0.799806ZM4.80164 3.59981H4.76059C4.30264 3.59981 3.99527 3.60027 3.75857 3.61961C3.52887 3.63838 3.41904 3.67189 3.3466 3.7088C3.15843 3.80467 3.00545 3.95765 2.90958 4.14582C2.87267 4.21827 2.83916 4.32809 2.82039 4.55779C2.80105 4.79449 2.80059 5.10186 2.80059 5.55981V12.0398C2.80059 12.4977 2.80105 12.8051 2.82039 13.0418C2.83916 13.2715 2.87267 13.3813 2.90958 13.4538C3.00545 13.642 3.15843 13.7949 3.3466 13.8908C3.41904 13.9277 3.52887 13.9612 3.75857 13.98C3.99527 13.9993 4.30264 13.9998 4.76059 13.9998H11.2406C11.6985 13.9998 12.0059 13.9993 12.2426 13.98C12.4723 13.9612 12.5821 13.9277 12.6546 13.8908C12.8427 13.7949 12.9957 13.642 13.0916 13.4538C13.1285 13.3813 13.162 13.2715 13.1808 13.0418C13.2001 12.8051 13.2006 12.4977 13.2006 12.0398V5.55981C13.2006 5.10186 13.2001 4.79449 13.1808 4.55779C13.162 4.32809 13.1285 4.21827 13.0916 4.14582C12.9957 3.95765 12.8427 3.80467 12.6546 3.7088C12.5821 3.67189 12.4723 3.63838 12.2426 3.61961C12.0059 3.60027 11.6985 3.59981 11.2406 3.59981H11.1995C11.1981 3.70606 11.195 3.80501 11.1877 3.8941C11.1738 4.06461 11.1419 4.25115 11.048 4.43539C10.9138 4.69882 10.6996 4.91299 10.4362 5.04722C10.2519 5.14109 10.0654 5.17298 9.89488 5.18691C9.73673 5.19984 9.54755 5.19982 9.34156 5.19981H6.65962C6.45363 5.19982 6.26444 5.19984 6.10629 5.18691C5.93578 5.17298 5.74925 5.14109 5.565 5.04722C5.30157 4.91299 5.0874 4.69882 4.95318 4.43539C4.8593 4.25115 4.82741 4.06461 4.81348 3.8941C4.8062 3.80501 4.80303 3.70606 4.80164 3.59981ZM6.10529 2.02359C6.10526 2.02358 6.10564 2.02343 6.10647 2.02315L6.10529 2.02359ZM6.10736 2.02287C6.11446 2.02066 6.14096 2.01386 6.20401 2.00871C6.30731 2.00027 6.44666 1.99981 6.68059 1.99981H9.32059C9.55451 1.99981 9.69386 2.00027 9.79717 2.00871C9.86021 2.01386 9.88671 2.02066 9.89382 2.02287C9.92953 2.04168 9.95871 2.07086 9.97753 2.10658C9.97973 2.11368 9.98653 2.14018 9.99168 2.20323C10.0001 2.30653 10.0006 2.44589 10.0006 2.67981V3.31981C10.0006 3.55373 10.0001 3.69308 9.99168 3.79639C9.98653 3.85944 9.97973 3.88594 9.97753 3.89304C9.95871 3.92875 9.92953 3.95793 9.89382 3.97675C9.88671 3.97895 9.86021 3.98575 9.79716 3.9909C9.69386 3.99934 9.55451 3.99981 9.32059 3.99981H6.68059C6.44666 3.99981 6.30731 3.99934 6.20401 3.9909C6.14096 3.98575 6.11446 3.97895 6.10736 3.97675C6.07165 3.95793 6.04246 3.92875 6.02364 3.89304C6.02144 3.88593 6.01464 3.85943 6.00949 3.79639C6.00105 3.69308 6.00059 3.55373 6.00059 3.31981V2.67981C6.00059 2.44589 6.00105 2.30653 6.00949 2.20323C6.01464 2.14018 6.02144 2.11368 6.02364 2.10658C6.04246 2.07087 6.07164 2.04168 6.10736 2.02287ZM6.02437 2.10451C6.02438 2.10453 6.02424 2.10496 6.02392 2.10572L6.02437 2.10451ZM6.02437 3.89511C6.02436 3.89513 6.02421 3.89476 6.02393 3.89392L6.02437 3.89511ZM6.10529 3.97603C6.1053 3.97601 6.10573 3.97616 6.1065 3.97647L6.10529 3.97603ZM9.89589 3.97603C9.89591 3.97603 9.89554 3.97619 9.8947 3.97646L9.89589 3.97603ZM9.9768 3.89511C9.9768 3.89508 9.97694 3.89467 9.97724 3.89392L9.9768 3.89511ZM9.9768 2.10451C9.97681 2.10448 9.97697 2.10486 9.97724 2.10569L9.9768 2.10451ZM9.8947 2.02315C9.89554 2.02342 9.89591 2.02358 9.89589 2.02359L9.8947 2.02315Z" fill="#359721"/>
</g>
</svg>
