<svg width="16" height="16" viewBox="0 0 16 16" fill="none" xmlns="http://www.w3.org/2000/svg">
<g clip-path="url(#clip0_1660_26974)">
<rect width="16" height="16" fill="#D9DDEC"/>
<path fill-rule="evenodd" clip-rule="evenodd" d="M10.867 1.8665C9.21014 1.8665 7.86699 3.20965 7.86699 4.8665C7.86699 5.10487 7.89467 5.336 7.94674 5.55716C7.99431 5.75922 7.93405 5.97151 7.78743 6.11846L2.04227 11.8761C1.93003 11.9885 1.86699 12.141 1.86699 12.2999V13.8667H3.47461C3.63395 13.8667 3.78674 13.8033 3.8993 13.6905L4.06699 13.5225V11.8665C4.06699 11.5351 4.33562 11.2665 4.66699 11.2665H6.31853L6.46699 11.1177V9.4665C6.46699 9.13513 6.73562 8.8665 7.06699 8.8665H8.71377L9.62823 7.95023C9.77457 7.8036 9.98621 7.74283 10.1881 7.78949C10.4056 7.83979 10.6328 7.8665 10.867 7.8665C12.5238 7.8665 13.867 6.52336 13.867 4.8665C13.867 3.20965 12.5238 1.8665 10.867 1.8665ZM6.66699 4.8665C6.66699 2.54691 8.5474 0.666504 10.867 0.666504C13.1866 0.666504 15.067 2.54691 15.067 4.8665C15.067 7.1861 13.1866 9.0665 10.867 9.0665C10.659 9.0665 10.4543 9.05135 10.254 9.02201L9.38734 9.89035C9.27478 10.0031 9.12199 10.0665 8.96265 10.0665H7.66699V11.3659C7.66699 11.5249 7.60394 11.6773 7.49168 11.7898L6.99209 12.2903C6.87954 12.4031 6.72674 12.4665 6.56741 12.4665H5.26699V13.7707C5.26699 13.9296 5.20394 14.0821 5.09168 14.1945L4.74867 14.5382C4.411 14.8766 3.95262 15.0667 3.47461 15.0667H1.66699C1.11471 15.0667 0.666992 14.619 0.666992 14.0667V12.2999C0.666992 11.8232 0.8561 11.3659 1.19282 11.0285L1.61755 11.4523L1.19282 11.0284L6.71385 5.49546C6.68297 5.29003 6.66699 5.07997 6.66699 4.8665ZM10.267 4.8665C10.267 4.53513 10.5356 4.2665 10.867 4.2665H11.267C11.5984 4.2665 11.867 4.53513 11.867 4.8665C11.867 5.19787 11.5984 5.4665 11.267 5.4665H10.867C10.5356 5.4665 10.267 5.19787 10.267 4.8665Z" fill="#A3AAC2"/>
</g>
<defs>
<clipPath id="clip0_1660_26974">
<rect width="16" height="16" fill="white"/>
</clipPath>
</defs>
</svg>
