<svg width="16" height="16" viewBox="0 0 16 12" fill="none" xmlns="http://www.w3.org/2000/svg">
<path fill-rule="evenodd" clip-rule="evenodd" d="M0.666504 2.8665C0.666504 1.65148 1.65148 0.666504 2.8665 0.666504H12.8665C14.0815 0.666504 15.0665 1.65148 15.0665 2.8665V9.6665C15.0665 10.8815 14.0815 11.8665 12.8665 11.8665H2.8665C1.65148 11.8665 0.666504 10.8815 0.666504 9.6665V2.8665ZM2.8665 1.8665C2.31422 1.8665 1.8665 2.31422 1.8665 2.8665V4.6665H13.8665V2.8665C13.8665 2.31422 13.4188 1.8665 12.8665 1.8665H2.8665ZM13.8665 5.8665H1.8665V9.6665C1.8665 10.2188 2.31422 10.6665 2.8665 10.6665H12.8665C13.4188 10.6665 13.8665 10.2188 13.8665 9.6665V5.8665ZM3.0665 8.4665C3.0665 8.13513 3.33513 7.8665 3.6665 7.8665H6.4665C6.79787 7.8665 7.0665 8.13513 7.0665 8.4665C7.0665 8.79787 6.79787 9.0665 6.4665 9.0665H3.6665C3.33513 9.0665 3.0665 8.79787 3.0665 8.4665Z" fill="#A3AAC2"/>
</svg>
