<svg width="16" height="16" viewBox="0 0 16 16" fill="none" xmlns="http://www.w3.org/2000/svg">
<g id="24 / Calendar" clip-path="url(#clip0_6852_54560)">
<path id="Icon" fill-rule="evenodd" clip-rule="evenodd" d="M5.3998 0.799805C5.73118 0.799805 5.9998 1.06843 5.9998 1.3998V2.3998H9.9998V1.3998C9.9998 1.06843 10.2684 0.799805 10.5998 0.799805C10.9312 0.799805 11.1998 1.06843 11.1998 1.3998V2.3998H12.9998C14.2148 2.3998 15.1998 3.38478 15.1998 4.5998V12.9998C15.1998 14.2148 14.2148 15.1998 12.9998 15.1998H2.9998C1.78478 15.1998 0.799805 14.2148 0.799805 12.9998V4.5998C0.799805 3.38478 1.78478 2.3998 2.9998 2.3998H4.7998V1.3998C4.7998 1.06843 5.06843 0.799805 5.3998 0.799805ZM4.7998 3.5998H2.9998C2.44752 3.5998 1.9998 4.04752 1.9998 4.5998V6.3998H13.9998V4.5998C13.9998 4.04752 13.5521 3.5998 12.9998 3.5998H11.1998V4.1998C11.1998 4.53118 10.9312 4.7998 10.5998 4.7998C10.2684 4.7998 9.9998 4.53118 9.9998 4.1998V3.5998H5.9998V4.1998C5.9998 4.53118 5.73118 4.7998 5.3998 4.7998C5.06843 4.7998 4.7998 4.53118 4.7998 4.1998V3.5998ZM13.9998 7.5998H1.9998V12.9998C1.9998 13.5521 2.44752 13.9998 2.9998 13.9998H12.9998C13.5521 13.9998 13.9998 13.5521 13.9998 12.9998V7.5998Z" fill="#2B324F"/>
</g>
<defs>
<clipPath id="clip0_6852_54560">
<rect width="16" height="16" fill="white"/>
</clipPath>
</defs>
</svg>
