<svg width="16" height="16" viewBox="0 0 16 16" fill="none" xmlns="http://www.w3.org/2000/svg">
<path d="M15.067 6.27654C15.067 6.04817 14.9722 5.82916 14.8034 5.66768C14.6346 5.50621 14.4057 5.41549 14.167 5.41549C14.167 5.41549 13.8166 5.41549 13.792 5.42008C13.3433 4.62478 12.8293 3.86486 12.2548 3.14749C11.955 2.77454 11.5396 2.50188 11.068 2.36853C10.0114 1.87716 5.72259 1.87716 4.66599 2.36853C4.19439 2.50188 3.77898 2.77454 3.47919 3.14749C2.90466 3.86486 2.39064 4.62478 1.94199 5.42008C1.91739 5.41549 1.56699 5.41549 1.56699 5.41549C1.3283 5.41549 1.09938 5.50621 0.930596 5.66768C0.761813 5.82916 0.666992 6.04817 0.666992 6.27654L0.666992 10.0077C0.667108 10.4107 0.778058 10.8065 0.988696 11.1554C1.19933 11.5044 1.50224 11.7941 1.86699 11.9956V12.8779C1.86699 13.3346 2.05663 13.7727 2.3942 14.0956C2.73177 14.4186 3.1896 14.6 3.66699 14.6C4.14438 14.6 4.60222 14.4186 4.93978 14.0956C5.27735 13.7727 5.46699 13.3346 5.46699 12.8779V12.3039H10.267V12.8779C10.267 13.3346 10.4566 13.7727 10.7942 14.0956C11.1318 14.4186 11.5896 14.6 12.067 14.6C12.5444 14.6 13.0022 14.4186 13.3398 14.0956C13.6774 13.7727 13.867 13.3346 13.867 12.8779V11.9956C14.2317 11.7941 14.5346 11.5044 14.7453 11.1554C14.9559 10.8065 15.0669 10.4107 15.067 10.0077V6.27654ZM4.43139 3.84609C4.57838 3.66473 4.78141 3.53236 5.01159 3.4678C5.92299 3.0367 9.81159 3.0367 10.7224 3.4678C10.9526 3.53236 11.1556 3.66473 11.3026 3.84609C12.2138 4.98913 12.9642 6.24165 13.5346 7.57155C9.77609 7.04688 5.95789 7.04688 2.19939 7.57155C2.76981 6.24165 3.52022 4.98913 4.43139 3.84609ZM4.26699 12.8779C4.26699 13.0301 4.20378 13.1762 4.09126 13.2838C3.97873 13.3915 3.82612 13.4519 3.66699 13.4519C3.50786 13.4519 3.35525 13.3915 3.24273 13.2838C3.13021 13.1762 3.06699 13.0301 3.06699 12.8779V12.3039H4.26699V12.8779ZM12.667 12.8779C12.667 13.0301 12.6038 13.1762 12.4913 13.2838C12.3787 13.3915 12.2261 13.4519 12.067 13.4519C11.9079 13.4519 11.7552 13.3915 11.6427 13.2838C11.5302 13.1762 11.467 13.0301 11.467 12.8779V12.3039H12.667V12.8779ZM12.667 11.1558H3.06699C2.74873 11.1558 2.44351 11.0349 2.21846 10.8195C1.99342 10.6042 1.86699 10.3122 1.86699 10.0077V8.77759C3.85345 8.48706 5.85783 8.32272 7.86699 8.28565C9.87615 8.32272 11.8805 8.48706 13.867 8.77759V10.0077C13.867 10.3122 13.7406 10.6042 13.5155 10.8195C13.2905 11.0349 12.9853 11.1558 12.667 11.1558ZM4.26699 10.0077C4.26699 10.16 4.20378 10.306 4.09126 10.4136C3.97873 10.5213 3.82612 10.5818 3.66699 10.5818C3.50786 10.5818 3.35525 10.5213 3.24273 10.4136C3.13021 10.306 3.06699 10.16 3.06699 10.0077C3.06699 9.8555 3.13021 9.70949 3.24273 9.60184C3.35525 9.49419 3.50786 9.43371 3.66699 9.43371C3.82612 9.43371 3.97873 9.49419 4.09126 9.60184C4.20378 9.70949 4.26699 9.8555 4.26699 10.0077ZM12.667 10.0077C12.667 10.16 12.6038 10.306 12.4913 10.4136C12.3787 10.5213 12.2261 10.5818 12.067 10.5818C11.9079 10.5818 11.7552 10.5213 11.6427 10.4136C11.5302 10.306 11.467 10.16 11.467 10.0077C11.467 9.8555 11.5302 9.70949 11.6427 9.60184C11.7552 9.49419 11.9079 9.43371 12.067 9.43371C12.2261 9.43371 12.3787 9.49419 12.4913 9.60184C12.6038 9.70949 12.667 9.8555 12.667 10.0077Z" fill="#2B324F"/>
</svg>
