<svg width="16" height="16" viewBox="0 0 16 16" fill="none" xmlns="http://www.w3.org/2000/svg">
<g id="24 / License Plate">
<g id="Vector">
<path fill-rule="evenodd" clip-rule="evenodd" d="M15.3337 4.76223C15.3337 3.60506 14.3304 2.66699 13.0929 2.66699L2.90773 2.66699C1.67021 2.66699 0.666993 3.60506 0.666992 4.76223L0.666992 11.2384C0.666992 12.3956 1.6702 13.3337 2.90773 13.3337L13.0929 13.3337C14.3304 13.3337 15.3337 12.3956 15.3337 11.2384V4.76223ZM13.0929 3.80985C13.6554 3.80985 14.1114 4.23625 14.1114 4.76223V5.08059V5.7596V10.3663V11.0453V11.2384C14.1114 11.7644 13.6554 12.1908 13.0929 12.1908L2.90773 12.1908C2.34522 12.1908 1.88922 11.7644 1.88922 11.2384V11.0453V10.3663L1.88922 5.7596V5.08059V4.76223C1.88922 4.23624 2.34522 3.80985 2.90773 3.80985L13.0929 3.80985Z" fill="#2B324F"/>
<path d="M1.88922 10.3663V11.0453H14.1114V10.3663H1.88922Z" fill="#2B324F"/>
<path d="M14.1114 5.08059L1.88922 5.08059V5.7596H14.1114V5.08059Z" fill="#2B324F"/>
<path d="M2.70396 9.45712L3.81619 6.78684H4.38656L5.50235 9.45712H4.89633L3.98374 7.09965H4.21189L3.29573 9.45712H2.70396ZM3.26008 8.88491L3.41336 8.41571H4.6967L4.85355 8.88491H3.26008Z" fill="#2B324F"/>
<path d="M5.76125 9.45712V6.78684H6.98042C7.29412 6.78684 7.5294 6.85042 7.68625 6.97758C7.84548 7.10473 7.9251 7.27258 7.9251 7.48111C7.9251 7.62098 7.89302 7.74305 7.82885 7.84732C7.76468 7.94905 7.67675 8.02788 7.56505 8.08383C7.45335 8.13978 7.32502 8.16775 7.18005 8.16775L7.24778 8.01135C7.40463 8.01135 7.54366 8.03933 7.66487 8.09528C7.78607 8.14868 7.87994 8.22879 7.94649 8.3356C8.01541 8.44241 8.04987 8.57338 8.04987 8.72851C8.04987 8.95739 7.9655 9.13668 7.79676 9.26638C7.62803 9.39354 7.37968 9.45712 7.05172 9.45712H5.76125ZM6.33519 8.99172H7.00894C7.15866 8.99172 7.27155 8.96629 7.3476 8.91543C7.42602 8.86203 7.46524 8.7781 7.46524 8.66366C7.46524 8.55177 7.42602 8.46911 7.3476 8.41571C7.27155 8.35976 7.15866 8.33179 7.00894 8.33179H6.29241V7.88165H6.90912C7.04934 7.88165 7.15628 7.85622 7.22996 7.80536C7.30601 7.75196 7.34403 7.67185 7.34403 7.56504C7.34403 7.46077 7.30601 7.3832 7.22996 7.33234C7.15628 7.27894 7.04934 7.25223 6.90912 7.25223H6.33519V8.99172Z" fill="#2B324F"/>
<path d="M8.37658 8.6217V8.14487H9.38542V8.6217H8.37658Z" fill="#2B324F"/>
<path d="M10.0138 9.45712V7.01572L10.2633 7.28275H9.51468V6.78684H10.5913V9.45712H10.0138Z" fill="#2B324F"/>
<path d="M11.0034 9.45712V9.05657L11.9659 8.08383C12.0419 8.01008 12.0978 7.94396 12.1334 7.88547C12.1691 7.82698 12.1928 7.77357 12.2047 7.72525C12.219 7.67693 12.2261 7.63243 12.2261 7.59174C12.2261 7.48493 12.1916 7.40355 12.1227 7.3476C12.0562 7.28911 11.9575 7.25986 11.8268 7.25986C11.7223 7.25986 11.6248 7.28148 11.5345 7.32471C11.4466 7.36794 11.3717 7.43534 11.3099 7.52689L10.8893 7.23697C10.9843 7.08439 11.1174 6.96359 11.2885 6.87458C11.4597 6.78557 11.6569 6.74107 11.8803 6.74107C12.0657 6.74107 12.2273 6.77413 12.3651 6.84025C12.5053 6.90383 12.6135 6.99411 12.6895 7.11109C12.7679 7.22807 12.8072 7.36794 12.8072 7.5307C12.8072 7.61717 12.7965 7.70364 12.7751 7.7901C12.7561 7.87402 12.7157 7.96303 12.6539 8.05713C12.5945 8.15122 12.5065 8.25676 12.3901 8.37375L11.5915 9.17864L11.481 8.95358H12.8891V9.45712H11.0034Z" fill="#2B324F"/>
</g>
</g>
</svg>
