<svg width="16" height="16" viewBox="0 0 16 16" fill="none" xmlns="http://www.w3.org/2000/svg">
<g id="24 / Open eye">
<path id="Icon" fill-rule="evenodd" clip-rule="evenodd" d="M4.35787 5.40629C3.31184 6.28431 2.48799 7.33105 2.02415 7.98291C1.9486 8.08908 1.91314 8.13975 1.88939 8.18001C1.87456 8.20516 1.87174 8.21401 1.87019 8.22004C1.87 8.22109 1.86943 8.22444 1.86881 8.23019C1.86775 8.24005 1.86699 8.25277 1.86699 8.26699C1.86699 8.28121 1.86775 8.29394 1.86881 8.3038C1.86943 8.30954 1.87 8.31289 1.87019 8.31395C1.87174 8.31998 1.87456 8.32882 1.88939 8.35397C1.91314 8.39424 1.9486 8.44491 2.02415 8.55108C2.48799 9.20293 3.31184 10.2497 4.35787 11.1277C5.41316 12.0135 6.62212 12.667 7.86699 12.667C9.11186 12.667 10.3208 12.0135 11.3761 11.1277C12.4221 10.2497 13.246 9.20293 13.7098 8.55108C13.7854 8.44491 13.8208 8.39424 13.8446 8.35397C13.8594 8.32882 13.8622 8.31997 13.8638 8.31394C13.864 8.31288 13.8646 8.30954 13.8652 8.3038C13.8662 8.29394 13.867 8.28121 13.867 8.26699C13.867 8.25277 13.8662 8.24005 13.8652 8.23019C13.8646 8.22445 13.864 8.2211 13.8638 8.22004C13.8622 8.21401 13.8594 8.20517 13.8446 8.18001C13.8208 8.13975 13.7854 8.08908 13.7098 7.98291C13.246 7.33105 12.4221 6.28431 11.3761 5.40629C10.3208 4.52048 9.11186 3.86699 7.86699 3.86699C6.62212 3.86699 5.41316 4.52048 4.35787 5.40629ZM3.58636 4.48717C4.73246 3.52514 6.2109 2.66699 7.86699 2.66699C9.52308 2.66699 11.0015 3.52514 12.1476 4.48717C13.303 5.45697 14.1945 6.59426 14.6876 7.28718C14.6957 7.29856 14.7039 7.31001 14.7121 7.32155C14.8306 7.48727 14.9628 7.67215 15.0275 7.92693C15.0802 8.13472 15.0802 8.39927 15.0275 8.60706C14.9628 8.86184 14.8306 9.04671 14.7121 9.21244C14.7039 9.22398 14.6957 9.23543 14.6876 9.2468C14.1945 9.93973 13.303 11.077 12.1476 12.0468C11.0015 13.0088 9.52308 13.867 7.86699 13.867C6.2109 13.867 4.73246 13.0088 3.58636 12.0468C2.431 11.077 1.53947 9.93973 1.04641 9.2468C1.03832 9.23543 1.03013 9.22398 1.02188 9.21244C0.903378 9.04672 0.771179 8.86184 0.706534 8.60706C0.653812 8.39927 0.653812 8.13472 0.706534 7.92693C0.771179 7.67215 0.903378 7.48727 1.02188 7.32155C1.03013 7.31001 1.03832 7.29856 1.04641 7.28718C1.53947 6.59426 2.431 5.45697 3.58636 4.48717ZM7.86699 7.06699C7.20425 7.06699 6.66699 7.60425 6.66699 8.26699C6.66699 8.92973 7.20425 9.46699 7.86699 9.46699C8.52973 9.46699 9.06699 8.92973 9.06699 8.26699C9.06699 7.60425 8.52973 7.06699 7.86699 7.06699ZM5.46699 8.26699C5.46699 6.94151 6.54151 5.86699 7.86699 5.86699C9.19248 5.86699 10.267 6.94151 10.267 8.26699C10.267 9.59248 9.19248 10.667 7.86699 10.667C6.54151 10.667 5.46699 9.59248 5.46699 8.26699Z" fill="#2B324F"/>
</g>
</svg>
