<svg width="24" height="24" viewBox="0 0 24 24" fill="none" xmlns="http://www.w3.org/2000/svg">
<path fill-rule="evenodd" clip-rule="evenodd" d="M12 4.5C7.85786 4.5 4.5 7.85786 4.5 12C4.5 16.1421 7.85786 19.5 12 19.5C16.1421 19.5 19.5 16.1421 19.5 12C19.5 7.85786 16.1421 4.5 12 4.5ZM3 12C3 7.02944 7.02944 3 12 3C16.9706 3 21 7.02944 21 12C21 16.9706 16.9706 21 12 21C7.02944 21 3 16.9706 3 12ZM15.7086 8.65654C16.0363 8.90981 16.0967 9.38083 15.8435 9.70859L11.5935 15.2086C11.4575 15.3846 11.2504 15.4911 11.0281 15.4995C10.8058 15.5078 10.5913 15.417 10.4425 15.2517L8.19253 12.7517C7.91544 12.4438 7.94039 11.9696 8.24828 11.6925C8.55616 11.4154 9.03038 11.4404 9.30747 11.7483L10.9562 13.5801L14.6565 8.79141C14.9098 8.46365 15.3808 8.40327 15.7086 8.65654Z" fill="#3AA625"/>
</svg>
