<svg width="18" height="15" viewBox="0 0 18 15" fill="none" xmlns="http://www.w3.org/2000/svg">
<path d="M14.827 7.55307C14.2476 5.40382 13.3801 3.04699 12.946 1.90717C13.3146 1.75786 13.6914 1.62926 14.0746 1.52198C14.1791 1.49487 14.2885 1.4922 14.3942 1.51417C14.4999 1.53614 14.5991 1.58216 14.684 1.64863C14.7778 1.7198 14.8538 1.81164 14.906 1.91695C14.9583 2.02226 14.9853 2.13818 14.985 2.25564H16.4898C16.4909 1.90845 16.4112 1.56573 16.2571 1.25434C16.1029 0.942954 15.8784 0.67136 15.6012 0.46085C15.334 0.253512 15.0221 0.11069 14.6901 0.0435975C14.3581 -0.023495 14.0151 -0.013032 13.6878 0.0741653C12.9978 0.275182 12.3223 0.522804 11.6661 0.815311L11.0093 1.10982L11.2764 1.77678C11.2839 1.79551 11.6571 2.72775 12.1198 4.0182L8.98076 6.44922L6.26758 3.74617H7.4609V2.24739H2.94645V3.74617H4.13977L7.78368 7.37621L6.28865 8.53477C5.61626 7.90378 4.73271 7.54373 3.80909 7.52433C2.88546 7.50494 1.98746 7.82757 1.28897 8.42977C0.590477 9.03197 0.141179 9.87089 0.0280738 10.7841C-0.0850318 11.6973 0.146101 12.6198 0.676719 13.373C1.20734 14.1262 1.99969 14.6566 2.90036 14.8613C3.80103 15.066 4.74594 14.9306 5.55213 14.4813C6.35832 14.032 6.96844 13.3007 7.26435 12.4291C7.56026 11.5574 7.52091 10.6074 7.15392 9.76302L12.6375 5.51473C12.8632 6.20342 13.0889 6.92433 13.2891 7.62726C12.3884 7.86108 11.6067 8.41914 11.0951 9.19357C10.5836 9.968 10.3784 10.9038 10.5193 11.8202C10.6601 12.7365 11.137 13.5683 11.8578 14.1548C12.5786 14.7413 13.4921 15.0408 14.4218 14.9955C15.3514 14.9502 16.2312 14.5633 16.8911 13.9095C17.551 13.2558 17.9441 12.3816 17.9945 11.4559C18.0449 10.5302 17.7489 9.61885 17.1639 8.89785C16.5789 8.17686 15.7462 7.69821 14.827 7.55307ZM3.69886 13.4882C3.25242 13.4882 2.81601 13.3564 2.44481 13.1093C2.07361 12.8623 1.7843 12.5112 1.61345 12.1004C1.44261 11.6896 1.39791 11.2376 1.485 10.8015C1.5721 10.3654 1.78708 9.96478 2.10276 9.65037C2.41844 9.33595 2.82064 9.12184 3.25849 9.03509C3.69635 8.94835 4.15021 8.99287 4.56266 9.16302C4.97511 9.33318 5.32764 9.62134 5.57567 9.99105C5.8237 10.3608 5.95608 10.7954 5.95608 11.2401C5.95608 11.8363 5.71827 12.4081 5.29496 12.8298C4.87164 13.2514 4.29751 13.4882 3.69886 13.4882ZM14.2326 13.4882C13.7861 13.4882 13.3497 13.3564 12.9785 13.1093C12.6073 12.8623 12.318 12.5112 12.1472 12.1004C11.9763 11.6896 11.9316 11.2376 12.0187 10.8015C12.1058 10.3654 12.3208 9.96478 12.6365 9.65037C12.9522 9.33595 13.3543 9.12184 13.7922 9.03509C14.2301 8.94835 14.6839 8.99287 15.0964 9.16302C15.5088 9.33318 15.8614 9.62134 16.1094 9.99105C16.3574 10.3608 16.4898 10.7954 16.4898 11.2401C16.4898 11.8363 16.252 12.4081 15.8287 12.8298C15.4054 13.2514 14.8312 13.4882 14.2326 13.4882Z" fill="#8F95B2"/>
</svg>
