<svg width="24" height="24" viewBox="0 0 24 24" fill="none" xmlns="http://www.w3.org/2000/svg">
<g id="24 / Hand">
<path id="Vector (Stroke)" fill-rule="evenodd" clip-rule="evenodd" d="M11.5004 3.85002C11.328 3.85002 11.1627 3.91851 11.0408 4.04041C10.9189 4.1623 10.8504 4.32763 10.8504 4.50002V11C10.8504 11.4695 10.4698 11.85 10.0004 11.85C9.53095 11.85 9.15039 11.4695 9.15039 11V5.50002C9.15039 5.32763 9.08191 5.1623 8.96001 5.0404C8.83811 4.91851 8.67278 4.85002 8.50039 4.85002C8.328 4.85002 8.16267 4.91851 8.04077 5.0404C7.91887 5.1623 7.85039 5.32763 7.85039 5.50002V14C7.85039 14.4695 7.46983 14.85 7.00039 14.85C6.53095 14.85 6.15039 14.4695 6.15039 14V11.5C6.15039 11.3276 6.08191 11.1623 5.96001 11.0404C5.83811 10.9185 5.67278 10.85 5.50039 10.85C5.328 10.85 5.16267 10.9185 5.04077 11.0404C4.91887 11.1623 4.85039 11.3276 4.85039 11.5V13.5C4.85039 15.2637 5.55101 16.9552 6.79813 18.2023C8.04525 19.4494 9.7367 20.15 11.5004 20.15C13.2641 20.15 14.9555 19.4494 16.2027 18.2023C17.4498 16.9552 18.1504 15.2637 18.1504 13.5V8.50002C18.1504 8.32763 18.0819 8.1623 17.96 8.0404C17.8381 7.91851 17.6728 7.85002 17.5004 7.85002C17.328 7.85002 17.1627 7.91851 17.0408 8.0404C16.9189 8.1623 16.8504 8.32763 16.8504 8.50002V11C16.8504 11.4695 16.4698 11.85 16.0004 11.85C15.5309 11.85 15.1504 11.4695 15.1504 11V5.50002C15.1504 5.32763 15.0819 5.1623 14.96 5.0404C14.8381 4.91851 14.6728 4.85002 14.5004 4.85002C14.328 4.85002 14.1627 4.91851 14.0408 5.0404C13.9189 5.1623 13.8504 5.32763 13.8504 5.50002V11C13.8504 11.4695 13.4698 11.85 13.0004 11.85C12.5309 11.85 12.1504 11.4695 12.1504 11V4.50002C12.1504 4.32763 12.0819 4.1623 11.96 4.04041C11.8381 3.91851 11.6728 3.85002 11.5004 3.85002ZM13.5502 3.35071C13.4458 3.16455 13.3157 2.9919 13.1621 2.83832C12.7214 2.39761 12.1236 2.15002 11.5004 2.15002C10.8771 2.15002 10.2794 2.39761 9.83869 2.83832C9.68511 2.9919 9.55498 3.16455 9.45061 3.35071C9.15411 3.21962 8.83084 3.15002 8.50039 3.15002C7.87713 3.15002 7.2794 3.39761 6.83869 3.83832C6.39798 4.27903 6.15039 4.87677 6.15039 5.50002V9.2417C5.94091 9.1814 5.72227 9.15002 5.50039 9.15002C4.87713 9.15002 4.2794 9.39761 3.83869 9.83832C3.39798 10.279 3.15039 10.8768 3.15039 11.5V13.5C3.15039 15.7146 4.03012 17.8384 5.59605 19.4044C7.16198 20.9703 9.28583 21.85 11.5004 21.85C13.7149 21.85 15.8388 20.9703 17.4047 19.4044C18.9707 17.8384 19.8504 15.7146 19.8504 13.5V8.50002C19.8504 7.87676 19.6028 7.27903 19.1621 6.83832C18.7214 6.39761 18.1236 6.15002 17.5004 6.15002C17.2785 6.15002 17.0599 6.1814 16.8504 6.2417V5.50002C16.8504 4.87677 16.6028 4.27903 16.1621 3.83832C15.7214 3.39761 15.1236 3.15002 14.5004 3.15002C14.1699 3.15002 13.8467 3.21962 13.5502 3.35071Z" fill="#5A6384"/>
</g>
</svg>
