<svg width="24" height="24" viewBox="0 0 24 24" fill="none" xmlns="http://www.w3.org/2000/svg">
<g id="24 / Ai2">
<g id="Vector">
<path d="M3.61377 20C2.85449 20 2.34634 19.2188 2.65408 18.5247L8.64457 5.01329C8.91772 4.39721 9.52832 4 10.2022 4V4C10.8754 4 11.4855 4.39637 11.7591 5.01147L17.7567 18.4963C18.0711 19.2034 17.5536 20 16.7797 20V20C16.3525 20 15.9664 19.7457 15.7976 19.3533L9.91966 5.69112C9.83599 5.49664 9.97862 5.28 10.1903 5.28V5.28C10.4021 5.28 10.5447 5.49664 10.461 5.69112L4.57809 19.3651C4.41233 19.7504 4.03317 20 3.61377 20V20ZM6.28604 16C5.66299 16 5.22244 15.3905 5.41791 14.7989V14.7989C5.54166 14.4244 5.89162 14.1714 6.28604 14.1714H13.7965C14.1835 14.1714 14.5287 14.4152 14.6581 14.7799V14.7799C14.8693 15.375 14.428 16 13.7965 16H6.28604Z" fill="#5A6384"/>
<path d="M20.1189 20C19.5009 20 19 19.4991 19 18.8811V5.1189C19 4.50095 19.5009 4 20.1189 4V4C20.7369 4 21.2378 4.50095 21.2378 5.1189V18.8811C21.2378 19.4991 20.7369 20 20.1189 20V20Z" fill="#5A6384"/>
</g>
</g>
</svg>
