<svg width="15" height="14" viewBox="0 0 15 14" fill="none" xmlns="http://www.w3.org/2000/svg">
<path d="M1.17245 13.8127L14.183 0.802162C14.3539 0.631278 14.3548 0.354838 14.1851 0.185132C14.0154 0.0154265 13.739 0.0163829 13.5681 0.187267L0.557522 13.1978C0.386638 13.3687 0.385683 13.6452 0.555388 13.8149C0.725095 13.9846 1.00156 13.9836 1.17245 13.8127Z" fill="black"/>
<path d="M0.557535 0.802198L13.5681 13.8128C13.739 13.9836 14.0154 13.9846 14.1851 13.8149C14.3548 13.6452 14.3539 13.3687 14.183 13.1979L1.1724 0.187273C1.00152 0.0163889 0.725078 0.0154347 0.555372 0.18514C0.385667 0.354846 0.38665 0.631313 0.557535 0.802198Z" fill="black"/>
</svg>
