<svg width="20" height="20" viewBox="0 0 20 20" fill="none" xmlns="http://www.w3.org/2000/svg">
<path fill-rule="evenodd" clip-rule="evenodd" d="M2.70594 2.70594C2.98053 2.43135 3.42572 2.43135 3.70031 2.70594L10 9.00563L16.2997 2.70594C16.5743 2.43135 17.0195 2.43135 17.2941 2.70594C17.5686 2.98053 17.5686 3.42572 17.2941 3.70031L10.9944 10L17.2941 16.2997C17.5686 16.5743 17.5686 17.0195 17.2941 17.2941C17.0195 17.5686 16.5743 17.5686 16.2997 17.2941L10 10.9944L3.70031 17.2941C3.42572 17.5686 2.98053 17.5686 2.70594 17.2941C2.43135 17.0195 2.43135 16.5743 2.70594 16.2997L9.00563 10L2.70594 3.70031C2.43135 3.42572 2.43135 2.98053 2.70594 2.70594Z" fill="#787F9D"/>
</svg>
