<svg width="20" height="20" viewBox="0 0 20 20" fill="none" xmlns="http://www.w3.org/2000/svg">
    <g id="24 / Don&#39;t identify">
        <path id="Vector (Stroke)" fill-rule="evenodd" clip-rule="evenodd" d="M18.0009 1.99915C18.2776 2.27577 18.2776 2.72427 18.0009 3.00089L15.6916 5.31022C16.7433 6.58497 17.3751 8.21888 17.3751 10C17.3751 14.0723 14.0724 17.375 10.0001 17.375C8.21894 17.375 6.58503 16.7432 5.31029 15.6916L3.00095 18.0009C2.72433 18.2775 2.27584 18.2775 1.99921 18.0009C1.72259 17.7243 1.72259 17.2758 1.99921 16.9992L4.30855 14.6898C3.25689 13.4151 2.62508 11.7812 2.62508 10C2.62508 5.92771 5.92777 2.62502 10.0001 2.62502C11.7812 2.62502 13.4151 3.25682 14.6899 4.30849L16.9992 1.99915C17.2758 1.72253 17.7243 1.72253 18.0009 1.99915ZM13.6824 5.31596C12.6688 4.51788 11.3899 4.04169 10.0001 4.04169C6.71017 4.04169 4.04175 6.71011 4.04175 10C4.04175 11.3898 4.51794 12.6687 5.31602 13.6824L13.6824 5.31596ZM6.31775 14.6841C7.33141 15.4822 8.61029 15.9584 10.0001 15.9584C13.29 15.9584 15.9584 13.2899 15.9584 10C15.9584 8.61023 15.4822 7.33135 14.6841 6.31769L6.31775 14.6841Z" fill="#787F9D"/>
    </g>
</svg>
