<svg width="20" height="20" viewBox="0 0 20 20" fill="none" xmlns="http://www.w3.org/2000/svg">
    <g id="24 / Female">
        <path id="Vector (Stroke)" fill-rule="evenodd" clip-rule="evenodd" d="M10.0009 1.70835C7.25351 1.70835 5.02507 3.9368 5.02507 6.68423C5.02507 9.43166 7.25351 11.6601 10.0009 11.6601C12.7484 11.6601 14.9768 9.43166 14.9768 6.68423C14.9768 3.9368 12.7484 1.70835 10.0009 1.70835ZM3.6084 6.68423C3.6084 3.1544 6.47111 0.291687 10.0009 0.291687C13.5308 0.291687 16.3935 3.1544 16.3935 6.68423C16.3935 9.97466 13.9059 12.6854 10.7093 13.038V15.4496H12.843C13.2342 15.4496 13.5514 15.7667 13.5514 16.1579C13.5514 16.5491 13.2342 16.8663 12.843 16.8663H10.7093V19C10.7093 19.3912 10.3921 19.7084 10.0009 19.7084C9.60974 19.7084 9.29261 19.3912 9.29261 19V16.8663H7.15884C6.76764 16.8663 6.4505 16.5491 6.4505 16.1579C6.4505 15.7667 6.76764 15.4496 7.15884 15.4496H9.29261V13.038C6.09596 12.6854 3.6084 9.97466 3.6084 6.68423Z" fill="#444C6D"/>
    </g>
</svg>
