<svg width="20" height="20" viewBox="0 0 20 20" fill="none" xmlns="http://www.w3.org/2000/svg">
    <g id="24/ Male">
        <path id="Vector (Stroke)" fill-rule="evenodd" clip-rule="evenodd" d="M16.2065 2.79174L12.9687 2.79186C12.5775 2.79188 12.2604 2.47476 12.2603 2.08356C12.2603 1.69236 12.5774 1.37521 12.9686 1.3752L17.9166 1.375C18.1045 1.37499 18.2847 1.44962 18.4175 1.58247C18.5504 1.71531 18.625 1.89549 18.625 2.08336L18.6248 7.03148C18.6248 7.42268 18.3076 7.7398 17.9164 7.73978C17.5252 7.73977 17.2081 7.42262 17.2081 7.03142L17.2083 3.79342L13.1938 7.80765C15.3043 10.4173 15.1463 14.2526 12.7193 16.6778C10.1251 19.2741 5.9174 19.274 3.32232 16.6781C0.725906 14.0838 0.725989 9.8758 3.322 7.2806C3.32203 7.28057 3.32206 7.28053 3.3221 7.2805C3.32213 7.28046 3.32217 7.28042 3.32221 7.28039C5.7481 4.85362 9.58326 4.69527 12.1922 6.80582L16.2065 2.79174ZM12.7193 16.6778C12.7192 16.6779 12.7191 16.678 12.7191 16.6781L12.2184 16.177L12.7195 16.6776C12.7194 16.6777 12.7193 16.6778 12.7193 16.6778ZM11.7173 8.282C9.67649 6.23939 6.36591 6.23924 4.32396 8.28211L4.32374 8.28232C2.28092 10.3243 2.28107 13.635 4.32364 15.6759L4.32396 15.6762C6.36591 17.7191 9.67649 17.7189 11.7173 15.6763L11.7177 15.6759C13.7603 13.635 13.7605 10.3243 11.7176 8.28232L11.7173 8.282Z" fill="#787F9D"/>
    </g>
</svg>