<svg width="20" height="20" viewBox="0 0 20 20" fill="none" xmlns="http://www.w3.org/2000/svg">
    <g id="24 / Non-binary">
        <path id="Vector (Stroke)" fill-rule="evenodd" clip-rule="evenodd" d="M10.7308 1.06216C11.1047 1.22578 11.2753 1.66158 11.1117 2.03556L6.59478 12.3597L16.8683 2.08622C17.1569 1.79758 17.6249 1.79758 17.9135 2.08622C18.2022 2.37486 18.2022 2.84285 17.9135 3.13149L7.63898 13.4061L17.9642 8.88812C18.3381 8.72449 18.774 8.89499 18.9376 9.26896C19.1012 9.64293 18.9307 10.0787 18.5568 10.2424L7.63579 15.021C7.83702 16.0736 7.53014 17.2041 6.71492 18.0187C5.4081 19.3272 3.28782 19.327 1.98056 18.0189C0.673268 16.712 0.673621 14.5923 1.98073 13.2852C2.79565 12.4702 3.92646 12.1632 4.9792 12.3644L9.75737 1.44305C9.92098 1.06907 10.3568 0.89854 10.7308 1.06216ZM5.64345 14.305C4.91235 13.6007 3.7476 13.6088 3.026 14.3304C2.29588 15.0606 2.29612 16.2443 3.02583 16.9736L3.02616 16.9739C3.75624 17.7045 4.93978 17.7042 5.66898 16.9741L5.66965 16.9734C6.39128 16.2527 6.39993 15.0882 5.69474 14.3563C5.68583 14.3482 5.67707 14.3399 5.66847 14.3313C5.65988 14.3227 5.65153 14.3139 5.64345 14.305Z" fill="#787F9D"/>
    </g>
</svg>
