<svg width="216" height="120" viewBox="0 0 216 120" fill="none" xmlns="http://www.w3.org/2000/svg">
<g id="System / Attachment">
<g id="attachment">
<path id="Vector" fill-rule="evenodd" clip-rule="evenodd" d="M185 24.75C188.866 24.75 192 27.884 192 31.75C192 35.616 188.866 38.75 185 38.75H145C148.866 38.75 152 41.884 152 45.75C152 49.616 148.866 52.75 145 52.75H167C170.866 52.75 174 55.884 174 59.75C174 63.616 170.866 66.75 167 66.75H156.826C151.952 66.75 148 69.884 148 73.75C148 76.327 150 78.661 154 80.75C157.866 80.75 161 83.884 161 87.75C161 91.616 157.866 94.75 154 94.75H71C67.134 94.75 64 91.616 64 87.75C64 83.884 67.134 80.75 71 80.75H32C28.134 80.75 25 77.616 25 73.75C25 69.884 28.134 66.75 32 66.75H72C75.866 66.75 79 63.616 79 59.75C79 55.884 75.866 52.75 72 52.75H47C43.134 52.75 40 49.616 40 45.75C40 41.884 43.134 38.75 47 38.75H87C83.134 38.75 80 35.616 80 31.75C80 27.884 83.134 24.75 87 24.75H185ZM185 52.75C188.866 52.75 192 55.884 192 59.75C192 63.616 188.866 66.75 185 66.75C181.134 66.75 178 63.616 178 59.75C178 55.884 181.134 52.75 185 52.75Z" fill="#EFF6FF"/>
<path id="Vector_2" fill-rule="evenodd" clip-rule="evenodd" d="M131.672 23.75L140.974 91.593L141.809 98.399C142.079 100.592 140.519 102.587 138.327 102.857L79.7664 110.047C77.5742 110.316 75.5784 108.757 75.3092 106.564L66.2935 33.1368C66.1588 32.0404 66.9385 31.0425 68.0348 30.9079C68.0417 30.9071 68.0487 30.9063 68.0556 30.9055L72.9139 30.3605" fill="white"/>
<path id="Vector_3" d="M132.91 23.5803C132.816 22.8964 132.186 22.4179 131.502 22.5117C130.818 22.6055 130.34 23.236 130.433 23.9199L132.91 23.5803ZM140.974 91.5931L142.214 91.4401C142.214 91.4351 142.213 91.4291 142.212 91.4231L140.974 91.5931ZM73.0524 31.6028C73.7385 31.5259 74.2322 30.9073 74.1553 30.2213C74.0783 29.5352 73.4598 29.0414 72.7737 29.1184L73.0524 31.6028ZM76.7023 28.6777C76.0162 28.7547 75.5224 29.3732 75.5994 30.0593C75.6763 30.7453 76.2949 31.2391 76.9809 31.1621L76.7023 28.6777ZM81.5675 30.6476C82.2545 30.5706 82.7475 29.9521 82.6705 29.266C82.5935 28.58 81.9755 28.0862 81.2895 28.1632L81.5675 30.6476ZM130.433 23.9199L139.735 91.7631L142.212 91.4231L132.91 23.5803L130.433 23.9199ZM139.733 91.7451L140.569 98.5511L143.05 98.2471L142.214 91.4401L139.733 91.7451ZM140.569 98.5511C140.754 100.059 139.682 101.431 138.174 101.616L138.479 104.097C141.357 103.744 143.403 101.125 143.05 98.2471L140.569 98.5511ZM138.174 101.616L79.6135 108.806L79.9185 111.288L138.479 104.097L138.174 101.616ZM79.6135 108.806C78.1065 108.991 76.7341 107.919 76.549 106.412L74.0676 106.717C74.421 109.595 77.0404 111.641 79.9185 111.288L79.6135 108.806ZM76.549 106.412L67.5332 32.9845L65.0519 33.2892L74.0676 106.717L76.549 106.412ZM67.5332 32.9845C67.4828 32.5734 67.7751 32.1992 68.1862 32.1487L67.8816 29.6674C66.1 29.8861 64.8331 31.5077 65.0519 33.2892L67.5332 32.9845ZM68.1862 32.1487C68.1888 32.1484 68.1914 32.1481 68.194 32.1478L67.9154 29.6634C67.9041 29.6646 67.8928 29.666 67.8816 29.6674L68.1862 32.1487ZM68.194 32.1478L73.0524 31.6028L72.7737 29.1184L67.9154 29.6634L68.194 32.1478ZM76.9809 31.1621L81.5675 30.6476L81.2895 28.1632L76.7023 28.6777L76.9809 31.1621ZM81.2895 28.1632L76.7023 28.6777L76.9809 31.1621L81.5675 30.6476L81.2895 28.1632Z" fill="#3B82F6"/>
<path id="Vector_4" fill-rule="evenodd" clip-rule="evenodd" d="M129.14 28.019L137.56 89.5028L138.317 95.6708C138.561 97.6578 137.167 99.4648 135.203 99.7058L82.7606 106.145C80.7976 106.386 79.0076 104.97 78.7636 102.983L70.6137 36.6066C70.4791 35.5103 71.2587 34.5124 72.3551 34.3778L78.8426 33.5812" fill="#EFF6FF"/>
<path id="Vector_5" d="M85.9219 13.75C85.9219 12.2312 87.1529 11 88.6719 11H134.229C134.958 11 135.657 11.2895 136.173 11.8049L149.616 25.2398C150.132 25.7556 150.422 26.4553 150.422 27.1849V89.75C150.422 91.269 149.191 92.5 147.672 92.5H88.6719C87.1529 92.5 85.9219 91.269 85.9219 89.75V13.75Z" fill="white" stroke="#3B82F6" stroke-width="2.5"/>
<path id="Vector_6" d="M134.672 12.1528V23.75C134.672 25.4069 136.015 26.75 137.672 26.75H145.605" stroke="#3B82F6" stroke-width="2.5" stroke-linecap="round" stroke-linejoin="round"/>
<path id="Vector_7" d="M96 77.75H122M96 26.75H122M96 38.75H139M96 51.75H139M96 64.75H139" stroke="#61A5FA" stroke-width="2.5" stroke-linecap="round" stroke-linejoin="round"/>
</g>
</g>
</svg>
