<svg width="88" height="50" viewBox="0 0 88 50" fill="none" xmlns="http://www.w3.org/2000/svg">
<path fill-rule="evenodd" clip-rule="evenodd" d="M75.3702 10.8604C76.9453 10.8604 78.2221 12.1265 78.2221 13.6883C78.2221 15.2501 76.9453 16.5162 75.3702 16.5162H59.0739C60.649 16.5162 61.9258 17.7824 61.9258 19.3442C61.9258 20.906 60.649 22.1721 59.0739 22.1721H68.0369C69.6119 22.1721 70.8888 23.4382 70.8888 25.0001C70.8888 26.5619 69.6119 27.828 68.0369 27.828H63.8919C61.9062 27.828 60.2962 29.0941 60.2962 30.656C60.2962 31.697 61.111 32.64 62.7406 33.4839C64.3156 33.4839 65.5925 34.75 65.5925 36.3118C65.5925 37.8737 64.3156 39.1398 62.7406 39.1398H28.9258C27.3508 39.1398 26.0739 37.8737 26.0739 36.3118C26.0739 34.75 27.3508 33.4839 28.9258 33.4839H13.0369C11.4619 33.4839 10.1851 32.2178 10.1851 30.656C10.1851 29.0941 11.4619 27.828 13.0369 27.828H29.3332C30.9082 27.828 32.1851 26.5619 32.1851 25.0001C32.1851 23.4382 30.9082 22.1721 29.3332 22.1721H19.148C17.573 22.1721 16.2962 20.906 16.2962 19.3442C16.2962 17.7824 17.573 16.5162 19.148 16.5162H35.4443C33.8693 16.5162 32.5925 15.2501 32.5925 13.6883C32.5925 12.1265 33.8693 10.8604 35.4443 10.8604H75.3702ZM75.3702 22.1721C76.9453 22.1721 78.2221 23.4382 78.2221 25.0001C78.2221 26.5619 76.9453 27.828 75.3702 27.828C73.7952 27.828 72.5184 26.5619 72.5184 25.0001C72.5184 23.4382 73.7952 22.1721 75.3702 22.1721Z" fill="#EFF6FF"/>
<path d="M55.8147 10.8604H28.5184C26.9433 10.8604 25.6665 12.1265 25.6665 13.6883V38.7358C25.6665 40.2976 26.9433 41.5637 28.5184 41.5637H55.8147C57.3897 41.5637 58.6665 40.2976 58.6665 38.7358V13.6883C58.6665 12.1265 57.3897 10.8604 55.8147 10.8604Z" fill="#FCFCFD"/>
<path fill-rule="evenodd" clip-rule="evenodd" d="M56.4259 34.0898L56.6276 34.0881V38.9288C56.6276 39.3748 56.263 39.7368 55.8128 39.7368H28.3944C27.9444 39.7368 27.5796 39.3748 27.5796 38.9288V20.1429C27.5796 19.6967 27.9444 19.335 28.3944 19.335L32.2361 19.3354C36.7017 28.0889 45.857 34.0898 56.4259 34.0898Z" fill="#EFF6FF"/>
<path d="M26.7378 17.6914H52.8641" stroke="#3B82F6" stroke-width="1.5" stroke-linecap="round"/>
<path fill-rule="evenodd" clip-rule="evenodd" d="M27.4172 11.4654C26.9509 11.4654 26.583 11.8344 26.583 12.2774V39.9339C26.583 40.3768 26.951 40.7459 27.4172 40.7459H56.9735C57.44 40.7459 57.8079 40.3768 57.8079 39.9339V12.2774C57.8079 11.8344 57.4401 11.4654 56.9735 11.4654H55.7717C55.4904 11.4654 55.2624 11.2393 55.2624 10.9604C55.2624 10.6815 55.4904 10.4554 55.7717 10.4554H56.9735C57.9915 10.4554 58.8264 11.2657 58.8264 12.2774V39.9339C58.8264 40.9454 57.9916 41.7559 56.9735 41.7559H27.4172C26.3994 41.7559 25.5645 40.9454 25.5645 39.9339V12.2774C25.5645 11.2657 26.3995 10.4554 27.4172 10.4554H28.6122C28.8935 10.4554 29.1215 10.6815 29.1215 10.9604C29.1215 11.2393 28.8935 11.4654 28.6122 11.4654H27.4172ZM34.8982 10.9604C34.8982 10.6815 35.1262 10.4554 35.4074 10.4554H48.9835C49.2647 10.4554 49.4927 10.6815 49.4927 10.9604C49.4927 11.2393 49.2647 11.4654 48.9835 11.4654H35.4074C35.1262 11.4654 34.8982 11.2393 34.8982 10.9604Z" fill="#3B82F6"/>
<path fill-rule="evenodd" clip-rule="evenodd" d="M29.807 22.3025C29.807 21.8006 30.2174 21.3936 30.7237 21.3936H35C35.5061 21.3936 35.9167 21.8005 35.9167 22.3025V26.5432C35.9167 27.0451 35.5062 27.4521 35 27.4521H30.7237C30.2173 27.4521 29.807 27.045 29.807 26.5432V22.3025ZM30.8255 22.4035V26.4422H34.8982V22.4035H30.8255Z" fill="#61A5FA"/>
<path fill-rule="evenodd" clip-rule="evenodd" d="M39.1405 22.3025C39.1405 21.8005 39.5511 21.3936 40.0572 21.3936H44.3337C44.8398 21.3936 45.2504 21.8005 45.2504 22.3025V26.5432C45.2504 27.0451 44.8399 27.4521 44.3337 27.4521H40.0572C39.551 27.4521 39.1405 27.0451 39.1405 26.5432V22.3025ZM40.159 22.4035V26.4422H44.2319V22.4035H40.159Z" fill="#61A5FA"/>
<path fill-rule="evenodd" clip-rule="evenodd" d="M29.807 31.5914C29.807 31.0896 30.2173 30.6825 30.7237 30.6825H35C35.5062 30.6825 35.9167 31.0895 35.9167 31.5914V35.8317C35.9167 36.3336 35.5062 36.7407 35 36.7407H30.7237C30.2173 36.7407 29.807 36.3335 29.807 35.8317V31.5914ZM30.8255 31.6924V35.7307H34.8982V31.6924H30.8255Z" fill="#61A5FA"/>
<path fill-rule="evenodd" clip-rule="evenodd" d="M39.1405 31.5914C39.1405 31.0895 39.551 30.6825 40.0572 30.6825H44.3337C44.8399 30.6825 45.2504 31.0895 45.2504 31.5914V35.8317C45.2504 36.3336 44.8399 36.7407 44.3337 36.7407H40.0572C39.551 36.7407 39.1405 36.3336 39.1405 35.8317V31.5914ZM40.159 31.6924V35.7307H44.2319V31.6924H40.159Z" fill="#61A5FA"/>
<path fill-rule="evenodd" clip-rule="evenodd" d="M48.4742 22.3025C48.4742 21.8005 48.8848 21.3936 49.3909 21.3936H53.667C54.1738 21.3936 54.5837 21.8008 54.5837 22.3025V26.5432C54.5837 27.0447 54.1739 27.4521 53.667 27.4521H49.3909C48.8847 27.4521 48.4742 27.0451 48.4742 26.5432V22.3025ZM49.4927 22.4035V26.4422H53.5652V22.4035H49.4927Z" fill="#61A5FA"/>
<path fill-rule="evenodd" clip-rule="evenodd" d="M26.2285 17.6916C26.2285 17.4127 26.4565 17.1866 26.7377 17.1866H54.5922C54.8735 17.1866 55.1015 17.4127 55.1015 17.6916C55.1015 17.9705 54.8735 18.1966 54.5922 18.1966H26.7377C26.4565 18.1966 26.2285 17.9705 26.2285 17.6916Z" fill="#3B82F6"/>
<path fill-rule="evenodd" clip-rule="evenodd" d="M32.0133 8.43604C32.2946 8.43604 32.5226 8.66213 32.5226 8.94103V12.9797C32.5226 13.2586 32.2946 13.4847 32.0133 13.4847C31.732 13.4847 31.504 13.2586 31.504 12.9797V8.94103C31.504 8.66213 31.732 8.43604 32.0133 8.43604Z" fill="#3B82F6"/>
<path fill-rule="evenodd" clip-rule="evenodd" d="M52.3776 8.43604C52.6588 8.43604 52.8868 8.66213 52.8868 8.94103V12.9797C52.8868 13.2586 52.6588 13.4847 52.3776 13.4847C52.0963 13.4847 51.8683 13.2586 51.8683 12.9797V8.94103C51.8683 8.66213 52.0963 8.43604 52.3776 8.43604Z" fill="#3B82F6"/>
<path fill-rule="evenodd" clip-rule="evenodd" d="M30.3166 12.9621C30.3166 13.782 30.966 14.4515 31.7827 14.4925L31.8621 14.4945H32.2341C33.0611 14.4945 33.7362 13.8506 33.7778 13.0409L33.7794 12.9621C33.7794 12.6001 34.0756 12.3067 34.4406 12.3066H50.026C50.391 12.3066 50.6868 12.6001 50.6868 12.9621C50.6868 13.782 51.3362 14.4515 52.1527 14.4925L52.2325 14.4945H52.6045C53.4315 14.4945 54.1066 13.8506 54.1481 13.0409L54.1498 12.9621C54.1498 12.6001 54.4459 12.3067 54.811 12.3066H55.9375C56.3876 12.3066 56.7523 12.6684 56.7523 13.1146V16.2115H27.5796V13.1146C27.5796 12.6684 27.9444 12.3066 28.3944 12.3066H29.6556C30.0207 12.3066 30.3166 12.6001 30.3166 12.9621Z" fill="#EFF6FF"/>
</svg>
