<svg width="217" height="120" viewBox="0 0 217 120" fill="none" xmlns="http://www.w3.org/2000/svg">
<g id="System / Comment">
<g id="comment">
<path id="Vector" fill-rule="evenodd" clip-rule="evenodd" d="M184.5 27C188.366 27 191.5 30.134 191.5 34C191.5 37.866 188.366 41 184.5 41H144.5C148.366 41 151.5 44.134 151.5 48C151.5 51.866 148.366 55 144.5 55H166.5C170.366 55 173.5 58.134 173.5 62C173.5 65.866 170.366 69 166.5 69H156.326C151.452 69 147.5 72.134 147.5 76C147.5 78.577 149.5 80.911 153.5 83C157.366 83 160.5 86.134 160.5 90C160.5 93.866 157.366 97 153.5 97H70.5C66.634 97 63.5 93.866 63.5 90C63.5 86.134 66.634 83 70.5 83H31.5C27.634 83 24.5 79.866 24.5 76C24.5 72.134 27.634 69 31.5 69H71.5C75.366 69 78.5 65.866 78.5 62C78.5 58.134 75.366 55 71.5 55H46.5C42.634 55 39.5 51.866 39.5 48C39.5 44.134 42.634 41 46.5 41H86.5C82.634 41 79.5 37.866 79.5 34C79.5 30.134 82.634 27 86.5 27H184.5ZM184.5 55C188.366 55 191.5 58.134 191.5 62C191.5 65.866 188.366 69 184.5 69C180.634 69 177.5 65.866 177.5 62C177.5 58.134 180.634 55 184.5 55Z" fill="#EFF6FF"/>
<path id="Vector_2" d="M146.5 101.56H92.2383" stroke="#61A5FA" stroke-width="2.5" stroke-linecap="round"/>
<path id="Vector_3" d="M74.2839 101.56H66.2773" stroke="#61A5FA" stroke-width="2.5" stroke-linecap="round"/>
<path id="Vector_4" d="M61.8885 101.56H58.8359" stroke="#61A5FA" stroke-width="2.5" stroke-linecap="round"/>
<path id="Vector_5" fill-rule="evenodd" clip-rule="evenodd" d="M121.831 22.9349C124.345 23.0091 126.43 23.5635 128.085 24.5979C129.694 25.6036 130.917 27.0744 131.751 29.0106C132.271 30.2163 132.166 31.6006 131.47 32.7141L95.0246 91.039C94.3666 92.092 93.4726 92.977 92.4126 93.625L79.3926 101.584L80.8376 86.3919C80.9556 85.1559 81.3596 83.964 82.0176 82.911L110.359 37.5546L112.143 34.7003L118.321 24.8135C119.074 23.6081 120.41 22.893 121.831 22.9349Z" fill="white"/>
<path id="Vector_6" fill-rule="evenodd" clip-rule="evenodd" d="M80.501 99.9267L125.449 30.31C125.718 29.8807 125.974 29.6137 126.218 29.5089C126.584 29.3518 127.019 29.3068 127.313 29.5089C129.066 30.7127 130.676 30.8097 132.145 29.7999C133.86 28.6206 133.607 29.3181 131.387 31.8924C106.604 70.9887 94.076 90.7417 93.803 91.1517C93.531 91.5617 89.097 94.4867 80.501 99.9267Z" fill="#EFF6FF"/>
<path id="Vector_7" fill-rule="evenodd" clip-rule="evenodd" d="M121.831 22.9349C124.345 23.0091 126.43 23.5635 128.085 24.5979C129.695 25.6036 130.917 27.0744 131.752 29.0106C132.272 30.2163 132.167 31.6006 131.471 32.7141L95.0256 91.039C94.3666 92.092 93.4726 92.977 92.4126 93.625L79.3926 101.584L80.8376 86.3919C80.9556 85.1559 81.3596 83.964 82.0176 82.911L110.36 37.5546L112.143 34.7003L118.321 24.8135C119.074 23.6081 120.411 22.893 121.831 22.9349Z" stroke="#3B82F6" stroke-width="2.5" stroke-linejoin="round"/>
<path id="Vector_8" fill-rule="evenodd" clip-rule="evenodd" d="M125.352 42.5068C122.061 41.9323 119.376 40.9951 117.296 39.6954C115.216 38.3956 113.565 36.6234 112.344 34.3789" fill="white"/>
<path id="Vector_9" d="M125.352 42.5068C122.061 41.9323 119.376 40.9951 117.296 39.6954C115.216 38.3956 113.565 36.6234 112.344 34.3789" stroke="#3B82F6" stroke-width="2.5" stroke-linecap="round"/>
<path id="Vector_10" fill-rule="evenodd" clip-rule="evenodd" d="M93.2498 91.5541C90.5958 90.9731 88.3818 90.1281 86.6088 89.0201C86.4038 88.8921 86.2038 88.7591 86.0068 88.6221" fill="white"/>
<path id="Vector_11" d="M93.2498 91.5541C90.5958 90.9731 88.3818 90.1281 86.6088 89.0201C86.4038 88.8921 86.2038 88.7591 86.0068 88.6221" stroke="#3B82F6" stroke-width="2.5" stroke-linecap="round"/>
<path id="Vector_12" d="M83.9912 18.5V24.5" stroke="#61A5FA" stroke-width="2.5" stroke-linecap="round" stroke-linejoin="round"/>
<path id="Vector_13" d="M83.9912 32.5V38.5" stroke="#61A5FA" stroke-width="2.5" stroke-linecap="round" stroke-linejoin="round"/>
<path id="Vector_14" d="M73.9912 28.5H79.9912" stroke="#61A5FA" stroke-width="2.5" stroke-linecap="round" stroke-linejoin="round"/>
<path id="Vector_15" d="M87.9912 28.5H93.9912" stroke="#61A5FA" stroke-width="2.5" stroke-linecap="round" stroke-linejoin="round"/>
<path id="Vector_16" d="M125.938 75.2627V79.2627" stroke="#61A5FA" stroke-width="2.5" stroke-linecap="round" stroke-linejoin="round"/>
<path id="Vector_17" d="M125.938 87.2627V91.2627" stroke="#61A5FA" stroke-width="2.5" stroke-linecap="round" stroke-linejoin="round"/>
<path id="Vector_18" d="M117.938 83.2627H121.938" stroke="#61A5FA" stroke-width="2.5" stroke-linecap="round" stroke-linejoin="round"/>
<path id="Vector_19" d="M129.938 83.2627H133.938" stroke="#61A5FA" stroke-width="2.5" stroke-linecap="round" stroke-linejoin="round"/>
<path id="Vector_20" d="M141.5 69.5C143.157 69.5 144.5 68.157 144.5 66.5C144.5 64.843 143.157 63.5 141.5 63.5C139.844 63.5 138.5 64.843 138.5 66.5C138.5 68.157 139.844 69.5 141.5 69.5Z" stroke="#61A5FA" stroke-width="2"/>
<path id="Vector_21" d="M66.501 52C68.1579 52 69.501 50.6569 69.501 49C69.501 47.3432 68.1579 46 66.501 46C64.8442 46 63.501 47.3432 63.501 49C63.501 50.6569 64.8442 52 66.501 52Z" fill="#61A5FA"/>
</g>
</g>
</svg>
