<svg width="88" height="50" viewBox="0 0 88 50" fill="none" xmlns="http://www.w3.org/2000/svg">
<path fill-rule="evenodd" clip-rule="evenodd" d="M18.7407 41.1671H55.8148C56.0246 41.1671 56.2291 41.1445 56.4259 41.1021C56.6227 41.1445 56.8272 41.1671 57.037 41.1671H78.2222C79.7973 41.1671 81.0741 39.901 81.0741 38.3392C81.0741 36.7774 79.7973 35.5112 78.2222 35.5112H75.7778C74.2027 35.5112 72.9259 34.2451 72.9259 32.6833C72.9259 31.1215 74.2027 29.8554 75.7778 29.8554H83.5185C85.0936 29.8554 86.3704 28.5892 86.3704 27.0274C86.3704 25.4656 85.0936 24.1995 83.5185 24.1995H74.5556C76.1306 24.1995 77.4074 22.9334 77.4074 21.3715C77.4074 19.8097 76.1306 18.5436 74.5556 18.5436H48.4815C50.0565 18.5436 51.3333 17.2775 51.3333 15.7156C51.3333 14.1538 50.0565 12.8877 48.4815 12.8877H25.2593C23.6842 12.8877 22.4074 14.1538 22.4074 15.7156C22.4074 17.2775 23.6842 18.5436 25.2593 18.5436H8.96296C7.38793 18.5436 6.11111 19.8097 6.11111 21.3715C6.11111 22.9334 7.38793 24.1995 8.96296 24.1995H19.1481C20.7232 24.1995 22 25.4656 22 27.0274C22 28.5892 20.7232 29.8554 19.1481 29.8554H2.85185C1.27681 29.8554 0 31.1215 0 32.6833C0 34.2451 1.27681 35.5112 2.85185 35.5112H18.7407C17.1657 35.5112 15.8889 36.7774 15.8889 38.3392C15.8889 39.901 17.1657 41.1671 18.7407 41.1671ZM85.1481 41.1671C86.7232 41.1671 88 39.901 88 38.3392C88 36.7774 86.7232 35.5112 85.1481 35.5112C83.5731 35.5112 82.2963 36.7774 82.2963 38.3392C82.2963 39.901 83.5731 41.1671 85.1481 41.1671Z" fill="#EFF6FF"/>
<path fill-rule="evenodd" clip-rule="evenodd" d="M35.7791 22.3166C35.577 21.4539 35.4148 20.4863 35.2926 19.4135C35.172 18.3577 35.1007 17.2908 35.0783 16.2128C34.9907 12.0055 38.3596 8.52443 42.6023 8.43765C42.7649 8.43434 42.9274 8.43611 43.0896 8.44302C43.6164 8.4654 45.4855 8.44302 46.0364 8.44302C49.4504 8.44302 52.3646 10.8893 52.9285 14.2283C53.2181 15.945 53.3102 17.5455 53.2043 19.0296C53.0837 20.7174 53.0837 21.2709 52.4722 22.7413C52.3284 23.088 36.0659 23.5407 35.7791 22.3166Z" fill="#FCFCFD"/>
<path fill-rule="evenodd" clip-rule="evenodd" d="M42.9274 8.43783L43.0896 8.44304C43.5944 8.46445 45.332 8.44482 45.9606 8.44312L46.0364 8.44304C46.2739 8.44304 46.5094 8.45488 46.7416 8.47811C42.9519 9.90375 40.3005 13.5821 40.4056 17.8284L40.4194 18.2678C40.4361 18.7069 40.4614 19.1447 40.4952 19.5813C40.5885 20.7837 40.7388 21.8717 40.9462 22.8455C40.9637 22.9271 41.0526 23.0059 41.2045 23.0819C38.2708 23.0017 35.8874 22.7786 35.7791 22.3166C35.577 21.454 35.4148 20.4863 35.2926 19.4136C35.1891 18.5085 35.1223 17.5954 35.091 16.6741L35.0783 16.2129C34.9907 12.0055 38.3596 8.52444 42.6023 8.43767C42.7107 8.43545 42.8191 8.43549 42.9274 8.43783Z" fill="#EFF6FF"/>
<path d="M44.3613 30.5274C47.7534 30.5274 50.5034 27.8004 50.5034 24.4368C50.5034 21.073 47.7534 18.3462 44.3613 18.3462C40.9692 18.3462 38.2192 21.073 38.2192 24.4368C38.2192 27.8004 40.9692 30.5274 44.3613 30.5274Z" fill="#FCFCFD"/>
<path fill-rule="evenodd" clip-rule="evenodd" d="M44.2142 28.7437C45.3517 28.7744 46.7149 28.8531 48.3038 28.98L49.1015 30.3011L49.7892 31.1854C49.7114 31.5288 49.6148 31.8342 49.4987 32.1025C48.7747 33.7754 46.6648 34.9857 44.1747 34.9857C44.1494 34.9857 44.1246 34.9857 44.0993 34.9853C44.51 34.3442 44.7687 33.3908 44.8767 32.1247C45.3541 31.9401 45.8605 31.7324 46.3967 31.5021C47.2567 31.1325 47.9672 30.5616 48.5287 29.7896L44.5336 29.2826L44.2142 28.7437ZM42.6604 28.7344C41.7441 29.2438 40.7435 29.6183 39.6851 29.8308C39.7881 29.6567 39.8684 29.4898 39.9267 29.3299C40.0566 28.9723 40.9358 28.7744 42.5634 28.736L42.6604 28.7344Z" fill="#FCFCFD"/>
<path d="M35.7791 22.3166C35.577 21.454 35.4148 20.4863 35.2926 19.4135C35.172 18.3577 35.1007 17.2908 35.0783 16.2128C34.9907 12.0055 38.3596 8.52443 42.6023 8.43765C42.7649 8.43434 42.9274 8.43611 43.0896 8.44302C43.6164 8.4654 45.4855 8.44302 46.0364 8.44302C49.4504 8.44302 52.3646 10.8893 52.9285 14.2283C53.2181 15.945 53.3102 17.5454 53.2043 19.0296C53.0837 20.7174 53.0837 21.2709 52.4722 22.7413" stroke="#3B82F6" stroke-width="1.5" stroke-linecap="round"/>
<path fill-rule="evenodd" clip-rule="evenodd" d="M40.3845 17.714C40.3825 18.0996 40.3825 19.6162 40.3845 22.2638L40.3849 22.6257C40.3849 26.709 43.7232 30.019 47.8409 30.019C47.99 30.019 48.1383 30.0149 48.2854 30.006C47.1071 30.7805 45.6938 31.2309 44.1742 31.2309C40.0565 31.2309 36.7182 27.921 36.7182 23.8376L36.7178 23.4758C36.7158 20.6946 36.7158 19.1614 36.7178 18.8762C36.7215 18.4303 37.0715 18.1729 37.5123 18.1729C37.8851 18.1729 38.796 18.2284 40.2875 17.7475L40.3845 17.714ZM45.6454 14.252C46.0202 14.6103 46.3905 14.9497 46.7568 15.2701C46.1811 15.6102 45.537 15.9259 44.8252 16.2164C43.7546 16.6534 42.9161 16.8362 42.2997 16.9116C43.7892 16.1636 44.9043 15.277 45.6454 14.252Z" fill="#EFF6FF"/>
<path fill-rule="evenodd" clip-rule="evenodd" d="M51.121 17.7126C49.7668 17.935 49.1879 17.7979 48.301 17.158L47.9384 16.8893C47.2095 16.3376 46.464 15.708 45.7009 15.0005C44.7125 16.1538 43.2605 17.1165 41.3526 17.8952C39.8061 18.5265 38.7636 18.6912 37.6257 18.6787C37.5617 18.678 37.5381 18.6778 37.5124 18.6778C37.3136 18.6778 37.2285 18.7492 37.2272 18.8801C37.2248 19.1751 37.2252 20.8304 37.2276 23.8375C37.2276 27.6421 40.3378 30.7262 44.1743 30.7262C48.0109 30.7262 51.121 27.6421 51.121 23.8375V17.7126Z" stroke="#3B82F6" stroke-width="1.5"/>
<path d="M39.5143 28.9209V29.4481C39.5143 30.6455 38.6327 31.6632 37.4394 31.8442L34.0563 32.3577C31.6325 32.7253 29.6219 34.4111 28.8528 36.72C28.6934 37.1987 28.5494 37.6399 28.4209 38.0438" stroke="#3B82F6" stroke-width="1.5" stroke-linecap="round"/>
<path d="M39.5143 28.9209V29.4481C39.5143 30.6455 38.6327 31.6632 37.4394 31.8442L34.0563 32.3577C31.6325 32.7253 29.6219 34.4111 28.8528 36.72C28.6934 37.1987 28.5494 37.6399 28.4209 38.0438" stroke="#3B82F6" stroke-width="1.5" stroke-linecap="round"/>
<path d="M48.7915 28.9209V29.4481C48.7915 30.6455 49.6727 31.6632 50.866 31.8442L54.2491 32.3577C56.6732 32.7253 58.6838 34.4111 59.4529 36.72C59.6122 37.1987 59.7561 37.6399 59.8848 38.0438" stroke="#3B82F6" stroke-width="1.5" stroke-linecap="round"/>
<path d="M46.3661 34.7599C45.7301 34.909 45.0428 34.9902 44.3254 34.9902C41.7074 34.9902 39.4894 33.9071 38.7284 32.4099C38.6062 32.1699 38.5047 31.8964 38.4229 31.5894M48.7914 33.6889C48.4524 33.9394 48.0617 34.1608 47.6303 34.347L48.7914 33.6889Z" stroke="#3B82F6" stroke-width="1.5" stroke-linecap="round" stroke-linejoin="round"/>
</svg>
