<svg width="216" height="120" viewBox="0 0 216 120" fill="none" xmlns="http://www.w3.org/2000/svg">
<g id="System / Location">
<g id="location">
<path id="Vector" fill-rule="evenodd" clip-rule="evenodd" d="M184 24C187.866 24 191 27.134 191 31C191 34.866 187.866 38 184 38H144C147.866 38 151 41.134 151 45C151 48.866 147.866 52 144 52H166C169.866 52 173 55.134 173 59C173 62.866 169.866 66 166 66H155.826C150.952 66 147 69.134 147 73C147 75.577 149 77.911 153 80C156.866 80 160 83.134 160 87C160 90.866 156.866 94 153 94H70C66.134 94 63 90.866 63 87C63 83.134 66.134 80 70 80H31C27.134 80 24 76.866 24 73C24 69.134 27.134 66 31 66H71C74.866 66 78 62.866 78 59C78 55.134 74.866 52 71 52H46C42.134 52 39 48.866 39 45C39 41.134 42.134 38 46 38H86C82.134 38 79 34.866 79 31C79 27.134 82.134 24 86 24H184ZM184 52C187.866 52 191 55.134 191 59C191 62.866 187.866 66 184 66C180.134 66 177 62.866 177 59C177 55.134 180.134 52 184 52Z" fill="#EFF6FF"/>
<path id="Vector_2" fill-rule="evenodd" clip-rule="evenodd" d="M49.7706 53H48.8228C42.7592 53 37.8438 48.0917 37.8438 42.037C37.8438 35.9824 42.7592 31.0741 48.8228 31.0741C48.8618 31.0741 48.901 31.0743 48.9401 31.0747C49.9161 22.5831 56.8645 16 65.2913 16C74.173 16 81.413 23.3132 81.748 32.4661C87.118 32.8128 91.844 38.0396 91.844 43.4897C91.844 47.9647 88.5299 53 84.6039 53H57.302" fill="white"/>
<path id="Vector_3" d="M49.7706 53H48.8228C42.7592 53 37.8438 48.0917 37.8438 42.037C37.8438 35.9824 42.7592 31.0741 48.8228 31.0741C48.8619 31.0741 48.901 31.0743 48.9401 31.0747C49.9161 22.5831 56.8645 16 65.2913 16C74.173 16 81.413 23.3132 81.748 32.4661C87.118 32.8128 91.844 38.0396 91.844 43.4897C91.844 47.9647 88.5299 53 84.6039 53H57.302" stroke="#61A5FA" stroke-width="2.5" stroke-linecap="round"/>
<g id="Vector_4">
<path d="M110.1 98.242C109.924 98.462 109.727 98.663 109.511 98.842C107.801 100.254 105.294 99.993 103.9 98.242C93.618 85.324 85.936 74.134 80.831 64.664C75.7111 55.1666 73.25 47.5216 73.25 41.6608C73.25 22.6341 88.382 7.25 107 7.25C125.618 7.25 140.75 22.6341 140.75 41.6608C140.75 47.5216 138.289 55.1666 133.169 64.664C128.064 74.134 120.382 85.324 110.1 98.242Z" fill="white"/>
<path d="M110.1 98.242C109.924 98.462 109.727 98.663 109.511 98.842C107.801 100.254 105.294 99.993 103.9 98.242C93.618 85.324 85.936 74.134 80.831 64.664C75.7111 55.1666 73.25 47.5216 73.25 41.6608C73.25 22.6341 88.382 7.25 107 7.25C125.618 7.25 140.75 22.6341 140.75 41.6608C140.75 47.5216 138.289 55.1666 133.169 64.664C128.064 74.134 120.382 85.324 110.1 98.242ZM110.1 98.242L111.078 99.02" stroke="#3B82F6" stroke-width="2.5"/>
</g>
<path id="Vector_5" fill-rule="evenodd" clip-rule="evenodd" d="M81.0234 57.2465C81.8624 59.1379 82.8404 61.1389 83.9634 63.2519C88.7434 72.2429 95.9744 82.9399 105.725 95.3629C106.31 96.1099 107.329 96.2059 108.026 95.6209C108.117 95.5449 108.2 95.4589 108.275 95.3629C118.026 82.9399 125.257 72.2429 130.037 63.2519C134.855 54.1879 137 47.1867 137 42.0644C137 29.4004 129.701 18.5589 119.27 13.7109C117.87 18.5106 115.959 23.0925 113.6 27.3935C119.252 29.9558 123.19 35.7075 123.19 42.3921C123.19 51.4609 115.942 58.8126 107 58.8126C100.974 58.8126 95.7174 55.4739 92.9294 50.5211C89.2164 53.1397 85.2304 55.3985 81.0234 57.2465Z" fill="#EFF6FF"/>
<path id="Vector_6" d="M89.921 97.2299C90.601 97.1089 91.053 96.4589 90.931 95.7799C90.81 95.0999 90.16 94.6479 89.481 94.7699L89.921 97.2299ZM82.508 96.3999C81.846 96.5979 81.471 97.2949 81.669 97.9559C81.867 98.6179 82.563 98.9929 83.225 98.7949L82.508 96.3999ZM79.206 100.234C79.84 99.9609 80.132 99.2259 79.859 98.5919C79.586 97.9579 78.851 97.6649 78.217 97.9379L79.206 100.234ZM125.047 94.8659C124.369 94.7399 123.716 95.1869 123.59 95.8659C123.463 96.5449 123.911 97.1969 124.59 97.3239L125.047 94.8659ZM89.481 94.7699C86.957 95.2209 84.616 95.7689 82.508 96.3999L83.225 98.7949C85.229 98.1949 87.476 97.6679 89.921 97.2299L89.481 94.7699ZM78.217 97.9379C76.0329 98.8779 74.2097 99.9629 72.9133 101.191C71.6152 102.421 70.75 103.892 70.75 105.565H73.25C73.25 104.815 73.6302 103.956 74.6326 103.006C75.6367 102.055 77.169 101.111 79.206 100.234L78.217 97.9379ZM70.75 105.565C70.75 107.663 72.1011 109.435 74.0049 110.85C75.9322 112.282 78.641 113.519 81.876 114.535C88.362 116.574 97.244 117.815 107 117.815V115.315C97.426 115.315 88.808 114.093 82.626 112.15C79.528 111.177 77.111 110.043 75.496 108.843C73.8576 107.626 73.25 106.504 73.25 105.565H70.75ZM107 117.815C116.756 117.815 125.638 116.574 132.124 114.535C135.359 113.519 138.068 112.282 139.995 110.85C141.899 109.435 143.25 107.663 143.25 105.565H140.75C140.75 106.504 140.142 107.626 138.504 108.843C136.889 110.043 134.472 111.177 131.374 112.15C125.192 114.093 116.574 115.315 107 115.315V117.815ZM143.25 105.565C143.25 102.797 140.925 100.591 137.86 98.9369C134.693 97.2269 130.258 95.8359 125.047 94.8659L124.59 97.3239C129.665 98.2689 133.821 99.5979 136.673 101.137C139.627 102.731 140.75 104.302 140.75 105.565H143.25Z" fill="#3B82F6"/>
<path id="Vector_7" d="M107 57.75C115.698 57.75 122.75 50.6985 122.75 42C122.75 33.3015 115.698 26.25 107 26.25C98.3015 26.25 91.25 33.3015 91.25 42C91.25 50.6985 98.3015 57.75 107 57.75Z" stroke="#3B82F6" stroke-width="2.5"/>
<path id="Vector_8" fill-rule="evenodd" clip-rule="evenodd" d="M149.789 16.2237C148.875 13.9372 147.063 12.1254 144.776 11.2106L143 10.5L144.776 9.7893C147.063 8.8746 148.875 7.0628 149.789 4.7763L150.5 3L151.211 4.7763C152.125 7.0628 153.937 8.8746 156.224 9.7893L158 10.5L156.224 11.2106C153.937 12.1254 152.125 13.9372 151.211 16.2237L150.5 18L149.789 16.2237Z" stroke="#61A5FA" stroke-width="2.5" stroke-linejoin="round"/>
<path id="Vector_9" fill-rule="evenodd" clip-rule="evenodd" d="M129.691 87H129C124.582 87 121 83.418 121 79C121 74.582 124.582 71 129 71C129.029 71 129.057 71 129.085 71C129.797 64.804 134.86 60 141 60C147.472 60 152.747 65.337 152.991 72.016C156.904 72.269 160.348 76.083 160.348 80.06C160.348 83.326 157.933 87 155.072 87H135.178" fill="white"/>
<path id="Vector_10" d="M129.691 87H129C124.582 87 121 83.418 121 79C121 74.582 124.582 71 129 71C129.029 71 129.057 71 129.085 71C129.797 64.804 134.86 60 141 60C147.472 60 152.747 65.337 152.991 72.016C156.904 72.269 160.348 76.083 160.348 80.06C160.348 83.326 157.933 87 155.072 87H135.178" stroke="#61A5FA" stroke-width="2.5" stroke-linecap="round"/>
</g>
</g>
</svg>
