<svg width="88" height="50" viewBox="0 0 88 50" fill="none" xmlns="http://www.w3.org/2000/svg">
<path fill-rule="evenodd" clip-rule="evenodd" d="M75.3702 11.2642C76.9453 11.2642 78.2221 12.5303 78.2221 14.0921C78.2221 15.6539 76.9453 16.92 75.3702 16.92H59.0739C60.649 16.92 61.9258 18.1862 61.9258 19.748C61.9258 21.3098 60.649 22.5759 59.0739 22.5759H68.0369C69.6119 22.5759 70.8888 23.842 70.8888 25.4039C70.8888 26.9657 69.6119 28.2318 68.0369 28.2318H63.8919C61.9062 28.2318 60.2962 29.4979 60.2962 31.0598C60.2962 32.1009 61.111 33.0438 62.7406 33.8877C64.3156 33.8877 65.5925 35.1538 65.5925 36.7157C65.5925 38.2775 64.3156 39.5436 62.7406 39.5436H28.9258C27.3508 39.5436 26.0739 38.2775 26.0739 36.7157C26.0739 35.1538 27.3508 33.8877 28.9258 33.8877H13.0369C11.4619 33.8877 10.1851 32.6216 10.1851 31.0598C10.1851 29.4979 11.4619 28.2318 13.0369 28.2318H29.3332C30.9082 28.2318 32.1851 26.9657 32.1851 25.4039C32.1851 23.842 30.9082 22.5759 29.3332 22.5759H19.148C17.573 22.5759 16.2962 21.3098 16.2962 19.748C16.2962 18.1862 17.573 16.92 19.148 16.92H35.4443C33.8693 16.92 32.5925 15.6539 32.5925 14.0921C32.5925 12.5303 33.8693 11.2642 35.4443 11.2642H75.3702ZM75.3702 22.5759C76.9453 22.5759 78.2221 23.842 78.2221 25.4039C78.2221 26.9657 76.9453 28.2318 75.3702 28.2318C73.7952 28.2318 72.5184 26.9657 72.5184 25.4039C72.5184 23.842 73.7952 22.5759 75.3702 22.5759Z" fill="#EFF6FF"/>
<path d="M58.7798 7.22412V9.64807" stroke="#61A5FA" stroke-width="1.5" stroke-linecap="round" stroke-linejoin="round"/>
<path d="M58.7798 12.8799V15.3038" stroke="#61A5FA" stroke-width="1.5" stroke-linecap="round" stroke-linejoin="round"/>
<path d="M54.7056 11.2642H57.15" stroke="#61A5FA" stroke-width="1.5" stroke-linecap="round" stroke-linejoin="round"/>
<path d="M60.4092 11.2642H62.8536" stroke="#61A5FA" stroke-width="1.5" stroke-linecap="round" stroke-linejoin="round"/>
<path d="M26.0742 33.8877V35.5037" stroke="#61A5FA" stroke-width="1.5" stroke-linecap="round" stroke-linejoin="round"/>
<path d="M26.0742 38.7354V40.3513" stroke="#61A5FA" stroke-width="1.5" stroke-linecap="round" stroke-linejoin="round"/>
<path d="M22.8149 37.1196H24.4446" stroke="#61A5FA" stroke-width="1.5" stroke-linecap="round" stroke-linejoin="round"/>
<path d="M27.7036 37.1196H29.3332" stroke="#61A5FA" stroke-width="1.5" stroke-linecap="round" stroke-linejoin="round"/>
<path fill-rule="evenodd" clip-rule="evenodd" d="M46.0837 38.1977L45.1772 37.7331L35.5812 42.6484C35.0206 42.9357 34.3311 42.7183 34.0413 42.1628C33.9283 41.9463 33.8889 41.6995 33.9288 41.4591L35.6817 30.8975L27.9982 23.3741C27.5493 22.9346 27.545 22.2177 27.9886 21.7729C28.1615 21.5996 28.3862 21.4862 28.6293 21.4495L39.3085 19.8376L44.1558 10.2724C44.439 9.71355 45.1259 9.488 45.6897 9.76857C45.9097 9.87793 46.0882 10.0546 46.1982 10.2724L51.0455 19.8376L61.7249 21.4495C62.349 21.5436 62.7776 22.1211 62.6827 22.7393C62.6456 22.9802 62.5311 23.2029 62.3559 23.3741L54.6726 30.8975L56.4253 41.4591C56.528 42.076 56.1059 42.6585 55.4834 42.7599C55.2406 42.7995 54.9916 42.7603 54.7729 42.6484C52.2592 41.3609 50.4315 40.4249 49.2908 39.8403L46.0837 38.1977ZM48.0168 39.1878C47.8372 39.0957 47.5675 38.9576 47.2081 38.7733L48.0168 39.1878Z" fill="#FCFCFD"/>
<path d="M46.0837 38.1977L45.1772 37.7331L35.5812 42.6484C35.0206 42.9357 34.3311 42.7183 34.0413 42.1628C33.9283 41.9463 33.8889 41.6995 33.9288 41.4591L35.6817 30.8975L27.9982 23.3741C27.5493 22.9346 27.545 22.2177 27.9886 21.7729C28.1615 21.5996 28.3862 21.4862 28.6293 21.4495L39.3085 19.8376L44.1558 10.2724C44.439 9.71355 45.1259 9.488 45.6897 9.76857C45.9097 9.87793 46.0882 10.0546 46.1982 10.2724L51.0455 19.8376L61.7249 21.4495C62.349 21.5436 62.7776 22.1211 62.6827 22.7393C62.6456 22.9802 62.5311 23.2029 62.3559 23.3741L54.6726 30.8975L56.4253 41.4591C56.528 42.076 56.1059 42.6585 55.4834 42.7599C55.2406 42.7995 54.9916 42.7603 54.7729 42.6484C52.2592 41.3609 50.4315 40.4249 49.2908 39.8403M48.0168 39.1878C47.8372 39.0957 47.5675 38.9576 47.2081 38.7733" stroke="#3B82F6" stroke-width="1.5" stroke-linecap="round" stroke-linejoin="round"/>
<path fill-rule="evenodd" clip-rule="evenodd" d="M56.5843 26.6643L52.9763 30.2554L54.4805 39.4648C54.5481 39.8805 54.2686 40.2728 53.8559 40.3415C53.695 40.3681 53.5296 40.3415 53.385 40.2663L45.1521 35.98L36.9188 40.2663C36.5472 40.4599 36.0901 40.3132 35.8982 39.9391C35.8233 39.7933 35.7971 39.6268 35.8237 39.4648L37.3274 30.2554L30.7353 23.6947C30.4377 23.3986 30.4349 22.9156 30.729 22.6159C30.8436 22.4991 30.9925 22.4227 31.1537 22.398L40.3161 20.9924L43.555 14.4961C44.3861 21.1351 49.8511 26.3209 56.5843 26.6643Z" fill="#EFF6FF"/>
<path d="M44.8315 13.2144L43.1416 16.808M42.2269 18.753L41.8032 19.6539" stroke="#61A5FA" stroke-width="1.5" stroke-linecap="round" stroke-linejoin="round"/>
</svg>
