<svg width="88" height="50" viewBox="0 0 88 50" fill="none" xmlns="http://www.w3.org/2000/svg">
<path fill-rule="evenodd" clip-rule="evenodd" d="M75.3702 10.8496C76.9453 10.8496 78.2221 12.1157 78.2221 13.6776C78.2221 15.2394 76.9453 16.5055 75.3702 16.5055H59.074C60.649 16.5055 61.9258 17.7716 61.9258 19.3334C61.9258 20.8953 60.649 22.1614 59.074 22.1614H68.0369C69.612 22.1614 70.8888 23.4275 70.8888 24.9893C70.8888 26.5512 69.612 27.8173 68.0369 27.8173H63.892C61.9062 27.8173 60.2962 29.0834 60.2962 30.6452C60.2962 31.6863 61.111 32.6292 62.7406 33.4732C64.3157 33.4732 65.5925 34.7393 65.5925 36.3011C65.5925 37.8629 64.3157 39.129 62.7406 39.129H28.9258C27.3508 39.129 26.0739 37.8629 26.0739 36.3011C26.0739 34.7393 27.3508 33.4732 28.9258 33.4732H13.0369C11.4619 33.4732 10.1851 32.2071 10.1851 30.6452C10.1851 29.0834 11.4619 27.8173 13.0369 27.8173H29.3332C30.9082 27.8173 32.1851 26.5512 32.1851 24.9893C32.1851 23.4275 30.9082 22.1614 29.3332 22.1614H19.148C17.573 22.1614 16.2962 20.8953 16.2962 19.3334C16.2962 17.7716 17.573 16.5055 19.148 16.5055H35.4443C33.8693 16.5055 32.5925 15.2394 32.5925 13.6776C32.5925 12.1157 33.8693 10.8496 35.4443 10.8496H75.3702ZM75.3702 22.1614C76.9453 22.1614 78.2221 23.4275 78.2221 24.9893C78.2221 26.5512 76.9453 27.8173 75.3702 27.8173C73.7952 27.8173 72.5184 26.5512 72.5184 24.9893C72.5184 23.4275 73.7952 22.1614 75.3702 22.1614Z" fill="#EFF6FF"/>
<path fill-rule="evenodd" clip-rule="evenodd" d="M34.7039 11.8506C34.9724 12.9006 35.9315 13.6776 37.0738 13.6776L39.1382 13.6778C39.5696 23.3162 45.1226 31.6339 53.164 36.0204L53.1644 40.5342C53.1644 40.9802 52.7998 41.3422 52.3496 41.3422H31.1322C30.6822 41.3422 30.3174 40.9802 30.3174 40.5342V12.6586C30.3174 12.2124 30.6822 11.8506 31.1322 11.8506L34.7039 11.8506Z" fill="#EFF6FF"/>
<path fill-rule="evenodd" clip-rule="evenodd" d="M50.1917 10.1747H53.9012C54.5762 10.1747 55.1234 10.7174 55.1234 11.3867V41.8476C55.1234 42.517 54.5762 43.0595 53.9012 43.0595H30.0933C29.4183 43.0595 28.8711 42.517 28.8711 41.8476V11.3867C28.8711 10.7174 29.4183 10.1747 30.0933 10.1747H33.4086" fill="#FCFCFD"/>
<path fill-rule="evenodd" clip-rule="evenodd" d="M30.0933 10.6797C29.6995 10.6797 29.3803 10.9962 29.3803 11.3867V41.8476C29.3803 42.2381 29.6995 42.5546 30.0933 42.5546H53.9012C54.295 42.5546 54.6141 42.2381 54.6141 41.8476V11.3867C54.6141 10.9962 54.295 10.6797 53.9012 10.6797H50.1917C49.9105 10.6797 49.6825 10.4536 49.6825 10.1747C49.6825 9.89582 49.9105 9.66973 50.1917 9.66973H53.9012C54.8575 9.66973 55.6326 10.4385 55.6326 11.3867V41.8476C55.6326 42.7959 54.8575 43.5645 53.9012 43.5645H30.0933C29.137 43.5645 28.3618 42.7959 28.3618 41.8476V11.3867C28.3618 10.4385 29.137 9.66973 30.0933 9.66973H33.8017C34.083 9.66973 34.311 9.89582 34.311 10.1747C34.311 10.4536 34.083 10.6797 33.8017 10.6797H30.0933Z" fill="#3B82F6"/>
<path fill-rule="evenodd" clip-rule="evenodd" d="M32.1122 17.5155C32.1122 17.2366 32.3402 17.0105 32.6215 17.0105H35.3869C35.6682 17.0105 35.8962 17.2366 35.8962 17.5155V20.2579C35.8962 20.5368 35.6682 20.7629 35.3869 20.7629H32.6215C32.3402 20.7629 32.1122 20.5368 32.1122 20.2579V17.5155ZM33.1307 18.0205V19.7529H34.8777V18.0205H33.1307ZM37.0011 18.9295C37.0011 18.6506 37.2291 18.4245 37.5104 18.4245H50.7918C51.0731 18.4245 51.3011 18.6506 51.3011 18.9295C51.3011 19.2084 51.0731 19.4345 50.7918 19.4345H37.5104C37.2291 19.4345 37.0011 19.2084 37.0011 18.9295ZM32.1122 22.6664C32.1122 22.3875 32.3402 22.1614 32.6215 22.1614H35.3869C35.6682 22.1614 35.8962 22.3875 35.8962 22.6664V25.4087C35.8962 25.6876 35.6682 25.9137 35.3869 25.9137H32.6215C32.3402 25.9137 32.1122 25.6876 32.1122 25.4087V22.6664ZM33.1307 23.1714V24.9037H34.8777V23.1714H33.1307ZM37.0011 23.7774C37.0011 23.4985 37.2291 23.2724 37.5104 23.2724H50.7918C51.0731 23.2724 51.3011 23.4985 51.3011 23.7774C51.3011 24.0563 51.0731 24.2824 50.7918 24.2824H37.5104C37.2291 24.2824 37.0011 24.0563 37.0011 23.7774ZM32.1122 27.8173C32.1122 27.5384 32.3402 27.3123 32.6215 27.3123H35.3869C35.6682 27.3123 35.8962 27.5384 35.8962 27.8173V30.5596C35.8962 30.8385 35.6682 31.0646 35.3869 31.0646H32.6215C32.3402 31.0646 32.1122 30.8385 32.1122 30.5596V27.8173ZM33.1307 28.3223V30.0546H34.8777V28.3223H33.1307ZM37.0011 29.0293C37.0011 28.7504 37.2291 28.5243 37.5104 28.5243H50.7918C51.0731 28.5243 51.3011 28.7504 51.3011 29.0293C51.3011 29.3082 51.0731 29.5343 50.7918 29.5343H37.5104C37.2291 29.5343 37.0011 29.3082 37.0011 29.0293ZM32.1122 32.9682C32.1122 32.6893 32.3402 32.4632 32.6215 32.4632H35.3869C35.6682 32.4632 35.8962 32.6893 35.8962 32.9682V35.7105C35.8962 35.9894 35.6682 36.2155 35.3869 36.2155H32.6215C32.3402 36.2155 32.1122 35.9894 32.1122 35.7105V32.9682ZM33.1307 33.4732V35.2055H34.8777V33.4732H33.1307ZM37.0011 34.2812C37.0011 34.0023 37.2291 33.7762 37.5104 33.7762H50.7918C51.0731 33.7762 51.3011 34.0023 51.3011 34.2812C51.3011 34.5601 51.0731 34.7862 50.7918 34.7862H37.5104C37.2291 34.7862 37.0011 34.5601 37.0011 34.2812Z" fill="#61A5FA"/>
<path fill-rule="evenodd" clip-rule="evenodd" d="M41.9971 7.426C40.9906 7.426 40.1748 8.23503 40.1748 9.23309C40.1748 9.51199 39.9468 9.73808 39.6655 9.73808H36.1806V10.8504C36.1806 11.4648 36.6827 11.9628 37.3022 11.9628H46.6921C47.3115 11.9628 47.8137 11.4648 47.8137 10.8504V9.73808H44.3287C44.0475 9.73808 43.8195 9.51199 43.8195 9.23309C43.8195 8.23503 43.0037 7.426 41.9971 7.426ZM39.2018 8.7281C39.4418 7.41327 40.6019 6.41602 41.9971 6.41602C43.3924 6.41602 44.5525 7.41327 44.7925 8.7281H47.9155C48.4223 8.7281 48.8322 9.13529 48.8322 9.63709V10.8504C48.8322 12.0225 47.8742 12.9728 46.6921 12.9728H37.3022C36.1201 12.9728 35.1621 12.0225 35.1621 10.8504V9.63709C35.1621 9.13529 35.5719 8.7281 36.0787 8.7281H39.2018Z" fill="#3B82F6"/>
<path fill-rule="evenodd" clip-rule="evenodd" d="M41.9971 8.28133C42.6237 8.28133 43.1322 8.78519 43.1322 9.40669C43.1322 9.6913 43.3831 10.018 43.4312 10.2885L47.1574 10.2884C47.1574 10.9074 46.6514 11.4092 46.0272 11.4092H38.0058C37.3812 11.4092 36.8752 10.9074 36.8752 10.2884L40.5631 10.2885C40.6111 10.018 40.8621 9.6913 40.8621 9.40669C40.8621 8.78519 41.3701 8.28133 41.9971 8.28133Z" fill="#EFF6FF"/>
</svg>
