<svg width="24" height="24" viewBox="0 0 24 24" fill="none" xmlns="http://www.w3.org/2000/svg">
<path d="M18.9926 12.6637C18.2973 10.0846 17.2563 7.25637 16.7353 5.88858C17.1778 5.7094 17.6299 5.55509 18.0897 5.42636C18.2151 5.39382 18.3464 5.39061 18.4732 5.41698C18.6001 5.44334 18.7191 5.49856 18.821 5.57833C18.9336 5.66373 19.0248 5.77394 19.0874 5.90031C19.1501 6.02669 19.1825 6.1658 19.1822 6.30674H20.988C20.9893 5.89012 20.8937 5.47885 20.7087 5.10519C20.5237 4.73152 20.2543 4.40561 19.9216 4.153C19.601 3.90419 19.2267 3.7328 18.8284 3.65229C18.43 3.57178 18.0183 3.58434 17.6256 3.68897C16.7976 3.93019 15.987 4.22734 15.1995 4.57835L14.4113 4.93176L14.7318 5.73211C14.7409 5.75459 15.1887 6.87328 15.744 8.42181L11.9771 11.339L8.72129 8.09538H10.1533V6.29685H4.73593V8.09538H6.16792L10.5406 12.4514L8.74657 13.8417C7.93971 13.0845 6.87945 12.6525 5.7711 12.6292C4.66275 12.6059 3.58515 12.9931 2.74696 13.7157C1.90877 14.4383 1.36961 15.445 1.23388 16.5409C1.09816 17.6367 1.37552 18.7437 2.01226 19.6476C2.649 20.5515 3.59983 21.1878 4.68063 21.4335C5.76143 21.6792 6.89532 21.5167 7.86275 20.9776C8.83018 20.4384 9.56232 19.5608 9.91741 18.5149C10.2725 17.4689 10.2253 16.3289 9.78489 15.3156L16.3652 10.2176C16.636 11.0441 16.9069 11.9092 17.1471 12.7527C16.0663 13.0333 15.1283 13.7029 14.5144 14.6323C13.9005 15.5616 13.6543 16.6846 13.8233 17.7842C13.9923 18.8838 14.5647 19.8819 15.4296 20.5857C16.2946 21.2895 17.3908 21.649 18.5063 21.5946C19.6219 21.5402 20.6776 21.0759 21.4695 20.2914C22.2614 19.5069 22.7331 18.4579 22.7936 17.3471C22.854 16.2363 22.4989 15.1426 21.7969 14.2774C21.0948 13.4122 20.0957 12.8378 18.9926 12.6637ZM5.63882 19.7858C5.1031 19.7858 4.57941 19.6276 4.13397 19.3312C3.68853 19.0347 3.34135 18.6134 3.13634 18.1205C2.93133 17.6275 2.87769 17.0851 2.9822 16.5617C3.08672 16.0384 3.34469 15.5577 3.72351 15.1804C4.10232 14.8031 4.58496 14.5462 5.11039 14.4421C5.63582 14.338 6.18044 14.3914 6.67539 14.5956C7.17033 14.7998 7.59337 15.1456 7.891 15.5892C8.18863 16.0329 8.34749 16.5545 8.34749 17.088C8.34749 17.8035 8.06212 18.4897 7.55414 18.9957C7.04617 19.5016 6.35721 19.7858 5.63882 19.7858ZM18.2793 19.7858C17.7436 19.7858 17.2199 19.6276 16.7744 19.3312C16.329 19.0347 15.9818 18.6134 15.7768 18.1205C15.5718 17.6275 15.5181 17.0851 15.6227 16.5617C15.7272 16.0384 15.9851 15.5577 16.364 15.1804C16.7428 14.8031 17.2254 14.5462 17.7508 14.4421C18.2763 14.338 18.8209 14.3914 19.3158 14.5956C19.8108 14.7998 20.2338 15.1456 20.5315 15.5892C20.8291 16.0329 20.988 16.5545 20.988 17.088C20.988 17.8035 20.7026 18.4897 20.1946 18.9957C19.6866 19.5016 18.9977 19.7858 18.2793 19.7858Z" fill="#5A6384"/>
</svg>
