<svg width="25" height="24" viewBox="0 0 25 24" fill="none" xmlns="http://www.w3.org/2000/svg">
<g id="24 / Boat" clip-path="url(#clip0_2579_41624)">
<path id="Icon" fill-rule="evenodd" clip-rule="evenodd" d="M11.3252 1.9C11.2283 1.9 11.1452 1.98306 11.1452 2.08V3.34H14.7452V2.08C14.7452 1.98305 14.6622 1.9 14.5652 1.9H11.3252ZM16.5452 3.34V2.08C16.5452 0.988942 15.6563 0.0999985 14.5652 0.0999985H11.3252C10.2342 0.0999985 9.34521 0.988942 9.34521 2.08V3.34H8.62521C6.34618 3.34 4.48525 5.20091 4.48521 7.47994C4.48521 7.47992 4.48521 7.47996 4.48521 7.47994L4.48498 10.9754L3.51606 11.3644C2.16731 11.907 1.35545 13.4552 1.66551 14.866L2.1087 16.8765C2.96134 20.7194 6.01785 23.5 10.3745 23.5H12.942C12.9431 23.5 12.9441 23.5 12.9452 23.5C12.9463 23.5 12.9474 23.5 12.9485 23.5H15.5153C19.872 23.5 22.9285 20.7194 23.7812 16.8765L24.2242 14.8665C24.5343 13.4557 23.7232 11.9072 22.3745 11.3646L21.405 10.9755L21.4052 7.48006C21.4052 5.201 19.5443 3.34 17.2652 3.34H16.5452ZM15.6452 5.14C15.6449 5.14 15.6455 5.14 15.6452 5.14H10.2452C10.2449 5.14 10.2455 5.14 10.2452 5.14L8.62521 5.14C7.34027 5.14 6.28521 6.19506 6.28521 7.48L6.28503 10.2533L11.0045 8.36036C12.2541 7.86572 13.6358 7.86573 14.8854 8.36036L14.8892 8.36187L19.605 10.2533L19.6052 7.48C19.6052 7.47998 19.6052 7.48002 19.6052 7.48C19.6052 6.19508 18.5501 5.14 17.2652 5.14L15.6452 5.14ZM14.2229 10.034C14.2223 10.0338 14.2217 10.0336 14.2211 10.0333C14.0975 9.98447 13.972 9.94296 13.8452 9.90878V21.7H15.5153C18.9776 21.7 21.3426 19.556 22.0238 16.4872C22.0238 16.487 22.0237 16.4874 22.0238 16.4872L22.4663 14.4796C22.4664 14.4794 22.4663 14.4798 22.4663 14.4796C22.5879 13.9249 22.233 13.2479 21.7027 13.0346C21.7027 13.0346 21.7027 13.0346 21.7027 13.0346L14.2229 10.034ZM12.0452 21.7V9.90863C11.9182 9.94283 11.7925 9.9844 11.6688 10.0333C11.6682 10.0336 11.6676 10.0338 11.667 10.034L4.18723 13.0346C3.65682 13.2479 3.30167 13.9247 3.42353 14.4795C3.42354 14.4795 3.42352 14.4794 3.42353 14.4795L3.86597 16.4866C3.86601 16.4868 3.86593 16.4864 3.86597 16.4866C4.54711 19.5554 6.91224 21.7 10.3745 21.7H12.0452Z" fill="#5A6384"/>
</g>
<defs>
<clipPath id="clip0_2579_41624">
<rect width="24" height="24" fill="white" transform="translate(0.5)"/>
</clipPath>
</defs>
</svg>
