<svg width="24" height="24" viewBox="0 0 24 24" fill="none" xmlns="http://www.w3.org/2000/svg">
<path d="M22.6 9.4148C22.6 9.07226 22.4578 8.74374 22.2046 8.50153C21.9514 8.25931 21.608 8.12323 21.25 8.12323C21.25 8.12323 20.7244 8.12323 20.6875 8.13012C20.0145 6.93717 19.2435 5.79728 18.3817 4.72123C17.932 4.16181 17.3089 3.75282 16.6015 3.55279C15.0166 2.81574 8.5834 2.81574 6.9985 3.55279C6.2911 3.75282 5.66798 4.16181 5.2183 4.72123C4.3565 5.79728 3.58548 6.93717 2.9125 8.13012C2.8756 8.12323 2.35 8.12323 2.35 8.12323C1.99196 8.12323 1.64858 8.25931 1.39541 8.50153C1.14223 8.74374 1 9.07226 1 9.4148L1 15.0116C1.00017 15.616 1.1666 16.2098 1.48256 16.7332C1.79851 17.2566 2.25288 17.6912 2.8 17.9934V19.3169C2.8 20.0019 3.08446 20.659 3.59081 21.1434C4.09716 21.6278 4.78392 21.9 5.5 21.9C6.21608 21.9 6.90284 21.6278 7.40919 21.1434C7.91554 20.659 8.2 20.0019 8.2 19.3169V18.4558H15.4V19.3169C15.4 20.0019 15.6845 20.659 16.1908 21.1434C16.6972 21.6278 17.3839 21.9 18.1 21.9C18.8161 21.9 19.5028 21.6278 20.0092 21.1434C20.5155 20.659 20.8 20.0019 20.8 19.3169V17.9934C21.3471 17.6912 21.8015 17.2566 22.1174 16.7332C22.4334 16.2098 22.5998 15.616 22.6 15.0116V9.4148ZM6.6466 5.76913C6.86708 5.4971 7.17163 5.29853 7.5169 5.2017C8.884 4.55505 14.7169 4.55505 16.0831 5.2017C16.4284 5.29853 16.7329 5.4971 16.9534 5.76913C18.3202 7.48369 19.4458 9.36247 20.3014 11.3573C14.6636 10.5703 8.93635 10.5703 3.2986 11.3573C4.15423 9.36247 5.27985 7.48369 6.6466 5.76913ZM6.4 19.3169C6.4 19.5452 6.30518 19.7642 6.1364 19.9257C5.96761 20.0872 5.73869 20.1779 5.5 20.1779C5.26131 20.1779 5.03239 20.0872 4.8636 19.9257C4.69482 19.7642 4.6 19.5452 4.6 19.3169V18.4558H6.4V19.3169ZM19 19.3169C19 19.5452 18.9052 19.7642 18.7364 19.9257C18.5676 20.0872 18.3387 20.1779 18.1 20.1779C17.8613 20.1779 17.6324 20.0872 17.4636 19.9257C17.2948 19.7642 17.2 19.5452 17.2 19.3169V18.4558H19V19.3169ZM19 16.7337H4.6C4.12261 16.7337 3.66477 16.5523 3.32721 16.2293C2.98964 15.9064 2.8 15.4683 2.8 15.0116V13.1664C5.77968 12.7306 8.78626 12.4841 11.8 12.4285C14.8137 12.4841 17.8203 12.7306 20.8 13.1664V15.0116C20.8 15.4683 20.6104 15.9064 20.2728 16.2293C19.9352 16.5523 19.4774 16.7337 19 16.7337ZM6.4 15.0116C6.4 15.24 6.30518 15.459 6.1364 15.6205C5.96761 15.7819 5.73869 15.8727 5.5 15.8727C5.26131 15.8727 5.03239 15.7819 4.8636 15.6205C4.69482 15.459 4.6 15.24 4.6 15.0116C4.6 14.7833 4.69482 14.5642 4.8636 14.4028C5.03239 14.2413 5.26131 14.1506 5.5 14.1506C5.73869 14.1506 5.96761 14.2413 6.1364 14.4028C6.30518 14.5642 6.4 14.7833 6.4 15.0116ZM19 15.0116C19 15.24 18.9052 15.459 18.7364 15.6205C18.5676 15.7819 18.3387 15.8727 18.1 15.8727C17.8613 15.8727 17.6324 15.7819 17.4636 15.6205C17.2948 15.459 17.2 15.24 17.2 15.0116C17.2 14.7833 17.2948 14.5642 17.4636 14.4028C17.6324 14.2413 17.8613 14.1506 18.1 14.1506C18.3387 14.1506 18.5676 14.2413 18.7364 14.4028C18.9052 14.5642 19 14.7833 19 15.0116Z" fill="#5A6384"/>
</svg>
